M48
;DRILL file {KiCad (5.0.0)} date 11/19/18 11:24:45
;FORMAT={-:-/ absolute / metric / decimal}
FMAT,2
METRIC,TZ
T1C0.300
T2C1.016
%
G90
G05
M71
T1
X98.Y-78.
X98.Y-80.
X98.Y-86.
X98.Y-88.
X98.Y-90.
X98.Y-92.
X99.183Y-84.641
X100.Y-78.
X100.012Y-84.641
X101.Y-87.5
X101.Y-90.
X104.Y-76.
X104.Y-99.
X106.Y-76.
X107.Y-99.
X108.Y-76.
X108.Y-81.
X108.394Y-89.725
X108.521Y-96.012
X109.Y-82.867
X109.Y-84.
X109.Y-85.
X109.093Y-91.567
X109.093Y-92.456
X109.093Y-93.345
X109.093Y-95.504
X109.156Y-89.725
X110.Y-82.
X110.49Y-95.758
X111.Y-89.916
X111.143Y-82.
X111.633Y-77.533
X112.286Y-82.
X112.333Y-89.916
X113.429Y-82.
X113.667Y-89.916
X113.919Y-77.533
X114.571Y-82.
X115.Y-89.916
X115.714Y-82.
X116.753Y-93.535
X116.857Y-82.
X118.Y-76.
X118.Y-82.
X118.Y-97.98
X118.Y-99.
X120.777Y-76.073
X121.Y-99.
X121.017Y-96.252
X122.174Y-91.186
X122.237Y-93.726
X122.5Y-86.
X122.5Y-88.5
X124.Y-79.
T2
X110.16Y-98.5
X112.7Y-98.5
X115.24Y-98.5
X110.16Y-76.1
X112.7Y-76.1
X115.24Y-76.1
X123.9Y-82.4
X123.9Y-84.94
X123.9Y-87.48
X123.9Y-90.02
X123.9Y-92.56
X123.9Y-95.1
T0
M30
