G04 #@! TF.GenerationSoftware,KiCad,Pcbnew,(5.0.0)*
G04 #@! TF.CreationDate,2018-11-19T11:24:39+03:00*
G04 #@! TF.ProjectId,NeoP_1x3,4E656F505F3178332E6B696361645F70,rev?*
G04 #@! TF.SameCoordinates,Original*
G04 #@! TF.FileFunction,Copper,L2,Bot,Signal*
G04 #@! TF.FilePolarity,Positive*
%FSLAX46Y46*%
G04 Gerber Fmt 4.6, Leading zero omitted, Abs format (unit mm)*
G04 Created by KiCad (PCBNEW (5.0.0)) date 11/19/18 11:24:39*
%MOMM*%
%LPD*%
G01*
G04 APERTURE LIST*
G04 #@! TA.AperFunction,ComponentPad*
%ADD10O,2.032000X1.727200*%
G04 #@! TD*
G04 #@! TA.AperFunction,ComponentPad*
%ADD11C,2.032000*%
G04 #@! TD*
G04 #@! TA.AperFunction,SMDPad,CuDef*
%ADD12R,2.000000X1.700000*%
G04 #@! TD*
G04 #@! TA.AperFunction,ComponentPad*
%ADD13R,1.727200X2.032000*%
G04 #@! TD*
G04 #@! TA.AperFunction,ComponentPad*
%ADD14O,1.727200X2.032000*%
G04 #@! TD*
G04 #@! TA.AperFunction,Conductor*
%ADD15C,0.100000*%
G04 #@! TD*
G04 #@! TA.AperFunction,SMDPad,CuDef*
%ADD16C,0.950000*%
G04 #@! TD*
G04 #@! TA.AperFunction,SMDPad,CuDef*
%ADD17R,0.900000X0.800000*%
G04 #@! TD*
G04 #@! TA.AperFunction,SMDPad,CuDef*
%ADD18C,1.350000*%
G04 #@! TD*
G04 #@! TA.AperFunction,ViaPad*
%ADD19C,0.700000*%
G04 #@! TD*
G04 #@! TA.AperFunction,Conductor*
%ADD20C,0.500000*%
G04 #@! TD*
G04 #@! TA.AperFunction,Conductor*
%ADD21C,0.200000*%
G04 #@! TD*
G04 #@! TA.AperFunction,Conductor*
%ADD22C,0.400000*%
G04 #@! TD*
G04 #@! TA.AperFunction,Conductor*
%ADD23C,0.254000*%
G04 #@! TD*
G04 APERTURE END LIST*
D10*
G04 #@! TO.P,J1,6*
G04 #@! TO.N,+5V*
X123900000Y-82400000D03*
G04 #@! TO.P,J1,5*
G04 #@! TO.N,GND*
X123900000Y-84940000D03*
G04 #@! TO.P,J1,4*
G04 #@! TO.N,R*
X123900000Y-87480000D03*
G04 #@! TO.P,J1,3*
G04 #@! TO.N,G*
X123900000Y-90020000D03*
G04 #@! TO.P,J1,2*
G04 #@! TO.N,B*
X123900000Y-92560000D03*
D11*
G04 #@! TO.P,J1,1*
G04 #@! TO.N,TC*
X123900000Y-95100000D03*
G04 #@! TD*
D12*
G04 #@! TO.P,R4,1*
G04 #@! TO.N,GND*
X101695500Y-79502000D03*
G04 #@! TO.P,R4,2*
G04 #@! TO.N,Net-(Q1-Pad2)*
X105695500Y-79502000D03*
G04 #@! TD*
G04 #@! TO.P,R5,1*
G04 #@! TO.N,GND*
X101695500Y-85598000D03*
G04 #@! TO.P,R5,2*
G04 #@! TO.N,Net-(Q2-Pad2)*
X105695500Y-85598000D03*
G04 #@! TD*
G04 #@! TO.P,R6,2*
G04 #@! TO.N,Net-(Q3-Pad2)*
X105695500Y-91694000D03*
G04 #@! TO.P,R6,1*
G04 #@! TO.N,GND*
X101695500Y-91694000D03*
G04 #@! TD*
D13*
G04 #@! TO.P,J2,1*
G04 #@! TO.N,N/C*
X110160000Y-76100000D03*
D14*
G04 #@! TO.P,J2,2*
G04 #@! TO.N,+5V*
X112700000Y-76100000D03*
G04 #@! TO.P,J2,3*
G04 #@! TO.N,GND*
X115240000Y-76100000D03*
G04 #@! TD*
G04 #@! TO.P,J3,3*
G04 #@! TO.N,GND*
X115240000Y-98500000D03*
G04 #@! TO.P,J3,2*
G04 #@! TO.N,+5V*
X112700000Y-98500000D03*
D13*
G04 #@! TO.P,J3,1*
G04 #@! TO.N,N/C*
X110160000Y-98500000D03*
G04 #@! TD*
D15*
G04 #@! TO.N,Net-(Q1-Pad1)*
G04 #@! TO.C,R1*
G36*
X119577779Y-86902144D02*
X119600834Y-86905563D01*
X119623443Y-86911227D01*
X119645387Y-86919079D01*
X119666457Y-86929044D01*
X119686448Y-86941026D01*
X119705168Y-86954910D01*
X119722438Y-86970562D01*
X119738090Y-86987832D01*
X119751974Y-87006552D01*
X119763956Y-87026543D01*
X119773921Y-87047613D01*
X119781773Y-87069557D01*
X119787437Y-87092166D01*
X119790856Y-87115221D01*
X119792000Y-87138500D01*
X119792000Y-87613500D01*
X119790856Y-87636779D01*
X119787437Y-87659834D01*
X119781773Y-87682443D01*
X119773921Y-87704387D01*
X119763956Y-87725457D01*
X119751974Y-87745448D01*
X119738090Y-87764168D01*
X119722438Y-87781438D01*
X119705168Y-87797090D01*
X119686448Y-87810974D01*
X119666457Y-87822956D01*
X119645387Y-87832921D01*
X119623443Y-87840773D01*
X119600834Y-87846437D01*
X119577779Y-87849856D01*
X119554500Y-87851000D01*
X118979500Y-87851000D01*
X118956221Y-87849856D01*
X118933166Y-87846437D01*
X118910557Y-87840773D01*
X118888613Y-87832921D01*
X118867543Y-87822956D01*
X118847552Y-87810974D01*
X118828832Y-87797090D01*
X118811562Y-87781438D01*
X118795910Y-87764168D01*
X118782026Y-87745448D01*
X118770044Y-87725457D01*
X118760079Y-87704387D01*
X118752227Y-87682443D01*
X118746563Y-87659834D01*
X118743144Y-87636779D01*
X118742000Y-87613500D01*
X118742000Y-87138500D01*
X118743144Y-87115221D01*
X118746563Y-87092166D01*
X118752227Y-87069557D01*
X118760079Y-87047613D01*
X118770044Y-87026543D01*
X118782026Y-87006552D01*
X118795910Y-86987832D01*
X118811562Y-86970562D01*
X118828832Y-86954910D01*
X118847552Y-86941026D01*
X118867543Y-86929044D01*
X118888613Y-86919079D01*
X118910557Y-86911227D01*
X118933166Y-86905563D01*
X118956221Y-86902144D01*
X118979500Y-86901000D01*
X119554500Y-86901000D01*
X119577779Y-86902144D01*
X119577779Y-86902144D01*
G37*
D16*
G04 #@! TD*
G04 #@! TO.P,R1,1*
G04 #@! TO.N,Net-(Q1-Pad1)*
X119267000Y-87376000D03*
D15*
G04 #@! TO.N,R*
G04 #@! TO.C,R1*
G36*
X121327779Y-86902144D02*
X121350834Y-86905563D01*
X121373443Y-86911227D01*
X121395387Y-86919079D01*
X121416457Y-86929044D01*
X121436448Y-86941026D01*
X121455168Y-86954910D01*
X121472438Y-86970562D01*
X121488090Y-86987832D01*
X121501974Y-87006552D01*
X121513956Y-87026543D01*
X121523921Y-87047613D01*
X121531773Y-87069557D01*
X121537437Y-87092166D01*
X121540856Y-87115221D01*
X121542000Y-87138500D01*
X121542000Y-87613500D01*
X121540856Y-87636779D01*
X121537437Y-87659834D01*
X121531773Y-87682443D01*
X121523921Y-87704387D01*
X121513956Y-87725457D01*
X121501974Y-87745448D01*
X121488090Y-87764168D01*
X121472438Y-87781438D01*
X121455168Y-87797090D01*
X121436448Y-87810974D01*
X121416457Y-87822956D01*
X121395387Y-87832921D01*
X121373443Y-87840773D01*
X121350834Y-87846437D01*
X121327779Y-87849856D01*
X121304500Y-87851000D01*
X120729500Y-87851000D01*
X120706221Y-87849856D01*
X120683166Y-87846437D01*
X120660557Y-87840773D01*
X120638613Y-87832921D01*
X120617543Y-87822956D01*
X120597552Y-87810974D01*
X120578832Y-87797090D01*
X120561562Y-87781438D01*
X120545910Y-87764168D01*
X120532026Y-87745448D01*
X120520044Y-87725457D01*
X120510079Y-87704387D01*
X120502227Y-87682443D01*
X120496563Y-87659834D01*
X120493144Y-87636779D01*
X120492000Y-87613500D01*
X120492000Y-87138500D01*
X120493144Y-87115221D01*
X120496563Y-87092166D01*
X120502227Y-87069557D01*
X120510079Y-87047613D01*
X120520044Y-87026543D01*
X120532026Y-87006552D01*
X120545910Y-86987832D01*
X120561562Y-86970562D01*
X120578832Y-86954910D01*
X120597552Y-86941026D01*
X120617543Y-86929044D01*
X120638613Y-86919079D01*
X120660557Y-86911227D01*
X120683166Y-86905563D01*
X120706221Y-86902144D01*
X120729500Y-86901000D01*
X121304500Y-86901000D01*
X121327779Y-86902144D01*
X121327779Y-86902144D01*
G37*
D16*
G04 #@! TD*
G04 #@! TO.P,R1,2*
G04 #@! TO.N,R*
X121017000Y-87376000D03*
D15*
G04 #@! TO.N,Net-(Q2-Pad1)*
G04 #@! TO.C,R2*
G36*
X119577779Y-89442144D02*
X119600834Y-89445563D01*
X119623443Y-89451227D01*
X119645387Y-89459079D01*
X119666457Y-89469044D01*
X119686448Y-89481026D01*
X119705168Y-89494910D01*
X119722438Y-89510562D01*
X119738090Y-89527832D01*
X119751974Y-89546552D01*
X119763956Y-89566543D01*
X119773921Y-89587613D01*
X119781773Y-89609557D01*
X119787437Y-89632166D01*
X119790856Y-89655221D01*
X119792000Y-89678500D01*
X119792000Y-90153500D01*
X119790856Y-90176779D01*
X119787437Y-90199834D01*
X119781773Y-90222443D01*
X119773921Y-90244387D01*
X119763956Y-90265457D01*
X119751974Y-90285448D01*
X119738090Y-90304168D01*
X119722438Y-90321438D01*
X119705168Y-90337090D01*
X119686448Y-90350974D01*
X119666457Y-90362956D01*
X119645387Y-90372921D01*
X119623443Y-90380773D01*
X119600834Y-90386437D01*
X119577779Y-90389856D01*
X119554500Y-90391000D01*
X118979500Y-90391000D01*
X118956221Y-90389856D01*
X118933166Y-90386437D01*
X118910557Y-90380773D01*
X118888613Y-90372921D01*
X118867543Y-90362956D01*
X118847552Y-90350974D01*
X118828832Y-90337090D01*
X118811562Y-90321438D01*
X118795910Y-90304168D01*
X118782026Y-90285448D01*
X118770044Y-90265457D01*
X118760079Y-90244387D01*
X118752227Y-90222443D01*
X118746563Y-90199834D01*
X118743144Y-90176779D01*
X118742000Y-90153500D01*
X118742000Y-89678500D01*
X118743144Y-89655221D01*
X118746563Y-89632166D01*
X118752227Y-89609557D01*
X118760079Y-89587613D01*
X118770044Y-89566543D01*
X118782026Y-89546552D01*
X118795910Y-89527832D01*
X118811562Y-89510562D01*
X118828832Y-89494910D01*
X118847552Y-89481026D01*
X118867543Y-89469044D01*
X118888613Y-89459079D01*
X118910557Y-89451227D01*
X118933166Y-89445563D01*
X118956221Y-89442144D01*
X118979500Y-89441000D01*
X119554500Y-89441000D01*
X119577779Y-89442144D01*
X119577779Y-89442144D01*
G37*
D16*
G04 #@! TD*
G04 #@! TO.P,R2,1*
G04 #@! TO.N,Net-(Q2-Pad1)*
X119267000Y-89916000D03*
D15*
G04 #@! TO.N,G*
G04 #@! TO.C,R2*
G36*
X121327779Y-89442144D02*
X121350834Y-89445563D01*
X121373443Y-89451227D01*
X121395387Y-89459079D01*
X121416457Y-89469044D01*
X121436448Y-89481026D01*
X121455168Y-89494910D01*
X121472438Y-89510562D01*
X121488090Y-89527832D01*
X121501974Y-89546552D01*
X121513956Y-89566543D01*
X121523921Y-89587613D01*
X121531773Y-89609557D01*
X121537437Y-89632166D01*
X121540856Y-89655221D01*
X121542000Y-89678500D01*
X121542000Y-90153500D01*
X121540856Y-90176779D01*
X121537437Y-90199834D01*
X121531773Y-90222443D01*
X121523921Y-90244387D01*
X121513956Y-90265457D01*
X121501974Y-90285448D01*
X121488090Y-90304168D01*
X121472438Y-90321438D01*
X121455168Y-90337090D01*
X121436448Y-90350974D01*
X121416457Y-90362956D01*
X121395387Y-90372921D01*
X121373443Y-90380773D01*
X121350834Y-90386437D01*
X121327779Y-90389856D01*
X121304500Y-90391000D01*
X120729500Y-90391000D01*
X120706221Y-90389856D01*
X120683166Y-90386437D01*
X120660557Y-90380773D01*
X120638613Y-90372921D01*
X120617543Y-90362956D01*
X120597552Y-90350974D01*
X120578832Y-90337090D01*
X120561562Y-90321438D01*
X120545910Y-90304168D01*
X120532026Y-90285448D01*
X120520044Y-90265457D01*
X120510079Y-90244387D01*
X120502227Y-90222443D01*
X120496563Y-90199834D01*
X120493144Y-90176779D01*
X120492000Y-90153500D01*
X120492000Y-89678500D01*
X120493144Y-89655221D01*
X120496563Y-89632166D01*
X120502227Y-89609557D01*
X120510079Y-89587613D01*
X120520044Y-89566543D01*
X120532026Y-89546552D01*
X120545910Y-89527832D01*
X120561562Y-89510562D01*
X120578832Y-89494910D01*
X120597552Y-89481026D01*
X120617543Y-89469044D01*
X120638613Y-89459079D01*
X120660557Y-89451227D01*
X120683166Y-89445563D01*
X120706221Y-89442144D01*
X120729500Y-89441000D01*
X121304500Y-89441000D01*
X121327779Y-89442144D01*
X121327779Y-89442144D01*
G37*
D16*
G04 #@! TD*
G04 #@! TO.P,R2,2*
G04 #@! TO.N,G*
X121017000Y-89916000D03*
D15*
G04 #@! TO.N,B*
G04 #@! TO.C,R3*
G36*
X121327779Y-91982144D02*
X121350834Y-91985563D01*
X121373443Y-91991227D01*
X121395387Y-91999079D01*
X121416457Y-92009044D01*
X121436448Y-92021026D01*
X121455168Y-92034910D01*
X121472438Y-92050562D01*
X121488090Y-92067832D01*
X121501974Y-92086552D01*
X121513956Y-92106543D01*
X121523921Y-92127613D01*
X121531773Y-92149557D01*
X121537437Y-92172166D01*
X121540856Y-92195221D01*
X121542000Y-92218500D01*
X121542000Y-92693500D01*
X121540856Y-92716779D01*
X121537437Y-92739834D01*
X121531773Y-92762443D01*
X121523921Y-92784387D01*
X121513956Y-92805457D01*
X121501974Y-92825448D01*
X121488090Y-92844168D01*
X121472438Y-92861438D01*
X121455168Y-92877090D01*
X121436448Y-92890974D01*
X121416457Y-92902956D01*
X121395387Y-92912921D01*
X121373443Y-92920773D01*
X121350834Y-92926437D01*
X121327779Y-92929856D01*
X121304500Y-92931000D01*
X120729500Y-92931000D01*
X120706221Y-92929856D01*
X120683166Y-92926437D01*
X120660557Y-92920773D01*
X120638613Y-92912921D01*
X120617543Y-92902956D01*
X120597552Y-92890974D01*
X120578832Y-92877090D01*
X120561562Y-92861438D01*
X120545910Y-92844168D01*
X120532026Y-92825448D01*
X120520044Y-92805457D01*
X120510079Y-92784387D01*
X120502227Y-92762443D01*
X120496563Y-92739834D01*
X120493144Y-92716779D01*
X120492000Y-92693500D01*
X120492000Y-92218500D01*
X120493144Y-92195221D01*
X120496563Y-92172166D01*
X120502227Y-92149557D01*
X120510079Y-92127613D01*
X120520044Y-92106543D01*
X120532026Y-92086552D01*
X120545910Y-92067832D01*
X120561562Y-92050562D01*
X120578832Y-92034910D01*
X120597552Y-92021026D01*
X120617543Y-92009044D01*
X120638613Y-91999079D01*
X120660557Y-91991227D01*
X120683166Y-91985563D01*
X120706221Y-91982144D01*
X120729500Y-91981000D01*
X121304500Y-91981000D01*
X121327779Y-91982144D01*
X121327779Y-91982144D01*
G37*
D16*
G04 #@! TD*
G04 #@! TO.P,R3,2*
G04 #@! TO.N,B*
X121017000Y-92456000D03*
D15*
G04 #@! TO.N,Net-(Q3-Pad1)*
G04 #@! TO.C,R3*
G36*
X119577779Y-91982144D02*
X119600834Y-91985563D01*
X119623443Y-91991227D01*
X119645387Y-91999079D01*
X119666457Y-92009044D01*
X119686448Y-92021026D01*
X119705168Y-92034910D01*
X119722438Y-92050562D01*
X119738090Y-92067832D01*
X119751974Y-92086552D01*
X119763956Y-92106543D01*
X119773921Y-92127613D01*
X119781773Y-92149557D01*
X119787437Y-92172166D01*
X119790856Y-92195221D01*
X119792000Y-92218500D01*
X119792000Y-92693500D01*
X119790856Y-92716779D01*
X119787437Y-92739834D01*
X119781773Y-92762443D01*
X119773921Y-92784387D01*
X119763956Y-92805457D01*
X119751974Y-92825448D01*
X119738090Y-92844168D01*
X119722438Y-92861438D01*
X119705168Y-92877090D01*
X119686448Y-92890974D01*
X119666457Y-92902956D01*
X119645387Y-92912921D01*
X119623443Y-92920773D01*
X119600834Y-92926437D01*
X119577779Y-92929856D01*
X119554500Y-92931000D01*
X118979500Y-92931000D01*
X118956221Y-92929856D01*
X118933166Y-92926437D01*
X118910557Y-92920773D01*
X118888613Y-92912921D01*
X118867543Y-92902956D01*
X118847552Y-92890974D01*
X118828832Y-92877090D01*
X118811562Y-92861438D01*
X118795910Y-92844168D01*
X118782026Y-92825448D01*
X118770044Y-92805457D01*
X118760079Y-92784387D01*
X118752227Y-92762443D01*
X118746563Y-92739834D01*
X118743144Y-92716779D01*
X118742000Y-92693500D01*
X118742000Y-92218500D01*
X118743144Y-92195221D01*
X118746563Y-92172166D01*
X118752227Y-92149557D01*
X118760079Y-92127613D01*
X118770044Y-92106543D01*
X118782026Y-92086552D01*
X118795910Y-92067832D01*
X118811562Y-92050562D01*
X118828832Y-92034910D01*
X118847552Y-92021026D01*
X118867543Y-92009044D01*
X118888613Y-91999079D01*
X118910557Y-91991227D01*
X118933166Y-91985563D01*
X118956221Y-91982144D01*
X118979500Y-91981000D01*
X119554500Y-91981000D01*
X119577779Y-91982144D01*
X119577779Y-91982144D01*
G37*
D16*
G04 #@! TD*
G04 #@! TO.P,R3,1*
G04 #@! TO.N,Net-(Q3-Pad1)*
X119267000Y-92456000D03*
D15*
G04 #@! TO.N,+5V*
G04 #@! TO.C,R7*
G36*
X119577779Y-94522144D02*
X119600834Y-94525563D01*
X119623443Y-94531227D01*
X119645387Y-94539079D01*
X119666457Y-94549044D01*
X119686448Y-94561026D01*
X119705168Y-94574910D01*
X119722438Y-94590562D01*
X119738090Y-94607832D01*
X119751974Y-94626552D01*
X119763956Y-94646543D01*
X119773921Y-94667613D01*
X119781773Y-94689557D01*
X119787437Y-94712166D01*
X119790856Y-94735221D01*
X119792000Y-94758500D01*
X119792000Y-95233500D01*
X119790856Y-95256779D01*
X119787437Y-95279834D01*
X119781773Y-95302443D01*
X119773921Y-95324387D01*
X119763956Y-95345457D01*
X119751974Y-95365448D01*
X119738090Y-95384168D01*
X119722438Y-95401438D01*
X119705168Y-95417090D01*
X119686448Y-95430974D01*
X119666457Y-95442956D01*
X119645387Y-95452921D01*
X119623443Y-95460773D01*
X119600834Y-95466437D01*
X119577779Y-95469856D01*
X119554500Y-95471000D01*
X118979500Y-95471000D01*
X118956221Y-95469856D01*
X118933166Y-95466437D01*
X118910557Y-95460773D01*
X118888613Y-95452921D01*
X118867543Y-95442956D01*
X118847552Y-95430974D01*
X118828832Y-95417090D01*
X118811562Y-95401438D01*
X118795910Y-95384168D01*
X118782026Y-95365448D01*
X118770044Y-95345457D01*
X118760079Y-95324387D01*
X118752227Y-95302443D01*
X118746563Y-95279834D01*
X118743144Y-95256779D01*
X118742000Y-95233500D01*
X118742000Y-94758500D01*
X118743144Y-94735221D01*
X118746563Y-94712166D01*
X118752227Y-94689557D01*
X118760079Y-94667613D01*
X118770044Y-94646543D01*
X118782026Y-94626552D01*
X118795910Y-94607832D01*
X118811562Y-94590562D01*
X118828832Y-94574910D01*
X118847552Y-94561026D01*
X118867543Y-94549044D01*
X118888613Y-94539079D01*
X118910557Y-94531227D01*
X118933166Y-94525563D01*
X118956221Y-94522144D01*
X118979500Y-94521000D01*
X119554500Y-94521000D01*
X119577779Y-94522144D01*
X119577779Y-94522144D01*
G37*
D16*
G04 #@! TD*
G04 #@! TO.P,R7,2*
G04 #@! TO.N,+5V*
X119267000Y-94996000D03*
D15*
G04 #@! TO.N,TC*
G04 #@! TO.C,R7*
G36*
X121327779Y-94522144D02*
X121350834Y-94525563D01*
X121373443Y-94531227D01*
X121395387Y-94539079D01*
X121416457Y-94549044D01*
X121436448Y-94561026D01*
X121455168Y-94574910D01*
X121472438Y-94590562D01*
X121488090Y-94607832D01*
X121501974Y-94626552D01*
X121513956Y-94646543D01*
X121523921Y-94667613D01*
X121531773Y-94689557D01*
X121537437Y-94712166D01*
X121540856Y-94735221D01*
X121542000Y-94758500D01*
X121542000Y-95233500D01*
X121540856Y-95256779D01*
X121537437Y-95279834D01*
X121531773Y-95302443D01*
X121523921Y-95324387D01*
X121513956Y-95345457D01*
X121501974Y-95365448D01*
X121488090Y-95384168D01*
X121472438Y-95401438D01*
X121455168Y-95417090D01*
X121436448Y-95430974D01*
X121416457Y-95442956D01*
X121395387Y-95452921D01*
X121373443Y-95460773D01*
X121350834Y-95466437D01*
X121327779Y-95469856D01*
X121304500Y-95471000D01*
X120729500Y-95471000D01*
X120706221Y-95469856D01*
X120683166Y-95466437D01*
X120660557Y-95460773D01*
X120638613Y-95452921D01*
X120617543Y-95442956D01*
X120597552Y-95430974D01*
X120578832Y-95417090D01*
X120561562Y-95401438D01*
X120545910Y-95384168D01*
X120532026Y-95365448D01*
X120520044Y-95345457D01*
X120510079Y-95324387D01*
X120502227Y-95302443D01*
X120496563Y-95279834D01*
X120493144Y-95256779D01*
X120492000Y-95233500D01*
X120492000Y-94758500D01*
X120493144Y-94735221D01*
X120496563Y-94712166D01*
X120502227Y-94689557D01*
X120510079Y-94667613D01*
X120520044Y-94646543D01*
X120532026Y-94626552D01*
X120545910Y-94607832D01*
X120561562Y-94590562D01*
X120578832Y-94574910D01*
X120597552Y-94561026D01*
X120617543Y-94549044D01*
X120638613Y-94539079D01*
X120660557Y-94531227D01*
X120683166Y-94525563D01*
X120706221Y-94522144D01*
X120729500Y-94521000D01*
X121304500Y-94521000D01*
X121327779Y-94522144D01*
X121327779Y-94522144D01*
G37*
D16*
G04 #@! TD*
G04 #@! TO.P,R7,1*
G04 #@! TO.N,TC*
X121017000Y-94996000D03*
D15*
G04 #@! TO.N,TC*
G04 #@! TO.C,TH1*
G36*
X117263779Y-91855144D02*
X117286834Y-91858563D01*
X117309443Y-91864227D01*
X117331387Y-91872079D01*
X117352457Y-91882044D01*
X117372448Y-91894026D01*
X117391168Y-91907910D01*
X117408438Y-91923562D01*
X117424090Y-91940832D01*
X117437974Y-91959552D01*
X117449956Y-91979543D01*
X117459921Y-92000613D01*
X117467773Y-92022557D01*
X117473437Y-92045166D01*
X117476856Y-92068221D01*
X117478000Y-92091500D01*
X117478000Y-92566500D01*
X117476856Y-92589779D01*
X117473437Y-92612834D01*
X117467773Y-92635443D01*
X117459921Y-92657387D01*
X117449956Y-92678457D01*
X117437974Y-92698448D01*
X117424090Y-92717168D01*
X117408438Y-92734438D01*
X117391168Y-92750090D01*
X117372448Y-92763974D01*
X117352457Y-92775956D01*
X117331387Y-92785921D01*
X117309443Y-92793773D01*
X117286834Y-92799437D01*
X117263779Y-92802856D01*
X117240500Y-92804000D01*
X116665500Y-92804000D01*
X116642221Y-92802856D01*
X116619166Y-92799437D01*
X116596557Y-92793773D01*
X116574613Y-92785921D01*
X116553543Y-92775956D01*
X116533552Y-92763974D01*
X116514832Y-92750090D01*
X116497562Y-92734438D01*
X116481910Y-92717168D01*
X116468026Y-92698448D01*
X116456044Y-92678457D01*
X116446079Y-92657387D01*
X116438227Y-92635443D01*
X116432563Y-92612834D01*
X116429144Y-92589779D01*
X116428000Y-92566500D01*
X116428000Y-92091500D01*
X116429144Y-92068221D01*
X116432563Y-92045166D01*
X116438227Y-92022557D01*
X116446079Y-92000613D01*
X116456044Y-91979543D01*
X116468026Y-91959552D01*
X116481910Y-91940832D01*
X116497562Y-91923562D01*
X116514832Y-91907910D01*
X116533552Y-91894026D01*
X116553543Y-91882044D01*
X116574613Y-91872079D01*
X116596557Y-91864227D01*
X116619166Y-91858563D01*
X116642221Y-91855144D01*
X116665500Y-91854000D01*
X117240500Y-91854000D01*
X117263779Y-91855144D01*
X117263779Y-91855144D01*
G37*
D16*
G04 #@! TD*
G04 #@! TO.P,TH1,1*
G04 #@! TO.N,TC*
X116953000Y-92329000D03*
D15*
G04 #@! TO.N,GND*
G04 #@! TO.C,TH1*
G36*
X115513779Y-91855144D02*
X115536834Y-91858563D01*
X115559443Y-91864227D01*
X115581387Y-91872079D01*
X115602457Y-91882044D01*
X115622448Y-91894026D01*
X115641168Y-91907910D01*
X115658438Y-91923562D01*
X115674090Y-91940832D01*
X115687974Y-91959552D01*
X115699956Y-91979543D01*
X115709921Y-92000613D01*
X115717773Y-92022557D01*
X115723437Y-92045166D01*
X115726856Y-92068221D01*
X115728000Y-92091500D01*
X115728000Y-92566500D01*
X115726856Y-92589779D01*
X115723437Y-92612834D01*
X115717773Y-92635443D01*
X115709921Y-92657387D01*
X115699956Y-92678457D01*
X115687974Y-92698448D01*
X115674090Y-92717168D01*
X115658438Y-92734438D01*
X115641168Y-92750090D01*
X115622448Y-92763974D01*
X115602457Y-92775956D01*
X115581387Y-92785921D01*
X115559443Y-92793773D01*
X115536834Y-92799437D01*
X115513779Y-92802856D01*
X115490500Y-92804000D01*
X114915500Y-92804000D01*
X114892221Y-92802856D01*
X114869166Y-92799437D01*
X114846557Y-92793773D01*
X114824613Y-92785921D01*
X114803543Y-92775956D01*
X114783552Y-92763974D01*
X114764832Y-92750090D01*
X114747562Y-92734438D01*
X114731910Y-92717168D01*
X114718026Y-92698448D01*
X114706044Y-92678457D01*
X114696079Y-92657387D01*
X114688227Y-92635443D01*
X114682563Y-92612834D01*
X114679144Y-92589779D01*
X114678000Y-92566500D01*
X114678000Y-92091500D01*
X114679144Y-92068221D01*
X114682563Y-92045166D01*
X114688227Y-92022557D01*
X114696079Y-92000613D01*
X114706044Y-91979543D01*
X114718026Y-91959552D01*
X114731910Y-91940832D01*
X114747562Y-91923562D01*
X114764832Y-91907910D01*
X114783552Y-91894026D01*
X114803543Y-91882044D01*
X114824613Y-91872079D01*
X114846557Y-91864227D01*
X114869166Y-91858563D01*
X114892221Y-91855144D01*
X114915500Y-91854000D01*
X115490500Y-91854000D01*
X115513779Y-91855144D01*
X115513779Y-91855144D01*
G37*
D16*
G04 #@! TD*
G04 #@! TO.P,TH1,2*
G04 #@! TO.N,GND*
X115203000Y-92329000D03*
D17*
G04 #@! TO.P,Q1,1*
G04 #@! TO.N,Net-(Q1-Pad1)*
X105172000Y-83500000D03*
G04 #@! TO.P,Q1,2*
G04 #@! TO.N,Net-(Q1-Pad2)*
X105172000Y-81600000D03*
G04 #@! TO.P,Q1,3*
G04 #@! TO.N,Net-(D1-Pad1)*
X107172000Y-82550000D03*
G04 #@! TD*
G04 #@! TO.P,Q2,1*
G04 #@! TO.N,Net-(Q2-Pad1)*
X105172000Y-89596000D03*
G04 #@! TO.P,Q2,2*
G04 #@! TO.N,Net-(Q2-Pad2)*
X105172000Y-87696000D03*
G04 #@! TO.P,Q2,3*
G04 #@! TO.N,Net-(D2-Pad1)*
X107172000Y-88646000D03*
G04 #@! TD*
G04 #@! TO.P,Q3,3*
G04 #@! TO.N,Net-(D3-Pad1)*
X107172000Y-94742000D03*
G04 #@! TO.P,Q3,2*
G04 #@! TO.N,Net-(Q3-Pad2)*
X105172000Y-93792000D03*
G04 #@! TO.P,Q3,1*
G04 #@! TO.N,Net-(Q3-Pad1)*
X105172000Y-95692000D03*
G04 #@! TD*
G04 #@! TO.P,Q4,1*
G04 #@! TO.N,Net-(Q1-Pad2)*
X103108000Y-81600000D03*
G04 #@! TO.P,Q4,2*
G04 #@! TO.N,GND*
X103108000Y-83500000D03*
G04 #@! TO.P,Q4,3*
G04 #@! TO.N,Net-(Q1-Pad1)*
X101108000Y-82550000D03*
G04 #@! TD*
G04 #@! TO.P,Q5,3*
G04 #@! TO.N,Net-(Q2-Pad1)*
X101108000Y-88646000D03*
G04 #@! TO.P,Q5,2*
G04 #@! TO.N,GND*
X103108000Y-89596000D03*
G04 #@! TO.P,Q5,1*
G04 #@! TO.N,Net-(Q2-Pad2)*
X103108000Y-87696000D03*
G04 #@! TD*
G04 #@! TO.P,Q6,3*
G04 #@! TO.N,Net-(Q3-Pad1)*
X101108000Y-94742000D03*
G04 #@! TO.P,Q6,2*
G04 #@! TO.N,GND*
X103108000Y-95692000D03*
G04 #@! TO.P,Q6,1*
G04 #@! TO.N,Net-(Q3-Pad2)*
X103108000Y-93792000D03*
G04 #@! TD*
D15*
G04 #@! TO.N,TC*
G04 #@! TO.C,C1*
G36*
X117315505Y-94322204D02*
X117339773Y-94325804D01*
X117363572Y-94331765D01*
X117386671Y-94340030D01*
X117408850Y-94350520D01*
X117429893Y-94363132D01*
X117449599Y-94377747D01*
X117467777Y-94394223D01*
X117484253Y-94412401D01*
X117498868Y-94432107D01*
X117511480Y-94453150D01*
X117521970Y-94475329D01*
X117530235Y-94498428D01*
X117536196Y-94522227D01*
X117539796Y-94546495D01*
X117541000Y-94570999D01*
X117541000Y-95421001D01*
X117539796Y-95445505D01*
X117536196Y-95469773D01*
X117530235Y-95493572D01*
X117521970Y-95516671D01*
X117511480Y-95538850D01*
X117498868Y-95559893D01*
X117484253Y-95579599D01*
X117467777Y-95597777D01*
X117449599Y-95614253D01*
X117429893Y-95628868D01*
X117408850Y-95641480D01*
X117386671Y-95651970D01*
X117363572Y-95660235D01*
X117339773Y-95666196D01*
X117315505Y-95669796D01*
X117291001Y-95671000D01*
X116215999Y-95671000D01*
X116191495Y-95669796D01*
X116167227Y-95666196D01*
X116143428Y-95660235D01*
X116120329Y-95651970D01*
X116098150Y-95641480D01*
X116077107Y-95628868D01*
X116057401Y-95614253D01*
X116039223Y-95597777D01*
X116022747Y-95579599D01*
X116008132Y-95559893D01*
X115995520Y-95538850D01*
X115985030Y-95516671D01*
X115976765Y-95493572D01*
X115970804Y-95469773D01*
X115967204Y-95445505D01*
X115966000Y-95421001D01*
X115966000Y-94570999D01*
X115967204Y-94546495D01*
X115970804Y-94522227D01*
X115976765Y-94498428D01*
X115985030Y-94475329D01*
X115995520Y-94453150D01*
X116008132Y-94432107D01*
X116022747Y-94412401D01*
X116039223Y-94394223D01*
X116057401Y-94377747D01*
X116077107Y-94363132D01*
X116098150Y-94350520D01*
X116120329Y-94340030D01*
X116143428Y-94331765D01*
X116167227Y-94325804D01*
X116191495Y-94322204D01*
X116215999Y-94321000D01*
X117291001Y-94321000D01*
X117315505Y-94322204D01*
X117315505Y-94322204D01*
G37*
D18*
G04 #@! TD*
G04 #@! TO.P,C1,1*
G04 #@! TO.N,TC*
X116753500Y-94996000D03*
D15*
G04 #@! TO.N,GND*
G04 #@! TO.C,C1*
G36*
X114440505Y-94322204D02*
X114464773Y-94325804D01*
X114488572Y-94331765D01*
X114511671Y-94340030D01*
X114533850Y-94350520D01*
X114554893Y-94363132D01*
X114574599Y-94377747D01*
X114592777Y-94394223D01*
X114609253Y-94412401D01*
X114623868Y-94432107D01*
X114636480Y-94453150D01*
X114646970Y-94475329D01*
X114655235Y-94498428D01*
X114661196Y-94522227D01*
X114664796Y-94546495D01*
X114666000Y-94570999D01*
X114666000Y-95421001D01*
X114664796Y-95445505D01*
X114661196Y-95469773D01*
X114655235Y-95493572D01*
X114646970Y-95516671D01*
X114636480Y-95538850D01*
X114623868Y-95559893D01*
X114609253Y-95579599D01*
X114592777Y-95597777D01*
X114574599Y-95614253D01*
X114554893Y-95628868D01*
X114533850Y-95641480D01*
X114511671Y-95651970D01*
X114488572Y-95660235D01*
X114464773Y-95666196D01*
X114440505Y-95669796D01*
X114416001Y-95671000D01*
X113340999Y-95671000D01*
X113316495Y-95669796D01*
X113292227Y-95666196D01*
X113268428Y-95660235D01*
X113245329Y-95651970D01*
X113223150Y-95641480D01*
X113202107Y-95628868D01*
X113182401Y-95614253D01*
X113164223Y-95597777D01*
X113147747Y-95579599D01*
X113133132Y-95559893D01*
X113120520Y-95538850D01*
X113110030Y-95516671D01*
X113101765Y-95493572D01*
X113095804Y-95469773D01*
X113092204Y-95445505D01*
X113091000Y-95421001D01*
X113091000Y-94570999D01*
X113092204Y-94546495D01*
X113095804Y-94522227D01*
X113101765Y-94498428D01*
X113110030Y-94475329D01*
X113120520Y-94453150D01*
X113133132Y-94432107D01*
X113147747Y-94412401D01*
X113164223Y-94394223D01*
X113182401Y-94377747D01*
X113202107Y-94363132D01*
X113223150Y-94350520D01*
X113245329Y-94340030D01*
X113268428Y-94331765D01*
X113292227Y-94325804D01*
X113316495Y-94322204D01*
X113340999Y-94321000D01*
X114416001Y-94321000D01*
X114440505Y-94322204D01*
X114440505Y-94322204D01*
G37*
D18*
G04 #@! TD*
G04 #@! TO.P,C1,2*
G04 #@! TO.N,GND*
X113878500Y-94996000D03*
D19*
G04 #@! TO.N,GND*
X104000000Y-99000000D03*
X107000000Y-99000000D03*
X108000000Y-76000000D03*
X104000000Y-76000000D03*
X106000000Y-76000000D03*
X118000000Y-99000000D03*
X121000000Y-99000000D03*
X122500000Y-88500000D03*
X122500000Y-86000000D03*
X101000000Y-87500000D03*
X101000000Y-90000000D03*
X122237500Y-93726000D03*
X122174000Y-91186000D03*
X113919000Y-77533500D03*
X111633000Y-77533500D03*
X118000000Y-76000000D03*
X124000000Y-79000000D03*
X118000000Y-97980500D03*
X110490000Y-95758000D03*
X120777000Y-76073000D03*
X98000000Y-78000000D03*
X98000000Y-80000000D03*
X98000000Y-86000000D03*
X98000000Y-88000000D03*
X98000000Y-90000000D03*
X98000000Y-92000000D03*
X100000000Y-78000000D03*
G04 #@! TO.N,+5V*
X108000000Y-81000000D03*
X114571428Y-82000000D03*
X113428571Y-82000000D03*
X111142857Y-82000000D03*
X112285714Y-82000000D03*
X110000000Y-82000000D03*
X116857142Y-82000000D03*
X115714285Y-82000000D03*
X118000000Y-82000000D03*
X111000000Y-89916000D03*
X115000000Y-89916000D03*
X109000000Y-82867500D03*
X109000000Y-84000000D03*
X109000000Y-85000000D03*
X109093000Y-93345000D03*
X109093000Y-91567000D03*
X109093000Y-92456000D03*
X113666666Y-89916000D03*
X112333333Y-89916000D03*
G04 #@! TO.N,Net-(D1-Pad1)*
X99183000Y-84641500D03*
X100012500Y-84641500D03*
G04 #@! TO.N,TC*
X116753500Y-93535500D03*
X121017000Y-96252000D03*
G04 #@! TO.N,Net-(D2-Pad1)*
X109156500Y-89725500D03*
X108394500Y-89725500D03*
G04 #@! TO.N,Net-(D3-Pad1)*
X109093000Y-95504000D03*
X108521500Y-96012000D03*
G04 #@! TD*
D20*
G04 #@! TO.N,+5V*
X112700000Y-98500000D02*
X112700000Y-98347600D01*
D21*
X112700000Y-98500000D02*
X112955000Y-98500000D01*
X112955000Y-98500000D02*
X114300000Y-97155000D01*
X114300000Y-97155000D02*
X118745000Y-97155000D01*
X119267000Y-96633000D02*
X119267000Y-94996000D01*
X118745000Y-97155000D02*
X119267000Y-96633000D01*
D22*
G04 #@! TO.N,Net-(D1-Pad1)*
X99183000Y-84641500D02*
X100012500Y-84641500D01*
X100016500Y-84641500D02*
X100330000Y-84328000D01*
X100330000Y-84328000D02*
X106743500Y-84328000D01*
X107172000Y-83899500D02*
X107172000Y-82550000D01*
X106743500Y-84328000D02*
X107172000Y-83899500D01*
X100012500Y-84641500D02*
X100016500Y-84641500D01*
D21*
G04 #@! TO.N,R*
X123796000Y-87376000D02*
X123900000Y-87480000D01*
X121017000Y-87376000D02*
X123796000Y-87376000D01*
G04 #@! TO.N,G*
X123796000Y-89916000D02*
X123900000Y-90020000D01*
X121017000Y-89916000D02*
X123796000Y-89916000D01*
G04 #@! TO.N,B*
X123796000Y-92456000D02*
X123900000Y-92560000D01*
X121017000Y-92456000D02*
X123796000Y-92456000D01*
G04 #@! TO.N,TC*
X123796000Y-94996000D02*
X123900000Y-95100000D01*
X121017000Y-94996000D02*
X123796000Y-94996000D01*
X116753500Y-94996000D02*
X116753500Y-93535500D01*
X116753500Y-92528500D02*
X116953000Y-92329000D01*
X116753500Y-93535500D02*
X116753500Y-92528500D01*
X121017000Y-94996000D02*
X121017000Y-96252000D01*
G04 #@! TO.N,Net-(Q1-Pad1)*
X101108000Y-82550000D02*
X104648000Y-82550000D01*
X105170000Y-82898000D02*
X105170000Y-82550000D01*
X105172000Y-82900000D02*
X105170000Y-82898000D01*
X105172000Y-83500000D02*
X105172000Y-82900000D01*
X104648000Y-82550000D02*
X105170000Y-82550000D01*
X119766072Y-86876928D02*
X119267000Y-87376000D01*
X119766072Y-80396072D02*
X119766072Y-86876928D01*
X105170000Y-82550000D02*
X105522000Y-82550000D01*
X105522000Y-82550000D02*
X107188000Y-80884000D01*
X107188000Y-80884000D02*
X107188000Y-79311500D01*
X107188000Y-79311500D02*
X108013500Y-78486000D01*
X108013500Y-78486000D02*
X117856000Y-78486000D01*
X117856000Y-78486000D02*
X119766072Y-80396072D01*
G04 #@! TO.N,Net-(Q2-Pad1)*
X105172000Y-88996000D02*
X105172000Y-89596000D01*
X104822000Y-88646000D02*
X105172000Y-88996000D01*
X101108000Y-88646000D02*
X104822000Y-88646000D01*
X113632114Y-96691490D02*
X114057604Y-96266000D01*
X118033800Y-95789202D02*
X117938002Y-95885000D01*
X117557002Y-96266000D02*
X117938002Y-95885000D01*
X114057604Y-96266000D02*
X117557002Y-96266000D01*
X107061000Y-90679999D02*
X105977001Y-89596000D01*
X112649000Y-96691490D02*
X106660990Y-96691490D01*
X106660990Y-96691490D02*
X106210100Y-96240600D01*
X107061000Y-93268800D02*
X107061000Y-90679999D01*
X106210100Y-94119700D02*
X107061000Y-93268800D01*
X119267000Y-89916000D02*
X118033800Y-91149200D01*
X118033800Y-91149200D02*
X118033800Y-95789202D01*
X106210100Y-96240600D02*
X106210100Y-94119700D01*
X105977001Y-89596000D02*
X105172000Y-89596000D01*
X112649000Y-96691490D02*
X113632114Y-96691490D01*
G04 #@! TO.N,Net-(Q3-Pad1)*
X104822000Y-94742000D02*
X105172000Y-95092000D01*
X101108000Y-94742000D02*
X104822000Y-94742000D01*
X105172000Y-95092000D02*
X105172000Y-95692000D01*
X105600500Y-97091500D02*
X105172000Y-96663000D01*
X105172000Y-96663000D02*
X105172000Y-95692000D01*
X119267000Y-92456000D02*
X118441990Y-93281010D01*
X112839500Y-97091500D02*
X113797802Y-97091500D01*
X112839500Y-97091500D02*
X105600500Y-97091500D01*
X113797802Y-97091500D02*
X114178802Y-96710500D01*
X118441990Y-93281010D02*
X118441990Y-95694500D01*
X117679990Y-96710500D02*
X118441990Y-95948500D01*
X117665500Y-96710500D02*
X117679990Y-96710500D01*
X118441990Y-95948500D02*
X118441990Y-95694500D01*
X114178802Y-96710500D02*
X117665500Y-96710500D01*
G04 #@! TO.N,Net-(Q1-Pad2)*
X103758000Y-81600000D02*
X105172000Y-81600000D01*
X103108000Y-81600000D02*
X103758000Y-81600000D01*
X105172000Y-80089000D02*
X105759000Y-79502000D01*
X105172000Y-81600000D02*
X105172000Y-80089000D01*
G04 #@! TO.N,Net-(Q2-Pad2)*
X103758000Y-87696000D02*
X105172000Y-87696000D01*
X103108000Y-87696000D02*
X103758000Y-87696000D01*
X105172000Y-86185000D02*
X105759000Y-85598000D01*
X105172000Y-87696000D02*
X105172000Y-86185000D01*
G04 #@! TO.N,Net-(Q3-Pad2)*
X103758000Y-93792000D02*
X105172000Y-93792000D01*
X103108000Y-93792000D02*
X103758000Y-93792000D01*
X105172000Y-92281000D02*
X105759000Y-91694000D01*
X105172000Y-93792000D02*
X105172000Y-92281000D01*
D22*
G04 #@! TO.N,Net-(D2-Pad1)*
X107315000Y-88646000D02*
X108394500Y-89725500D01*
X107172000Y-88646000D02*
X107315000Y-88646000D01*
G04 #@! TO.N,Net-(D3-Pad1)*
X107934000Y-95504000D02*
X107172000Y-94742000D01*
X108521500Y-96075500D02*
X108521500Y-95504000D01*
X109093000Y-95504000D02*
X108521500Y-95504000D01*
X108521500Y-95504000D02*
X107934000Y-95504000D01*
G04 #@! TD*
D23*
G04 #@! TO.N,GND*
G36*
X125978681Y-71968013D02*
X126547412Y-72161624D01*
X127059118Y-72476429D01*
X127488360Y-72896774D01*
X127813810Y-73401772D01*
X128019290Y-73966326D01*
X128094589Y-74562376D01*
X128035963Y-75160289D01*
X127846326Y-75730363D01*
X127535104Y-76244251D01*
X127117765Y-76676417D01*
X126615048Y-77005387D01*
X126051942Y-77214803D01*
X125440997Y-77296321D01*
X125400000Y-77288166D01*
X125204130Y-77327127D01*
X125038079Y-77438079D01*
X124927127Y-77604131D01*
X124898000Y-77750562D01*
X124898000Y-81412822D01*
X124555967Y-81184282D01*
X124179511Y-81109400D01*
X123620489Y-81109400D01*
X123244033Y-81184282D01*
X122817130Y-81469530D01*
X122531882Y-81896433D01*
X122431716Y-82400000D01*
X122531882Y-82903567D01*
X122817130Y-83330470D01*
X123244033Y-83615718D01*
X123575930Y-83681737D01*
X123232460Y-83756443D01*
X122818745Y-84043671D01*
X122546440Y-84467357D01*
X122476690Y-84715421D01*
X122563973Y-84917000D01*
X123877000Y-84917000D01*
X123877000Y-84897000D01*
X123923000Y-84897000D01*
X123923000Y-84917000D01*
X123943000Y-84917000D01*
X123943000Y-84963000D01*
X123923000Y-84963000D01*
X123923000Y-84983000D01*
X123877000Y-84983000D01*
X123877000Y-84963000D01*
X122563973Y-84963000D01*
X122476690Y-85164579D01*
X122546440Y-85412643D01*
X122818745Y-85836329D01*
X123232460Y-86123557D01*
X123575930Y-86198263D01*
X123244033Y-86264282D01*
X122817130Y-86549530D01*
X122617030Y-86849000D01*
X121904760Y-86849000D01*
X121780287Y-86662713D01*
X121561994Y-86516854D01*
X121304500Y-86465635D01*
X120729500Y-86465635D01*
X120472006Y-86516854D01*
X120293072Y-86636414D01*
X120293072Y-80447971D01*
X120303395Y-80396072D01*
X120293072Y-80344173D01*
X120293072Y-80344169D01*
X120262495Y-80190447D01*
X120262495Y-80190446D01*
X120175418Y-80060127D01*
X120175415Y-80060124D01*
X120146017Y-80016127D01*
X120102020Y-79986729D01*
X118265345Y-78150055D01*
X118235945Y-78106055D01*
X118061625Y-77989577D01*
X117907903Y-77959000D01*
X117907898Y-77959000D01*
X117856000Y-77948677D01*
X117804102Y-77959000D01*
X108065397Y-77959000D01*
X108013499Y-77948677D01*
X107961601Y-77959000D01*
X107961597Y-77959000D01*
X107807875Y-77989577D01*
X107807873Y-77989578D01*
X107807874Y-77989578D01*
X107677555Y-78076654D01*
X107677552Y-78076657D01*
X107633555Y-78106055D01*
X107604156Y-78150053D01*
X107126111Y-78628099D01*
X107097725Y-78485393D01*
X107003350Y-78344150D01*
X106862107Y-78249775D01*
X106695500Y-78216635D01*
X104695500Y-78216635D01*
X104528893Y-78249775D01*
X104387650Y-78344150D01*
X104293275Y-78485393D01*
X104260135Y-78652000D01*
X104260135Y-80352000D01*
X104293275Y-80518607D01*
X104387650Y-80659850D01*
X104528893Y-80754225D01*
X104645001Y-80777320D01*
X104645001Y-80779951D01*
X104555393Y-80797775D01*
X104414150Y-80892150D01*
X104319775Y-81033393D01*
X104311897Y-81073000D01*
X103968103Y-81073000D01*
X103960225Y-81033393D01*
X103865850Y-80892150D01*
X103724607Y-80797775D01*
X103558000Y-80764635D01*
X102815115Y-80764635D01*
X102937376Y-80713993D01*
X103057493Y-80593876D01*
X103122500Y-80436936D01*
X103122500Y-79631750D01*
X103015750Y-79525000D01*
X101718500Y-79525000D01*
X101718500Y-80672250D01*
X101825250Y-80779000D01*
X102585782Y-80779000D01*
X102491393Y-80797775D01*
X102350150Y-80892150D01*
X102255775Y-81033393D01*
X102222635Y-81200000D01*
X102222635Y-82000000D01*
X102227210Y-82023000D01*
X101968103Y-82023000D01*
X101960225Y-81983393D01*
X101865850Y-81842150D01*
X101724607Y-81747775D01*
X101558000Y-81714635D01*
X100658000Y-81714635D01*
X100491393Y-81747775D01*
X100350150Y-81842150D01*
X100255775Y-81983393D01*
X100222635Y-82150000D01*
X100222635Y-82950000D01*
X100255775Y-83116607D01*
X100350150Y-83257850D01*
X100491393Y-83352225D01*
X100658000Y-83385365D01*
X101558000Y-83385365D01*
X101724607Y-83352225D01*
X101865850Y-83257850D01*
X101960225Y-83116607D01*
X101968103Y-83077000D01*
X102231000Y-83077000D01*
X102231000Y-83370250D01*
X102337750Y-83477000D01*
X103085000Y-83477000D01*
X103085000Y-83457000D01*
X103131000Y-83457000D01*
X103131000Y-83477000D01*
X103878250Y-83477000D01*
X103985000Y-83370250D01*
X103985000Y-83077000D01*
X104291210Y-83077000D01*
X104286635Y-83100000D01*
X104286635Y-83701000D01*
X103985000Y-83701000D01*
X103985000Y-83629750D01*
X103878250Y-83523000D01*
X103131000Y-83523000D01*
X103131000Y-83543000D01*
X103085000Y-83543000D01*
X103085000Y-83523000D01*
X102337750Y-83523000D01*
X102231000Y-83629750D01*
X102231000Y-83701000D01*
X100391746Y-83701000D01*
X100330000Y-83688718D01*
X100268254Y-83701000D01*
X100268250Y-83701000D01*
X100085357Y-83737380D01*
X99895109Y-83864500D01*
X99857945Y-83864500D01*
X99597750Y-83972276D01*
X99337555Y-83864500D01*
X99028445Y-83864500D01*
X98742865Y-83982791D01*
X98524291Y-84201365D01*
X98406000Y-84486945D01*
X98406000Y-84796055D01*
X98524291Y-85081635D01*
X98742865Y-85300209D01*
X99028445Y-85418500D01*
X99337555Y-85418500D01*
X99597750Y-85310724D01*
X99857945Y-85418500D01*
X100167055Y-85418500D01*
X100268500Y-85376480D01*
X100268500Y-85468250D01*
X100375250Y-85575000D01*
X101672500Y-85575000D01*
X101672500Y-85555000D01*
X101718500Y-85555000D01*
X101718500Y-85575000D01*
X103015750Y-85575000D01*
X103122500Y-85468250D01*
X103122500Y-84955000D01*
X104260135Y-84955000D01*
X104260135Y-86448000D01*
X104293275Y-86614607D01*
X104387650Y-86755850D01*
X104528893Y-86850225D01*
X104645001Y-86873320D01*
X104645001Y-86875951D01*
X104555393Y-86893775D01*
X104414150Y-86988150D01*
X104319775Y-87129393D01*
X104311897Y-87169000D01*
X103968103Y-87169000D01*
X103960225Y-87129393D01*
X103865850Y-86988150D01*
X103724607Y-86893775D01*
X103558000Y-86860635D01*
X102815115Y-86860635D01*
X102937376Y-86809993D01*
X103057493Y-86689876D01*
X103122500Y-86532936D01*
X103122500Y-85727750D01*
X103015750Y-85621000D01*
X101718500Y-85621000D01*
X101718500Y-86768250D01*
X101825250Y-86875000D01*
X102585782Y-86875000D01*
X102491393Y-86893775D01*
X102350150Y-86988150D01*
X102255775Y-87129393D01*
X102222635Y-87296000D01*
X102222635Y-88096000D01*
X102227210Y-88119000D01*
X101968103Y-88119000D01*
X101960225Y-88079393D01*
X101865850Y-87938150D01*
X101724607Y-87843775D01*
X101558000Y-87810635D01*
X100658000Y-87810635D01*
X100491393Y-87843775D01*
X100350150Y-87938150D01*
X100255775Y-88079393D01*
X100222635Y-88246000D01*
X100222635Y-89046000D01*
X100255775Y-89212607D01*
X100350150Y-89353850D01*
X100491393Y-89448225D01*
X100658000Y-89481365D01*
X101558000Y-89481365D01*
X101724607Y-89448225D01*
X101865850Y-89353850D01*
X101960225Y-89212607D01*
X101968103Y-89173000D01*
X102231000Y-89173000D01*
X102231000Y-89466250D01*
X102337750Y-89573000D01*
X103085000Y-89573000D01*
X103085000Y-89553000D01*
X103131000Y-89553000D01*
X103131000Y-89573000D01*
X103878250Y-89573000D01*
X103985000Y-89466250D01*
X103985000Y-89173000D01*
X104291210Y-89173000D01*
X104286635Y-89196000D01*
X104286635Y-89996000D01*
X104319775Y-90162607D01*
X104414150Y-90303850D01*
X104555393Y-90398225D01*
X104651614Y-90417364D01*
X104528893Y-90441775D01*
X104387650Y-90536150D01*
X104293275Y-90677393D01*
X104260135Y-90844000D01*
X104260135Y-92544000D01*
X104293275Y-92710607D01*
X104387650Y-92851850D01*
X104528893Y-92946225D01*
X104645001Y-92969320D01*
X104645001Y-92971951D01*
X104555393Y-92989775D01*
X104414150Y-93084150D01*
X104319775Y-93225393D01*
X104311897Y-93265000D01*
X103968103Y-93265000D01*
X103960225Y-93225393D01*
X103865850Y-93084150D01*
X103724607Y-92989775D01*
X103558000Y-92956635D01*
X102815115Y-92956635D01*
X102937376Y-92905993D01*
X103057493Y-92785876D01*
X103122500Y-92628936D01*
X103122500Y-91823750D01*
X103015750Y-91717000D01*
X101718500Y-91717000D01*
X101718500Y-92864250D01*
X101825250Y-92971000D01*
X102585782Y-92971000D01*
X102491393Y-92989775D01*
X102350150Y-93084150D01*
X102255775Y-93225393D01*
X102222635Y-93392000D01*
X102222635Y-94192000D01*
X102227210Y-94215000D01*
X101968103Y-94215000D01*
X101960225Y-94175393D01*
X101865850Y-94034150D01*
X101724607Y-93939775D01*
X101558000Y-93906635D01*
X100658000Y-93906635D01*
X100491393Y-93939775D01*
X100350150Y-94034150D01*
X100255775Y-94175393D01*
X100222635Y-94342000D01*
X100222635Y-95142000D01*
X100255775Y-95308607D01*
X100350150Y-95449850D01*
X100491393Y-95544225D01*
X100658000Y-95577365D01*
X101558000Y-95577365D01*
X101724607Y-95544225D01*
X101865850Y-95449850D01*
X101960225Y-95308607D01*
X101968103Y-95269000D01*
X102231000Y-95269000D01*
X102231000Y-95562250D01*
X102337750Y-95669000D01*
X103085000Y-95669000D01*
X103085000Y-95649000D01*
X103131000Y-95649000D01*
X103131000Y-95669000D01*
X103878250Y-95669000D01*
X103985000Y-95562250D01*
X103985000Y-95269000D01*
X104291210Y-95269000D01*
X104286635Y-95292000D01*
X104286635Y-96092000D01*
X104319775Y-96258607D01*
X104414150Y-96399850D01*
X104555393Y-96494225D01*
X104645000Y-96512049D01*
X104645000Y-96611102D01*
X104634677Y-96663000D01*
X104645000Y-96714898D01*
X104645000Y-96714902D01*
X104675577Y-96868624D01*
X104707316Y-96916125D01*
X104758890Y-96993310D01*
X104792055Y-97042945D01*
X104836055Y-97072345D01*
X105191155Y-97427445D01*
X105220555Y-97471445D01*
X105264555Y-97500845D01*
X105264556Y-97500846D01*
X105317317Y-97536100D01*
X105394875Y-97587923D01*
X105548597Y-97618500D01*
X105548601Y-97618500D01*
X105600500Y-97628823D01*
X105652399Y-97618500D01*
X108861035Y-97618500D01*
X108861035Y-99498000D01*
X103150561Y-99498000D01*
X103004130Y-99527127D01*
X102838079Y-99638079D01*
X102727127Y-99804130D01*
X102688166Y-100000000D01*
X102692441Y-100021494D01*
X102627884Y-100597038D01*
X102430305Y-101164406D01*
X102111939Y-101673900D01*
X101688602Y-102100202D01*
X101181348Y-102422116D01*
X100615374Y-102623650D01*
X100018812Y-102694786D01*
X99421320Y-102631987D01*
X98852587Y-102438375D01*
X98340882Y-102123571D01*
X97911640Y-101703226D01*
X97586190Y-101198228D01*
X97380710Y-100633675D01*
X97314900Y-100112735D01*
X97327000Y-100051903D01*
X97327000Y-99596805D01*
X97973000Y-99596805D01*
X97973000Y-100403195D01*
X98281593Y-101148203D01*
X98851797Y-101718407D01*
X99596805Y-102027000D01*
X100403195Y-102027000D01*
X101148203Y-101718407D01*
X101718407Y-101148203D01*
X102027000Y-100403195D01*
X102027000Y-99596805D01*
X101718407Y-98851797D01*
X101148203Y-98281593D01*
X100403195Y-97973000D01*
X99596805Y-97973000D01*
X98851797Y-98281593D01*
X98281593Y-98851797D01*
X97973000Y-99596805D01*
X97327000Y-99596805D01*
X97327000Y-95821750D01*
X102231000Y-95821750D01*
X102231000Y-96176936D01*
X102296007Y-96333876D01*
X102416124Y-96453993D01*
X102573065Y-96519000D01*
X102978250Y-96519000D01*
X103085000Y-96412250D01*
X103085000Y-95715000D01*
X103131000Y-95715000D01*
X103131000Y-96412250D01*
X103237750Y-96519000D01*
X103642935Y-96519000D01*
X103799876Y-96453993D01*
X103919993Y-96333876D01*
X103985000Y-96176936D01*
X103985000Y-95821750D01*
X103878250Y-95715000D01*
X103131000Y-95715000D01*
X103085000Y-95715000D01*
X102337750Y-95715000D01*
X102231000Y-95821750D01*
X97327000Y-95821750D01*
X97327000Y-91823750D01*
X100268500Y-91823750D01*
X100268500Y-92628936D01*
X100333507Y-92785876D01*
X100453624Y-92905993D01*
X100610565Y-92971000D01*
X101565750Y-92971000D01*
X101672500Y-92864250D01*
X101672500Y-91717000D01*
X100375250Y-91717000D01*
X100268500Y-91823750D01*
X97327000Y-91823750D01*
X97327000Y-90759064D01*
X100268500Y-90759064D01*
X100268500Y-91564250D01*
X100375250Y-91671000D01*
X101672500Y-91671000D01*
X101672500Y-90523750D01*
X101718500Y-90523750D01*
X101718500Y-91671000D01*
X103015750Y-91671000D01*
X103122500Y-91564250D01*
X103122500Y-90759064D01*
X103057493Y-90602124D01*
X102937376Y-90482007D01*
X102794920Y-90423000D01*
X102978250Y-90423000D01*
X103085000Y-90316250D01*
X103085000Y-89619000D01*
X103131000Y-89619000D01*
X103131000Y-90316250D01*
X103237750Y-90423000D01*
X103642935Y-90423000D01*
X103799876Y-90357993D01*
X103919993Y-90237876D01*
X103985000Y-90080936D01*
X103985000Y-89725750D01*
X103878250Y-89619000D01*
X103131000Y-89619000D01*
X103085000Y-89619000D01*
X102337750Y-89619000D01*
X102231000Y-89725750D01*
X102231000Y-90080936D01*
X102296007Y-90237876D01*
X102416124Y-90357993D01*
X102558580Y-90417000D01*
X101825250Y-90417000D01*
X101718500Y-90523750D01*
X101672500Y-90523750D01*
X101565750Y-90417000D01*
X100610565Y-90417000D01*
X100453624Y-90482007D01*
X100333507Y-90602124D01*
X100268500Y-90759064D01*
X97327000Y-90759064D01*
X97327000Y-85727750D01*
X100268500Y-85727750D01*
X100268500Y-86532936D01*
X100333507Y-86689876D01*
X100453624Y-86809993D01*
X100610565Y-86875000D01*
X101565750Y-86875000D01*
X101672500Y-86768250D01*
X101672500Y-85621000D01*
X100375250Y-85621000D01*
X100268500Y-85727750D01*
X97327000Y-85727750D01*
X97327000Y-79631750D01*
X100268500Y-79631750D01*
X100268500Y-80436936D01*
X100333507Y-80593876D01*
X100453624Y-80713993D01*
X100610565Y-80779000D01*
X101565750Y-80779000D01*
X101672500Y-80672250D01*
X101672500Y-79525000D01*
X100375250Y-79525000D01*
X100268500Y-79631750D01*
X97327000Y-79631750D01*
X97327000Y-78567064D01*
X100268500Y-78567064D01*
X100268500Y-79372250D01*
X100375250Y-79479000D01*
X101672500Y-79479000D01*
X101672500Y-78331750D01*
X101718500Y-78331750D01*
X101718500Y-79479000D01*
X103015750Y-79479000D01*
X103122500Y-79372250D01*
X103122500Y-78567064D01*
X103057493Y-78410124D01*
X102937376Y-78290007D01*
X102780435Y-78225000D01*
X101825250Y-78225000D01*
X101718500Y-78331750D01*
X101672500Y-78331750D01*
X101565750Y-78225000D01*
X100610565Y-78225000D01*
X100453624Y-78290007D01*
X100333507Y-78410124D01*
X100268500Y-78567064D01*
X97327000Y-78567064D01*
X97327000Y-74573097D01*
X97314957Y-74512551D01*
X97350373Y-74196805D01*
X97973000Y-74196805D01*
X97973000Y-75003195D01*
X98281593Y-75748203D01*
X98851797Y-76318407D01*
X99596805Y-76627000D01*
X100403195Y-76627000D01*
X101148203Y-76318407D01*
X101718407Y-75748203D01*
X102027000Y-75003195D01*
X102027000Y-74196805D01*
X101718407Y-73451797D01*
X101148203Y-72881593D01*
X100403195Y-72573000D01*
X99596805Y-72573000D01*
X98851797Y-72881593D01*
X98281593Y-73451797D01*
X97973000Y-74196805D01*
X97350373Y-74196805D01*
X97372117Y-74002958D01*
X97569696Y-73435592D01*
X97888061Y-72926100D01*
X98311398Y-72499798D01*
X98818652Y-72177884D01*
X99384626Y-71976350D01*
X99981188Y-71905214D01*
X100578681Y-71968013D01*
X101147412Y-72161624D01*
X101659118Y-72476429D01*
X102088360Y-72896774D01*
X102413810Y-73401772D01*
X102619290Y-73966326D01*
X102695001Y-74565638D01*
X102688166Y-74600000D01*
X102727127Y-74795870D01*
X102838079Y-74961921D01*
X103004130Y-75072873D01*
X103150561Y-75102000D01*
X108861035Y-75102000D01*
X108861035Y-77116000D01*
X108894175Y-77282607D01*
X108988550Y-77423850D01*
X109129793Y-77518225D01*
X109296400Y-77551365D01*
X111023600Y-77551365D01*
X111190207Y-77518225D01*
X111331450Y-77423850D01*
X111425825Y-77282607D01*
X111458965Y-77116000D01*
X111458965Y-76628690D01*
X111484282Y-76755967D01*
X111769531Y-77182870D01*
X112196434Y-77468118D01*
X112700000Y-77568284D01*
X113203567Y-77468118D01*
X113630470Y-77182870D01*
X113915718Y-76755966D01*
X113981736Y-76424070D01*
X114056443Y-76767540D01*
X114343671Y-77181255D01*
X114767357Y-77453560D01*
X115015421Y-77523310D01*
X115217000Y-77436027D01*
X115217000Y-76123000D01*
X115263000Y-76123000D01*
X115263000Y-77436027D01*
X115464579Y-77523310D01*
X115712643Y-77453560D01*
X116136329Y-77181255D01*
X116423557Y-76767540D01*
X116530600Y-76275400D01*
X116530600Y-76123000D01*
X115263000Y-76123000D01*
X115217000Y-76123000D01*
X115197000Y-76123000D01*
X115197000Y-76077000D01*
X115217000Y-76077000D01*
X115217000Y-76057000D01*
X115263000Y-76057000D01*
X115263000Y-76077000D01*
X116530600Y-76077000D01*
X116530600Y-75924600D01*
X116423557Y-75432460D01*
X116194130Y-75102000D01*
X122249439Y-75102000D01*
X122395870Y-75072873D01*
X122561921Y-74961921D01*
X122672873Y-74795870D01*
X122711834Y-74600000D01*
X122707559Y-74578506D01*
X122750373Y-74196805D01*
X123373000Y-74196805D01*
X123373000Y-75003195D01*
X123681593Y-75748203D01*
X124251797Y-76318407D01*
X124996805Y-76627000D01*
X125803195Y-76627000D01*
X126548203Y-76318407D01*
X127118407Y-75748203D01*
X127427000Y-75003195D01*
X127427000Y-74196805D01*
X127118407Y-73451797D01*
X126548203Y-72881593D01*
X125803195Y-72573000D01*
X124996805Y-72573000D01*
X124251797Y-72881593D01*
X123681593Y-73451797D01*
X123373000Y-74196805D01*
X122750373Y-74196805D01*
X122772117Y-74002958D01*
X122969696Y-73435592D01*
X123288061Y-72926100D01*
X123711398Y-72499798D01*
X124218652Y-72177884D01*
X124784626Y-71976350D01*
X125381188Y-71905214D01*
X125978681Y-71968013D01*
X125978681Y-71968013D01*
G37*
X125978681Y-71968013D02*
X126547412Y-72161624D01*
X127059118Y-72476429D01*
X127488360Y-72896774D01*
X127813810Y-73401772D01*
X128019290Y-73966326D01*
X128094589Y-74562376D01*
X128035963Y-75160289D01*
X127846326Y-75730363D01*
X127535104Y-76244251D01*
X127117765Y-76676417D01*
X126615048Y-77005387D01*
X126051942Y-77214803D01*
X125440997Y-77296321D01*
X125400000Y-77288166D01*
X125204130Y-77327127D01*
X125038079Y-77438079D01*
X124927127Y-77604131D01*
X124898000Y-77750562D01*
X124898000Y-81412822D01*
X124555967Y-81184282D01*
X124179511Y-81109400D01*
X123620489Y-81109400D01*
X123244033Y-81184282D01*
X122817130Y-81469530D01*
X122531882Y-81896433D01*
X122431716Y-82400000D01*
X122531882Y-82903567D01*
X122817130Y-83330470D01*
X123244033Y-83615718D01*
X123575930Y-83681737D01*
X123232460Y-83756443D01*
X122818745Y-84043671D01*
X122546440Y-84467357D01*
X122476690Y-84715421D01*
X122563973Y-84917000D01*
X123877000Y-84917000D01*
X123877000Y-84897000D01*
X123923000Y-84897000D01*
X123923000Y-84917000D01*
X123943000Y-84917000D01*
X123943000Y-84963000D01*
X123923000Y-84963000D01*
X123923000Y-84983000D01*
X123877000Y-84983000D01*
X123877000Y-84963000D01*
X122563973Y-84963000D01*
X122476690Y-85164579D01*
X122546440Y-85412643D01*
X122818745Y-85836329D01*
X123232460Y-86123557D01*
X123575930Y-86198263D01*
X123244033Y-86264282D01*
X122817130Y-86549530D01*
X122617030Y-86849000D01*
X121904760Y-86849000D01*
X121780287Y-86662713D01*
X121561994Y-86516854D01*
X121304500Y-86465635D01*
X120729500Y-86465635D01*
X120472006Y-86516854D01*
X120293072Y-86636414D01*
X120293072Y-80447971D01*
X120303395Y-80396072D01*
X120293072Y-80344173D01*
X120293072Y-80344169D01*
X120262495Y-80190447D01*
X120262495Y-80190446D01*
X120175418Y-80060127D01*
X120175415Y-80060124D01*
X120146017Y-80016127D01*
X120102020Y-79986729D01*
X118265345Y-78150055D01*
X118235945Y-78106055D01*
X118061625Y-77989577D01*
X117907903Y-77959000D01*
X117907898Y-77959000D01*
X117856000Y-77948677D01*
X117804102Y-77959000D01*
X108065397Y-77959000D01*
X108013499Y-77948677D01*
X107961601Y-77959000D01*
X107961597Y-77959000D01*
X107807875Y-77989577D01*
X107807873Y-77989578D01*
X107807874Y-77989578D01*
X107677555Y-78076654D01*
X107677552Y-78076657D01*
X107633555Y-78106055D01*
X107604156Y-78150053D01*
X107126111Y-78628099D01*
X107097725Y-78485393D01*
X107003350Y-78344150D01*
X106862107Y-78249775D01*
X106695500Y-78216635D01*
X104695500Y-78216635D01*
X104528893Y-78249775D01*
X104387650Y-78344150D01*
X104293275Y-78485393D01*
X104260135Y-78652000D01*
X104260135Y-80352000D01*
X104293275Y-80518607D01*
X104387650Y-80659850D01*
X104528893Y-80754225D01*
X104645001Y-80777320D01*
X104645001Y-80779951D01*
X104555393Y-80797775D01*
X104414150Y-80892150D01*
X104319775Y-81033393D01*
X104311897Y-81073000D01*
X103968103Y-81073000D01*
X103960225Y-81033393D01*
X103865850Y-80892150D01*
X103724607Y-80797775D01*
X103558000Y-80764635D01*
X102815115Y-80764635D01*
X102937376Y-80713993D01*
X103057493Y-80593876D01*
X103122500Y-80436936D01*
X103122500Y-79631750D01*
X103015750Y-79525000D01*
X101718500Y-79525000D01*
X101718500Y-80672250D01*
X101825250Y-80779000D01*
X102585782Y-80779000D01*
X102491393Y-80797775D01*
X102350150Y-80892150D01*
X102255775Y-81033393D01*
X102222635Y-81200000D01*
X102222635Y-82000000D01*
X102227210Y-82023000D01*
X101968103Y-82023000D01*
X101960225Y-81983393D01*
X101865850Y-81842150D01*
X101724607Y-81747775D01*
X101558000Y-81714635D01*
X100658000Y-81714635D01*
X100491393Y-81747775D01*
X100350150Y-81842150D01*
X100255775Y-81983393D01*
X100222635Y-82150000D01*
X100222635Y-82950000D01*
X100255775Y-83116607D01*
X100350150Y-83257850D01*
X100491393Y-83352225D01*
X100658000Y-83385365D01*
X101558000Y-83385365D01*
X101724607Y-83352225D01*
X101865850Y-83257850D01*
X101960225Y-83116607D01*
X101968103Y-83077000D01*
X102231000Y-83077000D01*
X102231000Y-83370250D01*
X102337750Y-83477000D01*
X103085000Y-83477000D01*
X103085000Y-83457000D01*
X103131000Y-83457000D01*
X103131000Y-83477000D01*
X103878250Y-83477000D01*
X103985000Y-83370250D01*
X103985000Y-83077000D01*
X104291210Y-83077000D01*
X104286635Y-83100000D01*
X104286635Y-83701000D01*
X103985000Y-83701000D01*
X103985000Y-83629750D01*
X103878250Y-83523000D01*
X103131000Y-83523000D01*
X103131000Y-83543000D01*
X103085000Y-83543000D01*
X103085000Y-83523000D01*
X102337750Y-83523000D01*
X102231000Y-83629750D01*
X102231000Y-83701000D01*
X100391746Y-83701000D01*
X100330000Y-83688718D01*
X100268254Y-83701000D01*
X100268250Y-83701000D01*
X100085357Y-83737380D01*
X99895109Y-83864500D01*
X99857945Y-83864500D01*
X99597750Y-83972276D01*
X99337555Y-83864500D01*
X99028445Y-83864500D01*
X98742865Y-83982791D01*
X98524291Y-84201365D01*
X98406000Y-84486945D01*
X98406000Y-84796055D01*
X98524291Y-85081635D01*
X98742865Y-85300209D01*
X99028445Y-85418500D01*
X99337555Y-85418500D01*
X99597750Y-85310724D01*
X99857945Y-85418500D01*
X100167055Y-85418500D01*
X100268500Y-85376480D01*
X100268500Y-85468250D01*
X100375250Y-85575000D01*
X101672500Y-85575000D01*
X101672500Y-85555000D01*
X101718500Y-85555000D01*
X101718500Y-85575000D01*
X103015750Y-85575000D01*
X103122500Y-85468250D01*
X103122500Y-84955000D01*
X104260135Y-84955000D01*
X104260135Y-86448000D01*
X104293275Y-86614607D01*
X104387650Y-86755850D01*
X104528893Y-86850225D01*
X104645001Y-86873320D01*
X104645001Y-86875951D01*
X104555393Y-86893775D01*
X104414150Y-86988150D01*
X104319775Y-87129393D01*
X104311897Y-87169000D01*
X103968103Y-87169000D01*
X103960225Y-87129393D01*
X103865850Y-86988150D01*
X103724607Y-86893775D01*
X103558000Y-86860635D01*
X102815115Y-86860635D01*
X102937376Y-86809993D01*
X103057493Y-86689876D01*
X103122500Y-86532936D01*
X103122500Y-85727750D01*
X103015750Y-85621000D01*
X101718500Y-85621000D01*
X101718500Y-86768250D01*
X101825250Y-86875000D01*
X102585782Y-86875000D01*
X102491393Y-86893775D01*
X102350150Y-86988150D01*
X102255775Y-87129393D01*
X102222635Y-87296000D01*
X102222635Y-88096000D01*
X102227210Y-88119000D01*
X101968103Y-88119000D01*
X101960225Y-88079393D01*
X101865850Y-87938150D01*
X101724607Y-87843775D01*
X101558000Y-87810635D01*
X100658000Y-87810635D01*
X100491393Y-87843775D01*
X100350150Y-87938150D01*
X100255775Y-88079393D01*
X100222635Y-88246000D01*
X100222635Y-89046000D01*
X100255775Y-89212607D01*
X100350150Y-89353850D01*
X100491393Y-89448225D01*
X100658000Y-89481365D01*
X101558000Y-89481365D01*
X101724607Y-89448225D01*
X101865850Y-89353850D01*
X101960225Y-89212607D01*
X101968103Y-89173000D01*
X102231000Y-89173000D01*
X102231000Y-89466250D01*
X102337750Y-89573000D01*
X103085000Y-89573000D01*
X103085000Y-89553000D01*
X103131000Y-89553000D01*
X103131000Y-89573000D01*
X103878250Y-89573000D01*
X103985000Y-89466250D01*
X103985000Y-89173000D01*
X104291210Y-89173000D01*
X104286635Y-89196000D01*
X104286635Y-89996000D01*
X104319775Y-90162607D01*
X104414150Y-90303850D01*
X104555393Y-90398225D01*
X104651614Y-90417364D01*
X104528893Y-90441775D01*
X104387650Y-90536150D01*
X104293275Y-90677393D01*
X104260135Y-90844000D01*
X104260135Y-92544000D01*
X104293275Y-92710607D01*
X104387650Y-92851850D01*
X104528893Y-92946225D01*
X104645001Y-92969320D01*
X104645001Y-92971951D01*
X104555393Y-92989775D01*
X104414150Y-93084150D01*
X104319775Y-93225393D01*
X104311897Y-93265000D01*
X103968103Y-93265000D01*
X103960225Y-93225393D01*
X103865850Y-93084150D01*
X103724607Y-92989775D01*
X103558000Y-92956635D01*
X102815115Y-92956635D01*
X102937376Y-92905993D01*
X103057493Y-92785876D01*
X103122500Y-92628936D01*
X103122500Y-91823750D01*
X103015750Y-91717000D01*
X101718500Y-91717000D01*
X101718500Y-92864250D01*
X101825250Y-92971000D01*
X102585782Y-92971000D01*
X102491393Y-92989775D01*
X102350150Y-93084150D01*
X102255775Y-93225393D01*
X102222635Y-93392000D01*
X102222635Y-94192000D01*
X102227210Y-94215000D01*
X101968103Y-94215000D01*
X101960225Y-94175393D01*
X101865850Y-94034150D01*
X101724607Y-93939775D01*
X101558000Y-93906635D01*
X100658000Y-93906635D01*
X100491393Y-93939775D01*
X100350150Y-94034150D01*
X100255775Y-94175393D01*
X100222635Y-94342000D01*
X100222635Y-95142000D01*
X100255775Y-95308607D01*
X100350150Y-95449850D01*
X100491393Y-95544225D01*
X100658000Y-95577365D01*
X101558000Y-95577365D01*
X101724607Y-95544225D01*
X101865850Y-95449850D01*
X101960225Y-95308607D01*
X101968103Y-95269000D01*
X102231000Y-95269000D01*
X102231000Y-95562250D01*
X102337750Y-95669000D01*
X103085000Y-95669000D01*
X103085000Y-95649000D01*
X103131000Y-95649000D01*
X103131000Y-95669000D01*
X103878250Y-95669000D01*
X103985000Y-95562250D01*
X103985000Y-95269000D01*
X104291210Y-95269000D01*
X104286635Y-95292000D01*
X104286635Y-96092000D01*
X104319775Y-96258607D01*
X104414150Y-96399850D01*
X104555393Y-96494225D01*
X104645000Y-96512049D01*
X104645000Y-96611102D01*
X104634677Y-96663000D01*
X104645000Y-96714898D01*
X104645000Y-96714902D01*
X104675577Y-96868624D01*
X104707316Y-96916125D01*
X104758890Y-96993310D01*
X104792055Y-97042945D01*
X104836055Y-97072345D01*
X105191155Y-97427445D01*
X105220555Y-97471445D01*
X105264555Y-97500845D01*
X105264556Y-97500846D01*
X105317317Y-97536100D01*
X105394875Y-97587923D01*
X105548597Y-97618500D01*
X105548601Y-97618500D01*
X105600500Y-97628823D01*
X105652399Y-97618500D01*
X108861035Y-97618500D01*
X108861035Y-99498000D01*
X103150561Y-99498000D01*
X103004130Y-99527127D01*
X102838079Y-99638079D01*
X102727127Y-99804130D01*
X102688166Y-100000000D01*
X102692441Y-100021494D01*
X102627884Y-100597038D01*
X102430305Y-101164406D01*
X102111939Y-101673900D01*
X101688602Y-102100202D01*
X101181348Y-102422116D01*
X100615374Y-102623650D01*
X100018812Y-102694786D01*
X99421320Y-102631987D01*
X98852587Y-102438375D01*
X98340882Y-102123571D01*
X97911640Y-101703226D01*
X97586190Y-101198228D01*
X97380710Y-100633675D01*
X97314900Y-100112735D01*
X97327000Y-100051903D01*
X97327000Y-99596805D01*
X97973000Y-99596805D01*
X97973000Y-100403195D01*
X98281593Y-101148203D01*
X98851797Y-101718407D01*
X99596805Y-102027000D01*
X100403195Y-102027000D01*
X101148203Y-101718407D01*
X101718407Y-101148203D01*
X102027000Y-100403195D01*
X102027000Y-99596805D01*
X101718407Y-98851797D01*
X101148203Y-98281593D01*
X100403195Y-97973000D01*
X99596805Y-97973000D01*
X98851797Y-98281593D01*
X98281593Y-98851797D01*
X97973000Y-99596805D01*
X97327000Y-99596805D01*
X97327000Y-95821750D01*
X102231000Y-95821750D01*
X102231000Y-96176936D01*
X102296007Y-96333876D01*
X102416124Y-96453993D01*
X102573065Y-96519000D01*
X102978250Y-96519000D01*
X103085000Y-96412250D01*
X103085000Y-95715000D01*
X103131000Y-95715000D01*
X103131000Y-96412250D01*
X103237750Y-96519000D01*
X103642935Y-96519000D01*
X103799876Y-96453993D01*
X103919993Y-96333876D01*
X103985000Y-96176936D01*
X103985000Y-95821750D01*
X103878250Y-95715000D01*
X103131000Y-95715000D01*
X103085000Y-95715000D01*
X102337750Y-95715000D01*
X102231000Y-95821750D01*
X97327000Y-95821750D01*
X97327000Y-91823750D01*
X100268500Y-91823750D01*
X100268500Y-92628936D01*
X100333507Y-92785876D01*
X100453624Y-92905993D01*
X100610565Y-92971000D01*
X101565750Y-92971000D01*
X101672500Y-92864250D01*
X101672500Y-91717000D01*
X100375250Y-91717000D01*
X100268500Y-91823750D01*
X97327000Y-91823750D01*
X97327000Y-90759064D01*
X100268500Y-90759064D01*
X100268500Y-91564250D01*
X100375250Y-91671000D01*
X101672500Y-91671000D01*
X101672500Y-90523750D01*
X101718500Y-90523750D01*
X101718500Y-91671000D01*
X103015750Y-91671000D01*
X103122500Y-91564250D01*
X103122500Y-90759064D01*
X103057493Y-90602124D01*
X102937376Y-90482007D01*
X102794920Y-90423000D01*
X102978250Y-90423000D01*
X103085000Y-90316250D01*
X103085000Y-89619000D01*
X103131000Y-89619000D01*
X103131000Y-90316250D01*
X103237750Y-90423000D01*
X103642935Y-90423000D01*
X103799876Y-90357993D01*
X103919993Y-90237876D01*
X103985000Y-90080936D01*
X103985000Y-89725750D01*
X103878250Y-89619000D01*
X103131000Y-89619000D01*
X103085000Y-89619000D01*
X102337750Y-89619000D01*
X102231000Y-89725750D01*
X102231000Y-90080936D01*
X102296007Y-90237876D01*
X102416124Y-90357993D01*
X102558580Y-90417000D01*
X101825250Y-90417000D01*
X101718500Y-90523750D01*
X101672500Y-90523750D01*
X101565750Y-90417000D01*
X100610565Y-90417000D01*
X100453624Y-90482007D01*
X100333507Y-90602124D01*
X100268500Y-90759064D01*
X97327000Y-90759064D01*
X97327000Y-85727750D01*
X100268500Y-85727750D01*
X100268500Y-86532936D01*
X100333507Y-86689876D01*
X100453624Y-86809993D01*
X100610565Y-86875000D01*
X101565750Y-86875000D01*
X101672500Y-86768250D01*
X101672500Y-85621000D01*
X100375250Y-85621000D01*
X100268500Y-85727750D01*
X97327000Y-85727750D01*
X97327000Y-79631750D01*
X100268500Y-79631750D01*
X100268500Y-80436936D01*
X100333507Y-80593876D01*
X100453624Y-80713993D01*
X100610565Y-80779000D01*
X101565750Y-80779000D01*
X101672500Y-80672250D01*
X101672500Y-79525000D01*
X100375250Y-79525000D01*
X100268500Y-79631750D01*
X97327000Y-79631750D01*
X97327000Y-78567064D01*
X100268500Y-78567064D01*
X100268500Y-79372250D01*
X100375250Y-79479000D01*
X101672500Y-79479000D01*
X101672500Y-78331750D01*
X101718500Y-78331750D01*
X101718500Y-79479000D01*
X103015750Y-79479000D01*
X103122500Y-79372250D01*
X103122500Y-78567064D01*
X103057493Y-78410124D01*
X102937376Y-78290007D01*
X102780435Y-78225000D01*
X101825250Y-78225000D01*
X101718500Y-78331750D01*
X101672500Y-78331750D01*
X101565750Y-78225000D01*
X100610565Y-78225000D01*
X100453624Y-78290007D01*
X100333507Y-78410124D01*
X100268500Y-78567064D01*
X97327000Y-78567064D01*
X97327000Y-74573097D01*
X97314957Y-74512551D01*
X97350373Y-74196805D01*
X97973000Y-74196805D01*
X97973000Y-75003195D01*
X98281593Y-75748203D01*
X98851797Y-76318407D01*
X99596805Y-76627000D01*
X100403195Y-76627000D01*
X101148203Y-76318407D01*
X101718407Y-75748203D01*
X102027000Y-75003195D01*
X102027000Y-74196805D01*
X101718407Y-73451797D01*
X101148203Y-72881593D01*
X100403195Y-72573000D01*
X99596805Y-72573000D01*
X98851797Y-72881593D01*
X98281593Y-73451797D01*
X97973000Y-74196805D01*
X97350373Y-74196805D01*
X97372117Y-74002958D01*
X97569696Y-73435592D01*
X97888061Y-72926100D01*
X98311398Y-72499798D01*
X98818652Y-72177884D01*
X99384626Y-71976350D01*
X99981188Y-71905214D01*
X100578681Y-71968013D01*
X101147412Y-72161624D01*
X101659118Y-72476429D01*
X102088360Y-72896774D01*
X102413810Y-73401772D01*
X102619290Y-73966326D01*
X102695001Y-74565638D01*
X102688166Y-74600000D01*
X102727127Y-74795870D01*
X102838079Y-74961921D01*
X103004130Y-75072873D01*
X103150561Y-75102000D01*
X108861035Y-75102000D01*
X108861035Y-77116000D01*
X108894175Y-77282607D01*
X108988550Y-77423850D01*
X109129793Y-77518225D01*
X109296400Y-77551365D01*
X111023600Y-77551365D01*
X111190207Y-77518225D01*
X111331450Y-77423850D01*
X111425825Y-77282607D01*
X111458965Y-77116000D01*
X111458965Y-76628690D01*
X111484282Y-76755967D01*
X111769531Y-77182870D01*
X112196434Y-77468118D01*
X112700000Y-77568284D01*
X113203567Y-77468118D01*
X113630470Y-77182870D01*
X113915718Y-76755966D01*
X113981736Y-76424070D01*
X114056443Y-76767540D01*
X114343671Y-77181255D01*
X114767357Y-77453560D01*
X115015421Y-77523310D01*
X115217000Y-77436027D01*
X115217000Y-76123000D01*
X115263000Y-76123000D01*
X115263000Y-77436027D01*
X115464579Y-77523310D01*
X115712643Y-77453560D01*
X116136329Y-77181255D01*
X116423557Y-76767540D01*
X116530600Y-76275400D01*
X116530600Y-76123000D01*
X115263000Y-76123000D01*
X115217000Y-76123000D01*
X115197000Y-76123000D01*
X115197000Y-76077000D01*
X115217000Y-76077000D01*
X115217000Y-76057000D01*
X115263000Y-76057000D01*
X115263000Y-76077000D01*
X116530600Y-76077000D01*
X116530600Y-75924600D01*
X116423557Y-75432460D01*
X116194130Y-75102000D01*
X122249439Y-75102000D01*
X122395870Y-75072873D01*
X122561921Y-74961921D01*
X122672873Y-74795870D01*
X122711834Y-74600000D01*
X122707559Y-74578506D01*
X122750373Y-74196805D01*
X123373000Y-74196805D01*
X123373000Y-75003195D01*
X123681593Y-75748203D01*
X124251797Y-76318407D01*
X124996805Y-76627000D01*
X125803195Y-76627000D01*
X126548203Y-76318407D01*
X127118407Y-75748203D01*
X127427000Y-75003195D01*
X127427000Y-74196805D01*
X127118407Y-73451797D01*
X126548203Y-72881593D01*
X125803195Y-72573000D01*
X124996805Y-72573000D01*
X124251797Y-72881593D01*
X123681593Y-73451797D01*
X123373000Y-74196805D01*
X122750373Y-74196805D01*
X122772117Y-74002958D01*
X122969696Y-73435592D01*
X123288061Y-72926100D01*
X123711398Y-72499798D01*
X124218652Y-72177884D01*
X124784626Y-71976350D01*
X125381188Y-71905214D01*
X125978681Y-71968013D01*
G36*
X122676684Y-95917394D02*
X123082606Y-96323316D01*
X123612969Y-96543000D01*
X124187031Y-96543000D01*
X124717394Y-96323316D01*
X124898001Y-96142709D01*
X124898001Y-96849439D01*
X124927128Y-96995870D01*
X125038080Y-97161921D01*
X125204131Y-97272873D01*
X125400000Y-97311834D01*
X125421494Y-97307559D01*
X125997042Y-97372117D01*
X126564408Y-97569696D01*
X127073900Y-97888061D01*
X127500202Y-98311398D01*
X127822116Y-98818652D01*
X128023650Y-99384626D01*
X128094786Y-99981188D01*
X128031987Y-100578680D01*
X127838375Y-101147413D01*
X127523571Y-101659118D01*
X127103226Y-102088360D01*
X126598228Y-102413810D01*
X126033675Y-102619290D01*
X125437624Y-102694589D01*
X124839711Y-102635963D01*
X124269637Y-102446326D01*
X123755749Y-102135104D01*
X123323583Y-101717765D01*
X122994613Y-101215048D01*
X122785197Y-100651942D01*
X122703679Y-100040997D01*
X122711834Y-100000000D01*
X122672873Y-99804130D01*
X122561921Y-99638079D01*
X122500151Y-99596805D01*
X123373000Y-99596805D01*
X123373000Y-100403195D01*
X123681593Y-101148203D01*
X124251797Y-101718407D01*
X124996805Y-102027000D01*
X125803195Y-102027000D01*
X126548203Y-101718407D01*
X127118407Y-101148203D01*
X127427000Y-100403195D01*
X127427000Y-99596805D01*
X127118407Y-98851797D01*
X126548203Y-98281593D01*
X125803195Y-97973000D01*
X124996805Y-97973000D01*
X124251797Y-98281593D01*
X123681593Y-98851797D01*
X123373000Y-99596805D01*
X122500151Y-99596805D01*
X122395870Y-99527127D01*
X122249439Y-99498000D01*
X116194130Y-99498000D01*
X116423557Y-99167540D01*
X116530600Y-98675400D01*
X116530600Y-98523000D01*
X115263000Y-98523000D01*
X115263000Y-98543000D01*
X115217000Y-98543000D01*
X115217000Y-98523000D01*
X115197000Y-98523000D01*
X115197000Y-98477000D01*
X115217000Y-98477000D01*
X115217000Y-98457000D01*
X115263000Y-98457000D01*
X115263000Y-98477000D01*
X116530600Y-98477000D01*
X116530600Y-98324600D01*
X116423557Y-97832460D01*
X116319098Y-97682000D01*
X118693102Y-97682000D01*
X118745000Y-97692323D01*
X118796898Y-97682000D01*
X118796903Y-97682000D01*
X118950625Y-97651423D01*
X119124945Y-97534945D01*
X119154345Y-97490945D01*
X119602945Y-97042345D01*
X119646945Y-97012945D01*
X119763423Y-96838625D01*
X119794000Y-96684903D01*
X119794000Y-96684899D01*
X119804323Y-96633001D01*
X119794000Y-96581103D01*
X119794000Y-95858725D01*
X119811994Y-95855146D01*
X120030287Y-95709287D01*
X120142000Y-95542097D01*
X120253713Y-95709287D01*
X120377894Y-95792262D01*
X120358291Y-95811865D01*
X120240000Y-96097445D01*
X120240000Y-96406555D01*
X120358291Y-96692135D01*
X120576865Y-96910709D01*
X120862445Y-97029000D01*
X121171555Y-97029000D01*
X121457135Y-96910709D01*
X121675709Y-96692135D01*
X121794000Y-96406555D01*
X121794000Y-96097445D01*
X121675709Y-95811865D01*
X121656106Y-95792262D01*
X121780287Y-95709287D01*
X121904760Y-95523000D01*
X122513320Y-95523000D01*
X122676684Y-95917394D01*
X122676684Y-95917394D01*
G37*
X122676684Y-95917394D02*
X123082606Y-96323316D01*
X123612969Y-96543000D01*
X124187031Y-96543000D01*
X124717394Y-96323316D01*
X124898001Y-96142709D01*
X124898001Y-96849439D01*
X124927128Y-96995870D01*
X125038080Y-97161921D01*
X125204131Y-97272873D01*
X125400000Y-97311834D01*
X125421494Y-97307559D01*
X125997042Y-97372117D01*
X126564408Y-97569696D01*
X127073900Y-97888061D01*
X127500202Y-98311398D01*
X127822116Y-98818652D01*
X128023650Y-99384626D01*
X128094786Y-99981188D01*
X128031987Y-100578680D01*
X127838375Y-101147413D01*
X127523571Y-101659118D01*
X127103226Y-102088360D01*
X126598228Y-102413810D01*
X126033675Y-102619290D01*
X125437624Y-102694589D01*
X124839711Y-102635963D01*
X124269637Y-102446326D01*
X123755749Y-102135104D01*
X123323583Y-101717765D01*
X122994613Y-101215048D01*
X122785197Y-100651942D01*
X122703679Y-100040997D01*
X122711834Y-100000000D01*
X122672873Y-99804130D01*
X122561921Y-99638079D01*
X122500151Y-99596805D01*
X123373000Y-99596805D01*
X123373000Y-100403195D01*
X123681593Y-101148203D01*
X124251797Y-101718407D01*
X124996805Y-102027000D01*
X125803195Y-102027000D01*
X126548203Y-101718407D01*
X127118407Y-101148203D01*
X127427000Y-100403195D01*
X127427000Y-99596805D01*
X127118407Y-98851797D01*
X126548203Y-98281593D01*
X125803195Y-97973000D01*
X124996805Y-97973000D01*
X124251797Y-98281593D01*
X123681593Y-98851797D01*
X123373000Y-99596805D01*
X122500151Y-99596805D01*
X122395870Y-99527127D01*
X122249439Y-99498000D01*
X116194130Y-99498000D01*
X116423557Y-99167540D01*
X116530600Y-98675400D01*
X116530600Y-98523000D01*
X115263000Y-98523000D01*
X115263000Y-98543000D01*
X115217000Y-98543000D01*
X115217000Y-98523000D01*
X115197000Y-98523000D01*
X115197000Y-98477000D01*
X115217000Y-98477000D01*
X115217000Y-98457000D01*
X115263000Y-98457000D01*
X115263000Y-98477000D01*
X116530600Y-98477000D01*
X116530600Y-98324600D01*
X116423557Y-97832460D01*
X116319098Y-97682000D01*
X118693102Y-97682000D01*
X118745000Y-97692323D01*
X118796898Y-97682000D01*
X118796903Y-97682000D01*
X118950625Y-97651423D01*
X119124945Y-97534945D01*
X119154345Y-97490945D01*
X119602945Y-97042345D01*
X119646945Y-97012945D01*
X119763423Y-96838625D01*
X119794000Y-96684903D01*
X119794000Y-96684899D01*
X119804323Y-96633001D01*
X119794000Y-96581103D01*
X119794000Y-95858725D01*
X119811994Y-95855146D01*
X120030287Y-95709287D01*
X120142000Y-95542097D01*
X120253713Y-95709287D01*
X120377894Y-95792262D01*
X120358291Y-95811865D01*
X120240000Y-96097445D01*
X120240000Y-96406555D01*
X120358291Y-96692135D01*
X120576865Y-96910709D01*
X120862445Y-97029000D01*
X121171555Y-97029000D01*
X121457135Y-96910709D01*
X121675709Y-96692135D01*
X121794000Y-96406555D01*
X121794000Y-96097445D01*
X121675709Y-95811865D01*
X121656106Y-95792262D01*
X121780287Y-95709287D01*
X121904760Y-95523000D01*
X122513320Y-95523000D01*
X122676684Y-95917394D01*
G36*
X122531882Y-87983567D02*
X122817130Y-88410470D01*
X123244033Y-88695718D01*
X123516926Y-88750000D01*
X123244033Y-88804282D01*
X122817130Y-89089530D01*
X122617030Y-89389000D01*
X121904760Y-89389000D01*
X121780287Y-89202713D01*
X121561994Y-89056854D01*
X121304500Y-89005635D01*
X120729500Y-89005635D01*
X120472006Y-89056854D01*
X120253713Y-89202713D01*
X120142000Y-89369903D01*
X120030287Y-89202713D01*
X119811994Y-89056854D01*
X119554500Y-89005635D01*
X118979500Y-89005635D01*
X118722006Y-89056854D01*
X118503713Y-89202713D01*
X118357854Y-89421006D01*
X118306635Y-89678500D01*
X118306635Y-90131074D01*
X117697855Y-90739855D01*
X117653855Y-90769255D01*
X117624455Y-90813255D01*
X117624454Y-90813256D01*
X117578974Y-90881321D01*
X117537377Y-90943576D01*
X117506800Y-91097298D01*
X117506800Y-91097302D01*
X117496477Y-91149200D01*
X117506800Y-91201098D01*
X117506800Y-91475738D01*
X117497994Y-91469854D01*
X117240500Y-91418635D01*
X116665500Y-91418635D01*
X116408006Y-91469854D01*
X116189713Y-91615713D01*
X116129072Y-91706469D01*
X116089993Y-91612124D01*
X115969876Y-91492007D01*
X115812935Y-91427000D01*
X115332750Y-91427000D01*
X115226000Y-91533750D01*
X115226000Y-92306000D01*
X115246000Y-92306000D01*
X115246000Y-92352000D01*
X115226000Y-92352000D01*
X115226000Y-93124250D01*
X115332750Y-93231000D01*
X115812935Y-93231000D01*
X115969876Y-93165993D01*
X116089993Y-93045876D01*
X116129072Y-92951531D01*
X116172953Y-93017203D01*
X116094791Y-93095365D01*
X115976500Y-93380945D01*
X115976500Y-93690055D01*
X116069576Y-93914760D01*
X115953722Y-93937805D01*
X115731373Y-94086373D01*
X115582805Y-94308722D01*
X115530635Y-94570999D01*
X115530635Y-95421001D01*
X115582805Y-95683278D01*
X115620037Y-95739000D01*
X115093000Y-95739000D01*
X115093000Y-95125750D01*
X114986250Y-95019000D01*
X113901500Y-95019000D01*
X113901500Y-95039000D01*
X113855500Y-95039000D01*
X113855500Y-95019000D01*
X112770750Y-95019000D01*
X112664000Y-95125750D01*
X112664000Y-95755936D01*
X112729007Y-95912876D01*
X112849124Y-96032993D01*
X113006065Y-96098000D01*
X113480313Y-96098000D01*
X113413824Y-96164490D01*
X109528835Y-96164490D01*
X109533135Y-96162709D01*
X109751709Y-95944135D01*
X109870000Y-95658555D01*
X109870000Y-95349445D01*
X109751709Y-95063865D01*
X109533135Y-94845291D01*
X109247555Y-94727000D01*
X108938445Y-94727000D01*
X108652865Y-94845291D01*
X108621156Y-94877000D01*
X108583250Y-94877000D01*
X108521500Y-94864717D01*
X108459750Y-94877000D01*
X108193711Y-94877000D01*
X108057365Y-94740654D01*
X108057365Y-94342000D01*
X108036294Y-94236064D01*
X112664000Y-94236064D01*
X112664000Y-94866250D01*
X112770750Y-94973000D01*
X113855500Y-94973000D01*
X113855500Y-94000750D01*
X113901500Y-94000750D01*
X113901500Y-94973000D01*
X114986250Y-94973000D01*
X115093000Y-94866250D01*
X115093000Y-94236064D01*
X115027993Y-94079124D01*
X114907876Y-93959007D01*
X114750935Y-93894000D01*
X114008250Y-93894000D01*
X113901500Y-94000750D01*
X113855500Y-94000750D01*
X113748750Y-93894000D01*
X113006065Y-93894000D01*
X112849124Y-93959007D01*
X112729007Y-94079124D01*
X112664000Y-94236064D01*
X108036294Y-94236064D01*
X108032402Y-94216500D01*
X111887000Y-94216500D01*
X112021884Y-94194636D01*
X112166655Y-94112179D01*
X112998785Y-93391000D01*
X113665000Y-93391000D01*
X113828406Y-93358497D01*
X113966935Y-93265935D01*
X114059497Y-93127406D01*
X114092000Y-92964000D01*
X114092000Y-92458750D01*
X114251000Y-92458750D01*
X114251000Y-92888936D01*
X114316007Y-93045876D01*
X114436124Y-93165993D01*
X114593065Y-93231000D01*
X115073250Y-93231000D01*
X115180000Y-93124250D01*
X115180000Y-92352000D01*
X114357750Y-92352000D01*
X114251000Y-92458750D01*
X114092000Y-92458750D01*
X114092000Y-91769064D01*
X114251000Y-91769064D01*
X114251000Y-92199250D01*
X114357750Y-92306000D01*
X115180000Y-92306000D01*
X115180000Y-91533750D01*
X115073250Y-91427000D01*
X114593065Y-91427000D01*
X114436124Y-91492007D01*
X114316007Y-91612124D01*
X114251000Y-91769064D01*
X114092000Y-91769064D01*
X114092000Y-91132339D01*
X114202242Y-90978000D01*
X115697000Y-90978000D01*
X115860406Y-90945497D01*
X115998935Y-90852935D01*
X118658894Y-88192976D01*
X118722006Y-88235146D01*
X118979500Y-88286365D01*
X119554500Y-88286365D01*
X119811994Y-88235146D01*
X120030287Y-88089287D01*
X120142000Y-87922097D01*
X120253713Y-88089287D01*
X120472006Y-88235146D01*
X120729500Y-88286365D01*
X121304500Y-88286365D01*
X121561994Y-88235146D01*
X121780287Y-88089287D01*
X121904760Y-87903000D01*
X122515856Y-87903000D01*
X122531882Y-87983567D01*
X122531882Y-87983567D01*
G37*
X122531882Y-87983567D02*
X122817130Y-88410470D01*
X123244033Y-88695718D01*
X123516926Y-88750000D01*
X123244033Y-88804282D01*
X122817130Y-89089530D01*
X122617030Y-89389000D01*
X121904760Y-89389000D01*
X121780287Y-89202713D01*
X121561994Y-89056854D01*
X121304500Y-89005635D01*
X120729500Y-89005635D01*
X120472006Y-89056854D01*
X120253713Y-89202713D01*
X120142000Y-89369903D01*
X120030287Y-89202713D01*
X119811994Y-89056854D01*
X119554500Y-89005635D01*
X118979500Y-89005635D01*
X118722006Y-89056854D01*
X118503713Y-89202713D01*
X118357854Y-89421006D01*
X118306635Y-89678500D01*
X118306635Y-90131074D01*
X117697855Y-90739855D01*
X117653855Y-90769255D01*
X117624455Y-90813255D01*
X117624454Y-90813256D01*
X117578974Y-90881321D01*
X117537377Y-90943576D01*
X117506800Y-91097298D01*
X117506800Y-91097302D01*
X117496477Y-91149200D01*
X117506800Y-91201098D01*
X117506800Y-91475738D01*
X117497994Y-91469854D01*
X117240500Y-91418635D01*
X116665500Y-91418635D01*
X116408006Y-91469854D01*
X116189713Y-91615713D01*
X116129072Y-91706469D01*
X116089993Y-91612124D01*
X115969876Y-91492007D01*
X115812935Y-91427000D01*
X115332750Y-91427000D01*
X115226000Y-91533750D01*
X115226000Y-92306000D01*
X115246000Y-92306000D01*
X115246000Y-92352000D01*
X115226000Y-92352000D01*
X115226000Y-93124250D01*
X115332750Y-93231000D01*
X115812935Y-93231000D01*
X115969876Y-93165993D01*
X116089993Y-93045876D01*
X116129072Y-92951531D01*
X116172953Y-93017203D01*
X116094791Y-93095365D01*
X115976500Y-93380945D01*
X115976500Y-93690055D01*
X116069576Y-93914760D01*
X115953722Y-93937805D01*
X115731373Y-94086373D01*
X115582805Y-94308722D01*
X115530635Y-94570999D01*
X115530635Y-95421001D01*
X115582805Y-95683278D01*
X115620037Y-95739000D01*
X115093000Y-95739000D01*
X115093000Y-95125750D01*
X114986250Y-95019000D01*
X113901500Y-95019000D01*
X113901500Y-95039000D01*
X113855500Y-95039000D01*
X113855500Y-95019000D01*
X112770750Y-95019000D01*
X112664000Y-95125750D01*
X112664000Y-95755936D01*
X112729007Y-95912876D01*
X112849124Y-96032993D01*
X113006065Y-96098000D01*
X113480313Y-96098000D01*
X113413824Y-96164490D01*
X109528835Y-96164490D01*
X109533135Y-96162709D01*
X109751709Y-95944135D01*
X109870000Y-95658555D01*
X109870000Y-95349445D01*
X109751709Y-95063865D01*
X109533135Y-94845291D01*
X109247555Y-94727000D01*
X108938445Y-94727000D01*
X108652865Y-94845291D01*
X108621156Y-94877000D01*
X108583250Y-94877000D01*
X108521500Y-94864717D01*
X108459750Y-94877000D01*
X108193711Y-94877000D01*
X108057365Y-94740654D01*
X108057365Y-94342000D01*
X108036294Y-94236064D01*
X112664000Y-94236064D01*
X112664000Y-94866250D01*
X112770750Y-94973000D01*
X113855500Y-94973000D01*
X113855500Y-94000750D01*
X113901500Y-94000750D01*
X113901500Y-94973000D01*
X114986250Y-94973000D01*
X115093000Y-94866250D01*
X115093000Y-94236064D01*
X115027993Y-94079124D01*
X114907876Y-93959007D01*
X114750935Y-93894000D01*
X114008250Y-93894000D01*
X113901500Y-94000750D01*
X113855500Y-94000750D01*
X113748750Y-93894000D01*
X113006065Y-93894000D01*
X112849124Y-93959007D01*
X112729007Y-94079124D01*
X112664000Y-94236064D01*
X108036294Y-94236064D01*
X108032402Y-94216500D01*
X111887000Y-94216500D01*
X112021884Y-94194636D01*
X112166655Y-94112179D01*
X112998785Y-93391000D01*
X113665000Y-93391000D01*
X113828406Y-93358497D01*
X113966935Y-93265935D01*
X114059497Y-93127406D01*
X114092000Y-92964000D01*
X114092000Y-92458750D01*
X114251000Y-92458750D01*
X114251000Y-92888936D01*
X114316007Y-93045876D01*
X114436124Y-93165993D01*
X114593065Y-93231000D01*
X115073250Y-93231000D01*
X115180000Y-93124250D01*
X115180000Y-92352000D01*
X114357750Y-92352000D01*
X114251000Y-92458750D01*
X114092000Y-92458750D01*
X114092000Y-91769064D01*
X114251000Y-91769064D01*
X114251000Y-92199250D01*
X114357750Y-92306000D01*
X115180000Y-92306000D01*
X115180000Y-91533750D01*
X115073250Y-91427000D01*
X114593065Y-91427000D01*
X114436124Y-91492007D01*
X114316007Y-91612124D01*
X114251000Y-91769064D01*
X114092000Y-91769064D01*
X114092000Y-91132339D01*
X114202242Y-90978000D01*
X115697000Y-90978000D01*
X115860406Y-90945497D01*
X115998935Y-90852935D01*
X118658894Y-88192976D01*
X118722006Y-88235146D01*
X118979500Y-88286365D01*
X119554500Y-88286365D01*
X119811994Y-88235146D01*
X120030287Y-88089287D01*
X120142000Y-87922097D01*
X120253713Y-88089287D01*
X120472006Y-88235146D01*
X120729500Y-88286365D01*
X121304500Y-88286365D01*
X121561994Y-88235146D01*
X121780287Y-88089287D01*
X121904760Y-87903000D01*
X122515856Y-87903000D01*
X122531882Y-87983567D01*
G36*
X122531882Y-93063567D02*
X122817130Y-93490470D01*
X123244033Y-93775718D01*
X123299650Y-93786781D01*
X123082606Y-93876684D01*
X122676684Y-94282606D01*
X122599477Y-94469000D01*
X121904760Y-94469000D01*
X121780287Y-94282713D01*
X121561994Y-94136854D01*
X121304500Y-94085635D01*
X120729500Y-94085635D01*
X120472006Y-94136854D01*
X120253713Y-94282713D01*
X120142000Y-94449903D01*
X120030287Y-94282713D01*
X119811994Y-94136854D01*
X119554500Y-94085635D01*
X118979500Y-94085635D01*
X118968990Y-94087726D01*
X118968990Y-93499300D01*
X119101925Y-93366365D01*
X119554500Y-93366365D01*
X119811994Y-93315146D01*
X120030287Y-93169287D01*
X120142000Y-93002097D01*
X120253713Y-93169287D01*
X120472006Y-93315146D01*
X120729500Y-93366365D01*
X121304500Y-93366365D01*
X121561994Y-93315146D01*
X121780287Y-93169287D01*
X121904760Y-92983000D01*
X122515856Y-92983000D01*
X122531882Y-93063567D01*
X122531882Y-93063567D01*
G37*
X122531882Y-93063567D02*
X122817130Y-93490470D01*
X123244033Y-93775718D01*
X123299650Y-93786781D01*
X123082606Y-93876684D01*
X122676684Y-94282606D01*
X122599477Y-94469000D01*
X121904760Y-94469000D01*
X121780287Y-94282713D01*
X121561994Y-94136854D01*
X121304500Y-94085635D01*
X120729500Y-94085635D01*
X120472006Y-94136854D01*
X120253713Y-94282713D01*
X120142000Y-94449903D01*
X120030287Y-94282713D01*
X119811994Y-94136854D01*
X119554500Y-94085635D01*
X118979500Y-94085635D01*
X118968990Y-94087726D01*
X118968990Y-93499300D01*
X119101925Y-93366365D01*
X119554500Y-93366365D01*
X119811994Y-93315146D01*
X120030287Y-93169287D01*
X120142000Y-93002097D01*
X120253713Y-93169287D01*
X120472006Y-93315146D01*
X120729500Y-93366365D01*
X121304500Y-93366365D01*
X121561994Y-93315146D01*
X121780287Y-93169287D01*
X121904760Y-92983000D01*
X122515856Y-92983000D01*
X122531882Y-93063567D01*
G36*
X122531882Y-90523567D02*
X122817130Y-90950470D01*
X123244033Y-91235718D01*
X123516926Y-91290000D01*
X123244033Y-91344282D01*
X122817130Y-91629530D01*
X122617030Y-91929000D01*
X121904760Y-91929000D01*
X121780287Y-91742713D01*
X121561994Y-91596854D01*
X121304500Y-91545635D01*
X120729500Y-91545635D01*
X120472006Y-91596854D01*
X120253713Y-91742713D01*
X120142000Y-91909903D01*
X120030287Y-91742713D01*
X119811994Y-91596854D01*
X119554500Y-91545635D01*
X118979500Y-91545635D01*
X118722006Y-91596854D01*
X118560800Y-91704569D01*
X118560800Y-91367490D01*
X119101926Y-90826365D01*
X119554500Y-90826365D01*
X119811994Y-90775146D01*
X120030287Y-90629287D01*
X120142000Y-90462097D01*
X120253713Y-90629287D01*
X120472006Y-90775146D01*
X120729500Y-90826365D01*
X121304500Y-90826365D01*
X121561994Y-90775146D01*
X121780287Y-90629287D01*
X121904760Y-90443000D01*
X122515856Y-90443000D01*
X122531882Y-90523567D01*
X122531882Y-90523567D01*
G37*
X122531882Y-90523567D02*
X122817130Y-90950470D01*
X123244033Y-91235718D01*
X123516926Y-91290000D01*
X123244033Y-91344282D01*
X122817130Y-91629530D01*
X122617030Y-91929000D01*
X121904760Y-91929000D01*
X121780287Y-91742713D01*
X121561994Y-91596854D01*
X121304500Y-91545635D01*
X120729500Y-91545635D01*
X120472006Y-91596854D01*
X120253713Y-91742713D01*
X120142000Y-91909903D01*
X120030287Y-91742713D01*
X119811994Y-91596854D01*
X119554500Y-91545635D01*
X118979500Y-91545635D01*
X118722006Y-91596854D01*
X118560800Y-91704569D01*
X118560800Y-91367490D01*
X119101926Y-90826365D01*
X119554500Y-90826365D01*
X119811994Y-90775146D01*
X120030287Y-90629287D01*
X120142000Y-90462097D01*
X120253713Y-90629287D01*
X120472006Y-90775146D01*
X120729500Y-90826365D01*
X121304500Y-90826365D01*
X121561994Y-90775146D01*
X121780287Y-90629287D01*
X121904760Y-90443000D01*
X122515856Y-90443000D01*
X122531882Y-90523567D01*
G04 #@! TO.N,+5V*
G36*
X119239072Y-80614363D02*
X119239073Y-86465635D01*
X118979500Y-86465635D01*
X118722006Y-86516854D01*
X118503713Y-86662713D01*
X118357854Y-86881006D01*
X118306635Y-87138500D01*
X118306635Y-87613500D01*
X118331233Y-87737161D01*
X115644394Y-90424000D01*
X113982500Y-90424000D01*
X113933899Y-90433667D01*
X113879156Y-90477183D01*
X113561656Y-90921683D01*
X113541274Y-90966850D01*
X113538000Y-90995500D01*
X113538000Y-92837000D01*
X112839500Y-92837000D01*
X112790899Y-92846667D01*
X112756324Y-92868027D01*
X111839624Y-93662500D01*
X107431106Y-93662500D01*
X107426801Y-93658195D01*
X107440945Y-93648745D01*
X107470343Y-93604748D01*
X107470346Y-93604745D01*
X107557422Y-93474426D01*
X107557423Y-93474425D01*
X107588000Y-93320703D01*
X107588000Y-93320699D01*
X107598323Y-93268801D01*
X107588000Y-93216903D01*
X107588000Y-90731896D01*
X107598323Y-90679998D01*
X107588000Y-90628100D01*
X107588000Y-90628096D01*
X107557423Y-90474374D01*
X107533226Y-90438161D01*
X107470346Y-90344054D01*
X107470343Y-90344051D01*
X107440945Y-90300054D01*
X107396947Y-90270655D01*
X107378500Y-90252208D01*
X107378500Y-89596211D01*
X107617500Y-89835212D01*
X107617500Y-89880055D01*
X107735791Y-90165635D01*
X107954365Y-90384209D01*
X108239945Y-90502500D01*
X108549055Y-90502500D01*
X108775500Y-90408703D01*
X109001945Y-90502500D01*
X109311055Y-90502500D01*
X109596635Y-90384209D01*
X109815209Y-90165635D01*
X109933500Y-89880055D01*
X109933500Y-89570945D01*
X109815209Y-89285365D01*
X109596635Y-89066791D01*
X109311055Y-88948500D01*
X109001945Y-88948500D01*
X108775500Y-89042297D01*
X108549055Y-88948500D01*
X108504212Y-88948500D01*
X108057365Y-88501654D01*
X108057365Y-88246000D01*
X108024225Y-88079393D01*
X107929850Y-87938150D01*
X107788607Y-87843775D01*
X107622000Y-87810635D01*
X107378500Y-87810635D01*
X107378500Y-84579711D01*
X107571693Y-84386518D01*
X107624041Y-84351541D01*
X107762620Y-84144143D01*
X107799000Y-83961250D01*
X107799000Y-83961246D01*
X107811282Y-83899500D01*
X107799000Y-83837754D01*
X107799000Y-83345281D01*
X107929850Y-83257850D01*
X108024225Y-83116607D01*
X108057365Y-82950000D01*
X108057365Y-82150000D01*
X108024225Y-81983393D01*
X107929850Y-81842150D01*
X107788607Y-81747775D01*
X107622000Y-81714635D01*
X107378500Y-81714635D01*
X107378500Y-81438791D01*
X107523948Y-81293343D01*
X107567945Y-81263945D01*
X107597343Y-81219948D01*
X107597346Y-81219945D01*
X107684423Y-81089626D01*
X107690791Y-81057613D01*
X107715000Y-80935903D01*
X107715000Y-80935899D01*
X107725323Y-80884000D01*
X107715000Y-80832101D01*
X107715000Y-79529790D01*
X108231791Y-79013000D01*
X117637710Y-79013000D01*
X119239072Y-80614363D01*
X119239072Y-80614363D01*
G37*
X119239072Y-80614363D02*
X119239073Y-86465635D01*
X118979500Y-86465635D01*
X118722006Y-86516854D01*
X118503713Y-86662713D01*
X118357854Y-86881006D01*
X118306635Y-87138500D01*
X118306635Y-87613500D01*
X118331233Y-87737161D01*
X115644394Y-90424000D01*
X113982500Y-90424000D01*
X113933899Y-90433667D01*
X113879156Y-90477183D01*
X113561656Y-90921683D01*
X113541274Y-90966850D01*
X113538000Y-90995500D01*
X113538000Y-92837000D01*
X112839500Y-92837000D01*
X112790899Y-92846667D01*
X112756324Y-92868027D01*
X111839624Y-93662500D01*
X107431106Y-93662500D01*
X107426801Y-93658195D01*
X107440945Y-93648745D01*
X107470343Y-93604748D01*
X107470346Y-93604745D01*
X107557422Y-93474426D01*
X107557423Y-93474425D01*
X107588000Y-93320703D01*
X107588000Y-93320699D01*
X107598323Y-93268801D01*
X107588000Y-93216903D01*
X107588000Y-90731896D01*
X107598323Y-90679998D01*
X107588000Y-90628100D01*
X107588000Y-90628096D01*
X107557423Y-90474374D01*
X107533226Y-90438161D01*
X107470346Y-90344054D01*
X107470343Y-90344051D01*
X107440945Y-90300054D01*
X107396947Y-90270655D01*
X107378500Y-90252208D01*
X107378500Y-89596211D01*
X107617500Y-89835212D01*
X107617500Y-89880055D01*
X107735791Y-90165635D01*
X107954365Y-90384209D01*
X108239945Y-90502500D01*
X108549055Y-90502500D01*
X108775500Y-90408703D01*
X109001945Y-90502500D01*
X109311055Y-90502500D01*
X109596635Y-90384209D01*
X109815209Y-90165635D01*
X109933500Y-89880055D01*
X109933500Y-89570945D01*
X109815209Y-89285365D01*
X109596635Y-89066791D01*
X109311055Y-88948500D01*
X109001945Y-88948500D01*
X108775500Y-89042297D01*
X108549055Y-88948500D01*
X108504212Y-88948500D01*
X108057365Y-88501654D01*
X108057365Y-88246000D01*
X108024225Y-88079393D01*
X107929850Y-87938150D01*
X107788607Y-87843775D01*
X107622000Y-87810635D01*
X107378500Y-87810635D01*
X107378500Y-84579711D01*
X107571693Y-84386518D01*
X107624041Y-84351541D01*
X107762620Y-84144143D01*
X107799000Y-83961250D01*
X107799000Y-83961246D01*
X107811282Y-83899500D01*
X107799000Y-83837754D01*
X107799000Y-83345281D01*
X107929850Y-83257850D01*
X108024225Y-83116607D01*
X108057365Y-82950000D01*
X108057365Y-82150000D01*
X108024225Y-81983393D01*
X107929850Y-81842150D01*
X107788607Y-81747775D01*
X107622000Y-81714635D01*
X107378500Y-81714635D01*
X107378500Y-81438791D01*
X107523948Y-81293343D01*
X107567945Y-81263945D01*
X107597343Y-81219948D01*
X107597346Y-81219945D01*
X107684423Y-81089626D01*
X107690791Y-81057613D01*
X107715000Y-80935903D01*
X107715000Y-80935899D01*
X107725323Y-80884000D01*
X107715000Y-80832101D01*
X107715000Y-79529790D01*
X108231791Y-79013000D01*
X117637710Y-79013000D01*
X119239072Y-80614363D01*
G04 #@! TD*
M02*
