G04 #@! TF.GenerationSoftware,KiCad,Pcbnew,(5.0.0)*
G04 #@! TF.CreationDate,2018-11-19T11:24:39+03:00*
G04 #@! TF.ProjectId,NeoP_1x3,4E656F505F3178332E6B696361645F70,rev?*
G04 #@! TF.SameCoordinates,Original*
G04 #@! TF.FileFunction,Legend,Top*
G04 #@! TF.FilePolarity,Positive*
%FSLAX46Y46*%
G04 Gerber Fmt 4.6, Leading zero omitted, Abs format (unit mm)*
G04 Created by KiCad (PCBNEW (5.0.0)) date 11/19/18 11:24:39*
%MOMM*%
%LPD*%
G01*
G04 APERTURE LIST*
%ADD10C,0.150000*%
%ADD11C,0.200000*%
%ADD12C,0.120000*%
G04 APERTURE END LIST*
D10*
X118361904Y-81800000D02*
X118266666Y-81752380D01*
X118123809Y-81752380D01*
X117980952Y-81800000D01*
X117885714Y-81895238D01*
X117838095Y-81990476D01*
X117790476Y-82180952D01*
X117790476Y-82323809D01*
X117838095Y-82514285D01*
X117885714Y-82609523D01*
X117980952Y-82704761D01*
X118123809Y-82752380D01*
X118219047Y-82752380D01*
X118361904Y-82704761D01*
X118409523Y-82657142D01*
X118409523Y-82323809D01*
X118219047Y-82323809D01*
X115309523Y-80452380D02*
X114976190Y-79976190D01*
X114738095Y-80452380D02*
X114738095Y-79452380D01*
X115119047Y-79452380D01*
X115214285Y-79500000D01*
X115261904Y-79547619D01*
X115309523Y-79642857D01*
X115309523Y-79785714D01*
X115261904Y-79880952D01*
X115214285Y-79928571D01*
X115119047Y-79976190D01*
X114738095Y-79976190D01*
X114871428Y-92428571D02*
X115014285Y-92476190D01*
X115061904Y-92523809D01*
X115109523Y-92619047D01*
X115109523Y-92761904D01*
X115061904Y-92857142D01*
X115014285Y-92904761D01*
X114919047Y-92952380D01*
X114538095Y-92952380D01*
X114538095Y-91952380D01*
X114871428Y-91952380D01*
X114966666Y-92000000D01*
X115014285Y-92047619D01*
X115061904Y-92142857D01*
X115061904Y-92238095D01*
X115014285Y-92333333D01*
X114966666Y-92380952D01*
X114871428Y-92428571D01*
X114538095Y-92428571D01*
D11*
X115419047Y-92471428D02*
X116180952Y-92471428D01*
X115800000Y-92852380D02*
X115800000Y-92090476D01*
X118719047Y-82271428D02*
X119480952Y-82271428D01*
X119100000Y-82652380D02*
X119100000Y-81890476D01*
X115619047Y-79971428D02*
X116380952Y-79971428D01*
X116000000Y-80352380D02*
X116000000Y-79590476D01*
D10*
X112228380Y-96980333D02*
X113228380Y-96647000D01*
X112228380Y-96313666D01*
X114689000Y-96385095D02*
X114641380Y-96480333D01*
X114641380Y-96623190D01*
X114689000Y-96766047D01*
X114784238Y-96861285D01*
X114879476Y-96908904D01*
X115069952Y-96956523D01*
X115212809Y-96956523D01*
X115403285Y-96908904D01*
X115498523Y-96861285D01*
X115593761Y-96766047D01*
X115641380Y-96623190D01*
X115641380Y-96527952D01*
X115593761Y-96385095D01*
X115546142Y-96337476D01*
X115212809Y-96337476D01*
X115212809Y-96527952D01*
X114816000Y-77589095D02*
X114768380Y-77684333D01*
X114768380Y-77827190D01*
X114816000Y-77970047D01*
X114911238Y-78065285D01*
X115006476Y-78112904D01*
X115196952Y-78160523D01*
X115339809Y-78160523D01*
X115530285Y-78112904D01*
X115625523Y-78065285D01*
X115720761Y-77970047D01*
X115768380Y-77827190D01*
X115768380Y-77731952D01*
X115720761Y-77589095D01*
X115673142Y-77541476D01*
X115339809Y-77541476D01*
X115339809Y-77731952D01*
X112228380Y-78184333D02*
X113228380Y-77851000D01*
X112228380Y-77517666D01*
X121602523Y-94781714D02*
X121983476Y-94781714D01*
X121745380Y-94448380D02*
X121745380Y-95305523D01*
X121793000Y-95400761D01*
X121888238Y-95448380D01*
X121983476Y-95448380D01*
X121864428Y-92384571D02*
X122007285Y-92432190D01*
X122054904Y-92479809D01*
X122102523Y-92575047D01*
X122102523Y-92717904D01*
X122054904Y-92813142D01*
X122007285Y-92860761D01*
X121912047Y-92908380D01*
X121531095Y-92908380D01*
X121531095Y-91908380D01*
X121864428Y-91908380D01*
X121959666Y-91956000D01*
X122007285Y-92003619D01*
X122054904Y-92098857D01*
X122054904Y-92194095D01*
X122007285Y-92289333D01*
X121959666Y-92336952D01*
X121864428Y-92384571D01*
X121531095Y-92384571D01*
X122054904Y-89416000D02*
X121959666Y-89368380D01*
X121816809Y-89368380D01*
X121673952Y-89416000D01*
X121578714Y-89511238D01*
X121531095Y-89606476D01*
X121483476Y-89796952D01*
X121483476Y-89939809D01*
X121531095Y-90130285D01*
X121578714Y-90225523D01*
X121673952Y-90320761D01*
X121816809Y-90368380D01*
X121912047Y-90368380D01*
X122054904Y-90320761D01*
X122102523Y-90273142D01*
X122102523Y-89939809D01*
X121912047Y-89939809D01*
X122102523Y-87955380D02*
X121769190Y-87479190D01*
X121531095Y-87955380D02*
X121531095Y-86955380D01*
X121912047Y-86955380D01*
X122007285Y-87003000D01*
X122054904Y-87050619D01*
X122102523Y-87145857D01*
X122102523Y-87288714D01*
X122054904Y-87383952D01*
X122007285Y-87431571D01*
X121912047Y-87479190D01*
X121531095Y-87479190D01*
X122054904Y-84463000D02*
X121959666Y-84415380D01*
X121816809Y-84415380D01*
X121673952Y-84463000D01*
X121578714Y-84558238D01*
X121531095Y-84653476D01*
X121483476Y-84843952D01*
X121483476Y-84986809D01*
X121531095Y-85177285D01*
X121578714Y-85272523D01*
X121673952Y-85367761D01*
X121816809Y-85415380D01*
X121912047Y-85415380D01*
X122054904Y-85367761D01*
X122102523Y-85320142D01*
X122102523Y-84986809D01*
X121912047Y-84986809D01*
X121586666Y-81938880D02*
X121920000Y-82938880D01*
X122253333Y-81938880D01*
G04 #@! TO.C,J1*
X125450000Y-96650000D02*
X122350000Y-96650000D01*
X125450000Y-95100000D02*
X125450000Y-96650000D01*
X122630000Y-93830000D02*
X125170000Y-93830000D01*
X122350000Y-96650000D02*
X122350000Y-95100000D01*
X125170000Y-81130000D02*
X125170000Y-93830000D01*
X122630000Y-81130000D02*
X125170000Y-81130000D01*
X122630000Y-93830000D02*
X122630000Y-81130000D01*
G04 #@! TO.C,J2*
X110160000Y-74550000D02*
X108610000Y-74550000D01*
X108610000Y-74550000D02*
X108610000Y-77650000D01*
X108610000Y-77650000D02*
X110160000Y-77650000D01*
X111430000Y-74830000D02*
X116510000Y-74830000D01*
X116510000Y-74830000D02*
X116510000Y-77370000D01*
X116510000Y-77370000D02*
X111430000Y-77370000D01*
X111430000Y-77370000D02*
X111430000Y-74830000D01*
G04 #@! TO.C,J3*
X111430000Y-99770000D02*
X111430000Y-97230000D01*
X116510000Y-99770000D02*
X111430000Y-99770000D01*
X116510000Y-97230000D02*
X116510000Y-99770000D01*
X111430000Y-97230000D02*
X116510000Y-97230000D01*
X108610000Y-100050000D02*
X110160000Y-100050000D01*
X108610000Y-96950000D02*
X108610000Y-100050000D01*
X110160000Y-96950000D02*
X108610000Y-96950000D01*
D12*
G04 #@! TO.C,D1*
X97278000Y-84074000D02*
X102104000Y-84074000D01*
X97278000Y-81153000D02*
X97278000Y-84074000D01*
X101088000Y-81153000D02*
X97278000Y-81153000D01*
X109833000Y-81280000D02*
G75*
G03X109833000Y-81280000I-4300000J0D01*
G01*
G04 #@! TO.C,D2*
X117325000Y-86225000D02*
G75*
G03X117325000Y-86225000I-4300000J0D01*
G01*
X108580000Y-86098000D02*
X104770000Y-86098000D01*
X104770000Y-86098000D02*
X104770000Y-89019000D01*
X104770000Y-89019000D02*
X109596000Y-89019000D01*
G04 #@! TO.C,D3*
X97278000Y-96647000D02*
X102104000Y-96647000D01*
X97278000Y-93726000D02*
X97278000Y-96647000D01*
X101088000Y-93726000D02*
X97278000Y-93726000D01*
X109833000Y-93853000D02*
G75*
G03X109833000Y-93853000I-4300000J0D01*
G01*
G04 #@! TD*
M02*
