G04 #@! TF.GenerationSoftware,KiCad,Pcbnew,(5.0.0)*
G04 #@! TF.CreationDate,2018-11-19T11:24:39+03:00*
G04 #@! TF.ProjectId,NeoP_1x3,4E656F505F3178332E6B696361645F70,rev?*
G04 #@! TF.SameCoordinates,Original*
G04 #@! TF.FileFunction,Legend,Bot*
G04 #@! TF.FilePolarity,Positive*
%FSLAX46Y46*%
G04 Gerber Fmt 4.6, Leading zero omitted, Abs format (unit mm)*
G04 Created by KiCad (PCBNEW (5.0.0)) date 11/19/18 11:24:39*
%MOMM*%
%LPD*%
G01*
G04 APERTURE LIST*
%ADD10C,0.150000*%
%ADD11C,0.120000*%
%ADD12C,0.010000*%
G04 APERTURE END LIST*
D10*
X122923809Y-76552380D02*
X122923809Y-75552380D01*
X122466666Y-76552380D01*
X122466666Y-75552380D01*
X121780952Y-76504761D02*
X121857142Y-76552380D01*
X122009523Y-76552380D01*
X122085714Y-76504761D01*
X122123809Y-76409523D01*
X122123809Y-76028571D01*
X122085714Y-75933333D01*
X122009523Y-75885714D01*
X121857142Y-75885714D01*
X121780952Y-75933333D01*
X121742857Y-76028571D01*
X121742857Y-76123809D01*
X122123809Y-76219047D01*
X121285714Y-76552380D02*
X121361904Y-76504761D01*
X121400000Y-76457142D01*
X121438095Y-76361904D01*
X121438095Y-76076190D01*
X121400000Y-75980952D01*
X121361904Y-75933333D01*
X121285714Y-75885714D01*
X121171428Y-75885714D01*
X121095238Y-75933333D01*
X121057142Y-75980952D01*
X121019047Y-76076190D01*
X121019047Y-76361904D01*
X121057142Y-76457142D01*
X121095238Y-76504761D01*
X121171428Y-76552380D01*
X121285714Y-76552380D01*
X120676190Y-76552380D02*
X120676190Y-75552380D01*
X120371428Y-75552380D01*
X120295238Y-75600000D01*
X120257142Y-75647619D01*
X120219047Y-75742857D01*
X120219047Y-75885714D01*
X120257142Y-75980952D01*
X120295238Y-76028571D01*
X120371428Y-76076190D01*
X120676190Y-76076190D01*
X118847619Y-76552380D02*
X119304761Y-76552380D01*
X119076190Y-76552380D02*
X119076190Y-75552380D01*
X119152380Y-75695238D01*
X119228571Y-75790476D01*
X119304761Y-75838095D01*
X118580952Y-76552380D02*
X118161904Y-75885714D01*
X118580952Y-75885714D02*
X118161904Y-76552380D01*
X117933333Y-75552380D02*
X117438095Y-75552380D01*
X117704761Y-75933333D01*
X117590476Y-75933333D01*
X117514285Y-75980952D01*
X117476190Y-76028571D01*
X117438095Y-76123809D01*
X117438095Y-76361904D01*
X117476190Y-76457142D01*
X117514285Y-76504761D01*
X117590476Y-76552380D01*
X117819047Y-76552380D01*
X117895238Y-76504761D01*
X117933333Y-76457142D01*
X114816000Y-78366904D02*
X114768380Y-78271666D01*
X114768380Y-78128809D01*
X114816000Y-77985952D01*
X114911238Y-77890714D01*
X115006476Y-77843095D01*
X115196952Y-77795476D01*
X115339809Y-77795476D01*
X115530285Y-77843095D01*
X115625523Y-77890714D01*
X115720761Y-77985952D01*
X115768380Y-78128809D01*
X115768380Y-78224047D01*
X115720761Y-78366904D01*
X115673142Y-78414523D01*
X115339809Y-78414523D01*
X115339809Y-78224047D01*
X112228380Y-77771666D02*
X113228380Y-78105000D01*
X112228380Y-78438333D01*
X112228380Y-96313666D02*
X113228380Y-96647000D01*
X112228380Y-96980333D01*
X114689000Y-96908904D02*
X114641380Y-96813666D01*
X114641380Y-96670809D01*
X114689000Y-96527952D01*
X114784238Y-96432714D01*
X114879476Y-96385095D01*
X115069952Y-96337476D01*
X115212809Y-96337476D01*
X115403285Y-96385095D01*
X115498523Y-96432714D01*
X115593761Y-96527952D01*
X115641380Y-96670809D01*
X115641380Y-96766047D01*
X115593761Y-96908904D01*
X115546142Y-96956523D01*
X115212809Y-96956523D01*
X115212809Y-96766047D01*
X122364476Y-94781714D02*
X121983523Y-94781714D01*
X122221619Y-94448380D02*
X122221619Y-95305523D01*
X122174000Y-95400761D01*
X122078761Y-95448380D01*
X121983523Y-95448380D01*
X122102571Y-92384571D02*
X121959714Y-92432190D01*
X121912095Y-92479809D01*
X121864476Y-92575047D01*
X121864476Y-92717904D01*
X121912095Y-92813142D01*
X121959714Y-92860761D01*
X122054952Y-92908380D01*
X122435904Y-92908380D01*
X122435904Y-91908380D01*
X122102571Y-91908380D01*
X122007333Y-91956000D01*
X121959714Y-92003619D01*
X121912095Y-92098857D01*
X121912095Y-92194095D01*
X121959714Y-92289333D01*
X122007333Y-92336952D01*
X122102571Y-92384571D01*
X122435904Y-92384571D01*
X121912095Y-89416000D02*
X122007333Y-89368380D01*
X122150190Y-89368380D01*
X122293047Y-89416000D01*
X122388285Y-89511238D01*
X122435904Y-89606476D01*
X122483523Y-89796952D01*
X122483523Y-89939809D01*
X122435904Y-90130285D01*
X122388285Y-90225523D01*
X122293047Y-90320761D01*
X122150190Y-90368380D01*
X122054952Y-90368380D01*
X121912095Y-90320761D01*
X121864476Y-90273142D01*
X121864476Y-89939809D01*
X122054952Y-89939809D01*
X121864476Y-87955380D02*
X122197809Y-87479190D01*
X122435904Y-87955380D02*
X122435904Y-86955380D01*
X122054952Y-86955380D01*
X121959714Y-87003000D01*
X121912095Y-87050619D01*
X121864476Y-87145857D01*
X121864476Y-87288714D01*
X121912095Y-87383952D01*
X121959714Y-87431571D01*
X122054952Y-87479190D01*
X122435904Y-87479190D01*
X121912095Y-84463000D02*
X122007333Y-84415380D01*
X122150190Y-84415380D01*
X122293047Y-84463000D01*
X122388285Y-84558238D01*
X122435904Y-84653476D01*
X122483523Y-84843952D01*
X122483523Y-84986809D01*
X122435904Y-85177285D01*
X122388285Y-85272523D01*
X122293047Y-85367761D01*
X122150190Y-85415380D01*
X122054952Y-85415380D01*
X121912095Y-85367761D01*
X121864476Y-85320142D01*
X121864476Y-84986809D01*
X122054952Y-84986809D01*
X122634333Y-81938880D02*
X122301000Y-82938880D01*
X121967666Y-81938880D01*
G04 #@! TO.C,R4*
X104695500Y-78427000D02*
X102695500Y-78427000D01*
X102695500Y-80577000D02*
X104695500Y-80577000D01*
G04 #@! TO.C,R5*
X104695500Y-84523000D02*
X102695500Y-84523000D01*
X102695500Y-86673000D02*
X104695500Y-86673000D01*
G04 #@! TO.C,R6*
X102695500Y-92769000D02*
X104695500Y-92769000D01*
X104695500Y-90619000D02*
X102695500Y-90619000D01*
D11*
G04 #@! TO.C,R1*
X119970733Y-87886000D02*
X120313267Y-87886000D01*
X119970733Y-86866000D02*
X120313267Y-86866000D01*
G04 #@! TO.C,R2*
X119970733Y-90426000D02*
X120313267Y-90426000D01*
X119970733Y-89406000D02*
X120313267Y-89406000D01*
G04 #@! TO.C,R3*
X119970733Y-91946000D02*
X120313267Y-91946000D01*
X119970733Y-92966000D02*
X120313267Y-92966000D01*
G04 #@! TO.C,R7*
X120313267Y-95506000D02*
X119970733Y-95506000D01*
X120313267Y-94486000D02*
X119970733Y-94486000D01*
G04 #@! TO.C,TH1*
X116249267Y-91819000D02*
X115906733Y-91819000D01*
X116249267Y-92839000D02*
X115906733Y-92839000D01*
G04 #@! TO.C,Q1*
X106932000Y-80970000D02*
X106932000Y-81900000D01*
X106932000Y-84130000D02*
X106932000Y-83200000D01*
X106932000Y-84130000D02*
X104772000Y-84130000D01*
X106932000Y-80970000D02*
X105472000Y-80970000D01*
G04 #@! TO.C,Q2*
X106932000Y-87066000D02*
X106932000Y-87996000D01*
X106932000Y-90226000D02*
X106932000Y-89296000D01*
X106932000Y-90226000D02*
X104772000Y-90226000D01*
X106932000Y-87066000D02*
X105472000Y-87066000D01*
G04 #@! TO.C,Q3*
X106932000Y-93162000D02*
X105472000Y-93162000D01*
X106932000Y-96322000D02*
X104772000Y-96322000D01*
X106932000Y-96322000D02*
X106932000Y-95392000D01*
X106932000Y-93162000D02*
X106932000Y-94092000D01*
G04 #@! TO.C,Q4*
X101348000Y-84130000D02*
X101348000Y-83200000D01*
X101348000Y-80970000D02*
X101348000Y-81900000D01*
X101348000Y-80970000D02*
X103508000Y-80970000D01*
X101348000Y-84130000D02*
X102808000Y-84130000D01*
G04 #@! TO.C,Q5*
X101348000Y-90226000D02*
X102808000Y-90226000D01*
X101348000Y-87066000D02*
X103508000Y-87066000D01*
X101348000Y-87066000D02*
X101348000Y-87996000D01*
X101348000Y-90226000D02*
X101348000Y-89296000D01*
G04 #@! TO.C,Q6*
X101348000Y-96322000D02*
X102808000Y-96322000D01*
X101348000Y-93162000D02*
X103508000Y-93162000D01*
X101348000Y-93162000D02*
X101348000Y-94092000D01*
X101348000Y-96322000D02*
X101348000Y-95392000D01*
G04 #@! TO.C,C1*
X113716000Y-94061000D02*
X117801000Y-94061000D01*
X117801000Y-94061000D02*
X117801000Y-95931000D01*
X117801000Y-95931000D02*
X113716000Y-95931000D01*
D12*
G04 #@! TO.C,G\002A\002A\002A*
G36*
X120102748Y-76895368D02*
X120026420Y-76896866D01*
X119975555Y-76900091D01*
X119944746Y-76905638D01*
X119928584Y-76914102D01*
X119921658Y-76926078D01*
X119921466Y-76926750D01*
X119915019Y-76956143D01*
X119903856Y-77013252D01*
X119889505Y-77090046D01*
X119873492Y-77178497D01*
X119872283Y-77185286D01*
X119855946Y-77273498D01*
X119840608Y-77349830D01*
X119827910Y-77406541D01*
X119819489Y-77435888D01*
X119819016Y-77436888D01*
X119797854Y-77453312D01*
X119750152Y-77479163D01*
X119683206Y-77510760D01*
X119612101Y-77541245D01*
X119418108Y-77620787D01*
X118940646Y-77293165D01*
X118744592Y-77488611D01*
X118677198Y-77557726D01*
X118620955Y-77619115D01*
X118580122Y-77667829D01*
X118558958Y-77698916D01*
X118557144Y-77706482D01*
X118570223Y-77728808D01*
X118600241Y-77774748D01*
X118643175Y-77838295D01*
X118695003Y-77913444D01*
X118714151Y-77940878D01*
X118772034Y-78022850D01*
X118812768Y-78083849D01*
X118836942Y-78132110D01*
X118845142Y-78175867D01*
X118837953Y-78223355D01*
X118815964Y-78282808D01*
X118779760Y-78362462D01*
X118748922Y-78428886D01*
X118681783Y-78574844D01*
X118406749Y-78625911D01*
X118131715Y-78676979D01*
X118131715Y-79231121D01*
X118208822Y-79249719D01*
X118260797Y-79260975D01*
X118336128Y-79275713D01*
X118422363Y-79291540D01*
X118467358Y-79299402D01*
X118545836Y-79314461D01*
X118611446Y-79330049D01*
X118655500Y-79343936D01*
X118668462Y-79350994D01*
X118683437Y-79376211D01*
X118707355Y-79426637D01*
X118736642Y-79493551D01*
X118767723Y-79568233D01*
X118797025Y-79641962D01*
X118820973Y-79706017D01*
X118835995Y-79751679D01*
X118839286Y-79767807D01*
X118829438Y-79790581D01*
X118802384Y-79836970D01*
X118761860Y-79900955D01*
X118711600Y-79976515D01*
X118691819Y-80005426D01*
X118544351Y-80219364D01*
X118744212Y-80419225D01*
X118944073Y-80619085D01*
X119382401Y-80318321D01*
X119491978Y-80376724D01*
X119550161Y-80406780D01*
X119584501Y-80420549D01*
X119602717Y-80419648D01*
X119612528Y-80405693D01*
X119613876Y-80402243D01*
X119624045Y-80376995D01*
X119646200Y-80323187D01*
X119678306Y-80245725D01*
X119718324Y-80149514D01*
X119764219Y-80039462D01*
X119804528Y-79943000D01*
X119982858Y-79516643D01*
X119941751Y-79489588D01*
X119864026Y-79429256D01*
X119787349Y-79354097D01*
X119721405Y-79274736D01*
X119675874Y-79201798D01*
X119672132Y-79193733D01*
X119638172Y-79080944D01*
X119627192Y-78956939D01*
X119639005Y-78834452D01*
X119673421Y-78726216D01*
X119679216Y-78714492D01*
X119761454Y-78586988D01*
X119861233Y-78490410D01*
X119981570Y-78422430D01*
X120107437Y-78384297D01*
X120238584Y-78374221D01*
X120365763Y-78396413D01*
X120484503Y-78446859D01*
X120590332Y-78521543D01*
X120678779Y-78616451D01*
X120745374Y-78727568D01*
X120785645Y-78850881D01*
X120795120Y-78982375D01*
X120793794Y-79000560D01*
X120763178Y-79144033D01*
X120699834Y-79274154D01*
X120606002Y-79387249D01*
X120512207Y-79461868D01*
X120437054Y-79511602D01*
X120464722Y-79577622D01*
X120490683Y-79639849D01*
X120524763Y-79721939D01*
X120564549Y-79818037D01*
X120607627Y-79922286D01*
X120651581Y-80028829D01*
X120693999Y-80131809D01*
X120732465Y-80225369D01*
X120764566Y-80303654D01*
X120787888Y-80360805D01*
X120800017Y-80390966D01*
X120800587Y-80392445D01*
X120816271Y-80433676D01*
X121039577Y-80320952D01*
X121253327Y-80467619D01*
X121329999Y-80519942D01*
X121395387Y-80564022D01*
X121444000Y-80596199D01*
X121470347Y-80612814D01*
X121473384Y-80614286D01*
X121487678Y-80602126D01*
X121522964Y-80568584D01*
X121574710Y-80518067D01*
X121638380Y-80454981D01*
X121676952Y-80416411D01*
X121874214Y-80218536D01*
X121735020Y-80017221D01*
X121682755Y-79940765D01*
X121637811Y-79873395D01*
X121604393Y-79821530D01*
X121586706Y-79791594D01*
X121585374Y-79788669D01*
X121587975Y-79762635D01*
X121601984Y-79711689D01*
X121624278Y-79644167D01*
X121651734Y-79568405D01*
X121681229Y-79492741D01*
X121709641Y-79425511D01*
X121733845Y-79375051D01*
X121749333Y-79350987D01*
X121774072Y-79340219D01*
X121827097Y-79325680D01*
X121900844Y-79309204D01*
X121987748Y-79292625D01*
X121996143Y-79291158D01*
X122085176Y-79275424D01*
X122163132Y-79261093D01*
X122221972Y-79249681D01*
X122253657Y-79242705D01*
X122254679Y-79242413D01*
X122266879Y-79235517D01*
X122275513Y-79219628D01*
X122281184Y-79189305D01*
X122284493Y-79139110D01*
X122286041Y-79063604D01*
X122286429Y-78957346D01*
X122286429Y-78677556D01*
X122010259Y-78625385D01*
X121734090Y-78573215D01*
X121643998Y-78367462D01*
X121602123Y-78267531D01*
X121577021Y-78196853D01*
X121567902Y-78152929D01*
X121570917Y-78136272D01*
X121586998Y-78112571D01*
X121619319Y-78065182D01*
X121663615Y-78000355D01*
X121715618Y-77924336D01*
X121731721Y-77900811D01*
X121875514Y-77690787D01*
X121478081Y-77293354D01*
X121240380Y-77456547D01*
X121002679Y-77619741D01*
X120814518Y-77544811D01*
X120737420Y-77513506D01*
X120672756Y-77486123D01*
X120628046Y-77465917D01*
X120611400Y-77456861D01*
X120602596Y-77435040D01*
X120589147Y-77384607D01*
X120572764Y-77312676D01*
X120555158Y-77226360D01*
X120552067Y-77210242D01*
X120534641Y-77119015D01*
X120518945Y-77037770D01*
X120506578Y-76974726D01*
X120499141Y-76938105D01*
X120498644Y-76935822D01*
X120494023Y-76920325D01*
X120484473Y-76909349D01*
X120464484Y-76902114D01*
X120428545Y-76897841D01*
X120371144Y-76895751D01*
X120286770Y-76895064D01*
X120209949Y-76895000D01*
X120102748Y-76895368D01*
X120102748Y-76895368D01*
G37*
X120102748Y-76895368D02*
X120026420Y-76896866D01*
X119975555Y-76900091D01*
X119944746Y-76905638D01*
X119928584Y-76914102D01*
X119921658Y-76926078D01*
X119921466Y-76926750D01*
X119915019Y-76956143D01*
X119903856Y-77013252D01*
X119889505Y-77090046D01*
X119873492Y-77178497D01*
X119872283Y-77185286D01*
X119855946Y-77273498D01*
X119840608Y-77349830D01*
X119827910Y-77406541D01*
X119819489Y-77435888D01*
X119819016Y-77436888D01*
X119797854Y-77453312D01*
X119750152Y-77479163D01*
X119683206Y-77510760D01*
X119612101Y-77541245D01*
X119418108Y-77620787D01*
X118940646Y-77293165D01*
X118744592Y-77488611D01*
X118677198Y-77557726D01*
X118620955Y-77619115D01*
X118580122Y-77667829D01*
X118558958Y-77698916D01*
X118557144Y-77706482D01*
X118570223Y-77728808D01*
X118600241Y-77774748D01*
X118643175Y-77838295D01*
X118695003Y-77913444D01*
X118714151Y-77940878D01*
X118772034Y-78022850D01*
X118812768Y-78083849D01*
X118836942Y-78132110D01*
X118845142Y-78175867D01*
X118837953Y-78223355D01*
X118815964Y-78282808D01*
X118779760Y-78362462D01*
X118748922Y-78428886D01*
X118681783Y-78574844D01*
X118406749Y-78625911D01*
X118131715Y-78676979D01*
X118131715Y-79231121D01*
X118208822Y-79249719D01*
X118260797Y-79260975D01*
X118336128Y-79275713D01*
X118422363Y-79291540D01*
X118467358Y-79299402D01*
X118545836Y-79314461D01*
X118611446Y-79330049D01*
X118655500Y-79343936D01*
X118668462Y-79350994D01*
X118683437Y-79376211D01*
X118707355Y-79426637D01*
X118736642Y-79493551D01*
X118767723Y-79568233D01*
X118797025Y-79641962D01*
X118820973Y-79706017D01*
X118835995Y-79751679D01*
X118839286Y-79767807D01*
X118829438Y-79790581D01*
X118802384Y-79836970D01*
X118761860Y-79900955D01*
X118711600Y-79976515D01*
X118691819Y-80005426D01*
X118544351Y-80219364D01*
X118744212Y-80419225D01*
X118944073Y-80619085D01*
X119382401Y-80318321D01*
X119491978Y-80376724D01*
X119550161Y-80406780D01*
X119584501Y-80420549D01*
X119602717Y-80419648D01*
X119612528Y-80405693D01*
X119613876Y-80402243D01*
X119624045Y-80376995D01*
X119646200Y-80323187D01*
X119678306Y-80245725D01*
X119718324Y-80149514D01*
X119764219Y-80039462D01*
X119804528Y-79943000D01*
X119982858Y-79516643D01*
X119941751Y-79489588D01*
X119864026Y-79429256D01*
X119787349Y-79354097D01*
X119721405Y-79274736D01*
X119675874Y-79201798D01*
X119672132Y-79193733D01*
X119638172Y-79080944D01*
X119627192Y-78956939D01*
X119639005Y-78834452D01*
X119673421Y-78726216D01*
X119679216Y-78714492D01*
X119761454Y-78586988D01*
X119861233Y-78490410D01*
X119981570Y-78422430D01*
X120107437Y-78384297D01*
X120238584Y-78374221D01*
X120365763Y-78396413D01*
X120484503Y-78446859D01*
X120590332Y-78521543D01*
X120678779Y-78616451D01*
X120745374Y-78727568D01*
X120785645Y-78850881D01*
X120795120Y-78982375D01*
X120793794Y-79000560D01*
X120763178Y-79144033D01*
X120699834Y-79274154D01*
X120606002Y-79387249D01*
X120512207Y-79461868D01*
X120437054Y-79511602D01*
X120464722Y-79577622D01*
X120490683Y-79639849D01*
X120524763Y-79721939D01*
X120564549Y-79818037D01*
X120607627Y-79922286D01*
X120651581Y-80028829D01*
X120693999Y-80131809D01*
X120732465Y-80225369D01*
X120764566Y-80303654D01*
X120787888Y-80360805D01*
X120800017Y-80390966D01*
X120800587Y-80392445D01*
X120816271Y-80433676D01*
X121039577Y-80320952D01*
X121253327Y-80467619D01*
X121329999Y-80519942D01*
X121395387Y-80564022D01*
X121444000Y-80596199D01*
X121470347Y-80612814D01*
X121473384Y-80614286D01*
X121487678Y-80602126D01*
X121522964Y-80568584D01*
X121574710Y-80518067D01*
X121638380Y-80454981D01*
X121676952Y-80416411D01*
X121874214Y-80218536D01*
X121735020Y-80017221D01*
X121682755Y-79940765D01*
X121637811Y-79873395D01*
X121604393Y-79821530D01*
X121586706Y-79791594D01*
X121585374Y-79788669D01*
X121587975Y-79762635D01*
X121601984Y-79711689D01*
X121624278Y-79644167D01*
X121651734Y-79568405D01*
X121681229Y-79492741D01*
X121709641Y-79425511D01*
X121733845Y-79375051D01*
X121749333Y-79350987D01*
X121774072Y-79340219D01*
X121827097Y-79325680D01*
X121900844Y-79309204D01*
X121987748Y-79292625D01*
X121996143Y-79291158D01*
X122085176Y-79275424D01*
X122163132Y-79261093D01*
X122221972Y-79249681D01*
X122253657Y-79242705D01*
X122254679Y-79242413D01*
X122266879Y-79235517D01*
X122275513Y-79219628D01*
X122281184Y-79189305D01*
X122284493Y-79139110D01*
X122286041Y-79063604D01*
X122286429Y-78957346D01*
X122286429Y-78677556D01*
X122010259Y-78625385D01*
X121734090Y-78573215D01*
X121643998Y-78367462D01*
X121602123Y-78267531D01*
X121577021Y-78196853D01*
X121567902Y-78152929D01*
X121570917Y-78136272D01*
X121586998Y-78112571D01*
X121619319Y-78065182D01*
X121663615Y-78000355D01*
X121715618Y-77924336D01*
X121731721Y-77900811D01*
X121875514Y-77690787D01*
X121478081Y-77293354D01*
X121240380Y-77456547D01*
X121002679Y-77619741D01*
X120814518Y-77544811D01*
X120737420Y-77513506D01*
X120672756Y-77486123D01*
X120628046Y-77465917D01*
X120611400Y-77456861D01*
X120602596Y-77435040D01*
X120589147Y-77384607D01*
X120572764Y-77312676D01*
X120555158Y-77226360D01*
X120552067Y-77210242D01*
X120534641Y-77119015D01*
X120518945Y-77037770D01*
X120506578Y-76974726D01*
X120499141Y-76938105D01*
X120498644Y-76935822D01*
X120494023Y-76920325D01*
X120484473Y-76909349D01*
X120464484Y-76902114D01*
X120428545Y-76897841D01*
X120371144Y-76895751D01*
X120286770Y-76895064D01*
X120209949Y-76895000D01*
X120102748Y-76895368D01*
G36*
X112693027Y-83982075D02*
X112680334Y-83984104D01*
X112670132Y-83987447D01*
X112666406Y-83989113D01*
X112647503Y-84003404D01*
X112636847Y-84022624D01*
X112634302Y-84044146D01*
X112639732Y-84065341D01*
X112653001Y-84083578D01*
X112671926Y-84095449D01*
X112686833Y-84099482D01*
X112709408Y-84103316D01*
X112736035Y-84106404D01*
X112752576Y-84107679D01*
X112779310Y-84109464D01*
X112803622Y-84111366D01*
X112822153Y-84113106D01*
X112829385Y-84114001D01*
X112847103Y-84116721D01*
X112851188Y-84054190D01*
X112852568Y-84028788D01*
X112853184Y-84007763D01*
X112852998Y-83993529D01*
X112852181Y-83988567D01*
X112845725Y-83987264D01*
X112830080Y-83985785D01*
X112807340Y-83984280D01*
X112779600Y-83982904D01*
X112767980Y-83982438D01*
X112734656Y-83981387D01*
X112710402Y-83981218D01*
X112693027Y-83982075D01*
X112693027Y-83982075D01*
G37*
X112693027Y-83982075D02*
X112680334Y-83984104D01*
X112670132Y-83987447D01*
X112666406Y-83989113D01*
X112647503Y-84003404D01*
X112636847Y-84022624D01*
X112634302Y-84044146D01*
X112639732Y-84065341D01*
X112653001Y-84083578D01*
X112671926Y-84095449D01*
X112686833Y-84099482D01*
X112709408Y-84103316D01*
X112736035Y-84106404D01*
X112752576Y-84107679D01*
X112779310Y-84109464D01*
X112803622Y-84111366D01*
X112822153Y-84113106D01*
X112829385Y-84114001D01*
X112847103Y-84116721D01*
X112851188Y-84054190D01*
X112852568Y-84028788D01*
X112853184Y-84007763D01*
X112852998Y-83993529D01*
X112852181Y-83988567D01*
X112845725Y-83987264D01*
X112830080Y-83985785D01*
X112807340Y-83984280D01*
X112779600Y-83982904D01*
X112767980Y-83982438D01*
X112734656Y-83981387D01*
X112710402Y-83981218D01*
X112693027Y-83982075D01*
G36*
X111940954Y-84048615D02*
X111913285Y-84060030D01*
X111880388Y-84080427D01*
X111856694Y-84105336D01*
X111841428Y-84136092D01*
X111833814Y-84174030D01*
X111832603Y-84199106D01*
X111836523Y-84247192D01*
X111848333Y-84291493D01*
X111867195Y-84330613D01*
X111892271Y-84363157D01*
X111922723Y-84387726D01*
X111954354Y-84401965D01*
X111979078Y-84407898D01*
X112001316Y-84409083D01*
X112025231Y-84405295D01*
X112054156Y-84396594D01*
X112092884Y-84378365D01*
X112123124Y-84352816D01*
X112145275Y-84319591D01*
X112148798Y-84311926D01*
X112154876Y-84295962D01*
X112158259Y-84280788D01*
X112159399Y-84262648D01*
X112158747Y-84237788D01*
X112158444Y-84231728D01*
X112151594Y-84181399D01*
X112137209Y-84137702D01*
X112116152Y-84101242D01*
X112089284Y-84072621D01*
X112057468Y-84052444D01*
X112021566Y-84041315D01*
X111982441Y-84039838D01*
X111940954Y-84048615D01*
X111940954Y-84048615D01*
G37*
X111940954Y-84048615D02*
X111913285Y-84060030D01*
X111880388Y-84080427D01*
X111856694Y-84105336D01*
X111841428Y-84136092D01*
X111833814Y-84174030D01*
X111832603Y-84199106D01*
X111836523Y-84247192D01*
X111848333Y-84291493D01*
X111867195Y-84330613D01*
X111892271Y-84363157D01*
X111922723Y-84387726D01*
X111954354Y-84401965D01*
X111979078Y-84407898D01*
X112001316Y-84409083D01*
X112025231Y-84405295D01*
X112054156Y-84396594D01*
X112092884Y-84378365D01*
X112123124Y-84352816D01*
X112145275Y-84319591D01*
X112148798Y-84311926D01*
X112154876Y-84295962D01*
X112158259Y-84280788D01*
X112159399Y-84262648D01*
X112158747Y-84237788D01*
X112158444Y-84231728D01*
X112151594Y-84181399D01*
X112137209Y-84137702D01*
X112116152Y-84101242D01*
X112089284Y-84072621D01*
X112057468Y-84052444D01*
X112021566Y-84041315D01*
X111982441Y-84039838D01*
X111940954Y-84048615D01*
G36*
X110359703Y-85695215D02*
X110346877Y-85734091D01*
X110339510Y-85764508D01*
X110337715Y-85787950D01*
X110341609Y-85805900D01*
X110351304Y-85819845D01*
X110366917Y-85831267D01*
X110370356Y-85833165D01*
X110394759Y-85842474D01*
X110415627Y-85841687D01*
X110434886Y-85830586D01*
X110440552Y-85825300D01*
X110450926Y-85812183D01*
X110461130Y-85793282D01*
X110472101Y-85766657D01*
X110480856Y-85742045D01*
X110489204Y-85716837D01*
X110495736Y-85695712D01*
X110499816Y-85680833D01*
X110500810Y-85674361D01*
X110500779Y-85674311D01*
X110494875Y-85671380D01*
X110480588Y-85665623D01*
X110460194Y-85657927D01*
X110440703Y-85650862D01*
X110382829Y-85630235D01*
X110359703Y-85695215D01*
X110359703Y-85695215D01*
G37*
X110359703Y-85695215D02*
X110346877Y-85734091D01*
X110339510Y-85764508D01*
X110337715Y-85787950D01*
X110341609Y-85805900D01*
X110351304Y-85819845D01*
X110366917Y-85831267D01*
X110370356Y-85833165D01*
X110394759Y-85842474D01*
X110415627Y-85841687D01*
X110434886Y-85830586D01*
X110440552Y-85825300D01*
X110450926Y-85812183D01*
X110461130Y-85793282D01*
X110472101Y-85766657D01*
X110480856Y-85742045D01*
X110489204Y-85716837D01*
X110495736Y-85695712D01*
X110499816Y-85680833D01*
X110500810Y-85674361D01*
X110500779Y-85674311D01*
X110494875Y-85671380D01*
X110480588Y-85665623D01*
X110460194Y-85657927D01*
X110440703Y-85650862D01*
X110382829Y-85630235D01*
X110359703Y-85695215D01*
G36*
X112533513Y-84769341D02*
X112478396Y-84770744D01*
X112429109Y-84773416D01*
X112382937Y-84777623D01*
X112337161Y-84783627D01*
X112289066Y-84791689D01*
X112235934Y-84802075D01*
X112219482Y-84805498D01*
X112081516Y-84840184D01*
X111947700Y-84885124D01*
X111818506Y-84939900D01*
X111694409Y-85004093D01*
X111575880Y-85077286D01*
X111463394Y-85159058D01*
X111357424Y-85248991D01*
X111258444Y-85346666D01*
X111166925Y-85451665D01*
X111083343Y-85563570D01*
X111008169Y-85681960D01*
X110941878Y-85806417D01*
X110884943Y-85936524D01*
X110857851Y-86010156D01*
X110817245Y-86145450D01*
X110787335Y-86283594D01*
X110768148Y-86423752D01*
X110759709Y-86565088D01*
X110762044Y-86706768D01*
X110775179Y-86847955D01*
X110799140Y-86987814D01*
X110824345Y-87091750D01*
X110866401Y-87224366D01*
X110918929Y-87354297D01*
X110981274Y-87480312D01*
X111052781Y-87601175D01*
X111132795Y-87715656D01*
X111200447Y-87799445D01*
X111225751Y-87827679D01*
X111256847Y-87860531D01*
X111291666Y-87895970D01*
X111328139Y-87931967D01*
X111364194Y-87966490D01*
X111397763Y-87997511D01*
X111426774Y-88022998D01*
X111437244Y-88031679D01*
X111553959Y-88119000D01*
X111675826Y-88196298D01*
X111802623Y-88263479D01*
X111934130Y-88320448D01*
X112070126Y-88367112D01*
X112210390Y-88403376D01*
X112354702Y-88429145D01*
X112374626Y-88431834D01*
X112407490Y-88435200D01*
X112448788Y-88438051D01*
X112495911Y-88440329D01*
X112546252Y-88441976D01*
X112597201Y-88442936D01*
X112646151Y-88443151D01*
X112690494Y-88442564D01*
X112727622Y-88441117D01*
X112743933Y-88439942D01*
X112889197Y-88421467D01*
X113030944Y-88392469D01*
X113168741Y-88353187D01*
X113302157Y-88303857D01*
X113430757Y-88244717D01*
X113554110Y-88176003D01*
X113594227Y-88149394D01*
X112921733Y-88149394D01*
X112916520Y-88150319D01*
X112902581Y-88151563D01*
X112882466Y-88152915D01*
X112872344Y-88153488D01*
X112828096Y-88158630D01*
X112786715Y-88169694D01*
X112746279Y-88187591D01*
X112704869Y-88213231D01*
X112660562Y-88247522D01*
X112644392Y-88261405D01*
X112597178Y-88302824D01*
X112560489Y-88269198D01*
X112538376Y-88249938D01*
X112514032Y-88230279D01*
X112492310Y-88214122D01*
X112490040Y-88212557D01*
X112443489Y-88184613D01*
X112398676Y-88166031D01*
X112352842Y-88155818D01*
X112325514Y-88153375D01*
X112273985Y-88150935D01*
X112298370Y-88105012D01*
X112316801Y-88067510D01*
X112330326Y-88032521D01*
X112339601Y-87997101D01*
X112345282Y-87958307D01*
X112348025Y-87913194D01*
X112348542Y-87879900D01*
X112348822Y-87791022D01*
X112403855Y-87791000D01*
X112458889Y-87790978D01*
X112458889Y-87866468D01*
X112459601Y-87907635D01*
X112461790Y-87938528D01*
X112465533Y-87960076D01*
X112467137Y-87965336D01*
X112484267Y-87998844D01*
X112508348Y-88025112D01*
X112537566Y-88043719D01*
X112570109Y-88054243D01*
X112604164Y-88056264D01*
X112637916Y-88049358D01*
X112669553Y-88033106D01*
X112688638Y-88016804D01*
X112702411Y-88001501D01*
X112712503Y-87986651D01*
X112719535Y-87970049D01*
X112724130Y-87949490D01*
X112726910Y-87922768D01*
X112728497Y-87887679D01*
X112728857Y-87874234D01*
X112730857Y-87790978D01*
X112845932Y-87790978D01*
X112843689Y-87846832D01*
X112844730Y-87913248D01*
X112852902Y-87977490D01*
X112867729Y-88037365D01*
X112888735Y-88090678D01*
X112901778Y-88114806D01*
X112911739Y-88131543D01*
X112918891Y-88143932D01*
X112921730Y-88149365D01*
X112921733Y-88149394D01*
X113594227Y-88149394D01*
X113671782Y-88097953D01*
X113783342Y-88010803D01*
X113888356Y-87914790D01*
X113986393Y-87810152D01*
X114061055Y-87718364D01*
X114142756Y-87601989D01*
X114215152Y-87479573D01*
X114277938Y-87351888D01*
X114330811Y-87219702D01*
X114373469Y-87083787D01*
X114405607Y-86944912D01*
X114426924Y-86803849D01*
X114429080Y-86783445D01*
X114432008Y-86744717D01*
X114434046Y-86698003D01*
X114435192Y-86646240D01*
X114435447Y-86592364D01*
X114434809Y-86539311D01*
X114433279Y-86490018D01*
X114430856Y-86447420D01*
X114429135Y-86427845D01*
X114426338Y-86408089D01*
X113687618Y-86408089D01*
X113687236Y-86509676D01*
X113678600Y-86605690D01*
X113661369Y-86698610D01*
X113635204Y-86790912D01*
X113635141Y-86791102D01*
X113595441Y-86893306D01*
X113546176Y-86990098D01*
X113487961Y-87080941D01*
X113421413Y-87165298D01*
X113347148Y-87242631D01*
X113265782Y-87312405D01*
X113177931Y-87374081D01*
X113084213Y-87427123D01*
X112985242Y-87470994D01*
X112881635Y-87505157D01*
X112791911Y-87525877D01*
X112768433Y-87530244D01*
X112749200Y-87533769D01*
X112736867Y-87535969D01*
X112733922Y-87536446D01*
X112732581Y-87531288D01*
X112731586Y-87516655D01*
X112730990Y-87494359D01*
X112730846Y-87466210D01*
X112731100Y-87440207D01*
X112732644Y-87343436D01*
X112780622Y-87333680D01*
X112872278Y-87309383D01*
X112961217Y-87274699D01*
X113046463Y-87230392D01*
X113127040Y-87177231D01*
X113201973Y-87115979D01*
X113270285Y-87047404D01*
X113331000Y-86972272D01*
X113342370Y-86954626D01*
X113243562Y-86954626D01*
X113240809Y-86982945D01*
X113229124Y-87009594D01*
X113214369Y-87027026D01*
X113207463Y-87032728D01*
X113199565Y-87037474D01*
X113189632Y-87041351D01*
X113176624Y-87044447D01*
X113159496Y-87046848D01*
X113137206Y-87048641D01*
X113108711Y-87049913D01*
X113072970Y-87050750D01*
X113028939Y-87051240D01*
X112975576Y-87051469D01*
X112920322Y-87051524D01*
X112684666Y-87051556D01*
X112684666Y-87490449D01*
X112684594Y-87573699D01*
X112684383Y-87650026D01*
X112684037Y-87718908D01*
X112683565Y-87779823D01*
X112682971Y-87832246D01*
X112682263Y-87875656D01*
X112681447Y-87909531D01*
X112680528Y-87933347D01*
X112679514Y-87946582D01*
X112679133Y-87948635D01*
X112669816Y-87968284D01*
X112654851Y-87987528D01*
X112637874Y-88002052D01*
X112631044Y-88005696D01*
X112610035Y-88010220D01*
X112584596Y-88009932D01*
X112560336Y-88005178D01*
X112549252Y-88000639D01*
X112532383Y-87987157D01*
X112517969Y-87967865D01*
X112516885Y-87965884D01*
X112504044Y-87941602D01*
X112504044Y-87536749D01*
X112459154Y-87536749D01*
X112440677Y-87533457D01*
X112427077Y-87530932D01*
X112405930Y-87526893D01*
X112380765Y-87522015D01*
X112367160Y-87519352D01*
X112286873Y-87499475D01*
X112204077Y-87471236D01*
X112122269Y-87435828D01*
X112121425Y-87435421D01*
X112022812Y-87381745D01*
X111931453Y-87319583D01*
X111847688Y-87249372D01*
X111771856Y-87171549D01*
X111704298Y-87086552D01*
X111645354Y-86994819D01*
X111595365Y-86896787D01*
X111554669Y-86792894D01*
X111523608Y-86683577D01*
X111518191Y-86659267D01*
X111513199Y-86635038D01*
X111509399Y-86614088D01*
X111506628Y-86594248D01*
X111504724Y-86573345D01*
X111503523Y-86549207D01*
X111502863Y-86519665D01*
X111502580Y-86482546D01*
X111502519Y-86450422D01*
X111502733Y-86399367D01*
X111503635Y-86357119D01*
X111505492Y-86321206D01*
X111508570Y-86289156D01*
X111513134Y-86258494D01*
X111519450Y-86226749D01*
X111527783Y-86191446D01*
X111532236Y-86173845D01*
X111542371Y-86134334D01*
X111618219Y-86132807D01*
X111694066Y-86131281D01*
X111725480Y-86187453D01*
X111714430Y-86231449D01*
X111695904Y-86328134D01*
X111688305Y-86426193D01*
X111691529Y-86524586D01*
X111705475Y-86622274D01*
X111730041Y-86718216D01*
X111765126Y-86811372D01*
X111772940Y-86828600D01*
X111806699Y-86894686D01*
X111843982Y-86954633D01*
X111887043Y-87011689D01*
X111938137Y-87069099D01*
X111944914Y-87076165D01*
X112017803Y-87144027D01*
X112096595Y-87203115D01*
X112180335Y-87252896D01*
X112268067Y-87292835D01*
X112358836Y-87322398D01*
X112404397Y-87332987D01*
X112456066Y-87343421D01*
X112459154Y-87536749D01*
X112504044Y-87536749D01*
X112504044Y-87051556D01*
X112268389Y-87051421D01*
X112217009Y-87051271D01*
X112168430Y-87050899D01*
X112123972Y-87050331D01*
X112084956Y-87049594D01*
X112052702Y-87048717D01*
X112028530Y-87047724D01*
X112013760Y-87046644D01*
X112010633Y-87046161D01*
X111990494Y-87037685D01*
X111970785Y-87023209D01*
X111968579Y-87021080D01*
X111957224Y-87008506D01*
X111950858Y-86996700D01*
X111947701Y-86981204D01*
X111946440Y-86965663D01*
X111945865Y-86944157D01*
X111947982Y-86929353D01*
X111953686Y-86916805D01*
X111957450Y-86911018D01*
X111971434Y-86895415D01*
X111988239Y-86882549D01*
X111990312Y-86881385D01*
X111993867Y-86879701D01*
X111998263Y-86878209D01*
X112004162Y-86876896D01*
X112012226Y-86875752D01*
X112023115Y-86874764D01*
X112037491Y-86873923D01*
X112056017Y-86873215D01*
X112079352Y-86872631D01*
X112108159Y-86872158D01*
X112143099Y-86871785D01*
X112184833Y-86871501D01*
X112234023Y-86871295D01*
X112291331Y-86871155D01*
X112357418Y-86871070D01*
X112432945Y-86871028D01*
X112518573Y-86871018D01*
X112594267Y-86871026D01*
X113178555Y-86871119D01*
X113200546Y-86883726D01*
X113223198Y-86902609D01*
X113237614Y-86927044D01*
X113243562Y-86954626D01*
X113342370Y-86954626D01*
X113383143Y-86891349D01*
X113410375Y-86839361D01*
X113447947Y-86749427D01*
X113474887Y-86657879D01*
X113491488Y-86563403D01*
X113498045Y-86464687D01*
X113498182Y-86447600D01*
X113497116Y-86403030D01*
X113494121Y-86357281D01*
X113489509Y-86312874D01*
X113483589Y-86272327D01*
X113476670Y-86238160D01*
X113469485Y-86213988D01*
X113466822Y-86203072D01*
X113468614Y-86191919D01*
X113475726Y-86176609D01*
X113479074Y-86170534D01*
X113494644Y-86142812D01*
X113648650Y-86142800D01*
X113657862Y-86180900D01*
X113669683Y-86234724D01*
X113678133Y-86285814D01*
X113683786Y-86338564D01*
X113687220Y-86397369D01*
X113687618Y-86408089D01*
X114426338Y-86408089D01*
X114408629Y-86283053D01*
X114377599Y-86142065D01*
X114339303Y-86015274D01*
X114251276Y-86015274D01*
X114243852Y-86042355D01*
X114227151Y-86069458D01*
X114204034Y-86088433D01*
X114173246Y-86100137D01*
X114153825Y-86103628D01*
X114141021Y-86104557D01*
X114118106Y-86105435D01*
X114086256Y-86106246D01*
X114046649Y-86106973D01*
X114000463Y-86107598D01*
X113948874Y-86108105D01*
X113893061Y-86108478D01*
X113834200Y-86108697D01*
X113798564Y-86108749D01*
X113481595Y-86108934D01*
X113276453Y-86467307D01*
X113071311Y-86825681D01*
X112937017Y-86825729D01*
X112802724Y-86825778D01*
X112805199Y-86821545D01*
X112300799Y-86821545D01*
X112295658Y-86823642D01*
X112282101Y-86825157D01*
X112262994Y-86825776D01*
X112261820Y-86825778D01*
X112222795Y-86825778D01*
X111996894Y-86596425D01*
X111948930Y-86547710D01*
X111908315Y-86506378D01*
X111874465Y-86471783D01*
X111846799Y-86443273D01*
X111824733Y-86420201D01*
X111807684Y-86401918D01*
X111795071Y-86387773D01*
X111786311Y-86377119D01*
X111780820Y-86369307D01*
X111778016Y-86363687D01*
X111777316Y-86359610D01*
X111778138Y-86356428D01*
X111779425Y-86354203D01*
X111786928Y-86345660D01*
X111796299Y-86344260D01*
X111805836Y-86346489D01*
X111822084Y-86349932D01*
X111838110Y-86351481D01*
X111850273Y-86350992D01*
X111854933Y-86348426D01*
X111852209Y-86342868D01*
X111844543Y-86328906D01*
X111832695Y-86307880D01*
X111817425Y-86281130D01*
X111799491Y-86249994D01*
X111782966Y-86221504D01*
X111711000Y-86097800D01*
X111380800Y-86097598D01*
X111311178Y-86097539D01*
X111251933Y-86097434D01*
X111202152Y-86097255D01*
X111160922Y-86096974D01*
X111127331Y-86096565D01*
X111100467Y-86095999D01*
X111079416Y-86095248D01*
X111063267Y-86094285D01*
X111051106Y-86093082D01*
X111042022Y-86091610D01*
X111035101Y-86089843D01*
X111029432Y-86087753D01*
X111027367Y-86086846D01*
X111000863Y-86069308D01*
X110982336Y-86045764D01*
X110971945Y-86018355D01*
X110969851Y-85989219D01*
X110976212Y-85960497D01*
X110991188Y-85934327D01*
X111014407Y-85913199D01*
X111038479Y-85897267D01*
X111840585Y-85897267D01*
X111941066Y-86066600D01*
X111964744Y-86106502D01*
X111986725Y-86143538D01*
X112006310Y-86176533D01*
X112022803Y-86204313D01*
X112035504Y-86225702D01*
X112043718Y-86239526D01*
X112046621Y-86244400D01*
X112051667Y-86246775D01*
X112057183Y-86238399D01*
X112062974Y-86219790D01*
X112068851Y-86191468D01*
X112071048Y-86178383D01*
X112074879Y-86156974D01*
X112078684Y-86144222D01*
X112083631Y-86137557D01*
X112090889Y-86134409D01*
X112091068Y-86134363D01*
X112102342Y-86132692D01*
X112107222Y-86133563D01*
X112109109Y-86139239D01*
X112113709Y-86154668D01*
X112120705Y-86178726D01*
X112129781Y-86210289D01*
X112140622Y-86248235D01*
X112152910Y-86291441D01*
X112166331Y-86338783D01*
X112180568Y-86389139D01*
X112195304Y-86441384D01*
X112210225Y-86494397D01*
X112225014Y-86547054D01*
X112239356Y-86598232D01*
X112252933Y-86646807D01*
X112265430Y-86691658D01*
X112276531Y-86731659D01*
X112285921Y-86765690D01*
X112293282Y-86792625D01*
X112298300Y-86811343D01*
X112300657Y-86820720D01*
X112300799Y-86821545D01*
X112805199Y-86821545D01*
X112818402Y-86798967D01*
X112823559Y-86790187D01*
X112834013Y-86772427D01*
X112849324Y-86746429D01*
X112869056Y-86712938D01*
X112892769Y-86672696D01*
X112920025Y-86626448D01*
X112950387Y-86574936D01*
X112983416Y-86518905D01*
X113018674Y-86459097D01*
X113055723Y-86396256D01*
X113092010Y-86334711D01*
X113349940Y-85897267D01*
X113760959Y-85897267D01*
X113838911Y-85897273D01*
X113906381Y-85897304D01*
X113964174Y-85897384D01*
X114013098Y-85897534D01*
X114053958Y-85897776D01*
X114087562Y-85898131D01*
X114114715Y-85898622D01*
X114136224Y-85899271D01*
X114152895Y-85900099D01*
X114165534Y-85901129D01*
X114174949Y-85902382D01*
X114181945Y-85903881D01*
X114187329Y-85905647D01*
X114191908Y-85907702D01*
X114194555Y-85909058D01*
X114220900Y-85928555D01*
X114239716Y-85954328D01*
X114250132Y-85984020D01*
X114251276Y-86015274D01*
X114339303Y-86015274D01*
X114336278Y-86005262D01*
X114284901Y-85873027D01*
X114280124Y-85863090D01*
X113520044Y-85863090D01*
X113514707Y-85864122D01*
X113499920Y-85865010D01*
X113477523Y-85865695D01*
X113449355Y-85866116D01*
X113424777Y-85866222D01*
X113389886Y-85866283D01*
X113364554Y-85866605D01*
X113347050Y-85867397D01*
X113335645Y-85868869D01*
X113328609Y-85871231D01*
X113324211Y-85874692D01*
X113321177Y-85878773D01*
X113317781Y-85883236D01*
X113314023Y-85885005D01*
X113308611Y-85883128D01*
X113300253Y-85876651D01*
X113287655Y-85864618D01*
X113269524Y-85846078D01*
X113251656Y-85827470D01*
X113182911Y-85761634D01*
X113112155Y-85705837D01*
X113037718Y-85658832D01*
X112997933Y-85637908D01*
X112904123Y-85597147D01*
X112810243Y-85567543D01*
X112715572Y-85548987D01*
X112619388Y-85541366D01*
X112520969Y-85544569D01*
X112450422Y-85553181D01*
X112352793Y-85574156D01*
X112258976Y-85605656D01*
X112169426Y-85647428D01*
X112084604Y-85699218D01*
X112004966Y-85760772D01*
X111930971Y-85831836D01*
X111913833Y-85850581D01*
X111874943Y-85894207D01*
X111866453Y-85880215D01*
X111857963Y-85866222D01*
X111762844Y-85866222D01*
X111725999Y-85865907D01*
X111697723Y-85864992D01*
X111678820Y-85863525D01*
X111670092Y-85861555D01*
X111669607Y-85860694D01*
X111675833Y-85848860D01*
X111688171Y-85830416D01*
X111705208Y-85807168D01*
X111725528Y-85780921D01*
X111747719Y-85753478D01*
X111770366Y-85726645D01*
X111792055Y-85702227D01*
X111802595Y-85690969D01*
X111884379Y-85613441D01*
X111971849Y-85545596D01*
X112064776Y-85487566D01*
X112162936Y-85439482D01*
X112266103Y-85401477D01*
X112328262Y-85384075D01*
X112366474Y-85374886D01*
X112399564Y-85367865D01*
X112430145Y-85362730D01*
X112460831Y-85359199D01*
X112494235Y-85356991D01*
X112532968Y-85355824D01*
X112579646Y-85355417D01*
X112594355Y-85355400D01*
X112648285Y-85355846D01*
X112694355Y-85357151D01*
X112731516Y-85359270D01*
X112758715Y-85362155D01*
X112763689Y-85362964D01*
X112876806Y-85388517D01*
X112984355Y-85423692D01*
X113086066Y-85468337D01*
X113181669Y-85522299D01*
X113270898Y-85585424D01*
X113353482Y-85657561D01*
X113429152Y-85738557D01*
X113433093Y-85743247D01*
X113451692Y-85766112D01*
X113470397Y-85790150D01*
X113487870Y-85813518D01*
X113502773Y-85834371D01*
X113513767Y-85850865D01*
X113519514Y-85861154D01*
X113520044Y-85863090D01*
X114280124Y-85863090D01*
X114223701Y-85745744D01*
X114152913Y-85623794D01*
X114072770Y-85507562D01*
X113983507Y-85397430D01*
X113885357Y-85293780D01*
X113778554Y-85196996D01*
X113663333Y-85107460D01*
X113592502Y-85058846D01*
X113515549Y-85012033D01*
X113430398Y-84966625D01*
X113340137Y-84924029D01*
X113247857Y-84885647D01*
X113156648Y-84852883D01*
X113102355Y-84836113D01*
X113019852Y-84814144D01*
X112940700Y-84796987D01*
X112862070Y-84784266D01*
X112781133Y-84775603D01*
X112695058Y-84770624D01*
X112601017Y-84768951D01*
X112597178Y-84768947D01*
X112533513Y-84769341D01*
X112533513Y-84769341D01*
G37*
X112533513Y-84769341D02*
X112478396Y-84770744D01*
X112429109Y-84773416D01*
X112382937Y-84777623D01*
X112337161Y-84783627D01*
X112289066Y-84791689D01*
X112235934Y-84802075D01*
X112219482Y-84805498D01*
X112081516Y-84840184D01*
X111947700Y-84885124D01*
X111818506Y-84939900D01*
X111694409Y-85004093D01*
X111575880Y-85077286D01*
X111463394Y-85159058D01*
X111357424Y-85248991D01*
X111258444Y-85346666D01*
X111166925Y-85451665D01*
X111083343Y-85563570D01*
X111008169Y-85681960D01*
X110941878Y-85806417D01*
X110884943Y-85936524D01*
X110857851Y-86010156D01*
X110817245Y-86145450D01*
X110787335Y-86283594D01*
X110768148Y-86423752D01*
X110759709Y-86565088D01*
X110762044Y-86706768D01*
X110775179Y-86847955D01*
X110799140Y-86987814D01*
X110824345Y-87091750D01*
X110866401Y-87224366D01*
X110918929Y-87354297D01*
X110981274Y-87480312D01*
X111052781Y-87601175D01*
X111132795Y-87715656D01*
X111200447Y-87799445D01*
X111225751Y-87827679D01*
X111256847Y-87860531D01*
X111291666Y-87895970D01*
X111328139Y-87931967D01*
X111364194Y-87966490D01*
X111397763Y-87997511D01*
X111426774Y-88022998D01*
X111437244Y-88031679D01*
X111553959Y-88119000D01*
X111675826Y-88196298D01*
X111802623Y-88263479D01*
X111934130Y-88320448D01*
X112070126Y-88367112D01*
X112210390Y-88403376D01*
X112354702Y-88429145D01*
X112374626Y-88431834D01*
X112407490Y-88435200D01*
X112448788Y-88438051D01*
X112495911Y-88440329D01*
X112546252Y-88441976D01*
X112597201Y-88442936D01*
X112646151Y-88443151D01*
X112690494Y-88442564D01*
X112727622Y-88441117D01*
X112743933Y-88439942D01*
X112889197Y-88421467D01*
X113030944Y-88392469D01*
X113168741Y-88353187D01*
X113302157Y-88303857D01*
X113430757Y-88244717D01*
X113554110Y-88176003D01*
X113594227Y-88149394D01*
X112921733Y-88149394D01*
X112916520Y-88150319D01*
X112902581Y-88151563D01*
X112882466Y-88152915D01*
X112872344Y-88153488D01*
X112828096Y-88158630D01*
X112786715Y-88169694D01*
X112746279Y-88187591D01*
X112704869Y-88213231D01*
X112660562Y-88247522D01*
X112644392Y-88261405D01*
X112597178Y-88302824D01*
X112560489Y-88269198D01*
X112538376Y-88249938D01*
X112514032Y-88230279D01*
X112492310Y-88214122D01*
X112490040Y-88212557D01*
X112443489Y-88184613D01*
X112398676Y-88166031D01*
X112352842Y-88155818D01*
X112325514Y-88153375D01*
X112273985Y-88150935D01*
X112298370Y-88105012D01*
X112316801Y-88067510D01*
X112330326Y-88032521D01*
X112339601Y-87997101D01*
X112345282Y-87958307D01*
X112348025Y-87913194D01*
X112348542Y-87879900D01*
X112348822Y-87791022D01*
X112403855Y-87791000D01*
X112458889Y-87790978D01*
X112458889Y-87866468D01*
X112459601Y-87907635D01*
X112461790Y-87938528D01*
X112465533Y-87960076D01*
X112467137Y-87965336D01*
X112484267Y-87998844D01*
X112508348Y-88025112D01*
X112537566Y-88043719D01*
X112570109Y-88054243D01*
X112604164Y-88056264D01*
X112637916Y-88049358D01*
X112669553Y-88033106D01*
X112688638Y-88016804D01*
X112702411Y-88001501D01*
X112712503Y-87986651D01*
X112719535Y-87970049D01*
X112724130Y-87949490D01*
X112726910Y-87922768D01*
X112728497Y-87887679D01*
X112728857Y-87874234D01*
X112730857Y-87790978D01*
X112845932Y-87790978D01*
X112843689Y-87846832D01*
X112844730Y-87913248D01*
X112852902Y-87977490D01*
X112867729Y-88037365D01*
X112888735Y-88090678D01*
X112901778Y-88114806D01*
X112911739Y-88131543D01*
X112918891Y-88143932D01*
X112921730Y-88149365D01*
X112921733Y-88149394D01*
X113594227Y-88149394D01*
X113671782Y-88097953D01*
X113783342Y-88010803D01*
X113888356Y-87914790D01*
X113986393Y-87810152D01*
X114061055Y-87718364D01*
X114142756Y-87601989D01*
X114215152Y-87479573D01*
X114277938Y-87351888D01*
X114330811Y-87219702D01*
X114373469Y-87083787D01*
X114405607Y-86944912D01*
X114426924Y-86803849D01*
X114429080Y-86783445D01*
X114432008Y-86744717D01*
X114434046Y-86698003D01*
X114435192Y-86646240D01*
X114435447Y-86592364D01*
X114434809Y-86539311D01*
X114433279Y-86490018D01*
X114430856Y-86447420D01*
X114429135Y-86427845D01*
X114426338Y-86408089D01*
X113687618Y-86408089D01*
X113687236Y-86509676D01*
X113678600Y-86605690D01*
X113661369Y-86698610D01*
X113635204Y-86790912D01*
X113635141Y-86791102D01*
X113595441Y-86893306D01*
X113546176Y-86990098D01*
X113487961Y-87080941D01*
X113421413Y-87165298D01*
X113347148Y-87242631D01*
X113265782Y-87312405D01*
X113177931Y-87374081D01*
X113084213Y-87427123D01*
X112985242Y-87470994D01*
X112881635Y-87505157D01*
X112791911Y-87525877D01*
X112768433Y-87530244D01*
X112749200Y-87533769D01*
X112736867Y-87535969D01*
X112733922Y-87536446D01*
X112732581Y-87531288D01*
X112731586Y-87516655D01*
X112730990Y-87494359D01*
X112730846Y-87466210D01*
X112731100Y-87440207D01*
X112732644Y-87343436D01*
X112780622Y-87333680D01*
X112872278Y-87309383D01*
X112961217Y-87274699D01*
X113046463Y-87230392D01*
X113127040Y-87177231D01*
X113201973Y-87115979D01*
X113270285Y-87047404D01*
X113331000Y-86972272D01*
X113342370Y-86954626D01*
X113243562Y-86954626D01*
X113240809Y-86982945D01*
X113229124Y-87009594D01*
X113214369Y-87027026D01*
X113207463Y-87032728D01*
X113199565Y-87037474D01*
X113189632Y-87041351D01*
X113176624Y-87044447D01*
X113159496Y-87046848D01*
X113137206Y-87048641D01*
X113108711Y-87049913D01*
X113072970Y-87050750D01*
X113028939Y-87051240D01*
X112975576Y-87051469D01*
X112920322Y-87051524D01*
X112684666Y-87051556D01*
X112684666Y-87490449D01*
X112684594Y-87573699D01*
X112684383Y-87650026D01*
X112684037Y-87718908D01*
X112683565Y-87779823D01*
X112682971Y-87832246D01*
X112682263Y-87875656D01*
X112681447Y-87909531D01*
X112680528Y-87933347D01*
X112679514Y-87946582D01*
X112679133Y-87948635D01*
X112669816Y-87968284D01*
X112654851Y-87987528D01*
X112637874Y-88002052D01*
X112631044Y-88005696D01*
X112610035Y-88010220D01*
X112584596Y-88009932D01*
X112560336Y-88005178D01*
X112549252Y-88000639D01*
X112532383Y-87987157D01*
X112517969Y-87967865D01*
X112516885Y-87965884D01*
X112504044Y-87941602D01*
X112504044Y-87536749D01*
X112459154Y-87536749D01*
X112440677Y-87533457D01*
X112427077Y-87530932D01*
X112405930Y-87526893D01*
X112380765Y-87522015D01*
X112367160Y-87519352D01*
X112286873Y-87499475D01*
X112204077Y-87471236D01*
X112122269Y-87435828D01*
X112121425Y-87435421D01*
X112022812Y-87381745D01*
X111931453Y-87319583D01*
X111847688Y-87249372D01*
X111771856Y-87171549D01*
X111704298Y-87086552D01*
X111645354Y-86994819D01*
X111595365Y-86896787D01*
X111554669Y-86792894D01*
X111523608Y-86683577D01*
X111518191Y-86659267D01*
X111513199Y-86635038D01*
X111509399Y-86614088D01*
X111506628Y-86594248D01*
X111504724Y-86573345D01*
X111503523Y-86549207D01*
X111502863Y-86519665D01*
X111502580Y-86482546D01*
X111502519Y-86450422D01*
X111502733Y-86399367D01*
X111503635Y-86357119D01*
X111505492Y-86321206D01*
X111508570Y-86289156D01*
X111513134Y-86258494D01*
X111519450Y-86226749D01*
X111527783Y-86191446D01*
X111532236Y-86173845D01*
X111542371Y-86134334D01*
X111618219Y-86132807D01*
X111694066Y-86131281D01*
X111725480Y-86187453D01*
X111714430Y-86231449D01*
X111695904Y-86328134D01*
X111688305Y-86426193D01*
X111691529Y-86524586D01*
X111705475Y-86622274D01*
X111730041Y-86718216D01*
X111765126Y-86811372D01*
X111772940Y-86828600D01*
X111806699Y-86894686D01*
X111843982Y-86954633D01*
X111887043Y-87011689D01*
X111938137Y-87069099D01*
X111944914Y-87076165D01*
X112017803Y-87144027D01*
X112096595Y-87203115D01*
X112180335Y-87252896D01*
X112268067Y-87292835D01*
X112358836Y-87322398D01*
X112404397Y-87332987D01*
X112456066Y-87343421D01*
X112459154Y-87536749D01*
X112504044Y-87536749D01*
X112504044Y-87051556D01*
X112268389Y-87051421D01*
X112217009Y-87051271D01*
X112168430Y-87050899D01*
X112123972Y-87050331D01*
X112084956Y-87049594D01*
X112052702Y-87048717D01*
X112028530Y-87047724D01*
X112013760Y-87046644D01*
X112010633Y-87046161D01*
X111990494Y-87037685D01*
X111970785Y-87023209D01*
X111968579Y-87021080D01*
X111957224Y-87008506D01*
X111950858Y-86996700D01*
X111947701Y-86981204D01*
X111946440Y-86965663D01*
X111945865Y-86944157D01*
X111947982Y-86929353D01*
X111953686Y-86916805D01*
X111957450Y-86911018D01*
X111971434Y-86895415D01*
X111988239Y-86882549D01*
X111990312Y-86881385D01*
X111993867Y-86879701D01*
X111998263Y-86878209D01*
X112004162Y-86876896D01*
X112012226Y-86875752D01*
X112023115Y-86874764D01*
X112037491Y-86873923D01*
X112056017Y-86873215D01*
X112079352Y-86872631D01*
X112108159Y-86872158D01*
X112143099Y-86871785D01*
X112184833Y-86871501D01*
X112234023Y-86871295D01*
X112291331Y-86871155D01*
X112357418Y-86871070D01*
X112432945Y-86871028D01*
X112518573Y-86871018D01*
X112594267Y-86871026D01*
X113178555Y-86871119D01*
X113200546Y-86883726D01*
X113223198Y-86902609D01*
X113237614Y-86927044D01*
X113243562Y-86954626D01*
X113342370Y-86954626D01*
X113383143Y-86891349D01*
X113410375Y-86839361D01*
X113447947Y-86749427D01*
X113474887Y-86657879D01*
X113491488Y-86563403D01*
X113498045Y-86464687D01*
X113498182Y-86447600D01*
X113497116Y-86403030D01*
X113494121Y-86357281D01*
X113489509Y-86312874D01*
X113483589Y-86272327D01*
X113476670Y-86238160D01*
X113469485Y-86213988D01*
X113466822Y-86203072D01*
X113468614Y-86191919D01*
X113475726Y-86176609D01*
X113479074Y-86170534D01*
X113494644Y-86142812D01*
X113648650Y-86142800D01*
X113657862Y-86180900D01*
X113669683Y-86234724D01*
X113678133Y-86285814D01*
X113683786Y-86338564D01*
X113687220Y-86397369D01*
X113687618Y-86408089D01*
X114426338Y-86408089D01*
X114408629Y-86283053D01*
X114377599Y-86142065D01*
X114339303Y-86015274D01*
X114251276Y-86015274D01*
X114243852Y-86042355D01*
X114227151Y-86069458D01*
X114204034Y-86088433D01*
X114173246Y-86100137D01*
X114153825Y-86103628D01*
X114141021Y-86104557D01*
X114118106Y-86105435D01*
X114086256Y-86106246D01*
X114046649Y-86106973D01*
X114000463Y-86107598D01*
X113948874Y-86108105D01*
X113893061Y-86108478D01*
X113834200Y-86108697D01*
X113798564Y-86108749D01*
X113481595Y-86108934D01*
X113276453Y-86467307D01*
X113071311Y-86825681D01*
X112937017Y-86825729D01*
X112802724Y-86825778D01*
X112805199Y-86821545D01*
X112300799Y-86821545D01*
X112295658Y-86823642D01*
X112282101Y-86825157D01*
X112262994Y-86825776D01*
X112261820Y-86825778D01*
X112222795Y-86825778D01*
X111996894Y-86596425D01*
X111948930Y-86547710D01*
X111908315Y-86506378D01*
X111874465Y-86471783D01*
X111846799Y-86443273D01*
X111824733Y-86420201D01*
X111807684Y-86401918D01*
X111795071Y-86387773D01*
X111786311Y-86377119D01*
X111780820Y-86369307D01*
X111778016Y-86363687D01*
X111777316Y-86359610D01*
X111778138Y-86356428D01*
X111779425Y-86354203D01*
X111786928Y-86345660D01*
X111796299Y-86344260D01*
X111805836Y-86346489D01*
X111822084Y-86349932D01*
X111838110Y-86351481D01*
X111850273Y-86350992D01*
X111854933Y-86348426D01*
X111852209Y-86342868D01*
X111844543Y-86328906D01*
X111832695Y-86307880D01*
X111817425Y-86281130D01*
X111799491Y-86249994D01*
X111782966Y-86221504D01*
X111711000Y-86097800D01*
X111380800Y-86097598D01*
X111311178Y-86097539D01*
X111251933Y-86097434D01*
X111202152Y-86097255D01*
X111160922Y-86096974D01*
X111127331Y-86096565D01*
X111100467Y-86095999D01*
X111079416Y-86095248D01*
X111063267Y-86094285D01*
X111051106Y-86093082D01*
X111042022Y-86091610D01*
X111035101Y-86089843D01*
X111029432Y-86087753D01*
X111027367Y-86086846D01*
X111000863Y-86069308D01*
X110982336Y-86045764D01*
X110971945Y-86018355D01*
X110969851Y-85989219D01*
X110976212Y-85960497D01*
X110991188Y-85934327D01*
X111014407Y-85913199D01*
X111038479Y-85897267D01*
X111840585Y-85897267D01*
X111941066Y-86066600D01*
X111964744Y-86106502D01*
X111986725Y-86143538D01*
X112006310Y-86176533D01*
X112022803Y-86204313D01*
X112035504Y-86225702D01*
X112043718Y-86239526D01*
X112046621Y-86244400D01*
X112051667Y-86246775D01*
X112057183Y-86238399D01*
X112062974Y-86219790D01*
X112068851Y-86191468D01*
X112071048Y-86178383D01*
X112074879Y-86156974D01*
X112078684Y-86144222D01*
X112083631Y-86137557D01*
X112090889Y-86134409D01*
X112091068Y-86134363D01*
X112102342Y-86132692D01*
X112107222Y-86133563D01*
X112109109Y-86139239D01*
X112113709Y-86154668D01*
X112120705Y-86178726D01*
X112129781Y-86210289D01*
X112140622Y-86248235D01*
X112152910Y-86291441D01*
X112166331Y-86338783D01*
X112180568Y-86389139D01*
X112195304Y-86441384D01*
X112210225Y-86494397D01*
X112225014Y-86547054D01*
X112239356Y-86598232D01*
X112252933Y-86646807D01*
X112265430Y-86691658D01*
X112276531Y-86731659D01*
X112285921Y-86765690D01*
X112293282Y-86792625D01*
X112298300Y-86811343D01*
X112300657Y-86820720D01*
X112300799Y-86821545D01*
X112805199Y-86821545D01*
X112818402Y-86798967D01*
X112823559Y-86790187D01*
X112834013Y-86772427D01*
X112849324Y-86746429D01*
X112869056Y-86712938D01*
X112892769Y-86672696D01*
X112920025Y-86626448D01*
X112950387Y-86574936D01*
X112983416Y-86518905D01*
X113018674Y-86459097D01*
X113055723Y-86396256D01*
X113092010Y-86334711D01*
X113349940Y-85897267D01*
X113760959Y-85897267D01*
X113838911Y-85897273D01*
X113906381Y-85897304D01*
X113964174Y-85897384D01*
X114013098Y-85897534D01*
X114053958Y-85897776D01*
X114087562Y-85898131D01*
X114114715Y-85898622D01*
X114136224Y-85899271D01*
X114152895Y-85900099D01*
X114165534Y-85901129D01*
X114174949Y-85902382D01*
X114181945Y-85903881D01*
X114187329Y-85905647D01*
X114191908Y-85907702D01*
X114194555Y-85909058D01*
X114220900Y-85928555D01*
X114239716Y-85954328D01*
X114250132Y-85984020D01*
X114251276Y-86015274D01*
X114339303Y-86015274D01*
X114336278Y-86005262D01*
X114284901Y-85873027D01*
X114280124Y-85863090D01*
X113520044Y-85863090D01*
X113514707Y-85864122D01*
X113499920Y-85865010D01*
X113477523Y-85865695D01*
X113449355Y-85866116D01*
X113424777Y-85866222D01*
X113389886Y-85866283D01*
X113364554Y-85866605D01*
X113347050Y-85867397D01*
X113335645Y-85868869D01*
X113328609Y-85871231D01*
X113324211Y-85874692D01*
X113321177Y-85878773D01*
X113317781Y-85883236D01*
X113314023Y-85885005D01*
X113308611Y-85883128D01*
X113300253Y-85876651D01*
X113287655Y-85864618D01*
X113269524Y-85846078D01*
X113251656Y-85827470D01*
X113182911Y-85761634D01*
X113112155Y-85705837D01*
X113037718Y-85658832D01*
X112997933Y-85637908D01*
X112904123Y-85597147D01*
X112810243Y-85567543D01*
X112715572Y-85548987D01*
X112619388Y-85541366D01*
X112520969Y-85544569D01*
X112450422Y-85553181D01*
X112352793Y-85574156D01*
X112258976Y-85605656D01*
X112169426Y-85647428D01*
X112084604Y-85699218D01*
X112004966Y-85760772D01*
X111930971Y-85831836D01*
X111913833Y-85850581D01*
X111874943Y-85894207D01*
X111866453Y-85880215D01*
X111857963Y-85866222D01*
X111762844Y-85866222D01*
X111725999Y-85865907D01*
X111697723Y-85864992D01*
X111678820Y-85863525D01*
X111670092Y-85861555D01*
X111669607Y-85860694D01*
X111675833Y-85848860D01*
X111688171Y-85830416D01*
X111705208Y-85807168D01*
X111725528Y-85780921D01*
X111747719Y-85753478D01*
X111770366Y-85726645D01*
X111792055Y-85702227D01*
X111802595Y-85690969D01*
X111884379Y-85613441D01*
X111971849Y-85545596D01*
X112064776Y-85487566D01*
X112162936Y-85439482D01*
X112266103Y-85401477D01*
X112328262Y-85384075D01*
X112366474Y-85374886D01*
X112399564Y-85367865D01*
X112430145Y-85362730D01*
X112460831Y-85359199D01*
X112494235Y-85356991D01*
X112532968Y-85355824D01*
X112579646Y-85355417D01*
X112594355Y-85355400D01*
X112648285Y-85355846D01*
X112694355Y-85357151D01*
X112731516Y-85359270D01*
X112758715Y-85362155D01*
X112763689Y-85362964D01*
X112876806Y-85388517D01*
X112984355Y-85423692D01*
X113086066Y-85468337D01*
X113181669Y-85522299D01*
X113270898Y-85585424D01*
X113353482Y-85657561D01*
X113429152Y-85738557D01*
X113433093Y-85743247D01*
X113451692Y-85766112D01*
X113470397Y-85790150D01*
X113487870Y-85813518D01*
X113502773Y-85834371D01*
X113513767Y-85850865D01*
X113519514Y-85861154D01*
X113520044Y-85863090D01*
X114280124Y-85863090D01*
X114223701Y-85745744D01*
X114152913Y-85623794D01*
X114072770Y-85507562D01*
X113983507Y-85397430D01*
X113885357Y-85293780D01*
X113778554Y-85196996D01*
X113663333Y-85107460D01*
X113592502Y-85058846D01*
X113515549Y-85012033D01*
X113430398Y-84966625D01*
X113340137Y-84924029D01*
X113247857Y-84885647D01*
X113156648Y-84852883D01*
X113102355Y-84836113D01*
X113019852Y-84814144D01*
X112940700Y-84796987D01*
X112862070Y-84784266D01*
X112781133Y-84775603D01*
X112695058Y-84770624D01*
X112601017Y-84768951D01*
X112597178Y-84768947D01*
X112533513Y-84769341D01*
G36*
X110899782Y-88297035D02*
X110886529Y-88301856D01*
X110868017Y-88309073D01*
X110846796Y-88317641D01*
X110825416Y-88326517D01*
X110806427Y-88334654D01*
X110792379Y-88341009D01*
X110785823Y-88344537D01*
X110785763Y-88344594D01*
X110787812Y-88349800D01*
X110795702Y-88360684D01*
X110807353Y-88374881D01*
X110820684Y-88390027D01*
X110833614Y-88403757D01*
X110844062Y-88413707D01*
X110849929Y-88417511D01*
X110853773Y-88412646D01*
X110860933Y-88399416D01*
X110870368Y-88379873D01*
X110880500Y-88357304D01*
X110890645Y-88333579D01*
X110898701Y-88314001D01*
X110903830Y-88300658D01*
X110905225Y-88295655D01*
X110899782Y-88297035D01*
X110899782Y-88297035D01*
G37*
X110899782Y-88297035D02*
X110886529Y-88301856D01*
X110868017Y-88309073D01*
X110846796Y-88317641D01*
X110825416Y-88326517D01*
X110806427Y-88334654D01*
X110792379Y-88341009D01*
X110785823Y-88344537D01*
X110785763Y-88344594D01*
X110787812Y-88349800D01*
X110795702Y-88360684D01*
X110807353Y-88374881D01*
X110820684Y-88390027D01*
X110833614Y-88403757D01*
X110844062Y-88413707D01*
X110849929Y-88417511D01*
X110853773Y-88412646D01*
X110860933Y-88399416D01*
X110870368Y-88379873D01*
X110880500Y-88357304D01*
X110890645Y-88333579D01*
X110898701Y-88314001D01*
X110903830Y-88300658D01*
X110905225Y-88295655D01*
X110899782Y-88297035D01*
G36*
X114160555Y-88339437D02*
X114144162Y-88352895D01*
X114124097Y-88370346D01*
X114102380Y-88389939D01*
X114081030Y-88409819D01*
X114062066Y-88428134D01*
X114047505Y-88443032D01*
X114039368Y-88452658D01*
X114039025Y-88453194D01*
X114030553Y-88469168D01*
X114029340Y-88480907D01*
X114035737Y-88493104D01*
X114042657Y-88501745D01*
X114058510Y-88515023D01*
X114076526Y-88518484D01*
X114098439Y-88512298D01*
X114107066Y-88508038D01*
X114118539Y-88500614D01*
X114135041Y-88488321D01*
X114154678Y-88472761D01*
X114175553Y-88455538D01*
X114195771Y-88438254D01*
X114213434Y-88422511D01*
X114226647Y-88409911D01*
X114233513Y-88402058D01*
X114234066Y-88400709D01*
X114230569Y-88392693D01*
X114221544Y-88380106D01*
X114209197Y-88365365D01*
X114195729Y-88350886D01*
X114183346Y-88339086D01*
X114174250Y-88332382D01*
X114171258Y-88331826D01*
X114160555Y-88339437D01*
X114160555Y-88339437D01*
G37*
X114160555Y-88339437D02*
X114144162Y-88352895D01*
X114124097Y-88370346D01*
X114102380Y-88389939D01*
X114081030Y-88409819D01*
X114062066Y-88428134D01*
X114047505Y-88443032D01*
X114039368Y-88452658D01*
X114039025Y-88453194D01*
X114030553Y-88469168D01*
X114029340Y-88480907D01*
X114035737Y-88493104D01*
X114042657Y-88501745D01*
X114058510Y-88515023D01*
X114076526Y-88518484D01*
X114098439Y-88512298D01*
X114107066Y-88508038D01*
X114118539Y-88500614D01*
X114135041Y-88488321D01*
X114154678Y-88472761D01*
X114175553Y-88455538D01*
X114195771Y-88438254D01*
X114213434Y-88422511D01*
X114226647Y-88409911D01*
X114233513Y-88402058D01*
X114234066Y-88400709D01*
X114230569Y-88392693D01*
X114221544Y-88380106D01*
X114209197Y-88365365D01*
X114195729Y-88350886D01*
X114183346Y-88339086D01*
X114174250Y-88332382D01*
X114171258Y-88331826D01*
X114160555Y-88339437D01*
G36*
X114264524Y-88551321D02*
X114227640Y-88583854D01*
X114199534Y-88610928D01*
X114179689Y-88633488D01*
X114167586Y-88652480D01*
X114162709Y-88668850D01*
X114164540Y-88683545D01*
X114172561Y-88697510D01*
X114180010Y-88705812D01*
X114200186Y-88719116D01*
X114223396Y-88721618D01*
X114249793Y-88713330D01*
X114253822Y-88711272D01*
X114265198Y-88703812D01*
X114282905Y-88690548D01*
X114304809Y-88673144D01*
X114328779Y-88653270D01*
X114337165Y-88646121D01*
X114400752Y-88591511D01*
X114384044Y-88570833D01*
X114370283Y-88554191D01*
X114353899Y-88534902D01*
X114345570Y-88525295D01*
X114323803Y-88500434D01*
X114264524Y-88551321D01*
X114264524Y-88551321D01*
G37*
X114264524Y-88551321D02*
X114227640Y-88583854D01*
X114199534Y-88610928D01*
X114179689Y-88633488D01*
X114167586Y-88652480D01*
X114162709Y-88668850D01*
X114164540Y-88683545D01*
X114172561Y-88697510D01*
X114180010Y-88705812D01*
X114200186Y-88719116D01*
X114223396Y-88721618D01*
X114249793Y-88713330D01*
X114253822Y-88711272D01*
X114265198Y-88703812D01*
X114282905Y-88690548D01*
X114304809Y-88673144D01*
X114328779Y-88653270D01*
X114337165Y-88646121D01*
X114400752Y-88591511D01*
X114384044Y-88570833D01*
X114370283Y-88554191D01*
X114353899Y-88534902D01*
X114345570Y-88525295D01*
X114323803Y-88500434D01*
X114264524Y-88551321D01*
G36*
X113527239Y-88736897D02*
X113509580Y-88739077D01*
X113493910Y-88744097D01*
X113475588Y-88753091D01*
X113469244Y-88756535D01*
X113434013Y-88781377D01*
X113408594Y-88811710D01*
X113393152Y-88847167D01*
X113387848Y-88887379D01*
X113392357Y-88929676D01*
X113405952Y-88975428D01*
X113426128Y-89016526D01*
X113451672Y-89051184D01*
X113481369Y-89077618D01*
X113500485Y-89088700D01*
X113531638Y-89097986D01*
X113567702Y-89100051D01*
X113604923Y-89094912D01*
X113626744Y-89088189D01*
X113658154Y-89071200D01*
X113686017Y-89046925D01*
X113707261Y-89018346D01*
X113714661Y-89002801D01*
X113720951Y-88975434D01*
X113722421Y-88941821D01*
X113719272Y-88905826D01*
X113711707Y-88871314D01*
X113707101Y-88857778D01*
X113688367Y-88820437D01*
X113663341Y-88786824D01*
X113634588Y-88760186D01*
X113624807Y-88753534D01*
X113609381Y-88744745D01*
X113595741Y-88739598D01*
X113579826Y-88737145D01*
X113557577Y-88736438D01*
X113551531Y-88736422D01*
X113527239Y-88736897D01*
X113527239Y-88736897D01*
G37*
X113527239Y-88736897D02*
X113509580Y-88739077D01*
X113493910Y-88744097D01*
X113475588Y-88753091D01*
X113469244Y-88756535D01*
X113434013Y-88781377D01*
X113408594Y-88811710D01*
X113393152Y-88847167D01*
X113387848Y-88887379D01*
X113392357Y-88929676D01*
X113405952Y-88975428D01*
X113426128Y-89016526D01*
X113451672Y-89051184D01*
X113481369Y-89077618D01*
X113500485Y-89088700D01*
X113531638Y-89097986D01*
X113567702Y-89100051D01*
X113604923Y-89094912D01*
X113626744Y-89088189D01*
X113658154Y-89071200D01*
X113686017Y-89046925D01*
X113707261Y-89018346D01*
X113714661Y-89002801D01*
X113720951Y-88975434D01*
X113722421Y-88941821D01*
X113719272Y-88905826D01*
X113711707Y-88871314D01*
X113707101Y-88857778D01*
X113688367Y-88820437D01*
X113663341Y-88786824D01*
X113634588Y-88760186D01*
X113624807Y-88753534D01*
X113609381Y-88744745D01*
X113595741Y-88739598D01*
X113579826Y-88737145D01*
X113557577Y-88736438D01*
X113551531Y-88736422D01*
X113527239Y-88736897D01*
G36*
X112890028Y-88775415D02*
X112882855Y-88781005D01*
X112863361Y-88793280D01*
X112835773Y-88803660D01*
X112803202Y-88811596D01*
X112768765Y-88816536D01*
X112735573Y-88817932D01*
X112706740Y-88815233D01*
X112699095Y-88813458D01*
X112684977Y-88809889D01*
X112676548Y-88808419D01*
X112675658Y-88808542D01*
X112678828Y-88812968D01*
X112688134Y-88824994D01*
X112702627Y-88843431D01*
X112721354Y-88867093D01*
X112743367Y-88894791D01*
X112767715Y-88925338D01*
X112793447Y-88957547D01*
X112819613Y-88990230D01*
X112845263Y-89022198D01*
X112869445Y-89052265D01*
X112891210Y-89079243D01*
X112909608Y-89101944D01*
X112923687Y-89119181D01*
X112932497Y-89129766D01*
X112934846Y-89132417D01*
X112936744Y-89130553D01*
X112935985Y-89120668D01*
X112935840Y-89119833D01*
X112934572Y-89111024D01*
X112932208Y-89093022D01*
X112928956Y-89067529D01*
X112925025Y-89036245D01*
X112920623Y-89000872D01*
X112915960Y-88963110D01*
X112911243Y-88924660D01*
X112906681Y-88887224D01*
X112902484Y-88852503D01*
X112898860Y-88822197D01*
X112896017Y-88798008D01*
X112894165Y-88781636D01*
X112893511Y-88774801D01*
X112890028Y-88775415D01*
X112890028Y-88775415D01*
G37*
X112890028Y-88775415D02*
X112882855Y-88781005D01*
X112863361Y-88793280D01*
X112835773Y-88803660D01*
X112803202Y-88811596D01*
X112768765Y-88816536D01*
X112735573Y-88817932D01*
X112706740Y-88815233D01*
X112699095Y-88813458D01*
X112684977Y-88809889D01*
X112676548Y-88808419D01*
X112675658Y-88808542D01*
X112678828Y-88812968D01*
X112688134Y-88824994D01*
X112702627Y-88843431D01*
X112721354Y-88867093D01*
X112743367Y-88894791D01*
X112767715Y-88925338D01*
X112793447Y-88957547D01*
X112819613Y-88990230D01*
X112845263Y-89022198D01*
X112869445Y-89052265D01*
X112891210Y-89079243D01*
X112909608Y-89101944D01*
X112923687Y-89119181D01*
X112932497Y-89129766D01*
X112934846Y-89132417D01*
X112936744Y-89130553D01*
X112935985Y-89120668D01*
X112935840Y-89119833D01*
X112934572Y-89111024D01*
X112932208Y-89093022D01*
X112928956Y-89067529D01*
X112925025Y-89036245D01*
X112920623Y-89000872D01*
X112915960Y-88963110D01*
X112911243Y-88924660D01*
X112906681Y-88887224D01*
X112902484Y-88852503D01*
X112898860Y-88822197D01*
X112896017Y-88798008D01*
X112894165Y-88781636D01*
X112893511Y-88774801D01*
X112890028Y-88775415D01*
G36*
X112343407Y-83639167D02*
X112162512Y-83660120D01*
X111983208Y-83691996D01*
X111843644Y-83724752D01*
X111683058Y-83771900D01*
X111523035Y-83829335D01*
X111365060Y-83896318D01*
X111210617Y-83972112D01*
X111061192Y-84055980D01*
X110918268Y-84147185D01*
X110783331Y-84244990D01*
X110761457Y-84262090D01*
X110626456Y-84375406D01*
X110497614Y-84496846D01*
X110376046Y-84625221D01*
X110262864Y-84759340D01*
X110159182Y-84898012D01*
X110138301Y-84928215D01*
X110040346Y-85081790D01*
X109952576Y-85239818D01*
X109875023Y-85401822D01*
X109807718Y-85567324D01*
X109750694Y-85735846D01*
X109703982Y-85906910D01*
X109667615Y-86080039D01*
X109641626Y-86254754D01*
X109626045Y-86430577D01*
X109620905Y-86607032D01*
X109626238Y-86783640D01*
X109642077Y-86959923D01*
X109668453Y-87135404D01*
X109705398Y-87309604D01*
X109752945Y-87482046D01*
X109811125Y-87652252D01*
X109879971Y-87819744D01*
X109936218Y-87938500D01*
X110022412Y-88098129D01*
X110117899Y-88251652D01*
X110222266Y-88398704D01*
X110335100Y-88538918D01*
X110455990Y-88671927D01*
X110584522Y-88797365D01*
X110720284Y-88914867D01*
X110862864Y-89024065D01*
X111011848Y-89124593D01*
X111166825Y-89216084D01*
X111327382Y-89298174D01*
X111493107Y-89370494D01*
X111590179Y-89407369D01*
X111761392Y-89463136D01*
X111935553Y-89508269D01*
X112113213Y-89542887D01*
X112294922Y-89567110D01*
X112344074Y-89571825D01*
X112386624Y-89574767D01*
X112437925Y-89576999D01*
X112495604Y-89578522D01*
X112557287Y-89579339D01*
X112620601Y-89579450D01*
X112683171Y-89578857D01*
X112742625Y-89577562D01*
X112796588Y-89575566D01*
X112842688Y-89572871D01*
X112859644Y-89571485D01*
X113042141Y-89549275D01*
X113221677Y-89516311D01*
X113397856Y-89472814D01*
X113570281Y-89419006D01*
X113684505Y-89375631D01*
X113133862Y-89375631D01*
X113133835Y-89375691D01*
X113127582Y-89377275D01*
X113112145Y-89379859D01*
X113089549Y-89383138D01*
X113061824Y-89386809D01*
X113047618Y-89388582D01*
X112964066Y-89398808D01*
X112950686Y-89381947D01*
X112924321Y-89348841D01*
X112896090Y-89313605D01*
X112866839Y-89277271D01*
X112837411Y-89240874D01*
X112808650Y-89205448D01*
X112781400Y-89172027D01*
X112756506Y-89141644D01*
X112734812Y-89115334D01*
X112717161Y-89094129D01*
X112704398Y-89079066D01*
X112697366Y-89071176D01*
X112696247Y-89070293D01*
X112696997Y-89076892D01*
X112698980Y-89093288D01*
X112702024Y-89118080D01*
X112705956Y-89149863D01*
X112710601Y-89187235D01*
X112715788Y-89228793D01*
X112718096Y-89247245D01*
X112723335Y-89290081D01*
X112727890Y-89329279D01*
X112731616Y-89363445D01*
X112734372Y-89391189D01*
X112736015Y-89411118D01*
X112736402Y-89421840D01*
X112736149Y-89423271D01*
X112729670Y-89425267D01*
X112714516Y-89428159D01*
X112693232Y-89431589D01*
X112668362Y-89435199D01*
X112642449Y-89438629D01*
X112618039Y-89441521D01*
X112597676Y-89443516D01*
X112587928Y-89444158D01*
X112577214Y-89442791D01*
X112571887Y-89435296D01*
X112569903Y-89426456D01*
X112567777Y-89412276D01*
X112564673Y-89389183D01*
X112560736Y-89358431D01*
X112556113Y-89321274D01*
X112550950Y-89278967D01*
X112545393Y-89232765D01*
X112539588Y-89183920D01*
X112533680Y-89133687D01*
X112527816Y-89083321D01*
X112523998Y-89050178D01*
X112378975Y-89050178D01*
X112378400Y-89071286D01*
X112373371Y-89125854D01*
X112362720Y-89173340D01*
X112345484Y-89216945D01*
X112322522Y-89257093D01*
X112286161Y-89303296D01*
X112243641Y-89340267D01*
X112195636Y-89367757D01*
X112142818Y-89385522D01*
X112085863Y-89393315D01*
X112025443Y-89390888D01*
X111979746Y-89382572D01*
X111922421Y-89364033D01*
X111871306Y-89337768D01*
X111827333Y-89304569D01*
X111791435Y-89265230D01*
X111764545Y-89220543D01*
X111752485Y-89189474D01*
X111746152Y-89160082D01*
X111742657Y-89124328D01*
X111742220Y-89086834D01*
X111745062Y-89052219D01*
X111745734Y-89047868D01*
X111746798Y-89039782D01*
X111747971Y-89034001D01*
X111750793Y-89030572D01*
X111756806Y-89029541D01*
X111767551Y-89030954D01*
X111784569Y-89034857D01*
X111809403Y-89041296D01*
X111843592Y-89050318D01*
X111845665Y-89050861D01*
X111912597Y-89068394D01*
X111909068Y-89094999D01*
X111908691Y-89134872D01*
X111918118Y-89170095D01*
X111936507Y-89199776D01*
X111963017Y-89223023D01*
X111996806Y-89238946D01*
X112037033Y-89246653D01*
X112052762Y-89247245D01*
X112090945Y-89242703D01*
X112123988Y-89228795D01*
X112152488Y-89205092D01*
X112177036Y-89171167D01*
X112188259Y-89149722D01*
X112203823Y-89107433D01*
X112211951Y-89063689D01*
X112212534Y-89021094D01*
X112205463Y-88982253D01*
X112196259Y-88959378D01*
X112180483Y-88937841D01*
X112157159Y-88916908D01*
X112129770Y-88899579D01*
X112123044Y-88896320D01*
X112095788Y-88887613D01*
X112064803Y-88883446D01*
X112034076Y-88883910D01*
X112007593Y-88889098D01*
X111997344Y-88893407D01*
X111983885Y-88903532D01*
X111968488Y-88919116D01*
X111954504Y-88936331D01*
X111945280Y-88951349D01*
X111944155Y-88954179D01*
X111938614Y-88954257D01*
X111924498Y-88952036D01*
X111904158Y-88948053D01*
X111879944Y-88942848D01*
X111854206Y-88936963D01*
X111829296Y-88930935D01*
X111807563Y-88925305D01*
X111791358Y-88920614D01*
X111783033Y-88917399D01*
X111782619Y-88917087D01*
X111784046Y-88911603D01*
X111789435Y-88898673D01*
X111797675Y-88880938D01*
X111798966Y-88878276D01*
X111826864Y-88833124D01*
X111862149Y-88796164D01*
X111904067Y-88767767D01*
X111951862Y-88748307D01*
X112004780Y-88738155D01*
X112062065Y-88737686D01*
X112080162Y-88739510D01*
X112144742Y-88752411D01*
X112202801Y-88773951D01*
X112253869Y-88803846D01*
X112297476Y-88841814D01*
X112333151Y-88887572D01*
X112337416Y-88894467D01*
X112357131Y-88931646D01*
X112370103Y-88967722D01*
X112377121Y-89006099D01*
X112378975Y-89050178D01*
X112523998Y-89050178D01*
X112522142Y-89034075D01*
X112516803Y-88987204D01*
X112511946Y-88943963D01*
X112507717Y-88905604D01*
X112504261Y-88873383D01*
X112501726Y-88848554D01*
X112500256Y-88832371D01*
X112499997Y-88826088D01*
X112500015Y-88826059D01*
X112506423Y-88824363D01*
X112521951Y-88821776D01*
X112544491Y-88818608D01*
X112571937Y-88815169D01*
X112582030Y-88813991D01*
X112661028Y-88804940D01*
X112636919Y-88781509D01*
X112619983Y-88760833D01*
X112605053Y-88735109D01*
X112594044Y-88708355D01*
X112588875Y-88684586D01*
X112588711Y-88680496D01*
X112589576Y-88673612D01*
X112593764Y-88669272D01*
X112603663Y-88666485D01*
X112621663Y-88664258D01*
X112629633Y-88663491D01*
X112651228Y-88661209D01*
X112669248Y-88658841D01*
X112679948Y-88656881D01*
X112680226Y-88656802D01*
X112688792Y-88658364D01*
X112696378Y-88669596D01*
X112697696Y-88672608D01*
X112708270Y-88691777D01*
X112721989Y-88702663D01*
X112741837Y-88707062D01*
X112755401Y-88707385D01*
X112786982Y-88703393D01*
X112809813Y-88692381D01*
X112824074Y-88674239D01*
X112828148Y-88662013D01*
X112830060Y-88654830D01*
X111780516Y-88654830D01*
X111633772Y-88912937D01*
X111599725Y-88972813D01*
X111570818Y-89023616D01*
X111546616Y-89066091D01*
X111526686Y-89100982D01*
X111510591Y-89129031D01*
X111497899Y-89150983D01*
X111488173Y-89167583D01*
X111480979Y-89179573D01*
X111475883Y-89187699D01*
X111472450Y-89192703D01*
X111470246Y-89195329D01*
X111468835Y-89196323D01*
X111468129Y-89196445D01*
X111462515Y-89193798D01*
X111448932Y-89186522D01*
X111429196Y-89175615D01*
X111405125Y-89162074D01*
X111395009Y-89156325D01*
X111367461Y-89140492D01*
X111348437Y-89129030D01*
X111336586Y-89120837D01*
X111330557Y-89114812D01*
X111328999Y-89109855D01*
X111330562Y-89104865D01*
X111330946Y-89104114D01*
X111335864Y-89095175D01*
X111345275Y-89078447D01*
X111358048Y-89055928D01*
X111373050Y-89029617D01*
X111381959Y-89014049D01*
X111426634Y-88936075D01*
X111414420Y-88899370D01*
X111406908Y-88879804D01*
X111400217Y-88867974D01*
X111395736Y-88865341D01*
X111389006Y-88868185D01*
X111373307Y-88874849D01*
X111350057Y-88884729D01*
X111320673Y-88897223D01*
X111286574Y-88911729D01*
X111249177Y-88927643D01*
X111248360Y-88927991D01*
X111210928Y-88943761D01*
X111176729Y-88957863D01*
X111147181Y-88969736D01*
X111123703Y-88978820D01*
X111107711Y-88984555D01*
X111100623Y-88986381D01*
X111100568Y-88986371D01*
X111093089Y-88983071D01*
X111078243Y-88975359D01*
X111057943Y-88964326D01*
X111034101Y-88951061D01*
X111008630Y-88936654D01*
X110983441Y-88922194D01*
X110960447Y-88908772D01*
X110941559Y-88897477D01*
X110928690Y-88889398D01*
X110923752Y-88885627D01*
X110923746Y-88885593D01*
X110928768Y-88882847D01*
X110943167Y-88876355D01*
X110965845Y-88866580D01*
X110995703Y-88853983D01*
X111031642Y-88839025D01*
X111072565Y-88822170D01*
X111117373Y-88803878D01*
X111136678Y-88796044D01*
X111182812Y-88777340D01*
X111225576Y-88759975D01*
X111263862Y-88744401D01*
X111296563Y-88731068D01*
X111322573Y-88720429D01*
X111340784Y-88712935D01*
X111350090Y-88709038D01*
X111351074Y-88708584D01*
X111349670Y-88703161D01*
X111345079Y-88688292D01*
X111337708Y-88665231D01*
X111327963Y-88635233D01*
X111316252Y-88599553D01*
X111302980Y-88559446D01*
X111293202Y-88530073D01*
X111279076Y-88487494D01*
X111266243Y-88448329D01*
X111255111Y-88413860D01*
X111246088Y-88385373D01*
X111239582Y-88364150D01*
X111236001Y-88351476D01*
X111235443Y-88348403D01*
X111240519Y-88349754D01*
X111253826Y-88356043D01*
X111273866Y-88366484D01*
X111299138Y-88380294D01*
X111328144Y-88396687D01*
X111332432Y-88399153D01*
X111427989Y-88454200D01*
X111475092Y-88603778D01*
X111487435Y-88642978D01*
X111498684Y-88678714D01*
X111508388Y-88709552D01*
X111516098Y-88734062D01*
X111521362Y-88750813D01*
X111523730Y-88758371D01*
X111523790Y-88758567D01*
X111526896Y-88755548D01*
X111534605Y-88744057D01*
X111546054Y-88725499D01*
X111560378Y-88701278D01*
X111576713Y-88672799D01*
X111578483Y-88669667D01*
X111595257Y-88640393D01*
X111610396Y-88614832D01*
X111622962Y-88594498D01*
X111632016Y-88580909D01*
X111636620Y-88575580D01*
X111636752Y-88575556D01*
X111643278Y-88578224D01*
X111657652Y-88585552D01*
X111677965Y-88596522D01*
X111702306Y-88610118D01*
X111711220Y-88615193D01*
X111780516Y-88654830D01*
X112830060Y-88654830D01*
X112831796Y-88648313D01*
X112837038Y-88641004D01*
X112847274Y-88637400D01*
X112862014Y-88635298D01*
X112884813Y-88632399D01*
X112907777Y-88629359D01*
X112914678Y-88628413D01*
X112938666Y-88625074D01*
X112938666Y-88655862D01*
X112935569Y-88690752D01*
X112927003Y-88723303D01*
X112914060Y-88749677D01*
X112910680Y-88754338D01*
X112904046Y-88765039D01*
X112903394Y-88771464D01*
X112904143Y-88771952D01*
X112911640Y-88772016D01*
X112928056Y-88770826D01*
X112951115Y-88768584D01*
X112978543Y-88765493D01*
X112984280Y-88764800D01*
X113011840Y-88761562D01*
X113035027Y-88759087D01*
X113051722Y-88757580D01*
X113059809Y-88757250D01*
X113060226Y-88757358D01*
X113061384Y-88763301D01*
X113063673Y-88779194D01*
X113066947Y-88803798D01*
X113071058Y-88835874D01*
X113075858Y-88874183D01*
X113081199Y-88917486D01*
X113086935Y-88964544D01*
X113092917Y-89014118D01*
X113098999Y-89064968D01*
X113105033Y-89115856D01*
X113110870Y-89165543D01*
X113116365Y-89212789D01*
X113121368Y-89256356D01*
X113125734Y-89295004D01*
X113129313Y-89327495D01*
X113131959Y-89352589D01*
X113133525Y-89369048D01*
X113133862Y-89375631D01*
X113684505Y-89375631D01*
X113738557Y-89355106D01*
X113902285Y-89281336D01*
X114061071Y-89197915D01*
X114214516Y-89105066D01*
X114362226Y-89003009D01*
X114435720Y-88945364D01*
X113890657Y-88945364D01*
X113882664Y-89000407D01*
X113864812Y-89052094D01*
X113837456Y-89099687D01*
X113800953Y-89142449D01*
X113755658Y-89179644D01*
X113701926Y-89210534D01*
X113640113Y-89234383D01*
X113624466Y-89238882D01*
X113592961Y-89244513D01*
X113555299Y-89246889D01*
X113515848Y-89246084D01*
X113478973Y-89242169D01*
X113451494Y-89236014D01*
X113396789Y-89213214D01*
X113348475Y-89181265D01*
X113306968Y-89140593D01*
X113272682Y-89091627D01*
X113246032Y-89034794D01*
X113240232Y-89018253D01*
X113232507Y-88993160D01*
X113227667Y-88972220D01*
X113225110Y-88951180D01*
X113224232Y-88925791D01*
X113224268Y-88905756D01*
X113225159Y-88872959D01*
X113227466Y-88847892D01*
X113231662Y-88827032D01*
X113237131Y-88809800D01*
X113261744Y-88758156D01*
X113295546Y-88711838D01*
X113337384Y-88671645D01*
X113386106Y-88638374D01*
X113440558Y-88612826D01*
X113499588Y-88595798D01*
X113556733Y-88588356D01*
X113613484Y-88589385D01*
X113664782Y-88599674D01*
X113712062Y-88619776D01*
X113756756Y-88650242D01*
X113785945Y-88676705D01*
X113810181Y-88702313D01*
X113828327Y-88725558D01*
X113843459Y-88750670D01*
X113851927Y-88767467D01*
X113875645Y-88828157D01*
X113888436Y-88887702D01*
X113890657Y-88945364D01*
X114435720Y-88945364D01*
X114503803Y-88891964D01*
X114638850Y-88772152D01*
X114766972Y-88643795D01*
X114816656Y-88587578D01*
X114616282Y-88587578D01*
X114612569Y-88591968D01*
X114601363Y-88602567D01*
X114583849Y-88618364D01*
X114561212Y-88638347D01*
X114534635Y-88661504D01*
X114505302Y-88686824D01*
X114474400Y-88713294D01*
X114443111Y-88739903D01*
X114412621Y-88765640D01*
X114384113Y-88789492D01*
X114358772Y-88810448D01*
X114337783Y-88827496D01*
X114322330Y-88839624D01*
X114315001Y-88844939D01*
X114277305Y-88864101D01*
X114234708Y-88876111D01*
X114190587Y-88880493D01*
X114148316Y-88876774D01*
X114127627Y-88871290D01*
X114101345Y-88858060D01*
X114074138Y-88837193D01*
X114049125Y-88811592D01*
X114029423Y-88784161D01*
X114024753Y-88775480D01*
X114016952Y-88758097D01*
X114012728Y-88743207D01*
X114011348Y-88726394D01*
X114012075Y-88703242D01*
X114012242Y-88700299D01*
X114014810Y-88655939D01*
X113984608Y-88649180D01*
X113950869Y-88636198D01*
X113920184Y-88614247D01*
X113894619Y-88585602D01*
X113876242Y-88552538D01*
X113867458Y-88520165D01*
X113867909Y-88482674D01*
X113878328Y-88442853D01*
X113898089Y-88402274D01*
X113926565Y-88362509D01*
X113933429Y-88354592D01*
X113942620Y-88345483D01*
X113959121Y-88330321D01*
X113981583Y-88310299D01*
X114008656Y-88286606D01*
X114038992Y-88260434D01*
X114070378Y-88233704D01*
X114102097Y-88206846D01*
X114131489Y-88181923D01*
X114157301Y-88160003D01*
X114178280Y-88142148D01*
X114193173Y-88129425D01*
X114200728Y-88122898D01*
X114200810Y-88122826D01*
X114203479Y-88120657D01*
X114206325Y-88119521D01*
X114209954Y-88120057D01*
X114214969Y-88122906D01*
X114221975Y-88128706D01*
X114231575Y-88138098D01*
X114244375Y-88151720D01*
X114260978Y-88170212D01*
X114281988Y-88194214D01*
X114308010Y-88224365D01*
X114339648Y-88261305D01*
X114377506Y-88305673D01*
X114413692Y-88348136D01*
X114451365Y-88392381D01*
X114486796Y-88434050D01*
X114519316Y-88472353D01*
X114548254Y-88506496D01*
X114572943Y-88535691D01*
X114592712Y-88559144D01*
X114606891Y-88576066D01*
X114614812Y-88585665D01*
X114616282Y-88587578D01*
X114816656Y-88587578D01*
X114887772Y-88507112D01*
X114979312Y-88391336D01*
X115084760Y-88241777D01*
X115180280Y-88086908D01*
X115265786Y-87926948D01*
X115341196Y-87762114D01*
X115403113Y-87601222D01*
X115043867Y-87601222D01*
X115040407Y-87643076D01*
X115035378Y-87661756D01*
X115021696Y-87689618D01*
X115000575Y-87717117D01*
X114974950Y-87741280D01*
X114947757Y-87759129D01*
X114933445Y-87765098D01*
X114900094Y-87771514D01*
X114863763Y-87771599D01*
X114829108Y-87765637D01*
X114806978Y-87757349D01*
X114770445Y-87733156D01*
X114742186Y-87702162D01*
X114722854Y-87665861D01*
X114713105Y-87625745D01*
X114713590Y-87583308D01*
X114719203Y-87556880D01*
X114733401Y-87525551D01*
X114756000Y-87495824D01*
X114784187Y-87470594D01*
X114815150Y-87452758D01*
X114823311Y-87449688D01*
X114864803Y-87441494D01*
X114906494Y-87443588D01*
X114946194Y-87455471D01*
X114981716Y-87476642D01*
X114995878Y-87489188D01*
X115021101Y-87522090D01*
X115037265Y-87560164D01*
X115043867Y-87601222D01*
X115403113Y-87601222D01*
X115406423Y-87592622D01*
X115461383Y-87418690D01*
X115505992Y-87240536D01*
X115540165Y-87058377D01*
X115561391Y-86896334D01*
X115565353Y-86849129D01*
X115568400Y-86793029D01*
X115570533Y-86730354D01*
X115571752Y-86663423D01*
X115572057Y-86594555D01*
X115571449Y-86526072D01*
X115570815Y-86498625D01*
X115376983Y-86498625D01*
X115372549Y-86559303D01*
X115359354Y-86614359D01*
X115337849Y-86663136D01*
X115308486Y-86704978D01*
X115271718Y-86739226D01*
X115227998Y-86765223D01*
X115182622Y-86781139D01*
X115166914Y-86784569D01*
X115156445Y-86785872D01*
X115154300Y-86785515D01*
X115153276Y-86779394D01*
X115151947Y-86764048D01*
X115150458Y-86741532D01*
X115148954Y-86713900D01*
X115148365Y-86701535D01*
X115144631Y-86619756D01*
X115172750Y-86607691D01*
X115199132Y-86590818D01*
X115218301Y-86567161D01*
X115230395Y-86538506D01*
X115235550Y-86506637D01*
X115233905Y-86473338D01*
X115225595Y-86440394D01*
X115210759Y-86409590D01*
X115189535Y-86382711D01*
X115162058Y-86361540D01*
X115153458Y-86356973D01*
X115138430Y-86350431D01*
X115128004Y-86347255D01*
X115125410Y-86347419D01*
X115124841Y-86353673D01*
X115124970Y-86369287D01*
X115125739Y-86392358D01*
X115127087Y-86420983D01*
X115128473Y-86445432D01*
X115130444Y-86479833D01*
X115132134Y-86512832D01*
X115133415Y-86541690D01*
X115134161Y-86563665D01*
X115134301Y-86572402D01*
X115134355Y-86604070D01*
X115068033Y-86607068D01*
X115041985Y-86608111D01*
X115020437Y-86608720D01*
X115005668Y-86608848D01*
X114999969Y-86608465D01*
X114999205Y-86602616D01*
X114998025Y-86587113D01*
X114996529Y-86563578D01*
X114994819Y-86533634D01*
X114992993Y-86498904D01*
X114992088Y-86480666D01*
X114990166Y-86444010D01*
X114988183Y-86411186D01*
X114986258Y-86383856D01*
X114984516Y-86363684D01*
X114983078Y-86352333D01*
X114982534Y-86350509D01*
X114975343Y-86349973D01*
X114961845Y-86354530D01*
X114944969Y-86362781D01*
X114927646Y-86373331D01*
X114915386Y-86382526D01*
X114891904Y-86409661D01*
X114876773Y-86444290D01*
X114870342Y-86482079D01*
X114871777Y-86523905D01*
X114882223Y-86559567D01*
X114901258Y-86588472D01*
X114928462Y-86610028D01*
X114963414Y-86623642D01*
X114972081Y-86625509D01*
X114980397Y-86627344D01*
X114986611Y-86630321D01*
X114991129Y-86635992D01*
X114994358Y-86645909D01*
X114996705Y-86661626D01*
X114998577Y-86684695D01*
X115000379Y-86716670D01*
X115001438Y-86737606D01*
X115004515Y-86799012D01*
X114969693Y-86795072D01*
X114945133Y-86790999D01*
X114920088Y-86784851D01*
X114907437Y-86780708D01*
X114858281Y-86756243D01*
X114816087Y-86723071D01*
X114781277Y-86681684D01*
X114754271Y-86632577D01*
X114752300Y-86626782D01*
X114549918Y-86626782D01*
X114549348Y-86681859D01*
X114547855Y-86732764D01*
X114545421Y-86776975D01*
X114542760Y-86806022D01*
X114520703Y-86954406D01*
X114489637Y-87096409D01*
X114449285Y-87232801D01*
X114399375Y-87364353D01*
X114339632Y-87491832D01*
X114269781Y-87616010D01*
X114234043Y-87672445D01*
X114147853Y-87794160D01*
X114054409Y-87907412D01*
X113953373Y-88012524D01*
X113844404Y-88109817D01*
X113727161Y-88199616D01*
X113601304Y-88282242D01*
X113574506Y-88298267D01*
X113458592Y-88360518D01*
X113335490Y-88415385D01*
X113207023Y-88462286D01*
X113075014Y-88500638D01*
X112941285Y-88529858D01*
X112807659Y-88549364D01*
X112780622Y-88552093D01*
X112747471Y-88554398D01*
X112705805Y-88556097D01*
X112658372Y-88557185D01*
X112607919Y-88557656D01*
X112557195Y-88557506D01*
X112508946Y-88556729D01*
X112465920Y-88555319D01*
X112430864Y-88553271D01*
X112425022Y-88552782D01*
X112279008Y-88534155D01*
X112135906Y-88504815D01*
X111996210Y-88465079D01*
X111860414Y-88415260D01*
X111729013Y-88355674D01*
X111602501Y-88286636D01*
X111481372Y-88208461D01*
X111473473Y-88202498D01*
X111115810Y-88202498D01*
X110992095Y-88494860D01*
X110968871Y-88549751D01*
X110946739Y-88602072D01*
X110926134Y-88650799D01*
X110907487Y-88694909D01*
X110891232Y-88733375D01*
X110877801Y-88765174D01*
X110867629Y-88789282D01*
X110861146Y-88804674D01*
X110859135Y-88809477D01*
X110853090Y-88823085D01*
X110848755Y-88827677D01*
X110843638Y-88824718D01*
X110839919Y-88820766D01*
X110832337Y-88812661D01*
X110818745Y-88798351D01*
X110800972Y-88779756D01*
X110780848Y-88758793D01*
X110777813Y-88755639D01*
X110725676Y-88701479D01*
X110756905Y-88631904D01*
X110768422Y-88605720D01*
X110778023Y-88582890D01*
X110784842Y-88565551D01*
X110788012Y-88555842D01*
X110788133Y-88554917D01*
X110784351Y-88548684D01*
X110773843Y-88535887D01*
X110757868Y-88517943D01*
X110737685Y-88496269D01*
X110716166Y-88473929D01*
X110644200Y-88400353D01*
X110569552Y-88431142D01*
X110494905Y-88461931D01*
X110432279Y-88395977D01*
X110369653Y-88330022D01*
X110387905Y-88322574D01*
X110400405Y-88317640D01*
X110421532Y-88309494D01*
X110450152Y-88298563D01*
X110485131Y-88285273D01*
X110525332Y-88270050D01*
X110569621Y-88253320D01*
X110616864Y-88235510D01*
X110665925Y-88217044D01*
X110715670Y-88198351D01*
X110764964Y-88179855D01*
X110812672Y-88161983D01*
X110857659Y-88145162D01*
X110898790Y-88129817D01*
X110934931Y-88116374D01*
X110964946Y-88105260D01*
X110987701Y-88096900D01*
X111002061Y-88091722D01*
X111006874Y-88090134D01*
X111012189Y-88094053D01*
X111023567Y-88104796D01*
X111039469Y-88120841D01*
X111058357Y-88140663D01*
X111063630Y-88146316D01*
X111115810Y-88202498D01*
X111473473Y-88202498D01*
X111366120Y-88121463D01*
X111257241Y-88025959D01*
X111155228Y-87922261D01*
X111060576Y-87810687D01*
X110973778Y-87691550D01*
X110930425Y-87622618D01*
X110509501Y-87622618D01*
X110500266Y-87660289D01*
X110482665Y-87695832D01*
X110457927Y-87726576D01*
X110436119Y-87744418D01*
X110397999Y-87764372D01*
X110359132Y-87773323D01*
X110318194Y-87771468D01*
X110293306Y-87765615D01*
X110255640Y-87748830D01*
X110224092Y-87723529D01*
X110199900Y-87691375D01*
X110184303Y-87654030D01*
X110178542Y-87613159D01*
X110178533Y-87611520D01*
X110180702Y-87575672D01*
X110188053Y-87546364D01*
X110201857Y-87519549D01*
X110211720Y-87505620D01*
X110240641Y-87476373D01*
X110275000Y-87455781D01*
X110312857Y-87444042D01*
X110352275Y-87441354D01*
X110391315Y-87447917D01*
X110428038Y-87463930D01*
X110451523Y-87481039D01*
X110475718Y-87508291D01*
X110495215Y-87541732D01*
X110507465Y-87576740D01*
X110509142Y-87585493D01*
X110509501Y-87622618D01*
X110930425Y-87622618D01*
X110907211Y-87585709D01*
X110838983Y-87458264D01*
X110780787Y-87326176D01*
X110732723Y-87190163D01*
X110694888Y-87050942D01*
X110667381Y-86909230D01*
X110650298Y-86765743D01*
X110643739Y-86621200D01*
X110647800Y-86476318D01*
X110660552Y-86351645D01*
X110455111Y-86351645D01*
X110455111Y-86870934D01*
X110308355Y-86870934D01*
X110308355Y-86520978D01*
X110201111Y-86520978D01*
X110201111Y-86678689D01*
X110200965Y-86719675D01*
X110200555Y-86756819D01*
X110199917Y-86788673D01*
X110199092Y-86813785D01*
X110198116Y-86830705D01*
X110197030Y-86837981D01*
X110196878Y-86838145D01*
X110189869Y-86838688D01*
X110173972Y-86838862D01*
X110151581Y-86838667D01*
X110126322Y-86838136D01*
X110060000Y-86836383D01*
X110060000Y-86520978D01*
X109969854Y-86520978D01*
X109968360Y-86691722D01*
X109966866Y-86862467D01*
X109828578Y-86865637D01*
X109828578Y-86351645D01*
X110455111Y-86351645D01*
X110660552Y-86351645D01*
X110662581Y-86331813D01*
X110688179Y-86188402D01*
X110706112Y-86113287D01*
X110715988Y-86080455D01*
X110509904Y-86080455D01*
X110509146Y-86083873D01*
X110505793Y-86094378D01*
X110499614Y-86112649D01*
X110490374Y-86139367D01*
X110477840Y-86175211D01*
X110461778Y-86220859D01*
X110457955Y-86231700D01*
X110453805Y-86238230D01*
X110452499Y-86238756D01*
X110446766Y-86236943D01*
X110431357Y-86231730D01*
X110407248Y-86223456D01*
X110375415Y-86212459D01*
X110336832Y-86199076D01*
X110292478Y-86183646D01*
X110243326Y-86166508D01*
X110190353Y-86148000D01*
X110157400Y-86136468D01*
X110102675Y-86117297D01*
X110051246Y-86099263D01*
X110004082Y-86082706D01*
X109962151Y-86067967D01*
X109926422Y-86055387D01*
X109897862Y-86045307D01*
X109877441Y-86038068D01*
X109866127Y-86034010D01*
X109864113Y-86033244D01*
X109865363Y-86027880D01*
X109869678Y-86014223D01*
X109876248Y-85994585D01*
X109884262Y-85971277D01*
X109892912Y-85946610D01*
X109901386Y-85922895D01*
X109908875Y-85902443D01*
X109914569Y-85887565D01*
X109917591Y-85880675D01*
X109922193Y-85880357D01*
X109934185Y-85882921D01*
X109954000Y-85888507D01*
X109982068Y-85897255D01*
X110018821Y-85909304D01*
X110064691Y-85924793D01*
X110120108Y-85943864D01*
X110185506Y-85966655D01*
X110215222Y-85977079D01*
X110270066Y-85996345D01*
X110321618Y-86014449D01*
X110368913Y-86031053D01*
X110410985Y-86045818D01*
X110446870Y-86058405D01*
X110475601Y-86068476D01*
X110496213Y-86075692D01*
X110507742Y-86079714D01*
X110509904Y-86080455D01*
X110715988Y-86080455D01*
X110748351Y-85972877D01*
X110800564Y-85837227D01*
X110862306Y-85706749D01*
X110933134Y-85581854D01*
X110947568Y-85560258D01*
X110687602Y-85560258D01*
X110686943Y-85566525D01*
X110682856Y-85581795D01*
X110675891Y-85604507D01*
X110666597Y-85633098D01*
X110655522Y-85666006D01*
X110643217Y-85701670D01*
X110630231Y-85738526D01*
X110617112Y-85775014D01*
X110604409Y-85809572D01*
X110592672Y-85840636D01*
X110582450Y-85866646D01*
X110574292Y-85886038D01*
X110569742Y-85895515D01*
X110550113Y-85925286D01*
X110525258Y-85953619D01*
X110498375Y-85977215D01*
X110477677Y-85990406D01*
X110441277Y-86004296D01*
X110402634Y-86009386D01*
X110359824Y-86005777D01*
X110327411Y-85998425D01*
X110291036Y-85983609D01*
X110256473Y-85960774D01*
X110228115Y-85932894D01*
X110225336Y-85929347D01*
X110205969Y-85897234D01*
X110194213Y-85861372D01*
X110190057Y-85820825D01*
X110193491Y-85774657D01*
X110204501Y-85721930D01*
X110222066Y-85664629D01*
X110249704Y-85584392D01*
X110184485Y-85561434D01*
X110154977Y-85551042D01*
X110125415Y-85540625D01*
X110099602Y-85531522D01*
X110083989Y-85526011D01*
X110066086Y-85518862D01*
X110053390Y-85512221D01*
X110048711Y-85507637D01*
X110050460Y-85500896D01*
X110055161Y-85486021D01*
X110061991Y-85465393D01*
X110070130Y-85441393D01*
X110078756Y-85416404D01*
X110087047Y-85392806D01*
X110094181Y-85372982D01*
X110099338Y-85359314D01*
X110101625Y-85354227D01*
X110107104Y-85355695D01*
X110122040Y-85360543D01*
X110145257Y-85368355D01*
X110175579Y-85378720D01*
X110211830Y-85391222D01*
X110252834Y-85405450D01*
X110297414Y-85420989D01*
X110344396Y-85437426D01*
X110392603Y-85454348D01*
X110440859Y-85471340D01*
X110487988Y-85487990D01*
X110532814Y-85503884D01*
X110574161Y-85518609D01*
X110610854Y-85531750D01*
X110641715Y-85542896D01*
X110665570Y-85551631D01*
X110681242Y-85557543D01*
X110687555Y-85560218D01*
X110687602Y-85560258D01*
X110947568Y-85560258D01*
X111012604Y-85462955D01*
X111100270Y-85350462D01*
X111195688Y-85244789D01*
X111298415Y-85146348D01*
X111408006Y-85055549D01*
X111442412Y-85031009D01*
X111114302Y-85031009D01*
X111109814Y-85037793D01*
X111099772Y-85050756D01*
X111085785Y-85068000D01*
X111069464Y-85087623D01*
X111052416Y-85107727D01*
X111036252Y-85126411D01*
X111022579Y-85141776D01*
X111013008Y-85151921D01*
X111009271Y-85155022D01*
X111003132Y-85151671D01*
X110990687Y-85142750D01*
X110974266Y-85129959D01*
X110968443Y-85125237D01*
X110949574Y-85109788D01*
X110925139Y-85089780D01*
X110898302Y-85067806D01*
X110872386Y-85046586D01*
X110812705Y-84997719D01*
X110743801Y-85082006D01*
X110722231Y-85108598D01*
X110703169Y-85132487D01*
X110687768Y-85152198D01*
X110677180Y-85166257D01*
X110672555Y-85173187D01*
X110672487Y-85173358D01*
X110675953Y-85178914D01*
X110687071Y-85190324D01*
X110704615Y-85206470D01*
X110727361Y-85226233D01*
X110754083Y-85248496D01*
X110760599Y-85253800D01*
X110788185Y-85276265D01*
X110812942Y-85296623D01*
X110833463Y-85313699D01*
X110848338Y-85326320D01*
X110856160Y-85333312D01*
X110856822Y-85334011D01*
X110856931Y-85339911D01*
X110851158Y-85351301D01*
X110838962Y-85369026D01*
X110819799Y-85393933D01*
X110812629Y-85402910D01*
X110794222Y-85425155D01*
X110777877Y-85443699D01*
X110765047Y-85456983D01*
X110757184Y-85463445D01*
X110755891Y-85463810D01*
X110750343Y-85460114D01*
X110736890Y-85449915D01*
X110716354Y-85433870D01*
X110689558Y-85412633D01*
X110657324Y-85386863D01*
X110620475Y-85357215D01*
X110579833Y-85324347D01*
X110536222Y-85288913D01*
X110511489Y-85268750D01*
X110466831Y-85232198D01*
X110424970Y-85197738D01*
X110386696Y-85166033D01*
X110352800Y-85137747D01*
X110324072Y-85113545D01*
X110301300Y-85094089D01*
X110285275Y-85080045D01*
X110276787Y-85072075D01*
X110275620Y-85070513D01*
X110280331Y-85063105D01*
X110290494Y-85049601D01*
X110304502Y-85031935D01*
X110320743Y-85012040D01*
X110337608Y-84991848D01*
X110353488Y-84973293D01*
X110366774Y-84958307D01*
X110375854Y-84948823D01*
X110378913Y-84946484D01*
X110384848Y-84949809D01*
X110398025Y-84959251D01*
X110417002Y-84973711D01*
X110440339Y-84992088D01*
X110466596Y-85013285D01*
X110468719Y-85015020D01*
X110552880Y-85083863D01*
X110572153Y-85061587D01*
X110582676Y-85049136D01*
X110598416Y-85030149D01*
X110617515Y-85006884D01*
X110638113Y-84981600D01*
X110645539Y-84972437D01*
X110699652Y-84905563D01*
X110683215Y-84892485D01*
X110650545Y-84866210D01*
X110619569Y-84840771D01*
X110591465Y-84817184D01*
X110567411Y-84796466D01*
X110548586Y-84779633D01*
X110536167Y-84767700D01*
X110531335Y-84761684D01*
X110531311Y-84761503D01*
X110534725Y-84754274D01*
X110543897Y-84740874D01*
X110557219Y-84723247D01*
X110573085Y-84703336D01*
X110589888Y-84683084D01*
X110606022Y-84664436D01*
X110619879Y-84649335D01*
X110629853Y-84639724D01*
X110633989Y-84637300D01*
X110639796Y-84641053D01*
X110653204Y-84651156D01*
X110673249Y-84666817D01*
X110698967Y-84687246D01*
X110729392Y-84711653D01*
X110763559Y-84739246D01*
X110800504Y-84769234D01*
X110839262Y-84800827D01*
X110878869Y-84833233D01*
X110918358Y-84865662D01*
X110956766Y-84897324D01*
X110993128Y-84927426D01*
X111026479Y-84955179D01*
X111055854Y-84979791D01*
X111080288Y-85000472D01*
X111098816Y-85016431D01*
X111110475Y-85026876D01*
X111114302Y-85031009D01*
X111442412Y-85031009D01*
X111524017Y-84972806D01*
X111646004Y-84898530D01*
X111773522Y-84833133D01*
X111906127Y-84777028D01*
X112043374Y-84730625D01*
X112184821Y-84694337D01*
X112250350Y-84681304D01*
X112362765Y-84665005D01*
X112481278Y-84655354D01*
X112602862Y-84652351D01*
X112724491Y-84655996D01*
X112843138Y-84666291D01*
X112944311Y-84681142D01*
X113086676Y-84712260D01*
X113225966Y-84754035D01*
X113361580Y-84806107D01*
X113492919Y-84868119D01*
X113619383Y-84939714D01*
X113740374Y-85020533D01*
X113855291Y-85110218D01*
X113963535Y-85208412D01*
X114064506Y-85314757D01*
X114123609Y-85385148D01*
X114212443Y-85505026D01*
X114291242Y-85630049D01*
X114359952Y-85760086D01*
X114418514Y-85895000D01*
X114466874Y-86034659D01*
X114504975Y-86178928D01*
X114532762Y-86327675D01*
X114539573Y-86377045D01*
X114543339Y-86415169D01*
X114546275Y-86461726D01*
X114548362Y-86514194D01*
X114549583Y-86570053D01*
X114549918Y-86626782D01*
X114752300Y-86626782D01*
X114736544Y-86580470D01*
X114731506Y-86551533D01*
X114728721Y-86515697D01*
X114728190Y-86476968D01*
X114729909Y-86439354D01*
X114733880Y-86406863D01*
X114736598Y-86394212D01*
X114755984Y-86341532D01*
X114784820Y-86293740D01*
X114821883Y-86252054D01*
X114865946Y-86217690D01*
X114915786Y-86191865D01*
X114952444Y-86179778D01*
X115016743Y-86168431D01*
X115079885Y-86167621D01*
X115123314Y-86173502D01*
X115174574Y-86187306D01*
X115218587Y-86207272D01*
X115258450Y-86235038D01*
X115284002Y-86258443D01*
X115320509Y-86301126D01*
X115347508Y-86347204D01*
X115365519Y-86398021D01*
X115375062Y-86454922D01*
X115376983Y-86498625D01*
X115570815Y-86498625D01*
X115569928Y-86460291D01*
X115567493Y-86399533D01*
X115564147Y-86346119D01*
X115561327Y-86314956D01*
X115536136Y-86128284D01*
X115500594Y-85946067D01*
X115467699Y-85818626D01*
X115257211Y-85818626D01*
X115251527Y-85821367D01*
X115236642Y-85827893D01*
X115213791Y-85837683D01*
X115184206Y-85850213D01*
X115149121Y-85864960D01*
X115109771Y-85881400D01*
X115080116Y-85893732D01*
X115037348Y-85911550D01*
X114996969Y-85928498D01*
X114960413Y-85943964D01*
X114929113Y-85957338D01*
X114904502Y-85968009D01*
X114888013Y-85975366D01*
X114882520Y-85977982D01*
X114859022Y-85991984D01*
X114837979Y-86008068D01*
X114822576Y-86023646D01*
X114818010Y-86030391D01*
X114816310Y-86044107D01*
X114821374Y-86062555D01*
X114831940Y-86082526D01*
X114844966Y-86098997D01*
X114853492Y-86109852D01*
X114856186Y-86117514D01*
X114855681Y-86118556D01*
X114848829Y-86122260D01*
X114834097Y-86128678D01*
X114814244Y-86136747D01*
X114792027Y-86145402D01*
X114770204Y-86153580D01*
X114751535Y-86160218D01*
X114738776Y-86164253D01*
X114735298Y-86164976D01*
X114727906Y-86161098D01*
X114717684Y-86150924D01*
X114714356Y-86146795D01*
X114689710Y-86106764D01*
X114674297Y-86064370D01*
X114668382Y-86021414D01*
X114672231Y-85979696D01*
X114684500Y-85944210D01*
X114704681Y-85912862D01*
X114733502Y-85881834D01*
X114768494Y-85853446D01*
X114804564Y-85831370D01*
X114821992Y-85822828D01*
X114847523Y-85811026D01*
X114878827Y-85797005D01*
X114913570Y-85781810D01*
X114949421Y-85766482D01*
X114953733Y-85764664D01*
X114986462Y-85750841D01*
X115015498Y-85738491D01*
X115039289Y-85728283D01*
X115056285Y-85720881D01*
X115064935Y-85716954D01*
X115065695Y-85716532D01*
X115064609Y-85710937D01*
X115060356Y-85697417D01*
X115053880Y-85678561D01*
X115046122Y-85656958D01*
X115038025Y-85635199D01*
X115030534Y-85615872D01*
X115024589Y-85601565D01*
X115021659Y-85595600D01*
X115017587Y-85594842D01*
X115007428Y-85596743D01*
X114990531Y-85601521D01*
X114966244Y-85609392D01*
X114933916Y-85620575D01*
X114892896Y-85635288D01*
X114842532Y-85653747D01*
X114796182Y-85670947D01*
X114748800Y-85688566D01*
X114704705Y-85704895D01*
X114665018Y-85719526D01*
X114630861Y-85732047D01*
X114603354Y-85742048D01*
X114583619Y-85749119D01*
X114572777Y-85752849D01*
X114571041Y-85753334D01*
X114567356Y-85748422D01*
X114561216Y-85735412D01*
X114553812Y-85716885D01*
X114552163Y-85712411D01*
X114542301Y-85685518D01*
X114531450Y-85656319D01*
X114523115Y-85634188D01*
X114508930Y-85596888D01*
X114792009Y-85491500D01*
X114846056Y-85471402D01*
X114897138Y-85452450D01*
X114944236Y-85435021D01*
X114986330Y-85419490D01*
X115022399Y-85406231D01*
X115051424Y-85395620D01*
X115072385Y-85388033D01*
X115084263Y-85383844D01*
X115086403Y-85383160D01*
X115089494Y-85383200D01*
X115092891Y-85385535D01*
X115096989Y-85391089D01*
X115102185Y-85400782D01*
X115108876Y-85415537D01*
X115117458Y-85436276D01*
X115128328Y-85463921D01*
X115141882Y-85499394D01*
X115158517Y-85543616D01*
X115178629Y-85597510D01*
X115178831Y-85598050D01*
X115196223Y-85644996D01*
X115212207Y-85688600D01*
X115226386Y-85727742D01*
X115238362Y-85761303D01*
X115247735Y-85788163D01*
X115254109Y-85807201D01*
X115257086Y-85817298D01*
X115257211Y-85818626D01*
X115467699Y-85818626D01*
X115454723Y-85768357D01*
X115398544Y-85595210D01*
X115332079Y-85426679D01*
X115255351Y-85262818D01*
X115178472Y-85122145D01*
X114943647Y-85122145D01*
X114938517Y-85126218D01*
X114925233Y-85136486D01*
X114904629Y-85152314D01*
X114877536Y-85173064D01*
X114844789Y-85198098D01*
X114807218Y-85226782D01*
X114765658Y-85258476D01*
X114720941Y-85292545D01*
X114694730Y-85312501D01*
X114449838Y-85498899D01*
X114440153Y-85486416D01*
X114434754Y-85479372D01*
X114423279Y-85464337D01*
X114406488Y-85442309D01*
X114385138Y-85414283D01*
X114359989Y-85381254D01*
X114331798Y-85344218D01*
X114301324Y-85304172D01*
X114282948Y-85280019D01*
X114135429Y-85086104D01*
X114190249Y-85044363D01*
X114211645Y-85028301D01*
X114229800Y-85015105D01*
X114242841Y-85006104D01*
X114248899Y-85002628D01*
X114248968Y-85002622D01*
X114253229Y-85006947D01*
X114263415Y-85019188D01*
X114278656Y-85038244D01*
X114298084Y-85063013D01*
X114320832Y-85092395D01*
X114346031Y-85125287D01*
X114355773Y-85138089D01*
X114381689Y-85172009D01*
X114405519Y-85202822D01*
X114426387Y-85229425D01*
X114443418Y-85250717D01*
X114455737Y-85265595D01*
X114462467Y-85272957D01*
X114463362Y-85273556D01*
X114469565Y-85270405D01*
X114481909Y-85262212D01*
X114497857Y-85250863D01*
X114514869Y-85238242D01*
X114530406Y-85226238D01*
X114541928Y-85216737D01*
X114546898Y-85211623D01*
X114546936Y-85211467D01*
X114543705Y-85206426D01*
X114534468Y-85193591D01*
X114520092Y-85174128D01*
X114501443Y-85149198D01*
X114479387Y-85119965D01*
X114454791Y-85087593D01*
X114450879Y-85082465D01*
X114422669Y-85045399D01*
X114400715Y-85016236D01*
X114384359Y-84993954D01*
X114372945Y-84977532D01*
X114365815Y-84965948D01*
X114362310Y-84958182D01*
X114361774Y-84953211D01*
X114363549Y-84950015D01*
X114364888Y-84948911D01*
X114373697Y-84942423D01*
X114388978Y-84931002D01*
X114408209Y-84916535D01*
X114420333Y-84907377D01*
X114442295Y-84891326D01*
X114457165Y-84881976D01*
X114466336Y-84878584D01*
X114471133Y-84880315D01*
X114475397Y-84885868D01*
X114485398Y-84898973D01*
X114500041Y-84918194D01*
X114518236Y-84942094D01*
X114538888Y-84969236D01*
X114560906Y-84998183D01*
X114583196Y-85027499D01*
X114604666Y-85055747D01*
X114624224Y-85081490D01*
X114640775Y-85103291D01*
X114653229Y-85119713D01*
X114657912Y-85125902D01*
X114662729Y-85123642D01*
X114674286Y-85115945D01*
X114690404Y-85104290D01*
X114696453Y-85099751D01*
X114733540Y-85071676D01*
X114631924Y-84938233D01*
X114606231Y-84904394D01*
X114582834Y-84873388D01*
X114562592Y-84846370D01*
X114546365Y-84824493D01*
X114535010Y-84808911D01*
X114529389Y-84800777D01*
X114528943Y-84799943D01*
X114532555Y-84794666D01*
X114543265Y-84784566D01*
X114558929Y-84771305D01*
X114577405Y-84756546D01*
X114596550Y-84741948D01*
X114614221Y-84729176D01*
X114628275Y-84719890D01*
X114636568Y-84715752D01*
X114637535Y-84715731D01*
X114642473Y-84720643D01*
X114653165Y-84733411D01*
X114668784Y-84752935D01*
X114688503Y-84778117D01*
X114711493Y-84807858D01*
X114736927Y-84841058D01*
X114763978Y-84876619D01*
X114791817Y-84913442D01*
X114819617Y-84950428D01*
X114846549Y-84986478D01*
X114871788Y-85020493D01*
X114894503Y-85051374D01*
X114913869Y-85078022D01*
X114929057Y-85099339D01*
X114939240Y-85114225D01*
X114943589Y-85121582D01*
X114943647Y-85122145D01*
X115178472Y-85122145D01*
X115168381Y-85103681D01*
X115071192Y-84949321D01*
X114963805Y-84799792D01*
X114919310Y-84742978D01*
X114800806Y-84604115D01*
X114724433Y-84524951D01*
X114436650Y-84524951D01*
X114433322Y-84530766D01*
X114424084Y-84544590D01*
X114409672Y-84565405D01*
X114390824Y-84592194D01*
X114368277Y-84623941D01*
X114342768Y-84659630D01*
X114315034Y-84698242D01*
X114285812Y-84738762D01*
X114255839Y-84780173D01*
X114225853Y-84821457D01*
X114196591Y-84861598D01*
X114168789Y-84899579D01*
X114143186Y-84934383D01*
X114120517Y-84964994D01*
X114101521Y-84990395D01*
X114086934Y-85009568D01*
X114077494Y-85021497D01*
X114073994Y-85025200D01*
X114068208Y-85022041D01*
X114055144Y-85013380D01*
X114036589Y-85000447D01*
X114014330Y-84984469D01*
X114008093Y-84979920D01*
X113985286Y-84962975D01*
X113966009Y-84948160D01*
X113951993Y-84936843D01*
X113944972Y-84930392D01*
X113944508Y-84929688D01*
X113947127Y-84923742D01*
X113955437Y-84910278D01*
X113968406Y-84890846D01*
X113985003Y-84866998D01*
X114002021Y-84843271D01*
X114061226Y-84761806D01*
X114052715Y-84724495D01*
X114046909Y-84703423D01*
X114041362Y-84691566D01*
X114037536Y-84689441D01*
X114022228Y-84694371D01*
X113999410Y-84701399D01*
X113970806Y-84710021D01*
X113938138Y-84719737D01*
X113903131Y-84730045D01*
X113867509Y-84740442D01*
X113832994Y-84750428D01*
X113801310Y-84759500D01*
X113774182Y-84767158D01*
X113753332Y-84772898D01*
X113740484Y-84776220D01*
X113737272Y-84776845D01*
X113730570Y-84773707D01*
X113716644Y-84765162D01*
X113697351Y-84752507D01*
X113674545Y-84737043D01*
X113650084Y-84720069D01*
X113625823Y-84702883D01*
X113603618Y-84686786D01*
X113585326Y-84673076D01*
X113572802Y-84663052D01*
X113568081Y-84658407D01*
X113572794Y-84656083D01*
X113587248Y-84651075D01*
X113608829Y-84644200D01*
X111675227Y-84644200D01*
X111671104Y-84648684D01*
X111659484Y-84657722D01*
X111642376Y-84669981D01*
X111621790Y-84684126D01*
X111599736Y-84698825D01*
X111578223Y-84712744D01*
X111559262Y-84724550D01*
X111544861Y-84732908D01*
X111537031Y-84736486D01*
X111536250Y-84736413D01*
X111532858Y-84731303D01*
X111524306Y-84718061D01*
X111511490Y-84698081D01*
X111495303Y-84672760D01*
X111476642Y-84643494D01*
X111468108Y-84630089D01*
X111448719Y-84599622D01*
X111431491Y-84572554D01*
X111417304Y-84550266D01*
X111407036Y-84534140D01*
X111401568Y-84525557D01*
X111400910Y-84524528D01*
X111396165Y-84527081D01*
X111383347Y-84534862D01*
X111363871Y-84546989D01*
X111339153Y-84562577D01*
X111310611Y-84580744D01*
X111302724Y-84585789D01*
X111270007Y-84606810D01*
X111245713Y-84622713D01*
X111228732Y-84634425D01*
X111217952Y-84642869D01*
X111212260Y-84648971D01*
X111210546Y-84653657D01*
X111211696Y-84657850D01*
X111213163Y-84660306D01*
X111245996Y-84710985D01*
X111272974Y-84753033D01*
X111294533Y-84787191D01*
X111311108Y-84814200D01*
X111323137Y-84834802D01*
X111331054Y-84849738D01*
X111335297Y-84859751D01*
X111336300Y-84865581D01*
X111335115Y-84867702D01*
X111327539Y-84872545D01*
X111312662Y-84882250D01*
X111292587Y-84895440D01*
X111269420Y-84910736D01*
X111267911Y-84911734D01*
X111244951Y-84926662D01*
X111225195Y-84939004D01*
X111210630Y-84947554D01*
X111203248Y-84951103D01*
X111203000Y-84951136D01*
X111198985Y-84946545D01*
X111189507Y-84933284D01*
X111175141Y-84912224D01*
X111156461Y-84884234D01*
X111134041Y-84850183D01*
X111108456Y-84810942D01*
X111080280Y-84767380D01*
X111050086Y-84720367D01*
X111033666Y-84694668D01*
X111002705Y-84645978D01*
X110973656Y-84600014D01*
X110947078Y-84557678D01*
X110923528Y-84519871D01*
X110903565Y-84487495D01*
X110887744Y-84461451D01*
X110876624Y-84442641D01*
X110870763Y-84431967D01*
X110869978Y-84429944D01*
X110874380Y-84425104D01*
X110886219Y-84415568D01*
X110903444Y-84402755D01*
X110924004Y-84388085D01*
X110945846Y-84372979D01*
X110966921Y-84358857D01*
X110985176Y-84347139D01*
X110998561Y-84339244D01*
X111004848Y-84336578D01*
X111008174Y-84341114D01*
X111016571Y-84353756D01*
X111029098Y-84373053D01*
X111044814Y-84397557D01*
X111062780Y-84425816D01*
X111065154Y-84429567D01*
X111083484Y-84458243D01*
X111099893Y-84483345D01*
X111113398Y-84503416D01*
X111123015Y-84516996D01*
X111127760Y-84522628D01*
X111127953Y-84522700D01*
X111133549Y-84519857D01*
X111146817Y-84512004D01*
X111165959Y-84500277D01*
X111189180Y-84485816D01*
X111214684Y-84469758D01*
X111240674Y-84453242D01*
X111265355Y-84437406D01*
X111286931Y-84423387D01*
X111303605Y-84412325D01*
X111313582Y-84405357D01*
X111315243Y-84404019D01*
X111313899Y-84398032D01*
X111307115Y-84384062D01*
X111295688Y-84363532D01*
X111280414Y-84337868D01*
X111262090Y-84308494D01*
X111259876Y-84305025D01*
X111241704Y-84276076D01*
X111226233Y-84250382D01*
X111214301Y-84229422D01*
X111206744Y-84214678D01*
X111204401Y-84207628D01*
X111204590Y-84207295D01*
X111238338Y-84185372D01*
X111269685Y-84165779D01*
X111297331Y-84149264D01*
X111319971Y-84136576D01*
X111336303Y-84128463D01*
X111345024Y-84125673D01*
X111346020Y-84126062D01*
X111349697Y-84131806D01*
X111358887Y-84146158D01*
X111373016Y-84168218D01*
X111391506Y-84197088D01*
X111413783Y-84231869D01*
X111439272Y-84271663D01*
X111467396Y-84315571D01*
X111497579Y-84362694D01*
X111512017Y-84385234D01*
X111542886Y-84433503D01*
X111571868Y-84478968D01*
X111598397Y-84520731D01*
X111621909Y-84557898D01*
X111641839Y-84589572D01*
X111657622Y-84614857D01*
X111668693Y-84632855D01*
X111674488Y-84642672D01*
X111675227Y-84644200D01*
X113608829Y-84644200D01*
X113610308Y-84643729D01*
X113640842Y-84634388D01*
X113677715Y-84623399D01*
X113719793Y-84611106D01*
X113765942Y-84597854D01*
X113783293Y-84592926D01*
X113830963Y-84579387D01*
X113875273Y-84566725D01*
X113915037Y-84555283D01*
X113949071Y-84545406D01*
X113976189Y-84537439D01*
X113995207Y-84531726D01*
X114004939Y-84528611D01*
X114005916Y-84528209D01*
X114005972Y-84522152D01*
X114003821Y-84506383D01*
X113999707Y-84482210D01*
X113993869Y-84450943D01*
X113986551Y-84413889D01*
X113977993Y-84372359D01*
X113971527Y-84341943D01*
X113962145Y-84298047D01*
X113953646Y-84257708D01*
X113946296Y-84222241D01*
X113940364Y-84192961D01*
X113936116Y-84171185D01*
X113933822Y-84158227D01*
X113933513Y-84155124D01*
X113938258Y-84156927D01*
X113950281Y-84164395D01*
X113967913Y-84176309D01*
X113989486Y-84191449D01*
X114013331Y-84208596D01*
X114037778Y-84226533D01*
X114061159Y-84244039D01*
X114081804Y-84259896D01*
X114098045Y-84272885D01*
X114108212Y-84281787D01*
X114110568Y-84284432D01*
X114113300Y-84292408D01*
X114117797Y-84309926D01*
X114123712Y-84335436D01*
X114130697Y-84367391D01*
X114138405Y-84404241D01*
X114146488Y-84444438D01*
X114146645Y-84445234D01*
X114154570Y-84484830D01*
X114161950Y-84520523D01*
X114168472Y-84550896D01*
X114173824Y-84574529D01*
X114177693Y-84590005D01*
X114179767Y-84595905D01*
X114179832Y-84595924D01*
X114184069Y-84591466D01*
X114193735Y-84579267D01*
X114207724Y-84560789D01*
X114224926Y-84537493D01*
X114242601Y-84513116D01*
X114261952Y-84486527D01*
X114279306Y-84463287D01*
X114293505Y-84444897D01*
X114303389Y-84432862D01*
X114307646Y-84428703D01*
X114314474Y-84431086D01*
X114327934Y-84439109D01*
X114345987Y-84451249D01*
X114366591Y-84465985D01*
X114387708Y-84481794D01*
X114407296Y-84497154D01*
X114423317Y-84510544D01*
X114433730Y-84520441D01*
X114436650Y-84524951D01*
X114724433Y-84524951D01*
X114674684Y-84473384D01*
X114541376Y-84351037D01*
X114401316Y-84237326D01*
X114254937Y-84132503D01*
X114197017Y-84096106D01*
X113800743Y-84096106D01*
X113800088Y-84102210D01*
X113796118Y-84116254D01*
X113789741Y-84135751D01*
X113781863Y-84158214D01*
X113773392Y-84181158D01*
X113765234Y-84202094D01*
X113758297Y-84218536D01*
X113753488Y-84227997D01*
X113752149Y-84229334D01*
X113745866Y-84227498D01*
X113730788Y-84222412D01*
X113708720Y-84214705D01*
X113681470Y-84205004D01*
X113657277Y-84196278D01*
X113566135Y-84163223D01*
X113509891Y-84319045D01*
X113494037Y-84362996D01*
X113478060Y-84407340D01*
X113462756Y-84449865D01*
X113448919Y-84488359D01*
X113437347Y-84520609D01*
X113428990Y-84543964D01*
X113419329Y-84569751D01*
X113410430Y-84591173D01*
X113403185Y-84606235D01*
X113398491Y-84612942D01*
X113397997Y-84613108D01*
X113390600Y-84611304D01*
X113374748Y-84606327D01*
X113352586Y-84598882D01*
X113326258Y-84589678D01*
X113318975Y-84587076D01*
X113292401Y-84577490D01*
X113269960Y-84569297D01*
X113253630Y-84563226D01*
X113245389Y-84560008D01*
X113244797Y-84559714D01*
X113246333Y-84554311D01*
X113251333Y-84539396D01*
X113259410Y-84516066D01*
X113270178Y-84485420D01*
X113283248Y-84448557D01*
X113298235Y-84406575D01*
X113314750Y-84360573D01*
X113324616Y-84333204D01*
X113347156Y-84270311D01*
X113365627Y-84217761D01*
X113380083Y-84175389D01*
X113390578Y-84143030D01*
X113397165Y-84120519D01*
X113399899Y-84107691D01*
X113399486Y-84104341D01*
X113392146Y-84101257D01*
X113376175Y-84095160D01*
X113353585Y-84086800D01*
X113326388Y-84076926D01*
X113311200Y-84071480D01*
X113282527Y-84061046D01*
X113257560Y-84051592D01*
X113238275Y-84043894D01*
X113226645Y-84038729D01*
X113224275Y-84037299D01*
X113224373Y-84030756D01*
X113227561Y-84016214D01*
X113233023Y-83996264D01*
X113239941Y-83973497D01*
X113247498Y-83950505D01*
X113254874Y-83929878D01*
X113261253Y-83914208D01*
X113265620Y-83906301D01*
X113271273Y-83907522D01*
X113286304Y-83912166D01*
X113309482Y-83919797D01*
X113339578Y-83929979D01*
X113375359Y-83942274D01*
X113415597Y-83956247D01*
X113459060Y-83971460D01*
X113504518Y-83987479D01*
X113550740Y-84003865D01*
X113596496Y-84020183D01*
X113640555Y-84035996D01*
X113681686Y-84050868D01*
X113718660Y-84064362D01*
X113750245Y-84076041D01*
X113775212Y-84085470D01*
X113792328Y-84092212D01*
X113800365Y-84095830D01*
X113800743Y-84096106D01*
X114197017Y-84096106D01*
X114102671Y-84036820D01*
X113944953Y-83950529D01*
X113782214Y-83873883D01*
X113743204Y-83858321D01*
X113032144Y-83858321D01*
X113031988Y-83864032D01*
X113031155Y-83879989D01*
X113029706Y-83905174D01*
X113027705Y-83938568D01*
X113025213Y-83979153D01*
X113022293Y-84025911D01*
X113019008Y-84077823D01*
X113015418Y-84133870D01*
X113012965Y-84171843D01*
X112992720Y-84484064D01*
X112967104Y-84481067D01*
X112950174Y-84479402D01*
X112925941Y-84477412D01*
X112898373Y-84475413D01*
X112883633Y-84474449D01*
X112857658Y-84472733D01*
X112840921Y-84471069D01*
X112831391Y-84468814D01*
X112827039Y-84465322D01*
X112825834Y-84459947D01*
X112825778Y-84456065D01*
X112826151Y-84445539D01*
X112827184Y-84426034D01*
X112828742Y-84399832D01*
X112830691Y-84369214D01*
X112832032Y-84349098D01*
X112834009Y-84318124D01*
X112835480Y-84291338D01*
X112836361Y-84270657D01*
X112836565Y-84257995D01*
X112836266Y-84254934D01*
X112830240Y-84253908D01*
X112814875Y-84252329D01*
X112792100Y-84250367D01*
X112763839Y-84248190D01*
X112742788Y-84246697D01*
X112692487Y-84242407D01*
X112651488Y-84236853D01*
X112617831Y-84229557D01*
X112589558Y-84220040D01*
X112564708Y-84207825D01*
X112557964Y-84203644D01*
X112328284Y-84203644D01*
X112327951Y-84262579D01*
X112317457Y-84318419D01*
X112297322Y-84370316D01*
X112268067Y-84417424D01*
X112230211Y-84458894D01*
X112184275Y-84493879D01*
X112130780Y-84521532D01*
X112073808Y-84540145D01*
X112035380Y-84546930D01*
X111992589Y-84550171D01*
X111950263Y-84549730D01*
X111913229Y-84545467D01*
X111910244Y-84544875D01*
X111858006Y-84528596D01*
X111810767Y-84503148D01*
X111769077Y-84469740D01*
X111733483Y-84429578D01*
X111704535Y-84383868D01*
X111682782Y-84333817D01*
X111668771Y-84280631D01*
X111663052Y-84225519D01*
X111666174Y-84169685D01*
X111678685Y-84114338D01*
X111695328Y-84072254D01*
X111711878Y-84045216D01*
X111735823Y-84015909D01*
X111764424Y-83987034D01*
X111794939Y-83961289D01*
X111824629Y-83941376D01*
X111832355Y-83937245D01*
X111880997Y-83917477D01*
X111933919Y-83903885D01*
X111988206Y-83896790D01*
X112040942Y-83896513D01*
X112089209Y-83903373D01*
X112104105Y-83907395D01*
X112157653Y-83929660D01*
X112205284Y-83961176D01*
X112246315Y-84001190D01*
X112280061Y-84048950D01*
X112305837Y-84103703D01*
X112317936Y-84142463D01*
X112328284Y-84203644D01*
X112557964Y-84203644D01*
X112552556Y-84200292D01*
X112518033Y-84171182D01*
X112492912Y-84135843D01*
X112477221Y-84094337D01*
X112470990Y-84046728D01*
X112471285Y-84023216D01*
X112478529Y-83975554D01*
X112494909Y-83934522D01*
X112520422Y-83900126D01*
X112555063Y-83872369D01*
X112580198Y-83858917D01*
X112597595Y-83851756D01*
X112615801Y-83846200D01*
X112636165Y-83842188D01*
X112660030Y-83839656D01*
X112688745Y-83838543D01*
X112723654Y-83838787D01*
X112766104Y-83840326D01*
X112817441Y-83843097D01*
X112862106Y-83845915D01*
X112904499Y-83848741D01*
X112943068Y-83851387D01*
X112976424Y-83853753D01*
X113003178Y-83855737D01*
X113021943Y-83857238D01*
X113031329Y-83858154D01*
X113032144Y-83858321D01*
X113743204Y-83858321D01*
X113614889Y-83807134D01*
X113443410Y-83750534D01*
X113268210Y-83704335D01*
X113089723Y-83668789D01*
X113068298Y-83665282D01*
X112888339Y-83642193D01*
X112707051Y-83630168D01*
X112525164Y-83629171D01*
X112343407Y-83639167D01*
X112343407Y-83639167D01*
G37*
X112343407Y-83639167D02*
X112162512Y-83660120D01*
X111983208Y-83691996D01*
X111843644Y-83724752D01*
X111683058Y-83771900D01*
X111523035Y-83829335D01*
X111365060Y-83896318D01*
X111210617Y-83972112D01*
X111061192Y-84055980D01*
X110918268Y-84147185D01*
X110783331Y-84244990D01*
X110761457Y-84262090D01*
X110626456Y-84375406D01*
X110497614Y-84496846D01*
X110376046Y-84625221D01*
X110262864Y-84759340D01*
X110159182Y-84898012D01*
X110138301Y-84928215D01*
X110040346Y-85081790D01*
X109952576Y-85239818D01*
X109875023Y-85401822D01*
X109807718Y-85567324D01*
X109750694Y-85735846D01*
X109703982Y-85906910D01*
X109667615Y-86080039D01*
X109641626Y-86254754D01*
X109626045Y-86430577D01*
X109620905Y-86607032D01*
X109626238Y-86783640D01*
X109642077Y-86959923D01*
X109668453Y-87135404D01*
X109705398Y-87309604D01*
X109752945Y-87482046D01*
X109811125Y-87652252D01*
X109879971Y-87819744D01*
X109936218Y-87938500D01*
X110022412Y-88098129D01*
X110117899Y-88251652D01*
X110222266Y-88398704D01*
X110335100Y-88538918D01*
X110455990Y-88671927D01*
X110584522Y-88797365D01*
X110720284Y-88914867D01*
X110862864Y-89024065D01*
X111011848Y-89124593D01*
X111166825Y-89216084D01*
X111327382Y-89298174D01*
X111493107Y-89370494D01*
X111590179Y-89407369D01*
X111761392Y-89463136D01*
X111935553Y-89508269D01*
X112113213Y-89542887D01*
X112294922Y-89567110D01*
X112344074Y-89571825D01*
X112386624Y-89574767D01*
X112437925Y-89576999D01*
X112495604Y-89578522D01*
X112557287Y-89579339D01*
X112620601Y-89579450D01*
X112683171Y-89578857D01*
X112742625Y-89577562D01*
X112796588Y-89575566D01*
X112842688Y-89572871D01*
X112859644Y-89571485D01*
X113042141Y-89549275D01*
X113221677Y-89516311D01*
X113397856Y-89472814D01*
X113570281Y-89419006D01*
X113684505Y-89375631D01*
X113133862Y-89375631D01*
X113133835Y-89375691D01*
X113127582Y-89377275D01*
X113112145Y-89379859D01*
X113089549Y-89383138D01*
X113061824Y-89386809D01*
X113047618Y-89388582D01*
X112964066Y-89398808D01*
X112950686Y-89381947D01*
X112924321Y-89348841D01*
X112896090Y-89313605D01*
X112866839Y-89277271D01*
X112837411Y-89240874D01*
X112808650Y-89205448D01*
X112781400Y-89172027D01*
X112756506Y-89141644D01*
X112734812Y-89115334D01*
X112717161Y-89094129D01*
X112704398Y-89079066D01*
X112697366Y-89071176D01*
X112696247Y-89070293D01*
X112696997Y-89076892D01*
X112698980Y-89093288D01*
X112702024Y-89118080D01*
X112705956Y-89149863D01*
X112710601Y-89187235D01*
X112715788Y-89228793D01*
X112718096Y-89247245D01*
X112723335Y-89290081D01*
X112727890Y-89329279D01*
X112731616Y-89363445D01*
X112734372Y-89391189D01*
X112736015Y-89411118D01*
X112736402Y-89421840D01*
X112736149Y-89423271D01*
X112729670Y-89425267D01*
X112714516Y-89428159D01*
X112693232Y-89431589D01*
X112668362Y-89435199D01*
X112642449Y-89438629D01*
X112618039Y-89441521D01*
X112597676Y-89443516D01*
X112587928Y-89444158D01*
X112577214Y-89442791D01*
X112571887Y-89435296D01*
X112569903Y-89426456D01*
X112567777Y-89412276D01*
X112564673Y-89389183D01*
X112560736Y-89358431D01*
X112556113Y-89321274D01*
X112550950Y-89278967D01*
X112545393Y-89232765D01*
X112539588Y-89183920D01*
X112533680Y-89133687D01*
X112527816Y-89083321D01*
X112523998Y-89050178D01*
X112378975Y-89050178D01*
X112378400Y-89071286D01*
X112373371Y-89125854D01*
X112362720Y-89173340D01*
X112345484Y-89216945D01*
X112322522Y-89257093D01*
X112286161Y-89303296D01*
X112243641Y-89340267D01*
X112195636Y-89367757D01*
X112142818Y-89385522D01*
X112085863Y-89393315D01*
X112025443Y-89390888D01*
X111979746Y-89382572D01*
X111922421Y-89364033D01*
X111871306Y-89337768D01*
X111827333Y-89304569D01*
X111791435Y-89265230D01*
X111764545Y-89220543D01*
X111752485Y-89189474D01*
X111746152Y-89160082D01*
X111742657Y-89124328D01*
X111742220Y-89086834D01*
X111745062Y-89052219D01*
X111745734Y-89047868D01*
X111746798Y-89039782D01*
X111747971Y-89034001D01*
X111750793Y-89030572D01*
X111756806Y-89029541D01*
X111767551Y-89030954D01*
X111784569Y-89034857D01*
X111809403Y-89041296D01*
X111843592Y-89050318D01*
X111845665Y-89050861D01*
X111912597Y-89068394D01*
X111909068Y-89094999D01*
X111908691Y-89134872D01*
X111918118Y-89170095D01*
X111936507Y-89199776D01*
X111963017Y-89223023D01*
X111996806Y-89238946D01*
X112037033Y-89246653D01*
X112052762Y-89247245D01*
X112090945Y-89242703D01*
X112123988Y-89228795D01*
X112152488Y-89205092D01*
X112177036Y-89171167D01*
X112188259Y-89149722D01*
X112203823Y-89107433D01*
X112211951Y-89063689D01*
X112212534Y-89021094D01*
X112205463Y-88982253D01*
X112196259Y-88959378D01*
X112180483Y-88937841D01*
X112157159Y-88916908D01*
X112129770Y-88899579D01*
X112123044Y-88896320D01*
X112095788Y-88887613D01*
X112064803Y-88883446D01*
X112034076Y-88883910D01*
X112007593Y-88889098D01*
X111997344Y-88893407D01*
X111983885Y-88903532D01*
X111968488Y-88919116D01*
X111954504Y-88936331D01*
X111945280Y-88951349D01*
X111944155Y-88954179D01*
X111938614Y-88954257D01*
X111924498Y-88952036D01*
X111904158Y-88948053D01*
X111879944Y-88942848D01*
X111854206Y-88936963D01*
X111829296Y-88930935D01*
X111807563Y-88925305D01*
X111791358Y-88920614D01*
X111783033Y-88917399D01*
X111782619Y-88917087D01*
X111784046Y-88911603D01*
X111789435Y-88898673D01*
X111797675Y-88880938D01*
X111798966Y-88878276D01*
X111826864Y-88833124D01*
X111862149Y-88796164D01*
X111904067Y-88767767D01*
X111951862Y-88748307D01*
X112004780Y-88738155D01*
X112062065Y-88737686D01*
X112080162Y-88739510D01*
X112144742Y-88752411D01*
X112202801Y-88773951D01*
X112253869Y-88803846D01*
X112297476Y-88841814D01*
X112333151Y-88887572D01*
X112337416Y-88894467D01*
X112357131Y-88931646D01*
X112370103Y-88967722D01*
X112377121Y-89006099D01*
X112378975Y-89050178D01*
X112523998Y-89050178D01*
X112522142Y-89034075D01*
X112516803Y-88987204D01*
X112511946Y-88943963D01*
X112507717Y-88905604D01*
X112504261Y-88873383D01*
X112501726Y-88848554D01*
X112500256Y-88832371D01*
X112499997Y-88826088D01*
X112500015Y-88826059D01*
X112506423Y-88824363D01*
X112521951Y-88821776D01*
X112544491Y-88818608D01*
X112571937Y-88815169D01*
X112582030Y-88813991D01*
X112661028Y-88804940D01*
X112636919Y-88781509D01*
X112619983Y-88760833D01*
X112605053Y-88735109D01*
X112594044Y-88708355D01*
X112588875Y-88684586D01*
X112588711Y-88680496D01*
X112589576Y-88673612D01*
X112593764Y-88669272D01*
X112603663Y-88666485D01*
X112621663Y-88664258D01*
X112629633Y-88663491D01*
X112651228Y-88661209D01*
X112669248Y-88658841D01*
X112679948Y-88656881D01*
X112680226Y-88656802D01*
X112688792Y-88658364D01*
X112696378Y-88669596D01*
X112697696Y-88672608D01*
X112708270Y-88691777D01*
X112721989Y-88702663D01*
X112741837Y-88707062D01*
X112755401Y-88707385D01*
X112786982Y-88703393D01*
X112809813Y-88692381D01*
X112824074Y-88674239D01*
X112828148Y-88662013D01*
X112830060Y-88654830D01*
X111780516Y-88654830D01*
X111633772Y-88912937D01*
X111599725Y-88972813D01*
X111570818Y-89023616D01*
X111546616Y-89066091D01*
X111526686Y-89100982D01*
X111510591Y-89129031D01*
X111497899Y-89150983D01*
X111488173Y-89167583D01*
X111480979Y-89179573D01*
X111475883Y-89187699D01*
X111472450Y-89192703D01*
X111470246Y-89195329D01*
X111468835Y-89196323D01*
X111468129Y-89196445D01*
X111462515Y-89193798D01*
X111448932Y-89186522D01*
X111429196Y-89175615D01*
X111405125Y-89162074D01*
X111395009Y-89156325D01*
X111367461Y-89140492D01*
X111348437Y-89129030D01*
X111336586Y-89120837D01*
X111330557Y-89114812D01*
X111328999Y-89109855D01*
X111330562Y-89104865D01*
X111330946Y-89104114D01*
X111335864Y-89095175D01*
X111345275Y-89078447D01*
X111358048Y-89055928D01*
X111373050Y-89029617D01*
X111381959Y-89014049D01*
X111426634Y-88936075D01*
X111414420Y-88899370D01*
X111406908Y-88879804D01*
X111400217Y-88867974D01*
X111395736Y-88865341D01*
X111389006Y-88868185D01*
X111373307Y-88874849D01*
X111350057Y-88884729D01*
X111320673Y-88897223D01*
X111286574Y-88911729D01*
X111249177Y-88927643D01*
X111248360Y-88927991D01*
X111210928Y-88943761D01*
X111176729Y-88957863D01*
X111147181Y-88969736D01*
X111123703Y-88978820D01*
X111107711Y-88984555D01*
X111100623Y-88986381D01*
X111100568Y-88986371D01*
X111093089Y-88983071D01*
X111078243Y-88975359D01*
X111057943Y-88964326D01*
X111034101Y-88951061D01*
X111008630Y-88936654D01*
X110983441Y-88922194D01*
X110960447Y-88908772D01*
X110941559Y-88897477D01*
X110928690Y-88889398D01*
X110923752Y-88885627D01*
X110923746Y-88885593D01*
X110928768Y-88882847D01*
X110943167Y-88876355D01*
X110965845Y-88866580D01*
X110995703Y-88853983D01*
X111031642Y-88839025D01*
X111072565Y-88822170D01*
X111117373Y-88803878D01*
X111136678Y-88796044D01*
X111182812Y-88777340D01*
X111225576Y-88759975D01*
X111263862Y-88744401D01*
X111296563Y-88731068D01*
X111322573Y-88720429D01*
X111340784Y-88712935D01*
X111350090Y-88709038D01*
X111351074Y-88708584D01*
X111349670Y-88703161D01*
X111345079Y-88688292D01*
X111337708Y-88665231D01*
X111327963Y-88635233D01*
X111316252Y-88599553D01*
X111302980Y-88559446D01*
X111293202Y-88530073D01*
X111279076Y-88487494D01*
X111266243Y-88448329D01*
X111255111Y-88413860D01*
X111246088Y-88385373D01*
X111239582Y-88364150D01*
X111236001Y-88351476D01*
X111235443Y-88348403D01*
X111240519Y-88349754D01*
X111253826Y-88356043D01*
X111273866Y-88366484D01*
X111299138Y-88380294D01*
X111328144Y-88396687D01*
X111332432Y-88399153D01*
X111427989Y-88454200D01*
X111475092Y-88603778D01*
X111487435Y-88642978D01*
X111498684Y-88678714D01*
X111508388Y-88709552D01*
X111516098Y-88734062D01*
X111521362Y-88750813D01*
X111523730Y-88758371D01*
X111523790Y-88758567D01*
X111526896Y-88755548D01*
X111534605Y-88744057D01*
X111546054Y-88725499D01*
X111560378Y-88701278D01*
X111576713Y-88672799D01*
X111578483Y-88669667D01*
X111595257Y-88640393D01*
X111610396Y-88614832D01*
X111622962Y-88594498D01*
X111632016Y-88580909D01*
X111636620Y-88575580D01*
X111636752Y-88575556D01*
X111643278Y-88578224D01*
X111657652Y-88585552D01*
X111677965Y-88596522D01*
X111702306Y-88610118D01*
X111711220Y-88615193D01*
X111780516Y-88654830D01*
X112830060Y-88654830D01*
X112831796Y-88648313D01*
X112837038Y-88641004D01*
X112847274Y-88637400D01*
X112862014Y-88635298D01*
X112884813Y-88632399D01*
X112907777Y-88629359D01*
X112914678Y-88628413D01*
X112938666Y-88625074D01*
X112938666Y-88655862D01*
X112935569Y-88690752D01*
X112927003Y-88723303D01*
X112914060Y-88749677D01*
X112910680Y-88754338D01*
X112904046Y-88765039D01*
X112903394Y-88771464D01*
X112904143Y-88771952D01*
X112911640Y-88772016D01*
X112928056Y-88770826D01*
X112951115Y-88768584D01*
X112978543Y-88765493D01*
X112984280Y-88764800D01*
X113011840Y-88761562D01*
X113035027Y-88759087D01*
X113051722Y-88757580D01*
X113059809Y-88757250D01*
X113060226Y-88757358D01*
X113061384Y-88763301D01*
X113063673Y-88779194D01*
X113066947Y-88803798D01*
X113071058Y-88835874D01*
X113075858Y-88874183D01*
X113081199Y-88917486D01*
X113086935Y-88964544D01*
X113092917Y-89014118D01*
X113098999Y-89064968D01*
X113105033Y-89115856D01*
X113110870Y-89165543D01*
X113116365Y-89212789D01*
X113121368Y-89256356D01*
X113125734Y-89295004D01*
X113129313Y-89327495D01*
X113131959Y-89352589D01*
X113133525Y-89369048D01*
X113133862Y-89375631D01*
X113684505Y-89375631D01*
X113738557Y-89355106D01*
X113902285Y-89281336D01*
X114061071Y-89197915D01*
X114214516Y-89105066D01*
X114362226Y-89003009D01*
X114435720Y-88945364D01*
X113890657Y-88945364D01*
X113882664Y-89000407D01*
X113864812Y-89052094D01*
X113837456Y-89099687D01*
X113800953Y-89142449D01*
X113755658Y-89179644D01*
X113701926Y-89210534D01*
X113640113Y-89234383D01*
X113624466Y-89238882D01*
X113592961Y-89244513D01*
X113555299Y-89246889D01*
X113515848Y-89246084D01*
X113478973Y-89242169D01*
X113451494Y-89236014D01*
X113396789Y-89213214D01*
X113348475Y-89181265D01*
X113306968Y-89140593D01*
X113272682Y-89091627D01*
X113246032Y-89034794D01*
X113240232Y-89018253D01*
X113232507Y-88993160D01*
X113227667Y-88972220D01*
X113225110Y-88951180D01*
X113224232Y-88925791D01*
X113224268Y-88905756D01*
X113225159Y-88872959D01*
X113227466Y-88847892D01*
X113231662Y-88827032D01*
X113237131Y-88809800D01*
X113261744Y-88758156D01*
X113295546Y-88711838D01*
X113337384Y-88671645D01*
X113386106Y-88638374D01*
X113440558Y-88612826D01*
X113499588Y-88595798D01*
X113556733Y-88588356D01*
X113613484Y-88589385D01*
X113664782Y-88599674D01*
X113712062Y-88619776D01*
X113756756Y-88650242D01*
X113785945Y-88676705D01*
X113810181Y-88702313D01*
X113828327Y-88725558D01*
X113843459Y-88750670D01*
X113851927Y-88767467D01*
X113875645Y-88828157D01*
X113888436Y-88887702D01*
X113890657Y-88945364D01*
X114435720Y-88945364D01*
X114503803Y-88891964D01*
X114638850Y-88772152D01*
X114766972Y-88643795D01*
X114816656Y-88587578D01*
X114616282Y-88587578D01*
X114612569Y-88591968D01*
X114601363Y-88602567D01*
X114583849Y-88618364D01*
X114561212Y-88638347D01*
X114534635Y-88661504D01*
X114505302Y-88686824D01*
X114474400Y-88713294D01*
X114443111Y-88739903D01*
X114412621Y-88765640D01*
X114384113Y-88789492D01*
X114358772Y-88810448D01*
X114337783Y-88827496D01*
X114322330Y-88839624D01*
X114315001Y-88844939D01*
X114277305Y-88864101D01*
X114234708Y-88876111D01*
X114190587Y-88880493D01*
X114148316Y-88876774D01*
X114127627Y-88871290D01*
X114101345Y-88858060D01*
X114074138Y-88837193D01*
X114049125Y-88811592D01*
X114029423Y-88784161D01*
X114024753Y-88775480D01*
X114016952Y-88758097D01*
X114012728Y-88743207D01*
X114011348Y-88726394D01*
X114012075Y-88703242D01*
X114012242Y-88700299D01*
X114014810Y-88655939D01*
X113984608Y-88649180D01*
X113950869Y-88636198D01*
X113920184Y-88614247D01*
X113894619Y-88585602D01*
X113876242Y-88552538D01*
X113867458Y-88520165D01*
X113867909Y-88482674D01*
X113878328Y-88442853D01*
X113898089Y-88402274D01*
X113926565Y-88362509D01*
X113933429Y-88354592D01*
X113942620Y-88345483D01*
X113959121Y-88330321D01*
X113981583Y-88310299D01*
X114008656Y-88286606D01*
X114038992Y-88260434D01*
X114070378Y-88233704D01*
X114102097Y-88206846D01*
X114131489Y-88181923D01*
X114157301Y-88160003D01*
X114178280Y-88142148D01*
X114193173Y-88129425D01*
X114200728Y-88122898D01*
X114200810Y-88122826D01*
X114203479Y-88120657D01*
X114206325Y-88119521D01*
X114209954Y-88120057D01*
X114214969Y-88122906D01*
X114221975Y-88128706D01*
X114231575Y-88138098D01*
X114244375Y-88151720D01*
X114260978Y-88170212D01*
X114281988Y-88194214D01*
X114308010Y-88224365D01*
X114339648Y-88261305D01*
X114377506Y-88305673D01*
X114413692Y-88348136D01*
X114451365Y-88392381D01*
X114486796Y-88434050D01*
X114519316Y-88472353D01*
X114548254Y-88506496D01*
X114572943Y-88535691D01*
X114592712Y-88559144D01*
X114606891Y-88576066D01*
X114614812Y-88585665D01*
X114616282Y-88587578D01*
X114816656Y-88587578D01*
X114887772Y-88507112D01*
X114979312Y-88391336D01*
X115084760Y-88241777D01*
X115180280Y-88086908D01*
X115265786Y-87926948D01*
X115341196Y-87762114D01*
X115403113Y-87601222D01*
X115043867Y-87601222D01*
X115040407Y-87643076D01*
X115035378Y-87661756D01*
X115021696Y-87689618D01*
X115000575Y-87717117D01*
X114974950Y-87741280D01*
X114947757Y-87759129D01*
X114933445Y-87765098D01*
X114900094Y-87771514D01*
X114863763Y-87771599D01*
X114829108Y-87765637D01*
X114806978Y-87757349D01*
X114770445Y-87733156D01*
X114742186Y-87702162D01*
X114722854Y-87665861D01*
X114713105Y-87625745D01*
X114713590Y-87583308D01*
X114719203Y-87556880D01*
X114733401Y-87525551D01*
X114756000Y-87495824D01*
X114784187Y-87470594D01*
X114815150Y-87452758D01*
X114823311Y-87449688D01*
X114864803Y-87441494D01*
X114906494Y-87443588D01*
X114946194Y-87455471D01*
X114981716Y-87476642D01*
X114995878Y-87489188D01*
X115021101Y-87522090D01*
X115037265Y-87560164D01*
X115043867Y-87601222D01*
X115403113Y-87601222D01*
X115406423Y-87592622D01*
X115461383Y-87418690D01*
X115505992Y-87240536D01*
X115540165Y-87058377D01*
X115561391Y-86896334D01*
X115565353Y-86849129D01*
X115568400Y-86793029D01*
X115570533Y-86730354D01*
X115571752Y-86663423D01*
X115572057Y-86594555D01*
X115571449Y-86526072D01*
X115570815Y-86498625D01*
X115376983Y-86498625D01*
X115372549Y-86559303D01*
X115359354Y-86614359D01*
X115337849Y-86663136D01*
X115308486Y-86704978D01*
X115271718Y-86739226D01*
X115227998Y-86765223D01*
X115182622Y-86781139D01*
X115166914Y-86784569D01*
X115156445Y-86785872D01*
X115154300Y-86785515D01*
X115153276Y-86779394D01*
X115151947Y-86764048D01*
X115150458Y-86741532D01*
X115148954Y-86713900D01*
X115148365Y-86701535D01*
X115144631Y-86619756D01*
X115172750Y-86607691D01*
X115199132Y-86590818D01*
X115218301Y-86567161D01*
X115230395Y-86538506D01*
X115235550Y-86506637D01*
X115233905Y-86473338D01*
X115225595Y-86440394D01*
X115210759Y-86409590D01*
X115189535Y-86382711D01*
X115162058Y-86361540D01*
X115153458Y-86356973D01*
X115138430Y-86350431D01*
X115128004Y-86347255D01*
X115125410Y-86347419D01*
X115124841Y-86353673D01*
X115124970Y-86369287D01*
X115125739Y-86392358D01*
X115127087Y-86420983D01*
X115128473Y-86445432D01*
X115130444Y-86479833D01*
X115132134Y-86512832D01*
X115133415Y-86541690D01*
X115134161Y-86563665D01*
X115134301Y-86572402D01*
X115134355Y-86604070D01*
X115068033Y-86607068D01*
X115041985Y-86608111D01*
X115020437Y-86608720D01*
X115005668Y-86608848D01*
X114999969Y-86608465D01*
X114999205Y-86602616D01*
X114998025Y-86587113D01*
X114996529Y-86563578D01*
X114994819Y-86533634D01*
X114992993Y-86498904D01*
X114992088Y-86480666D01*
X114990166Y-86444010D01*
X114988183Y-86411186D01*
X114986258Y-86383856D01*
X114984516Y-86363684D01*
X114983078Y-86352333D01*
X114982534Y-86350509D01*
X114975343Y-86349973D01*
X114961845Y-86354530D01*
X114944969Y-86362781D01*
X114927646Y-86373331D01*
X114915386Y-86382526D01*
X114891904Y-86409661D01*
X114876773Y-86444290D01*
X114870342Y-86482079D01*
X114871777Y-86523905D01*
X114882223Y-86559567D01*
X114901258Y-86588472D01*
X114928462Y-86610028D01*
X114963414Y-86623642D01*
X114972081Y-86625509D01*
X114980397Y-86627344D01*
X114986611Y-86630321D01*
X114991129Y-86635992D01*
X114994358Y-86645909D01*
X114996705Y-86661626D01*
X114998577Y-86684695D01*
X115000379Y-86716670D01*
X115001438Y-86737606D01*
X115004515Y-86799012D01*
X114969693Y-86795072D01*
X114945133Y-86790999D01*
X114920088Y-86784851D01*
X114907437Y-86780708D01*
X114858281Y-86756243D01*
X114816087Y-86723071D01*
X114781277Y-86681684D01*
X114754271Y-86632577D01*
X114752300Y-86626782D01*
X114549918Y-86626782D01*
X114549348Y-86681859D01*
X114547855Y-86732764D01*
X114545421Y-86776975D01*
X114542760Y-86806022D01*
X114520703Y-86954406D01*
X114489637Y-87096409D01*
X114449285Y-87232801D01*
X114399375Y-87364353D01*
X114339632Y-87491832D01*
X114269781Y-87616010D01*
X114234043Y-87672445D01*
X114147853Y-87794160D01*
X114054409Y-87907412D01*
X113953373Y-88012524D01*
X113844404Y-88109817D01*
X113727161Y-88199616D01*
X113601304Y-88282242D01*
X113574506Y-88298267D01*
X113458592Y-88360518D01*
X113335490Y-88415385D01*
X113207023Y-88462286D01*
X113075014Y-88500638D01*
X112941285Y-88529858D01*
X112807659Y-88549364D01*
X112780622Y-88552093D01*
X112747471Y-88554398D01*
X112705805Y-88556097D01*
X112658372Y-88557185D01*
X112607919Y-88557656D01*
X112557195Y-88557506D01*
X112508946Y-88556729D01*
X112465920Y-88555319D01*
X112430864Y-88553271D01*
X112425022Y-88552782D01*
X112279008Y-88534155D01*
X112135906Y-88504815D01*
X111996210Y-88465079D01*
X111860414Y-88415260D01*
X111729013Y-88355674D01*
X111602501Y-88286636D01*
X111481372Y-88208461D01*
X111473473Y-88202498D01*
X111115810Y-88202498D01*
X110992095Y-88494860D01*
X110968871Y-88549751D01*
X110946739Y-88602072D01*
X110926134Y-88650799D01*
X110907487Y-88694909D01*
X110891232Y-88733375D01*
X110877801Y-88765174D01*
X110867629Y-88789282D01*
X110861146Y-88804674D01*
X110859135Y-88809477D01*
X110853090Y-88823085D01*
X110848755Y-88827677D01*
X110843638Y-88824718D01*
X110839919Y-88820766D01*
X110832337Y-88812661D01*
X110818745Y-88798351D01*
X110800972Y-88779756D01*
X110780848Y-88758793D01*
X110777813Y-88755639D01*
X110725676Y-88701479D01*
X110756905Y-88631904D01*
X110768422Y-88605720D01*
X110778023Y-88582890D01*
X110784842Y-88565551D01*
X110788012Y-88555842D01*
X110788133Y-88554917D01*
X110784351Y-88548684D01*
X110773843Y-88535887D01*
X110757868Y-88517943D01*
X110737685Y-88496269D01*
X110716166Y-88473929D01*
X110644200Y-88400353D01*
X110569552Y-88431142D01*
X110494905Y-88461931D01*
X110432279Y-88395977D01*
X110369653Y-88330022D01*
X110387905Y-88322574D01*
X110400405Y-88317640D01*
X110421532Y-88309494D01*
X110450152Y-88298563D01*
X110485131Y-88285273D01*
X110525332Y-88270050D01*
X110569621Y-88253320D01*
X110616864Y-88235510D01*
X110665925Y-88217044D01*
X110715670Y-88198351D01*
X110764964Y-88179855D01*
X110812672Y-88161983D01*
X110857659Y-88145162D01*
X110898790Y-88129817D01*
X110934931Y-88116374D01*
X110964946Y-88105260D01*
X110987701Y-88096900D01*
X111002061Y-88091722D01*
X111006874Y-88090134D01*
X111012189Y-88094053D01*
X111023567Y-88104796D01*
X111039469Y-88120841D01*
X111058357Y-88140663D01*
X111063630Y-88146316D01*
X111115810Y-88202498D01*
X111473473Y-88202498D01*
X111366120Y-88121463D01*
X111257241Y-88025959D01*
X111155228Y-87922261D01*
X111060576Y-87810687D01*
X110973778Y-87691550D01*
X110930425Y-87622618D01*
X110509501Y-87622618D01*
X110500266Y-87660289D01*
X110482665Y-87695832D01*
X110457927Y-87726576D01*
X110436119Y-87744418D01*
X110397999Y-87764372D01*
X110359132Y-87773323D01*
X110318194Y-87771468D01*
X110293306Y-87765615D01*
X110255640Y-87748830D01*
X110224092Y-87723529D01*
X110199900Y-87691375D01*
X110184303Y-87654030D01*
X110178542Y-87613159D01*
X110178533Y-87611520D01*
X110180702Y-87575672D01*
X110188053Y-87546364D01*
X110201857Y-87519549D01*
X110211720Y-87505620D01*
X110240641Y-87476373D01*
X110275000Y-87455781D01*
X110312857Y-87444042D01*
X110352275Y-87441354D01*
X110391315Y-87447917D01*
X110428038Y-87463930D01*
X110451523Y-87481039D01*
X110475718Y-87508291D01*
X110495215Y-87541732D01*
X110507465Y-87576740D01*
X110509142Y-87585493D01*
X110509501Y-87622618D01*
X110930425Y-87622618D01*
X110907211Y-87585709D01*
X110838983Y-87458264D01*
X110780787Y-87326176D01*
X110732723Y-87190163D01*
X110694888Y-87050942D01*
X110667381Y-86909230D01*
X110650298Y-86765743D01*
X110643739Y-86621200D01*
X110647800Y-86476318D01*
X110660552Y-86351645D01*
X110455111Y-86351645D01*
X110455111Y-86870934D01*
X110308355Y-86870934D01*
X110308355Y-86520978D01*
X110201111Y-86520978D01*
X110201111Y-86678689D01*
X110200965Y-86719675D01*
X110200555Y-86756819D01*
X110199917Y-86788673D01*
X110199092Y-86813785D01*
X110198116Y-86830705D01*
X110197030Y-86837981D01*
X110196878Y-86838145D01*
X110189869Y-86838688D01*
X110173972Y-86838862D01*
X110151581Y-86838667D01*
X110126322Y-86838136D01*
X110060000Y-86836383D01*
X110060000Y-86520978D01*
X109969854Y-86520978D01*
X109968360Y-86691722D01*
X109966866Y-86862467D01*
X109828578Y-86865637D01*
X109828578Y-86351645D01*
X110455111Y-86351645D01*
X110660552Y-86351645D01*
X110662581Y-86331813D01*
X110688179Y-86188402D01*
X110706112Y-86113287D01*
X110715988Y-86080455D01*
X110509904Y-86080455D01*
X110509146Y-86083873D01*
X110505793Y-86094378D01*
X110499614Y-86112649D01*
X110490374Y-86139367D01*
X110477840Y-86175211D01*
X110461778Y-86220859D01*
X110457955Y-86231700D01*
X110453805Y-86238230D01*
X110452499Y-86238756D01*
X110446766Y-86236943D01*
X110431357Y-86231730D01*
X110407248Y-86223456D01*
X110375415Y-86212459D01*
X110336832Y-86199076D01*
X110292478Y-86183646D01*
X110243326Y-86166508D01*
X110190353Y-86148000D01*
X110157400Y-86136468D01*
X110102675Y-86117297D01*
X110051246Y-86099263D01*
X110004082Y-86082706D01*
X109962151Y-86067967D01*
X109926422Y-86055387D01*
X109897862Y-86045307D01*
X109877441Y-86038068D01*
X109866127Y-86034010D01*
X109864113Y-86033244D01*
X109865363Y-86027880D01*
X109869678Y-86014223D01*
X109876248Y-85994585D01*
X109884262Y-85971277D01*
X109892912Y-85946610D01*
X109901386Y-85922895D01*
X109908875Y-85902443D01*
X109914569Y-85887565D01*
X109917591Y-85880675D01*
X109922193Y-85880357D01*
X109934185Y-85882921D01*
X109954000Y-85888507D01*
X109982068Y-85897255D01*
X110018821Y-85909304D01*
X110064691Y-85924793D01*
X110120108Y-85943864D01*
X110185506Y-85966655D01*
X110215222Y-85977079D01*
X110270066Y-85996345D01*
X110321618Y-86014449D01*
X110368913Y-86031053D01*
X110410985Y-86045818D01*
X110446870Y-86058405D01*
X110475601Y-86068476D01*
X110496213Y-86075692D01*
X110507742Y-86079714D01*
X110509904Y-86080455D01*
X110715988Y-86080455D01*
X110748351Y-85972877D01*
X110800564Y-85837227D01*
X110862306Y-85706749D01*
X110933134Y-85581854D01*
X110947568Y-85560258D01*
X110687602Y-85560258D01*
X110686943Y-85566525D01*
X110682856Y-85581795D01*
X110675891Y-85604507D01*
X110666597Y-85633098D01*
X110655522Y-85666006D01*
X110643217Y-85701670D01*
X110630231Y-85738526D01*
X110617112Y-85775014D01*
X110604409Y-85809572D01*
X110592672Y-85840636D01*
X110582450Y-85866646D01*
X110574292Y-85886038D01*
X110569742Y-85895515D01*
X110550113Y-85925286D01*
X110525258Y-85953619D01*
X110498375Y-85977215D01*
X110477677Y-85990406D01*
X110441277Y-86004296D01*
X110402634Y-86009386D01*
X110359824Y-86005777D01*
X110327411Y-85998425D01*
X110291036Y-85983609D01*
X110256473Y-85960774D01*
X110228115Y-85932894D01*
X110225336Y-85929347D01*
X110205969Y-85897234D01*
X110194213Y-85861372D01*
X110190057Y-85820825D01*
X110193491Y-85774657D01*
X110204501Y-85721930D01*
X110222066Y-85664629D01*
X110249704Y-85584392D01*
X110184485Y-85561434D01*
X110154977Y-85551042D01*
X110125415Y-85540625D01*
X110099602Y-85531522D01*
X110083989Y-85526011D01*
X110066086Y-85518862D01*
X110053390Y-85512221D01*
X110048711Y-85507637D01*
X110050460Y-85500896D01*
X110055161Y-85486021D01*
X110061991Y-85465393D01*
X110070130Y-85441393D01*
X110078756Y-85416404D01*
X110087047Y-85392806D01*
X110094181Y-85372982D01*
X110099338Y-85359314D01*
X110101625Y-85354227D01*
X110107104Y-85355695D01*
X110122040Y-85360543D01*
X110145257Y-85368355D01*
X110175579Y-85378720D01*
X110211830Y-85391222D01*
X110252834Y-85405450D01*
X110297414Y-85420989D01*
X110344396Y-85437426D01*
X110392603Y-85454348D01*
X110440859Y-85471340D01*
X110487988Y-85487990D01*
X110532814Y-85503884D01*
X110574161Y-85518609D01*
X110610854Y-85531750D01*
X110641715Y-85542896D01*
X110665570Y-85551631D01*
X110681242Y-85557543D01*
X110687555Y-85560218D01*
X110687602Y-85560258D01*
X110947568Y-85560258D01*
X111012604Y-85462955D01*
X111100270Y-85350462D01*
X111195688Y-85244789D01*
X111298415Y-85146348D01*
X111408006Y-85055549D01*
X111442412Y-85031009D01*
X111114302Y-85031009D01*
X111109814Y-85037793D01*
X111099772Y-85050756D01*
X111085785Y-85068000D01*
X111069464Y-85087623D01*
X111052416Y-85107727D01*
X111036252Y-85126411D01*
X111022579Y-85141776D01*
X111013008Y-85151921D01*
X111009271Y-85155022D01*
X111003132Y-85151671D01*
X110990687Y-85142750D01*
X110974266Y-85129959D01*
X110968443Y-85125237D01*
X110949574Y-85109788D01*
X110925139Y-85089780D01*
X110898302Y-85067806D01*
X110872386Y-85046586D01*
X110812705Y-84997719D01*
X110743801Y-85082006D01*
X110722231Y-85108598D01*
X110703169Y-85132487D01*
X110687768Y-85152198D01*
X110677180Y-85166257D01*
X110672555Y-85173187D01*
X110672487Y-85173358D01*
X110675953Y-85178914D01*
X110687071Y-85190324D01*
X110704615Y-85206470D01*
X110727361Y-85226233D01*
X110754083Y-85248496D01*
X110760599Y-85253800D01*
X110788185Y-85276265D01*
X110812942Y-85296623D01*
X110833463Y-85313699D01*
X110848338Y-85326320D01*
X110856160Y-85333312D01*
X110856822Y-85334011D01*
X110856931Y-85339911D01*
X110851158Y-85351301D01*
X110838962Y-85369026D01*
X110819799Y-85393933D01*
X110812629Y-85402910D01*
X110794222Y-85425155D01*
X110777877Y-85443699D01*
X110765047Y-85456983D01*
X110757184Y-85463445D01*
X110755891Y-85463810D01*
X110750343Y-85460114D01*
X110736890Y-85449915D01*
X110716354Y-85433870D01*
X110689558Y-85412633D01*
X110657324Y-85386863D01*
X110620475Y-85357215D01*
X110579833Y-85324347D01*
X110536222Y-85288913D01*
X110511489Y-85268750D01*
X110466831Y-85232198D01*
X110424970Y-85197738D01*
X110386696Y-85166033D01*
X110352800Y-85137747D01*
X110324072Y-85113545D01*
X110301300Y-85094089D01*
X110285275Y-85080045D01*
X110276787Y-85072075D01*
X110275620Y-85070513D01*
X110280331Y-85063105D01*
X110290494Y-85049601D01*
X110304502Y-85031935D01*
X110320743Y-85012040D01*
X110337608Y-84991848D01*
X110353488Y-84973293D01*
X110366774Y-84958307D01*
X110375854Y-84948823D01*
X110378913Y-84946484D01*
X110384848Y-84949809D01*
X110398025Y-84959251D01*
X110417002Y-84973711D01*
X110440339Y-84992088D01*
X110466596Y-85013285D01*
X110468719Y-85015020D01*
X110552880Y-85083863D01*
X110572153Y-85061587D01*
X110582676Y-85049136D01*
X110598416Y-85030149D01*
X110617515Y-85006884D01*
X110638113Y-84981600D01*
X110645539Y-84972437D01*
X110699652Y-84905563D01*
X110683215Y-84892485D01*
X110650545Y-84866210D01*
X110619569Y-84840771D01*
X110591465Y-84817184D01*
X110567411Y-84796466D01*
X110548586Y-84779633D01*
X110536167Y-84767700D01*
X110531335Y-84761684D01*
X110531311Y-84761503D01*
X110534725Y-84754274D01*
X110543897Y-84740874D01*
X110557219Y-84723247D01*
X110573085Y-84703336D01*
X110589888Y-84683084D01*
X110606022Y-84664436D01*
X110619879Y-84649335D01*
X110629853Y-84639724D01*
X110633989Y-84637300D01*
X110639796Y-84641053D01*
X110653204Y-84651156D01*
X110673249Y-84666817D01*
X110698967Y-84687246D01*
X110729392Y-84711653D01*
X110763559Y-84739246D01*
X110800504Y-84769234D01*
X110839262Y-84800827D01*
X110878869Y-84833233D01*
X110918358Y-84865662D01*
X110956766Y-84897324D01*
X110993128Y-84927426D01*
X111026479Y-84955179D01*
X111055854Y-84979791D01*
X111080288Y-85000472D01*
X111098816Y-85016431D01*
X111110475Y-85026876D01*
X111114302Y-85031009D01*
X111442412Y-85031009D01*
X111524017Y-84972806D01*
X111646004Y-84898530D01*
X111773522Y-84833133D01*
X111906127Y-84777028D01*
X112043374Y-84730625D01*
X112184821Y-84694337D01*
X112250350Y-84681304D01*
X112362765Y-84665005D01*
X112481278Y-84655354D01*
X112602862Y-84652351D01*
X112724491Y-84655996D01*
X112843138Y-84666291D01*
X112944311Y-84681142D01*
X113086676Y-84712260D01*
X113225966Y-84754035D01*
X113361580Y-84806107D01*
X113492919Y-84868119D01*
X113619383Y-84939714D01*
X113740374Y-85020533D01*
X113855291Y-85110218D01*
X113963535Y-85208412D01*
X114064506Y-85314757D01*
X114123609Y-85385148D01*
X114212443Y-85505026D01*
X114291242Y-85630049D01*
X114359952Y-85760086D01*
X114418514Y-85895000D01*
X114466874Y-86034659D01*
X114504975Y-86178928D01*
X114532762Y-86327675D01*
X114539573Y-86377045D01*
X114543339Y-86415169D01*
X114546275Y-86461726D01*
X114548362Y-86514194D01*
X114549583Y-86570053D01*
X114549918Y-86626782D01*
X114752300Y-86626782D01*
X114736544Y-86580470D01*
X114731506Y-86551533D01*
X114728721Y-86515697D01*
X114728190Y-86476968D01*
X114729909Y-86439354D01*
X114733880Y-86406863D01*
X114736598Y-86394212D01*
X114755984Y-86341532D01*
X114784820Y-86293740D01*
X114821883Y-86252054D01*
X114865946Y-86217690D01*
X114915786Y-86191865D01*
X114952444Y-86179778D01*
X115016743Y-86168431D01*
X115079885Y-86167621D01*
X115123314Y-86173502D01*
X115174574Y-86187306D01*
X115218587Y-86207272D01*
X115258450Y-86235038D01*
X115284002Y-86258443D01*
X115320509Y-86301126D01*
X115347508Y-86347204D01*
X115365519Y-86398021D01*
X115375062Y-86454922D01*
X115376983Y-86498625D01*
X115570815Y-86498625D01*
X115569928Y-86460291D01*
X115567493Y-86399533D01*
X115564147Y-86346119D01*
X115561327Y-86314956D01*
X115536136Y-86128284D01*
X115500594Y-85946067D01*
X115467699Y-85818626D01*
X115257211Y-85818626D01*
X115251527Y-85821367D01*
X115236642Y-85827893D01*
X115213791Y-85837683D01*
X115184206Y-85850213D01*
X115149121Y-85864960D01*
X115109771Y-85881400D01*
X115080116Y-85893732D01*
X115037348Y-85911550D01*
X114996969Y-85928498D01*
X114960413Y-85943964D01*
X114929113Y-85957338D01*
X114904502Y-85968009D01*
X114888013Y-85975366D01*
X114882520Y-85977982D01*
X114859022Y-85991984D01*
X114837979Y-86008068D01*
X114822576Y-86023646D01*
X114818010Y-86030391D01*
X114816310Y-86044107D01*
X114821374Y-86062555D01*
X114831940Y-86082526D01*
X114844966Y-86098997D01*
X114853492Y-86109852D01*
X114856186Y-86117514D01*
X114855681Y-86118556D01*
X114848829Y-86122260D01*
X114834097Y-86128678D01*
X114814244Y-86136747D01*
X114792027Y-86145402D01*
X114770204Y-86153580D01*
X114751535Y-86160218D01*
X114738776Y-86164253D01*
X114735298Y-86164976D01*
X114727906Y-86161098D01*
X114717684Y-86150924D01*
X114714356Y-86146795D01*
X114689710Y-86106764D01*
X114674297Y-86064370D01*
X114668382Y-86021414D01*
X114672231Y-85979696D01*
X114684500Y-85944210D01*
X114704681Y-85912862D01*
X114733502Y-85881834D01*
X114768494Y-85853446D01*
X114804564Y-85831370D01*
X114821992Y-85822828D01*
X114847523Y-85811026D01*
X114878827Y-85797005D01*
X114913570Y-85781810D01*
X114949421Y-85766482D01*
X114953733Y-85764664D01*
X114986462Y-85750841D01*
X115015498Y-85738491D01*
X115039289Y-85728283D01*
X115056285Y-85720881D01*
X115064935Y-85716954D01*
X115065695Y-85716532D01*
X115064609Y-85710937D01*
X115060356Y-85697417D01*
X115053880Y-85678561D01*
X115046122Y-85656958D01*
X115038025Y-85635199D01*
X115030534Y-85615872D01*
X115024589Y-85601565D01*
X115021659Y-85595600D01*
X115017587Y-85594842D01*
X115007428Y-85596743D01*
X114990531Y-85601521D01*
X114966244Y-85609392D01*
X114933916Y-85620575D01*
X114892896Y-85635288D01*
X114842532Y-85653747D01*
X114796182Y-85670947D01*
X114748800Y-85688566D01*
X114704705Y-85704895D01*
X114665018Y-85719526D01*
X114630861Y-85732047D01*
X114603354Y-85742048D01*
X114583619Y-85749119D01*
X114572777Y-85752849D01*
X114571041Y-85753334D01*
X114567356Y-85748422D01*
X114561216Y-85735412D01*
X114553812Y-85716885D01*
X114552163Y-85712411D01*
X114542301Y-85685518D01*
X114531450Y-85656319D01*
X114523115Y-85634188D01*
X114508930Y-85596888D01*
X114792009Y-85491500D01*
X114846056Y-85471402D01*
X114897138Y-85452450D01*
X114944236Y-85435021D01*
X114986330Y-85419490D01*
X115022399Y-85406231D01*
X115051424Y-85395620D01*
X115072385Y-85388033D01*
X115084263Y-85383844D01*
X115086403Y-85383160D01*
X115089494Y-85383200D01*
X115092891Y-85385535D01*
X115096989Y-85391089D01*
X115102185Y-85400782D01*
X115108876Y-85415537D01*
X115117458Y-85436276D01*
X115128328Y-85463921D01*
X115141882Y-85499394D01*
X115158517Y-85543616D01*
X115178629Y-85597510D01*
X115178831Y-85598050D01*
X115196223Y-85644996D01*
X115212207Y-85688600D01*
X115226386Y-85727742D01*
X115238362Y-85761303D01*
X115247735Y-85788163D01*
X115254109Y-85807201D01*
X115257086Y-85817298D01*
X115257211Y-85818626D01*
X115467699Y-85818626D01*
X115454723Y-85768357D01*
X115398544Y-85595210D01*
X115332079Y-85426679D01*
X115255351Y-85262818D01*
X115178472Y-85122145D01*
X114943647Y-85122145D01*
X114938517Y-85126218D01*
X114925233Y-85136486D01*
X114904629Y-85152314D01*
X114877536Y-85173064D01*
X114844789Y-85198098D01*
X114807218Y-85226782D01*
X114765658Y-85258476D01*
X114720941Y-85292545D01*
X114694730Y-85312501D01*
X114449838Y-85498899D01*
X114440153Y-85486416D01*
X114434754Y-85479372D01*
X114423279Y-85464337D01*
X114406488Y-85442309D01*
X114385138Y-85414283D01*
X114359989Y-85381254D01*
X114331798Y-85344218D01*
X114301324Y-85304172D01*
X114282948Y-85280019D01*
X114135429Y-85086104D01*
X114190249Y-85044363D01*
X114211645Y-85028301D01*
X114229800Y-85015105D01*
X114242841Y-85006104D01*
X114248899Y-85002628D01*
X114248968Y-85002622D01*
X114253229Y-85006947D01*
X114263415Y-85019188D01*
X114278656Y-85038244D01*
X114298084Y-85063013D01*
X114320832Y-85092395D01*
X114346031Y-85125287D01*
X114355773Y-85138089D01*
X114381689Y-85172009D01*
X114405519Y-85202822D01*
X114426387Y-85229425D01*
X114443418Y-85250717D01*
X114455737Y-85265595D01*
X114462467Y-85272957D01*
X114463362Y-85273556D01*
X114469565Y-85270405D01*
X114481909Y-85262212D01*
X114497857Y-85250863D01*
X114514869Y-85238242D01*
X114530406Y-85226238D01*
X114541928Y-85216737D01*
X114546898Y-85211623D01*
X114546936Y-85211467D01*
X114543705Y-85206426D01*
X114534468Y-85193591D01*
X114520092Y-85174128D01*
X114501443Y-85149198D01*
X114479387Y-85119965D01*
X114454791Y-85087593D01*
X114450879Y-85082465D01*
X114422669Y-85045399D01*
X114400715Y-85016236D01*
X114384359Y-84993954D01*
X114372945Y-84977532D01*
X114365815Y-84965948D01*
X114362310Y-84958182D01*
X114361774Y-84953211D01*
X114363549Y-84950015D01*
X114364888Y-84948911D01*
X114373697Y-84942423D01*
X114388978Y-84931002D01*
X114408209Y-84916535D01*
X114420333Y-84907377D01*
X114442295Y-84891326D01*
X114457165Y-84881976D01*
X114466336Y-84878584D01*
X114471133Y-84880315D01*
X114475397Y-84885868D01*
X114485398Y-84898973D01*
X114500041Y-84918194D01*
X114518236Y-84942094D01*
X114538888Y-84969236D01*
X114560906Y-84998183D01*
X114583196Y-85027499D01*
X114604666Y-85055747D01*
X114624224Y-85081490D01*
X114640775Y-85103291D01*
X114653229Y-85119713D01*
X114657912Y-85125902D01*
X114662729Y-85123642D01*
X114674286Y-85115945D01*
X114690404Y-85104290D01*
X114696453Y-85099751D01*
X114733540Y-85071676D01*
X114631924Y-84938233D01*
X114606231Y-84904394D01*
X114582834Y-84873388D01*
X114562592Y-84846370D01*
X114546365Y-84824493D01*
X114535010Y-84808911D01*
X114529389Y-84800777D01*
X114528943Y-84799943D01*
X114532555Y-84794666D01*
X114543265Y-84784566D01*
X114558929Y-84771305D01*
X114577405Y-84756546D01*
X114596550Y-84741948D01*
X114614221Y-84729176D01*
X114628275Y-84719890D01*
X114636568Y-84715752D01*
X114637535Y-84715731D01*
X114642473Y-84720643D01*
X114653165Y-84733411D01*
X114668784Y-84752935D01*
X114688503Y-84778117D01*
X114711493Y-84807858D01*
X114736927Y-84841058D01*
X114763978Y-84876619D01*
X114791817Y-84913442D01*
X114819617Y-84950428D01*
X114846549Y-84986478D01*
X114871788Y-85020493D01*
X114894503Y-85051374D01*
X114913869Y-85078022D01*
X114929057Y-85099339D01*
X114939240Y-85114225D01*
X114943589Y-85121582D01*
X114943647Y-85122145D01*
X115178472Y-85122145D01*
X115168381Y-85103681D01*
X115071192Y-84949321D01*
X114963805Y-84799792D01*
X114919310Y-84742978D01*
X114800806Y-84604115D01*
X114724433Y-84524951D01*
X114436650Y-84524951D01*
X114433322Y-84530766D01*
X114424084Y-84544590D01*
X114409672Y-84565405D01*
X114390824Y-84592194D01*
X114368277Y-84623941D01*
X114342768Y-84659630D01*
X114315034Y-84698242D01*
X114285812Y-84738762D01*
X114255839Y-84780173D01*
X114225853Y-84821457D01*
X114196591Y-84861598D01*
X114168789Y-84899579D01*
X114143186Y-84934383D01*
X114120517Y-84964994D01*
X114101521Y-84990395D01*
X114086934Y-85009568D01*
X114077494Y-85021497D01*
X114073994Y-85025200D01*
X114068208Y-85022041D01*
X114055144Y-85013380D01*
X114036589Y-85000447D01*
X114014330Y-84984469D01*
X114008093Y-84979920D01*
X113985286Y-84962975D01*
X113966009Y-84948160D01*
X113951993Y-84936843D01*
X113944972Y-84930392D01*
X113944508Y-84929688D01*
X113947127Y-84923742D01*
X113955437Y-84910278D01*
X113968406Y-84890846D01*
X113985003Y-84866998D01*
X114002021Y-84843271D01*
X114061226Y-84761806D01*
X114052715Y-84724495D01*
X114046909Y-84703423D01*
X114041362Y-84691566D01*
X114037536Y-84689441D01*
X114022228Y-84694371D01*
X113999410Y-84701399D01*
X113970806Y-84710021D01*
X113938138Y-84719737D01*
X113903131Y-84730045D01*
X113867509Y-84740442D01*
X113832994Y-84750428D01*
X113801310Y-84759500D01*
X113774182Y-84767158D01*
X113753332Y-84772898D01*
X113740484Y-84776220D01*
X113737272Y-84776845D01*
X113730570Y-84773707D01*
X113716644Y-84765162D01*
X113697351Y-84752507D01*
X113674545Y-84737043D01*
X113650084Y-84720069D01*
X113625823Y-84702883D01*
X113603618Y-84686786D01*
X113585326Y-84673076D01*
X113572802Y-84663052D01*
X113568081Y-84658407D01*
X113572794Y-84656083D01*
X113587248Y-84651075D01*
X113608829Y-84644200D01*
X111675227Y-84644200D01*
X111671104Y-84648684D01*
X111659484Y-84657722D01*
X111642376Y-84669981D01*
X111621790Y-84684126D01*
X111599736Y-84698825D01*
X111578223Y-84712744D01*
X111559262Y-84724550D01*
X111544861Y-84732908D01*
X111537031Y-84736486D01*
X111536250Y-84736413D01*
X111532858Y-84731303D01*
X111524306Y-84718061D01*
X111511490Y-84698081D01*
X111495303Y-84672760D01*
X111476642Y-84643494D01*
X111468108Y-84630089D01*
X111448719Y-84599622D01*
X111431491Y-84572554D01*
X111417304Y-84550266D01*
X111407036Y-84534140D01*
X111401568Y-84525557D01*
X111400910Y-84524528D01*
X111396165Y-84527081D01*
X111383347Y-84534862D01*
X111363871Y-84546989D01*
X111339153Y-84562577D01*
X111310611Y-84580744D01*
X111302724Y-84585789D01*
X111270007Y-84606810D01*
X111245713Y-84622713D01*
X111228732Y-84634425D01*
X111217952Y-84642869D01*
X111212260Y-84648971D01*
X111210546Y-84653657D01*
X111211696Y-84657850D01*
X111213163Y-84660306D01*
X111245996Y-84710985D01*
X111272974Y-84753033D01*
X111294533Y-84787191D01*
X111311108Y-84814200D01*
X111323137Y-84834802D01*
X111331054Y-84849738D01*
X111335297Y-84859751D01*
X111336300Y-84865581D01*
X111335115Y-84867702D01*
X111327539Y-84872545D01*
X111312662Y-84882250D01*
X111292587Y-84895440D01*
X111269420Y-84910736D01*
X111267911Y-84911734D01*
X111244951Y-84926662D01*
X111225195Y-84939004D01*
X111210630Y-84947554D01*
X111203248Y-84951103D01*
X111203000Y-84951136D01*
X111198985Y-84946545D01*
X111189507Y-84933284D01*
X111175141Y-84912224D01*
X111156461Y-84884234D01*
X111134041Y-84850183D01*
X111108456Y-84810942D01*
X111080280Y-84767380D01*
X111050086Y-84720367D01*
X111033666Y-84694668D01*
X111002705Y-84645978D01*
X110973656Y-84600014D01*
X110947078Y-84557678D01*
X110923528Y-84519871D01*
X110903565Y-84487495D01*
X110887744Y-84461451D01*
X110876624Y-84442641D01*
X110870763Y-84431967D01*
X110869978Y-84429944D01*
X110874380Y-84425104D01*
X110886219Y-84415568D01*
X110903444Y-84402755D01*
X110924004Y-84388085D01*
X110945846Y-84372979D01*
X110966921Y-84358857D01*
X110985176Y-84347139D01*
X110998561Y-84339244D01*
X111004848Y-84336578D01*
X111008174Y-84341114D01*
X111016571Y-84353756D01*
X111029098Y-84373053D01*
X111044814Y-84397557D01*
X111062780Y-84425816D01*
X111065154Y-84429567D01*
X111083484Y-84458243D01*
X111099893Y-84483345D01*
X111113398Y-84503416D01*
X111123015Y-84516996D01*
X111127760Y-84522628D01*
X111127953Y-84522700D01*
X111133549Y-84519857D01*
X111146817Y-84512004D01*
X111165959Y-84500277D01*
X111189180Y-84485816D01*
X111214684Y-84469758D01*
X111240674Y-84453242D01*
X111265355Y-84437406D01*
X111286931Y-84423387D01*
X111303605Y-84412325D01*
X111313582Y-84405357D01*
X111315243Y-84404019D01*
X111313899Y-84398032D01*
X111307115Y-84384062D01*
X111295688Y-84363532D01*
X111280414Y-84337868D01*
X111262090Y-84308494D01*
X111259876Y-84305025D01*
X111241704Y-84276076D01*
X111226233Y-84250382D01*
X111214301Y-84229422D01*
X111206744Y-84214678D01*
X111204401Y-84207628D01*
X111204590Y-84207295D01*
X111238338Y-84185372D01*
X111269685Y-84165779D01*
X111297331Y-84149264D01*
X111319971Y-84136576D01*
X111336303Y-84128463D01*
X111345024Y-84125673D01*
X111346020Y-84126062D01*
X111349697Y-84131806D01*
X111358887Y-84146158D01*
X111373016Y-84168218D01*
X111391506Y-84197088D01*
X111413783Y-84231869D01*
X111439272Y-84271663D01*
X111467396Y-84315571D01*
X111497579Y-84362694D01*
X111512017Y-84385234D01*
X111542886Y-84433503D01*
X111571868Y-84478968D01*
X111598397Y-84520731D01*
X111621909Y-84557898D01*
X111641839Y-84589572D01*
X111657622Y-84614857D01*
X111668693Y-84632855D01*
X111674488Y-84642672D01*
X111675227Y-84644200D01*
X113608829Y-84644200D01*
X113610308Y-84643729D01*
X113640842Y-84634388D01*
X113677715Y-84623399D01*
X113719793Y-84611106D01*
X113765942Y-84597854D01*
X113783293Y-84592926D01*
X113830963Y-84579387D01*
X113875273Y-84566725D01*
X113915037Y-84555283D01*
X113949071Y-84545406D01*
X113976189Y-84537439D01*
X113995207Y-84531726D01*
X114004939Y-84528611D01*
X114005916Y-84528209D01*
X114005972Y-84522152D01*
X114003821Y-84506383D01*
X113999707Y-84482210D01*
X113993869Y-84450943D01*
X113986551Y-84413889D01*
X113977993Y-84372359D01*
X113971527Y-84341943D01*
X113962145Y-84298047D01*
X113953646Y-84257708D01*
X113946296Y-84222241D01*
X113940364Y-84192961D01*
X113936116Y-84171185D01*
X113933822Y-84158227D01*
X113933513Y-84155124D01*
X113938258Y-84156927D01*
X113950281Y-84164395D01*
X113967913Y-84176309D01*
X113989486Y-84191449D01*
X114013331Y-84208596D01*
X114037778Y-84226533D01*
X114061159Y-84244039D01*
X114081804Y-84259896D01*
X114098045Y-84272885D01*
X114108212Y-84281787D01*
X114110568Y-84284432D01*
X114113300Y-84292408D01*
X114117797Y-84309926D01*
X114123712Y-84335436D01*
X114130697Y-84367391D01*
X114138405Y-84404241D01*
X114146488Y-84444438D01*
X114146645Y-84445234D01*
X114154570Y-84484830D01*
X114161950Y-84520523D01*
X114168472Y-84550896D01*
X114173824Y-84574529D01*
X114177693Y-84590005D01*
X114179767Y-84595905D01*
X114179832Y-84595924D01*
X114184069Y-84591466D01*
X114193735Y-84579267D01*
X114207724Y-84560789D01*
X114224926Y-84537493D01*
X114242601Y-84513116D01*
X114261952Y-84486527D01*
X114279306Y-84463287D01*
X114293505Y-84444897D01*
X114303389Y-84432862D01*
X114307646Y-84428703D01*
X114314474Y-84431086D01*
X114327934Y-84439109D01*
X114345987Y-84451249D01*
X114366591Y-84465985D01*
X114387708Y-84481794D01*
X114407296Y-84497154D01*
X114423317Y-84510544D01*
X114433730Y-84520441D01*
X114436650Y-84524951D01*
X114724433Y-84524951D01*
X114674684Y-84473384D01*
X114541376Y-84351037D01*
X114401316Y-84237326D01*
X114254937Y-84132503D01*
X114197017Y-84096106D01*
X113800743Y-84096106D01*
X113800088Y-84102210D01*
X113796118Y-84116254D01*
X113789741Y-84135751D01*
X113781863Y-84158214D01*
X113773392Y-84181158D01*
X113765234Y-84202094D01*
X113758297Y-84218536D01*
X113753488Y-84227997D01*
X113752149Y-84229334D01*
X113745866Y-84227498D01*
X113730788Y-84222412D01*
X113708720Y-84214705D01*
X113681470Y-84205004D01*
X113657277Y-84196278D01*
X113566135Y-84163223D01*
X113509891Y-84319045D01*
X113494037Y-84362996D01*
X113478060Y-84407340D01*
X113462756Y-84449865D01*
X113448919Y-84488359D01*
X113437347Y-84520609D01*
X113428990Y-84543964D01*
X113419329Y-84569751D01*
X113410430Y-84591173D01*
X113403185Y-84606235D01*
X113398491Y-84612942D01*
X113397997Y-84613108D01*
X113390600Y-84611304D01*
X113374748Y-84606327D01*
X113352586Y-84598882D01*
X113326258Y-84589678D01*
X113318975Y-84587076D01*
X113292401Y-84577490D01*
X113269960Y-84569297D01*
X113253630Y-84563226D01*
X113245389Y-84560008D01*
X113244797Y-84559714D01*
X113246333Y-84554311D01*
X113251333Y-84539396D01*
X113259410Y-84516066D01*
X113270178Y-84485420D01*
X113283248Y-84448557D01*
X113298235Y-84406575D01*
X113314750Y-84360573D01*
X113324616Y-84333204D01*
X113347156Y-84270311D01*
X113365627Y-84217761D01*
X113380083Y-84175389D01*
X113390578Y-84143030D01*
X113397165Y-84120519D01*
X113399899Y-84107691D01*
X113399486Y-84104341D01*
X113392146Y-84101257D01*
X113376175Y-84095160D01*
X113353585Y-84086800D01*
X113326388Y-84076926D01*
X113311200Y-84071480D01*
X113282527Y-84061046D01*
X113257560Y-84051592D01*
X113238275Y-84043894D01*
X113226645Y-84038729D01*
X113224275Y-84037299D01*
X113224373Y-84030756D01*
X113227561Y-84016214D01*
X113233023Y-83996264D01*
X113239941Y-83973497D01*
X113247498Y-83950505D01*
X113254874Y-83929878D01*
X113261253Y-83914208D01*
X113265620Y-83906301D01*
X113271273Y-83907522D01*
X113286304Y-83912166D01*
X113309482Y-83919797D01*
X113339578Y-83929979D01*
X113375359Y-83942274D01*
X113415597Y-83956247D01*
X113459060Y-83971460D01*
X113504518Y-83987479D01*
X113550740Y-84003865D01*
X113596496Y-84020183D01*
X113640555Y-84035996D01*
X113681686Y-84050868D01*
X113718660Y-84064362D01*
X113750245Y-84076041D01*
X113775212Y-84085470D01*
X113792328Y-84092212D01*
X113800365Y-84095830D01*
X113800743Y-84096106D01*
X114197017Y-84096106D01*
X114102671Y-84036820D01*
X113944953Y-83950529D01*
X113782214Y-83873883D01*
X113743204Y-83858321D01*
X113032144Y-83858321D01*
X113031988Y-83864032D01*
X113031155Y-83879989D01*
X113029706Y-83905174D01*
X113027705Y-83938568D01*
X113025213Y-83979153D01*
X113022293Y-84025911D01*
X113019008Y-84077823D01*
X113015418Y-84133870D01*
X113012965Y-84171843D01*
X112992720Y-84484064D01*
X112967104Y-84481067D01*
X112950174Y-84479402D01*
X112925941Y-84477412D01*
X112898373Y-84475413D01*
X112883633Y-84474449D01*
X112857658Y-84472733D01*
X112840921Y-84471069D01*
X112831391Y-84468814D01*
X112827039Y-84465322D01*
X112825834Y-84459947D01*
X112825778Y-84456065D01*
X112826151Y-84445539D01*
X112827184Y-84426034D01*
X112828742Y-84399832D01*
X112830691Y-84369214D01*
X112832032Y-84349098D01*
X112834009Y-84318124D01*
X112835480Y-84291338D01*
X112836361Y-84270657D01*
X112836565Y-84257995D01*
X112836266Y-84254934D01*
X112830240Y-84253908D01*
X112814875Y-84252329D01*
X112792100Y-84250367D01*
X112763839Y-84248190D01*
X112742788Y-84246697D01*
X112692487Y-84242407D01*
X112651488Y-84236853D01*
X112617831Y-84229557D01*
X112589558Y-84220040D01*
X112564708Y-84207825D01*
X112557964Y-84203644D01*
X112328284Y-84203644D01*
X112327951Y-84262579D01*
X112317457Y-84318419D01*
X112297322Y-84370316D01*
X112268067Y-84417424D01*
X112230211Y-84458894D01*
X112184275Y-84493879D01*
X112130780Y-84521532D01*
X112073808Y-84540145D01*
X112035380Y-84546930D01*
X111992589Y-84550171D01*
X111950263Y-84549730D01*
X111913229Y-84545467D01*
X111910244Y-84544875D01*
X111858006Y-84528596D01*
X111810767Y-84503148D01*
X111769077Y-84469740D01*
X111733483Y-84429578D01*
X111704535Y-84383868D01*
X111682782Y-84333817D01*
X111668771Y-84280631D01*
X111663052Y-84225519D01*
X111666174Y-84169685D01*
X111678685Y-84114338D01*
X111695328Y-84072254D01*
X111711878Y-84045216D01*
X111735823Y-84015909D01*
X111764424Y-83987034D01*
X111794939Y-83961289D01*
X111824629Y-83941376D01*
X111832355Y-83937245D01*
X111880997Y-83917477D01*
X111933919Y-83903885D01*
X111988206Y-83896790D01*
X112040942Y-83896513D01*
X112089209Y-83903373D01*
X112104105Y-83907395D01*
X112157653Y-83929660D01*
X112205284Y-83961176D01*
X112246315Y-84001190D01*
X112280061Y-84048950D01*
X112305837Y-84103703D01*
X112317936Y-84142463D01*
X112328284Y-84203644D01*
X112557964Y-84203644D01*
X112552556Y-84200292D01*
X112518033Y-84171182D01*
X112492912Y-84135843D01*
X112477221Y-84094337D01*
X112470990Y-84046728D01*
X112471285Y-84023216D01*
X112478529Y-83975554D01*
X112494909Y-83934522D01*
X112520422Y-83900126D01*
X112555063Y-83872369D01*
X112580198Y-83858917D01*
X112597595Y-83851756D01*
X112615801Y-83846200D01*
X112636165Y-83842188D01*
X112660030Y-83839656D01*
X112688745Y-83838543D01*
X112723654Y-83838787D01*
X112766104Y-83840326D01*
X112817441Y-83843097D01*
X112862106Y-83845915D01*
X112904499Y-83848741D01*
X112943068Y-83851387D01*
X112976424Y-83853753D01*
X113003178Y-83855737D01*
X113021943Y-83857238D01*
X113031329Y-83858154D01*
X113032144Y-83858321D01*
X113743204Y-83858321D01*
X113614889Y-83807134D01*
X113443410Y-83750534D01*
X113268210Y-83704335D01*
X113089723Y-83668789D01*
X113068298Y-83665282D01*
X112888339Y-83642193D01*
X112707051Y-83630168D01*
X112525164Y-83629171D01*
X112343407Y-83639167D01*
G36*
X112468537Y-83325716D02*
X112350489Y-83331242D01*
X112237210Y-83340791D01*
X112125699Y-83354683D01*
X112012955Y-83373238D01*
X111895978Y-83396776D01*
X111881485Y-83399957D01*
X111697614Y-83446392D01*
X111517231Y-83503410D01*
X111340782Y-83570723D01*
X111168713Y-83648043D01*
X111001470Y-83735081D01*
X110839501Y-83831549D01*
X110683251Y-83937159D01*
X110533167Y-84051622D01*
X110389695Y-84174650D01*
X110253282Y-84305955D01*
X110124374Y-84445249D01*
X110003418Y-84592242D01*
X109972408Y-84632911D01*
X109860399Y-84791427D01*
X109758652Y-84954634D01*
X109667200Y-85122444D01*
X109586080Y-85294765D01*
X109515324Y-85471509D01*
X109454969Y-85652586D01*
X109405049Y-85837905D01*
X109365599Y-86027378D01*
X109336654Y-86220914D01*
X109328655Y-86293126D01*
X109324724Y-86340634D01*
X109321468Y-86396825D01*
X109318929Y-86459110D01*
X109317154Y-86524901D01*
X109316186Y-86591609D01*
X109316070Y-86656645D01*
X109316850Y-86717422D01*
X109318572Y-86771350D01*
X109319962Y-86797556D01*
X109337335Y-86991250D01*
X109364818Y-87180142D01*
X109402489Y-87364607D01*
X109450424Y-87545020D01*
X109508703Y-87721759D01*
X109516072Y-87741865D01*
X109587471Y-87918749D01*
X109668436Y-88090077D01*
X109758604Y-88255546D01*
X109857610Y-88414855D01*
X109965093Y-88567702D01*
X110080689Y-88713784D01*
X110204033Y-88852799D01*
X110334764Y-88984445D01*
X110472516Y-89108419D01*
X110616928Y-89224420D01*
X110767635Y-89332146D01*
X110924275Y-89431294D01*
X111086483Y-89521561D01*
X111253897Y-89602647D01*
X111426153Y-89674248D01*
X111602887Y-89736062D01*
X111783737Y-89787788D01*
X111968338Y-89829123D01*
X112042205Y-89842520D01*
X112213270Y-89866719D01*
X112388048Y-89882220D01*
X112563406Y-89888846D01*
X112736211Y-89886416D01*
X112776605Y-89884485D01*
X112967231Y-89868552D01*
X113155052Y-89841863D01*
X113339713Y-89804682D01*
X113520852Y-89757272D01*
X113698113Y-89699900D01*
X113871137Y-89632828D01*
X114039564Y-89556322D01*
X114203038Y-89470645D01*
X114361198Y-89376063D01*
X114513688Y-89272839D01*
X114660147Y-89161238D01*
X114800219Y-89041525D01*
X114933543Y-88913963D01*
X115059763Y-88778817D01*
X115178518Y-88636351D01*
X115289452Y-88486831D01*
X115392205Y-88330519D01*
X115486418Y-88167682D01*
X115571734Y-87998582D01*
X115647794Y-87823485D01*
X115678285Y-87744477D01*
X115730040Y-87594084D01*
X115773913Y-87442331D01*
X115810363Y-87287240D01*
X115839845Y-87126833D01*
X115862818Y-86959131D01*
X115865753Y-86933022D01*
X115871543Y-86867058D01*
X115875639Y-86792257D01*
X115878061Y-86710941D01*
X115878259Y-86688894D01*
X115685209Y-86688894D01*
X115674795Y-86873398D01*
X115653371Y-87056900D01*
X115620929Y-87238862D01*
X115596995Y-87343744D01*
X115546940Y-87523793D01*
X115486895Y-87698792D01*
X115416762Y-87868928D01*
X115336444Y-88034393D01*
X115245846Y-88195374D01*
X115144871Y-88352062D01*
X115033421Y-88504646D01*
X114955950Y-88600956D01*
X114923794Y-88638061D01*
X114884894Y-88680609D01*
X114841114Y-88726736D01*
X114794315Y-88774575D01*
X114746357Y-88822262D01*
X114699102Y-88867932D01*
X114654412Y-88909720D01*
X114614148Y-88945761D01*
X114598133Y-88959469D01*
X114449417Y-89077551D01*
X114296372Y-89185243D01*
X114138773Y-89282672D01*
X113976397Y-89369962D01*
X113809022Y-89447241D01*
X113636424Y-89514633D01*
X113576489Y-89535324D01*
X113473829Y-89567964D01*
X113374073Y-89596121D01*
X113275052Y-89620217D01*
X113174593Y-89640674D01*
X113070527Y-89657914D01*
X112960682Y-89672359D01*
X112842888Y-89684431D01*
X112783444Y-89689462D01*
X112761646Y-89690610D01*
X112730614Y-89691436D01*
X112692401Y-89691953D01*
X112649056Y-89692173D01*
X112602631Y-89692105D01*
X112555176Y-89691764D01*
X112508743Y-89691159D01*
X112465382Y-89690304D01*
X112427145Y-89689209D01*
X112396082Y-89687886D01*
X112384549Y-89687189D01*
X112200000Y-89668820D01*
X112016459Y-89639285D01*
X111834412Y-89598694D01*
X111654340Y-89547158D01*
X111476728Y-89484787D01*
X111445711Y-89472678D01*
X111397066Y-89452343D01*
X111341313Y-89427261D01*
X111280913Y-89398672D01*
X111218327Y-89367814D01*
X111156019Y-89335928D01*
X111096449Y-89304253D01*
X111042079Y-89274030D01*
X110995371Y-89246497D01*
X110989907Y-89243129D01*
X110869316Y-89165257D01*
X110757550Y-89086436D01*
X110652185Y-89004749D01*
X110550798Y-88918281D01*
X110450966Y-88825115D01*
X110409955Y-88784571D01*
X110281380Y-88647588D01*
X110162051Y-88504245D01*
X110052132Y-88354847D01*
X109951783Y-88199697D01*
X109861165Y-88039096D01*
X109780441Y-87873349D01*
X109709771Y-87702759D01*
X109649317Y-87527628D01*
X109599241Y-87348260D01*
X109566605Y-87201134D01*
X109536965Y-87021726D01*
X109518031Y-86839759D01*
X109509802Y-86656241D01*
X109512274Y-86472183D01*
X109525445Y-86288594D01*
X109549312Y-86106484D01*
X109569788Y-85993222D01*
X109611756Y-85812336D01*
X109664364Y-85635137D01*
X109727515Y-85461824D01*
X109801112Y-85292597D01*
X109885057Y-85127654D01*
X109979255Y-84967195D01*
X110083608Y-84811420D01*
X110198019Y-84660528D01*
X110246339Y-84601867D01*
X110278419Y-84565122D01*
X110316843Y-84523247D01*
X110359735Y-84478127D01*
X110405220Y-84431645D01*
X110451420Y-84385685D01*
X110496461Y-84342133D01*
X110538466Y-84302871D01*
X110575560Y-84269784D01*
X110584933Y-84261779D01*
X110727577Y-84147588D01*
X110873394Y-84042945D01*
X111021684Y-83948303D01*
X111171747Y-83864113D01*
X111297293Y-83802428D01*
X111469851Y-83729052D01*
X111644868Y-83666539D01*
X111822868Y-83614745D01*
X112004375Y-83573527D01*
X112189911Y-83542739D01*
X112278266Y-83531873D01*
X112317071Y-83528425D01*
X112364941Y-83525458D01*
X112419665Y-83523008D01*
X112479027Y-83521109D01*
X112540816Y-83519799D01*
X112602816Y-83519111D01*
X112662815Y-83519081D01*
X112718598Y-83519745D01*
X112767953Y-83521138D01*
X112808666Y-83523296D01*
X112809660Y-83523368D01*
X112998923Y-83542627D01*
X113184573Y-83572547D01*
X113366471Y-83613075D01*
X113544480Y-83664161D01*
X113718461Y-83725753D01*
X113888275Y-83797799D01*
X114053785Y-83880247D01*
X114214851Y-83973047D01*
X114371337Y-84076146D01*
X114454200Y-84136321D01*
X114566918Y-84225791D01*
X114678868Y-84324039D01*
X114787928Y-84428942D01*
X114891978Y-84538374D01*
X114988894Y-84650211D01*
X115068475Y-84751445D01*
X115172006Y-84898814D01*
X115267141Y-85052147D01*
X115353344Y-85210362D01*
X115430079Y-85372376D01*
X115496812Y-85537105D01*
X115553005Y-85703469D01*
X115572422Y-85770267D01*
X115616933Y-85951674D01*
X115650475Y-86134780D01*
X115673041Y-86319045D01*
X115684622Y-86503930D01*
X115685209Y-86688894D01*
X115878259Y-86688894D01*
X115878832Y-86625430D01*
X115877972Y-86538045D01*
X115875502Y-86451108D01*
X115871443Y-86366940D01*
X115865817Y-86287862D01*
X115859300Y-86221822D01*
X115832223Y-86034509D01*
X115794624Y-85850661D01*
X115746823Y-85670604D01*
X115689137Y-85494663D01*
X115621886Y-85323163D01*
X115545388Y-85156429D01*
X115459963Y-84994786D01*
X115365929Y-84838559D01*
X115263605Y-84688074D01*
X115153310Y-84543655D01*
X115035363Y-84405627D01*
X114910082Y-84274316D01*
X114777787Y-84150046D01*
X114638796Y-84033144D01*
X114493428Y-83923933D01*
X114342002Y-83822738D01*
X114184837Y-83729886D01*
X114022252Y-83645701D01*
X113854565Y-83570508D01*
X113682095Y-83504632D01*
X113505162Y-83448398D01*
X113324084Y-83402131D01*
X113139180Y-83366157D01*
X113044554Y-83352019D01*
X112980933Y-83343830D01*
X112923424Y-83337311D01*
X112869370Y-83332297D01*
X112816114Y-83328620D01*
X112760998Y-83326115D01*
X112701365Y-83324616D01*
X112634557Y-83323957D01*
X112594355Y-83323892D01*
X112468537Y-83325716D01*
X112468537Y-83325716D01*
G37*
X112468537Y-83325716D02*
X112350489Y-83331242D01*
X112237210Y-83340791D01*
X112125699Y-83354683D01*
X112012955Y-83373238D01*
X111895978Y-83396776D01*
X111881485Y-83399957D01*
X111697614Y-83446392D01*
X111517231Y-83503410D01*
X111340782Y-83570723D01*
X111168713Y-83648043D01*
X111001470Y-83735081D01*
X110839501Y-83831549D01*
X110683251Y-83937159D01*
X110533167Y-84051622D01*
X110389695Y-84174650D01*
X110253282Y-84305955D01*
X110124374Y-84445249D01*
X110003418Y-84592242D01*
X109972408Y-84632911D01*
X109860399Y-84791427D01*
X109758652Y-84954634D01*
X109667200Y-85122444D01*
X109586080Y-85294765D01*
X109515324Y-85471509D01*
X109454969Y-85652586D01*
X109405049Y-85837905D01*
X109365599Y-86027378D01*
X109336654Y-86220914D01*
X109328655Y-86293126D01*
X109324724Y-86340634D01*
X109321468Y-86396825D01*
X109318929Y-86459110D01*
X109317154Y-86524901D01*
X109316186Y-86591609D01*
X109316070Y-86656645D01*
X109316850Y-86717422D01*
X109318572Y-86771350D01*
X109319962Y-86797556D01*
X109337335Y-86991250D01*
X109364818Y-87180142D01*
X109402489Y-87364607D01*
X109450424Y-87545020D01*
X109508703Y-87721759D01*
X109516072Y-87741865D01*
X109587471Y-87918749D01*
X109668436Y-88090077D01*
X109758604Y-88255546D01*
X109857610Y-88414855D01*
X109965093Y-88567702D01*
X110080689Y-88713784D01*
X110204033Y-88852799D01*
X110334764Y-88984445D01*
X110472516Y-89108419D01*
X110616928Y-89224420D01*
X110767635Y-89332146D01*
X110924275Y-89431294D01*
X111086483Y-89521561D01*
X111253897Y-89602647D01*
X111426153Y-89674248D01*
X111602887Y-89736062D01*
X111783737Y-89787788D01*
X111968338Y-89829123D01*
X112042205Y-89842520D01*
X112213270Y-89866719D01*
X112388048Y-89882220D01*
X112563406Y-89888846D01*
X112736211Y-89886416D01*
X112776605Y-89884485D01*
X112967231Y-89868552D01*
X113155052Y-89841863D01*
X113339713Y-89804682D01*
X113520852Y-89757272D01*
X113698113Y-89699900D01*
X113871137Y-89632828D01*
X114039564Y-89556322D01*
X114203038Y-89470645D01*
X114361198Y-89376063D01*
X114513688Y-89272839D01*
X114660147Y-89161238D01*
X114800219Y-89041525D01*
X114933543Y-88913963D01*
X115059763Y-88778817D01*
X115178518Y-88636351D01*
X115289452Y-88486831D01*
X115392205Y-88330519D01*
X115486418Y-88167682D01*
X115571734Y-87998582D01*
X115647794Y-87823485D01*
X115678285Y-87744477D01*
X115730040Y-87594084D01*
X115773913Y-87442331D01*
X115810363Y-87287240D01*
X115839845Y-87126833D01*
X115862818Y-86959131D01*
X115865753Y-86933022D01*
X115871543Y-86867058D01*
X115875639Y-86792257D01*
X115878061Y-86710941D01*
X115878259Y-86688894D01*
X115685209Y-86688894D01*
X115674795Y-86873398D01*
X115653371Y-87056900D01*
X115620929Y-87238862D01*
X115596995Y-87343744D01*
X115546940Y-87523793D01*
X115486895Y-87698792D01*
X115416762Y-87868928D01*
X115336444Y-88034393D01*
X115245846Y-88195374D01*
X115144871Y-88352062D01*
X115033421Y-88504646D01*
X114955950Y-88600956D01*
X114923794Y-88638061D01*
X114884894Y-88680609D01*
X114841114Y-88726736D01*
X114794315Y-88774575D01*
X114746357Y-88822262D01*
X114699102Y-88867932D01*
X114654412Y-88909720D01*
X114614148Y-88945761D01*
X114598133Y-88959469D01*
X114449417Y-89077551D01*
X114296372Y-89185243D01*
X114138773Y-89282672D01*
X113976397Y-89369962D01*
X113809022Y-89447241D01*
X113636424Y-89514633D01*
X113576489Y-89535324D01*
X113473829Y-89567964D01*
X113374073Y-89596121D01*
X113275052Y-89620217D01*
X113174593Y-89640674D01*
X113070527Y-89657914D01*
X112960682Y-89672359D01*
X112842888Y-89684431D01*
X112783444Y-89689462D01*
X112761646Y-89690610D01*
X112730614Y-89691436D01*
X112692401Y-89691953D01*
X112649056Y-89692173D01*
X112602631Y-89692105D01*
X112555176Y-89691764D01*
X112508743Y-89691159D01*
X112465382Y-89690304D01*
X112427145Y-89689209D01*
X112396082Y-89687886D01*
X112384549Y-89687189D01*
X112200000Y-89668820D01*
X112016459Y-89639285D01*
X111834412Y-89598694D01*
X111654340Y-89547158D01*
X111476728Y-89484787D01*
X111445711Y-89472678D01*
X111397066Y-89452343D01*
X111341313Y-89427261D01*
X111280913Y-89398672D01*
X111218327Y-89367814D01*
X111156019Y-89335928D01*
X111096449Y-89304253D01*
X111042079Y-89274030D01*
X110995371Y-89246497D01*
X110989907Y-89243129D01*
X110869316Y-89165257D01*
X110757550Y-89086436D01*
X110652185Y-89004749D01*
X110550798Y-88918281D01*
X110450966Y-88825115D01*
X110409955Y-88784571D01*
X110281380Y-88647588D01*
X110162051Y-88504245D01*
X110052132Y-88354847D01*
X109951783Y-88199697D01*
X109861165Y-88039096D01*
X109780441Y-87873349D01*
X109709771Y-87702759D01*
X109649317Y-87527628D01*
X109599241Y-87348260D01*
X109566605Y-87201134D01*
X109536965Y-87021726D01*
X109518031Y-86839759D01*
X109509802Y-86656241D01*
X109512274Y-86472183D01*
X109525445Y-86288594D01*
X109549312Y-86106484D01*
X109569788Y-85993222D01*
X109611756Y-85812336D01*
X109664364Y-85635137D01*
X109727515Y-85461824D01*
X109801112Y-85292597D01*
X109885057Y-85127654D01*
X109979255Y-84967195D01*
X110083608Y-84811420D01*
X110198019Y-84660528D01*
X110246339Y-84601867D01*
X110278419Y-84565122D01*
X110316843Y-84523247D01*
X110359735Y-84478127D01*
X110405220Y-84431645D01*
X110451420Y-84385685D01*
X110496461Y-84342133D01*
X110538466Y-84302871D01*
X110575560Y-84269784D01*
X110584933Y-84261779D01*
X110727577Y-84147588D01*
X110873394Y-84042945D01*
X111021684Y-83948303D01*
X111171747Y-83864113D01*
X111297293Y-83802428D01*
X111469851Y-83729052D01*
X111644868Y-83666539D01*
X111822868Y-83614745D01*
X112004375Y-83573527D01*
X112189911Y-83542739D01*
X112278266Y-83531873D01*
X112317071Y-83528425D01*
X112364941Y-83525458D01*
X112419665Y-83523008D01*
X112479027Y-83521109D01*
X112540816Y-83519799D01*
X112602816Y-83519111D01*
X112662815Y-83519081D01*
X112718598Y-83519745D01*
X112767953Y-83521138D01*
X112808666Y-83523296D01*
X112809660Y-83523368D01*
X112998923Y-83542627D01*
X113184573Y-83572547D01*
X113366471Y-83613075D01*
X113544480Y-83664161D01*
X113718461Y-83725753D01*
X113888275Y-83797799D01*
X114053785Y-83880247D01*
X114214851Y-83973047D01*
X114371337Y-84076146D01*
X114454200Y-84136321D01*
X114566918Y-84225791D01*
X114678868Y-84324039D01*
X114787928Y-84428942D01*
X114891978Y-84538374D01*
X114988894Y-84650211D01*
X115068475Y-84751445D01*
X115172006Y-84898814D01*
X115267141Y-85052147D01*
X115353344Y-85210362D01*
X115430079Y-85372376D01*
X115496812Y-85537105D01*
X115553005Y-85703469D01*
X115572422Y-85770267D01*
X115616933Y-85951674D01*
X115650475Y-86134780D01*
X115673041Y-86319045D01*
X115684622Y-86503930D01*
X115685209Y-86688894D01*
X115878259Y-86688894D01*
X115878832Y-86625430D01*
X115877972Y-86538045D01*
X115875502Y-86451108D01*
X115871443Y-86366940D01*
X115865817Y-86287862D01*
X115859300Y-86221822D01*
X115832223Y-86034509D01*
X115794624Y-85850661D01*
X115746823Y-85670604D01*
X115689137Y-85494663D01*
X115621886Y-85323163D01*
X115545388Y-85156429D01*
X115459963Y-84994786D01*
X115365929Y-84838559D01*
X115263605Y-84688074D01*
X115153310Y-84543655D01*
X115035363Y-84405627D01*
X114910082Y-84274316D01*
X114777787Y-84150046D01*
X114638796Y-84033144D01*
X114493428Y-83923933D01*
X114342002Y-83822738D01*
X114184837Y-83729886D01*
X114022252Y-83645701D01*
X113854565Y-83570508D01*
X113682095Y-83504632D01*
X113505162Y-83448398D01*
X113324084Y-83402131D01*
X113139180Y-83366157D01*
X113044554Y-83352019D01*
X112980933Y-83343830D01*
X112923424Y-83337311D01*
X112869370Y-83332297D01*
X112816114Y-83328620D01*
X112760998Y-83326115D01*
X112701365Y-83324616D01*
X112634557Y-83323957D01*
X112594355Y-83323892D01*
X112468537Y-83325716D01*
G04 #@! TO.C,R4*
D10*
X108083333Y-79902004D02*
X108350000Y-79521052D01*
X108540476Y-79902004D02*
X108540476Y-79102004D01*
X108235714Y-79102004D01*
X108159523Y-79140100D01*
X108121428Y-79178195D01*
X108083333Y-79254385D01*
X108083333Y-79368671D01*
X108121428Y-79444861D01*
X108159523Y-79482957D01*
X108235714Y-79521052D01*
X108540476Y-79521052D01*
X107397619Y-79368671D02*
X107397619Y-79902004D01*
X107588095Y-79063909D02*
X107778571Y-79635338D01*
X107283333Y-79635338D01*
G04 #@! TO.C,R5*
X107892833Y-85972604D02*
X108159500Y-85591652D01*
X108349976Y-85972604D02*
X108349976Y-85172604D01*
X108045214Y-85172604D01*
X107969023Y-85210700D01*
X107930928Y-85248795D01*
X107892833Y-85324985D01*
X107892833Y-85439271D01*
X107930928Y-85515461D01*
X107969023Y-85553557D01*
X108045214Y-85591652D01*
X108349976Y-85591652D01*
X107169023Y-85172604D02*
X107549976Y-85172604D01*
X107588071Y-85553557D01*
X107549976Y-85515461D01*
X107473785Y-85477366D01*
X107283309Y-85477366D01*
X107207119Y-85515461D01*
X107169023Y-85553557D01*
X107130928Y-85629747D01*
X107130928Y-85820223D01*
X107169023Y-85896414D01*
X107207119Y-85934509D01*
X107283309Y-85972604D01*
X107473785Y-85972604D01*
X107549976Y-85934509D01*
X107588071Y-85896414D01*
G04 #@! TO.C,R6*
X108057933Y-92182904D02*
X108324600Y-91801952D01*
X108515076Y-92182904D02*
X108515076Y-91382904D01*
X108210314Y-91382904D01*
X108134123Y-91421000D01*
X108096028Y-91459095D01*
X108057933Y-91535285D01*
X108057933Y-91649571D01*
X108096028Y-91725761D01*
X108134123Y-91763857D01*
X108210314Y-91801952D01*
X108515076Y-91801952D01*
X107372219Y-91382904D02*
X107524600Y-91382904D01*
X107600790Y-91421000D01*
X107638885Y-91459095D01*
X107715076Y-91573380D01*
X107753171Y-91725761D01*
X107753171Y-92030523D01*
X107715076Y-92106714D01*
X107676980Y-92144809D01*
X107600790Y-92182904D01*
X107448409Y-92182904D01*
X107372219Y-92144809D01*
X107334123Y-92106714D01*
X107296028Y-92030523D01*
X107296028Y-91840047D01*
X107334123Y-91763857D01*
X107372219Y-91725761D01*
X107448409Y-91687666D01*
X107600790Y-91687666D01*
X107676980Y-91725761D01*
X107715076Y-91763857D01*
X107753171Y-91840047D01*
G04 #@! TO.C,R1*
X120237233Y-86302804D02*
X120503900Y-85921852D01*
X120694376Y-86302804D02*
X120694376Y-85502804D01*
X120389614Y-85502804D01*
X120313423Y-85540900D01*
X120275328Y-85578995D01*
X120237233Y-85655185D01*
X120237233Y-85769471D01*
X120275328Y-85845661D01*
X120313423Y-85883757D01*
X120389614Y-85921852D01*
X120694376Y-85921852D01*
X119475328Y-86302804D02*
X119932471Y-86302804D01*
X119703900Y-86302804D02*
X119703900Y-85502804D01*
X119780090Y-85617090D01*
X119856280Y-85693280D01*
X119932471Y-85731376D01*
G04 #@! TO.C,R2*
X120326133Y-89046004D02*
X120592800Y-88665052D01*
X120783276Y-89046004D02*
X120783276Y-88246004D01*
X120478514Y-88246004D01*
X120402323Y-88284100D01*
X120364228Y-88322195D01*
X120326133Y-88398385D01*
X120326133Y-88512671D01*
X120364228Y-88588861D01*
X120402323Y-88626957D01*
X120478514Y-88665052D01*
X120783276Y-88665052D01*
X120021371Y-88322195D02*
X119983276Y-88284100D01*
X119907085Y-88246004D01*
X119716609Y-88246004D01*
X119640419Y-88284100D01*
X119602323Y-88322195D01*
X119564228Y-88398385D01*
X119564228Y-88474576D01*
X119602323Y-88588861D01*
X120059466Y-89046004D01*
X119564228Y-89046004D01*
G04 #@! TO.C,R3*
X120300733Y-91598704D02*
X120567400Y-91217752D01*
X120757876Y-91598704D02*
X120757876Y-90798704D01*
X120453114Y-90798704D01*
X120376923Y-90836800D01*
X120338828Y-90874895D01*
X120300733Y-90951085D01*
X120300733Y-91065371D01*
X120338828Y-91141561D01*
X120376923Y-91179657D01*
X120453114Y-91217752D01*
X120757876Y-91217752D01*
X120034066Y-90798704D02*
X119538828Y-90798704D01*
X119805495Y-91103466D01*
X119691209Y-91103466D01*
X119615019Y-91141561D01*
X119576923Y-91179657D01*
X119538828Y-91255847D01*
X119538828Y-91446323D01*
X119576923Y-91522514D01*
X119615019Y-91560609D01*
X119691209Y-91598704D01*
X119919780Y-91598704D01*
X119995971Y-91560609D01*
X120034066Y-91522514D01*
G04 #@! TO.C,R7*
X120262633Y-94113304D02*
X120529300Y-93732352D01*
X120719776Y-94113304D02*
X120719776Y-93313304D01*
X120415014Y-93313304D01*
X120338823Y-93351400D01*
X120300728Y-93389495D01*
X120262633Y-93465685D01*
X120262633Y-93579971D01*
X120300728Y-93656161D01*
X120338823Y-93694257D01*
X120415014Y-93732352D01*
X120719776Y-93732352D01*
X119995966Y-93313304D02*
X119462633Y-93313304D01*
X119805490Y-94113304D01*
G04 #@! TO.C,TH1*
X117119271Y-90620904D02*
X116662128Y-90620904D01*
X116890700Y-91420904D02*
X116890700Y-90620904D01*
X116395461Y-91420904D02*
X116395461Y-90620904D01*
X116395461Y-91001857D02*
X115938319Y-91001857D01*
X115938319Y-91420904D02*
X115938319Y-90620904D01*
X115138319Y-91420904D02*
X115595461Y-91420904D01*
X115366890Y-91420904D02*
X115366890Y-90620904D01*
X115443080Y-90735190D01*
X115519271Y-90811380D01*
X115595461Y-90849476D01*
G04 #@! TO.C,Q1*
X110464590Y-82962695D02*
X110540780Y-82924600D01*
X110616971Y-82848409D01*
X110731257Y-82734123D01*
X110807447Y-82696028D01*
X110883638Y-82696028D01*
X110845542Y-82886504D02*
X110921733Y-82848409D01*
X110997923Y-82772219D01*
X111036019Y-82619838D01*
X111036019Y-82353171D01*
X110997923Y-82200790D01*
X110921733Y-82124600D01*
X110845542Y-82086504D01*
X110693161Y-82086504D01*
X110616971Y-82124600D01*
X110540780Y-82200790D01*
X110502685Y-82353171D01*
X110502685Y-82619838D01*
X110540780Y-82772219D01*
X110616971Y-82848409D01*
X110693161Y-82886504D01*
X110845542Y-82886504D01*
X109740780Y-82886504D02*
X110197923Y-82886504D01*
X109969352Y-82886504D02*
X109969352Y-82086504D01*
X110045542Y-82200790D01*
X110121733Y-82276980D01*
X110197923Y-82315076D01*
G04 #@! TO.C,Q2*
X109804190Y-90887495D02*
X109880380Y-90849400D01*
X109956571Y-90773209D01*
X110070857Y-90658923D01*
X110147047Y-90620828D01*
X110223238Y-90620828D01*
X110185142Y-90811304D02*
X110261333Y-90773209D01*
X110337523Y-90697019D01*
X110375619Y-90544638D01*
X110375619Y-90277971D01*
X110337523Y-90125590D01*
X110261333Y-90049400D01*
X110185142Y-90011304D01*
X110032761Y-90011304D01*
X109956571Y-90049400D01*
X109880380Y-90125590D01*
X109842285Y-90277971D01*
X109842285Y-90544638D01*
X109880380Y-90697019D01*
X109956571Y-90773209D01*
X110032761Y-90811304D01*
X110185142Y-90811304D01*
X109537523Y-90087495D02*
X109499428Y-90049400D01*
X109423238Y-90011304D01*
X109232761Y-90011304D01*
X109156571Y-90049400D01*
X109118476Y-90087495D01*
X109080380Y-90163685D01*
X109080380Y-90239876D01*
X109118476Y-90354161D01*
X109575619Y-90811304D01*
X109080380Y-90811304D01*
G04 #@! TO.C,Q3*
X110439190Y-95167395D02*
X110515380Y-95129300D01*
X110591571Y-95053109D01*
X110705857Y-94938823D01*
X110782047Y-94900728D01*
X110858238Y-94900728D01*
X110820142Y-95091204D02*
X110896333Y-95053109D01*
X110972523Y-94976919D01*
X111010619Y-94824538D01*
X111010619Y-94557871D01*
X110972523Y-94405490D01*
X110896333Y-94329300D01*
X110820142Y-94291204D01*
X110667761Y-94291204D01*
X110591571Y-94329300D01*
X110515380Y-94405490D01*
X110477285Y-94557871D01*
X110477285Y-94824538D01*
X110515380Y-94976919D01*
X110591571Y-95053109D01*
X110667761Y-95091204D01*
X110820142Y-95091204D01*
X110210619Y-94291204D02*
X109715380Y-94291204D01*
X109982047Y-94595966D01*
X109867761Y-94595966D01*
X109791571Y-94634061D01*
X109753476Y-94672157D01*
X109715380Y-94748347D01*
X109715380Y-94938823D01*
X109753476Y-95015014D01*
X109791571Y-95053109D01*
X109867761Y-95091204D01*
X110096333Y-95091204D01*
X110172523Y-95053109D01*
X110210619Y-95015014D01*
G04 #@! TO.C,Q4*
X108788190Y-82962695D02*
X108864380Y-82924600D01*
X108940571Y-82848409D01*
X109054857Y-82734123D01*
X109131047Y-82696028D01*
X109207238Y-82696028D01*
X109169142Y-82886504D02*
X109245333Y-82848409D01*
X109321523Y-82772219D01*
X109359619Y-82619838D01*
X109359619Y-82353171D01*
X109321523Y-82200790D01*
X109245333Y-82124600D01*
X109169142Y-82086504D01*
X109016761Y-82086504D01*
X108940571Y-82124600D01*
X108864380Y-82200790D01*
X108826285Y-82353171D01*
X108826285Y-82619838D01*
X108864380Y-82772219D01*
X108940571Y-82848409D01*
X109016761Y-82886504D01*
X109169142Y-82886504D01*
X108140571Y-82353171D02*
X108140571Y-82886504D01*
X108331047Y-82048409D02*
X108521523Y-82619838D01*
X108026285Y-82619838D01*
G04 #@! TO.C,Q5*
X108051590Y-90887495D02*
X108127780Y-90849400D01*
X108203971Y-90773209D01*
X108318257Y-90658923D01*
X108394447Y-90620828D01*
X108470638Y-90620828D01*
X108432542Y-90811304D02*
X108508733Y-90773209D01*
X108584923Y-90697019D01*
X108623019Y-90544638D01*
X108623019Y-90277971D01*
X108584923Y-90125590D01*
X108508733Y-90049400D01*
X108432542Y-90011304D01*
X108280161Y-90011304D01*
X108203971Y-90049400D01*
X108127780Y-90125590D01*
X108089685Y-90277971D01*
X108089685Y-90544638D01*
X108127780Y-90697019D01*
X108203971Y-90773209D01*
X108280161Y-90811304D01*
X108432542Y-90811304D01*
X107365876Y-90011304D02*
X107746828Y-90011304D01*
X107784923Y-90392257D01*
X107746828Y-90354161D01*
X107670638Y-90316066D01*
X107480161Y-90316066D01*
X107403971Y-90354161D01*
X107365876Y-90392257D01*
X107327780Y-90468447D01*
X107327780Y-90658923D01*
X107365876Y-90735114D01*
X107403971Y-90773209D01*
X107480161Y-90811304D01*
X107670638Y-90811304D01*
X107746828Y-90773209D01*
X107784923Y-90735114D01*
G04 #@! TO.C,Q6*
X108800890Y-95167395D02*
X108877080Y-95129300D01*
X108953271Y-95053109D01*
X109067557Y-94938823D01*
X109143747Y-94900728D01*
X109219938Y-94900728D01*
X109181842Y-95091204D02*
X109258033Y-95053109D01*
X109334223Y-94976919D01*
X109372319Y-94824538D01*
X109372319Y-94557871D01*
X109334223Y-94405490D01*
X109258033Y-94329300D01*
X109181842Y-94291204D01*
X109029461Y-94291204D01*
X108953271Y-94329300D01*
X108877080Y-94405490D01*
X108838985Y-94557871D01*
X108838985Y-94824538D01*
X108877080Y-94976919D01*
X108953271Y-95053109D01*
X109029461Y-95091204D01*
X109181842Y-95091204D01*
X108153271Y-94291204D02*
X108305652Y-94291204D01*
X108381842Y-94329300D01*
X108419938Y-94367395D01*
X108496128Y-94481680D01*
X108534223Y-94634061D01*
X108534223Y-94938823D01*
X108496128Y-95015014D01*
X108458033Y-95053109D01*
X108381842Y-95091204D01*
X108229461Y-95091204D01*
X108153271Y-95053109D01*
X108115176Y-95015014D01*
X108077080Y-94938823D01*
X108077080Y-94748347D01*
X108115176Y-94672157D01*
X108153271Y-94634061D01*
X108229461Y-94595966D01*
X108381842Y-94595966D01*
X108458033Y-94634061D01*
X108496128Y-94672157D01*
X108534223Y-94748347D01*
G04 #@! TO.C,C1*
X115449333Y-93833914D02*
X115487428Y-93872009D01*
X115601714Y-93910104D01*
X115677904Y-93910104D01*
X115792190Y-93872009D01*
X115868380Y-93795819D01*
X115906476Y-93719628D01*
X115944571Y-93567247D01*
X115944571Y-93452961D01*
X115906476Y-93300580D01*
X115868380Y-93224390D01*
X115792190Y-93148200D01*
X115677904Y-93110104D01*
X115601714Y-93110104D01*
X115487428Y-93148200D01*
X115449333Y-93186295D01*
X114687428Y-93910104D02*
X115144571Y-93910104D01*
X114916000Y-93910104D02*
X114916000Y-93110104D01*
X114992190Y-93224390D01*
X115068380Y-93300580D01*
X115144571Y-93338676D01*
G04 #@! TD*
M02*
