M48
;DRILL file {KiCad (5.0.0)} date 11/06/18 13:21:40
;FORMAT={-:-/ absolute / metric / decimal}
FMAT,2
METRIC,TZ
T1C0.300
T2C0.900
T3C1.500
%
G90
G05
M71
T1
X102.05Y-77.9
X103.25Y-76.7
X103.25Y-87.85
X103.6Y-89.65
X103.9Y-95.9
X103.9Y-99.
X103.95Y-93.95
X105.Y-89.65
X105.Y-97.5
X106.35Y-89.65
X106.95Y-83.65
X107.Y-97.5
X107.Y-99.
X108.85Y-83.65
X108.95Y-78.25
X109.95Y-96.1
X110.7Y-84.1
X111.Y-94.45
X112.2Y-80.
X112.2Y-81.
X112.2Y-87.8
X112.2Y-88.8
X113.2Y-80.
X113.2Y-81.
X113.2Y-87.8
X113.2Y-88.8
X114.5Y-82.3
X114.5Y-84.5
X115.3Y-93.2
X116.1Y-82.3
X117.5Y-83.7
X117.7Y-82.3
X118.Y-89.4
X118.5Y-76.
X119.Y-78.6
X119.1Y-88.65
X120.3Y-89.4
X120.5Y-92.05
X121.Y-76.
X121.Y-86.6
X122.Y-89.4
X122.2Y-97.3
T2
X101.5Y-87.48
X101.5Y-90.02
X101.5Y-92.56
X101.5Y-95.1
X101.5Y-79.86
X104.04Y-79.86
X110.16Y-98.5
X112.7Y-98.5
X115.24Y-98.5
X121.36Y-79.86
X123.9Y-79.86
X101.5Y-82.4
X101.5Y-84.94
X104.04Y-82.4
X104.04Y-84.94
X123.9Y-82.4
X123.9Y-84.94
X123.9Y-87.48
X123.9Y-90.02
X123.9Y-92.56
X123.9Y-95.1
X110.16Y-76.1
X112.7Y-76.1
X115.24Y-76.1
T3
X108.7Y-73.05
X112.7Y-73.05
X116.7Y-73.05
X108.7Y-101.55
X112.7Y-101.55
X116.7Y-101.55
T0
M30
