G04 #@! TF.GenerationSoftware,KiCad,Pcbnew,(5.0.0)*
G04 #@! TF.CreationDate,2018-11-06T13:21:30+03:00*
G04 #@! TF.ProjectId,NeoModule,4E656F4D6F64756C652E6B696361645F,rev?*
G04 #@! TF.SameCoordinates,Original*
G04 #@! TF.FileFunction,Copper,L1,Top,Signal*
G04 #@! TF.FilePolarity,Positive*
%FSLAX46Y46*%
G04 Gerber Fmt 4.6, Leading zero omitted, Abs format (unit mm)*
G04 Created by KiCad (PCBNEW (5.0.0)) date 11/06/18 13:21:30*
%MOMM*%
%LPD*%
G01*
G04 APERTURE LIST*
G04 #@! TA.AperFunction,ComponentPad*
%ADD10R,2.500000X2.500000*%
G04 #@! TD*
G04 #@! TA.AperFunction,ComponentPad*
%ADD11C,2.500000*%
G04 #@! TD*
G04 #@! TA.AperFunction,SMDPad,CuDef*
%ADD12R,1.450000X0.450000*%
G04 #@! TD*
G04 #@! TA.AperFunction,SMDPad,CuDef*
%ADD13R,0.750000X1.200000*%
G04 #@! TD*
G04 #@! TA.AperFunction,SMDPad,CuDef*
%ADD14R,1.200000X0.750000*%
G04 #@! TD*
G04 #@! TA.AperFunction,SMDPad,CuDef*
%ADD15R,1.500000X3.000000*%
G04 #@! TD*
G04 #@! TA.AperFunction,SMDPad,CuDef*
%ADD16R,3.000000X1.500000*%
G04 #@! TD*
G04 #@! TA.AperFunction,SMDPad,CuDef*
%ADD17R,1.100000X0.700000*%
G04 #@! TD*
G04 #@! TA.AperFunction,SMDPad,CuDef*
%ADD18R,0.700000X1.100000*%
G04 #@! TD*
G04 #@! TA.AperFunction,SMDPad,CuDef*
%ADD19R,0.900000X1.200000*%
G04 #@! TD*
G04 #@! TA.AperFunction,ComponentPad*
%ADD20R,1.500000X1.500000*%
G04 #@! TD*
G04 #@! TA.AperFunction,ComponentPad*
%ADD21C,1.500000*%
G04 #@! TD*
G04 #@! TA.AperFunction,ComponentPad*
%ADD22O,1.500000X1.500000*%
G04 #@! TD*
G04 #@! TA.AperFunction,ViaPad*
%ADD23C,0.700000*%
G04 #@! TD*
G04 #@! TA.AperFunction,Conductor*
%ADD24C,0.200000*%
G04 #@! TD*
G04 #@! TA.AperFunction,Conductor*
%ADD25C,0.300000*%
G04 #@! TD*
G04 #@! TA.AperFunction,Conductor*
%ADD26C,2.000000*%
G04 #@! TD*
G04 #@! TA.AperFunction,Conductor*
%ADD27C,0.500000*%
G04 #@! TD*
G04 APERTURE END LIST*
D10*
G04 #@! TO.P,REF\002A\002A,1*
G04 #@! TO.N,DIN*
X108700000Y-101550000D03*
D11*
G04 #@! TO.P,REF\002A\002A,2*
G04 #@! TO.N,VIN*
X112700000Y-101550000D03*
G04 #@! TO.P,REF\002A\002A,3*
G04 #@! TO.N,GND*
X116700000Y-101550000D03*
G04 #@! TD*
D12*
G04 #@! TO.P,DD1,1*
G04 #@! TO.N,Net-(DD1-Pad1)*
X109750000Y-85675000D03*
G04 #@! TO.P,DD1,2*
G04 #@! TO.N,Net-(DD1-Pad2)*
X109750000Y-86325000D03*
G04 #@! TO.P,DD1,3*
G04 #@! TO.N,Net-(DD1-Pad3)*
X109750000Y-86975000D03*
G04 #@! TO.P,DD1,4*
G04 #@! TO.N,Net-(C4-Pad1)*
X109750000Y-87625000D03*
G04 #@! TO.P,DD1,5*
G04 #@! TO.N,3V3*
X109750000Y-88275000D03*
G04 #@! TO.P,DD1,6*
G04 #@! TO.N,OUT1*
X109750000Y-88925000D03*
G04 #@! TO.P,DD1,7*
G04 #@! TO.N,OUT2*
X109750000Y-89575000D03*
G04 #@! TO.P,DD1,8*
G04 #@! TO.N,OUT3*
X109750000Y-90225000D03*
G04 #@! TO.P,DD1,9*
G04 #@! TO.N,OUT4*
X109750000Y-90875000D03*
G04 #@! TO.P,DD1,10*
G04 #@! TO.N,OUT6*
X109750000Y-91525000D03*
G04 #@! TO.P,DD1,11*
G04 #@! TO.N,OUT5*
X115650000Y-91525000D03*
G04 #@! TO.P,DD1,12*
G04 #@! TO.N,LED_IN*
X115650000Y-90875000D03*
G04 #@! TO.P,DD1,13*
G04 #@! TO.N,LED_OUT*
X115650000Y-90225000D03*
G04 #@! TO.P,DD1,14*
G04 #@! TO.N,Net-(DD1-Pad14)*
X115650000Y-89575000D03*
G04 #@! TO.P,DD1,15*
G04 #@! TO.N,GND*
X115650000Y-88925000D03*
G04 #@! TO.P,DD1,16*
G04 #@! TO.N,3V3*
X115650000Y-88275000D03*
G04 #@! TO.P,DD1,17*
G04 #@! TO.N,OUT7_TX*
X115650000Y-87625000D03*
G04 #@! TO.P,DD1,18*
G04 #@! TO.N,OUT8_RX*
X115650000Y-86975000D03*
G04 #@! TO.P,DD1,19*
G04 #@! TO.N,SWDIO*
X115650000Y-86325000D03*
G04 #@! TO.P,DD1,20*
G04 #@! TO.N,SWDCLK*
X115650000Y-85675000D03*
G04 #@! TD*
D13*
G04 #@! TO.P,C1,2*
G04 #@! TO.N,GND*
X112050000Y-94450000D03*
G04 #@! TO.P,C1,1*
G04 #@! TO.N,VIN*
X112050000Y-96350000D03*
G04 #@! TD*
G04 #@! TO.P,C2,2*
G04 #@! TO.N,GND*
X118300000Y-98450000D03*
G04 #@! TO.P,C2,1*
G04 #@! TO.N,Net-(C2-Pad1)*
X118300000Y-96550000D03*
G04 #@! TD*
G04 #@! TO.P,C3,1*
G04 #@! TO.N,3V3*
X118300000Y-94250000D03*
G04 #@! TO.P,C3,2*
G04 #@! TO.N,GND*
X118300000Y-92350000D03*
G04 #@! TD*
D14*
G04 #@! TO.P,C4,1*
G04 #@! TO.N,Net-(C4-Pad1)*
X106350000Y-87100000D03*
G04 #@! TO.P,C4,2*
G04 #@! TO.N,GND*
X104450000Y-87100000D03*
G04 #@! TD*
G04 #@! TO.P,C5,2*
G04 #@! TO.N,3V3*
X106350000Y-88600000D03*
G04 #@! TO.P,C5,1*
G04 #@! TO.N,GND*
X104450000Y-88600000D03*
G04 #@! TD*
G04 #@! TO.P,C6,1*
G04 #@! TO.N,GND*
X121000000Y-87600000D03*
G04 #@! TO.P,C6,2*
G04 #@! TO.N,3V3*
X119100000Y-87600000D03*
G04 #@! TD*
D15*
G04 #@! TO.P,C7,1*
G04 #@! TO.N,3V3*
X120500000Y-94101020D03*
G04 #@! TO.P,C7,2*
G04 #@! TO.N,GND*
X120500000Y-98098980D03*
G04 #@! TD*
D13*
G04 #@! TO.P,C8,1*
G04 #@! TO.N,GND*
X105000000Y-95850000D03*
G04 #@! TO.P,C8,2*
G04 #@! TO.N,3V3*
X105000000Y-93950000D03*
G04 #@! TD*
G04 #@! TO.P,C9,2*
G04 #@! TO.N,VIN*
X110700000Y-81000000D03*
G04 #@! TO.P,C9,1*
G04 #@! TO.N,GND*
X110700000Y-82900000D03*
G04 #@! TD*
D16*
G04 #@! TO.P,C10,2*
G04 #@! TO.N,GND*
X116648980Y-78600000D03*
G04 #@! TO.P,C10,1*
G04 #@! TO.N,VIN*
X112651020Y-78600000D03*
G04 #@! TD*
D17*
G04 #@! TO.P,DA1,5*
G04 #@! TO.N,3V3*
X116400000Y-94450000D03*
G04 #@! TO.P,DA1,4*
G04 #@! TO.N,Net-(C2-Pad1)*
X116400000Y-96350000D03*
G04 #@! TO.P,DA1,3*
G04 #@! TO.N,VIN*
X114000000Y-96350000D03*
G04 #@! TO.P,DA1,2*
G04 #@! TO.N,GND*
X114000000Y-95400000D03*
G04 #@! TO.P,DA1,1*
G04 #@! TO.N,VIN*
X114000000Y-94450000D03*
G04 #@! TD*
D18*
G04 #@! TO.P,DD2,1*
G04 #@! TO.N,GND*
X107050000Y-96100000D03*
G04 #@! TO.P,DD2,2*
G04 #@! TO.N,DIN*
X108000000Y-96100000D03*
G04 #@! TO.P,DD2,3*
G04 #@! TO.N,GND*
X108950000Y-96100000D03*
G04 #@! TO.P,DD2,4*
G04 #@! TO.N,LED_IN*
X108950000Y-93700000D03*
G04 #@! TO.P,DD2,5*
G04 #@! TO.N,3V3*
X107050000Y-93700000D03*
G04 #@! TD*
G04 #@! TO.P,DD3,1*
G04 #@! TO.N,GND*
X106950000Y-82450000D03*
G04 #@! TO.P,DD3,2*
G04 #@! TO.N,LED_OUT*
X107900000Y-82450000D03*
G04 #@! TO.P,DD3,3*
G04 #@! TO.N,GND*
X108850000Y-82450000D03*
G04 #@! TO.P,DD3,4*
G04 #@! TO.N,DOUT*
X108850000Y-80050000D03*
G04 #@! TO.P,DD3,5*
G04 #@! TO.N,VIN*
X106950000Y-80050000D03*
G04 #@! TD*
D19*
G04 #@! TO.P,R1,2*
G04 #@! TO.N,GND*
X107500000Y-75600000D03*
G04 #@! TO.P,R1,1*
G04 #@! TO.N,Net-(DD1-Pad1)*
X107500000Y-77800000D03*
G04 #@! TD*
G04 #@! TO.P,R2,1*
G04 #@! TO.N,GND*
X104300000Y-75600000D03*
G04 #@! TO.P,R2,2*
G04 #@! TO.N,Net-(DD1-Pad3)*
X104300000Y-77800000D03*
G04 #@! TD*
G04 #@! TO.P,R3,1*
G04 #@! TO.N,GND*
X105900000Y-75600000D03*
G04 #@! TO.P,R3,2*
G04 #@! TO.N,Net-(DD1-Pad2)*
X105900000Y-77800000D03*
G04 #@! TD*
D20*
G04 #@! TO.P,XP1,1*
G04 #@! TO.N,3V3*
X101500000Y-82400000D03*
D21*
G04 #@! TO.P,XP1,2*
G04 #@! TO.N,Net-(DD1-Pad2)*
X104040000Y-82400000D03*
G04 #@! TO.P,XP1,3*
G04 #@! TO.N,3V3*
X101500000Y-84940000D03*
G04 #@! TO.P,XP1,4*
G04 #@! TO.N,Net-(DD1-Pad3)*
X104040000Y-84940000D03*
G04 #@! TD*
D20*
G04 #@! TO.P,XP2,1*
G04 #@! TO.N,3V3*
X101500000Y-79860000D03*
D22*
G04 #@! TO.P,XP2,2*
G04 #@! TO.N,Net-(DD1-Pad1)*
X104040000Y-79860000D03*
G04 #@! TD*
D21*
G04 #@! TO.P,XP6,3*
G04 #@! TO.N,GND*
X115240000Y-98500000D03*
G04 #@! TO.P,XP6,2*
G04 #@! TO.N,VIN*
X112700000Y-98500000D03*
D20*
G04 #@! TO.P,XP6,1*
G04 #@! TO.N,DIN*
X110160000Y-98500000D03*
G04 #@! TD*
G04 #@! TO.P,XP7,1*
G04 #@! TO.N,DOUT*
X110160000Y-76100000D03*
D21*
G04 #@! TO.P,XP7,2*
G04 #@! TO.N,VIN*
X112700000Y-76100000D03*
G04 #@! TO.P,XP7,3*
G04 #@! TO.N,GND*
X115240000Y-76100000D03*
G04 #@! TD*
D20*
G04 #@! TO.P,XP5,1*
G04 #@! TO.N,SWDIO*
X123900000Y-79860000D03*
D22*
G04 #@! TO.P,XP5,2*
G04 #@! TO.N,SWDCLK*
X121360000Y-79860000D03*
G04 #@! TD*
D20*
G04 #@! TO.P,XP3,1*
G04 #@! TO.N,OUT4*
X101500000Y-95100000D03*
D22*
G04 #@! TO.P,XP3,2*
G04 #@! TO.N,OUT3*
X101500000Y-92560000D03*
G04 #@! TO.P,XP3,3*
G04 #@! TO.N,OUT2*
X101500000Y-90020000D03*
G04 #@! TO.P,XP3,4*
G04 #@! TO.N,OUT1*
X101500000Y-87480000D03*
G04 #@! TD*
D20*
G04 #@! TO.P,XP4,1*
G04 #@! TO.N,OUT5*
X123900000Y-95100000D03*
D21*
G04 #@! TO.P,XP4,2*
G04 #@! TO.N,OUT6*
X123900000Y-92560000D03*
G04 #@! TO.P,XP4,3*
G04 #@! TO.N,OUT7_TX*
X123900000Y-90020000D03*
G04 #@! TO.P,XP4,4*
G04 #@! TO.N,OUT8_RX*
X123900000Y-87480000D03*
G04 #@! TO.P,XP4,5*
G04 #@! TO.N,GND*
X123900000Y-84940000D03*
G04 #@! TO.P,XP4,6*
G04 #@! TO.N,VIN*
X123900000Y-82400000D03*
G04 #@! TD*
D11*
G04 #@! TO.P,REF\002A\002A,3*
G04 #@! TO.N,GND*
X116700000Y-73050000D03*
G04 #@! TO.P,REF\002A\002A,2*
G04 #@! TO.N,VIN*
X112700000Y-73050000D03*
D10*
G04 #@! TO.P,REF\002A\002A,1*
G04 #@! TO.N,DOUT*
X108700000Y-73050000D03*
G04 #@! TD*
D23*
G04 #@! TO.N,GND*
X111000000Y-94450000D03*
X106950000Y-83650000D03*
X108850000Y-83650000D03*
X109950000Y-96100000D03*
X103250000Y-76700000D03*
X108950000Y-78250000D03*
X102050000Y-77900000D03*
X118000000Y-89400000D03*
X120300000Y-89400000D03*
X110700000Y-84100000D03*
X121000000Y-76000000D03*
X118500000Y-76000000D03*
X119000000Y-78600000D03*
X114500000Y-82300000D03*
X117700000Y-82300000D03*
X116100000Y-82300000D03*
X114500000Y-84500000D03*
X122200000Y-97300000D03*
X122000000Y-89400000D03*
X121000000Y-86600000D03*
X115300000Y-93200000D03*
X103900000Y-95900000D03*
X107000000Y-97500000D03*
X105000000Y-97500000D03*
X107000000Y-99000000D03*
X103900000Y-99000000D03*
X117500000Y-83700000D03*
X103250000Y-87850000D03*
X103600000Y-89650000D03*
X105000000Y-89650000D03*
G04 #@! TO.N,VIN*
X112200000Y-80000000D03*
X113200000Y-80000000D03*
X112200000Y-81000000D03*
X113200000Y-81000000D03*
X112200000Y-88800000D03*
X112200000Y-87800000D03*
X113200000Y-87800000D03*
X113200000Y-88800000D03*
G04 #@! TO.N,3V3*
X106350000Y-89650000D03*
X103950000Y-93950000D03*
X120500000Y-92050000D03*
X119100000Y-88650000D03*
G04 #@! TD*
D24*
G04 #@! TO.N,GND*
X112050000Y-94450000D02*
X111000000Y-94450000D01*
D25*
X106950000Y-82450000D02*
X106950000Y-83650000D01*
X108850000Y-82450000D02*
X108850000Y-83650000D01*
D26*
X116700000Y-73050000D02*
X116700000Y-74700000D01*
X116700000Y-101550000D02*
X116700000Y-99800000D01*
D25*
X115650000Y-88925000D02*
X116975000Y-88925000D01*
X115650000Y-88925000D02*
X114375000Y-88925000D01*
D26*
G04 #@! TO.N,VIN*
X112700000Y-76100000D02*
X112700000Y-78098980D01*
D27*
X112050000Y-97850000D02*
X112700000Y-98500000D01*
X112050000Y-96350000D02*
X112050000Y-97850000D01*
X112050000Y-96350000D02*
X114000000Y-96350000D01*
X114950000Y-94450000D02*
X114000000Y-94450000D01*
X115300000Y-94800000D02*
X114950000Y-94450000D01*
X115300000Y-96000000D02*
X115300000Y-94800000D01*
X114000000Y-96350000D02*
X114950000Y-96350000D01*
X114950000Y-96350000D02*
X115300000Y-96000000D01*
D26*
X112700000Y-76100000D02*
X112700000Y-88550000D01*
D25*
X106950000Y-80050000D02*
X106950000Y-80950000D01*
X106950000Y-80950000D02*
X107250000Y-81250000D01*
X110450000Y-81250000D02*
X110700000Y-81000000D01*
X107250000Y-81250000D02*
X110450000Y-81250000D01*
X110700000Y-81000000D02*
X112200000Y-81000000D01*
D26*
X112700000Y-76100000D02*
X112700000Y-73050000D01*
D27*
G04 #@! TO.N,Net-(C2-Pad1)*
X118100000Y-96350000D02*
X118300000Y-96550000D01*
X116400000Y-96350000D02*
X118100000Y-96350000D01*
D25*
G04 #@! TO.N,3V3*
X107350000Y-88600000D02*
X106350000Y-88600000D01*
X108325000Y-88275000D02*
X107675000Y-88275000D01*
X107675000Y-88275000D02*
X107350000Y-88600000D01*
X108325000Y-88275000D02*
X109750000Y-88275000D01*
D27*
X101500000Y-79860000D02*
X101500000Y-82400000D01*
X101500000Y-82400000D02*
X101500000Y-84940000D01*
X118100000Y-94450000D02*
X118300000Y-94250000D01*
X116400000Y-94450000D02*
X118100000Y-94450000D01*
X120351020Y-94250000D02*
X120500000Y-94101020D01*
X118300000Y-94250000D02*
X120351020Y-94250000D01*
X106350000Y-88600000D02*
X106350000Y-89650000D01*
X103950000Y-93950000D02*
X105000000Y-93950000D01*
D25*
X115650000Y-88275000D02*
X117300000Y-88275000D01*
D24*
X117300000Y-88275000D02*
X117550000Y-88275000D01*
D27*
X120500000Y-94101020D02*
X120500000Y-92050000D01*
X119100000Y-88650000D02*
X119100000Y-87600000D01*
X117475000Y-88275000D02*
X117300000Y-88275000D01*
X119100000Y-87600000D02*
X118150000Y-87600000D01*
X118150000Y-87600000D02*
X117475000Y-88275000D01*
X105000000Y-93700000D02*
X105000000Y-93950000D01*
X107050000Y-93700000D02*
X105000000Y-93700000D01*
D25*
G04 #@! TO.N,Net-(C4-Pad1)*
X107300000Y-87100000D02*
X106350000Y-87100000D01*
X107300000Y-87100000D02*
X107825000Y-87625000D01*
X107825000Y-87625000D02*
X108300000Y-87625000D01*
X109750000Y-87625000D02*
X108300000Y-87625000D01*
D24*
G04 #@! TO.N,Net-(DD1-Pad1)*
X107500000Y-77950000D02*
X107500000Y-77800000D01*
X105590000Y-79860000D02*
X107500000Y-77950000D01*
X104040000Y-79860000D02*
X105350000Y-79860000D01*
X105350000Y-79860000D02*
X105590000Y-79860000D01*
X108525000Y-85675000D02*
X109750000Y-85675000D01*
X106950000Y-85200000D02*
X108050000Y-85200000D01*
X105350000Y-79860000D02*
X105350000Y-83600000D01*
X108050000Y-85200000D02*
X108525000Y-85675000D01*
X105350000Y-83600000D02*
X106950000Y-85200000D01*
G04 #@! TO.N,Net-(DD1-Pad2)*
X102950000Y-79350000D02*
X103550000Y-78750000D01*
X104040000Y-82400000D02*
X102950000Y-81310000D01*
X102950000Y-81310000D02*
X102950000Y-79350000D01*
X103550000Y-78750000D02*
X105100000Y-78750000D01*
X105900000Y-77950000D02*
X105900000Y-77800000D01*
X105100000Y-78750000D02*
X105900000Y-77950000D01*
X104040000Y-83090000D02*
X104040000Y-82400000D01*
X106650000Y-85700000D02*
X104040000Y-83090000D01*
X107800000Y-85700000D02*
X106650000Y-85700000D01*
X109750000Y-86325000D02*
X108425000Y-86325000D01*
X108425000Y-86325000D02*
X107800000Y-85700000D01*
G04 #@! TO.N,Net-(DD1-Pad3)*
X102550000Y-83450000D02*
X104040000Y-84940000D01*
X102550000Y-78650000D02*
X102550000Y-83450000D01*
X104300000Y-77800000D02*
X103400000Y-77800000D01*
X103400000Y-77800000D02*
X102550000Y-78650000D01*
X107550000Y-86200000D02*
X108325000Y-86975000D01*
X104040000Y-84940000D02*
X105300000Y-86200000D01*
X108325000Y-86975000D02*
X109750000Y-86975000D01*
X105300000Y-86200000D02*
X107550000Y-86200000D01*
G04 #@! TO.N,OUT1*
X102800000Y-88780000D02*
X101500000Y-87480000D01*
X102800000Y-90000000D02*
X102800000Y-88780000D01*
X103300000Y-90500000D02*
X102800000Y-90000000D01*
X106750000Y-90500000D02*
X103300000Y-90500000D01*
X109750000Y-88925000D02*
X108325000Y-88925000D01*
X108325000Y-88925000D02*
X106750000Y-90500000D01*
G04 #@! TO.N,OUT2*
X101500000Y-90020000D02*
X101520000Y-90020000D01*
X109750000Y-89575000D02*
X108425000Y-89575000D01*
X108425000Y-89575000D02*
X107000000Y-91000000D01*
X107000000Y-91000000D02*
X102480000Y-91000000D01*
X102480000Y-91000000D02*
X101500000Y-90020000D01*
G04 #@! TO.N,OUT3*
X109750000Y-90225000D02*
X108525000Y-90225000D01*
X101500000Y-92560000D02*
X102560000Y-91500000D01*
X102560000Y-91500000D02*
X107250000Y-91500000D01*
X107250000Y-91500000D02*
X108525000Y-90225000D01*
G04 #@! TO.N,OUT4*
X107500000Y-92000000D02*
X108625000Y-90875000D01*
X109750000Y-90875000D02*
X108625000Y-90875000D01*
X107500000Y-92000000D02*
X103300000Y-92000000D01*
X103300000Y-92000000D02*
X102800000Y-92500000D01*
X102800000Y-93800000D02*
X101500000Y-95100000D01*
X102800000Y-92500000D02*
X102800000Y-93800000D01*
G04 #@! TO.N,OUT5*
X125000000Y-94000000D02*
X123900000Y-95100000D01*
X125000000Y-91900000D02*
X125000000Y-94000000D01*
X115650000Y-91525000D02*
X116725000Y-91525000D01*
X116725000Y-91525000D02*
X118000000Y-90250000D01*
X118000000Y-90250000D02*
X122300000Y-90250000D01*
X122300000Y-90250000D02*
X123350000Y-91300000D01*
X123350000Y-91300000D02*
X124400000Y-91300000D01*
X124400000Y-91300000D02*
X125000000Y-91900000D01*
G04 #@! TO.N,OUT6*
X122490000Y-91150000D02*
X123900000Y-92560000D01*
X122090000Y-90750000D02*
X122490000Y-91150000D01*
X118250000Y-90750000D02*
X122090000Y-90750000D01*
X116750000Y-92250000D02*
X118250000Y-90750000D01*
X111950000Y-92250000D02*
X116750000Y-92250000D01*
X108725000Y-91525000D02*
X108000000Y-92250000D01*
X109750000Y-91525000D02*
X108725000Y-91525000D01*
X108000000Y-92250000D02*
X108000000Y-94450000D01*
X108000000Y-94450000D02*
X108450000Y-94900000D01*
X108450000Y-94900000D02*
X109300000Y-94900000D01*
X109300000Y-94900000D02*
X111950000Y-92250000D01*
G04 #@! TO.N,LED_IN*
X109650000Y-93700000D02*
X108950000Y-93700000D01*
X115650000Y-90875000D02*
X112475000Y-90875000D01*
X112475000Y-90875000D02*
X109650000Y-93700000D01*
G04 #@! TO.N,LED_OUT*
X111775000Y-90225000D02*
X115650000Y-90225000D01*
X107900000Y-84000000D02*
X108800000Y-84900000D01*
X107900000Y-82450000D02*
X107900000Y-84000000D01*
X108800000Y-84900000D02*
X110650000Y-84900000D01*
X110650000Y-84900000D02*
X111100000Y-85350000D01*
X111100000Y-85350000D02*
X111100000Y-89550000D01*
X111100000Y-89550000D02*
X111775000Y-90225000D01*
G04 #@! TO.N,OUT7_TX*
X122600000Y-88720000D02*
X123900000Y-90020000D01*
X122600000Y-86900000D02*
X122600000Y-88720000D01*
X121400000Y-85700000D02*
X122600000Y-86900000D01*
X119000000Y-85700000D02*
X121400000Y-85700000D01*
X115650000Y-87625000D02*
X117075000Y-87625000D01*
X117075000Y-87625000D02*
X119000000Y-85700000D01*
G04 #@! TO.N,OUT8_RX*
X121620000Y-85200000D02*
X123900000Y-87480000D01*
X118750000Y-85200000D02*
X121620000Y-85200000D01*
X115650000Y-86975000D02*
X116975000Y-86975000D01*
X116975000Y-86975000D02*
X118750000Y-85200000D01*
G04 #@! TO.N,SWDIO*
X116875000Y-86325000D02*
X115650000Y-86325000D01*
X118500000Y-84700000D02*
X116875000Y-86325000D01*
X121700000Y-84700000D02*
X118500000Y-84700000D01*
X122600000Y-83800000D02*
X121700000Y-84700000D01*
X123900000Y-79860000D02*
X122600000Y-81160000D01*
X122600000Y-81160000D02*
X122600000Y-83800000D01*
G04 #@! TO.N,SWDCLK*
X116775000Y-85675000D02*
X115650000Y-85675000D01*
X121360000Y-80410000D02*
X122100000Y-81150000D01*
X121360000Y-79860000D02*
X121360000Y-80410000D01*
X122100000Y-81150000D02*
X122100000Y-83550000D01*
X122100000Y-83550000D02*
X121450000Y-84200000D01*
X121450000Y-84200000D02*
X118250000Y-84200000D01*
X118250000Y-84200000D02*
X116775000Y-85675000D01*
D25*
G04 #@! TO.N,DIN*
X108900000Y-98500000D02*
X110160000Y-98500000D01*
X108000000Y-96100000D02*
X108000000Y-97600000D01*
X108000000Y-97600000D02*
X108900000Y-98500000D01*
X110160000Y-100090000D02*
X110160000Y-98500000D01*
X108700000Y-101550000D02*
X110160000Y-100090000D01*
G04 #@! TO.N,DOUT*
X110160000Y-76100000D02*
X110160000Y-78540000D01*
X108850000Y-79850000D02*
X108850000Y-80050000D01*
X110160000Y-78540000D02*
X108850000Y-79850000D01*
X110160000Y-76100000D02*
X110160000Y-76110000D01*
X110160000Y-74510000D02*
X108700000Y-73050000D01*
X110160000Y-76100000D02*
X110160000Y-74510000D01*
G04 #@! TD*
D24*
G04 #@! TO.N,GND*
G36*
X122153812Y-91520919D02*
X122153823Y-91520928D01*
X122812722Y-92179827D01*
X122794194Y-92224557D01*
X122750000Y-92446735D01*
X122750000Y-92673265D01*
X122794194Y-92895443D01*
X122880884Y-93104729D01*
X123006737Y-93293082D01*
X123166918Y-93453263D01*
X123355271Y-93579116D01*
X123564557Y-93665806D01*
X123786735Y-93710000D01*
X124013265Y-93710000D01*
X124235443Y-93665806D01*
X124444729Y-93579116D01*
X124500001Y-93542185D01*
X124500001Y-93792893D01*
X124344829Y-93948065D01*
X123150000Y-93948065D01*
X123071586Y-93955788D01*
X122996186Y-93978660D01*
X122926697Y-94015803D01*
X122865789Y-94065789D01*
X122815803Y-94126697D01*
X122778660Y-94196186D01*
X122755788Y-94271586D01*
X122748065Y-94350000D01*
X122748065Y-95850000D01*
X122755788Y-95928414D01*
X122778660Y-96003814D01*
X122815803Y-96073303D01*
X122865789Y-96134211D01*
X122926697Y-96184197D01*
X122996186Y-96221340D01*
X123071586Y-96244212D01*
X123150000Y-96251935D01*
X124650000Y-96251935D01*
X124728414Y-96244212D01*
X124803814Y-96221340D01*
X124873303Y-96184197D01*
X124925001Y-96141769D01*
X124925001Y-96423955D01*
X124349919Y-96538346D01*
X123694760Y-96809721D01*
X123105134Y-97203697D01*
X122603697Y-97705134D01*
X122209721Y-98294760D01*
X121938346Y-98949919D01*
X121800000Y-99645431D01*
X121800000Y-99900000D01*
X121514666Y-99900000D01*
X121560700Y-99853966D01*
X121604475Y-99788451D01*
X121634628Y-99715656D01*
X121650000Y-99638377D01*
X121650000Y-98348980D01*
X121550000Y-98248980D01*
X120650000Y-98248980D01*
X120650000Y-98268980D01*
X120350000Y-98268980D01*
X120350000Y-98248980D01*
X119450000Y-98248980D01*
X119350000Y-98348980D01*
X119350000Y-99638377D01*
X119365372Y-99715656D01*
X119395525Y-99788451D01*
X119439300Y-99853966D01*
X119485334Y-99900000D01*
X116738677Y-99900000D01*
X116614941Y-99894199D01*
X116576429Y-99900000D01*
X110710000Y-99900000D01*
X110710000Y-99651935D01*
X110910000Y-99651935D01*
X110988414Y-99644212D01*
X111063814Y-99621340D01*
X111133303Y-99584197D01*
X111194211Y-99534211D01*
X111244197Y-99473303D01*
X111281340Y-99403814D01*
X111304212Y-99328414D01*
X111311935Y-99250000D01*
X111311935Y-97750000D01*
X111304212Y-97671586D01*
X111281340Y-97596186D01*
X111244197Y-97526697D01*
X111194211Y-97465789D01*
X111133303Y-97415803D01*
X111063814Y-97378660D01*
X110988414Y-97355788D01*
X110910000Y-97348065D01*
X109410000Y-97348065D01*
X109331586Y-97355788D01*
X109256186Y-97378660D01*
X109186697Y-97415803D01*
X109125789Y-97465789D01*
X109075803Y-97526697D01*
X109038660Y-97596186D01*
X109015788Y-97671586D01*
X109008065Y-97750000D01*
X109008065Y-97830247D01*
X108550000Y-97372183D01*
X108550000Y-97047891D01*
X108560604Y-97050000D01*
X108700000Y-97050000D01*
X108800000Y-96950000D01*
X108800000Y-96250000D01*
X109100000Y-96250000D01*
X109100000Y-96950000D01*
X109200000Y-97050000D01*
X109339396Y-97050000D01*
X109416675Y-97034628D01*
X109489471Y-97004476D01*
X109554985Y-96960701D01*
X109610700Y-96904986D01*
X109654475Y-96839471D01*
X109684628Y-96766676D01*
X109700000Y-96689397D01*
X109700000Y-96350000D01*
X109600000Y-96250000D01*
X109100000Y-96250000D01*
X108800000Y-96250000D01*
X108780000Y-96250000D01*
X108780000Y-95950000D01*
X108800000Y-95950000D01*
X108800000Y-95930000D01*
X109100000Y-95930000D01*
X109100000Y-95950000D01*
X109600000Y-95950000D01*
X109700000Y-95850000D01*
X109700000Y-95750000D01*
X111273065Y-95750000D01*
X111273065Y-96950000D01*
X111280788Y-97028414D01*
X111303660Y-97103814D01*
X111340803Y-97173303D01*
X111390789Y-97234211D01*
X111400001Y-97241771D01*
X111400001Y-97818069D01*
X111396856Y-97850000D01*
X111400001Y-97881932D01*
X111403056Y-97912946D01*
X111409406Y-97977422D01*
X111446573Y-98099947D01*
X111506930Y-98212868D01*
X111567802Y-98287040D01*
X111567805Y-98287043D01*
X111569435Y-98289029D01*
X111550000Y-98386735D01*
X111550000Y-98613265D01*
X111594194Y-98835443D01*
X111680884Y-99044729D01*
X111806737Y-99233082D01*
X111966918Y-99393263D01*
X112155271Y-99519116D01*
X112364557Y-99605806D01*
X112586735Y-99650000D01*
X112813265Y-99650000D01*
X113035443Y-99605806D01*
X113244729Y-99519116D01*
X113433082Y-99393263D01*
X113481457Y-99344888D01*
X114607244Y-99344888D01*
X114687876Y-99515129D01*
X114896526Y-99603338D01*
X115118377Y-99649145D01*
X115344901Y-99650792D01*
X115567393Y-99608215D01*
X115777305Y-99523049D01*
X115792124Y-99515129D01*
X115872756Y-99344888D01*
X115240000Y-98712132D01*
X114607244Y-99344888D01*
X113481457Y-99344888D01*
X113593263Y-99233082D01*
X113719116Y-99044729D01*
X113805806Y-98835443D01*
X113850000Y-98613265D01*
X113850000Y-98604901D01*
X114089208Y-98604901D01*
X114131785Y-98827393D01*
X114216951Y-99037305D01*
X114224871Y-99052124D01*
X114395112Y-99132756D01*
X115027868Y-98500000D01*
X115452132Y-98500000D01*
X116084888Y-99132756D01*
X116255129Y-99052124D01*
X116343338Y-98843474D01*
X116372961Y-98700000D01*
X117525000Y-98700000D01*
X117525000Y-99089397D01*
X117540372Y-99166676D01*
X117570525Y-99239471D01*
X117614300Y-99304986D01*
X117670015Y-99360701D01*
X117735529Y-99404476D01*
X117808325Y-99434628D01*
X117885604Y-99450000D01*
X118050000Y-99450000D01*
X118150000Y-99350000D01*
X118150000Y-98600000D01*
X118450000Y-98600000D01*
X118450000Y-99350000D01*
X118550000Y-99450000D01*
X118714396Y-99450000D01*
X118791675Y-99434628D01*
X118864471Y-99404476D01*
X118929985Y-99360701D01*
X118985700Y-99304986D01*
X119029475Y-99239471D01*
X119059628Y-99166676D01*
X119075000Y-99089397D01*
X119075000Y-98700000D01*
X118975000Y-98600000D01*
X118450000Y-98600000D01*
X118150000Y-98600000D01*
X117625000Y-98600000D01*
X117525000Y-98700000D01*
X116372961Y-98700000D01*
X116389145Y-98621623D01*
X116390792Y-98395099D01*
X116348215Y-98172607D01*
X116263049Y-97962695D01*
X116255129Y-97947876D01*
X116084888Y-97867244D01*
X115452132Y-98500000D01*
X115027868Y-98500000D01*
X114395112Y-97867244D01*
X114224871Y-97947876D01*
X114136662Y-98156526D01*
X114090855Y-98378377D01*
X114089208Y-98604901D01*
X113850000Y-98604901D01*
X113850000Y-98386735D01*
X113805806Y-98164557D01*
X113719116Y-97955271D01*
X113593263Y-97766918D01*
X113481457Y-97655112D01*
X114607244Y-97655112D01*
X115240000Y-98287868D01*
X115872756Y-97655112D01*
X115792124Y-97484871D01*
X115583474Y-97396662D01*
X115361623Y-97350855D01*
X115135099Y-97349208D01*
X114912607Y-97391785D01*
X114702695Y-97476951D01*
X114687876Y-97484871D01*
X114607244Y-97655112D01*
X113481457Y-97655112D01*
X113433082Y-97606737D01*
X113244729Y-97480884D01*
X113035443Y-97394194D01*
X112813265Y-97350000D01*
X112700000Y-97350000D01*
X112700000Y-97241770D01*
X112709211Y-97234211D01*
X112759197Y-97173303D01*
X112796340Y-97103814D01*
X112819212Y-97028414D01*
X112822010Y-97000000D01*
X113185028Y-97000000D01*
X113226697Y-97034197D01*
X113296186Y-97071340D01*
X113371586Y-97094212D01*
X113450000Y-97101935D01*
X114550000Y-97101935D01*
X114628414Y-97094212D01*
X114703814Y-97071340D01*
X114773303Y-97034197D01*
X114814972Y-97000000D01*
X114918079Y-97000000D01*
X114950000Y-97003144D01*
X114981921Y-97000000D01*
X114981932Y-97000000D01*
X115077422Y-96990595D01*
X115199948Y-96953427D01*
X115312868Y-96893070D01*
X115411843Y-96811843D01*
X115432201Y-96787037D01*
X115454446Y-96764792D01*
X115455788Y-96778414D01*
X115478660Y-96853814D01*
X115515803Y-96923303D01*
X115565789Y-96984211D01*
X115626697Y-97034197D01*
X115696186Y-97071340D01*
X115771586Y-97094212D01*
X115850000Y-97101935D01*
X116950000Y-97101935D01*
X117028414Y-97094212D01*
X117103814Y-97071340D01*
X117173303Y-97034197D01*
X117214972Y-97000000D01*
X117523065Y-97000000D01*
X117523065Y-97150000D01*
X117530788Y-97228414D01*
X117553660Y-97303814D01*
X117590803Y-97373303D01*
X117640789Y-97434211D01*
X117701697Y-97484197D01*
X117729911Y-97499278D01*
X117670015Y-97539299D01*
X117614300Y-97595014D01*
X117570525Y-97660529D01*
X117540372Y-97733324D01*
X117525000Y-97810603D01*
X117525000Y-98200000D01*
X117625000Y-98300000D01*
X118150000Y-98300000D01*
X118150000Y-98280000D01*
X118450000Y-98280000D01*
X118450000Y-98300000D01*
X118975000Y-98300000D01*
X119075000Y-98200000D01*
X119075000Y-97810603D01*
X119059628Y-97733324D01*
X119029475Y-97660529D01*
X118985700Y-97595014D01*
X118929985Y-97539299D01*
X118870089Y-97499278D01*
X118898303Y-97484197D01*
X118959211Y-97434211D01*
X119009197Y-97373303D01*
X119046340Y-97303814D01*
X119069212Y-97228414D01*
X119076935Y-97150000D01*
X119076935Y-96559583D01*
X119350000Y-96559583D01*
X119350000Y-97848980D01*
X119450000Y-97948980D01*
X120350000Y-97948980D01*
X120350000Y-96298980D01*
X120650000Y-96298980D01*
X120650000Y-97948980D01*
X121550000Y-97948980D01*
X121650000Y-97848980D01*
X121650000Y-96559583D01*
X121634628Y-96482304D01*
X121604475Y-96409509D01*
X121560700Y-96343994D01*
X121504985Y-96288279D01*
X121439471Y-96244504D01*
X121366675Y-96214352D01*
X121289396Y-96198980D01*
X120750000Y-96198980D01*
X120650000Y-96298980D01*
X120350000Y-96298980D01*
X120250000Y-96198980D01*
X119710604Y-96198980D01*
X119633325Y-96214352D01*
X119560529Y-96244504D01*
X119495015Y-96288279D01*
X119439300Y-96343994D01*
X119395525Y-96409509D01*
X119365372Y-96482304D01*
X119350000Y-96559583D01*
X119076935Y-96559583D01*
X119076935Y-95950000D01*
X119069212Y-95871586D01*
X119046340Y-95796186D01*
X119009197Y-95726697D01*
X118959211Y-95665789D01*
X118898303Y-95615803D01*
X118828814Y-95578660D01*
X118753414Y-95555788D01*
X118675000Y-95548065D01*
X117925000Y-95548065D01*
X117846586Y-95555788D01*
X117771186Y-95578660D01*
X117701697Y-95615803D01*
X117640789Y-95665789D01*
X117612713Y-95700000D01*
X117214972Y-95700000D01*
X117173303Y-95665803D01*
X117103814Y-95628660D01*
X117028414Y-95605788D01*
X116950000Y-95598065D01*
X115950000Y-95598065D01*
X115950000Y-95201935D01*
X116950000Y-95201935D01*
X117028414Y-95194212D01*
X117103814Y-95171340D01*
X117173303Y-95134197D01*
X117214972Y-95100000D01*
X117612713Y-95100000D01*
X117640789Y-95134211D01*
X117701697Y-95184197D01*
X117771186Y-95221340D01*
X117846586Y-95244212D01*
X117925000Y-95251935D01*
X118675000Y-95251935D01*
X118753414Y-95244212D01*
X118828814Y-95221340D01*
X118898303Y-95184197D01*
X118959211Y-95134211D01*
X119009197Y-95073303D01*
X119046340Y-95003814D01*
X119069212Y-94928414D01*
X119072010Y-94900000D01*
X119348065Y-94900000D01*
X119348065Y-95601020D01*
X119355788Y-95679434D01*
X119378660Y-95754834D01*
X119415803Y-95824323D01*
X119465789Y-95885231D01*
X119526697Y-95935217D01*
X119596186Y-95972360D01*
X119671586Y-95995232D01*
X119750000Y-96002955D01*
X121250000Y-96002955D01*
X121328414Y-95995232D01*
X121403814Y-95972360D01*
X121473303Y-95935217D01*
X121534211Y-95885231D01*
X121584197Y-95824323D01*
X121621340Y-95754834D01*
X121644212Y-95679434D01*
X121651935Y-95601020D01*
X121651935Y-92601020D01*
X121644212Y-92522606D01*
X121621340Y-92447206D01*
X121584197Y-92377717D01*
X121534211Y-92316809D01*
X121473303Y-92266823D01*
X121403814Y-92229680D01*
X121328414Y-92206808D01*
X121250000Y-92199085D01*
X121235039Y-92199085D01*
X121250000Y-92123869D01*
X121250000Y-91976131D01*
X121221178Y-91831233D01*
X121164641Y-91694742D01*
X121082563Y-91571903D01*
X120978097Y-91467437D01*
X120855258Y-91385359D01*
X120718767Y-91328822D01*
X120573869Y-91300000D01*
X120426131Y-91300000D01*
X120281233Y-91328822D01*
X120144742Y-91385359D01*
X120021903Y-91467437D01*
X119917437Y-91571903D01*
X119835359Y-91694742D01*
X119778822Y-91831233D01*
X119750000Y-91976131D01*
X119750000Y-92123869D01*
X119764961Y-92199085D01*
X119750000Y-92199085D01*
X119671586Y-92206808D01*
X119596186Y-92229680D01*
X119526697Y-92266823D01*
X119465789Y-92316809D01*
X119415803Y-92377717D01*
X119378660Y-92447206D01*
X119355788Y-92522606D01*
X119348065Y-92601020D01*
X119348065Y-93600000D01*
X119072010Y-93600000D01*
X119069212Y-93571586D01*
X119046340Y-93496186D01*
X119009197Y-93426697D01*
X118959211Y-93365789D01*
X118898303Y-93315803D01*
X118870089Y-93300722D01*
X118929985Y-93260701D01*
X118985700Y-93204986D01*
X119029475Y-93139471D01*
X119059628Y-93066676D01*
X119075000Y-92989397D01*
X119075000Y-92600000D01*
X118975000Y-92500000D01*
X118450000Y-92500000D01*
X118450000Y-92520000D01*
X118150000Y-92520000D01*
X118150000Y-92500000D01*
X117625000Y-92500000D01*
X117525000Y-92600000D01*
X117525000Y-92989397D01*
X117540372Y-93066676D01*
X117570525Y-93139471D01*
X117614300Y-93204986D01*
X117670015Y-93260701D01*
X117729911Y-93300722D01*
X117701697Y-93315803D01*
X117640789Y-93365789D01*
X117590803Y-93426697D01*
X117553660Y-93496186D01*
X117530788Y-93571586D01*
X117523065Y-93650000D01*
X117523065Y-93800000D01*
X117214972Y-93800000D01*
X117173303Y-93765803D01*
X117103814Y-93728660D01*
X117028414Y-93705788D01*
X116950000Y-93698065D01*
X115850000Y-93698065D01*
X115771586Y-93705788D01*
X115696186Y-93728660D01*
X115626697Y-93765803D01*
X115565789Y-93815789D01*
X115515803Y-93876697D01*
X115478660Y-93946186D01*
X115455788Y-94021586D01*
X115454446Y-94035208D01*
X115432198Y-94012960D01*
X115411843Y-93988157D01*
X115312868Y-93906930D01*
X115199948Y-93846573D01*
X115077422Y-93809405D01*
X114981932Y-93800000D01*
X114981921Y-93800000D01*
X114950000Y-93796856D01*
X114918079Y-93800000D01*
X114814972Y-93800000D01*
X114773303Y-93765803D01*
X114703814Y-93728660D01*
X114628414Y-93705788D01*
X114550000Y-93698065D01*
X113450000Y-93698065D01*
X113371586Y-93705788D01*
X113296186Y-93728660D01*
X113226697Y-93765803D01*
X113165789Y-93815789D01*
X113115803Y-93876697D01*
X113078660Y-93946186D01*
X113055788Y-94021586D01*
X113048065Y-94100000D01*
X113048065Y-94800000D01*
X113055788Y-94878414D01*
X113069455Y-94923468D01*
X113065372Y-94933325D01*
X113050000Y-95010604D01*
X113050000Y-95150000D01*
X113150000Y-95250000D01*
X113850000Y-95250000D01*
X113850000Y-95230000D01*
X114150000Y-95230000D01*
X114150000Y-95250000D01*
X114170000Y-95250000D01*
X114170000Y-95550000D01*
X114150000Y-95550000D01*
X114150000Y-95570000D01*
X113850000Y-95570000D01*
X113850000Y-95550000D01*
X113150000Y-95550000D01*
X113050000Y-95650000D01*
X113050000Y-95700000D01*
X112822010Y-95700000D01*
X112819212Y-95671586D01*
X112796340Y-95596186D01*
X112759197Y-95526697D01*
X112709211Y-95465789D01*
X112648303Y-95415803D01*
X112620089Y-95400722D01*
X112679985Y-95360701D01*
X112735700Y-95304986D01*
X112779475Y-95239471D01*
X112809628Y-95166676D01*
X112825000Y-95089397D01*
X112825000Y-94700000D01*
X112725000Y-94600000D01*
X112200000Y-94600000D01*
X112200000Y-94620000D01*
X111900000Y-94620000D01*
X111900000Y-94600000D01*
X111375000Y-94600000D01*
X111275000Y-94700000D01*
X111275000Y-95089397D01*
X111290372Y-95166676D01*
X111320525Y-95239471D01*
X111364300Y-95304986D01*
X111420015Y-95360701D01*
X111479911Y-95400722D01*
X111451697Y-95415803D01*
X111390789Y-95465789D01*
X111340803Y-95526697D01*
X111303660Y-95596186D01*
X111280788Y-95671586D01*
X111273065Y-95750000D01*
X109700000Y-95750000D01*
X109700000Y-95510603D01*
X109684628Y-95433324D01*
X109654475Y-95360529D01*
X109610700Y-95295014D01*
X109608955Y-95293269D01*
X109655264Y-95255264D01*
X109670929Y-95236176D01*
X111096502Y-93810603D01*
X111275000Y-93810603D01*
X111275000Y-94200000D01*
X111375000Y-94300000D01*
X111900000Y-94300000D01*
X111900000Y-93550000D01*
X112200000Y-93550000D01*
X112200000Y-94300000D01*
X112725000Y-94300000D01*
X112825000Y-94200000D01*
X112825000Y-93810603D01*
X112809628Y-93733324D01*
X112779475Y-93660529D01*
X112735700Y-93595014D01*
X112679985Y-93539299D01*
X112614471Y-93495524D01*
X112541675Y-93465372D01*
X112464396Y-93450000D01*
X112300000Y-93450000D01*
X112200000Y-93550000D01*
X111900000Y-93550000D01*
X111800000Y-93450000D01*
X111635604Y-93450000D01*
X111558325Y-93465372D01*
X111485529Y-93495524D01*
X111420015Y-93539299D01*
X111364300Y-93595014D01*
X111320525Y-93660529D01*
X111290372Y-93733324D01*
X111275000Y-93810603D01*
X111096502Y-93810603D01*
X112157106Y-92750000D01*
X116725440Y-92750000D01*
X116750000Y-92752419D01*
X116774560Y-92750000D01*
X116848017Y-92742765D01*
X116942267Y-92714175D01*
X117029129Y-92667746D01*
X117105264Y-92605264D01*
X117120929Y-92586176D01*
X117566053Y-92141053D01*
X117625000Y-92200000D01*
X118150000Y-92200000D01*
X118150000Y-92180000D01*
X118450000Y-92180000D01*
X118450000Y-92200000D01*
X118975000Y-92200000D01*
X119075000Y-92100000D01*
X119075000Y-91710603D01*
X119059628Y-91633324D01*
X119029475Y-91560529D01*
X118985700Y-91495014D01*
X118929985Y-91439299D01*
X118864471Y-91395524D01*
X118791675Y-91365372D01*
X118714396Y-91350000D01*
X118550000Y-91350000D01*
X118450002Y-91449998D01*
X118450002Y-91350000D01*
X118357107Y-91350000D01*
X118457107Y-91250000D01*
X121882894Y-91250000D01*
X122153812Y-91520919D01*
X122153812Y-91520919D01*
G37*
X122153812Y-91520919D02*
X122153823Y-91520928D01*
X122812722Y-92179827D01*
X122794194Y-92224557D01*
X122750000Y-92446735D01*
X122750000Y-92673265D01*
X122794194Y-92895443D01*
X122880884Y-93104729D01*
X123006737Y-93293082D01*
X123166918Y-93453263D01*
X123355271Y-93579116D01*
X123564557Y-93665806D01*
X123786735Y-93710000D01*
X124013265Y-93710000D01*
X124235443Y-93665806D01*
X124444729Y-93579116D01*
X124500001Y-93542185D01*
X124500001Y-93792893D01*
X124344829Y-93948065D01*
X123150000Y-93948065D01*
X123071586Y-93955788D01*
X122996186Y-93978660D01*
X122926697Y-94015803D01*
X122865789Y-94065789D01*
X122815803Y-94126697D01*
X122778660Y-94196186D01*
X122755788Y-94271586D01*
X122748065Y-94350000D01*
X122748065Y-95850000D01*
X122755788Y-95928414D01*
X122778660Y-96003814D01*
X122815803Y-96073303D01*
X122865789Y-96134211D01*
X122926697Y-96184197D01*
X122996186Y-96221340D01*
X123071586Y-96244212D01*
X123150000Y-96251935D01*
X124650000Y-96251935D01*
X124728414Y-96244212D01*
X124803814Y-96221340D01*
X124873303Y-96184197D01*
X124925001Y-96141769D01*
X124925001Y-96423955D01*
X124349919Y-96538346D01*
X123694760Y-96809721D01*
X123105134Y-97203697D01*
X122603697Y-97705134D01*
X122209721Y-98294760D01*
X121938346Y-98949919D01*
X121800000Y-99645431D01*
X121800000Y-99900000D01*
X121514666Y-99900000D01*
X121560700Y-99853966D01*
X121604475Y-99788451D01*
X121634628Y-99715656D01*
X121650000Y-99638377D01*
X121650000Y-98348980D01*
X121550000Y-98248980D01*
X120650000Y-98248980D01*
X120650000Y-98268980D01*
X120350000Y-98268980D01*
X120350000Y-98248980D01*
X119450000Y-98248980D01*
X119350000Y-98348980D01*
X119350000Y-99638377D01*
X119365372Y-99715656D01*
X119395525Y-99788451D01*
X119439300Y-99853966D01*
X119485334Y-99900000D01*
X116738677Y-99900000D01*
X116614941Y-99894199D01*
X116576429Y-99900000D01*
X110710000Y-99900000D01*
X110710000Y-99651935D01*
X110910000Y-99651935D01*
X110988414Y-99644212D01*
X111063814Y-99621340D01*
X111133303Y-99584197D01*
X111194211Y-99534211D01*
X111244197Y-99473303D01*
X111281340Y-99403814D01*
X111304212Y-99328414D01*
X111311935Y-99250000D01*
X111311935Y-97750000D01*
X111304212Y-97671586D01*
X111281340Y-97596186D01*
X111244197Y-97526697D01*
X111194211Y-97465789D01*
X111133303Y-97415803D01*
X111063814Y-97378660D01*
X110988414Y-97355788D01*
X110910000Y-97348065D01*
X109410000Y-97348065D01*
X109331586Y-97355788D01*
X109256186Y-97378660D01*
X109186697Y-97415803D01*
X109125789Y-97465789D01*
X109075803Y-97526697D01*
X109038660Y-97596186D01*
X109015788Y-97671586D01*
X109008065Y-97750000D01*
X109008065Y-97830247D01*
X108550000Y-97372183D01*
X108550000Y-97047891D01*
X108560604Y-97050000D01*
X108700000Y-97050000D01*
X108800000Y-96950000D01*
X108800000Y-96250000D01*
X109100000Y-96250000D01*
X109100000Y-96950000D01*
X109200000Y-97050000D01*
X109339396Y-97050000D01*
X109416675Y-97034628D01*
X109489471Y-97004476D01*
X109554985Y-96960701D01*
X109610700Y-96904986D01*
X109654475Y-96839471D01*
X109684628Y-96766676D01*
X109700000Y-96689397D01*
X109700000Y-96350000D01*
X109600000Y-96250000D01*
X109100000Y-96250000D01*
X108800000Y-96250000D01*
X108780000Y-96250000D01*
X108780000Y-95950000D01*
X108800000Y-95950000D01*
X108800000Y-95930000D01*
X109100000Y-95930000D01*
X109100000Y-95950000D01*
X109600000Y-95950000D01*
X109700000Y-95850000D01*
X109700000Y-95750000D01*
X111273065Y-95750000D01*
X111273065Y-96950000D01*
X111280788Y-97028414D01*
X111303660Y-97103814D01*
X111340803Y-97173303D01*
X111390789Y-97234211D01*
X111400001Y-97241771D01*
X111400001Y-97818069D01*
X111396856Y-97850000D01*
X111400001Y-97881932D01*
X111403056Y-97912946D01*
X111409406Y-97977422D01*
X111446573Y-98099947D01*
X111506930Y-98212868D01*
X111567802Y-98287040D01*
X111567805Y-98287043D01*
X111569435Y-98289029D01*
X111550000Y-98386735D01*
X111550000Y-98613265D01*
X111594194Y-98835443D01*
X111680884Y-99044729D01*
X111806737Y-99233082D01*
X111966918Y-99393263D01*
X112155271Y-99519116D01*
X112364557Y-99605806D01*
X112586735Y-99650000D01*
X112813265Y-99650000D01*
X113035443Y-99605806D01*
X113244729Y-99519116D01*
X113433082Y-99393263D01*
X113481457Y-99344888D01*
X114607244Y-99344888D01*
X114687876Y-99515129D01*
X114896526Y-99603338D01*
X115118377Y-99649145D01*
X115344901Y-99650792D01*
X115567393Y-99608215D01*
X115777305Y-99523049D01*
X115792124Y-99515129D01*
X115872756Y-99344888D01*
X115240000Y-98712132D01*
X114607244Y-99344888D01*
X113481457Y-99344888D01*
X113593263Y-99233082D01*
X113719116Y-99044729D01*
X113805806Y-98835443D01*
X113850000Y-98613265D01*
X113850000Y-98604901D01*
X114089208Y-98604901D01*
X114131785Y-98827393D01*
X114216951Y-99037305D01*
X114224871Y-99052124D01*
X114395112Y-99132756D01*
X115027868Y-98500000D01*
X115452132Y-98500000D01*
X116084888Y-99132756D01*
X116255129Y-99052124D01*
X116343338Y-98843474D01*
X116372961Y-98700000D01*
X117525000Y-98700000D01*
X117525000Y-99089397D01*
X117540372Y-99166676D01*
X117570525Y-99239471D01*
X117614300Y-99304986D01*
X117670015Y-99360701D01*
X117735529Y-99404476D01*
X117808325Y-99434628D01*
X117885604Y-99450000D01*
X118050000Y-99450000D01*
X118150000Y-99350000D01*
X118150000Y-98600000D01*
X118450000Y-98600000D01*
X118450000Y-99350000D01*
X118550000Y-99450000D01*
X118714396Y-99450000D01*
X118791675Y-99434628D01*
X118864471Y-99404476D01*
X118929985Y-99360701D01*
X118985700Y-99304986D01*
X119029475Y-99239471D01*
X119059628Y-99166676D01*
X119075000Y-99089397D01*
X119075000Y-98700000D01*
X118975000Y-98600000D01*
X118450000Y-98600000D01*
X118150000Y-98600000D01*
X117625000Y-98600000D01*
X117525000Y-98700000D01*
X116372961Y-98700000D01*
X116389145Y-98621623D01*
X116390792Y-98395099D01*
X116348215Y-98172607D01*
X116263049Y-97962695D01*
X116255129Y-97947876D01*
X116084888Y-97867244D01*
X115452132Y-98500000D01*
X115027868Y-98500000D01*
X114395112Y-97867244D01*
X114224871Y-97947876D01*
X114136662Y-98156526D01*
X114090855Y-98378377D01*
X114089208Y-98604901D01*
X113850000Y-98604901D01*
X113850000Y-98386735D01*
X113805806Y-98164557D01*
X113719116Y-97955271D01*
X113593263Y-97766918D01*
X113481457Y-97655112D01*
X114607244Y-97655112D01*
X115240000Y-98287868D01*
X115872756Y-97655112D01*
X115792124Y-97484871D01*
X115583474Y-97396662D01*
X115361623Y-97350855D01*
X115135099Y-97349208D01*
X114912607Y-97391785D01*
X114702695Y-97476951D01*
X114687876Y-97484871D01*
X114607244Y-97655112D01*
X113481457Y-97655112D01*
X113433082Y-97606737D01*
X113244729Y-97480884D01*
X113035443Y-97394194D01*
X112813265Y-97350000D01*
X112700000Y-97350000D01*
X112700000Y-97241770D01*
X112709211Y-97234211D01*
X112759197Y-97173303D01*
X112796340Y-97103814D01*
X112819212Y-97028414D01*
X112822010Y-97000000D01*
X113185028Y-97000000D01*
X113226697Y-97034197D01*
X113296186Y-97071340D01*
X113371586Y-97094212D01*
X113450000Y-97101935D01*
X114550000Y-97101935D01*
X114628414Y-97094212D01*
X114703814Y-97071340D01*
X114773303Y-97034197D01*
X114814972Y-97000000D01*
X114918079Y-97000000D01*
X114950000Y-97003144D01*
X114981921Y-97000000D01*
X114981932Y-97000000D01*
X115077422Y-96990595D01*
X115199948Y-96953427D01*
X115312868Y-96893070D01*
X115411843Y-96811843D01*
X115432201Y-96787037D01*
X115454446Y-96764792D01*
X115455788Y-96778414D01*
X115478660Y-96853814D01*
X115515803Y-96923303D01*
X115565789Y-96984211D01*
X115626697Y-97034197D01*
X115696186Y-97071340D01*
X115771586Y-97094212D01*
X115850000Y-97101935D01*
X116950000Y-97101935D01*
X117028414Y-97094212D01*
X117103814Y-97071340D01*
X117173303Y-97034197D01*
X117214972Y-97000000D01*
X117523065Y-97000000D01*
X117523065Y-97150000D01*
X117530788Y-97228414D01*
X117553660Y-97303814D01*
X117590803Y-97373303D01*
X117640789Y-97434211D01*
X117701697Y-97484197D01*
X117729911Y-97499278D01*
X117670015Y-97539299D01*
X117614300Y-97595014D01*
X117570525Y-97660529D01*
X117540372Y-97733324D01*
X117525000Y-97810603D01*
X117525000Y-98200000D01*
X117625000Y-98300000D01*
X118150000Y-98300000D01*
X118150000Y-98280000D01*
X118450000Y-98280000D01*
X118450000Y-98300000D01*
X118975000Y-98300000D01*
X119075000Y-98200000D01*
X119075000Y-97810603D01*
X119059628Y-97733324D01*
X119029475Y-97660529D01*
X118985700Y-97595014D01*
X118929985Y-97539299D01*
X118870089Y-97499278D01*
X118898303Y-97484197D01*
X118959211Y-97434211D01*
X119009197Y-97373303D01*
X119046340Y-97303814D01*
X119069212Y-97228414D01*
X119076935Y-97150000D01*
X119076935Y-96559583D01*
X119350000Y-96559583D01*
X119350000Y-97848980D01*
X119450000Y-97948980D01*
X120350000Y-97948980D01*
X120350000Y-96298980D01*
X120650000Y-96298980D01*
X120650000Y-97948980D01*
X121550000Y-97948980D01*
X121650000Y-97848980D01*
X121650000Y-96559583D01*
X121634628Y-96482304D01*
X121604475Y-96409509D01*
X121560700Y-96343994D01*
X121504985Y-96288279D01*
X121439471Y-96244504D01*
X121366675Y-96214352D01*
X121289396Y-96198980D01*
X120750000Y-96198980D01*
X120650000Y-96298980D01*
X120350000Y-96298980D01*
X120250000Y-96198980D01*
X119710604Y-96198980D01*
X119633325Y-96214352D01*
X119560529Y-96244504D01*
X119495015Y-96288279D01*
X119439300Y-96343994D01*
X119395525Y-96409509D01*
X119365372Y-96482304D01*
X119350000Y-96559583D01*
X119076935Y-96559583D01*
X119076935Y-95950000D01*
X119069212Y-95871586D01*
X119046340Y-95796186D01*
X119009197Y-95726697D01*
X118959211Y-95665789D01*
X118898303Y-95615803D01*
X118828814Y-95578660D01*
X118753414Y-95555788D01*
X118675000Y-95548065D01*
X117925000Y-95548065D01*
X117846586Y-95555788D01*
X117771186Y-95578660D01*
X117701697Y-95615803D01*
X117640789Y-95665789D01*
X117612713Y-95700000D01*
X117214972Y-95700000D01*
X117173303Y-95665803D01*
X117103814Y-95628660D01*
X117028414Y-95605788D01*
X116950000Y-95598065D01*
X115950000Y-95598065D01*
X115950000Y-95201935D01*
X116950000Y-95201935D01*
X117028414Y-95194212D01*
X117103814Y-95171340D01*
X117173303Y-95134197D01*
X117214972Y-95100000D01*
X117612713Y-95100000D01*
X117640789Y-95134211D01*
X117701697Y-95184197D01*
X117771186Y-95221340D01*
X117846586Y-95244212D01*
X117925000Y-95251935D01*
X118675000Y-95251935D01*
X118753414Y-95244212D01*
X118828814Y-95221340D01*
X118898303Y-95184197D01*
X118959211Y-95134211D01*
X119009197Y-95073303D01*
X119046340Y-95003814D01*
X119069212Y-94928414D01*
X119072010Y-94900000D01*
X119348065Y-94900000D01*
X119348065Y-95601020D01*
X119355788Y-95679434D01*
X119378660Y-95754834D01*
X119415803Y-95824323D01*
X119465789Y-95885231D01*
X119526697Y-95935217D01*
X119596186Y-95972360D01*
X119671586Y-95995232D01*
X119750000Y-96002955D01*
X121250000Y-96002955D01*
X121328414Y-95995232D01*
X121403814Y-95972360D01*
X121473303Y-95935217D01*
X121534211Y-95885231D01*
X121584197Y-95824323D01*
X121621340Y-95754834D01*
X121644212Y-95679434D01*
X121651935Y-95601020D01*
X121651935Y-92601020D01*
X121644212Y-92522606D01*
X121621340Y-92447206D01*
X121584197Y-92377717D01*
X121534211Y-92316809D01*
X121473303Y-92266823D01*
X121403814Y-92229680D01*
X121328414Y-92206808D01*
X121250000Y-92199085D01*
X121235039Y-92199085D01*
X121250000Y-92123869D01*
X121250000Y-91976131D01*
X121221178Y-91831233D01*
X121164641Y-91694742D01*
X121082563Y-91571903D01*
X120978097Y-91467437D01*
X120855258Y-91385359D01*
X120718767Y-91328822D01*
X120573869Y-91300000D01*
X120426131Y-91300000D01*
X120281233Y-91328822D01*
X120144742Y-91385359D01*
X120021903Y-91467437D01*
X119917437Y-91571903D01*
X119835359Y-91694742D01*
X119778822Y-91831233D01*
X119750000Y-91976131D01*
X119750000Y-92123869D01*
X119764961Y-92199085D01*
X119750000Y-92199085D01*
X119671586Y-92206808D01*
X119596186Y-92229680D01*
X119526697Y-92266823D01*
X119465789Y-92316809D01*
X119415803Y-92377717D01*
X119378660Y-92447206D01*
X119355788Y-92522606D01*
X119348065Y-92601020D01*
X119348065Y-93600000D01*
X119072010Y-93600000D01*
X119069212Y-93571586D01*
X119046340Y-93496186D01*
X119009197Y-93426697D01*
X118959211Y-93365789D01*
X118898303Y-93315803D01*
X118870089Y-93300722D01*
X118929985Y-93260701D01*
X118985700Y-93204986D01*
X119029475Y-93139471D01*
X119059628Y-93066676D01*
X119075000Y-92989397D01*
X119075000Y-92600000D01*
X118975000Y-92500000D01*
X118450000Y-92500000D01*
X118450000Y-92520000D01*
X118150000Y-92520000D01*
X118150000Y-92500000D01*
X117625000Y-92500000D01*
X117525000Y-92600000D01*
X117525000Y-92989397D01*
X117540372Y-93066676D01*
X117570525Y-93139471D01*
X117614300Y-93204986D01*
X117670015Y-93260701D01*
X117729911Y-93300722D01*
X117701697Y-93315803D01*
X117640789Y-93365789D01*
X117590803Y-93426697D01*
X117553660Y-93496186D01*
X117530788Y-93571586D01*
X117523065Y-93650000D01*
X117523065Y-93800000D01*
X117214972Y-93800000D01*
X117173303Y-93765803D01*
X117103814Y-93728660D01*
X117028414Y-93705788D01*
X116950000Y-93698065D01*
X115850000Y-93698065D01*
X115771586Y-93705788D01*
X115696186Y-93728660D01*
X115626697Y-93765803D01*
X115565789Y-93815789D01*
X115515803Y-93876697D01*
X115478660Y-93946186D01*
X115455788Y-94021586D01*
X115454446Y-94035208D01*
X115432198Y-94012960D01*
X115411843Y-93988157D01*
X115312868Y-93906930D01*
X115199948Y-93846573D01*
X115077422Y-93809405D01*
X114981932Y-93800000D01*
X114981921Y-93800000D01*
X114950000Y-93796856D01*
X114918079Y-93800000D01*
X114814972Y-93800000D01*
X114773303Y-93765803D01*
X114703814Y-93728660D01*
X114628414Y-93705788D01*
X114550000Y-93698065D01*
X113450000Y-93698065D01*
X113371586Y-93705788D01*
X113296186Y-93728660D01*
X113226697Y-93765803D01*
X113165789Y-93815789D01*
X113115803Y-93876697D01*
X113078660Y-93946186D01*
X113055788Y-94021586D01*
X113048065Y-94100000D01*
X113048065Y-94800000D01*
X113055788Y-94878414D01*
X113069455Y-94923468D01*
X113065372Y-94933325D01*
X113050000Y-95010604D01*
X113050000Y-95150000D01*
X113150000Y-95250000D01*
X113850000Y-95250000D01*
X113850000Y-95230000D01*
X114150000Y-95230000D01*
X114150000Y-95250000D01*
X114170000Y-95250000D01*
X114170000Y-95550000D01*
X114150000Y-95550000D01*
X114150000Y-95570000D01*
X113850000Y-95570000D01*
X113850000Y-95550000D01*
X113150000Y-95550000D01*
X113050000Y-95650000D01*
X113050000Y-95700000D01*
X112822010Y-95700000D01*
X112819212Y-95671586D01*
X112796340Y-95596186D01*
X112759197Y-95526697D01*
X112709211Y-95465789D01*
X112648303Y-95415803D01*
X112620089Y-95400722D01*
X112679985Y-95360701D01*
X112735700Y-95304986D01*
X112779475Y-95239471D01*
X112809628Y-95166676D01*
X112825000Y-95089397D01*
X112825000Y-94700000D01*
X112725000Y-94600000D01*
X112200000Y-94600000D01*
X112200000Y-94620000D01*
X111900000Y-94620000D01*
X111900000Y-94600000D01*
X111375000Y-94600000D01*
X111275000Y-94700000D01*
X111275000Y-95089397D01*
X111290372Y-95166676D01*
X111320525Y-95239471D01*
X111364300Y-95304986D01*
X111420015Y-95360701D01*
X111479911Y-95400722D01*
X111451697Y-95415803D01*
X111390789Y-95465789D01*
X111340803Y-95526697D01*
X111303660Y-95596186D01*
X111280788Y-95671586D01*
X111273065Y-95750000D01*
X109700000Y-95750000D01*
X109700000Y-95510603D01*
X109684628Y-95433324D01*
X109654475Y-95360529D01*
X109610700Y-95295014D01*
X109608955Y-95293269D01*
X109655264Y-95255264D01*
X109670929Y-95236176D01*
X111096502Y-93810603D01*
X111275000Y-93810603D01*
X111275000Y-94200000D01*
X111375000Y-94300000D01*
X111900000Y-94300000D01*
X111900000Y-93550000D01*
X112200000Y-93550000D01*
X112200000Y-94300000D01*
X112725000Y-94300000D01*
X112825000Y-94200000D01*
X112825000Y-93810603D01*
X112809628Y-93733324D01*
X112779475Y-93660529D01*
X112735700Y-93595014D01*
X112679985Y-93539299D01*
X112614471Y-93495524D01*
X112541675Y-93465372D01*
X112464396Y-93450000D01*
X112300000Y-93450000D01*
X112200000Y-93550000D01*
X111900000Y-93550000D01*
X111800000Y-93450000D01*
X111635604Y-93450000D01*
X111558325Y-93465372D01*
X111485529Y-93495524D01*
X111420015Y-93539299D01*
X111364300Y-93595014D01*
X111320525Y-93660529D01*
X111290372Y-93733324D01*
X111275000Y-93810603D01*
X111096502Y-93810603D01*
X112157106Y-92750000D01*
X116725440Y-92750000D01*
X116750000Y-92752419D01*
X116774560Y-92750000D01*
X116848017Y-92742765D01*
X116942267Y-92714175D01*
X117029129Y-92667746D01*
X117105264Y-92605264D01*
X117120929Y-92586176D01*
X117566053Y-92141053D01*
X117625000Y-92200000D01*
X118150000Y-92200000D01*
X118150000Y-92180000D01*
X118450000Y-92180000D01*
X118450000Y-92200000D01*
X118975000Y-92200000D01*
X119075000Y-92100000D01*
X119075000Y-91710603D01*
X119059628Y-91633324D01*
X119029475Y-91560529D01*
X118985700Y-91495014D01*
X118929985Y-91439299D01*
X118864471Y-91395524D01*
X118791675Y-91365372D01*
X118714396Y-91350000D01*
X118550000Y-91350000D01*
X118450002Y-91449998D01*
X118450002Y-91350000D01*
X118357107Y-91350000D01*
X118457107Y-91250000D01*
X121882894Y-91250000D01*
X122153812Y-91520919D01*
G36*
X103228822Y-94168767D02*
X103285359Y-94305258D01*
X103367437Y-94428097D01*
X103471903Y-94532563D01*
X103594742Y-94614641D01*
X103731233Y-94671178D01*
X103876131Y-94700000D01*
X104023869Y-94700000D01*
X104168767Y-94671178D01*
X104235389Y-94643582D01*
X104253660Y-94703814D01*
X104290803Y-94773303D01*
X104340789Y-94834211D01*
X104401697Y-94884197D01*
X104429911Y-94899278D01*
X104370015Y-94939299D01*
X104314300Y-94995014D01*
X104270525Y-95060529D01*
X104240372Y-95133324D01*
X104225000Y-95210603D01*
X104225000Y-95600000D01*
X104325000Y-95700000D01*
X104850000Y-95700000D01*
X104850000Y-95680000D01*
X105150000Y-95680000D01*
X105150000Y-95700000D01*
X105675000Y-95700000D01*
X105775000Y-95600000D01*
X105775000Y-95510603D01*
X106300000Y-95510603D01*
X106300000Y-95850000D01*
X106400000Y-95950000D01*
X106900000Y-95950000D01*
X106900000Y-95250000D01*
X106800000Y-95150000D01*
X106660604Y-95150000D01*
X106583325Y-95165372D01*
X106510529Y-95195524D01*
X106445015Y-95239299D01*
X106389300Y-95295014D01*
X106345525Y-95360529D01*
X106315372Y-95433324D01*
X106300000Y-95510603D01*
X105775000Y-95510603D01*
X105775000Y-95210603D01*
X105759628Y-95133324D01*
X105729475Y-95060529D01*
X105685700Y-94995014D01*
X105629985Y-94939299D01*
X105570089Y-94899278D01*
X105598303Y-94884197D01*
X105659211Y-94834211D01*
X105709197Y-94773303D01*
X105746340Y-94703814D01*
X105769212Y-94628414D01*
X105776935Y-94550000D01*
X105776935Y-94350000D01*
X106312336Y-94350000D01*
X106328660Y-94403814D01*
X106365803Y-94473303D01*
X106415789Y-94534211D01*
X106476697Y-94584197D01*
X106546186Y-94621340D01*
X106621586Y-94644212D01*
X106700000Y-94651935D01*
X107400000Y-94651935D01*
X107478414Y-94644212D01*
X107531529Y-94628100D01*
X107535826Y-94642267D01*
X107582255Y-94729129D01*
X107644737Y-94805264D01*
X107663819Y-94820924D01*
X107990959Y-95148065D01*
X107650000Y-95148065D01*
X107571586Y-95155788D01*
X107526532Y-95169455D01*
X107516675Y-95165372D01*
X107439396Y-95150000D01*
X107300000Y-95150000D01*
X107200000Y-95250000D01*
X107200000Y-95950000D01*
X107220000Y-95950000D01*
X107220000Y-96250000D01*
X107200000Y-96250000D01*
X107200000Y-96950000D01*
X107300000Y-97050000D01*
X107439396Y-97050000D01*
X107450001Y-97047891D01*
X107450001Y-97572982D01*
X107447340Y-97600000D01*
X107450001Y-97627018D01*
X107457959Y-97707819D01*
X107482700Y-97789379D01*
X107489409Y-97811494D01*
X107540479Y-97907042D01*
X107591987Y-97969804D01*
X107591993Y-97969810D01*
X107609211Y-97990790D01*
X107630191Y-98008008D01*
X108491992Y-98869810D01*
X108509210Y-98890790D01*
X108530190Y-98908008D01*
X108530195Y-98908013D01*
X108576061Y-98945654D01*
X108592958Y-98959521D01*
X108688506Y-99010592D01*
X108792181Y-99042042D01*
X108872982Y-99050000D01*
X108872991Y-99050000D01*
X108899999Y-99052660D01*
X108927007Y-99050000D01*
X109008065Y-99050000D01*
X109008065Y-99250000D01*
X109015788Y-99328414D01*
X109038660Y-99403814D01*
X109075803Y-99473303D01*
X109125789Y-99534211D01*
X109186697Y-99584197D01*
X109256186Y-99621340D01*
X109331586Y-99644212D01*
X109410000Y-99651935D01*
X109610000Y-99651935D01*
X109610000Y-99862183D01*
X109574118Y-99898065D01*
X107450000Y-99898065D01*
X107430353Y-99900000D01*
X103600000Y-99900000D01*
X103600000Y-99645431D01*
X103461654Y-98949919D01*
X103190279Y-98294760D01*
X102796303Y-97705134D01*
X102294866Y-97203697D01*
X101705240Y-96809721D01*
X101050081Y-96538346D01*
X100475000Y-96423955D01*
X100475000Y-96141770D01*
X100526697Y-96184197D01*
X100596186Y-96221340D01*
X100671586Y-96244212D01*
X100750000Y-96251935D01*
X102250000Y-96251935D01*
X102328414Y-96244212D01*
X102403814Y-96221340D01*
X102473303Y-96184197D01*
X102534211Y-96134211D01*
X102562287Y-96100000D01*
X104225000Y-96100000D01*
X104225000Y-96489397D01*
X104240372Y-96566676D01*
X104270525Y-96639471D01*
X104314300Y-96704986D01*
X104370015Y-96760701D01*
X104435529Y-96804476D01*
X104508325Y-96834628D01*
X104585604Y-96850000D01*
X104750000Y-96850000D01*
X104850000Y-96750000D01*
X104850000Y-96000000D01*
X105150000Y-96000000D01*
X105150000Y-96750000D01*
X105250000Y-96850000D01*
X105414396Y-96850000D01*
X105491675Y-96834628D01*
X105564471Y-96804476D01*
X105629985Y-96760701D01*
X105685700Y-96704986D01*
X105729475Y-96639471D01*
X105759628Y-96566676D01*
X105775000Y-96489397D01*
X105775000Y-96350000D01*
X106300000Y-96350000D01*
X106300000Y-96689397D01*
X106315372Y-96766676D01*
X106345525Y-96839471D01*
X106389300Y-96904986D01*
X106445015Y-96960701D01*
X106510529Y-97004476D01*
X106583325Y-97034628D01*
X106660604Y-97050000D01*
X106800000Y-97050000D01*
X106900000Y-96950000D01*
X106900000Y-96250000D01*
X106400000Y-96250000D01*
X106300000Y-96350000D01*
X105775000Y-96350000D01*
X105775000Y-96100000D01*
X105675000Y-96000000D01*
X105150000Y-96000000D01*
X104850000Y-96000000D01*
X104325000Y-96000000D01*
X104225000Y-96100000D01*
X102562287Y-96100000D01*
X102584197Y-96073303D01*
X102621340Y-96003814D01*
X102644212Y-95928414D01*
X102651935Y-95850000D01*
X102651935Y-94655171D01*
X103136187Y-94170920D01*
X103155264Y-94155264D01*
X103212310Y-94085753D01*
X103228822Y-94168767D01*
X103228822Y-94168767D01*
G37*
X103228822Y-94168767D02*
X103285359Y-94305258D01*
X103367437Y-94428097D01*
X103471903Y-94532563D01*
X103594742Y-94614641D01*
X103731233Y-94671178D01*
X103876131Y-94700000D01*
X104023869Y-94700000D01*
X104168767Y-94671178D01*
X104235389Y-94643582D01*
X104253660Y-94703814D01*
X104290803Y-94773303D01*
X104340789Y-94834211D01*
X104401697Y-94884197D01*
X104429911Y-94899278D01*
X104370015Y-94939299D01*
X104314300Y-94995014D01*
X104270525Y-95060529D01*
X104240372Y-95133324D01*
X104225000Y-95210603D01*
X104225000Y-95600000D01*
X104325000Y-95700000D01*
X104850000Y-95700000D01*
X104850000Y-95680000D01*
X105150000Y-95680000D01*
X105150000Y-95700000D01*
X105675000Y-95700000D01*
X105775000Y-95600000D01*
X105775000Y-95510603D01*
X106300000Y-95510603D01*
X106300000Y-95850000D01*
X106400000Y-95950000D01*
X106900000Y-95950000D01*
X106900000Y-95250000D01*
X106800000Y-95150000D01*
X106660604Y-95150000D01*
X106583325Y-95165372D01*
X106510529Y-95195524D01*
X106445015Y-95239299D01*
X106389300Y-95295014D01*
X106345525Y-95360529D01*
X106315372Y-95433324D01*
X106300000Y-95510603D01*
X105775000Y-95510603D01*
X105775000Y-95210603D01*
X105759628Y-95133324D01*
X105729475Y-95060529D01*
X105685700Y-94995014D01*
X105629985Y-94939299D01*
X105570089Y-94899278D01*
X105598303Y-94884197D01*
X105659211Y-94834211D01*
X105709197Y-94773303D01*
X105746340Y-94703814D01*
X105769212Y-94628414D01*
X105776935Y-94550000D01*
X105776935Y-94350000D01*
X106312336Y-94350000D01*
X106328660Y-94403814D01*
X106365803Y-94473303D01*
X106415789Y-94534211D01*
X106476697Y-94584197D01*
X106546186Y-94621340D01*
X106621586Y-94644212D01*
X106700000Y-94651935D01*
X107400000Y-94651935D01*
X107478414Y-94644212D01*
X107531529Y-94628100D01*
X107535826Y-94642267D01*
X107582255Y-94729129D01*
X107644737Y-94805264D01*
X107663819Y-94820924D01*
X107990959Y-95148065D01*
X107650000Y-95148065D01*
X107571586Y-95155788D01*
X107526532Y-95169455D01*
X107516675Y-95165372D01*
X107439396Y-95150000D01*
X107300000Y-95150000D01*
X107200000Y-95250000D01*
X107200000Y-95950000D01*
X107220000Y-95950000D01*
X107220000Y-96250000D01*
X107200000Y-96250000D01*
X107200000Y-96950000D01*
X107300000Y-97050000D01*
X107439396Y-97050000D01*
X107450001Y-97047891D01*
X107450001Y-97572982D01*
X107447340Y-97600000D01*
X107450001Y-97627018D01*
X107457959Y-97707819D01*
X107482700Y-97789379D01*
X107489409Y-97811494D01*
X107540479Y-97907042D01*
X107591987Y-97969804D01*
X107591993Y-97969810D01*
X107609211Y-97990790D01*
X107630191Y-98008008D01*
X108491992Y-98869810D01*
X108509210Y-98890790D01*
X108530190Y-98908008D01*
X108530195Y-98908013D01*
X108576061Y-98945654D01*
X108592958Y-98959521D01*
X108688506Y-99010592D01*
X108792181Y-99042042D01*
X108872982Y-99050000D01*
X108872991Y-99050000D01*
X108899999Y-99052660D01*
X108927007Y-99050000D01*
X109008065Y-99050000D01*
X109008065Y-99250000D01*
X109015788Y-99328414D01*
X109038660Y-99403814D01*
X109075803Y-99473303D01*
X109125789Y-99534211D01*
X109186697Y-99584197D01*
X109256186Y-99621340D01*
X109331586Y-99644212D01*
X109410000Y-99651935D01*
X109610000Y-99651935D01*
X109610000Y-99862183D01*
X109574118Y-99898065D01*
X107450000Y-99898065D01*
X107430353Y-99900000D01*
X103600000Y-99900000D01*
X103600000Y-99645431D01*
X103461654Y-98949919D01*
X103190279Y-98294760D01*
X102796303Y-97705134D01*
X102294866Y-97203697D01*
X101705240Y-96809721D01*
X101050081Y-96538346D01*
X100475000Y-96423955D01*
X100475000Y-96141770D01*
X100526697Y-96184197D01*
X100596186Y-96221340D01*
X100671586Y-96244212D01*
X100750000Y-96251935D01*
X102250000Y-96251935D01*
X102328414Y-96244212D01*
X102403814Y-96221340D01*
X102473303Y-96184197D01*
X102534211Y-96134211D01*
X102562287Y-96100000D01*
X104225000Y-96100000D01*
X104225000Y-96489397D01*
X104240372Y-96566676D01*
X104270525Y-96639471D01*
X104314300Y-96704986D01*
X104370015Y-96760701D01*
X104435529Y-96804476D01*
X104508325Y-96834628D01*
X104585604Y-96850000D01*
X104750000Y-96850000D01*
X104850000Y-96750000D01*
X104850000Y-96000000D01*
X105150000Y-96000000D01*
X105150000Y-96750000D01*
X105250000Y-96850000D01*
X105414396Y-96850000D01*
X105491675Y-96834628D01*
X105564471Y-96804476D01*
X105629985Y-96760701D01*
X105685700Y-96704986D01*
X105729475Y-96639471D01*
X105759628Y-96566676D01*
X105775000Y-96489397D01*
X105775000Y-96350000D01*
X106300000Y-96350000D01*
X106300000Y-96689397D01*
X106315372Y-96766676D01*
X106345525Y-96839471D01*
X106389300Y-96904986D01*
X106445015Y-96960701D01*
X106510529Y-97004476D01*
X106583325Y-97034628D01*
X106660604Y-97050000D01*
X106800000Y-97050000D01*
X106900000Y-96950000D01*
X106900000Y-96250000D01*
X106400000Y-96250000D01*
X106300000Y-96350000D01*
X105775000Y-96350000D01*
X105775000Y-96100000D01*
X105675000Y-96000000D01*
X105150000Y-96000000D01*
X104850000Y-96000000D01*
X104325000Y-96000000D01*
X104225000Y-96100000D01*
X102562287Y-96100000D01*
X102584197Y-96073303D01*
X102621340Y-96003814D01*
X102644212Y-95928414D01*
X102651935Y-95850000D01*
X102651935Y-94655171D01*
X103136187Y-94170920D01*
X103155264Y-94155264D01*
X103212310Y-94085753D01*
X103228822Y-94168767D01*
G36*
X116785059Y-74705801D02*
X116823571Y-74700000D01*
X121800000Y-74700000D01*
X121800000Y-74954569D01*
X121938346Y-75650081D01*
X122209721Y-76305240D01*
X122603697Y-76894866D01*
X123105134Y-77396303D01*
X123694760Y-77790279D01*
X124349919Y-78061654D01*
X124925000Y-78176045D01*
X124925000Y-78818230D01*
X124873303Y-78775803D01*
X124803814Y-78738660D01*
X124728414Y-78715788D01*
X124650000Y-78708065D01*
X123150000Y-78708065D01*
X123071586Y-78715788D01*
X122996186Y-78738660D01*
X122926697Y-78775803D01*
X122865789Y-78825789D01*
X122815803Y-78886697D01*
X122778660Y-78956186D01*
X122755788Y-79031586D01*
X122748065Y-79110000D01*
X122748065Y-80304829D01*
X122355000Y-80697894D01*
X122247923Y-80590817D01*
X122320816Y-80501997D01*
X122427602Y-80302215D01*
X122493360Y-80085439D01*
X122515564Y-79860000D01*
X122493360Y-79634561D01*
X122427602Y-79417785D01*
X122320816Y-79218003D01*
X122177107Y-79042893D01*
X122001997Y-78899184D01*
X121802215Y-78792398D01*
X121585439Y-78726640D01*
X121416492Y-78710000D01*
X121303508Y-78710000D01*
X121134561Y-78726640D01*
X120917785Y-78792398D01*
X120718003Y-78899184D01*
X120542893Y-79042893D01*
X120399184Y-79218003D01*
X120292398Y-79417785D01*
X120226640Y-79634561D01*
X120204436Y-79860000D01*
X120226640Y-80085439D01*
X120292398Y-80302215D01*
X120399184Y-80501997D01*
X120542893Y-80677107D01*
X120718003Y-80820816D01*
X120917785Y-80927602D01*
X121134561Y-80993360D01*
X121247365Y-81004470D01*
X121600000Y-81357106D01*
X121600001Y-83342893D01*
X121242895Y-83700000D01*
X118274559Y-83700000D01*
X118249999Y-83697581D01*
X118151982Y-83707235D01*
X118123392Y-83715908D01*
X118057733Y-83735825D01*
X117970871Y-83782254D01*
X117894736Y-83844736D01*
X117879075Y-83863819D01*
X116614115Y-85128780D01*
X116598303Y-85115803D01*
X116528814Y-85078660D01*
X116453414Y-85055788D01*
X116375000Y-85048065D01*
X114925000Y-85048065D01*
X114846586Y-85055788D01*
X114771186Y-85078660D01*
X114701697Y-85115803D01*
X114640789Y-85165789D01*
X114590803Y-85226697D01*
X114553660Y-85296186D01*
X114530788Y-85371586D01*
X114523065Y-85450000D01*
X114523065Y-85900000D01*
X114530788Y-85978414D01*
X114537336Y-86000000D01*
X114530788Y-86021586D01*
X114523065Y-86100000D01*
X114523065Y-86550000D01*
X114530788Y-86628414D01*
X114537336Y-86650000D01*
X114530788Y-86671586D01*
X114523065Y-86750000D01*
X114523065Y-87200000D01*
X114530788Y-87278414D01*
X114537336Y-87300000D01*
X114530788Y-87321586D01*
X114523065Y-87400000D01*
X114523065Y-87850000D01*
X114530788Y-87928414D01*
X114537336Y-87950000D01*
X114530788Y-87971586D01*
X114523065Y-88050000D01*
X114523065Y-88500000D01*
X114530788Y-88578414D01*
X114537166Y-88599441D01*
X114525000Y-88660604D01*
X114525000Y-88712500D01*
X114625000Y-88812500D01*
X114675259Y-88812500D01*
X114701697Y-88834197D01*
X114771186Y-88871340D01*
X114846586Y-88894212D01*
X114925000Y-88901935D01*
X116375000Y-88901935D01*
X116453414Y-88894212D01*
X116528814Y-88871340D01*
X116598303Y-88834197D01*
X116609510Y-88825000D01*
X116950097Y-88825000D01*
X117050052Y-88878427D01*
X117172578Y-88915595D01*
X117268068Y-88925000D01*
X117443079Y-88925000D01*
X117475000Y-88928144D01*
X117506921Y-88925000D01*
X117506932Y-88925000D01*
X117602422Y-88915595D01*
X117724948Y-88878427D01*
X117837868Y-88818070D01*
X117936843Y-88736843D01*
X117957200Y-88712038D01*
X118331010Y-88338228D01*
X118346186Y-88346340D01*
X118406418Y-88364611D01*
X118378822Y-88431233D01*
X118350000Y-88576131D01*
X118350000Y-88723869D01*
X118378822Y-88868767D01*
X118435359Y-89005258D01*
X118517437Y-89128097D01*
X118621903Y-89232563D01*
X118744742Y-89314641D01*
X118881233Y-89371178D01*
X119026131Y-89400000D01*
X119173869Y-89400000D01*
X119318767Y-89371178D01*
X119455258Y-89314641D01*
X119578097Y-89232563D01*
X119682563Y-89128097D01*
X119764641Y-89005258D01*
X119821178Y-88868767D01*
X119850000Y-88723869D01*
X119850000Y-88576131D01*
X119821178Y-88431233D01*
X119793582Y-88364611D01*
X119853814Y-88346340D01*
X119923303Y-88309197D01*
X119984211Y-88259211D01*
X120034197Y-88198303D01*
X120049278Y-88170089D01*
X120089299Y-88229985D01*
X120145014Y-88285700D01*
X120210529Y-88329475D01*
X120283324Y-88359628D01*
X120360603Y-88375000D01*
X120750000Y-88375000D01*
X120850000Y-88275000D01*
X120850000Y-87750000D01*
X121150000Y-87750000D01*
X121150000Y-88275000D01*
X121250000Y-88375000D01*
X121639397Y-88375000D01*
X121716676Y-88359628D01*
X121789471Y-88329475D01*
X121854986Y-88285700D01*
X121910701Y-88229985D01*
X121954476Y-88164471D01*
X121984628Y-88091675D01*
X122000000Y-88014396D01*
X122000000Y-87850000D01*
X121900000Y-87750000D01*
X121150000Y-87750000D01*
X120850000Y-87750000D01*
X120830000Y-87750000D01*
X120830000Y-87450000D01*
X120850000Y-87450000D01*
X120850000Y-86925000D01*
X121150000Y-86925000D01*
X121150000Y-87450000D01*
X121900000Y-87450000D01*
X122000000Y-87350000D01*
X122000000Y-87185604D01*
X121984628Y-87108325D01*
X121954476Y-87035529D01*
X121910701Y-86970015D01*
X121854986Y-86914300D01*
X121789471Y-86870525D01*
X121716676Y-86840372D01*
X121639397Y-86825000D01*
X121250000Y-86825000D01*
X121150000Y-86925000D01*
X120850000Y-86925000D01*
X120750000Y-86825000D01*
X120360603Y-86825000D01*
X120283324Y-86840372D01*
X120210529Y-86870525D01*
X120145014Y-86914300D01*
X120089299Y-86970015D01*
X120049278Y-87029911D01*
X120034197Y-87001697D01*
X119984211Y-86940789D01*
X119923303Y-86890803D01*
X119853814Y-86853660D01*
X119778414Y-86830788D01*
X119700000Y-86823065D01*
X118584041Y-86823065D01*
X119207106Y-86200000D01*
X121192895Y-86200000D01*
X122100000Y-87107107D01*
X122100001Y-88695430D01*
X122097581Y-88720000D01*
X122107235Y-88818017D01*
X122125561Y-88878427D01*
X122135826Y-88912267D01*
X122182255Y-88999129D01*
X122244737Y-89075264D01*
X122263819Y-89090924D01*
X122812722Y-89639828D01*
X122794194Y-89684557D01*
X122750000Y-89906735D01*
X122750000Y-89992895D01*
X122670929Y-89913824D01*
X122655264Y-89894736D01*
X122579129Y-89832254D01*
X122492267Y-89785825D01*
X122398017Y-89757235D01*
X122324560Y-89750000D01*
X122300000Y-89747581D01*
X122275440Y-89750000D01*
X118024549Y-89750000D01*
X117999999Y-89747582D01*
X117975449Y-89750000D01*
X117975440Y-89750000D01*
X117901983Y-89757235D01*
X117807733Y-89785825D01*
X117720871Y-89832254D01*
X117644736Y-89894736D01*
X117629080Y-89913813D01*
X116776935Y-90765959D01*
X116776935Y-90650000D01*
X116769212Y-90571586D01*
X116762664Y-90550000D01*
X116769212Y-90528414D01*
X116776935Y-90450000D01*
X116776935Y-90000000D01*
X116769212Y-89921586D01*
X116762664Y-89900000D01*
X116769212Y-89878414D01*
X116776935Y-89800000D01*
X116776935Y-89350000D01*
X116769212Y-89271586D01*
X116762834Y-89250559D01*
X116775000Y-89189396D01*
X116775000Y-89137500D01*
X116675000Y-89037500D01*
X116624741Y-89037500D01*
X116598303Y-89015803D01*
X116528814Y-88978660D01*
X116453414Y-88955788D01*
X116375000Y-88948065D01*
X114925000Y-88948065D01*
X114846586Y-88955788D01*
X114771186Y-88978660D01*
X114701697Y-89015803D01*
X114675259Y-89037500D01*
X114625000Y-89037500D01*
X114525000Y-89137500D01*
X114525000Y-89189396D01*
X114537166Y-89250559D01*
X114530788Y-89271586D01*
X114523065Y-89350000D01*
X114523065Y-89725000D01*
X113471628Y-89725000D01*
X113481562Y-89719690D01*
X113694739Y-89544739D01*
X113869690Y-89331562D01*
X113999690Y-89088349D01*
X114079743Y-88824448D01*
X114100000Y-88618777D01*
X114100000Y-79751935D01*
X114151020Y-79751935D01*
X114229434Y-79744212D01*
X114304834Y-79721340D01*
X114374323Y-79684197D01*
X114435231Y-79634211D01*
X114485217Y-79573303D01*
X114522360Y-79503814D01*
X114545232Y-79428414D01*
X114552955Y-79350000D01*
X114552955Y-78850000D01*
X114748980Y-78850000D01*
X114748980Y-79389396D01*
X114764352Y-79466675D01*
X114794504Y-79539471D01*
X114838279Y-79604985D01*
X114893994Y-79660700D01*
X114959509Y-79704475D01*
X115032304Y-79734628D01*
X115109583Y-79750000D01*
X116398980Y-79750000D01*
X116498980Y-79650000D01*
X116498980Y-78750000D01*
X116798980Y-78750000D01*
X116798980Y-79650000D01*
X116898980Y-79750000D01*
X118188377Y-79750000D01*
X118265656Y-79734628D01*
X118338451Y-79704475D01*
X118403966Y-79660700D01*
X118459681Y-79604985D01*
X118503456Y-79539471D01*
X118533608Y-79466675D01*
X118548980Y-79389396D01*
X118548980Y-78850000D01*
X118448980Y-78750000D01*
X116798980Y-78750000D01*
X116498980Y-78750000D01*
X114848980Y-78750000D01*
X114748980Y-78850000D01*
X114552955Y-78850000D01*
X114552955Y-77850000D01*
X114549075Y-77810604D01*
X114748980Y-77810604D01*
X114748980Y-78350000D01*
X114848980Y-78450000D01*
X116498980Y-78450000D01*
X116498980Y-77550000D01*
X116798980Y-77550000D01*
X116798980Y-78450000D01*
X118448980Y-78450000D01*
X118548980Y-78350000D01*
X118548980Y-77810604D01*
X118533608Y-77733325D01*
X118503456Y-77660529D01*
X118459681Y-77595015D01*
X118403966Y-77539300D01*
X118338451Y-77495525D01*
X118265656Y-77465372D01*
X118188377Y-77450000D01*
X116898980Y-77450000D01*
X116798980Y-77550000D01*
X116498980Y-77550000D01*
X116398980Y-77450000D01*
X115109583Y-77450000D01*
X115032304Y-77465372D01*
X114959509Y-77495525D01*
X114893994Y-77539300D01*
X114838279Y-77595015D01*
X114794504Y-77660529D01*
X114764352Y-77733325D01*
X114748980Y-77810604D01*
X114549075Y-77810604D01*
X114545232Y-77771586D01*
X114522360Y-77696186D01*
X114485217Y-77626697D01*
X114435231Y-77565789D01*
X114374323Y-77515803D01*
X114304834Y-77478660D01*
X114229434Y-77455788D01*
X114151020Y-77448065D01*
X114100000Y-77448065D01*
X114100000Y-76944888D01*
X114607244Y-76944888D01*
X114687876Y-77115129D01*
X114896526Y-77203338D01*
X115118377Y-77249145D01*
X115344901Y-77250792D01*
X115567393Y-77208215D01*
X115777305Y-77123049D01*
X115792124Y-77115129D01*
X115872756Y-76944888D01*
X115240000Y-76312132D01*
X114607244Y-76944888D01*
X114100000Y-76944888D01*
X114100000Y-76261296D01*
X114131785Y-76427393D01*
X114216951Y-76637305D01*
X114224871Y-76652124D01*
X114395112Y-76732756D01*
X115027868Y-76100000D01*
X115452132Y-76100000D01*
X116084888Y-76732756D01*
X116255129Y-76652124D01*
X116343338Y-76443474D01*
X116389145Y-76221623D01*
X116390792Y-75995099D01*
X116348215Y-75772607D01*
X116263049Y-75562695D01*
X116255129Y-75547876D01*
X116084888Y-75467244D01*
X115452132Y-76100000D01*
X115027868Y-76100000D01*
X114395112Y-75467244D01*
X114224871Y-75547876D01*
X114136662Y-75756526D01*
X114100000Y-75934086D01*
X114100000Y-75255112D01*
X114607244Y-75255112D01*
X115240000Y-75887868D01*
X115872756Y-75255112D01*
X115792124Y-75084871D01*
X115583474Y-74996662D01*
X115361623Y-74950855D01*
X115135099Y-74949208D01*
X114912607Y-74991785D01*
X114702695Y-75076951D01*
X114687876Y-75084871D01*
X114607244Y-75255112D01*
X114100000Y-75255112D01*
X114100000Y-74700000D01*
X116661323Y-74700000D01*
X116785059Y-74705801D01*
X116785059Y-74705801D01*
G37*
X116785059Y-74705801D02*
X116823571Y-74700000D01*
X121800000Y-74700000D01*
X121800000Y-74954569D01*
X121938346Y-75650081D01*
X122209721Y-76305240D01*
X122603697Y-76894866D01*
X123105134Y-77396303D01*
X123694760Y-77790279D01*
X124349919Y-78061654D01*
X124925000Y-78176045D01*
X124925000Y-78818230D01*
X124873303Y-78775803D01*
X124803814Y-78738660D01*
X124728414Y-78715788D01*
X124650000Y-78708065D01*
X123150000Y-78708065D01*
X123071586Y-78715788D01*
X122996186Y-78738660D01*
X122926697Y-78775803D01*
X122865789Y-78825789D01*
X122815803Y-78886697D01*
X122778660Y-78956186D01*
X122755788Y-79031586D01*
X122748065Y-79110000D01*
X122748065Y-80304829D01*
X122355000Y-80697894D01*
X122247923Y-80590817D01*
X122320816Y-80501997D01*
X122427602Y-80302215D01*
X122493360Y-80085439D01*
X122515564Y-79860000D01*
X122493360Y-79634561D01*
X122427602Y-79417785D01*
X122320816Y-79218003D01*
X122177107Y-79042893D01*
X122001997Y-78899184D01*
X121802215Y-78792398D01*
X121585439Y-78726640D01*
X121416492Y-78710000D01*
X121303508Y-78710000D01*
X121134561Y-78726640D01*
X120917785Y-78792398D01*
X120718003Y-78899184D01*
X120542893Y-79042893D01*
X120399184Y-79218003D01*
X120292398Y-79417785D01*
X120226640Y-79634561D01*
X120204436Y-79860000D01*
X120226640Y-80085439D01*
X120292398Y-80302215D01*
X120399184Y-80501997D01*
X120542893Y-80677107D01*
X120718003Y-80820816D01*
X120917785Y-80927602D01*
X121134561Y-80993360D01*
X121247365Y-81004470D01*
X121600000Y-81357106D01*
X121600001Y-83342893D01*
X121242895Y-83700000D01*
X118274559Y-83700000D01*
X118249999Y-83697581D01*
X118151982Y-83707235D01*
X118123392Y-83715908D01*
X118057733Y-83735825D01*
X117970871Y-83782254D01*
X117894736Y-83844736D01*
X117879075Y-83863819D01*
X116614115Y-85128780D01*
X116598303Y-85115803D01*
X116528814Y-85078660D01*
X116453414Y-85055788D01*
X116375000Y-85048065D01*
X114925000Y-85048065D01*
X114846586Y-85055788D01*
X114771186Y-85078660D01*
X114701697Y-85115803D01*
X114640789Y-85165789D01*
X114590803Y-85226697D01*
X114553660Y-85296186D01*
X114530788Y-85371586D01*
X114523065Y-85450000D01*
X114523065Y-85900000D01*
X114530788Y-85978414D01*
X114537336Y-86000000D01*
X114530788Y-86021586D01*
X114523065Y-86100000D01*
X114523065Y-86550000D01*
X114530788Y-86628414D01*
X114537336Y-86650000D01*
X114530788Y-86671586D01*
X114523065Y-86750000D01*
X114523065Y-87200000D01*
X114530788Y-87278414D01*
X114537336Y-87300000D01*
X114530788Y-87321586D01*
X114523065Y-87400000D01*
X114523065Y-87850000D01*
X114530788Y-87928414D01*
X114537336Y-87950000D01*
X114530788Y-87971586D01*
X114523065Y-88050000D01*
X114523065Y-88500000D01*
X114530788Y-88578414D01*
X114537166Y-88599441D01*
X114525000Y-88660604D01*
X114525000Y-88712500D01*
X114625000Y-88812500D01*
X114675259Y-88812500D01*
X114701697Y-88834197D01*
X114771186Y-88871340D01*
X114846586Y-88894212D01*
X114925000Y-88901935D01*
X116375000Y-88901935D01*
X116453414Y-88894212D01*
X116528814Y-88871340D01*
X116598303Y-88834197D01*
X116609510Y-88825000D01*
X116950097Y-88825000D01*
X117050052Y-88878427D01*
X117172578Y-88915595D01*
X117268068Y-88925000D01*
X117443079Y-88925000D01*
X117475000Y-88928144D01*
X117506921Y-88925000D01*
X117506932Y-88925000D01*
X117602422Y-88915595D01*
X117724948Y-88878427D01*
X117837868Y-88818070D01*
X117936843Y-88736843D01*
X117957200Y-88712038D01*
X118331010Y-88338228D01*
X118346186Y-88346340D01*
X118406418Y-88364611D01*
X118378822Y-88431233D01*
X118350000Y-88576131D01*
X118350000Y-88723869D01*
X118378822Y-88868767D01*
X118435359Y-89005258D01*
X118517437Y-89128097D01*
X118621903Y-89232563D01*
X118744742Y-89314641D01*
X118881233Y-89371178D01*
X119026131Y-89400000D01*
X119173869Y-89400000D01*
X119318767Y-89371178D01*
X119455258Y-89314641D01*
X119578097Y-89232563D01*
X119682563Y-89128097D01*
X119764641Y-89005258D01*
X119821178Y-88868767D01*
X119850000Y-88723869D01*
X119850000Y-88576131D01*
X119821178Y-88431233D01*
X119793582Y-88364611D01*
X119853814Y-88346340D01*
X119923303Y-88309197D01*
X119984211Y-88259211D01*
X120034197Y-88198303D01*
X120049278Y-88170089D01*
X120089299Y-88229985D01*
X120145014Y-88285700D01*
X120210529Y-88329475D01*
X120283324Y-88359628D01*
X120360603Y-88375000D01*
X120750000Y-88375000D01*
X120850000Y-88275000D01*
X120850000Y-87750000D01*
X121150000Y-87750000D01*
X121150000Y-88275000D01*
X121250000Y-88375000D01*
X121639397Y-88375000D01*
X121716676Y-88359628D01*
X121789471Y-88329475D01*
X121854986Y-88285700D01*
X121910701Y-88229985D01*
X121954476Y-88164471D01*
X121984628Y-88091675D01*
X122000000Y-88014396D01*
X122000000Y-87850000D01*
X121900000Y-87750000D01*
X121150000Y-87750000D01*
X120850000Y-87750000D01*
X120830000Y-87750000D01*
X120830000Y-87450000D01*
X120850000Y-87450000D01*
X120850000Y-86925000D01*
X121150000Y-86925000D01*
X121150000Y-87450000D01*
X121900000Y-87450000D01*
X122000000Y-87350000D01*
X122000000Y-87185604D01*
X121984628Y-87108325D01*
X121954476Y-87035529D01*
X121910701Y-86970015D01*
X121854986Y-86914300D01*
X121789471Y-86870525D01*
X121716676Y-86840372D01*
X121639397Y-86825000D01*
X121250000Y-86825000D01*
X121150000Y-86925000D01*
X120850000Y-86925000D01*
X120750000Y-86825000D01*
X120360603Y-86825000D01*
X120283324Y-86840372D01*
X120210529Y-86870525D01*
X120145014Y-86914300D01*
X120089299Y-86970015D01*
X120049278Y-87029911D01*
X120034197Y-87001697D01*
X119984211Y-86940789D01*
X119923303Y-86890803D01*
X119853814Y-86853660D01*
X119778414Y-86830788D01*
X119700000Y-86823065D01*
X118584041Y-86823065D01*
X119207106Y-86200000D01*
X121192895Y-86200000D01*
X122100000Y-87107107D01*
X122100001Y-88695430D01*
X122097581Y-88720000D01*
X122107235Y-88818017D01*
X122125561Y-88878427D01*
X122135826Y-88912267D01*
X122182255Y-88999129D01*
X122244737Y-89075264D01*
X122263819Y-89090924D01*
X122812722Y-89639828D01*
X122794194Y-89684557D01*
X122750000Y-89906735D01*
X122750000Y-89992895D01*
X122670929Y-89913824D01*
X122655264Y-89894736D01*
X122579129Y-89832254D01*
X122492267Y-89785825D01*
X122398017Y-89757235D01*
X122324560Y-89750000D01*
X122300000Y-89747581D01*
X122275440Y-89750000D01*
X118024549Y-89750000D01*
X117999999Y-89747582D01*
X117975449Y-89750000D01*
X117975440Y-89750000D01*
X117901983Y-89757235D01*
X117807733Y-89785825D01*
X117720871Y-89832254D01*
X117644736Y-89894736D01*
X117629080Y-89913813D01*
X116776935Y-90765959D01*
X116776935Y-90650000D01*
X116769212Y-90571586D01*
X116762664Y-90550000D01*
X116769212Y-90528414D01*
X116776935Y-90450000D01*
X116776935Y-90000000D01*
X116769212Y-89921586D01*
X116762664Y-89900000D01*
X116769212Y-89878414D01*
X116776935Y-89800000D01*
X116776935Y-89350000D01*
X116769212Y-89271586D01*
X116762834Y-89250559D01*
X116775000Y-89189396D01*
X116775000Y-89137500D01*
X116675000Y-89037500D01*
X116624741Y-89037500D01*
X116598303Y-89015803D01*
X116528814Y-88978660D01*
X116453414Y-88955788D01*
X116375000Y-88948065D01*
X114925000Y-88948065D01*
X114846586Y-88955788D01*
X114771186Y-88978660D01*
X114701697Y-89015803D01*
X114675259Y-89037500D01*
X114625000Y-89037500D01*
X114525000Y-89137500D01*
X114525000Y-89189396D01*
X114537166Y-89250559D01*
X114530788Y-89271586D01*
X114523065Y-89350000D01*
X114523065Y-89725000D01*
X113471628Y-89725000D01*
X113481562Y-89719690D01*
X113694739Y-89544739D01*
X113869690Y-89331562D01*
X113999690Y-89088349D01*
X114079743Y-88824448D01*
X114100000Y-88618777D01*
X114100000Y-79751935D01*
X114151020Y-79751935D01*
X114229434Y-79744212D01*
X114304834Y-79721340D01*
X114374323Y-79684197D01*
X114435231Y-79634211D01*
X114485217Y-79573303D01*
X114522360Y-79503814D01*
X114545232Y-79428414D01*
X114552955Y-79350000D01*
X114552955Y-78850000D01*
X114748980Y-78850000D01*
X114748980Y-79389396D01*
X114764352Y-79466675D01*
X114794504Y-79539471D01*
X114838279Y-79604985D01*
X114893994Y-79660700D01*
X114959509Y-79704475D01*
X115032304Y-79734628D01*
X115109583Y-79750000D01*
X116398980Y-79750000D01*
X116498980Y-79650000D01*
X116498980Y-78750000D01*
X116798980Y-78750000D01*
X116798980Y-79650000D01*
X116898980Y-79750000D01*
X118188377Y-79750000D01*
X118265656Y-79734628D01*
X118338451Y-79704475D01*
X118403966Y-79660700D01*
X118459681Y-79604985D01*
X118503456Y-79539471D01*
X118533608Y-79466675D01*
X118548980Y-79389396D01*
X118548980Y-78850000D01*
X118448980Y-78750000D01*
X116798980Y-78750000D01*
X116498980Y-78750000D01*
X114848980Y-78750000D01*
X114748980Y-78850000D01*
X114552955Y-78850000D01*
X114552955Y-77850000D01*
X114549075Y-77810604D01*
X114748980Y-77810604D01*
X114748980Y-78350000D01*
X114848980Y-78450000D01*
X116498980Y-78450000D01*
X116498980Y-77550000D01*
X116798980Y-77550000D01*
X116798980Y-78450000D01*
X118448980Y-78450000D01*
X118548980Y-78350000D01*
X118548980Y-77810604D01*
X118533608Y-77733325D01*
X118503456Y-77660529D01*
X118459681Y-77595015D01*
X118403966Y-77539300D01*
X118338451Y-77495525D01*
X118265656Y-77465372D01*
X118188377Y-77450000D01*
X116898980Y-77450000D01*
X116798980Y-77550000D01*
X116498980Y-77550000D01*
X116398980Y-77450000D01*
X115109583Y-77450000D01*
X115032304Y-77465372D01*
X114959509Y-77495525D01*
X114893994Y-77539300D01*
X114838279Y-77595015D01*
X114794504Y-77660529D01*
X114764352Y-77733325D01*
X114748980Y-77810604D01*
X114549075Y-77810604D01*
X114545232Y-77771586D01*
X114522360Y-77696186D01*
X114485217Y-77626697D01*
X114435231Y-77565789D01*
X114374323Y-77515803D01*
X114304834Y-77478660D01*
X114229434Y-77455788D01*
X114151020Y-77448065D01*
X114100000Y-77448065D01*
X114100000Y-76944888D01*
X114607244Y-76944888D01*
X114687876Y-77115129D01*
X114896526Y-77203338D01*
X115118377Y-77249145D01*
X115344901Y-77250792D01*
X115567393Y-77208215D01*
X115777305Y-77123049D01*
X115792124Y-77115129D01*
X115872756Y-76944888D01*
X115240000Y-76312132D01*
X114607244Y-76944888D01*
X114100000Y-76944888D01*
X114100000Y-76261296D01*
X114131785Y-76427393D01*
X114216951Y-76637305D01*
X114224871Y-76652124D01*
X114395112Y-76732756D01*
X115027868Y-76100000D01*
X115452132Y-76100000D01*
X116084888Y-76732756D01*
X116255129Y-76652124D01*
X116343338Y-76443474D01*
X116389145Y-76221623D01*
X116390792Y-75995099D01*
X116348215Y-75772607D01*
X116263049Y-75562695D01*
X116255129Y-75547876D01*
X116084888Y-75467244D01*
X115452132Y-76100000D01*
X115027868Y-76100000D01*
X114395112Y-75467244D01*
X114224871Y-75547876D01*
X114136662Y-75756526D01*
X114100000Y-75934086D01*
X114100000Y-75255112D01*
X114607244Y-75255112D01*
X115240000Y-75887868D01*
X115872756Y-75255112D01*
X115792124Y-75084871D01*
X115583474Y-74996662D01*
X115361623Y-74950855D01*
X115135099Y-74949208D01*
X114912607Y-74991785D01*
X114702695Y-75076951D01*
X114687876Y-75084871D01*
X114607244Y-75255112D01*
X114100000Y-75255112D01*
X114100000Y-74700000D01*
X116661323Y-74700000D01*
X116785059Y-74705801D01*
G36*
X102194737Y-83805264D02*
X102213819Y-83820924D01*
X102952722Y-84559827D01*
X102934194Y-84604557D01*
X102890000Y-84826735D01*
X102890000Y-85053265D01*
X102934194Y-85275443D01*
X103020884Y-85484729D01*
X103146737Y-85673082D01*
X103306918Y-85833263D01*
X103495271Y-85959116D01*
X103704557Y-86045806D01*
X103926735Y-86090000D01*
X104153265Y-86090000D01*
X104375443Y-86045806D01*
X104420173Y-86027278D01*
X104717894Y-86325000D01*
X104700000Y-86325000D01*
X104600000Y-86425000D01*
X104600000Y-86950000D01*
X104620000Y-86950000D01*
X104620000Y-87250000D01*
X104600000Y-87250000D01*
X104600000Y-87775000D01*
X104675000Y-87850000D01*
X104600000Y-87925000D01*
X104600000Y-88450000D01*
X104620000Y-88450000D01*
X104620000Y-88750000D01*
X104600000Y-88750000D01*
X104600000Y-89275000D01*
X104700000Y-89375000D01*
X105089397Y-89375000D01*
X105166676Y-89359628D01*
X105239471Y-89329475D01*
X105304986Y-89285700D01*
X105360701Y-89229985D01*
X105400722Y-89170089D01*
X105415803Y-89198303D01*
X105465789Y-89259211D01*
X105526697Y-89309197D01*
X105596186Y-89346340D01*
X105656418Y-89364611D01*
X105628822Y-89431233D01*
X105600000Y-89576131D01*
X105600000Y-89723869D01*
X105628822Y-89868767D01*
X105683181Y-90000000D01*
X103507106Y-90000000D01*
X103300000Y-89792894D01*
X103300000Y-88850000D01*
X103450000Y-88850000D01*
X103450000Y-89014396D01*
X103465372Y-89091675D01*
X103495524Y-89164471D01*
X103539299Y-89229985D01*
X103595014Y-89285700D01*
X103660529Y-89329475D01*
X103733324Y-89359628D01*
X103810603Y-89375000D01*
X104200000Y-89375000D01*
X104300000Y-89275000D01*
X104300000Y-88750000D01*
X103550000Y-88750000D01*
X103450000Y-88850000D01*
X103300000Y-88850000D01*
X103300000Y-88804560D01*
X103302419Y-88780000D01*
X103292765Y-88681983D01*
X103281811Y-88645872D01*
X103264175Y-88587733D01*
X103217746Y-88500871D01*
X103155264Y-88424736D01*
X103136187Y-88409080D01*
X102586622Y-87859515D01*
X102633360Y-87705439D01*
X102655564Y-87480000D01*
X102642761Y-87350000D01*
X103450000Y-87350000D01*
X103450000Y-87514396D01*
X103465372Y-87591675D01*
X103495524Y-87664471D01*
X103539299Y-87729985D01*
X103595014Y-87785700D01*
X103660529Y-87829475D01*
X103710080Y-87850000D01*
X103660529Y-87870525D01*
X103595014Y-87914300D01*
X103539299Y-87970015D01*
X103495524Y-88035529D01*
X103465372Y-88108325D01*
X103450000Y-88185604D01*
X103450000Y-88350000D01*
X103550000Y-88450000D01*
X104300000Y-88450000D01*
X104300000Y-87925000D01*
X104225000Y-87850000D01*
X104300000Y-87775000D01*
X104300000Y-87250000D01*
X103550000Y-87250000D01*
X103450000Y-87350000D01*
X102642761Y-87350000D01*
X102633360Y-87254561D01*
X102567602Y-87037785D01*
X102460816Y-86838003D01*
X102335746Y-86685604D01*
X103450000Y-86685604D01*
X103450000Y-86850000D01*
X103550000Y-86950000D01*
X104300000Y-86950000D01*
X104300000Y-86425000D01*
X104200000Y-86325000D01*
X103810603Y-86325000D01*
X103733324Y-86340372D01*
X103660529Y-86370525D01*
X103595014Y-86414300D01*
X103539299Y-86470015D01*
X103495524Y-86535529D01*
X103465372Y-86608325D01*
X103450000Y-86685604D01*
X102335746Y-86685604D01*
X102317107Y-86662893D01*
X102141997Y-86519184D01*
X101942215Y-86412398D01*
X101725439Y-86346640D01*
X101556492Y-86330000D01*
X101443508Y-86330000D01*
X101274561Y-86346640D01*
X101057785Y-86412398D01*
X100858003Y-86519184D01*
X100682893Y-86662893D01*
X100539184Y-86838003D01*
X100475000Y-86958082D01*
X100475000Y-85470524D01*
X100480884Y-85484729D01*
X100606737Y-85673082D01*
X100766918Y-85833263D01*
X100955271Y-85959116D01*
X101164557Y-86045806D01*
X101386735Y-86090000D01*
X101613265Y-86090000D01*
X101835443Y-86045806D01*
X102044729Y-85959116D01*
X102233082Y-85833263D01*
X102393263Y-85673082D01*
X102519116Y-85484729D01*
X102605806Y-85275443D01*
X102650000Y-85053265D01*
X102650000Y-84826735D01*
X102605806Y-84604557D01*
X102519116Y-84395271D01*
X102393263Y-84206918D01*
X102233082Y-84046737D01*
X102150000Y-83991224D01*
X102150000Y-83750751D01*
X102194737Y-83805264D01*
X102194737Y-83805264D01*
G37*
X102194737Y-83805264D02*
X102213819Y-83820924D01*
X102952722Y-84559827D01*
X102934194Y-84604557D01*
X102890000Y-84826735D01*
X102890000Y-85053265D01*
X102934194Y-85275443D01*
X103020884Y-85484729D01*
X103146737Y-85673082D01*
X103306918Y-85833263D01*
X103495271Y-85959116D01*
X103704557Y-86045806D01*
X103926735Y-86090000D01*
X104153265Y-86090000D01*
X104375443Y-86045806D01*
X104420173Y-86027278D01*
X104717894Y-86325000D01*
X104700000Y-86325000D01*
X104600000Y-86425000D01*
X104600000Y-86950000D01*
X104620000Y-86950000D01*
X104620000Y-87250000D01*
X104600000Y-87250000D01*
X104600000Y-87775000D01*
X104675000Y-87850000D01*
X104600000Y-87925000D01*
X104600000Y-88450000D01*
X104620000Y-88450000D01*
X104620000Y-88750000D01*
X104600000Y-88750000D01*
X104600000Y-89275000D01*
X104700000Y-89375000D01*
X105089397Y-89375000D01*
X105166676Y-89359628D01*
X105239471Y-89329475D01*
X105304986Y-89285700D01*
X105360701Y-89229985D01*
X105400722Y-89170089D01*
X105415803Y-89198303D01*
X105465789Y-89259211D01*
X105526697Y-89309197D01*
X105596186Y-89346340D01*
X105656418Y-89364611D01*
X105628822Y-89431233D01*
X105600000Y-89576131D01*
X105600000Y-89723869D01*
X105628822Y-89868767D01*
X105683181Y-90000000D01*
X103507106Y-90000000D01*
X103300000Y-89792894D01*
X103300000Y-88850000D01*
X103450000Y-88850000D01*
X103450000Y-89014396D01*
X103465372Y-89091675D01*
X103495524Y-89164471D01*
X103539299Y-89229985D01*
X103595014Y-89285700D01*
X103660529Y-89329475D01*
X103733324Y-89359628D01*
X103810603Y-89375000D01*
X104200000Y-89375000D01*
X104300000Y-89275000D01*
X104300000Y-88750000D01*
X103550000Y-88750000D01*
X103450000Y-88850000D01*
X103300000Y-88850000D01*
X103300000Y-88804560D01*
X103302419Y-88780000D01*
X103292765Y-88681983D01*
X103281811Y-88645872D01*
X103264175Y-88587733D01*
X103217746Y-88500871D01*
X103155264Y-88424736D01*
X103136187Y-88409080D01*
X102586622Y-87859515D01*
X102633360Y-87705439D01*
X102655564Y-87480000D01*
X102642761Y-87350000D01*
X103450000Y-87350000D01*
X103450000Y-87514396D01*
X103465372Y-87591675D01*
X103495524Y-87664471D01*
X103539299Y-87729985D01*
X103595014Y-87785700D01*
X103660529Y-87829475D01*
X103710080Y-87850000D01*
X103660529Y-87870525D01*
X103595014Y-87914300D01*
X103539299Y-87970015D01*
X103495524Y-88035529D01*
X103465372Y-88108325D01*
X103450000Y-88185604D01*
X103450000Y-88350000D01*
X103550000Y-88450000D01*
X104300000Y-88450000D01*
X104300000Y-87925000D01*
X104225000Y-87850000D01*
X104300000Y-87775000D01*
X104300000Y-87250000D01*
X103550000Y-87250000D01*
X103450000Y-87350000D01*
X102642761Y-87350000D01*
X102633360Y-87254561D01*
X102567602Y-87037785D01*
X102460816Y-86838003D01*
X102335746Y-86685604D01*
X103450000Y-86685604D01*
X103450000Y-86850000D01*
X103550000Y-86950000D01*
X104300000Y-86950000D01*
X104300000Y-86425000D01*
X104200000Y-86325000D01*
X103810603Y-86325000D01*
X103733324Y-86340372D01*
X103660529Y-86370525D01*
X103595014Y-86414300D01*
X103539299Y-86470015D01*
X103495524Y-86535529D01*
X103465372Y-86608325D01*
X103450000Y-86685604D01*
X102335746Y-86685604D01*
X102317107Y-86662893D01*
X102141997Y-86519184D01*
X101942215Y-86412398D01*
X101725439Y-86346640D01*
X101556492Y-86330000D01*
X101443508Y-86330000D01*
X101274561Y-86346640D01*
X101057785Y-86412398D01*
X100858003Y-86519184D01*
X100682893Y-86662893D01*
X100539184Y-86838003D01*
X100475000Y-86958082D01*
X100475000Y-85470524D01*
X100480884Y-85484729D01*
X100606737Y-85673082D01*
X100766918Y-85833263D01*
X100955271Y-85959116D01*
X101164557Y-86045806D01*
X101386735Y-86090000D01*
X101613265Y-86090000D01*
X101835443Y-86045806D01*
X102044729Y-85959116D01*
X102233082Y-85833263D01*
X102393263Y-85673082D01*
X102519116Y-85484729D01*
X102605806Y-85275443D01*
X102650000Y-85053265D01*
X102650000Y-84826735D01*
X102605806Y-84604557D01*
X102519116Y-84395271D01*
X102393263Y-84206918D01*
X102233082Y-84046737D01*
X102150000Y-83991224D01*
X102150000Y-83750751D01*
X102194737Y-83805264D01*
G36*
X109990803Y-81823303D02*
X110040789Y-81884211D01*
X110101697Y-81934197D01*
X110129911Y-81949278D01*
X110070015Y-81989299D01*
X110014300Y-82045014D01*
X109970525Y-82110529D01*
X109940372Y-82183324D01*
X109925000Y-82260603D01*
X109925000Y-82650000D01*
X110025000Y-82750000D01*
X110550000Y-82750000D01*
X110550000Y-82730000D01*
X110850000Y-82730000D01*
X110850000Y-82750000D01*
X110870000Y-82750000D01*
X110870000Y-83050000D01*
X110850000Y-83050000D01*
X110850000Y-83800000D01*
X110950000Y-83900000D01*
X111114396Y-83900000D01*
X111191675Y-83884628D01*
X111264471Y-83854476D01*
X111300001Y-83830736D01*
X111300001Y-84842895D01*
X111020929Y-84563824D01*
X111005264Y-84544736D01*
X110929129Y-84482254D01*
X110842267Y-84435825D01*
X110748017Y-84407235D01*
X110674560Y-84400000D01*
X110650000Y-84397581D01*
X110625440Y-84400000D01*
X109007106Y-84400000D01*
X108400000Y-83792895D01*
X108400000Y-83387945D01*
X108460604Y-83400000D01*
X108600000Y-83400000D01*
X108700000Y-83300000D01*
X108700000Y-82600000D01*
X109000000Y-82600000D01*
X109000000Y-83300000D01*
X109100000Y-83400000D01*
X109239396Y-83400000D01*
X109316675Y-83384628D01*
X109389471Y-83354476D01*
X109454985Y-83310701D01*
X109510700Y-83254986D01*
X109554475Y-83189471D01*
X109570824Y-83150000D01*
X109925000Y-83150000D01*
X109925000Y-83539397D01*
X109940372Y-83616676D01*
X109970525Y-83689471D01*
X110014300Y-83754986D01*
X110070015Y-83810701D01*
X110135529Y-83854476D01*
X110208325Y-83884628D01*
X110285604Y-83900000D01*
X110450000Y-83900000D01*
X110550000Y-83800000D01*
X110550000Y-83050000D01*
X110025000Y-83050000D01*
X109925000Y-83150000D01*
X109570824Y-83150000D01*
X109584628Y-83116676D01*
X109600000Y-83039397D01*
X109600000Y-82700000D01*
X109500000Y-82600000D01*
X109000000Y-82600000D01*
X108700000Y-82600000D01*
X108680000Y-82600000D01*
X108680000Y-82300000D01*
X108700000Y-82300000D01*
X108700000Y-82280000D01*
X109000000Y-82280000D01*
X109000000Y-82300000D01*
X109500000Y-82300000D01*
X109600000Y-82200000D01*
X109600000Y-81860603D01*
X109587945Y-81800000D01*
X109978347Y-81800000D01*
X109990803Y-81823303D01*
X109990803Y-81823303D01*
G37*
X109990803Y-81823303D02*
X110040789Y-81884211D01*
X110101697Y-81934197D01*
X110129911Y-81949278D01*
X110070015Y-81989299D01*
X110014300Y-82045014D01*
X109970525Y-82110529D01*
X109940372Y-82183324D01*
X109925000Y-82260603D01*
X109925000Y-82650000D01*
X110025000Y-82750000D01*
X110550000Y-82750000D01*
X110550000Y-82730000D01*
X110850000Y-82730000D01*
X110850000Y-82750000D01*
X110870000Y-82750000D01*
X110870000Y-83050000D01*
X110850000Y-83050000D01*
X110850000Y-83800000D01*
X110950000Y-83900000D01*
X111114396Y-83900000D01*
X111191675Y-83884628D01*
X111264471Y-83854476D01*
X111300001Y-83830736D01*
X111300001Y-84842895D01*
X111020929Y-84563824D01*
X111005264Y-84544736D01*
X110929129Y-84482254D01*
X110842267Y-84435825D01*
X110748017Y-84407235D01*
X110674560Y-84400000D01*
X110650000Y-84397581D01*
X110625440Y-84400000D01*
X109007106Y-84400000D01*
X108400000Y-83792895D01*
X108400000Y-83387945D01*
X108460604Y-83400000D01*
X108600000Y-83400000D01*
X108700000Y-83300000D01*
X108700000Y-82600000D01*
X109000000Y-82600000D01*
X109000000Y-83300000D01*
X109100000Y-83400000D01*
X109239396Y-83400000D01*
X109316675Y-83384628D01*
X109389471Y-83354476D01*
X109454985Y-83310701D01*
X109510700Y-83254986D01*
X109554475Y-83189471D01*
X109570824Y-83150000D01*
X109925000Y-83150000D01*
X109925000Y-83539397D01*
X109940372Y-83616676D01*
X109970525Y-83689471D01*
X110014300Y-83754986D01*
X110070015Y-83810701D01*
X110135529Y-83854476D01*
X110208325Y-83884628D01*
X110285604Y-83900000D01*
X110450000Y-83900000D01*
X110550000Y-83800000D01*
X110550000Y-83050000D01*
X110025000Y-83050000D01*
X109925000Y-83150000D01*
X109570824Y-83150000D01*
X109584628Y-83116676D01*
X109600000Y-83039397D01*
X109600000Y-82700000D01*
X109500000Y-82600000D01*
X109000000Y-82600000D01*
X108700000Y-82600000D01*
X108680000Y-82600000D01*
X108680000Y-82300000D01*
X108700000Y-82300000D01*
X108700000Y-82280000D01*
X109000000Y-82280000D01*
X109000000Y-82300000D01*
X109500000Y-82300000D01*
X109600000Y-82200000D01*
X109600000Y-81860603D01*
X109587945Y-81800000D01*
X109978347Y-81800000D01*
X109990803Y-81823303D01*
G36*
X107120000Y-82600000D02*
X107100000Y-82600000D01*
X107100000Y-83300000D01*
X107200000Y-83400000D01*
X107339396Y-83400000D01*
X107400001Y-83387945D01*
X107400001Y-83975430D01*
X107397581Y-84000000D01*
X107407235Y-84098017D01*
X107424601Y-84155264D01*
X107435826Y-84192267D01*
X107482255Y-84279129D01*
X107544737Y-84355264D01*
X107563819Y-84370924D01*
X107892895Y-84700000D01*
X107157107Y-84700000D01*
X105850000Y-83392895D01*
X105850000Y-82700000D01*
X106200000Y-82700000D01*
X106200000Y-83039397D01*
X106215372Y-83116676D01*
X106245525Y-83189471D01*
X106289300Y-83254986D01*
X106345015Y-83310701D01*
X106410529Y-83354476D01*
X106483325Y-83384628D01*
X106560604Y-83400000D01*
X106700000Y-83400000D01*
X106800000Y-83300000D01*
X106800000Y-82600000D01*
X106300000Y-82600000D01*
X106200000Y-82700000D01*
X105850000Y-82700000D01*
X105850000Y-82300000D01*
X107120000Y-82300000D01*
X107120000Y-82600000D01*
X107120000Y-82600000D01*
G37*
X107120000Y-82600000D02*
X107100000Y-82600000D01*
X107100000Y-83300000D01*
X107200000Y-83400000D01*
X107339396Y-83400000D01*
X107400001Y-83387945D01*
X107400001Y-83975430D01*
X107397581Y-84000000D01*
X107407235Y-84098017D01*
X107424601Y-84155264D01*
X107435826Y-84192267D01*
X107482255Y-84279129D01*
X107544737Y-84355264D01*
X107563819Y-84370924D01*
X107892895Y-84700000D01*
X107157107Y-84700000D01*
X105850000Y-83392895D01*
X105850000Y-82700000D01*
X106200000Y-82700000D01*
X106200000Y-83039397D01*
X106215372Y-83116676D01*
X106245525Y-83189471D01*
X106289300Y-83254986D01*
X106345015Y-83310701D01*
X106410529Y-83354476D01*
X106483325Y-83384628D01*
X106560604Y-83400000D01*
X106700000Y-83400000D01*
X106800000Y-83300000D01*
X106800000Y-82600000D01*
X106300000Y-82600000D01*
X106200000Y-82700000D01*
X105850000Y-82700000D01*
X105850000Y-82300000D01*
X107120000Y-82300000D01*
X107120000Y-82600000D01*
G36*
X109610001Y-74737818D02*
X109610001Y-74948065D01*
X109410000Y-74948065D01*
X109331586Y-74955788D01*
X109256186Y-74978660D01*
X109186697Y-75015803D01*
X109125789Y-75065789D01*
X109075803Y-75126697D01*
X109038660Y-75196186D01*
X109015788Y-75271586D01*
X109008065Y-75350000D01*
X109008065Y-76850000D01*
X109015788Y-76928414D01*
X109038660Y-77003814D01*
X109075803Y-77073303D01*
X109125789Y-77134211D01*
X109186697Y-77184197D01*
X109256186Y-77221340D01*
X109331586Y-77244212D01*
X109410000Y-77251935D01*
X109610000Y-77251935D01*
X109610001Y-78312182D01*
X108824118Y-79098065D01*
X108500000Y-79098065D01*
X108421586Y-79105788D01*
X108350000Y-79127503D01*
X108350000Y-78419647D01*
X108351935Y-78400000D01*
X108351935Y-77200000D01*
X108344212Y-77121586D01*
X108321340Y-77046186D01*
X108284197Y-76976697D01*
X108234211Y-76915789D01*
X108173303Y-76865803D01*
X108103814Y-76828660D01*
X108028414Y-76805788D01*
X107950000Y-76798065D01*
X107050000Y-76798065D01*
X106971586Y-76805788D01*
X106896186Y-76828660D01*
X106826697Y-76865803D01*
X106765789Y-76915789D01*
X106715803Y-76976697D01*
X106700000Y-77006262D01*
X106684197Y-76976697D01*
X106634211Y-76915789D01*
X106573303Y-76865803D01*
X106503814Y-76828660D01*
X106428414Y-76805788D01*
X106350000Y-76798065D01*
X105450000Y-76798065D01*
X105371586Y-76805788D01*
X105296186Y-76828660D01*
X105226697Y-76865803D01*
X105165789Y-76915789D01*
X105115803Y-76976697D01*
X105100000Y-77006262D01*
X105084197Y-76976697D01*
X105034211Y-76915789D01*
X104973303Y-76865803D01*
X104903814Y-76828660D01*
X104828414Y-76805788D01*
X104750000Y-76798065D01*
X103850000Y-76798065D01*
X103771586Y-76805788D01*
X103696186Y-76828660D01*
X103626697Y-76865803D01*
X103565789Y-76915789D01*
X103515803Y-76976697D01*
X103478660Y-77046186D01*
X103455788Y-77121586D01*
X103448065Y-77200000D01*
X103448065Y-77300000D01*
X103424560Y-77300000D01*
X103400000Y-77297581D01*
X103375440Y-77300000D01*
X103301983Y-77307235D01*
X103207733Y-77335825D01*
X103120871Y-77382254D01*
X103044736Y-77444736D01*
X103029080Y-77463813D01*
X102213824Y-78279071D01*
X102194736Y-78294736D01*
X102132254Y-78370871D01*
X102085825Y-78457734D01*
X102081840Y-78470872D01*
X102057235Y-78551983D01*
X102047581Y-78650000D01*
X102050000Y-78674560D01*
X102050000Y-78708065D01*
X100750000Y-78708065D01*
X100671586Y-78715788D01*
X100596186Y-78738660D01*
X100526697Y-78775803D01*
X100475000Y-78818230D01*
X100475000Y-78176045D01*
X101050081Y-78061654D01*
X101705240Y-77790279D01*
X102294866Y-77396303D01*
X102796303Y-76894866D01*
X103190279Y-76305240D01*
X103450000Y-75678216D01*
X103450000Y-75750002D01*
X103549998Y-75750002D01*
X103450000Y-75850000D01*
X103450000Y-76239397D01*
X103465372Y-76316676D01*
X103495525Y-76389471D01*
X103539300Y-76454986D01*
X103595015Y-76510701D01*
X103660529Y-76554476D01*
X103733325Y-76584628D01*
X103810604Y-76600000D01*
X104050000Y-76600000D01*
X104150000Y-76500000D01*
X104150000Y-75750000D01*
X104450000Y-75750000D01*
X104450000Y-76500000D01*
X104550000Y-76600000D01*
X104789396Y-76600000D01*
X104866675Y-76584628D01*
X104939471Y-76554476D01*
X105004985Y-76510701D01*
X105060700Y-76454986D01*
X105100000Y-76396168D01*
X105139300Y-76454986D01*
X105195015Y-76510701D01*
X105260529Y-76554476D01*
X105333325Y-76584628D01*
X105410604Y-76600000D01*
X105650000Y-76600000D01*
X105750000Y-76500000D01*
X105750000Y-75750000D01*
X106050000Y-75750000D01*
X106050000Y-76500000D01*
X106150000Y-76600000D01*
X106389396Y-76600000D01*
X106466675Y-76584628D01*
X106539471Y-76554476D01*
X106604985Y-76510701D01*
X106660700Y-76454986D01*
X106700000Y-76396168D01*
X106739300Y-76454986D01*
X106795015Y-76510701D01*
X106860529Y-76554476D01*
X106933325Y-76584628D01*
X107010604Y-76600000D01*
X107250000Y-76600000D01*
X107350000Y-76500000D01*
X107350000Y-75750000D01*
X107650000Y-75750000D01*
X107650000Y-76500000D01*
X107750000Y-76600000D01*
X107989396Y-76600000D01*
X108066675Y-76584628D01*
X108139471Y-76554476D01*
X108204985Y-76510701D01*
X108260700Y-76454986D01*
X108304475Y-76389471D01*
X108334628Y-76316676D01*
X108350000Y-76239397D01*
X108350000Y-75850000D01*
X108250000Y-75750000D01*
X107650000Y-75750000D01*
X107350000Y-75750000D01*
X106750000Y-75750000D01*
X106700000Y-75800000D01*
X106650000Y-75750000D01*
X106050000Y-75750000D01*
X105750000Y-75750000D01*
X105150000Y-75750000D01*
X105100000Y-75800000D01*
X105050000Y-75750000D01*
X104450000Y-75750000D01*
X104150000Y-75750000D01*
X104130000Y-75750000D01*
X104130000Y-75450000D01*
X104150000Y-75450000D01*
X104150000Y-75430000D01*
X104450000Y-75430000D01*
X104450000Y-75450000D01*
X105050000Y-75450000D01*
X105100000Y-75400000D01*
X105150000Y-75450000D01*
X105750000Y-75450000D01*
X105750000Y-75430000D01*
X106050000Y-75430000D01*
X106050000Y-75450000D01*
X106650000Y-75450000D01*
X106700000Y-75400000D01*
X106750000Y-75450000D01*
X107350000Y-75450000D01*
X107350000Y-75430000D01*
X107650000Y-75430000D01*
X107650000Y-75450000D01*
X108250000Y-75450000D01*
X108350000Y-75350000D01*
X108350000Y-74960603D01*
X108334628Y-74883324D01*
X108304475Y-74810529D01*
X108260700Y-74745014D01*
X108217621Y-74701935D01*
X109574118Y-74701935D01*
X109610001Y-74737818D01*
X109610001Y-74737818D01*
G37*
X109610001Y-74737818D02*
X109610001Y-74948065D01*
X109410000Y-74948065D01*
X109331586Y-74955788D01*
X109256186Y-74978660D01*
X109186697Y-75015803D01*
X109125789Y-75065789D01*
X109075803Y-75126697D01*
X109038660Y-75196186D01*
X109015788Y-75271586D01*
X109008065Y-75350000D01*
X109008065Y-76850000D01*
X109015788Y-76928414D01*
X109038660Y-77003814D01*
X109075803Y-77073303D01*
X109125789Y-77134211D01*
X109186697Y-77184197D01*
X109256186Y-77221340D01*
X109331586Y-77244212D01*
X109410000Y-77251935D01*
X109610000Y-77251935D01*
X109610001Y-78312182D01*
X108824118Y-79098065D01*
X108500000Y-79098065D01*
X108421586Y-79105788D01*
X108350000Y-79127503D01*
X108350000Y-78419647D01*
X108351935Y-78400000D01*
X108351935Y-77200000D01*
X108344212Y-77121586D01*
X108321340Y-77046186D01*
X108284197Y-76976697D01*
X108234211Y-76915789D01*
X108173303Y-76865803D01*
X108103814Y-76828660D01*
X108028414Y-76805788D01*
X107950000Y-76798065D01*
X107050000Y-76798065D01*
X106971586Y-76805788D01*
X106896186Y-76828660D01*
X106826697Y-76865803D01*
X106765789Y-76915789D01*
X106715803Y-76976697D01*
X106700000Y-77006262D01*
X106684197Y-76976697D01*
X106634211Y-76915789D01*
X106573303Y-76865803D01*
X106503814Y-76828660D01*
X106428414Y-76805788D01*
X106350000Y-76798065D01*
X105450000Y-76798065D01*
X105371586Y-76805788D01*
X105296186Y-76828660D01*
X105226697Y-76865803D01*
X105165789Y-76915789D01*
X105115803Y-76976697D01*
X105100000Y-77006262D01*
X105084197Y-76976697D01*
X105034211Y-76915789D01*
X104973303Y-76865803D01*
X104903814Y-76828660D01*
X104828414Y-76805788D01*
X104750000Y-76798065D01*
X103850000Y-76798065D01*
X103771586Y-76805788D01*
X103696186Y-76828660D01*
X103626697Y-76865803D01*
X103565789Y-76915789D01*
X103515803Y-76976697D01*
X103478660Y-77046186D01*
X103455788Y-77121586D01*
X103448065Y-77200000D01*
X103448065Y-77300000D01*
X103424560Y-77300000D01*
X103400000Y-77297581D01*
X103375440Y-77300000D01*
X103301983Y-77307235D01*
X103207733Y-77335825D01*
X103120871Y-77382254D01*
X103044736Y-77444736D01*
X103029080Y-77463813D01*
X102213824Y-78279071D01*
X102194736Y-78294736D01*
X102132254Y-78370871D01*
X102085825Y-78457734D01*
X102081840Y-78470872D01*
X102057235Y-78551983D01*
X102047581Y-78650000D01*
X102050000Y-78674560D01*
X102050000Y-78708065D01*
X100750000Y-78708065D01*
X100671586Y-78715788D01*
X100596186Y-78738660D01*
X100526697Y-78775803D01*
X100475000Y-78818230D01*
X100475000Y-78176045D01*
X101050081Y-78061654D01*
X101705240Y-77790279D01*
X102294866Y-77396303D01*
X102796303Y-76894866D01*
X103190279Y-76305240D01*
X103450000Y-75678216D01*
X103450000Y-75750002D01*
X103549998Y-75750002D01*
X103450000Y-75850000D01*
X103450000Y-76239397D01*
X103465372Y-76316676D01*
X103495525Y-76389471D01*
X103539300Y-76454986D01*
X103595015Y-76510701D01*
X103660529Y-76554476D01*
X103733325Y-76584628D01*
X103810604Y-76600000D01*
X104050000Y-76600000D01*
X104150000Y-76500000D01*
X104150000Y-75750000D01*
X104450000Y-75750000D01*
X104450000Y-76500000D01*
X104550000Y-76600000D01*
X104789396Y-76600000D01*
X104866675Y-76584628D01*
X104939471Y-76554476D01*
X105004985Y-76510701D01*
X105060700Y-76454986D01*
X105100000Y-76396168D01*
X105139300Y-76454986D01*
X105195015Y-76510701D01*
X105260529Y-76554476D01*
X105333325Y-76584628D01*
X105410604Y-76600000D01*
X105650000Y-76600000D01*
X105750000Y-76500000D01*
X105750000Y-75750000D01*
X106050000Y-75750000D01*
X106050000Y-76500000D01*
X106150000Y-76600000D01*
X106389396Y-76600000D01*
X106466675Y-76584628D01*
X106539471Y-76554476D01*
X106604985Y-76510701D01*
X106660700Y-76454986D01*
X106700000Y-76396168D01*
X106739300Y-76454986D01*
X106795015Y-76510701D01*
X106860529Y-76554476D01*
X106933325Y-76584628D01*
X107010604Y-76600000D01*
X107250000Y-76600000D01*
X107350000Y-76500000D01*
X107350000Y-75750000D01*
X107650000Y-75750000D01*
X107650000Y-76500000D01*
X107750000Y-76600000D01*
X107989396Y-76600000D01*
X108066675Y-76584628D01*
X108139471Y-76554476D01*
X108204985Y-76510701D01*
X108260700Y-76454986D01*
X108304475Y-76389471D01*
X108334628Y-76316676D01*
X108350000Y-76239397D01*
X108350000Y-75850000D01*
X108250000Y-75750000D01*
X107650000Y-75750000D01*
X107350000Y-75750000D01*
X106750000Y-75750000D01*
X106700000Y-75800000D01*
X106650000Y-75750000D01*
X106050000Y-75750000D01*
X105750000Y-75750000D01*
X105150000Y-75750000D01*
X105100000Y-75800000D01*
X105050000Y-75750000D01*
X104450000Y-75750000D01*
X104150000Y-75750000D01*
X104130000Y-75750000D01*
X104130000Y-75450000D01*
X104150000Y-75450000D01*
X104150000Y-75430000D01*
X104450000Y-75430000D01*
X104450000Y-75450000D01*
X105050000Y-75450000D01*
X105100000Y-75400000D01*
X105150000Y-75450000D01*
X105750000Y-75450000D01*
X105750000Y-75430000D01*
X106050000Y-75430000D01*
X106050000Y-75450000D01*
X106650000Y-75450000D01*
X106700000Y-75400000D01*
X106750000Y-75450000D01*
X107350000Y-75450000D01*
X107350000Y-75430000D01*
X107650000Y-75430000D01*
X107650000Y-75450000D01*
X108250000Y-75450000D01*
X108350000Y-75350000D01*
X108350000Y-74960603D01*
X108334628Y-74883324D01*
X108304475Y-74810529D01*
X108260700Y-74745014D01*
X108217621Y-74701935D01*
X109574118Y-74701935D01*
X109610001Y-74737818D01*
G04 #@! TD*
M02*
