G04 #@! TF.GenerationSoftware,KiCad,Pcbnew,(5.0.0)*
G04 #@! TF.CreationDate,2018-11-06T13:21:30+03:00*
G04 #@! TF.ProjectId,NeoModule,4E656F4D6F64756C652E6B696361645F,rev?*
G04 #@! TF.SameCoordinates,Original*
G04 #@! TF.FileFunction,Copper,L2,Bot,Signal*
G04 #@! TF.FilePolarity,Positive*
%FSLAX46Y46*%
G04 Gerber Fmt 4.6, Leading zero omitted, Abs format (unit mm)*
G04 Created by KiCad (PCBNEW (5.0.0)) date 11/06/18 13:21:30*
%MOMM*%
%LPD*%
G01*
G04 APERTURE LIST*
G04 #@! TA.AperFunction,ComponentPad*
%ADD10R,2.500000X2.500000*%
G04 #@! TD*
G04 #@! TA.AperFunction,ComponentPad*
%ADD11C,2.500000*%
G04 #@! TD*
G04 #@! TA.AperFunction,ComponentPad*
%ADD12R,1.500000X1.500000*%
G04 #@! TD*
G04 #@! TA.AperFunction,ComponentPad*
%ADD13C,1.500000*%
G04 #@! TD*
G04 #@! TA.AperFunction,ComponentPad*
%ADD14O,1.500000X1.500000*%
G04 #@! TD*
G04 #@! TA.AperFunction,ViaPad*
%ADD15C,0.700000*%
G04 #@! TD*
G04 #@! TA.AperFunction,Conductor*
%ADD16C,2.000000*%
G04 #@! TD*
G04 #@! TA.AperFunction,Conductor*
%ADD17C,0.500000*%
G04 #@! TD*
G04 #@! TA.AperFunction,Conductor*
%ADD18C,0.200000*%
G04 #@! TD*
G04 APERTURE END LIST*
D10*
G04 #@! TO.P,REF\002A\002A,1*
G04 #@! TO.N,DIN*
X108700000Y-101550000D03*
D11*
G04 #@! TO.P,REF\002A\002A,2*
G04 #@! TO.N,VIN*
X112700000Y-101550000D03*
G04 #@! TO.P,REF\002A\002A,3*
G04 #@! TO.N,GND*
X116700000Y-101550000D03*
G04 #@! TD*
D12*
G04 #@! TO.P,XP1,1*
G04 #@! TO.N,3V3*
X101500000Y-82400000D03*
D13*
G04 #@! TO.P,XP1,2*
G04 #@! TO.N,Net-(DD1-Pad2)*
X104040000Y-82400000D03*
G04 #@! TO.P,XP1,3*
G04 #@! TO.N,3V3*
X101500000Y-84940000D03*
G04 #@! TO.P,XP1,4*
G04 #@! TO.N,Net-(DD1-Pad3)*
X104040000Y-84940000D03*
G04 #@! TD*
D12*
G04 #@! TO.P,XP2,1*
G04 #@! TO.N,3V3*
X101500000Y-79860000D03*
D14*
G04 #@! TO.P,XP2,2*
G04 #@! TO.N,Net-(DD1-Pad1)*
X104040000Y-79860000D03*
G04 #@! TD*
D13*
G04 #@! TO.P,XP6,3*
G04 #@! TO.N,GND*
X115240000Y-98500000D03*
G04 #@! TO.P,XP6,2*
G04 #@! TO.N,VIN*
X112700000Y-98500000D03*
D12*
G04 #@! TO.P,XP6,1*
G04 #@! TO.N,DIN*
X110160000Y-98500000D03*
G04 #@! TD*
G04 #@! TO.P,XP7,1*
G04 #@! TO.N,DOUT*
X110160000Y-76100000D03*
D13*
G04 #@! TO.P,XP7,2*
G04 #@! TO.N,VIN*
X112700000Y-76100000D03*
G04 #@! TO.P,XP7,3*
G04 #@! TO.N,GND*
X115240000Y-76100000D03*
G04 #@! TD*
D12*
G04 #@! TO.P,XP5,1*
G04 #@! TO.N,SWDIO*
X123900000Y-79860000D03*
D14*
G04 #@! TO.P,XP5,2*
G04 #@! TO.N,SWDCLK*
X121360000Y-79860000D03*
G04 #@! TD*
D12*
G04 #@! TO.P,XP3,1*
G04 #@! TO.N,OUT4*
X101500000Y-95100000D03*
D14*
G04 #@! TO.P,XP3,2*
G04 #@! TO.N,OUT3*
X101500000Y-92560000D03*
G04 #@! TO.P,XP3,3*
G04 #@! TO.N,OUT2*
X101500000Y-90020000D03*
G04 #@! TO.P,XP3,4*
G04 #@! TO.N,OUT1*
X101500000Y-87480000D03*
G04 #@! TD*
D12*
G04 #@! TO.P,XP4,1*
G04 #@! TO.N,OUT5*
X123900000Y-95100000D03*
D13*
G04 #@! TO.P,XP4,2*
G04 #@! TO.N,OUT6*
X123900000Y-92560000D03*
G04 #@! TO.P,XP4,3*
G04 #@! TO.N,OUT7_TX*
X123900000Y-90020000D03*
G04 #@! TO.P,XP4,4*
G04 #@! TO.N,OUT8_RX*
X123900000Y-87480000D03*
G04 #@! TO.P,XP4,5*
G04 #@! TO.N,GND*
X123900000Y-84940000D03*
G04 #@! TO.P,XP4,6*
G04 #@! TO.N,VIN*
X123900000Y-82400000D03*
G04 #@! TD*
D11*
G04 #@! TO.P,REF\002A\002A,3*
G04 #@! TO.N,GND*
X116700000Y-73050000D03*
G04 #@! TO.P,REF\002A\002A,2*
G04 #@! TO.N,VIN*
X112700000Y-73050000D03*
D10*
G04 #@! TO.P,REF\002A\002A,1*
G04 #@! TO.N,DOUT*
X108700000Y-73050000D03*
G04 #@! TD*
D15*
G04 #@! TO.N,GND*
X111000000Y-94450000D03*
X106950000Y-83650000D03*
X108850000Y-83650000D03*
X109950000Y-96100000D03*
X103250000Y-76700000D03*
X108950000Y-78250000D03*
X102050000Y-77900000D03*
X118000000Y-89400000D03*
X120300000Y-89400000D03*
X110700000Y-84100000D03*
X121000000Y-76000000D03*
X118500000Y-76000000D03*
X119000000Y-78600000D03*
X114500000Y-82300000D03*
X117700000Y-82300000D03*
X116100000Y-82300000D03*
X114500000Y-84500000D03*
X122200000Y-97300000D03*
X122000000Y-89400000D03*
X121000000Y-86600000D03*
X115300000Y-93200000D03*
X103900000Y-95900000D03*
X107000000Y-97500000D03*
X105000000Y-97500000D03*
X107000000Y-99000000D03*
X103900000Y-99000000D03*
X117500000Y-83700000D03*
X103250000Y-87850000D03*
X103600000Y-89650000D03*
X105000000Y-89650000D03*
G04 #@! TO.N,VIN*
X112200000Y-80000000D03*
X113200000Y-80000000D03*
X112200000Y-81000000D03*
X113200000Y-81000000D03*
X112200000Y-88800000D03*
X112200000Y-87800000D03*
X113200000Y-87800000D03*
X113200000Y-88800000D03*
G04 #@! TO.N,3V3*
X106350000Y-89650000D03*
X103950000Y-93950000D03*
X120500000Y-92050000D03*
X119100000Y-88650000D03*
G04 #@! TD*
D16*
G04 #@! TO.N,VIN*
X112700000Y-98500000D02*
X112700000Y-88000000D01*
X112700000Y-101550000D02*
X112700000Y-98500000D01*
X120350000Y-82400000D02*
X118450000Y-80500000D01*
X123900000Y-82400000D02*
X120350000Y-82400000D01*
X118450000Y-80500000D02*
X112700000Y-80500000D01*
D17*
G04 #@! TO.N,3V3*
X106350000Y-91550000D02*
X103950000Y-93950000D01*
X106350000Y-89650000D02*
X106350000Y-91550000D01*
X119100000Y-90650000D02*
X119100000Y-88650000D01*
X120500000Y-92050000D02*
X119100000Y-90650000D01*
X119100000Y-88650000D02*
X116150000Y-85700000D01*
X116150000Y-85700000D02*
X110300000Y-85700000D01*
X101500000Y-84940000D02*
X103410000Y-86850000D01*
X103410000Y-86850000D02*
X105500000Y-86850000D01*
X106350000Y-87700000D02*
X106350000Y-89650000D01*
X110300000Y-85700000D02*
X109150000Y-86850000D01*
X106350000Y-87700000D02*
X106350000Y-86850000D01*
X109150000Y-86850000D02*
X106350000Y-86850000D01*
X106350000Y-86850000D02*
X105500000Y-86850000D01*
G04 #@! TD*
D18*
G04 #@! TO.N,GND*
G36*
X107450000Y-74701935D02*
X109950000Y-74701935D01*
X109969647Y-74700000D01*
X116661323Y-74700000D01*
X116785059Y-74705801D01*
X116823571Y-74700000D01*
X121800000Y-74700000D01*
X121800000Y-74954569D01*
X121938346Y-75650081D01*
X122209721Y-76305240D01*
X122603697Y-76894866D01*
X123105134Y-77396303D01*
X123694760Y-77790279D01*
X124349919Y-78061654D01*
X124925000Y-78176045D01*
X124925000Y-78818230D01*
X124873303Y-78775803D01*
X124803814Y-78738660D01*
X124728414Y-78715788D01*
X124650000Y-78708065D01*
X123150000Y-78708065D01*
X123071586Y-78715788D01*
X122996186Y-78738660D01*
X122926697Y-78775803D01*
X122865789Y-78825789D01*
X122815803Y-78886697D01*
X122778660Y-78956186D01*
X122755788Y-79031586D01*
X122748065Y-79110000D01*
X122748065Y-80610000D01*
X122755788Y-80688414D01*
X122778660Y-80763814D01*
X122815803Y-80833303D01*
X122865789Y-80894211D01*
X122926697Y-80944197D01*
X122996186Y-80981340D01*
X123057701Y-81000000D01*
X121518023Y-81000000D01*
X121585439Y-80993360D01*
X121802215Y-80927602D01*
X122001997Y-80820816D01*
X122177107Y-80677107D01*
X122320816Y-80501997D01*
X122427602Y-80302215D01*
X122493360Y-80085439D01*
X122515564Y-79860000D01*
X122493360Y-79634561D01*
X122427602Y-79417785D01*
X122320816Y-79218003D01*
X122177107Y-79042893D01*
X122001997Y-78899184D01*
X121802215Y-78792398D01*
X121585439Y-78726640D01*
X121416492Y-78710000D01*
X121303508Y-78710000D01*
X121134561Y-78726640D01*
X120917785Y-78792398D01*
X120718003Y-78899184D01*
X120542893Y-79042893D01*
X120399184Y-79218003D01*
X120292398Y-79417785D01*
X120226640Y-79634561D01*
X120204436Y-79860000D01*
X120226640Y-80085439D01*
X120292398Y-80302215D01*
X120361622Y-80431723D01*
X119488584Y-79558686D01*
X119444739Y-79505261D01*
X119231562Y-79330310D01*
X118988349Y-79200310D01*
X118724448Y-79120257D01*
X118518777Y-79100000D01*
X118518769Y-79100000D01*
X118450000Y-79093227D01*
X118381231Y-79100000D01*
X112631223Y-79100000D01*
X112425552Y-79120257D01*
X112161651Y-79200310D01*
X112034640Y-79268199D01*
X111981233Y-79278822D01*
X111844742Y-79335359D01*
X111721903Y-79417437D01*
X111617437Y-79521903D01*
X111535359Y-79644742D01*
X111478822Y-79781233D01*
X111468199Y-79834640D01*
X111400310Y-79961651D01*
X111320257Y-80225552D01*
X111293226Y-80500000D01*
X111320257Y-80774448D01*
X111400310Y-81038349D01*
X111468199Y-81165360D01*
X111478822Y-81218767D01*
X111535359Y-81355258D01*
X111617437Y-81478097D01*
X111721903Y-81582563D01*
X111844742Y-81664641D01*
X111981233Y-81721178D01*
X112034640Y-81731801D01*
X112161651Y-81799690D01*
X112425552Y-81879743D01*
X112631223Y-81900000D01*
X117870102Y-81900000D01*
X119311420Y-83341319D01*
X119355261Y-83394739D01*
X119568438Y-83569690D01*
X119726933Y-83654407D01*
X119811650Y-83699690D01*
X120075552Y-83779743D01*
X120281223Y-83800000D01*
X120281231Y-83800000D01*
X120350000Y-83806773D01*
X120418769Y-83800000D01*
X123738704Y-83800000D01*
X123572607Y-83831785D01*
X123362695Y-83916951D01*
X123347876Y-83924871D01*
X123267244Y-84095112D01*
X123900000Y-84727868D01*
X124532756Y-84095112D01*
X124452124Y-83924871D01*
X124243474Y-83836662D01*
X124034543Y-83793523D01*
X124174448Y-83779743D01*
X124438349Y-83699690D01*
X124681562Y-83569690D01*
X124894739Y-83394739D01*
X124925000Y-83357866D01*
X124925000Y-84407505D01*
X124923049Y-84402695D01*
X124915129Y-84387876D01*
X124744888Y-84307244D01*
X124112132Y-84940000D01*
X124744888Y-85572756D01*
X124915129Y-85492124D01*
X124925000Y-85468774D01*
X124925000Y-86949477D01*
X124919116Y-86935271D01*
X124793263Y-86746918D01*
X124633082Y-86586737D01*
X124444729Y-86460884D01*
X124235443Y-86374194D01*
X124013265Y-86330000D01*
X123786735Y-86330000D01*
X123564557Y-86374194D01*
X123355271Y-86460884D01*
X123166918Y-86586737D01*
X123006737Y-86746918D01*
X122880884Y-86935271D01*
X122794194Y-87144557D01*
X122750000Y-87366735D01*
X122750000Y-87593265D01*
X122794194Y-87815443D01*
X122880884Y-88024729D01*
X123006737Y-88213082D01*
X123166918Y-88373263D01*
X123355271Y-88499116D01*
X123564557Y-88585806D01*
X123786735Y-88630000D01*
X124013265Y-88630000D01*
X124235443Y-88585806D01*
X124444729Y-88499116D01*
X124633082Y-88373263D01*
X124793263Y-88213082D01*
X124919116Y-88024729D01*
X124925001Y-88010523D01*
X124925001Y-89489478D01*
X124919116Y-89475271D01*
X124793263Y-89286918D01*
X124633082Y-89126737D01*
X124444729Y-89000884D01*
X124235443Y-88914194D01*
X124013265Y-88870000D01*
X123786735Y-88870000D01*
X123564557Y-88914194D01*
X123355271Y-89000884D01*
X123166918Y-89126737D01*
X123006737Y-89286918D01*
X122880884Y-89475271D01*
X122794194Y-89684557D01*
X122750000Y-89906735D01*
X122750000Y-90133265D01*
X122794194Y-90355443D01*
X122880884Y-90564729D01*
X123006737Y-90753082D01*
X123166918Y-90913263D01*
X123355271Y-91039116D01*
X123564557Y-91125806D01*
X123786735Y-91170000D01*
X124013265Y-91170000D01*
X124235443Y-91125806D01*
X124444729Y-91039116D01*
X124633082Y-90913263D01*
X124793263Y-90753082D01*
X124919116Y-90564729D01*
X124925001Y-90550522D01*
X124925001Y-92029478D01*
X124919116Y-92015271D01*
X124793263Y-91826918D01*
X124633082Y-91666737D01*
X124444729Y-91540884D01*
X124235443Y-91454194D01*
X124013265Y-91410000D01*
X123786735Y-91410000D01*
X123564557Y-91454194D01*
X123355271Y-91540884D01*
X123166918Y-91666737D01*
X123006737Y-91826918D01*
X122880884Y-92015271D01*
X122794194Y-92224557D01*
X122750000Y-92446735D01*
X122750000Y-92673265D01*
X122794194Y-92895443D01*
X122880884Y-93104729D01*
X123006737Y-93293082D01*
X123166918Y-93453263D01*
X123355271Y-93579116D01*
X123564557Y-93665806D01*
X123786735Y-93710000D01*
X124013265Y-93710000D01*
X124235443Y-93665806D01*
X124444729Y-93579116D01*
X124633082Y-93453263D01*
X124793263Y-93293082D01*
X124919116Y-93104729D01*
X124925001Y-93090522D01*
X124925001Y-94058230D01*
X124873303Y-94015803D01*
X124803814Y-93978660D01*
X124728414Y-93955788D01*
X124650000Y-93948065D01*
X123150000Y-93948065D01*
X123071586Y-93955788D01*
X122996186Y-93978660D01*
X122926697Y-94015803D01*
X122865789Y-94065789D01*
X122815803Y-94126697D01*
X122778660Y-94196186D01*
X122755788Y-94271586D01*
X122748065Y-94350000D01*
X122748065Y-95850000D01*
X122755788Y-95928414D01*
X122778660Y-96003814D01*
X122815803Y-96073303D01*
X122865789Y-96134211D01*
X122926697Y-96184197D01*
X122996186Y-96221340D01*
X123071586Y-96244212D01*
X123150000Y-96251935D01*
X124650000Y-96251935D01*
X124728414Y-96244212D01*
X124803814Y-96221340D01*
X124873303Y-96184197D01*
X124925001Y-96141769D01*
X124925001Y-96423955D01*
X124349919Y-96538346D01*
X123694760Y-96809721D01*
X123105134Y-97203697D01*
X122603697Y-97705134D01*
X122209721Y-98294760D01*
X121938346Y-98949919D01*
X121800000Y-99645431D01*
X121800000Y-99900000D01*
X116738677Y-99900000D01*
X116614941Y-99894199D01*
X116576429Y-99900000D01*
X114100000Y-99900000D01*
X114100000Y-99344888D01*
X114607244Y-99344888D01*
X114687876Y-99515129D01*
X114896526Y-99603338D01*
X115118377Y-99649145D01*
X115344901Y-99650792D01*
X115567393Y-99608215D01*
X115777305Y-99523049D01*
X115792124Y-99515129D01*
X115872756Y-99344888D01*
X115240000Y-98712132D01*
X114607244Y-99344888D01*
X114100000Y-99344888D01*
X114100000Y-98661296D01*
X114131785Y-98827393D01*
X114216951Y-99037305D01*
X114224871Y-99052124D01*
X114395112Y-99132756D01*
X115027868Y-98500000D01*
X115452132Y-98500000D01*
X116084888Y-99132756D01*
X116255129Y-99052124D01*
X116343338Y-98843474D01*
X116389145Y-98621623D01*
X116390792Y-98395099D01*
X116348215Y-98172607D01*
X116263049Y-97962695D01*
X116255129Y-97947876D01*
X116084888Y-97867244D01*
X115452132Y-98500000D01*
X115027868Y-98500000D01*
X114395112Y-97867244D01*
X114224871Y-97947876D01*
X114136662Y-98156526D01*
X114100000Y-98334086D01*
X114100000Y-97655112D01*
X114607244Y-97655112D01*
X115240000Y-98287868D01*
X115872756Y-97655112D01*
X115792124Y-97484871D01*
X115583474Y-97396662D01*
X115361623Y-97350855D01*
X115135099Y-97349208D01*
X114912607Y-97391785D01*
X114702695Y-97476951D01*
X114687876Y-97484871D01*
X114607244Y-97655112D01*
X114100000Y-97655112D01*
X114100000Y-87931223D01*
X114079743Y-87725552D01*
X113999690Y-87461651D01*
X113869690Y-87218438D01*
X113694739Y-87005261D01*
X113481562Y-86830310D01*
X113238349Y-86700310D01*
X112974448Y-86620257D01*
X112700000Y-86593226D01*
X112425553Y-86620257D01*
X112161652Y-86700310D01*
X111918439Y-86830310D01*
X111705262Y-87005261D01*
X111530311Y-87218438D01*
X111400311Y-87461651D01*
X111320258Y-87725552D01*
X111300001Y-87931223D01*
X111300000Y-97657701D01*
X111281340Y-97596186D01*
X111244197Y-97526697D01*
X111194211Y-97465789D01*
X111133303Y-97415803D01*
X111063814Y-97378660D01*
X110988414Y-97355788D01*
X110910000Y-97348065D01*
X109410000Y-97348065D01*
X109331586Y-97355788D01*
X109256186Y-97378660D01*
X109186697Y-97415803D01*
X109125789Y-97465789D01*
X109075803Y-97526697D01*
X109038660Y-97596186D01*
X109015788Y-97671586D01*
X109008065Y-97750000D01*
X109008065Y-99250000D01*
X109015788Y-99328414D01*
X109038660Y-99403814D01*
X109075803Y-99473303D01*
X109125789Y-99534211D01*
X109186697Y-99584197D01*
X109256186Y-99621340D01*
X109331586Y-99644212D01*
X109410000Y-99651935D01*
X110910000Y-99651935D01*
X110988414Y-99644212D01*
X111063814Y-99621340D01*
X111133303Y-99584197D01*
X111194211Y-99534211D01*
X111244197Y-99473303D01*
X111281340Y-99403814D01*
X111300001Y-99342297D01*
X111300001Y-99900000D01*
X109969647Y-99900000D01*
X109950000Y-99898065D01*
X107450000Y-99898065D01*
X107430353Y-99900000D01*
X103600000Y-99900000D01*
X103600000Y-99645431D01*
X103461654Y-98949919D01*
X103190279Y-98294760D01*
X102796303Y-97705134D01*
X102294866Y-97203697D01*
X101705240Y-96809721D01*
X101050081Y-96538346D01*
X100475000Y-96423955D01*
X100475000Y-96141770D01*
X100526697Y-96184197D01*
X100596186Y-96221340D01*
X100671586Y-96244212D01*
X100750000Y-96251935D01*
X102250000Y-96251935D01*
X102328414Y-96244212D01*
X102403814Y-96221340D01*
X102473303Y-96184197D01*
X102534211Y-96134211D01*
X102584197Y-96073303D01*
X102621340Y-96003814D01*
X102644212Y-95928414D01*
X102651935Y-95850000D01*
X102651935Y-94350000D01*
X102644212Y-94271586D01*
X102621340Y-94196186D01*
X102584197Y-94126697D01*
X102534211Y-94065789D01*
X102473303Y-94015803D01*
X102403814Y-93978660D01*
X102328414Y-93955788D01*
X102250000Y-93948065D01*
X100750000Y-93948065D01*
X100671586Y-93955788D01*
X100596186Y-93978660D01*
X100526697Y-94015803D01*
X100475000Y-94058230D01*
X100475000Y-93081918D01*
X100539184Y-93201997D01*
X100682893Y-93377107D01*
X100858003Y-93520816D01*
X101057785Y-93627602D01*
X101274561Y-93693360D01*
X101443508Y-93710000D01*
X101556492Y-93710000D01*
X101725439Y-93693360D01*
X101942215Y-93627602D01*
X102141997Y-93520816D01*
X102317107Y-93377107D01*
X102460816Y-93201997D01*
X102567602Y-93002215D01*
X102633360Y-92785439D01*
X102655564Y-92560000D01*
X102633360Y-92334561D01*
X102567602Y-92117785D01*
X102460816Y-91918003D01*
X102317107Y-91742893D01*
X102141997Y-91599184D01*
X101942215Y-91492398D01*
X101725439Y-91426640D01*
X101556492Y-91410000D01*
X101443508Y-91410000D01*
X101274561Y-91426640D01*
X101057785Y-91492398D01*
X100858003Y-91599184D01*
X100682893Y-91742893D01*
X100539184Y-91918003D01*
X100475000Y-92038082D01*
X100475000Y-90541918D01*
X100539184Y-90661997D01*
X100682893Y-90837107D01*
X100858003Y-90980816D01*
X101057785Y-91087602D01*
X101274561Y-91153360D01*
X101443508Y-91170000D01*
X101556492Y-91170000D01*
X101725439Y-91153360D01*
X101942215Y-91087602D01*
X102141997Y-90980816D01*
X102317107Y-90837107D01*
X102460816Y-90661997D01*
X102567602Y-90462215D01*
X102633360Y-90245439D01*
X102655564Y-90020000D01*
X102633360Y-89794561D01*
X102567602Y-89577785D01*
X102460816Y-89378003D01*
X102317107Y-89202893D01*
X102141997Y-89059184D01*
X101942215Y-88952398D01*
X101725439Y-88886640D01*
X101556492Y-88870000D01*
X101443508Y-88870000D01*
X101274561Y-88886640D01*
X101057785Y-88952398D01*
X100858003Y-89059184D01*
X100682893Y-89202893D01*
X100539184Y-89378003D01*
X100475000Y-89498082D01*
X100475000Y-88001918D01*
X100539184Y-88121997D01*
X100682893Y-88297107D01*
X100858003Y-88440816D01*
X101057785Y-88547602D01*
X101274561Y-88613360D01*
X101443508Y-88630000D01*
X101556492Y-88630000D01*
X101725439Y-88613360D01*
X101942215Y-88547602D01*
X102141997Y-88440816D01*
X102317107Y-88297107D01*
X102460816Y-88121997D01*
X102567602Y-87922215D01*
X102633360Y-87705439D01*
X102655564Y-87480000D01*
X102633360Y-87254561D01*
X102567602Y-87037785D01*
X102460816Y-86838003D01*
X102378674Y-86737913D01*
X102927804Y-87287043D01*
X102948157Y-87311843D01*
X102972957Y-87332196D01*
X102972959Y-87332198D01*
X103047131Y-87393070D01*
X103153738Y-87450052D01*
X103160052Y-87453427D01*
X103282578Y-87490595D01*
X103378068Y-87500000D01*
X103378079Y-87500000D01*
X103410000Y-87503144D01*
X103441921Y-87500000D01*
X105700000Y-87500000D01*
X105700000Y-87668069D01*
X105700001Y-89272829D01*
X105685359Y-89294742D01*
X105628822Y-89431233D01*
X105600000Y-89576131D01*
X105600000Y-89723869D01*
X105628822Y-89868767D01*
X105685359Y-90005258D01*
X105700000Y-90027170D01*
X105700001Y-91280760D01*
X103757081Y-93223680D01*
X103731233Y-93228822D01*
X103594742Y-93285359D01*
X103471903Y-93367437D01*
X103367437Y-93471903D01*
X103285359Y-93594742D01*
X103228822Y-93731233D01*
X103200000Y-93876131D01*
X103200000Y-94023869D01*
X103228822Y-94168767D01*
X103285359Y-94305258D01*
X103367437Y-94428097D01*
X103471903Y-94532563D01*
X103594742Y-94614641D01*
X103731233Y-94671178D01*
X103876131Y-94700000D01*
X104023869Y-94700000D01*
X104168767Y-94671178D01*
X104305258Y-94614641D01*
X104428097Y-94532563D01*
X104532563Y-94428097D01*
X104614641Y-94305258D01*
X104671178Y-94168767D01*
X104676320Y-94142919D01*
X106787043Y-92032196D01*
X106811843Y-92011843D01*
X106832196Y-91987043D01*
X106832199Y-91987040D01*
X106893070Y-91912868D01*
X106953427Y-91799948D01*
X106990595Y-91677422D01*
X106996944Y-91612959D01*
X107000000Y-91581932D01*
X107000000Y-91581924D01*
X107003144Y-91550000D01*
X107000000Y-91518076D01*
X107000000Y-90027170D01*
X107014641Y-90005258D01*
X107071178Y-89868767D01*
X107100000Y-89723869D01*
X107100000Y-89576131D01*
X107071178Y-89431233D01*
X107014641Y-89294742D01*
X107000000Y-89272830D01*
X107000000Y-87500000D01*
X109118079Y-87500000D01*
X109150000Y-87503144D01*
X109181921Y-87500000D01*
X109181932Y-87500000D01*
X109277422Y-87490595D01*
X109399948Y-87453427D01*
X109512868Y-87393070D01*
X109611843Y-87311843D01*
X109632200Y-87287038D01*
X110569239Y-86350000D01*
X115880762Y-86350000D01*
X118373681Y-88842920D01*
X118378822Y-88868767D01*
X118435359Y-89005258D01*
X118450001Y-89027171D01*
X118450000Y-90618078D01*
X118446856Y-90650000D01*
X118450000Y-90681921D01*
X118450000Y-90681931D01*
X118459405Y-90777421D01*
X118477511Y-90837107D01*
X118496573Y-90899947D01*
X118556930Y-91012868D01*
X118602013Y-91067801D01*
X118638157Y-91111843D01*
X118662962Y-91132200D01*
X119773681Y-92242919D01*
X119778822Y-92268767D01*
X119835359Y-92405258D01*
X119917437Y-92528097D01*
X120021903Y-92632563D01*
X120144742Y-92714641D01*
X120281233Y-92771178D01*
X120426131Y-92800000D01*
X120573869Y-92800000D01*
X120718767Y-92771178D01*
X120855258Y-92714641D01*
X120978097Y-92632563D01*
X121082563Y-92528097D01*
X121164641Y-92405258D01*
X121221178Y-92268767D01*
X121250000Y-92123869D01*
X121250000Y-91976131D01*
X121221178Y-91831233D01*
X121164641Y-91694742D01*
X121082563Y-91571903D01*
X120978097Y-91467437D01*
X120855258Y-91385359D01*
X120718767Y-91328822D01*
X120692919Y-91323681D01*
X119750000Y-90380762D01*
X119750000Y-89027170D01*
X119764641Y-89005258D01*
X119821178Y-88868767D01*
X119850000Y-88723869D01*
X119850000Y-88576131D01*
X119821178Y-88431233D01*
X119764641Y-88294742D01*
X119682563Y-88171903D01*
X119578097Y-88067437D01*
X119455258Y-87985359D01*
X119318767Y-87928822D01*
X119292920Y-87923681D01*
X117154127Y-85784888D01*
X123267244Y-85784888D01*
X123347876Y-85955129D01*
X123556526Y-86043338D01*
X123778377Y-86089145D01*
X124004901Y-86090792D01*
X124227393Y-86048215D01*
X124437305Y-85963049D01*
X124452124Y-85955129D01*
X124532756Y-85784888D01*
X123900000Y-85152132D01*
X123267244Y-85784888D01*
X117154127Y-85784888D01*
X116632200Y-85262962D01*
X116611843Y-85238157D01*
X116512868Y-85156930D01*
X116399948Y-85096573D01*
X116277422Y-85059405D01*
X116181932Y-85050000D01*
X116181921Y-85050000D01*
X116150000Y-85046856D01*
X116118079Y-85050000D01*
X110331924Y-85050000D01*
X110300000Y-85046856D01*
X110268076Y-85050000D01*
X110268068Y-85050000D01*
X110172578Y-85059405D01*
X110050052Y-85096573D01*
X109937132Y-85156930D01*
X109862960Y-85217801D01*
X109862957Y-85217804D01*
X109838157Y-85238157D01*
X109817804Y-85262957D01*
X108880762Y-86200000D01*
X106381932Y-86200000D01*
X106350000Y-86196855D01*
X106318069Y-86200000D01*
X103679239Y-86200000D01*
X103323745Y-85844507D01*
X103495271Y-85959116D01*
X103704557Y-86045806D01*
X103926735Y-86090000D01*
X104153265Y-86090000D01*
X104375443Y-86045806D01*
X104584729Y-85959116D01*
X104773082Y-85833263D01*
X104933263Y-85673082D01*
X105059116Y-85484729D01*
X105145806Y-85275443D01*
X105190000Y-85053265D01*
X105190000Y-85044901D01*
X122749208Y-85044901D01*
X122791785Y-85267393D01*
X122876951Y-85477305D01*
X122884871Y-85492124D01*
X123055112Y-85572756D01*
X123687868Y-84940000D01*
X123055112Y-84307244D01*
X122884871Y-84387876D01*
X122796662Y-84596526D01*
X122750855Y-84818377D01*
X122749208Y-85044901D01*
X105190000Y-85044901D01*
X105190000Y-84826735D01*
X105145806Y-84604557D01*
X105059116Y-84395271D01*
X104933263Y-84206918D01*
X104773082Y-84046737D01*
X104584729Y-83920884D01*
X104375443Y-83834194D01*
X104153265Y-83790000D01*
X103926735Y-83790000D01*
X103704557Y-83834194D01*
X103495271Y-83920884D01*
X103306918Y-84046737D01*
X103146737Y-84206918D01*
X103020884Y-84395271D01*
X102934194Y-84604557D01*
X102890000Y-84826735D01*
X102890000Y-85053265D01*
X102934194Y-85275443D01*
X103020884Y-85484729D01*
X103135494Y-85656255D01*
X102630506Y-85151268D01*
X102650000Y-85053265D01*
X102650000Y-84826735D01*
X102605806Y-84604557D01*
X102519116Y-84395271D01*
X102393263Y-84206918D01*
X102233082Y-84046737D01*
X102044729Y-83920884D01*
X101835443Y-83834194D01*
X101613265Y-83790000D01*
X101386735Y-83790000D01*
X101164557Y-83834194D01*
X100955271Y-83920884D01*
X100766918Y-84046737D01*
X100606737Y-84206918D01*
X100480884Y-84395271D01*
X100475000Y-84409476D01*
X100475000Y-83441770D01*
X100526697Y-83484197D01*
X100596186Y-83521340D01*
X100671586Y-83544212D01*
X100750000Y-83551935D01*
X102250000Y-83551935D01*
X102328414Y-83544212D01*
X102403814Y-83521340D01*
X102473303Y-83484197D01*
X102534211Y-83434211D01*
X102584197Y-83373303D01*
X102621340Y-83303814D01*
X102644212Y-83228414D01*
X102651935Y-83150000D01*
X102651935Y-82286735D01*
X102890000Y-82286735D01*
X102890000Y-82513265D01*
X102934194Y-82735443D01*
X103020884Y-82944729D01*
X103146737Y-83133082D01*
X103306918Y-83293263D01*
X103495271Y-83419116D01*
X103704557Y-83505806D01*
X103926735Y-83550000D01*
X104153265Y-83550000D01*
X104375443Y-83505806D01*
X104584729Y-83419116D01*
X104773082Y-83293263D01*
X104933263Y-83133082D01*
X105059116Y-82944729D01*
X105145806Y-82735443D01*
X105190000Y-82513265D01*
X105190000Y-82286735D01*
X105145806Y-82064557D01*
X105059116Y-81855271D01*
X104933263Y-81666918D01*
X104773082Y-81506737D01*
X104584729Y-81380884D01*
X104375443Y-81294194D01*
X104153265Y-81250000D01*
X103926735Y-81250000D01*
X103704557Y-81294194D01*
X103495271Y-81380884D01*
X103306918Y-81506737D01*
X103146737Y-81666918D01*
X103020884Y-81855271D01*
X102934194Y-82064557D01*
X102890000Y-82286735D01*
X102651935Y-82286735D01*
X102651935Y-81650000D01*
X102644212Y-81571586D01*
X102621340Y-81496186D01*
X102584197Y-81426697D01*
X102534211Y-81365789D01*
X102473303Y-81315803D01*
X102403814Y-81278660D01*
X102328414Y-81255788D01*
X102250000Y-81248065D01*
X100750000Y-81248065D01*
X100671586Y-81255788D01*
X100596186Y-81278660D01*
X100526697Y-81315803D01*
X100475000Y-81358230D01*
X100475000Y-80901770D01*
X100526697Y-80944197D01*
X100596186Y-80981340D01*
X100671586Y-81004212D01*
X100750000Y-81011935D01*
X102250000Y-81011935D01*
X102328414Y-81004212D01*
X102403814Y-80981340D01*
X102473303Y-80944197D01*
X102534211Y-80894211D01*
X102584197Y-80833303D01*
X102621340Y-80763814D01*
X102644212Y-80688414D01*
X102651935Y-80610000D01*
X102651935Y-79860000D01*
X102884436Y-79860000D01*
X102906640Y-80085439D01*
X102972398Y-80302215D01*
X103079184Y-80501997D01*
X103222893Y-80677107D01*
X103398003Y-80820816D01*
X103597785Y-80927602D01*
X103814561Y-80993360D01*
X103983508Y-81010000D01*
X104096492Y-81010000D01*
X104265439Y-80993360D01*
X104482215Y-80927602D01*
X104681997Y-80820816D01*
X104857107Y-80677107D01*
X105000816Y-80501997D01*
X105107602Y-80302215D01*
X105173360Y-80085439D01*
X105195564Y-79860000D01*
X105173360Y-79634561D01*
X105107602Y-79417785D01*
X105000816Y-79218003D01*
X104857107Y-79042893D01*
X104681997Y-78899184D01*
X104482215Y-78792398D01*
X104265439Y-78726640D01*
X104096492Y-78710000D01*
X103983508Y-78710000D01*
X103814561Y-78726640D01*
X103597785Y-78792398D01*
X103398003Y-78899184D01*
X103222893Y-79042893D01*
X103079184Y-79218003D01*
X102972398Y-79417785D01*
X102906640Y-79634561D01*
X102884436Y-79860000D01*
X102651935Y-79860000D01*
X102651935Y-79110000D01*
X102644212Y-79031586D01*
X102621340Y-78956186D01*
X102584197Y-78886697D01*
X102534211Y-78825789D01*
X102473303Y-78775803D01*
X102403814Y-78738660D01*
X102328414Y-78715788D01*
X102250000Y-78708065D01*
X100750000Y-78708065D01*
X100671586Y-78715788D01*
X100596186Y-78738660D01*
X100526697Y-78775803D01*
X100475000Y-78818230D01*
X100475000Y-78176045D01*
X101050081Y-78061654D01*
X101705240Y-77790279D01*
X102294866Y-77396303D01*
X102796303Y-76894866D01*
X103190279Y-76305240D01*
X103461654Y-75650081D01*
X103521343Y-75350000D01*
X109008065Y-75350000D01*
X109008065Y-76850000D01*
X109015788Y-76928414D01*
X109038660Y-77003814D01*
X109075803Y-77073303D01*
X109125789Y-77134211D01*
X109186697Y-77184197D01*
X109256186Y-77221340D01*
X109331586Y-77244212D01*
X109410000Y-77251935D01*
X110910000Y-77251935D01*
X110988414Y-77244212D01*
X111063814Y-77221340D01*
X111133303Y-77184197D01*
X111194211Y-77134211D01*
X111244197Y-77073303D01*
X111281340Y-77003814D01*
X111304212Y-76928414D01*
X111311935Y-76850000D01*
X111311935Y-75986735D01*
X111550000Y-75986735D01*
X111550000Y-76213265D01*
X111594194Y-76435443D01*
X111680884Y-76644729D01*
X111806737Y-76833082D01*
X111966918Y-76993263D01*
X112155271Y-77119116D01*
X112364557Y-77205806D01*
X112586735Y-77250000D01*
X112813265Y-77250000D01*
X113035443Y-77205806D01*
X113244729Y-77119116D01*
X113433082Y-76993263D01*
X113481457Y-76944888D01*
X114607244Y-76944888D01*
X114687876Y-77115129D01*
X114896526Y-77203338D01*
X115118377Y-77249145D01*
X115344901Y-77250792D01*
X115567393Y-77208215D01*
X115777305Y-77123049D01*
X115792124Y-77115129D01*
X115872756Y-76944888D01*
X115240000Y-76312132D01*
X114607244Y-76944888D01*
X113481457Y-76944888D01*
X113593263Y-76833082D01*
X113719116Y-76644729D01*
X113805806Y-76435443D01*
X113850000Y-76213265D01*
X113850000Y-76204901D01*
X114089208Y-76204901D01*
X114131785Y-76427393D01*
X114216951Y-76637305D01*
X114224871Y-76652124D01*
X114395112Y-76732756D01*
X115027868Y-76100000D01*
X115452132Y-76100000D01*
X116084888Y-76732756D01*
X116255129Y-76652124D01*
X116343338Y-76443474D01*
X116389145Y-76221623D01*
X116390792Y-75995099D01*
X116348215Y-75772607D01*
X116263049Y-75562695D01*
X116255129Y-75547876D01*
X116084888Y-75467244D01*
X115452132Y-76100000D01*
X115027868Y-76100000D01*
X114395112Y-75467244D01*
X114224871Y-75547876D01*
X114136662Y-75756526D01*
X114090855Y-75978377D01*
X114089208Y-76204901D01*
X113850000Y-76204901D01*
X113850000Y-75986735D01*
X113805806Y-75764557D01*
X113719116Y-75555271D01*
X113593263Y-75366918D01*
X113481457Y-75255112D01*
X114607244Y-75255112D01*
X115240000Y-75887868D01*
X115872756Y-75255112D01*
X115792124Y-75084871D01*
X115583474Y-74996662D01*
X115361623Y-74950855D01*
X115135099Y-74949208D01*
X114912607Y-74991785D01*
X114702695Y-75076951D01*
X114687876Y-75084871D01*
X114607244Y-75255112D01*
X113481457Y-75255112D01*
X113433082Y-75206737D01*
X113244729Y-75080884D01*
X113035443Y-74994194D01*
X112813265Y-74950000D01*
X112586735Y-74950000D01*
X112364557Y-74994194D01*
X112155271Y-75080884D01*
X111966918Y-75206737D01*
X111806737Y-75366918D01*
X111680884Y-75555271D01*
X111594194Y-75764557D01*
X111550000Y-75986735D01*
X111311935Y-75986735D01*
X111311935Y-75350000D01*
X111304212Y-75271586D01*
X111281340Y-75196186D01*
X111244197Y-75126697D01*
X111194211Y-75065789D01*
X111133303Y-75015803D01*
X111063814Y-74978660D01*
X110988414Y-74955788D01*
X110910000Y-74948065D01*
X109410000Y-74948065D01*
X109331586Y-74955788D01*
X109256186Y-74978660D01*
X109186697Y-75015803D01*
X109125789Y-75065789D01*
X109075803Y-75126697D01*
X109038660Y-75196186D01*
X109015788Y-75271586D01*
X109008065Y-75350000D01*
X103521343Y-75350000D01*
X103600000Y-74954569D01*
X103600000Y-74700000D01*
X107430353Y-74700000D01*
X107450000Y-74701935D01*
X107450000Y-74701935D01*
G37*
X107450000Y-74701935D02*
X109950000Y-74701935D01*
X109969647Y-74700000D01*
X116661323Y-74700000D01*
X116785059Y-74705801D01*
X116823571Y-74700000D01*
X121800000Y-74700000D01*
X121800000Y-74954569D01*
X121938346Y-75650081D01*
X122209721Y-76305240D01*
X122603697Y-76894866D01*
X123105134Y-77396303D01*
X123694760Y-77790279D01*
X124349919Y-78061654D01*
X124925000Y-78176045D01*
X124925000Y-78818230D01*
X124873303Y-78775803D01*
X124803814Y-78738660D01*
X124728414Y-78715788D01*
X124650000Y-78708065D01*
X123150000Y-78708065D01*
X123071586Y-78715788D01*
X122996186Y-78738660D01*
X122926697Y-78775803D01*
X122865789Y-78825789D01*
X122815803Y-78886697D01*
X122778660Y-78956186D01*
X122755788Y-79031586D01*
X122748065Y-79110000D01*
X122748065Y-80610000D01*
X122755788Y-80688414D01*
X122778660Y-80763814D01*
X122815803Y-80833303D01*
X122865789Y-80894211D01*
X122926697Y-80944197D01*
X122996186Y-80981340D01*
X123057701Y-81000000D01*
X121518023Y-81000000D01*
X121585439Y-80993360D01*
X121802215Y-80927602D01*
X122001997Y-80820816D01*
X122177107Y-80677107D01*
X122320816Y-80501997D01*
X122427602Y-80302215D01*
X122493360Y-80085439D01*
X122515564Y-79860000D01*
X122493360Y-79634561D01*
X122427602Y-79417785D01*
X122320816Y-79218003D01*
X122177107Y-79042893D01*
X122001997Y-78899184D01*
X121802215Y-78792398D01*
X121585439Y-78726640D01*
X121416492Y-78710000D01*
X121303508Y-78710000D01*
X121134561Y-78726640D01*
X120917785Y-78792398D01*
X120718003Y-78899184D01*
X120542893Y-79042893D01*
X120399184Y-79218003D01*
X120292398Y-79417785D01*
X120226640Y-79634561D01*
X120204436Y-79860000D01*
X120226640Y-80085439D01*
X120292398Y-80302215D01*
X120361622Y-80431723D01*
X119488584Y-79558686D01*
X119444739Y-79505261D01*
X119231562Y-79330310D01*
X118988349Y-79200310D01*
X118724448Y-79120257D01*
X118518777Y-79100000D01*
X118518769Y-79100000D01*
X118450000Y-79093227D01*
X118381231Y-79100000D01*
X112631223Y-79100000D01*
X112425552Y-79120257D01*
X112161651Y-79200310D01*
X112034640Y-79268199D01*
X111981233Y-79278822D01*
X111844742Y-79335359D01*
X111721903Y-79417437D01*
X111617437Y-79521903D01*
X111535359Y-79644742D01*
X111478822Y-79781233D01*
X111468199Y-79834640D01*
X111400310Y-79961651D01*
X111320257Y-80225552D01*
X111293226Y-80500000D01*
X111320257Y-80774448D01*
X111400310Y-81038349D01*
X111468199Y-81165360D01*
X111478822Y-81218767D01*
X111535359Y-81355258D01*
X111617437Y-81478097D01*
X111721903Y-81582563D01*
X111844742Y-81664641D01*
X111981233Y-81721178D01*
X112034640Y-81731801D01*
X112161651Y-81799690D01*
X112425552Y-81879743D01*
X112631223Y-81900000D01*
X117870102Y-81900000D01*
X119311420Y-83341319D01*
X119355261Y-83394739D01*
X119568438Y-83569690D01*
X119726933Y-83654407D01*
X119811650Y-83699690D01*
X120075552Y-83779743D01*
X120281223Y-83800000D01*
X120281231Y-83800000D01*
X120350000Y-83806773D01*
X120418769Y-83800000D01*
X123738704Y-83800000D01*
X123572607Y-83831785D01*
X123362695Y-83916951D01*
X123347876Y-83924871D01*
X123267244Y-84095112D01*
X123900000Y-84727868D01*
X124532756Y-84095112D01*
X124452124Y-83924871D01*
X124243474Y-83836662D01*
X124034543Y-83793523D01*
X124174448Y-83779743D01*
X124438349Y-83699690D01*
X124681562Y-83569690D01*
X124894739Y-83394739D01*
X124925000Y-83357866D01*
X124925000Y-84407505D01*
X124923049Y-84402695D01*
X124915129Y-84387876D01*
X124744888Y-84307244D01*
X124112132Y-84940000D01*
X124744888Y-85572756D01*
X124915129Y-85492124D01*
X124925000Y-85468774D01*
X124925000Y-86949477D01*
X124919116Y-86935271D01*
X124793263Y-86746918D01*
X124633082Y-86586737D01*
X124444729Y-86460884D01*
X124235443Y-86374194D01*
X124013265Y-86330000D01*
X123786735Y-86330000D01*
X123564557Y-86374194D01*
X123355271Y-86460884D01*
X123166918Y-86586737D01*
X123006737Y-86746918D01*
X122880884Y-86935271D01*
X122794194Y-87144557D01*
X122750000Y-87366735D01*
X122750000Y-87593265D01*
X122794194Y-87815443D01*
X122880884Y-88024729D01*
X123006737Y-88213082D01*
X123166918Y-88373263D01*
X123355271Y-88499116D01*
X123564557Y-88585806D01*
X123786735Y-88630000D01*
X124013265Y-88630000D01*
X124235443Y-88585806D01*
X124444729Y-88499116D01*
X124633082Y-88373263D01*
X124793263Y-88213082D01*
X124919116Y-88024729D01*
X124925001Y-88010523D01*
X124925001Y-89489478D01*
X124919116Y-89475271D01*
X124793263Y-89286918D01*
X124633082Y-89126737D01*
X124444729Y-89000884D01*
X124235443Y-88914194D01*
X124013265Y-88870000D01*
X123786735Y-88870000D01*
X123564557Y-88914194D01*
X123355271Y-89000884D01*
X123166918Y-89126737D01*
X123006737Y-89286918D01*
X122880884Y-89475271D01*
X122794194Y-89684557D01*
X122750000Y-89906735D01*
X122750000Y-90133265D01*
X122794194Y-90355443D01*
X122880884Y-90564729D01*
X123006737Y-90753082D01*
X123166918Y-90913263D01*
X123355271Y-91039116D01*
X123564557Y-91125806D01*
X123786735Y-91170000D01*
X124013265Y-91170000D01*
X124235443Y-91125806D01*
X124444729Y-91039116D01*
X124633082Y-90913263D01*
X124793263Y-90753082D01*
X124919116Y-90564729D01*
X124925001Y-90550522D01*
X124925001Y-92029478D01*
X124919116Y-92015271D01*
X124793263Y-91826918D01*
X124633082Y-91666737D01*
X124444729Y-91540884D01*
X124235443Y-91454194D01*
X124013265Y-91410000D01*
X123786735Y-91410000D01*
X123564557Y-91454194D01*
X123355271Y-91540884D01*
X123166918Y-91666737D01*
X123006737Y-91826918D01*
X122880884Y-92015271D01*
X122794194Y-92224557D01*
X122750000Y-92446735D01*
X122750000Y-92673265D01*
X122794194Y-92895443D01*
X122880884Y-93104729D01*
X123006737Y-93293082D01*
X123166918Y-93453263D01*
X123355271Y-93579116D01*
X123564557Y-93665806D01*
X123786735Y-93710000D01*
X124013265Y-93710000D01*
X124235443Y-93665806D01*
X124444729Y-93579116D01*
X124633082Y-93453263D01*
X124793263Y-93293082D01*
X124919116Y-93104729D01*
X124925001Y-93090522D01*
X124925001Y-94058230D01*
X124873303Y-94015803D01*
X124803814Y-93978660D01*
X124728414Y-93955788D01*
X124650000Y-93948065D01*
X123150000Y-93948065D01*
X123071586Y-93955788D01*
X122996186Y-93978660D01*
X122926697Y-94015803D01*
X122865789Y-94065789D01*
X122815803Y-94126697D01*
X122778660Y-94196186D01*
X122755788Y-94271586D01*
X122748065Y-94350000D01*
X122748065Y-95850000D01*
X122755788Y-95928414D01*
X122778660Y-96003814D01*
X122815803Y-96073303D01*
X122865789Y-96134211D01*
X122926697Y-96184197D01*
X122996186Y-96221340D01*
X123071586Y-96244212D01*
X123150000Y-96251935D01*
X124650000Y-96251935D01*
X124728414Y-96244212D01*
X124803814Y-96221340D01*
X124873303Y-96184197D01*
X124925001Y-96141769D01*
X124925001Y-96423955D01*
X124349919Y-96538346D01*
X123694760Y-96809721D01*
X123105134Y-97203697D01*
X122603697Y-97705134D01*
X122209721Y-98294760D01*
X121938346Y-98949919D01*
X121800000Y-99645431D01*
X121800000Y-99900000D01*
X116738677Y-99900000D01*
X116614941Y-99894199D01*
X116576429Y-99900000D01*
X114100000Y-99900000D01*
X114100000Y-99344888D01*
X114607244Y-99344888D01*
X114687876Y-99515129D01*
X114896526Y-99603338D01*
X115118377Y-99649145D01*
X115344901Y-99650792D01*
X115567393Y-99608215D01*
X115777305Y-99523049D01*
X115792124Y-99515129D01*
X115872756Y-99344888D01*
X115240000Y-98712132D01*
X114607244Y-99344888D01*
X114100000Y-99344888D01*
X114100000Y-98661296D01*
X114131785Y-98827393D01*
X114216951Y-99037305D01*
X114224871Y-99052124D01*
X114395112Y-99132756D01*
X115027868Y-98500000D01*
X115452132Y-98500000D01*
X116084888Y-99132756D01*
X116255129Y-99052124D01*
X116343338Y-98843474D01*
X116389145Y-98621623D01*
X116390792Y-98395099D01*
X116348215Y-98172607D01*
X116263049Y-97962695D01*
X116255129Y-97947876D01*
X116084888Y-97867244D01*
X115452132Y-98500000D01*
X115027868Y-98500000D01*
X114395112Y-97867244D01*
X114224871Y-97947876D01*
X114136662Y-98156526D01*
X114100000Y-98334086D01*
X114100000Y-97655112D01*
X114607244Y-97655112D01*
X115240000Y-98287868D01*
X115872756Y-97655112D01*
X115792124Y-97484871D01*
X115583474Y-97396662D01*
X115361623Y-97350855D01*
X115135099Y-97349208D01*
X114912607Y-97391785D01*
X114702695Y-97476951D01*
X114687876Y-97484871D01*
X114607244Y-97655112D01*
X114100000Y-97655112D01*
X114100000Y-87931223D01*
X114079743Y-87725552D01*
X113999690Y-87461651D01*
X113869690Y-87218438D01*
X113694739Y-87005261D01*
X113481562Y-86830310D01*
X113238349Y-86700310D01*
X112974448Y-86620257D01*
X112700000Y-86593226D01*
X112425553Y-86620257D01*
X112161652Y-86700310D01*
X111918439Y-86830310D01*
X111705262Y-87005261D01*
X111530311Y-87218438D01*
X111400311Y-87461651D01*
X111320258Y-87725552D01*
X111300001Y-87931223D01*
X111300000Y-97657701D01*
X111281340Y-97596186D01*
X111244197Y-97526697D01*
X111194211Y-97465789D01*
X111133303Y-97415803D01*
X111063814Y-97378660D01*
X110988414Y-97355788D01*
X110910000Y-97348065D01*
X109410000Y-97348065D01*
X109331586Y-97355788D01*
X109256186Y-97378660D01*
X109186697Y-97415803D01*
X109125789Y-97465789D01*
X109075803Y-97526697D01*
X109038660Y-97596186D01*
X109015788Y-97671586D01*
X109008065Y-97750000D01*
X109008065Y-99250000D01*
X109015788Y-99328414D01*
X109038660Y-99403814D01*
X109075803Y-99473303D01*
X109125789Y-99534211D01*
X109186697Y-99584197D01*
X109256186Y-99621340D01*
X109331586Y-99644212D01*
X109410000Y-99651935D01*
X110910000Y-99651935D01*
X110988414Y-99644212D01*
X111063814Y-99621340D01*
X111133303Y-99584197D01*
X111194211Y-99534211D01*
X111244197Y-99473303D01*
X111281340Y-99403814D01*
X111300001Y-99342297D01*
X111300001Y-99900000D01*
X109969647Y-99900000D01*
X109950000Y-99898065D01*
X107450000Y-99898065D01*
X107430353Y-99900000D01*
X103600000Y-99900000D01*
X103600000Y-99645431D01*
X103461654Y-98949919D01*
X103190279Y-98294760D01*
X102796303Y-97705134D01*
X102294866Y-97203697D01*
X101705240Y-96809721D01*
X101050081Y-96538346D01*
X100475000Y-96423955D01*
X100475000Y-96141770D01*
X100526697Y-96184197D01*
X100596186Y-96221340D01*
X100671586Y-96244212D01*
X100750000Y-96251935D01*
X102250000Y-96251935D01*
X102328414Y-96244212D01*
X102403814Y-96221340D01*
X102473303Y-96184197D01*
X102534211Y-96134211D01*
X102584197Y-96073303D01*
X102621340Y-96003814D01*
X102644212Y-95928414D01*
X102651935Y-95850000D01*
X102651935Y-94350000D01*
X102644212Y-94271586D01*
X102621340Y-94196186D01*
X102584197Y-94126697D01*
X102534211Y-94065789D01*
X102473303Y-94015803D01*
X102403814Y-93978660D01*
X102328414Y-93955788D01*
X102250000Y-93948065D01*
X100750000Y-93948065D01*
X100671586Y-93955788D01*
X100596186Y-93978660D01*
X100526697Y-94015803D01*
X100475000Y-94058230D01*
X100475000Y-93081918D01*
X100539184Y-93201997D01*
X100682893Y-93377107D01*
X100858003Y-93520816D01*
X101057785Y-93627602D01*
X101274561Y-93693360D01*
X101443508Y-93710000D01*
X101556492Y-93710000D01*
X101725439Y-93693360D01*
X101942215Y-93627602D01*
X102141997Y-93520816D01*
X102317107Y-93377107D01*
X102460816Y-93201997D01*
X102567602Y-93002215D01*
X102633360Y-92785439D01*
X102655564Y-92560000D01*
X102633360Y-92334561D01*
X102567602Y-92117785D01*
X102460816Y-91918003D01*
X102317107Y-91742893D01*
X102141997Y-91599184D01*
X101942215Y-91492398D01*
X101725439Y-91426640D01*
X101556492Y-91410000D01*
X101443508Y-91410000D01*
X101274561Y-91426640D01*
X101057785Y-91492398D01*
X100858003Y-91599184D01*
X100682893Y-91742893D01*
X100539184Y-91918003D01*
X100475000Y-92038082D01*
X100475000Y-90541918D01*
X100539184Y-90661997D01*
X100682893Y-90837107D01*
X100858003Y-90980816D01*
X101057785Y-91087602D01*
X101274561Y-91153360D01*
X101443508Y-91170000D01*
X101556492Y-91170000D01*
X101725439Y-91153360D01*
X101942215Y-91087602D01*
X102141997Y-90980816D01*
X102317107Y-90837107D01*
X102460816Y-90661997D01*
X102567602Y-90462215D01*
X102633360Y-90245439D01*
X102655564Y-90020000D01*
X102633360Y-89794561D01*
X102567602Y-89577785D01*
X102460816Y-89378003D01*
X102317107Y-89202893D01*
X102141997Y-89059184D01*
X101942215Y-88952398D01*
X101725439Y-88886640D01*
X101556492Y-88870000D01*
X101443508Y-88870000D01*
X101274561Y-88886640D01*
X101057785Y-88952398D01*
X100858003Y-89059184D01*
X100682893Y-89202893D01*
X100539184Y-89378003D01*
X100475000Y-89498082D01*
X100475000Y-88001918D01*
X100539184Y-88121997D01*
X100682893Y-88297107D01*
X100858003Y-88440816D01*
X101057785Y-88547602D01*
X101274561Y-88613360D01*
X101443508Y-88630000D01*
X101556492Y-88630000D01*
X101725439Y-88613360D01*
X101942215Y-88547602D01*
X102141997Y-88440816D01*
X102317107Y-88297107D01*
X102460816Y-88121997D01*
X102567602Y-87922215D01*
X102633360Y-87705439D01*
X102655564Y-87480000D01*
X102633360Y-87254561D01*
X102567602Y-87037785D01*
X102460816Y-86838003D01*
X102378674Y-86737913D01*
X102927804Y-87287043D01*
X102948157Y-87311843D01*
X102972957Y-87332196D01*
X102972959Y-87332198D01*
X103047131Y-87393070D01*
X103153738Y-87450052D01*
X103160052Y-87453427D01*
X103282578Y-87490595D01*
X103378068Y-87500000D01*
X103378079Y-87500000D01*
X103410000Y-87503144D01*
X103441921Y-87500000D01*
X105700000Y-87500000D01*
X105700000Y-87668069D01*
X105700001Y-89272829D01*
X105685359Y-89294742D01*
X105628822Y-89431233D01*
X105600000Y-89576131D01*
X105600000Y-89723869D01*
X105628822Y-89868767D01*
X105685359Y-90005258D01*
X105700000Y-90027170D01*
X105700001Y-91280760D01*
X103757081Y-93223680D01*
X103731233Y-93228822D01*
X103594742Y-93285359D01*
X103471903Y-93367437D01*
X103367437Y-93471903D01*
X103285359Y-93594742D01*
X103228822Y-93731233D01*
X103200000Y-93876131D01*
X103200000Y-94023869D01*
X103228822Y-94168767D01*
X103285359Y-94305258D01*
X103367437Y-94428097D01*
X103471903Y-94532563D01*
X103594742Y-94614641D01*
X103731233Y-94671178D01*
X103876131Y-94700000D01*
X104023869Y-94700000D01*
X104168767Y-94671178D01*
X104305258Y-94614641D01*
X104428097Y-94532563D01*
X104532563Y-94428097D01*
X104614641Y-94305258D01*
X104671178Y-94168767D01*
X104676320Y-94142919D01*
X106787043Y-92032196D01*
X106811843Y-92011843D01*
X106832196Y-91987043D01*
X106832199Y-91987040D01*
X106893070Y-91912868D01*
X106953427Y-91799948D01*
X106990595Y-91677422D01*
X106996944Y-91612959D01*
X107000000Y-91581932D01*
X107000000Y-91581924D01*
X107003144Y-91550000D01*
X107000000Y-91518076D01*
X107000000Y-90027170D01*
X107014641Y-90005258D01*
X107071178Y-89868767D01*
X107100000Y-89723869D01*
X107100000Y-89576131D01*
X107071178Y-89431233D01*
X107014641Y-89294742D01*
X107000000Y-89272830D01*
X107000000Y-87500000D01*
X109118079Y-87500000D01*
X109150000Y-87503144D01*
X109181921Y-87500000D01*
X109181932Y-87500000D01*
X109277422Y-87490595D01*
X109399948Y-87453427D01*
X109512868Y-87393070D01*
X109611843Y-87311843D01*
X109632200Y-87287038D01*
X110569239Y-86350000D01*
X115880762Y-86350000D01*
X118373681Y-88842920D01*
X118378822Y-88868767D01*
X118435359Y-89005258D01*
X118450001Y-89027171D01*
X118450000Y-90618078D01*
X118446856Y-90650000D01*
X118450000Y-90681921D01*
X118450000Y-90681931D01*
X118459405Y-90777421D01*
X118477511Y-90837107D01*
X118496573Y-90899947D01*
X118556930Y-91012868D01*
X118602013Y-91067801D01*
X118638157Y-91111843D01*
X118662962Y-91132200D01*
X119773681Y-92242919D01*
X119778822Y-92268767D01*
X119835359Y-92405258D01*
X119917437Y-92528097D01*
X120021903Y-92632563D01*
X120144742Y-92714641D01*
X120281233Y-92771178D01*
X120426131Y-92800000D01*
X120573869Y-92800000D01*
X120718767Y-92771178D01*
X120855258Y-92714641D01*
X120978097Y-92632563D01*
X121082563Y-92528097D01*
X121164641Y-92405258D01*
X121221178Y-92268767D01*
X121250000Y-92123869D01*
X121250000Y-91976131D01*
X121221178Y-91831233D01*
X121164641Y-91694742D01*
X121082563Y-91571903D01*
X120978097Y-91467437D01*
X120855258Y-91385359D01*
X120718767Y-91328822D01*
X120692919Y-91323681D01*
X119750000Y-90380762D01*
X119750000Y-89027170D01*
X119764641Y-89005258D01*
X119821178Y-88868767D01*
X119850000Y-88723869D01*
X119850000Y-88576131D01*
X119821178Y-88431233D01*
X119764641Y-88294742D01*
X119682563Y-88171903D01*
X119578097Y-88067437D01*
X119455258Y-87985359D01*
X119318767Y-87928822D01*
X119292920Y-87923681D01*
X117154127Y-85784888D01*
X123267244Y-85784888D01*
X123347876Y-85955129D01*
X123556526Y-86043338D01*
X123778377Y-86089145D01*
X124004901Y-86090792D01*
X124227393Y-86048215D01*
X124437305Y-85963049D01*
X124452124Y-85955129D01*
X124532756Y-85784888D01*
X123900000Y-85152132D01*
X123267244Y-85784888D01*
X117154127Y-85784888D01*
X116632200Y-85262962D01*
X116611843Y-85238157D01*
X116512868Y-85156930D01*
X116399948Y-85096573D01*
X116277422Y-85059405D01*
X116181932Y-85050000D01*
X116181921Y-85050000D01*
X116150000Y-85046856D01*
X116118079Y-85050000D01*
X110331924Y-85050000D01*
X110300000Y-85046856D01*
X110268076Y-85050000D01*
X110268068Y-85050000D01*
X110172578Y-85059405D01*
X110050052Y-85096573D01*
X109937132Y-85156930D01*
X109862960Y-85217801D01*
X109862957Y-85217804D01*
X109838157Y-85238157D01*
X109817804Y-85262957D01*
X108880762Y-86200000D01*
X106381932Y-86200000D01*
X106350000Y-86196855D01*
X106318069Y-86200000D01*
X103679239Y-86200000D01*
X103323745Y-85844507D01*
X103495271Y-85959116D01*
X103704557Y-86045806D01*
X103926735Y-86090000D01*
X104153265Y-86090000D01*
X104375443Y-86045806D01*
X104584729Y-85959116D01*
X104773082Y-85833263D01*
X104933263Y-85673082D01*
X105059116Y-85484729D01*
X105145806Y-85275443D01*
X105190000Y-85053265D01*
X105190000Y-85044901D01*
X122749208Y-85044901D01*
X122791785Y-85267393D01*
X122876951Y-85477305D01*
X122884871Y-85492124D01*
X123055112Y-85572756D01*
X123687868Y-84940000D01*
X123055112Y-84307244D01*
X122884871Y-84387876D01*
X122796662Y-84596526D01*
X122750855Y-84818377D01*
X122749208Y-85044901D01*
X105190000Y-85044901D01*
X105190000Y-84826735D01*
X105145806Y-84604557D01*
X105059116Y-84395271D01*
X104933263Y-84206918D01*
X104773082Y-84046737D01*
X104584729Y-83920884D01*
X104375443Y-83834194D01*
X104153265Y-83790000D01*
X103926735Y-83790000D01*
X103704557Y-83834194D01*
X103495271Y-83920884D01*
X103306918Y-84046737D01*
X103146737Y-84206918D01*
X103020884Y-84395271D01*
X102934194Y-84604557D01*
X102890000Y-84826735D01*
X102890000Y-85053265D01*
X102934194Y-85275443D01*
X103020884Y-85484729D01*
X103135494Y-85656255D01*
X102630506Y-85151268D01*
X102650000Y-85053265D01*
X102650000Y-84826735D01*
X102605806Y-84604557D01*
X102519116Y-84395271D01*
X102393263Y-84206918D01*
X102233082Y-84046737D01*
X102044729Y-83920884D01*
X101835443Y-83834194D01*
X101613265Y-83790000D01*
X101386735Y-83790000D01*
X101164557Y-83834194D01*
X100955271Y-83920884D01*
X100766918Y-84046737D01*
X100606737Y-84206918D01*
X100480884Y-84395271D01*
X100475000Y-84409476D01*
X100475000Y-83441770D01*
X100526697Y-83484197D01*
X100596186Y-83521340D01*
X100671586Y-83544212D01*
X100750000Y-83551935D01*
X102250000Y-83551935D01*
X102328414Y-83544212D01*
X102403814Y-83521340D01*
X102473303Y-83484197D01*
X102534211Y-83434211D01*
X102584197Y-83373303D01*
X102621340Y-83303814D01*
X102644212Y-83228414D01*
X102651935Y-83150000D01*
X102651935Y-82286735D01*
X102890000Y-82286735D01*
X102890000Y-82513265D01*
X102934194Y-82735443D01*
X103020884Y-82944729D01*
X103146737Y-83133082D01*
X103306918Y-83293263D01*
X103495271Y-83419116D01*
X103704557Y-83505806D01*
X103926735Y-83550000D01*
X104153265Y-83550000D01*
X104375443Y-83505806D01*
X104584729Y-83419116D01*
X104773082Y-83293263D01*
X104933263Y-83133082D01*
X105059116Y-82944729D01*
X105145806Y-82735443D01*
X105190000Y-82513265D01*
X105190000Y-82286735D01*
X105145806Y-82064557D01*
X105059116Y-81855271D01*
X104933263Y-81666918D01*
X104773082Y-81506737D01*
X104584729Y-81380884D01*
X104375443Y-81294194D01*
X104153265Y-81250000D01*
X103926735Y-81250000D01*
X103704557Y-81294194D01*
X103495271Y-81380884D01*
X103306918Y-81506737D01*
X103146737Y-81666918D01*
X103020884Y-81855271D01*
X102934194Y-82064557D01*
X102890000Y-82286735D01*
X102651935Y-82286735D01*
X102651935Y-81650000D01*
X102644212Y-81571586D01*
X102621340Y-81496186D01*
X102584197Y-81426697D01*
X102534211Y-81365789D01*
X102473303Y-81315803D01*
X102403814Y-81278660D01*
X102328414Y-81255788D01*
X102250000Y-81248065D01*
X100750000Y-81248065D01*
X100671586Y-81255788D01*
X100596186Y-81278660D01*
X100526697Y-81315803D01*
X100475000Y-81358230D01*
X100475000Y-80901770D01*
X100526697Y-80944197D01*
X100596186Y-80981340D01*
X100671586Y-81004212D01*
X100750000Y-81011935D01*
X102250000Y-81011935D01*
X102328414Y-81004212D01*
X102403814Y-80981340D01*
X102473303Y-80944197D01*
X102534211Y-80894211D01*
X102584197Y-80833303D01*
X102621340Y-80763814D01*
X102644212Y-80688414D01*
X102651935Y-80610000D01*
X102651935Y-79860000D01*
X102884436Y-79860000D01*
X102906640Y-80085439D01*
X102972398Y-80302215D01*
X103079184Y-80501997D01*
X103222893Y-80677107D01*
X103398003Y-80820816D01*
X103597785Y-80927602D01*
X103814561Y-80993360D01*
X103983508Y-81010000D01*
X104096492Y-81010000D01*
X104265439Y-80993360D01*
X104482215Y-80927602D01*
X104681997Y-80820816D01*
X104857107Y-80677107D01*
X105000816Y-80501997D01*
X105107602Y-80302215D01*
X105173360Y-80085439D01*
X105195564Y-79860000D01*
X105173360Y-79634561D01*
X105107602Y-79417785D01*
X105000816Y-79218003D01*
X104857107Y-79042893D01*
X104681997Y-78899184D01*
X104482215Y-78792398D01*
X104265439Y-78726640D01*
X104096492Y-78710000D01*
X103983508Y-78710000D01*
X103814561Y-78726640D01*
X103597785Y-78792398D01*
X103398003Y-78899184D01*
X103222893Y-79042893D01*
X103079184Y-79218003D01*
X102972398Y-79417785D01*
X102906640Y-79634561D01*
X102884436Y-79860000D01*
X102651935Y-79860000D01*
X102651935Y-79110000D01*
X102644212Y-79031586D01*
X102621340Y-78956186D01*
X102584197Y-78886697D01*
X102534211Y-78825789D01*
X102473303Y-78775803D01*
X102403814Y-78738660D01*
X102328414Y-78715788D01*
X102250000Y-78708065D01*
X100750000Y-78708065D01*
X100671586Y-78715788D01*
X100596186Y-78738660D01*
X100526697Y-78775803D01*
X100475000Y-78818230D01*
X100475000Y-78176045D01*
X101050081Y-78061654D01*
X101705240Y-77790279D01*
X102294866Y-77396303D01*
X102796303Y-76894866D01*
X103190279Y-76305240D01*
X103461654Y-75650081D01*
X103521343Y-75350000D01*
X109008065Y-75350000D01*
X109008065Y-76850000D01*
X109015788Y-76928414D01*
X109038660Y-77003814D01*
X109075803Y-77073303D01*
X109125789Y-77134211D01*
X109186697Y-77184197D01*
X109256186Y-77221340D01*
X109331586Y-77244212D01*
X109410000Y-77251935D01*
X110910000Y-77251935D01*
X110988414Y-77244212D01*
X111063814Y-77221340D01*
X111133303Y-77184197D01*
X111194211Y-77134211D01*
X111244197Y-77073303D01*
X111281340Y-77003814D01*
X111304212Y-76928414D01*
X111311935Y-76850000D01*
X111311935Y-75986735D01*
X111550000Y-75986735D01*
X111550000Y-76213265D01*
X111594194Y-76435443D01*
X111680884Y-76644729D01*
X111806737Y-76833082D01*
X111966918Y-76993263D01*
X112155271Y-77119116D01*
X112364557Y-77205806D01*
X112586735Y-77250000D01*
X112813265Y-77250000D01*
X113035443Y-77205806D01*
X113244729Y-77119116D01*
X113433082Y-76993263D01*
X113481457Y-76944888D01*
X114607244Y-76944888D01*
X114687876Y-77115129D01*
X114896526Y-77203338D01*
X115118377Y-77249145D01*
X115344901Y-77250792D01*
X115567393Y-77208215D01*
X115777305Y-77123049D01*
X115792124Y-77115129D01*
X115872756Y-76944888D01*
X115240000Y-76312132D01*
X114607244Y-76944888D01*
X113481457Y-76944888D01*
X113593263Y-76833082D01*
X113719116Y-76644729D01*
X113805806Y-76435443D01*
X113850000Y-76213265D01*
X113850000Y-76204901D01*
X114089208Y-76204901D01*
X114131785Y-76427393D01*
X114216951Y-76637305D01*
X114224871Y-76652124D01*
X114395112Y-76732756D01*
X115027868Y-76100000D01*
X115452132Y-76100000D01*
X116084888Y-76732756D01*
X116255129Y-76652124D01*
X116343338Y-76443474D01*
X116389145Y-76221623D01*
X116390792Y-75995099D01*
X116348215Y-75772607D01*
X116263049Y-75562695D01*
X116255129Y-75547876D01*
X116084888Y-75467244D01*
X115452132Y-76100000D01*
X115027868Y-76100000D01*
X114395112Y-75467244D01*
X114224871Y-75547876D01*
X114136662Y-75756526D01*
X114090855Y-75978377D01*
X114089208Y-76204901D01*
X113850000Y-76204901D01*
X113850000Y-75986735D01*
X113805806Y-75764557D01*
X113719116Y-75555271D01*
X113593263Y-75366918D01*
X113481457Y-75255112D01*
X114607244Y-75255112D01*
X115240000Y-75887868D01*
X115872756Y-75255112D01*
X115792124Y-75084871D01*
X115583474Y-74996662D01*
X115361623Y-74950855D01*
X115135099Y-74949208D01*
X114912607Y-74991785D01*
X114702695Y-75076951D01*
X114687876Y-75084871D01*
X114607244Y-75255112D01*
X113481457Y-75255112D01*
X113433082Y-75206737D01*
X113244729Y-75080884D01*
X113035443Y-74994194D01*
X112813265Y-74950000D01*
X112586735Y-74950000D01*
X112364557Y-74994194D01*
X112155271Y-75080884D01*
X111966918Y-75206737D01*
X111806737Y-75366918D01*
X111680884Y-75555271D01*
X111594194Y-75764557D01*
X111550000Y-75986735D01*
X111311935Y-75986735D01*
X111311935Y-75350000D01*
X111304212Y-75271586D01*
X111281340Y-75196186D01*
X111244197Y-75126697D01*
X111194211Y-75065789D01*
X111133303Y-75015803D01*
X111063814Y-74978660D01*
X110988414Y-74955788D01*
X110910000Y-74948065D01*
X109410000Y-74948065D01*
X109331586Y-74955788D01*
X109256186Y-74978660D01*
X109186697Y-75015803D01*
X109125789Y-75065789D01*
X109075803Y-75126697D01*
X109038660Y-75196186D01*
X109015788Y-75271586D01*
X109008065Y-75350000D01*
X103521343Y-75350000D01*
X103600000Y-74954569D01*
X103600000Y-74700000D01*
X107430353Y-74700000D01*
X107450000Y-74701935D01*
G04 #@! TD*
M02*
