G04 #@! TF.GenerationSoftware,KiCad,Pcbnew,(5.0.0)*
G04 #@! TF.CreationDate,2018-11-06T13:21:30+03:00*
G04 #@! TF.ProjectId,NeoModule,4E656F4D6F64756C652E6B696361645F,rev?*
G04 #@! TF.SameCoordinates,Original*
G04 #@! TF.FileFunction,Soldermask,Top*
G04 #@! TF.FilePolarity,Negative*
%FSLAX46Y46*%
G04 Gerber Fmt 4.6, Leading zero omitted, Abs format (unit mm)*
G04 Created by KiCad (PCBNEW (5.0.0)) date 11/06/18 13:21:30*
%MOMM*%
%LPD*%
G01*
G04 APERTURE LIST*
%ADD10R,2.900000X2.900000*%
%ADD11C,2.900000*%
%ADD12R,1.850000X0.850000*%
%ADD13C,3.600000*%
%ADD14R,1.150000X1.600000*%
%ADD15R,1.600000X1.150000*%
%ADD16R,1.900000X3.400000*%
%ADD17R,3.400000X1.900000*%
%ADD18R,1.500000X1.100000*%
%ADD19R,1.100000X1.500000*%
%ADD20R,1.300000X1.600000*%
%ADD21R,1.900000X1.900000*%
%ADD22C,1.900000*%
%ADD23O,1.900000X1.900000*%
G04 APERTURE END LIST*
D10*
G04 #@! TO.C,REF\002A\002A*
X108700000Y-101550000D03*
D11*
X112700000Y-101550000D03*
X116700000Y-101550000D03*
G04 #@! TD*
D12*
G04 #@! TO.C,DD1*
X109750000Y-85675000D03*
X109750000Y-86325000D03*
X109750000Y-86975000D03*
X109750000Y-87625000D03*
X109750000Y-88275000D03*
X109750000Y-88925000D03*
X109750000Y-89575000D03*
X109750000Y-90225000D03*
X109750000Y-90875000D03*
X109750000Y-91525000D03*
X115650000Y-91525000D03*
X115650000Y-90875000D03*
X115650000Y-90225000D03*
X115650000Y-89575000D03*
X115650000Y-88925000D03*
X115650000Y-88275000D03*
X115650000Y-87625000D03*
X115650000Y-86975000D03*
X115650000Y-86325000D03*
X115650000Y-85675000D03*
G04 #@! TD*
D13*
G04 #@! TO.C,REF\002A\002A*
X125400000Y-100000000D03*
G04 #@! TD*
G04 #@! TO.C,REF\002A\002A*
X125400000Y-74600000D03*
G04 #@! TD*
G04 #@! TO.C,REF\002A\002A*
X100000000Y-74600000D03*
G04 #@! TD*
D14*
G04 #@! TO.C,C1*
X112050000Y-94450000D03*
X112050000Y-96350000D03*
G04 #@! TD*
G04 #@! TO.C,C2*
X118300000Y-98450000D03*
X118300000Y-96550000D03*
G04 #@! TD*
G04 #@! TO.C,C3*
X118300000Y-94250000D03*
X118300000Y-92350000D03*
G04 #@! TD*
D15*
G04 #@! TO.C,C4*
X106350000Y-87100000D03*
X104450000Y-87100000D03*
G04 #@! TD*
G04 #@! TO.C,C5*
X106350000Y-88600000D03*
X104450000Y-88600000D03*
G04 #@! TD*
G04 #@! TO.C,C6*
X121000000Y-87600000D03*
X119100000Y-87600000D03*
G04 #@! TD*
D16*
G04 #@! TO.C,C7*
X120500000Y-94101020D03*
X120500000Y-98098980D03*
G04 #@! TD*
D14*
G04 #@! TO.C,C8*
X105000000Y-95850000D03*
X105000000Y-93950000D03*
G04 #@! TD*
G04 #@! TO.C,C9*
X110700000Y-81000000D03*
X110700000Y-82900000D03*
G04 #@! TD*
D17*
G04 #@! TO.C,C10*
X116648980Y-78600000D03*
X112651020Y-78600000D03*
G04 #@! TD*
D18*
G04 #@! TO.C,DA1*
X116400000Y-94450000D03*
X116400000Y-96350000D03*
X114000000Y-96350000D03*
X114000000Y-95400000D03*
X114000000Y-94450000D03*
G04 #@! TD*
D19*
G04 #@! TO.C,DD2*
X107050000Y-96100000D03*
X108000000Y-96100000D03*
X108950000Y-96100000D03*
X108950000Y-93700000D03*
X107050000Y-93700000D03*
G04 #@! TD*
G04 #@! TO.C,DD3*
X106950000Y-82450000D03*
X107900000Y-82450000D03*
X108850000Y-82450000D03*
X108850000Y-80050000D03*
X106950000Y-80050000D03*
G04 #@! TD*
D20*
G04 #@! TO.C,R1*
X107500000Y-75600000D03*
X107500000Y-77800000D03*
G04 #@! TD*
G04 #@! TO.C,R2*
X104300000Y-75600000D03*
X104300000Y-77800000D03*
G04 #@! TD*
G04 #@! TO.C,R3*
X105900000Y-75600000D03*
X105900000Y-77800000D03*
G04 #@! TD*
D21*
G04 #@! TO.C,XP1*
X101500000Y-82400000D03*
D22*
X104040000Y-82400000D03*
X101500000Y-84940000D03*
X104040000Y-84940000D03*
G04 #@! TD*
D21*
G04 #@! TO.C,XP2*
X101500000Y-79860000D03*
D23*
X104040000Y-79860000D03*
G04 #@! TD*
D13*
G04 #@! TO.C,REF\002A\002A*
X100000000Y-100000000D03*
G04 #@! TD*
D22*
G04 #@! TO.C,XP6*
X115240000Y-98500000D03*
X112700000Y-98500000D03*
D21*
X110160000Y-98500000D03*
G04 #@! TD*
G04 #@! TO.C,XP7*
X110160000Y-76100000D03*
D22*
X112700000Y-76100000D03*
X115240000Y-76100000D03*
G04 #@! TD*
D21*
G04 #@! TO.C,XP5*
X123900000Y-79860000D03*
D23*
X121360000Y-79860000D03*
G04 #@! TD*
D21*
G04 #@! TO.C,XP3*
X101500000Y-95100000D03*
D23*
X101500000Y-92560000D03*
X101500000Y-90020000D03*
X101500000Y-87480000D03*
G04 #@! TD*
D21*
G04 #@! TO.C,XP4*
X123900000Y-95100000D03*
D22*
X123900000Y-92560000D03*
X123900000Y-90020000D03*
X123900000Y-87480000D03*
X123900000Y-84940000D03*
X123900000Y-82400000D03*
G04 #@! TD*
D11*
G04 #@! TO.C,REF\002A\002A*
X116700000Y-73050000D03*
X112700000Y-73050000D03*
D10*
X108700000Y-73050000D03*
G04 #@! TD*
M02*
