G04 #@! TF.GenerationSoftware,KiCad,Pcbnew,(5.0.0)*
G04 #@! TF.CreationDate,2018-11-19T11:16:29+03:00*
G04 #@! TF.ProjectId,NeoP_6W,4E656F505F36572E6B696361645F7063,rev?*
G04 #@! TF.SameCoordinates,Original*
G04 #@! TF.FileFunction,Legend,Bot*
G04 #@! TF.FilePolarity,Positive*
%FSLAX46Y46*%
G04 Gerber Fmt 4.6, Leading zero omitted, Abs format (unit mm)*
G04 Created by KiCad (PCBNEW (5.0.0)) date 11/19/18 11:16:29*
%MOMM*%
%LPD*%
G01*
G04 APERTURE LIST*
%ADD10C,0.150000*%
%ADD11C,0.120000*%
%ADD12C,0.010000*%
G04 APERTURE END LIST*
D10*
X122276190Y-76052380D02*
X122276190Y-75052380D01*
X121819047Y-76052380D01*
X121819047Y-75052380D01*
X121133333Y-76004761D02*
X121209523Y-76052380D01*
X121361904Y-76052380D01*
X121438095Y-76004761D01*
X121476190Y-75909523D01*
X121476190Y-75528571D01*
X121438095Y-75433333D01*
X121361904Y-75385714D01*
X121209523Y-75385714D01*
X121133333Y-75433333D01*
X121095238Y-75528571D01*
X121095238Y-75623809D01*
X121476190Y-75719047D01*
X120638095Y-76052380D02*
X120714285Y-76004761D01*
X120752380Y-75957142D01*
X120790476Y-75861904D01*
X120790476Y-75576190D01*
X120752380Y-75480952D01*
X120714285Y-75433333D01*
X120638095Y-75385714D01*
X120523809Y-75385714D01*
X120447619Y-75433333D01*
X120409523Y-75480952D01*
X120371428Y-75576190D01*
X120371428Y-75861904D01*
X120409523Y-75957142D01*
X120447619Y-76004761D01*
X120523809Y-76052380D01*
X120638095Y-76052380D01*
X120028571Y-76052380D02*
X120028571Y-75052380D01*
X119723809Y-75052380D01*
X119647619Y-75100000D01*
X119609523Y-75147619D01*
X119571428Y-75242857D01*
X119571428Y-75385714D01*
X119609523Y-75480952D01*
X119647619Y-75528571D01*
X119723809Y-75576190D01*
X120028571Y-75576190D01*
X118276190Y-75052380D02*
X118428571Y-75052380D01*
X118504761Y-75100000D01*
X118542857Y-75147619D01*
X118619047Y-75290476D01*
X118657142Y-75480952D01*
X118657142Y-75861904D01*
X118619047Y-75957142D01*
X118580952Y-76004761D01*
X118504761Y-76052380D01*
X118352380Y-76052380D01*
X118276190Y-76004761D01*
X118238095Y-75957142D01*
X118200000Y-75861904D01*
X118200000Y-75623809D01*
X118238095Y-75528571D01*
X118276190Y-75480952D01*
X118352380Y-75433333D01*
X118504761Y-75433333D01*
X118580952Y-75480952D01*
X118619047Y-75528571D01*
X118657142Y-75623809D01*
X117933333Y-75052380D02*
X117742857Y-76052380D01*
X117590476Y-75338095D01*
X117438095Y-76052380D01*
X117247619Y-75052380D01*
X115885714Y-84452380D02*
X116152380Y-83976190D01*
X116342857Y-84452380D02*
X116342857Y-83452380D01*
X116038095Y-83452380D01*
X115961904Y-83500000D01*
X115923809Y-83547619D01*
X115885714Y-83642857D01*
X115885714Y-83785714D01*
X115923809Y-83880952D01*
X115961904Y-83928571D01*
X116038095Y-83976190D01*
X116342857Y-83976190D01*
X115123809Y-83500000D02*
X115200000Y-83452380D01*
X115314285Y-83452380D01*
X115428571Y-83500000D01*
X115504761Y-83595238D01*
X115542857Y-83690476D01*
X115580952Y-83880952D01*
X115580952Y-84023809D01*
X115542857Y-84214285D01*
X115504761Y-84309523D01*
X115428571Y-84404761D01*
X115314285Y-84452380D01*
X115238095Y-84452380D01*
X115123809Y-84404761D01*
X115085714Y-84357142D01*
X115085714Y-84023809D01*
X115238095Y-84023809D01*
X114476190Y-83928571D02*
X114361904Y-83976190D01*
X114323809Y-84023809D01*
X114285714Y-84119047D01*
X114285714Y-84261904D01*
X114323809Y-84357142D01*
X114361904Y-84404761D01*
X114438095Y-84452380D01*
X114742857Y-84452380D01*
X114742857Y-83452380D01*
X114476190Y-83452380D01*
X114400000Y-83500000D01*
X114361904Y-83547619D01*
X114323809Y-83642857D01*
X114323809Y-83738095D01*
X114361904Y-83833333D01*
X114400000Y-83880952D01*
X114476190Y-83928571D01*
X114742857Y-83928571D01*
X112952380Y-84452380D02*
X113333333Y-84452380D01*
X113333333Y-83452380D01*
X112685714Y-83928571D02*
X112419047Y-83928571D01*
X112304761Y-84452380D02*
X112685714Y-84452380D01*
X112685714Y-83452380D01*
X112304761Y-83452380D01*
X111961904Y-84452380D02*
X111961904Y-83452380D01*
X111771428Y-83452380D01*
X111657142Y-83500000D01*
X111580952Y-83595238D01*
X111542857Y-83690476D01*
X111504761Y-83880952D01*
X111504761Y-84023809D01*
X111542857Y-84214285D01*
X111580952Y-84309523D01*
X111657142Y-84404761D01*
X111771428Y-84452380D01*
X111961904Y-84452380D01*
X110628571Y-83452380D02*
X110133333Y-83452380D01*
X110400000Y-83833333D01*
X110285714Y-83833333D01*
X110209523Y-83880952D01*
X110171428Y-83928571D01*
X110133333Y-84023809D01*
X110133333Y-84261904D01*
X110171428Y-84357142D01*
X110209523Y-84404761D01*
X110285714Y-84452380D01*
X110514285Y-84452380D01*
X110590476Y-84404761D01*
X110628571Y-84357142D01*
X109866666Y-83452380D02*
X109676190Y-84452380D01*
X109523809Y-83738095D01*
X109371428Y-84452380D01*
X109180952Y-83452380D01*
X114816000Y-78366904D02*
X114768380Y-78271666D01*
X114768380Y-78128809D01*
X114816000Y-77985952D01*
X114911238Y-77890714D01*
X115006476Y-77843095D01*
X115196952Y-77795476D01*
X115339809Y-77795476D01*
X115530285Y-77843095D01*
X115625523Y-77890714D01*
X115720761Y-77985952D01*
X115768380Y-78128809D01*
X115768380Y-78224047D01*
X115720761Y-78366904D01*
X115673142Y-78414523D01*
X115339809Y-78414523D01*
X115339809Y-78224047D01*
X112228380Y-77771666D02*
X113228380Y-78105000D01*
X112228380Y-78438333D01*
X112228380Y-96313666D02*
X113228380Y-96647000D01*
X112228380Y-96980333D01*
X114689000Y-96908904D02*
X114641380Y-96813666D01*
X114641380Y-96670809D01*
X114689000Y-96527952D01*
X114784238Y-96432714D01*
X114879476Y-96385095D01*
X115069952Y-96337476D01*
X115212809Y-96337476D01*
X115403285Y-96385095D01*
X115498523Y-96432714D01*
X115593761Y-96527952D01*
X115641380Y-96670809D01*
X115641380Y-96766047D01*
X115593761Y-96908904D01*
X115546142Y-96956523D01*
X115212809Y-96956523D01*
X115212809Y-96766047D01*
X122364476Y-94781714D02*
X121983523Y-94781714D01*
X122221619Y-94448380D02*
X122221619Y-95305523D01*
X122174000Y-95400761D01*
X122078761Y-95448380D01*
X121983523Y-95448380D01*
X122102571Y-92384571D02*
X121959714Y-92432190D01*
X121912095Y-92479809D01*
X121864476Y-92575047D01*
X121864476Y-92717904D01*
X121912095Y-92813142D01*
X121959714Y-92860761D01*
X122054952Y-92908380D01*
X122435904Y-92908380D01*
X122435904Y-91908380D01*
X122102571Y-91908380D01*
X122007333Y-91956000D01*
X121959714Y-92003619D01*
X121912095Y-92098857D01*
X121912095Y-92194095D01*
X121959714Y-92289333D01*
X122007333Y-92336952D01*
X122102571Y-92384571D01*
X122435904Y-92384571D01*
X121912095Y-89416000D02*
X122007333Y-89368380D01*
X122150190Y-89368380D01*
X122293047Y-89416000D01*
X122388285Y-89511238D01*
X122435904Y-89606476D01*
X122483523Y-89796952D01*
X122483523Y-89939809D01*
X122435904Y-90130285D01*
X122388285Y-90225523D01*
X122293047Y-90320761D01*
X122150190Y-90368380D01*
X122054952Y-90368380D01*
X121912095Y-90320761D01*
X121864476Y-90273142D01*
X121864476Y-89939809D01*
X122054952Y-89939809D01*
X121864476Y-87955380D02*
X122197809Y-87479190D01*
X122435904Y-87955380D02*
X122435904Y-86955380D01*
X122054952Y-86955380D01*
X121959714Y-87003000D01*
X121912095Y-87050619D01*
X121864476Y-87145857D01*
X121864476Y-87288714D01*
X121912095Y-87383952D01*
X121959714Y-87431571D01*
X122054952Y-87479190D01*
X122435904Y-87479190D01*
X121912095Y-84463000D02*
X122007333Y-84415380D01*
X122150190Y-84415380D01*
X122293047Y-84463000D01*
X122388285Y-84558238D01*
X122435904Y-84653476D01*
X122483523Y-84843952D01*
X122483523Y-84986809D01*
X122435904Y-85177285D01*
X122388285Y-85272523D01*
X122293047Y-85367761D01*
X122150190Y-85415380D01*
X122054952Y-85415380D01*
X121912095Y-85367761D01*
X121864476Y-85320142D01*
X121864476Y-84986809D01*
X122054952Y-84986809D01*
X122634333Y-81938880D02*
X122301000Y-82938880D01*
X121967666Y-81938880D01*
G04 #@! TO.C,R4*
X104695500Y-78427000D02*
X102695500Y-78427000D01*
X102695500Y-80577000D02*
X104695500Y-80577000D01*
G04 #@! TO.C,R5*
X104695500Y-84523000D02*
X102695500Y-84523000D01*
X102695500Y-86673000D02*
X104695500Y-86673000D01*
G04 #@! TO.C,R6*
X102695500Y-92769000D02*
X104695500Y-92769000D01*
X104695500Y-90619000D02*
X102695500Y-90619000D01*
D11*
G04 #@! TO.C,R1*
X119970733Y-87886000D02*
X120313267Y-87886000D01*
X119970733Y-86866000D02*
X120313267Y-86866000D01*
G04 #@! TO.C,R2*
X119970733Y-90426000D02*
X120313267Y-90426000D01*
X119970733Y-89406000D02*
X120313267Y-89406000D01*
G04 #@! TO.C,R3*
X119970733Y-91946000D02*
X120313267Y-91946000D01*
X119970733Y-92966000D02*
X120313267Y-92966000D01*
G04 #@! TO.C,R7*
X120313267Y-95506000D02*
X119970733Y-95506000D01*
X120313267Y-94486000D02*
X119970733Y-94486000D01*
G04 #@! TO.C,TH1*
X116249267Y-91819000D02*
X115906733Y-91819000D01*
X116249267Y-92839000D02*
X115906733Y-92839000D01*
G04 #@! TO.C,Q1*
X106932000Y-80970000D02*
X106932000Y-81900000D01*
X106932000Y-84130000D02*
X106932000Y-83200000D01*
X106932000Y-84130000D02*
X104772000Y-84130000D01*
X106932000Y-80970000D02*
X105472000Y-80970000D01*
G04 #@! TO.C,Q2*
X106932000Y-87066000D02*
X106932000Y-87996000D01*
X106932000Y-90226000D02*
X106932000Y-89296000D01*
X106932000Y-90226000D02*
X104772000Y-90226000D01*
X106932000Y-87066000D02*
X105472000Y-87066000D01*
G04 #@! TO.C,Q3*
X106932000Y-93162000D02*
X105472000Y-93162000D01*
X106932000Y-96322000D02*
X104772000Y-96322000D01*
X106932000Y-96322000D02*
X106932000Y-95392000D01*
X106932000Y-93162000D02*
X106932000Y-94092000D01*
G04 #@! TO.C,Q4*
X101348000Y-84130000D02*
X101348000Y-83200000D01*
X101348000Y-80970000D02*
X101348000Y-81900000D01*
X101348000Y-80970000D02*
X103508000Y-80970000D01*
X101348000Y-84130000D02*
X102808000Y-84130000D01*
G04 #@! TO.C,Q5*
X101348000Y-90226000D02*
X102808000Y-90226000D01*
X101348000Y-87066000D02*
X103508000Y-87066000D01*
X101348000Y-87066000D02*
X101348000Y-87996000D01*
X101348000Y-90226000D02*
X101348000Y-89296000D01*
G04 #@! TO.C,Q6*
X101348000Y-96322000D02*
X102808000Y-96322000D01*
X101348000Y-93162000D02*
X103508000Y-93162000D01*
X101348000Y-93162000D02*
X101348000Y-94092000D01*
X101348000Y-96322000D02*
X101348000Y-95392000D01*
G04 #@! TO.C,C1*
X113716000Y-94061000D02*
X117801000Y-94061000D01*
X117801000Y-94061000D02*
X117801000Y-95931000D01*
X117801000Y-95931000D02*
X113716000Y-95931000D01*
D12*
G04 #@! TO.C,G\002A\002A\002A*
G36*
X119593027Y-76882075D02*
X119580334Y-76884104D01*
X119570132Y-76887447D01*
X119566406Y-76889113D01*
X119547503Y-76903404D01*
X119536847Y-76922624D01*
X119534302Y-76944146D01*
X119539732Y-76965341D01*
X119553001Y-76983578D01*
X119571926Y-76995449D01*
X119586833Y-76999482D01*
X119609408Y-77003316D01*
X119636035Y-77006404D01*
X119652576Y-77007679D01*
X119679310Y-77009464D01*
X119703622Y-77011366D01*
X119722153Y-77013106D01*
X119729385Y-77014001D01*
X119747103Y-77016721D01*
X119751188Y-76954190D01*
X119752568Y-76928788D01*
X119753184Y-76907763D01*
X119752998Y-76893529D01*
X119752181Y-76888567D01*
X119745725Y-76887264D01*
X119730080Y-76885785D01*
X119707340Y-76884280D01*
X119679600Y-76882904D01*
X119667980Y-76882438D01*
X119634656Y-76881387D01*
X119610402Y-76881218D01*
X119593027Y-76882075D01*
X119593027Y-76882075D01*
G37*
X119593027Y-76882075D02*
X119580334Y-76884104D01*
X119570132Y-76887447D01*
X119566406Y-76889113D01*
X119547503Y-76903404D01*
X119536847Y-76922624D01*
X119534302Y-76944146D01*
X119539732Y-76965341D01*
X119553001Y-76983578D01*
X119571926Y-76995449D01*
X119586833Y-76999482D01*
X119609408Y-77003316D01*
X119636035Y-77006404D01*
X119652576Y-77007679D01*
X119679310Y-77009464D01*
X119703622Y-77011366D01*
X119722153Y-77013106D01*
X119729385Y-77014001D01*
X119747103Y-77016721D01*
X119751188Y-76954190D01*
X119752568Y-76928788D01*
X119753184Y-76907763D01*
X119752998Y-76893529D01*
X119752181Y-76888567D01*
X119745725Y-76887264D01*
X119730080Y-76885785D01*
X119707340Y-76884280D01*
X119679600Y-76882904D01*
X119667980Y-76882438D01*
X119634656Y-76881387D01*
X119610402Y-76881218D01*
X119593027Y-76882075D01*
G36*
X118840954Y-76948615D02*
X118813285Y-76960030D01*
X118780388Y-76980427D01*
X118756694Y-77005336D01*
X118741428Y-77036092D01*
X118733814Y-77074030D01*
X118732603Y-77099106D01*
X118736523Y-77147192D01*
X118748333Y-77191493D01*
X118767195Y-77230613D01*
X118792271Y-77263157D01*
X118822723Y-77287726D01*
X118854354Y-77301965D01*
X118879078Y-77307898D01*
X118901316Y-77309083D01*
X118925231Y-77305295D01*
X118954156Y-77296594D01*
X118992884Y-77278365D01*
X119023124Y-77252816D01*
X119045275Y-77219591D01*
X119048798Y-77211926D01*
X119054876Y-77195962D01*
X119058259Y-77180788D01*
X119059399Y-77162648D01*
X119058747Y-77137788D01*
X119058444Y-77131728D01*
X119051594Y-77081399D01*
X119037209Y-77037702D01*
X119016152Y-77001242D01*
X118989284Y-76972621D01*
X118957468Y-76952444D01*
X118921566Y-76941315D01*
X118882441Y-76939838D01*
X118840954Y-76948615D01*
X118840954Y-76948615D01*
G37*
X118840954Y-76948615D02*
X118813285Y-76960030D01*
X118780388Y-76980427D01*
X118756694Y-77005336D01*
X118741428Y-77036092D01*
X118733814Y-77074030D01*
X118732603Y-77099106D01*
X118736523Y-77147192D01*
X118748333Y-77191493D01*
X118767195Y-77230613D01*
X118792271Y-77263157D01*
X118822723Y-77287726D01*
X118854354Y-77301965D01*
X118879078Y-77307898D01*
X118901316Y-77309083D01*
X118925231Y-77305295D01*
X118954156Y-77296594D01*
X118992884Y-77278365D01*
X119023124Y-77252816D01*
X119045275Y-77219591D01*
X119048798Y-77211926D01*
X119054876Y-77195962D01*
X119058259Y-77180788D01*
X119059399Y-77162648D01*
X119058747Y-77137788D01*
X119058444Y-77131728D01*
X119051594Y-77081399D01*
X119037209Y-77037702D01*
X119016152Y-77001242D01*
X118989284Y-76972621D01*
X118957468Y-76952444D01*
X118921566Y-76941315D01*
X118882441Y-76939838D01*
X118840954Y-76948615D01*
G36*
X117259703Y-78595215D02*
X117246877Y-78634091D01*
X117239510Y-78664508D01*
X117237715Y-78687950D01*
X117241609Y-78705900D01*
X117251304Y-78719845D01*
X117266917Y-78731267D01*
X117270356Y-78733165D01*
X117294759Y-78742474D01*
X117315627Y-78741687D01*
X117334886Y-78730586D01*
X117340552Y-78725300D01*
X117350926Y-78712183D01*
X117361130Y-78693282D01*
X117372101Y-78666657D01*
X117380856Y-78642045D01*
X117389204Y-78616837D01*
X117395736Y-78595712D01*
X117399816Y-78580833D01*
X117400810Y-78574361D01*
X117400779Y-78574311D01*
X117394875Y-78571380D01*
X117380588Y-78565623D01*
X117360194Y-78557927D01*
X117340703Y-78550862D01*
X117282829Y-78530235D01*
X117259703Y-78595215D01*
X117259703Y-78595215D01*
G37*
X117259703Y-78595215D02*
X117246877Y-78634091D01*
X117239510Y-78664508D01*
X117237715Y-78687950D01*
X117241609Y-78705900D01*
X117251304Y-78719845D01*
X117266917Y-78731267D01*
X117270356Y-78733165D01*
X117294759Y-78742474D01*
X117315627Y-78741687D01*
X117334886Y-78730586D01*
X117340552Y-78725300D01*
X117350926Y-78712183D01*
X117361130Y-78693282D01*
X117372101Y-78666657D01*
X117380856Y-78642045D01*
X117389204Y-78616837D01*
X117395736Y-78595712D01*
X117399816Y-78580833D01*
X117400810Y-78574361D01*
X117400779Y-78574311D01*
X117394875Y-78571380D01*
X117380588Y-78565623D01*
X117360194Y-78557927D01*
X117340703Y-78550862D01*
X117282829Y-78530235D01*
X117259703Y-78595215D01*
G36*
X119433513Y-77669341D02*
X119378396Y-77670744D01*
X119329109Y-77673416D01*
X119282937Y-77677623D01*
X119237161Y-77683627D01*
X119189066Y-77691689D01*
X119135934Y-77702075D01*
X119119482Y-77705498D01*
X118981516Y-77740184D01*
X118847700Y-77785124D01*
X118718506Y-77839900D01*
X118594409Y-77904093D01*
X118475880Y-77977286D01*
X118363394Y-78059058D01*
X118257424Y-78148991D01*
X118158444Y-78246666D01*
X118066925Y-78351665D01*
X117983343Y-78463570D01*
X117908169Y-78581960D01*
X117841878Y-78706417D01*
X117784943Y-78836524D01*
X117757851Y-78910156D01*
X117717245Y-79045450D01*
X117687335Y-79183594D01*
X117668148Y-79323752D01*
X117659709Y-79465088D01*
X117662044Y-79606768D01*
X117675179Y-79747955D01*
X117699140Y-79887814D01*
X117724345Y-79991750D01*
X117766401Y-80124366D01*
X117818929Y-80254297D01*
X117881274Y-80380312D01*
X117952781Y-80501175D01*
X118032795Y-80615656D01*
X118100447Y-80699445D01*
X118125751Y-80727679D01*
X118156847Y-80760531D01*
X118191666Y-80795970D01*
X118228139Y-80831967D01*
X118264194Y-80866490D01*
X118297763Y-80897511D01*
X118326774Y-80922998D01*
X118337244Y-80931679D01*
X118453959Y-81019000D01*
X118575826Y-81096298D01*
X118702623Y-81163479D01*
X118834130Y-81220448D01*
X118970126Y-81267112D01*
X119110390Y-81303376D01*
X119254702Y-81329145D01*
X119274626Y-81331834D01*
X119307490Y-81335200D01*
X119348788Y-81338051D01*
X119395911Y-81340329D01*
X119446252Y-81341976D01*
X119497201Y-81342936D01*
X119546151Y-81343151D01*
X119590494Y-81342564D01*
X119627622Y-81341117D01*
X119643933Y-81339942D01*
X119789197Y-81321467D01*
X119930944Y-81292469D01*
X120068741Y-81253187D01*
X120202157Y-81203857D01*
X120330757Y-81144717D01*
X120454110Y-81076003D01*
X120494227Y-81049394D01*
X119821733Y-81049394D01*
X119816520Y-81050319D01*
X119802581Y-81051563D01*
X119782466Y-81052915D01*
X119772344Y-81053488D01*
X119728096Y-81058630D01*
X119686715Y-81069694D01*
X119646279Y-81087591D01*
X119604869Y-81113231D01*
X119560562Y-81147522D01*
X119544392Y-81161405D01*
X119497178Y-81202824D01*
X119460489Y-81169198D01*
X119438376Y-81149938D01*
X119414032Y-81130279D01*
X119392310Y-81114122D01*
X119390040Y-81112557D01*
X119343489Y-81084613D01*
X119298676Y-81066031D01*
X119252842Y-81055818D01*
X119225514Y-81053375D01*
X119173985Y-81050935D01*
X119198370Y-81005012D01*
X119216801Y-80967510D01*
X119230326Y-80932521D01*
X119239601Y-80897101D01*
X119245282Y-80858307D01*
X119248025Y-80813194D01*
X119248542Y-80779900D01*
X119248822Y-80691022D01*
X119303855Y-80691000D01*
X119358889Y-80690978D01*
X119358889Y-80766468D01*
X119359601Y-80807635D01*
X119361790Y-80838528D01*
X119365533Y-80860076D01*
X119367137Y-80865336D01*
X119384267Y-80898844D01*
X119408348Y-80925112D01*
X119437566Y-80943719D01*
X119470109Y-80954243D01*
X119504164Y-80956264D01*
X119537916Y-80949358D01*
X119569553Y-80933106D01*
X119588638Y-80916804D01*
X119602411Y-80901501D01*
X119612503Y-80886651D01*
X119619535Y-80870049D01*
X119624130Y-80849490D01*
X119626910Y-80822768D01*
X119628497Y-80787679D01*
X119628857Y-80774234D01*
X119630857Y-80690978D01*
X119745932Y-80690978D01*
X119743689Y-80746832D01*
X119744730Y-80813248D01*
X119752902Y-80877490D01*
X119767729Y-80937365D01*
X119788735Y-80990678D01*
X119801778Y-81014806D01*
X119811739Y-81031543D01*
X119818891Y-81043932D01*
X119821730Y-81049365D01*
X119821733Y-81049394D01*
X120494227Y-81049394D01*
X120571782Y-80997953D01*
X120683342Y-80910803D01*
X120788356Y-80814790D01*
X120886393Y-80710152D01*
X120961055Y-80618364D01*
X121042756Y-80501989D01*
X121115152Y-80379573D01*
X121177938Y-80251888D01*
X121230811Y-80119702D01*
X121273469Y-79983787D01*
X121305607Y-79844912D01*
X121326924Y-79703849D01*
X121329080Y-79683445D01*
X121332008Y-79644717D01*
X121334046Y-79598003D01*
X121335192Y-79546240D01*
X121335447Y-79492364D01*
X121334809Y-79439311D01*
X121333279Y-79390018D01*
X121330856Y-79347420D01*
X121329135Y-79327845D01*
X121326338Y-79308089D01*
X120587618Y-79308089D01*
X120587236Y-79409676D01*
X120578600Y-79505690D01*
X120561369Y-79598610D01*
X120535204Y-79690912D01*
X120535141Y-79691102D01*
X120495441Y-79793306D01*
X120446176Y-79890098D01*
X120387961Y-79980941D01*
X120321413Y-80065298D01*
X120247148Y-80142631D01*
X120165782Y-80212405D01*
X120077931Y-80274081D01*
X119984213Y-80327123D01*
X119885242Y-80370994D01*
X119781635Y-80405157D01*
X119691911Y-80425877D01*
X119668433Y-80430244D01*
X119649200Y-80433769D01*
X119636867Y-80435969D01*
X119633922Y-80436446D01*
X119632581Y-80431288D01*
X119631586Y-80416655D01*
X119630990Y-80394359D01*
X119630846Y-80366210D01*
X119631100Y-80340207D01*
X119632644Y-80243436D01*
X119680622Y-80233680D01*
X119772278Y-80209383D01*
X119861217Y-80174699D01*
X119946463Y-80130392D01*
X120027040Y-80077231D01*
X120101973Y-80015979D01*
X120170285Y-79947404D01*
X120231000Y-79872272D01*
X120242370Y-79854626D01*
X120143562Y-79854626D01*
X120140809Y-79882945D01*
X120129124Y-79909594D01*
X120114369Y-79927026D01*
X120107463Y-79932728D01*
X120099565Y-79937474D01*
X120089632Y-79941351D01*
X120076624Y-79944447D01*
X120059496Y-79946848D01*
X120037206Y-79948641D01*
X120008711Y-79949913D01*
X119972970Y-79950750D01*
X119928939Y-79951240D01*
X119875576Y-79951469D01*
X119820322Y-79951524D01*
X119584666Y-79951556D01*
X119584666Y-80390449D01*
X119584594Y-80473699D01*
X119584383Y-80550026D01*
X119584037Y-80618908D01*
X119583565Y-80679823D01*
X119582971Y-80732246D01*
X119582263Y-80775656D01*
X119581447Y-80809531D01*
X119580528Y-80833347D01*
X119579514Y-80846582D01*
X119579133Y-80848635D01*
X119569816Y-80868284D01*
X119554851Y-80887528D01*
X119537874Y-80902052D01*
X119531044Y-80905696D01*
X119510035Y-80910220D01*
X119484596Y-80909932D01*
X119460336Y-80905178D01*
X119449252Y-80900639D01*
X119432383Y-80887157D01*
X119417969Y-80867865D01*
X119416885Y-80865884D01*
X119404044Y-80841602D01*
X119404044Y-80436749D01*
X119359154Y-80436749D01*
X119340677Y-80433457D01*
X119327077Y-80430932D01*
X119305930Y-80426893D01*
X119280765Y-80422015D01*
X119267160Y-80419352D01*
X119186873Y-80399475D01*
X119104077Y-80371236D01*
X119022269Y-80335828D01*
X119021425Y-80335421D01*
X118922812Y-80281745D01*
X118831453Y-80219583D01*
X118747688Y-80149372D01*
X118671856Y-80071549D01*
X118604298Y-79986552D01*
X118545354Y-79894819D01*
X118495365Y-79796787D01*
X118454669Y-79692894D01*
X118423608Y-79583577D01*
X118418191Y-79559267D01*
X118413199Y-79535038D01*
X118409399Y-79514088D01*
X118406628Y-79494248D01*
X118404724Y-79473345D01*
X118403523Y-79449207D01*
X118402863Y-79419665D01*
X118402580Y-79382546D01*
X118402519Y-79350422D01*
X118402733Y-79299367D01*
X118403635Y-79257119D01*
X118405492Y-79221206D01*
X118408570Y-79189156D01*
X118413134Y-79158494D01*
X118419450Y-79126749D01*
X118427783Y-79091446D01*
X118432236Y-79073845D01*
X118442371Y-79034334D01*
X118518219Y-79032807D01*
X118594066Y-79031281D01*
X118625480Y-79087453D01*
X118614430Y-79131449D01*
X118595904Y-79228134D01*
X118588305Y-79326193D01*
X118591529Y-79424586D01*
X118605475Y-79522274D01*
X118630041Y-79618216D01*
X118665126Y-79711372D01*
X118672940Y-79728600D01*
X118706699Y-79794686D01*
X118743982Y-79854633D01*
X118787043Y-79911689D01*
X118838137Y-79969099D01*
X118844914Y-79976165D01*
X118917803Y-80044027D01*
X118996595Y-80103115D01*
X119080335Y-80152896D01*
X119168067Y-80192835D01*
X119258836Y-80222398D01*
X119304397Y-80232987D01*
X119356066Y-80243421D01*
X119359154Y-80436749D01*
X119404044Y-80436749D01*
X119404044Y-79951556D01*
X119168389Y-79951421D01*
X119117009Y-79951271D01*
X119068430Y-79950899D01*
X119023972Y-79950331D01*
X118984956Y-79949594D01*
X118952702Y-79948717D01*
X118928530Y-79947724D01*
X118913760Y-79946644D01*
X118910633Y-79946161D01*
X118890494Y-79937685D01*
X118870785Y-79923209D01*
X118868579Y-79921080D01*
X118857224Y-79908506D01*
X118850858Y-79896700D01*
X118847701Y-79881204D01*
X118846440Y-79865663D01*
X118845865Y-79844157D01*
X118847982Y-79829353D01*
X118853686Y-79816805D01*
X118857450Y-79811018D01*
X118871434Y-79795415D01*
X118888239Y-79782549D01*
X118890312Y-79781385D01*
X118893867Y-79779701D01*
X118898263Y-79778209D01*
X118904162Y-79776896D01*
X118912226Y-79775752D01*
X118923115Y-79774764D01*
X118937491Y-79773923D01*
X118956017Y-79773215D01*
X118979352Y-79772631D01*
X119008159Y-79772158D01*
X119043099Y-79771785D01*
X119084833Y-79771501D01*
X119134023Y-79771295D01*
X119191331Y-79771155D01*
X119257418Y-79771070D01*
X119332945Y-79771028D01*
X119418573Y-79771018D01*
X119494267Y-79771026D01*
X120078555Y-79771119D01*
X120100546Y-79783726D01*
X120123198Y-79802609D01*
X120137614Y-79827044D01*
X120143562Y-79854626D01*
X120242370Y-79854626D01*
X120283143Y-79791349D01*
X120310375Y-79739361D01*
X120347947Y-79649427D01*
X120374887Y-79557879D01*
X120391488Y-79463403D01*
X120398045Y-79364687D01*
X120398182Y-79347600D01*
X120397116Y-79303030D01*
X120394121Y-79257281D01*
X120389509Y-79212874D01*
X120383589Y-79172327D01*
X120376670Y-79138160D01*
X120369485Y-79113988D01*
X120366822Y-79103072D01*
X120368614Y-79091919D01*
X120375726Y-79076609D01*
X120379074Y-79070534D01*
X120394644Y-79042812D01*
X120548650Y-79042800D01*
X120557862Y-79080900D01*
X120569683Y-79134724D01*
X120578133Y-79185814D01*
X120583786Y-79238564D01*
X120587220Y-79297369D01*
X120587618Y-79308089D01*
X121326338Y-79308089D01*
X121308629Y-79183053D01*
X121277599Y-79042065D01*
X121239303Y-78915274D01*
X121151276Y-78915274D01*
X121143852Y-78942355D01*
X121127151Y-78969458D01*
X121104034Y-78988433D01*
X121073246Y-79000137D01*
X121053825Y-79003628D01*
X121041021Y-79004557D01*
X121018106Y-79005435D01*
X120986256Y-79006246D01*
X120946649Y-79006973D01*
X120900463Y-79007598D01*
X120848874Y-79008105D01*
X120793061Y-79008478D01*
X120734200Y-79008697D01*
X120698564Y-79008749D01*
X120381595Y-79008934D01*
X120176453Y-79367307D01*
X119971311Y-79725681D01*
X119837017Y-79725729D01*
X119702724Y-79725778D01*
X119705199Y-79721545D01*
X119200799Y-79721545D01*
X119195658Y-79723642D01*
X119182101Y-79725157D01*
X119162994Y-79725776D01*
X119161820Y-79725778D01*
X119122795Y-79725778D01*
X118896894Y-79496425D01*
X118848930Y-79447710D01*
X118808315Y-79406378D01*
X118774465Y-79371783D01*
X118746799Y-79343273D01*
X118724733Y-79320201D01*
X118707684Y-79301918D01*
X118695071Y-79287773D01*
X118686311Y-79277119D01*
X118680820Y-79269307D01*
X118678016Y-79263687D01*
X118677316Y-79259610D01*
X118678138Y-79256428D01*
X118679425Y-79254203D01*
X118686928Y-79245660D01*
X118696299Y-79244260D01*
X118705836Y-79246489D01*
X118722084Y-79249932D01*
X118738110Y-79251481D01*
X118750273Y-79250992D01*
X118754933Y-79248426D01*
X118752209Y-79242868D01*
X118744543Y-79228906D01*
X118732695Y-79207880D01*
X118717425Y-79181130D01*
X118699491Y-79149994D01*
X118682966Y-79121504D01*
X118611000Y-78997800D01*
X118280800Y-78997598D01*
X118211178Y-78997539D01*
X118151933Y-78997434D01*
X118102152Y-78997255D01*
X118060922Y-78996974D01*
X118027331Y-78996565D01*
X118000467Y-78995999D01*
X117979416Y-78995248D01*
X117963267Y-78994285D01*
X117951106Y-78993082D01*
X117942022Y-78991610D01*
X117935101Y-78989843D01*
X117929432Y-78987753D01*
X117927367Y-78986846D01*
X117900863Y-78969308D01*
X117882336Y-78945764D01*
X117871945Y-78918355D01*
X117869851Y-78889219D01*
X117876212Y-78860497D01*
X117891188Y-78834327D01*
X117914407Y-78813199D01*
X117938479Y-78797267D01*
X118740585Y-78797267D01*
X118841066Y-78966600D01*
X118864744Y-79006502D01*
X118886725Y-79043538D01*
X118906310Y-79076533D01*
X118922803Y-79104313D01*
X118935504Y-79125702D01*
X118943718Y-79139526D01*
X118946621Y-79144400D01*
X118951667Y-79146775D01*
X118957183Y-79138399D01*
X118962974Y-79119790D01*
X118968851Y-79091468D01*
X118971048Y-79078383D01*
X118974879Y-79056974D01*
X118978684Y-79044222D01*
X118983631Y-79037557D01*
X118990889Y-79034409D01*
X118991068Y-79034363D01*
X119002342Y-79032692D01*
X119007222Y-79033563D01*
X119009109Y-79039239D01*
X119013709Y-79054668D01*
X119020705Y-79078726D01*
X119029781Y-79110289D01*
X119040622Y-79148235D01*
X119052910Y-79191441D01*
X119066331Y-79238783D01*
X119080568Y-79289139D01*
X119095304Y-79341384D01*
X119110225Y-79394397D01*
X119125014Y-79447054D01*
X119139356Y-79498232D01*
X119152933Y-79546807D01*
X119165430Y-79591658D01*
X119176531Y-79631659D01*
X119185921Y-79665690D01*
X119193282Y-79692625D01*
X119198300Y-79711343D01*
X119200657Y-79720720D01*
X119200799Y-79721545D01*
X119705199Y-79721545D01*
X119718402Y-79698967D01*
X119723559Y-79690187D01*
X119734013Y-79672427D01*
X119749324Y-79646429D01*
X119769056Y-79612938D01*
X119792769Y-79572696D01*
X119820025Y-79526448D01*
X119850387Y-79474936D01*
X119883416Y-79418905D01*
X119918674Y-79359097D01*
X119955723Y-79296256D01*
X119992010Y-79234711D01*
X120249940Y-78797267D01*
X120660959Y-78797267D01*
X120738911Y-78797273D01*
X120806381Y-78797304D01*
X120864174Y-78797384D01*
X120913098Y-78797534D01*
X120953958Y-78797776D01*
X120987562Y-78798131D01*
X121014715Y-78798622D01*
X121036224Y-78799271D01*
X121052895Y-78800099D01*
X121065534Y-78801129D01*
X121074949Y-78802382D01*
X121081945Y-78803881D01*
X121087329Y-78805647D01*
X121091908Y-78807702D01*
X121094555Y-78809058D01*
X121120900Y-78828555D01*
X121139716Y-78854328D01*
X121150132Y-78884020D01*
X121151276Y-78915274D01*
X121239303Y-78915274D01*
X121236278Y-78905262D01*
X121184901Y-78773027D01*
X121180124Y-78763090D01*
X120420044Y-78763090D01*
X120414707Y-78764122D01*
X120399920Y-78765010D01*
X120377523Y-78765695D01*
X120349355Y-78766116D01*
X120324777Y-78766222D01*
X120289886Y-78766283D01*
X120264554Y-78766605D01*
X120247050Y-78767397D01*
X120235645Y-78768869D01*
X120228609Y-78771231D01*
X120224211Y-78774692D01*
X120221177Y-78778773D01*
X120217781Y-78783236D01*
X120214023Y-78785005D01*
X120208611Y-78783128D01*
X120200253Y-78776651D01*
X120187655Y-78764618D01*
X120169524Y-78746078D01*
X120151656Y-78727470D01*
X120082911Y-78661634D01*
X120012155Y-78605837D01*
X119937718Y-78558832D01*
X119897933Y-78537908D01*
X119804123Y-78497147D01*
X119710243Y-78467543D01*
X119615572Y-78448987D01*
X119519388Y-78441366D01*
X119420969Y-78444569D01*
X119350422Y-78453181D01*
X119252793Y-78474156D01*
X119158976Y-78505656D01*
X119069426Y-78547428D01*
X118984604Y-78599218D01*
X118904966Y-78660772D01*
X118830971Y-78731836D01*
X118813833Y-78750581D01*
X118774943Y-78794207D01*
X118766453Y-78780215D01*
X118757963Y-78766222D01*
X118662844Y-78766222D01*
X118625999Y-78765907D01*
X118597723Y-78764992D01*
X118578820Y-78763525D01*
X118570092Y-78761555D01*
X118569607Y-78760694D01*
X118575833Y-78748860D01*
X118588171Y-78730416D01*
X118605208Y-78707168D01*
X118625528Y-78680921D01*
X118647719Y-78653478D01*
X118670366Y-78626645D01*
X118692055Y-78602227D01*
X118702595Y-78590969D01*
X118784379Y-78513441D01*
X118871849Y-78445596D01*
X118964776Y-78387566D01*
X119062936Y-78339482D01*
X119166103Y-78301477D01*
X119228262Y-78284075D01*
X119266474Y-78274886D01*
X119299564Y-78267865D01*
X119330145Y-78262730D01*
X119360831Y-78259199D01*
X119394235Y-78256991D01*
X119432968Y-78255824D01*
X119479646Y-78255417D01*
X119494355Y-78255400D01*
X119548285Y-78255846D01*
X119594355Y-78257151D01*
X119631516Y-78259270D01*
X119658715Y-78262155D01*
X119663689Y-78262964D01*
X119776806Y-78288517D01*
X119884355Y-78323692D01*
X119986066Y-78368337D01*
X120081669Y-78422299D01*
X120170898Y-78485424D01*
X120253482Y-78557561D01*
X120329152Y-78638557D01*
X120333093Y-78643247D01*
X120351692Y-78666112D01*
X120370397Y-78690150D01*
X120387870Y-78713518D01*
X120402773Y-78734371D01*
X120413767Y-78750865D01*
X120419514Y-78761154D01*
X120420044Y-78763090D01*
X121180124Y-78763090D01*
X121123701Y-78645744D01*
X121052913Y-78523794D01*
X120972770Y-78407562D01*
X120883507Y-78297430D01*
X120785357Y-78193780D01*
X120678554Y-78096996D01*
X120563333Y-78007460D01*
X120492502Y-77958846D01*
X120415549Y-77912033D01*
X120330398Y-77866625D01*
X120240137Y-77824029D01*
X120147857Y-77785647D01*
X120056648Y-77752883D01*
X120002355Y-77736113D01*
X119919852Y-77714144D01*
X119840700Y-77696987D01*
X119762070Y-77684266D01*
X119681133Y-77675603D01*
X119595058Y-77670624D01*
X119501017Y-77668951D01*
X119497178Y-77668947D01*
X119433513Y-77669341D01*
X119433513Y-77669341D01*
G37*
X119433513Y-77669341D02*
X119378396Y-77670744D01*
X119329109Y-77673416D01*
X119282937Y-77677623D01*
X119237161Y-77683627D01*
X119189066Y-77691689D01*
X119135934Y-77702075D01*
X119119482Y-77705498D01*
X118981516Y-77740184D01*
X118847700Y-77785124D01*
X118718506Y-77839900D01*
X118594409Y-77904093D01*
X118475880Y-77977286D01*
X118363394Y-78059058D01*
X118257424Y-78148991D01*
X118158444Y-78246666D01*
X118066925Y-78351665D01*
X117983343Y-78463570D01*
X117908169Y-78581960D01*
X117841878Y-78706417D01*
X117784943Y-78836524D01*
X117757851Y-78910156D01*
X117717245Y-79045450D01*
X117687335Y-79183594D01*
X117668148Y-79323752D01*
X117659709Y-79465088D01*
X117662044Y-79606768D01*
X117675179Y-79747955D01*
X117699140Y-79887814D01*
X117724345Y-79991750D01*
X117766401Y-80124366D01*
X117818929Y-80254297D01*
X117881274Y-80380312D01*
X117952781Y-80501175D01*
X118032795Y-80615656D01*
X118100447Y-80699445D01*
X118125751Y-80727679D01*
X118156847Y-80760531D01*
X118191666Y-80795970D01*
X118228139Y-80831967D01*
X118264194Y-80866490D01*
X118297763Y-80897511D01*
X118326774Y-80922998D01*
X118337244Y-80931679D01*
X118453959Y-81019000D01*
X118575826Y-81096298D01*
X118702623Y-81163479D01*
X118834130Y-81220448D01*
X118970126Y-81267112D01*
X119110390Y-81303376D01*
X119254702Y-81329145D01*
X119274626Y-81331834D01*
X119307490Y-81335200D01*
X119348788Y-81338051D01*
X119395911Y-81340329D01*
X119446252Y-81341976D01*
X119497201Y-81342936D01*
X119546151Y-81343151D01*
X119590494Y-81342564D01*
X119627622Y-81341117D01*
X119643933Y-81339942D01*
X119789197Y-81321467D01*
X119930944Y-81292469D01*
X120068741Y-81253187D01*
X120202157Y-81203857D01*
X120330757Y-81144717D01*
X120454110Y-81076003D01*
X120494227Y-81049394D01*
X119821733Y-81049394D01*
X119816520Y-81050319D01*
X119802581Y-81051563D01*
X119782466Y-81052915D01*
X119772344Y-81053488D01*
X119728096Y-81058630D01*
X119686715Y-81069694D01*
X119646279Y-81087591D01*
X119604869Y-81113231D01*
X119560562Y-81147522D01*
X119544392Y-81161405D01*
X119497178Y-81202824D01*
X119460489Y-81169198D01*
X119438376Y-81149938D01*
X119414032Y-81130279D01*
X119392310Y-81114122D01*
X119390040Y-81112557D01*
X119343489Y-81084613D01*
X119298676Y-81066031D01*
X119252842Y-81055818D01*
X119225514Y-81053375D01*
X119173985Y-81050935D01*
X119198370Y-81005012D01*
X119216801Y-80967510D01*
X119230326Y-80932521D01*
X119239601Y-80897101D01*
X119245282Y-80858307D01*
X119248025Y-80813194D01*
X119248542Y-80779900D01*
X119248822Y-80691022D01*
X119303855Y-80691000D01*
X119358889Y-80690978D01*
X119358889Y-80766468D01*
X119359601Y-80807635D01*
X119361790Y-80838528D01*
X119365533Y-80860076D01*
X119367137Y-80865336D01*
X119384267Y-80898844D01*
X119408348Y-80925112D01*
X119437566Y-80943719D01*
X119470109Y-80954243D01*
X119504164Y-80956264D01*
X119537916Y-80949358D01*
X119569553Y-80933106D01*
X119588638Y-80916804D01*
X119602411Y-80901501D01*
X119612503Y-80886651D01*
X119619535Y-80870049D01*
X119624130Y-80849490D01*
X119626910Y-80822768D01*
X119628497Y-80787679D01*
X119628857Y-80774234D01*
X119630857Y-80690978D01*
X119745932Y-80690978D01*
X119743689Y-80746832D01*
X119744730Y-80813248D01*
X119752902Y-80877490D01*
X119767729Y-80937365D01*
X119788735Y-80990678D01*
X119801778Y-81014806D01*
X119811739Y-81031543D01*
X119818891Y-81043932D01*
X119821730Y-81049365D01*
X119821733Y-81049394D01*
X120494227Y-81049394D01*
X120571782Y-80997953D01*
X120683342Y-80910803D01*
X120788356Y-80814790D01*
X120886393Y-80710152D01*
X120961055Y-80618364D01*
X121042756Y-80501989D01*
X121115152Y-80379573D01*
X121177938Y-80251888D01*
X121230811Y-80119702D01*
X121273469Y-79983787D01*
X121305607Y-79844912D01*
X121326924Y-79703849D01*
X121329080Y-79683445D01*
X121332008Y-79644717D01*
X121334046Y-79598003D01*
X121335192Y-79546240D01*
X121335447Y-79492364D01*
X121334809Y-79439311D01*
X121333279Y-79390018D01*
X121330856Y-79347420D01*
X121329135Y-79327845D01*
X121326338Y-79308089D01*
X120587618Y-79308089D01*
X120587236Y-79409676D01*
X120578600Y-79505690D01*
X120561369Y-79598610D01*
X120535204Y-79690912D01*
X120535141Y-79691102D01*
X120495441Y-79793306D01*
X120446176Y-79890098D01*
X120387961Y-79980941D01*
X120321413Y-80065298D01*
X120247148Y-80142631D01*
X120165782Y-80212405D01*
X120077931Y-80274081D01*
X119984213Y-80327123D01*
X119885242Y-80370994D01*
X119781635Y-80405157D01*
X119691911Y-80425877D01*
X119668433Y-80430244D01*
X119649200Y-80433769D01*
X119636867Y-80435969D01*
X119633922Y-80436446D01*
X119632581Y-80431288D01*
X119631586Y-80416655D01*
X119630990Y-80394359D01*
X119630846Y-80366210D01*
X119631100Y-80340207D01*
X119632644Y-80243436D01*
X119680622Y-80233680D01*
X119772278Y-80209383D01*
X119861217Y-80174699D01*
X119946463Y-80130392D01*
X120027040Y-80077231D01*
X120101973Y-80015979D01*
X120170285Y-79947404D01*
X120231000Y-79872272D01*
X120242370Y-79854626D01*
X120143562Y-79854626D01*
X120140809Y-79882945D01*
X120129124Y-79909594D01*
X120114369Y-79927026D01*
X120107463Y-79932728D01*
X120099565Y-79937474D01*
X120089632Y-79941351D01*
X120076624Y-79944447D01*
X120059496Y-79946848D01*
X120037206Y-79948641D01*
X120008711Y-79949913D01*
X119972970Y-79950750D01*
X119928939Y-79951240D01*
X119875576Y-79951469D01*
X119820322Y-79951524D01*
X119584666Y-79951556D01*
X119584666Y-80390449D01*
X119584594Y-80473699D01*
X119584383Y-80550026D01*
X119584037Y-80618908D01*
X119583565Y-80679823D01*
X119582971Y-80732246D01*
X119582263Y-80775656D01*
X119581447Y-80809531D01*
X119580528Y-80833347D01*
X119579514Y-80846582D01*
X119579133Y-80848635D01*
X119569816Y-80868284D01*
X119554851Y-80887528D01*
X119537874Y-80902052D01*
X119531044Y-80905696D01*
X119510035Y-80910220D01*
X119484596Y-80909932D01*
X119460336Y-80905178D01*
X119449252Y-80900639D01*
X119432383Y-80887157D01*
X119417969Y-80867865D01*
X119416885Y-80865884D01*
X119404044Y-80841602D01*
X119404044Y-80436749D01*
X119359154Y-80436749D01*
X119340677Y-80433457D01*
X119327077Y-80430932D01*
X119305930Y-80426893D01*
X119280765Y-80422015D01*
X119267160Y-80419352D01*
X119186873Y-80399475D01*
X119104077Y-80371236D01*
X119022269Y-80335828D01*
X119021425Y-80335421D01*
X118922812Y-80281745D01*
X118831453Y-80219583D01*
X118747688Y-80149372D01*
X118671856Y-80071549D01*
X118604298Y-79986552D01*
X118545354Y-79894819D01*
X118495365Y-79796787D01*
X118454669Y-79692894D01*
X118423608Y-79583577D01*
X118418191Y-79559267D01*
X118413199Y-79535038D01*
X118409399Y-79514088D01*
X118406628Y-79494248D01*
X118404724Y-79473345D01*
X118403523Y-79449207D01*
X118402863Y-79419665D01*
X118402580Y-79382546D01*
X118402519Y-79350422D01*
X118402733Y-79299367D01*
X118403635Y-79257119D01*
X118405492Y-79221206D01*
X118408570Y-79189156D01*
X118413134Y-79158494D01*
X118419450Y-79126749D01*
X118427783Y-79091446D01*
X118432236Y-79073845D01*
X118442371Y-79034334D01*
X118518219Y-79032807D01*
X118594066Y-79031281D01*
X118625480Y-79087453D01*
X118614430Y-79131449D01*
X118595904Y-79228134D01*
X118588305Y-79326193D01*
X118591529Y-79424586D01*
X118605475Y-79522274D01*
X118630041Y-79618216D01*
X118665126Y-79711372D01*
X118672940Y-79728600D01*
X118706699Y-79794686D01*
X118743982Y-79854633D01*
X118787043Y-79911689D01*
X118838137Y-79969099D01*
X118844914Y-79976165D01*
X118917803Y-80044027D01*
X118996595Y-80103115D01*
X119080335Y-80152896D01*
X119168067Y-80192835D01*
X119258836Y-80222398D01*
X119304397Y-80232987D01*
X119356066Y-80243421D01*
X119359154Y-80436749D01*
X119404044Y-80436749D01*
X119404044Y-79951556D01*
X119168389Y-79951421D01*
X119117009Y-79951271D01*
X119068430Y-79950899D01*
X119023972Y-79950331D01*
X118984956Y-79949594D01*
X118952702Y-79948717D01*
X118928530Y-79947724D01*
X118913760Y-79946644D01*
X118910633Y-79946161D01*
X118890494Y-79937685D01*
X118870785Y-79923209D01*
X118868579Y-79921080D01*
X118857224Y-79908506D01*
X118850858Y-79896700D01*
X118847701Y-79881204D01*
X118846440Y-79865663D01*
X118845865Y-79844157D01*
X118847982Y-79829353D01*
X118853686Y-79816805D01*
X118857450Y-79811018D01*
X118871434Y-79795415D01*
X118888239Y-79782549D01*
X118890312Y-79781385D01*
X118893867Y-79779701D01*
X118898263Y-79778209D01*
X118904162Y-79776896D01*
X118912226Y-79775752D01*
X118923115Y-79774764D01*
X118937491Y-79773923D01*
X118956017Y-79773215D01*
X118979352Y-79772631D01*
X119008159Y-79772158D01*
X119043099Y-79771785D01*
X119084833Y-79771501D01*
X119134023Y-79771295D01*
X119191331Y-79771155D01*
X119257418Y-79771070D01*
X119332945Y-79771028D01*
X119418573Y-79771018D01*
X119494267Y-79771026D01*
X120078555Y-79771119D01*
X120100546Y-79783726D01*
X120123198Y-79802609D01*
X120137614Y-79827044D01*
X120143562Y-79854626D01*
X120242370Y-79854626D01*
X120283143Y-79791349D01*
X120310375Y-79739361D01*
X120347947Y-79649427D01*
X120374887Y-79557879D01*
X120391488Y-79463403D01*
X120398045Y-79364687D01*
X120398182Y-79347600D01*
X120397116Y-79303030D01*
X120394121Y-79257281D01*
X120389509Y-79212874D01*
X120383589Y-79172327D01*
X120376670Y-79138160D01*
X120369485Y-79113988D01*
X120366822Y-79103072D01*
X120368614Y-79091919D01*
X120375726Y-79076609D01*
X120379074Y-79070534D01*
X120394644Y-79042812D01*
X120548650Y-79042800D01*
X120557862Y-79080900D01*
X120569683Y-79134724D01*
X120578133Y-79185814D01*
X120583786Y-79238564D01*
X120587220Y-79297369D01*
X120587618Y-79308089D01*
X121326338Y-79308089D01*
X121308629Y-79183053D01*
X121277599Y-79042065D01*
X121239303Y-78915274D01*
X121151276Y-78915274D01*
X121143852Y-78942355D01*
X121127151Y-78969458D01*
X121104034Y-78988433D01*
X121073246Y-79000137D01*
X121053825Y-79003628D01*
X121041021Y-79004557D01*
X121018106Y-79005435D01*
X120986256Y-79006246D01*
X120946649Y-79006973D01*
X120900463Y-79007598D01*
X120848874Y-79008105D01*
X120793061Y-79008478D01*
X120734200Y-79008697D01*
X120698564Y-79008749D01*
X120381595Y-79008934D01*
X120176453Y-79367307D01*
X119971311Y-79725681D01*
X119837017Y-79725729D01*
X119702724Y-79725778D01*
X119705199Y-79721545D01*
X119200799Y-79721545D01*
X119195658Y-79723642D01*
X119182101Y-79725157D01*
X119162994Y-79725776D01*
X119161820Y-79725778D01*
X119122795Y-79725778D01*
X118896894Y-79496425D01*
X118848930Y-79447710D01*
X118808315Y-79406378D01*
X118774465Y-79371783D01*
X118746799Y-79343273D01*
X118724733Y-79320201D01*
X118707684Y-79301918D01*
X118695071Y-79287773D01*
X118686311Y-79277119D01*
X118680820Y-79269307D01*
X118678016Y-79263687D01*
X118677316Y-79259610D01*
X118678138Y-79256428D01*
X118679425Y-79254203D01*
X118686928Y-79245660D01*
X118696299Y-79244260D01*
X118705836Y-79246489D01*
X118722084Y-79249932D01*
X118738110Y-79251481D01*
X118750273Y-79250992D01*
X118754933Y-79248426D01*
X118752209Y-79242868D01*
X118744543Y-79228906D01*
X118732695Y-79207880D01*
X118717425Y-79181130D01*
X118699491Y-79149994D01*
X118682966Y-79121504D01*
X118611000Y-78997800D01*
X118280800Y-78997598D01*
X118211178Y-78997539D01*
X118151933Y-78997434D01*
X118102152Y-78997255D01*
X118060922Y-78996974D01*
X118027331Y-78996565D01*
X118000467Y-78995999D01*
X117979416Y-78995248D01*
X117963267Y-78994285D01*
X117951106Y-78993082D01*
X117942022Y-78991610D01*
X117935101Y-78989843D01*
X117929432Y-78987753D01*
X117927367Y-78986846D01*
X117900863Y-78969308D01*
X117882336Y-78945764D01*
X117871945Y-78918355D01*
X117869851Y-78889219D01*
X117876212Y-78860497D01*
X117891188Y-78834327D01*
X117914407Y-78813199D01*
X117938479Y-78797267D01*
X118740585Y-78797267D01*
X118841066Y-78966600D01*
X118864744Y-79006502D01*
X118886725Y-79043538D01*
X118906310Y-79076533D01*
X118922803Y-79104313D01*
X118935504Y-79125702D01*
X118943718Y-79139526D01*
X118946621Y-79144400D01*
X118951667Y-79146775D01*
X118957183Y-79138399D01*
X118962974Y-79119790D01*
X118968851Y-79091468D01*
X118971048Y-79078383D01*
X118974879Y-79056974D01*
X118978684Y-79044222D01*
X118983631Y-79037557D01*
X118990889Y-79034409D01*
X118991068Y-79034363D01*
X119002342Y-79032692D01*
X119007222Y-79033563D01*
X119009109Y-79039239D01*
X119013709Y-79054668D01*
X119020705Y-79078726D01*
X119029781Y-79110289D01*
X119040622Y-79148235D01*
X119052910Y-79191441D01*
X119066331Y-79238783D01*
X119080568Y-79289139D01*
X119095304Y-79341384D01*
X119110225Y-79394397D01*
X119125014Y-79447054D01*
X119139356Y-79498232D01*
X119152933Y-79546807D01*
X119165430Y-79591658D01*
X119176531Y-79631659D01*
X119185921Y-79665690D01*
X119193282Y-79692625D01*
X119198300Y-79711343D01*
X119200657Y-79720720D01*
X119200799Y-79721545D01*
X119705199Y-79721545D01*
X119718402Y-79698967D01*
X119723559Y-79690187D01*
X119734013Y-79672427D01*
X119749324Y-79646429D01*
X119769056Y-79612938D01*
X119792769Y-79572696D01*
X119820025Y-79526448D01*
X119850387Y-79474936D01*
X119883416Y-79418905D01*
X119918674Y-79359097D01*
X119955723Y-79296256D01*
X119992010Y-79234711D01*
X120249940Y-78797267D01*
X120660959Y-78797267D01*
X120738911Y-78797273D01*
X120806381Y-78797304D01*
X120864174Y-78797384D01*
X120913098Y-78797534D01*
X120953958Y-78797776D01*
X120987562Y-78798131D01*
X121014715Y-78798622D01*
X121036224Y-78799271D01*
X121052895Y-78800099D01*
X121065534Y-78801129D01*
X121074949Y-78802382D01*
X121081945Y-78803881D01*
X121087329Y-78805647D01*
X121091908Y-78807702D01*
X121094555Y-78809058D01*
X121120900Y-78828555D01*
X121139716Y-78854328D01*
X121150132Y-78884020D01*
X121151276Y-78915274D01*
X121239303Y-78915274D01*
X121236278Y-78905262D01*
X121184901Y-78773027D01*
X121180124Y-78763090D01*
X120420044Y-78763090D01*
X120414707Y-78764122D01*
X120399920Y-78765010D01*
X120377523Y-78765695D01*
X120349355Y-78766116D01*
X120324777Y-78766222D01*
X120289886Y-78766283D01*
X120264554Y-78766605D01*
X120247050Y-78767397D01*
X120235645Y-78768869D01*
X120228609Y-78771231D01*
X120224211Y-78774692D01*
X120221177Y-78778773D01*
X120217781Y-78783236D01*
X120214023Y-78785005D01*
X120208611Y-78783128D01*
X120200253Y-78776651D01*
X120187655Y-78764618D01*
X120169524Y-78746078D01*
X120151656Y-78727470D01*
X120082911Y-78661634D01*
X120012155Y-78605837D01*
X119937718Y-78558832D01*
X119897933Y-78537908D01*
X119804123Y-78497147D01*
X119710243Y-78467543D01*
X119615572Y-78448987D01*
X119519388Y-78441366D01*
X119420969Y-78444569D01*
X119350422Y-78453181D01*
X119252793Y-78474156D01*
X119158976Y-78505656D01*
X119069426Y-78547428D01*
X118984604Y-78599218D01*
X118904966Y-78660772D01*
X118830971Y-78731836D01*
X118813833Y-78750581D01*
X118774943Y-78794207D01*
X118766453Y-78780215D01*
X118757963Y-78766222D01*
X118662844Y-78766222D01*
X118625999Y-78765907D01*
X118597723Y-78764992D01*
X118578820Y-78763525D01*
X118570092Y-78761555D01*
X118569607Y-78760694D01*
X118575833Y-78748860D01*
X118588171Y-78730416D01*
X118605208Y-78707168D01*
X118625528Y-78680921D01*
X118647719Y-78653478D01*
X118670366Y-78626645D01*
X118692055Y-78602227D01*
X118702595Y-78590969D01*
X118784379Y-78513441D01*
X118871849Y-78445596D01*
X118964776Y-78387566D01*
X119062936Y-78339482D01*
X119166103Y-78301477D01*
X119228262Y-78284075D01*
X119266474Y-78274886D01*
X119299564Y-78267865D01*
X119330145Y-78262730D01*
X119360831Y-78259199D01*
X119394235Y-78256991D01*
X119432968Y-78255824D01*
X119479646Y-78255417D01*
X119494355Y-78255400D01*
X119548285Y-78255846D01*
X119594355Y-78257151D01*
X119631516Y-78259270D01*
X119658715Y-78262155D01*
X119663689Y-78262964D01*
X119776806Y-78288517D01*
X119884355Y-78323692D01*
X119986066Y-78368337D01*
X120081669Y-78422299D01*
X120170898Y-78485424D01*
X120253482Y-78557561D01*
X120329152Y-78638557D01*
X120333093Y-78643247D01*
X120351692Y-78666112D01*
X120370397Y-78690150D01*
X120387870Y-78713518D01*
X120402773Y-78734371D01*
X120413767Y-78750865D01*
X120419514Y-78761154D01*
X120420044Y-78763090D01*
X121180124Y-78763090D01*
X121123701Y-78645744D01*
X121052913Y-78523794D01*
X120972770Y-78407562D01*
X120883507Y-78297430D01*
X120785357Y-78193780D01*
X120678554Y-78096996D01*
X120563333Y-78007460D01*
X120492502Y-77958846D01*
X120415549Y-77912033D01*
X120330398Y-77866625D01*
X120240137Y-77824029D01*
X120147857Y-77785647D01*
X120056648Y-77752883D01*
X120002355Y-77736113D01*
X119919852Y-77714144D01*
X119840700Y-77696987D01*
X119762070Y-77684266D01*
X119681133Y-77675603D01*
X119595058Y-77670624D01*
X119501017Y-77668951D01*
X119497178Y-77668947D01*
X119433513Y-77669341D01*
G36*
X117799782Y-81197035D02*
X117786529Y-81201856D01*
X117768017Y-81209073D01*
X117746796Y-81217641D01*
X117725416Y-81226517D01*
X117706427Y-81234654D01*
X117692379Y-81241009D01*
X117685823Y-81244537D01*
X117685763Y-81244594D01*
X117687812Y-81249800D01*
X117695702Y-81260684D01*
X117707353Y-81274881D01*
X117720684Y-81290027D01*
X117733614Y-81303757D01*
X117744062Y-81313707D01*
X117749929Y-81317511D01*
X117753773Y-81312646D01*
X117760933Y-81299416D01*
X117770368Y-81279873D01*
X117780500Y-81257304D01*
X117790645Y-81233579D01*
X117798701Y-81214001D01*
X117803830Y-81200658D01*
X117805225Y-81195655D01*
X117799782Y-81197035D01*
X117799782Y-81197035D01*
G37*
X117799782Y-81197035D02*
X117786529Y-81201856D01*
X117768017Y-81209073D01*
X117746796Y-81217641D01*
X117725416Y-81226517D01*
X117706427Y-81234654D01*
X117692379Y-81241009D01*
X117685823Y-81244537D01*
X117685763Y-81244594D01*
X117687812Y-81249800D01*
X117695702Y-81260684D01*
X117707353Y-81274881D01*
X117720684Y-81290027D01*
X117733614Y-81303757D01*
X117744062Y-81313707D01*
X117749929Y-81317511D01*
X117753773Y-81312646D01*
X117760933Y-81299416D01*
X117770368Y-81279873D01*
X117780500Y-81257304D01*
X117790645Y-81233579D01*
X117798701Y-81214001D01*
X117803830Y-81200658D01*
X117805225Y-81195655D01*
X117799782Y-81197035D01*
G36*
X121060555Y-81239437D02*
X121044162Y-81252895D01*
X121024097Y-81270346D01*
X121002380Y-81289939D01*
X120981030Y-81309819D01*
X120962066Y-81328134D01*
X120947505Y-81343032D01*
X120939368Y-81352658D01*
X120939025Y-81353194D01*
X120930553Y-81369168D01*
X120929340Y-81380907D01*
X120935737Y-81393104D01*
X120942657Y-81401745D01*
X120958510Y-81415023D01*
X120976526Y-81418484D01*
X120998439Y-81412298D01*
X121007066Y-81408038D01*
X121018539Y-81400614D01*
X121035041Y-81388321D01*
X121054678Y-81372761D01*
X121075553Y-81355538D01*
X121095771Y-81338254D01*
X121113434Y-81322511D01*
X121126647Y-81309911D01*
X121133513Y-81302058D01*
X121134066Y-81300709D01*
X121130569Y-81292693D01*
X121121544Y-81280106D01*
X121109197Y-81265365D01*
X121095729Y-81250886D01*
X121083346Y-81239086D01*
X121074250Y-81232382D01*
X121071258Y-81231826D01*
X121060555Y-81239437D01*
X121060555Y-81239437D01*
G37*
X121060555Y-81239437D02*
X121044162Y-81252895D01*
X121024097Y-81270346D01*
X121002380Y-81289939D01*
X120981030Y-81309819D01*
X120962066Y-81328134D01*
X120947505Y-81343032D01*
X120939368Y-81352658D01*
X120939025Y-81353194D01*
X120930553Y-81369168D01*
X120929340Y-81380907D01*
X120935737Y-81393104D01*
X120942657Y-81401745D01*
X120958510Y-81415023D01*
X120976526Y-81418484D01*
X120998439Y-81412298D01*
X121007066Y-81408038D01*
X121018539Y-81400614D01*
X121035041Y-81388321D01*
X121054678Y-81372761D01*
X121075553Y-81355538D01*
X121095771Y-81338254D01*
X121113434Y-81322511D01*
X121126647Y-81309911D01*
X121133513Y-81302058D01*
X121134066Y-81300709D01*
X121130569Y-81292693D01*
X121121544Y-81280106D01*
X121109197Y-81265365D01*
X121095729Y-81250886D01*
X121083346Y-81239086D01*
X121074250Y-81232382D01*
X121071258Y-81231826D01*
X121060555Y-81239437D01*
G36*
X121164524Y-81451321D02*
X121127640Y-81483854D01*
X121099534Y-81510928D01*
X121079689Y-81533488D01*
X121067586Y-81552480D01*
X121062709Y-81568850D01*
X121064540Y-81583545D01*
X121072561Y-81597510D01*
X121080010Y-81605812D01*
X121100186Y-81619116D01*
X121123396Y-81621618D01*
X121149793Y-81613330D01*
X121153822Y-81611272D01*
X121165198Y-81603812D01*
X121182905Y-81590548D01*
X121204809Y-81573144D01*
X121228779Y-81553270D01*
X121237165Y-81546121D01*
X121300752Y-81491511D01*
X121284044Y-81470833D01*
X121270283Y-81454191D01*
X121253899Y-81434902D01*
X121245570Y-81425295D01*
X121223803Y-81400434D01*
X121164524Y-81451321D01*
X121164524Y-81451321D01*
G37*
X121164524Y-81451321D02*
X121127640Y-81483854D01*
X121099534Y-81510928D01*
X121079689Y-81533488D01*
X121067586Y-81552480D01*
X121062709Y-81568850D01*
X121064540Y-81583545D01*
X121072561Y-81597510D01*
X121080010Y-81605812D01*
X121100186Y-81619116D01*
X121123396Y-81621618D01*
X121149793Y-81613330D01*
X121153822Y-81611272D01*
X121165198Y-81603812D01*
X121182905Y-81590548D01*
X121204809Y-81573144D01*
X121228779Y-81553270D01*
X121237165Y-81546121D01*
X121300752Y-81491511D01*
X121284044Y-81470833D01*
X121270283Y-81454191D01*
X121253899Y-81434902D01*
X121245570Y-81425295D01*
X121223803Y-81400434D01*
X121164524Y-81451321D01*
G36*
X120427239Y-81636897D02*
X120409580Y-81639077D01*
X120393910Y-81644097D01*
X120375588Y-81653091D01*
X120369244Y-81656535D01*
X120334013Y-81681377D01*
X120308594Y-81711710D01*
X120293152Y-81747167D01*
X120287848Y-81787379D01*
X120292357Y-81829676D01*
X120305952Y-81875428D01*
X120326128Y-81916526D01*
X120351672Y-81951184D01*
X120381369Y-81977618D01*
X120400485Y-81988700D01*
X120431638Y-81997986D01*
X120467702Y-82000051D01*
X120504923Y-81994912D01*
X120526744Y-81988189D01*
X120558154Y-81971200D01*
X120586017Y-81946925D01*
X120607261Y-81918346D01*
X120614661Y-81902801D01*
X120620951Y-81875434D01*
X120622421Y-81841821D01*
X120619272Y-81805826D01*
X120611707Y-81771314D01*
X120607101Y-81757778D01*
X120588367Y-81720437D01*
X120563341Y-81686824D01*
X120534588Y-81660186D01*
X120524807Y-81653534D01*
X120509381Y-81644745D01*
X120495741Y-81639598D01*
X120479826Y-81637145D01*
X120457577Y-81636438D01*
X120451531Y-81636422D01*
X120427239Y-81636897D01*
X120427239Y-81636897D01*
G37*
X120427239Y-81636897D02*
X120409580Y-81639077D01*
X120393910Y-81644097D01*
X120375588Y-81653091D01*
X120369244Y-81656535D01*
X120334013Y-81681377D01*
X120308594Y-81711710D01*
X120293152Y-81747167D01*
X120287848Y-81787379D01*
X120292357Y-81829676D01*
X120305952Y-81875428D01*
X120326128Y-81916526D01*
X120351672Y-81951184D01*
X120381369Y-81977618D01*
X120400485Y-81988700D01*
X120431638Y-81997986D01*
X120467702Y-82000051D01*
X120504923Y-81994912D01*
X120526744Y-81988189D01*
X120558154Y-81971200D01*
X120586017Y-81946925D01*
X120607261Y-81918346D01*
X120614661Y-81902801D01*
X120620951Y-81875434D01*
X120622421Y-81841821D01*
X120619272Y-81805826D01*
X120611707Y-81771314D01*
X120607101Y-81757778D01*
X120588367Y-81720437D01*
X120563341Y-81686824D01*
X120534588Y-81660186D01*
X120524807Y-81653534D01*
X120509381Y-81644745D01*
X120495741Y-81639598D01*
X120479826Y-81637145D01*
X120457577Y-81636438D01*
X120451531Y-81636422D01*
X120427239Y-81636897D01*
G36*
X119790028Y-81675415D02*
X119782855Y-81681005D01*
X119763361Y-81693280D01*
X119735773Y-81703660D01*
X119703202Y-81711596D01*
X119668765Y-81716536D01*
X119635573Y-81717932D01*
X119606740Y-81715233D01*
X119599095Y-81713458D01*
X119584977Y-81709889D01*
X119576548Y-81708419D01*
X119575658Y-81708542D01*
X119578828Y-81712968D01*
X119588134Y-81724994D01*
X119602627Y-81743431D01*
X119621354Y-81767093D01*
X119643367Y-81794791D01*
X119667715Y-81825338D01*
X119693447Y-81857547D01*
X119719613Y-81890230D01*
X119745263Y-81922198D01*
X119769445Y-81952265D01*
X119791210Y-81979243D01*
X119809608Y-82001944D01*
X119823687Y-82019181D01*
X119832497Y-82029766D01*
X119834846Y-82032417D01*
X119836744Y-82030553D01*
X119835985Y-82020668D01*
X119835840Y-82019833D01*
X119834572Y-82011024D01*
X119832208Y-81993022D01*
X119828956Y-81967529D01*
X119825025Y-81936245D01*
X119820623Y-81900872D01*
X119815960Y-81863110D01*
X119811243Y-81824660D01*
X119806681Y-81787224D01*
X119802484Y-81752503D01*
X119798860Y-81722197D01*
X119796017Y-81698008D01*
X119794165Y-81681636D01*
X119793511Y-81674801D01*
X119790028Y-81675415D01*
X119790028Y-81675415D01*
G37*
X119790028Y-81675415D02*
X119782855Y-81681005D01*
X119763361Y-81693280D01*
X119735773Y-81703660D01*
X119703202Y-81711596D01*
X119668765Y-81716536D01*
X119635573Y-81717932D01*
X119606740Y-81715233D01*
X119599095Y-81713458D01*
X119584977Y-81709889D01*
X119576548Y-81708419D01*
X119575658Y-81708542D01*
X119578828Y-81712968D01*
X119588134Y-81724994D01*
X119602627Y-81743431D01*
X119621354Y-81767093D01*
X119643367Y-81794791D01*
X119667715Y-81825338D01*
X119693447Y-81857547D01*
X119719613Y-81890230D01*
X119745263Y-81922198D01*
X119769445Y-81952265D01*
X119791210Y-81979243D01*
X119809608Y-82001944D01*
X119823687Y-82019181D01*
X119832497Y-82029766D01*
X119834846Y-82032417D01*
X119836744Y-82030553D01*
X119835985Y-82020668D01*
X119835840Y-82019833D01*
X119834572Y-82011024D01*
X119832208Y-81993022D01*
X119828956Y-81967529D01*
X119825025Y-81936245D01*
X119820623Y-81900872D01*
X119815960Y-81863110D01*
X119811243Y-81824660D01*
X119806681Y-81787224D01*
X119802484Y-81752503D01*
X119798860Y-81722197D01*
X119796017Y-81698008D01*
X119794165Y-81681636D01*
X119793511Y-81674801D01*
X119790028Y-81675415D01*
G36*
X119243407Y-76539167D02*
X119062512Y-76560120D01*
X118883208Y-76591996D01*
X118743644Y-76624752D01*
X118583058Y-76671900D01*
X118423035Y-76729335D01*
X118265060Y-76796318D01*
X118110617Y-76872112D01*
X117961192Y-76955980D01*
X117818268Y-77047185D01*
X117683331Y-77144990D01*
X117661457Y-77162090D01*
X117526456Y-77275406D01*
X117397614Y-77396846D01*
X117276046Y-77525221D01*
X117162864Y-77659340D01*
X117059182Y-77798012D01*
X117038301Y-77828215D01*
X116940346Y-77981790D01*
X116852576Y-78139818D01*
X116775023Y-78301822D01*
X116707718Y-78467324D01*
X116650694Y-78635846D01*
X116603982Y-78806910D01*
X116567615Y-78980039D01*
X116541626Y-79154754D01*
X116526045Y-79330577D01*
X116520905Y-79507032D01*
X116526238Y-79683640D01*
X116542077Y-79859923D01*
X116568453Y-80035404D01*
X116605398Y-80209604D01*
X116652945Y-80382046D01*
X116711125Y-80552252D01*
X116779971Y-80719744D01*
X116836218Y-80838500D01*
X116922412Y-80998129D01*
X117017899Y-81151652D01*
X117122266Y-81298704D01*
X117235100Y-81438918D01*
X117355990Y-81571927D01*
X117484522Y-81697365D01*
X117620284Y-81814867D01*
X117762864Y-81924065D01*
X117911848Y-82024593D01*
X118066825Y-82116084D01*
X118227382Y-82198174D01*
X118393107Y-82270494D01*
X118490179Y-82307369D01*
X118661392Y-82363136D01*
X118835553Y-82408269D01*
X119013213Y-82442887D01*
X119194922Y-82467110D01*
X119244074Y-82471825D01*
X119286624Y-82474767D01*
X119337925Y-82476999D01*
X119395604Y-82478522D01*
X119457287Y-82479339D01*
X119520601Y-82479450D01*
X119583171Y-82478857D01*
X119642625Y-82477562D01*
X119696588Y-82475566D01*
X119742688Y-82472871D01*
X119759644Y-82471485D01*
X119942141Y-82449275D01*
X120121677Y-82416311D01*
X120297856Y-82372814D01*
X120470281Y-82319006D01*
X120584505Y-82275631D01*
X120033862Y-82275631D01*
X120033835Y-82275691D01*
X120027582Y-82277275D01*
X120012145Y-82279859D01*
X119989549Y-82283138D01*
X119961824Y-82286809D01*
X119947618Y-82288582D01*
X119864066Y-82298808D01*
X119850686Y-82281947D01*
X119824321Y-82248841D01*
X119796090Y-82213605D01*
X119766839Y-82177271D01*
X119737411Y-82140874D01*
X119708650Y-82105448D01*
X119681400Y-82072027D01*
X119656506Y-82041644D01*
X119634812Y-82015334D01*
X119617161Y-81994129D01*
X119604398Y-81979066D01*
X119597366Y-81971176D01*
X119596247Y-81970293D01*
X119596997Y-81976892D01*
X119598980Y-81993288D01*
X119602024Y-82018080D01*
X119605956Y-82049863D01*
X119610601Y-82087235D01*
X119615788Y-82128793D01*
X119618096Y-82147245D01*
X119623335Y-82190081D01*
X119627890Y-82229279D01*
X119631616Y-82263445D01*
X119634372Y-82291189D01*
X119636015Y-82311118D01*
X119636402Y-82321840D01*
X119636149Y-82323271D01*
X119629670Y-82325267D01*
X119614516Y-82328159D01*
X119593232Y-82331589D01*
X119568362Y-82335199D01*
X119542449Y-82338629D01*
X119518039Y-82341521D01*
X119497676Y-82343516D01*
X119487928Y-82344158D01*
X119477214Y-82342791D01*
X119471887Y-82335296D01*
X119469903Y-82326456D01*
X119467777Y-82312276D01*
X119464673Y-82289183D01*
X119460736Y-82258431D01*
X119456113Y-82221274D01*
X119450950Y-82178967D01*
X119445393Y-82132765D01*
X119439588Y-82083920D01*
X119433680Y-82033687D01*
X119427816Y-81983321D01*
X119423998Y-81950178D01*
X119278975Y-81950178D01*
X119278400Y-81971286D01*
X119273371Y-82025854D01*
X119262720Y-82073340D01*
X119245484Y-82116945D01*
X119222522Y-82157093D01*
X119186161Y-82203296D01*
X119143641Y-82240267D01*
X119095636Y-82267757D01*
X119042818Y-82285522D01*
X118985863Y-82293315D01*
X118925443Y-82290888D01*
X118879746Y-82282572D01*
X118822421Y-82264033D01*
X118771306Y-82237768D01*
X118727333Y-82204569D01*
X118691435Y-82165230D01*
X118664545Y-82120543D01*
X118652485Y-82089474D01*
X118646152Y-82060082D01*
X118642657Y-82024328D01*
X118642220Y-81986834D01*
X118645062Y-81952219D01*
X118645734Y-81947868D01*
X118646798Y-81939782D01*
X118647971Y-81934001D01*
X118650793Y-81930572D01*
X118656806Y-81929541D01*
X118667551Y-81930954D01*
X118684569Y-81934857D01*
X118709403Y-81941296D01*
X118743592Y-81950318D01*
X118745665Y-81950861D01*
X118812597Y-81968394D01*
X118809068Y-81994999D01*
X118808691Y-82034872D01*
X118818118Y-82070095D01*
X118836507Y-82099776D01*
X118863017Y-82123023D01*
X118896806Y-82138946D01*
X118937033Y-82146653D01*
X118952762Y-82147245D01*
X118990945Y-82142703D01*
X119023988Y-82128795D01*
X119052488Y-82105092D01*
X119077036Y-82071167D01*
X119088259Y-82049722D01*
X119103823Y-82007433D01*
X119111951Y-81963689D01*
X119112534Y-81921094D01*
X119105463Y-81882253D01*
X119096259Y-81859378D01*
X119080483Y-81837841D01*
X119057159Y-81816908D01*
X119029770Y-81799579D01*
X119023044Y-81796320D01*
X118995788Y-81787613D01*
X118964803Y-81783446D01*
X118934076Y-81783910D01*
X118907593Y-81789098D01*
X118897344Y-81793407D01*
X118883885Y-81803532D01*
X118868488Y-81819116D01*
X118854504Y-81836331D01*
X118845280Y-81851349D01*
X118844155Y-81854179D01*
X118838614Y-81854257D01*
X118824498Y-81852036D01*
X118804158Y-81848053D01*
X118779944Y-81842848D01*
X118754206Y-81836963D01*
X118729296Y-81830935D01*
X118707563Y-81825305D01*
X118691358Y-81820614D01*
X118683033Y-81817399D01*
X118682619Y-81817087D01*
X118684046Y-81811603D01*
X118689435Y-81798673D01*
X118697675Y-81780938D01*
X118698966Y-81778276D01*
X118726864Y-81733124D01*
X118762149Y-81696164D01*
X118804067Y-81667767D01*
X118851862Y-81648307D01*
X118904780Y-81638155D01*
X118962065Y-81637686D01*
X118980162Y-81639510D01*
X119044742Y-81652411D01*
X119102801Y-81673951D01*
X119153869Y-81703846D01*
X119197476Y-81741814D01*
X119233151Y-81787572D01*
X119237416Y-81794467D01*
X119257131Y-81831646D01*
X119270103Y-81867722D01*
X119277121Y-81906099D01*
X119278975Y-81950178D01*
X119423998Y-81950178D01*
X119422142Y-81934075D01*
X119416803Y-81887204D01*
X119411946Y-81843963D01*
X119407717Y-81805604D01*
X119404261Y-81773383D01*
X119401726Y-81748554D01*
X119400256Y-81732371D01*
X119399997Y-81726088D01*
X119400015Y-81726059D01*
X119406423Y-81724363D01*
X119421951Y-81721776D01*
X119444491Y-81718608D01*
X119471937Y-81715169D01*
X119482030Y-81713991D01*
X119561028Y-81704940D01*
X119536919Y-81681509D01*
X119519983Y-81660833D01*
X119505053Y-81635109D01*
X119494044Y-81608355D01*
X119488875Y-81584586D01*
X119488711Y-81580496D01*
X119489576Y-81573612D01*
X119493764Y-81569272D01*
X119503663Y-81566485D01*
X119521663Y-81564258D01*
X119529633Y-81563491D01*
X119551228Y-81561209D01*
X119569248Y-81558841D01*
X119579948Y-81556881D01*
X119580226Y-81556802D01*
X119588792Y-81558364D01*
X119596378Y-81569596D01*
X119597696Y-81572608D01*
X119608270Y-81591777D01*
X119621989Y-81602663D01*
X119641837Y-81607062D01*
X119655401Y-81607385D01*
X119686982Y-81603393D01*
X119709813Y-81592381D01*
X119724074Y-81574239D01*
X119728148Y-81562013D01*
X119730060Y-81554830D01*
X118680516Y-81554830D01*
X118533772Y-81812937D01*
X118499725Y-81872813D01*
X118470818Y-81923616D01*
X118446616Y-81966091D01*
X118426686Y-82000982D01*
X118410591Y-82029031D01*
X118397899Y-82050983D01*
X118388173Y-82067583D01*
X118380979Y-82079573D01*
X118375883Y-82087699D01*
X118372450Y-82092703D01*
X118370246Y-82095329D01*
X118368835Y-82096323D01*
X118368129Y-82096445D01*
X118362515Y-82093798D01*
X118348932Y-82086522D01*
X118329196Y-82075615D01*
X118305125Y-82062074D01*
X118295009Y-82056325D01*
X118267461Y-82040492D01*
X118248437Y-82029030D01*
X118236586Y-82020837D01*
X118230557Y-82014812D01*
X118228999Y-82009855D01*
X118230562Y-82004865D01*
X118230946Y-82004114D01*
X118235864Y-81995175D01*
X118245275Y-81978447D01*
X118258048Y-81955928D01*
X118273050Y-81929617D01*
X118281959Y-81914049D01*
X118326634Y-81836075D01*
X118314420Y-81799370D01*
X118306908Y-81779804D01*
X118300217Y-81767974D01*
X118295736Y-81765341D01*
X118289006Y-81768185D01*
X118273307Y-81774849D01*
X118250057Y-81784729D01*
X118220673Y-81797223D01*
X118186574Y-81811729D01*
X118149177Y-81827643D01*
X118148360Y-81827991D01*
X118110928Y-81843761D01*
X118076729Y-81857863D01*
X118047181Y-81869736D01*
X118023703Y-81878820D01*
X118007711Y-81884555D01*
X118000623Y-81886381D01*
X118000568Y-81886371D01*
X117993089Y-81883071D01*
X117978243Y-81875359D01*
X117957943Y-81864326D01*
X117934101Y-81851061D01*
X117908630Y-81836654D01*
X117883441Y-81822194D01*
X117860447Y-81808772D01*
X117841559Y-81797477D01*
X117828690Y-81789398D01*
X117823752Y-81785627D01*
X117823746Y-81785593D01*
X117828768Y-81782847D01*
X117843167Y-81776355D01*
X117865845Y-81766580D01*
X117895703Y-81753983D01*
X117931642Y-81739025D01*
X117972565Y-81722170D01*
X118017373Y-81703878D01*
X118036678Y-81696044D01*
X118082812Y-81677340D01*
X118125576Y-81659975D01*
X118163862Y-81644401D01*
X118196563Y-81631068D01*
X118222573Y-81620429D01*
X118240784Y-81612935D01*
X118250090Y-81609038D01*
X118251074Y-81608584D01*
X118249670Y-81603161D01*
X118245079Y-81588292D01*
X118237708Y-81565231D01*
X118227963Y-81535233D01*
X118216252Y-81499553D01*
X118202980Y-81459446D01*
X118193202Y-81430073D01*
X118179076Y-81387494D01*
X118166243Y-81348329D01*
X118155111Y-81313860D01*
X118146088Y-81285373D01*
X118139582Y-81264150D01*
X118136001Y-81251476D01*
X118135443Y-81248403D01*
X118140519Y-81249754D01*
X118153826Y-81256043D01*
X118173866Y-81266484D01*
X118199138Y-81280294D01*
X118228144Y-81296687D01*
X118232432Y-81299153D01*
X118327989Y-81354200D01*
X118375092Y-81503778D01*
X118387435Y-81542978D01*
X118398684Y-81578714D01*
X118408388Y-81609552D01*
X118416098Y-81634062D01*
X118421362Y-81650813D01*
X118423730Y-81658371D01*
X118423790Y-81658567D01*
X118426896Y-81655548D01*
X118434605Y-81644057D01*
X118446054Y-81625499D01*
X118460378Y-81601278D01*
X118476713Y-81572799D01*
X118478483Y-81569667D01*
X118495257Y-81540393D01*
X118510396Y-81514832D01*
X118522962Y-81494498D01*
X118532016Y-81480909D01*
X118536620Y-81475580D01*
X118536752Y-81475556D01*
X118543278Y-81478224D01*
X118557652Y-81485552D01*
X118577965Y-81496522D01*
X118602306Y-81510118D01*
X118611220Y-81515193D01*
X118680516Y-81554830D01*
X119730060Y-81554830D01*
X119731796Y-81548313D01*
X119737038Y-81541004D01*
X119747274Y-81537400D01*
X119762014Y-81535298D01*
X119784813Y-81532399D01*
X119807777Y-81529359D01*
X119814678Y-81528413D01*
X119838666Y-81525074D01*
X119838666Y-81555862D01*
X119835569Y-81590752D01*
X119827003Y-81623303D01*
X119814060Y-81649677D01*
X119810680Y-81654338D01*
X119804046Y-81665039D01*
X119803394Y-81671464D01*
X119804143Y-81671952D01*
X119811640Y-81672016D01*
X119828056Y-81670826D01*
X119851115Y-81668584D01*
X119878543Y-81665493D01*
X119884280Y-81664800D01*
X119911840Y-81661562D01*
X119935027Y-81659087D01*
X119951722Y-81657580D01*
X119959809Y-81657250D01*
X119960226Y-81657358D01*
X119961384Y-81663301D01*
X119963673Y-81679194D01*
X119966947Y-81703798D01*
X119971058Y-81735874D01*
X119975858Y-81774183D01*
X119981199Y-81817486D01*
X119986935Y-81864544D01*
X119992917Y-81914118D01*
X119998999Y-81964968D01*
X120005033Y-82015856D01*
X120010870Y-82065543D01*
X120016365Y-82112789D01*
X120021368Y-82156356D01*
X120025734Y-82195004D01*
X120029313Y-82227495D01*
X120031959Y-82252589D01*
X120033525Y-82269048D01*
X120033862Y-82275631D01*
X120584505Y-82275631D01*
X120638557Y-82255106D01*
X120802285Y-82181336D01*
X120961071Y-82097915D01*
X121114516Y-82005066D01*
X121262226Y-81903009D01*
X121335720Y-81845364D01*
X120790657Y-81845364D01*
X120782664Y-81900407D01*
X120764812Y-81952094D01*
X120737456Y-81999687D01*
X120700953Y-82042449D01*
X120655658Y-82079644D01*
X120601926Y-82110534D01*
X120540113Y-82134383D01*
X120524466Y-82138882D01*
X120492961Y-82144513D01*
X120455299Y-82146889D01*
X120415848Y-82146084D01*
X120378973Y-82142169D01*
X120351494Y-82136014D01*
X120296789Y-82113214D01*
X120248475Y-82081265D01*
X120206968Y-82040593D01*
X120172682Y-81991627D01*
X120146032Y-81934794D01*
X120140232Y-81918253D01*
X120132507Y-81893160D01*
X120127667Y-81872220D01*
X120125110Y-81851180D01*
X120124232Y-81825791D01*
X120124268Y-81805756D01*
X120125159Y-81772959D01*
X120127466Y-81747892D01*
X120131662Y-81727032D01*
X120137131Y-81709800D01*
X120161744Y-81658156D01*
X120195546Y-81611838D01*
X120237384Y-81571645D01*
X120286106Y-81538374D01*
X120340558Y-81512826D01*
X120399588Y-81495798D01*
X120456733Y-81488356D01*
X120513484Y-81489385D01*
X120564782Y-81499674D01*
X120612062Y-81519776D01*
X120656756Y-81550242D01*
X120685945Y-81576705D01*
X120710181Y-81602313D01*
X120728327Y-81625558D01*
X120743459Y-81650670D01*
X120751927Y-81667467D01*
X120775645Y-81728157D01*
X120788436Y-81787702D01*
X120790657Y-81845364D01*
X121335720Y-81845364D01*
X121403803Y-81791964D01*
X121538850Y-81672152D01*
X121666972Y-81543795D01*
X121716656Y-81487578D01*
X121516282Y-81487578D01*
X121512569Y-81491968D01*
X121501363Y-81502567D01*
X121483849Y-81518364D01*
X121461212Y-81538347D01*
X121434635Y-81561504D01*
X121405302Y-81586824D01*
X121374400Y-81613294D01*
X121343111Y-81639903D01*
X121312621Y-81665640D01*
X121284113Y-81689492D01*
X121258772Y-81710448D01*
X121237783Y-81727496D01*
X121222330Y-81739624D01*
X121215001Y-81744939D01*
X121177305Y-81764101D01*
X121134708Y-81776111D01*
X121090587Y-81780493D01*
X121048316Y-81776774D01*
X121027627Y-81771290D01*
X121001345Y-81758060D01*
X120974138Y-81737193D01*
X120949125Y-81711592D01*
X120929423Y-81684161D01*
X120924753Y-81675480D01*
X120916952Y-81658097D01*
X120912728Y-81643207D01*
X120911348Y-81626394D01*
X120912075Y-81603242D01*
X120912242Y-81600299D01*
X120914810Y-81555939D01*
X120884608Y-81549180D01*
X120850869Y-81536198D01*
X120820184Y-81514247D01*
X120794619Y-81485602D01*
X120776242Y-81452538D01*
X120767458Y-81420165D01*
X120767909Y-81382674D01*
X120778328Y-81342853D01*
X120798089Y-81302274D01*
X120826565Y-81262509D01*
X120833429Y-81254592D01*
X120842620Y-81245483D01*
X120859121Y-81230321D01*
X120881583Y-81210299D01*
X120908656Y-81186606D01*
X120938992Y-81160434D01*
X120970378Y-81133704D01*
X121002097Y-81106846D01*
X121031489Y-81081923D01*
X121057301Y-81060003D01*
X121078280Y-81042148D01*
X121093173Y-81029425D01*
X121100728Y-81022898D01*
X121100810Y-81022826D01*
X121103479Y-81020657D01*
X121106325Y-81019521D01*
X121109954Y-81020057D01*
X121114969Y-81022906D01*
X121121975Y-81028706D01*
X121131575Y-81038098D01*
X121144375Y-81051720D01*
X121160978Y-81070212D01*
X121181988Y-81094214D01*
X121208010Y-81124365D01*
X121239648Y-81161305D01*
X121277506Y-81205673D01*
X121313692Y-81248136D01*
X121351365Y-81292381D01*
X121386796Y-81334050D01*
X121419316Y-81372353D01*
X121448254Y-81406496D01*
X121472943Y-81435691D01*
X121492712Y-81459144D01*
X121506891Y-81476066D01*
X121514812Y-81485665D01*
X121516282Y-81487578D01*
X121716656Y-81487578D01*
X121787772Y-81407112D01*
X121879312Y-81291336D01*
X121984760Y-81141777D01*
X122080280Y-80986908D01*
X122165786Y-80826948D01*
X122241196Y-80662114D01*
X122303113Y-80501222D01*
X121943867Y-80501222D01*
X121940407Y-80543076D01*
X121935378Y-80561756D01*
X121921696Y-80589618D01*
X121900575Y-80617117D01*
X121874950Y-80641280D01*
X121847757Y-80659129D01*
X121833445Y-80665098D01*
X121800094Y-80671514D01*
X121763763Y-80671599D01*
X121729108Y-80665637D01*
X121706978Y-80657349D01*
X121670445Y-80633156D01*
X121642186Y-80602162D01*
X121622854Y-80565861D01*
X121613105Y-80525745D01*
X121613590Y-80483308D01*
X121619203Y-80456880D01*
X121633401Y-80425551D01*
X121656000Y-80395824D01*
X121684187Y-80370594D01*
X121715150Y-80352758D01*
X121723311Y-80349688D01*
X121764803Y-80341494D01*
X121806494Y-80343588D01*
X121846194Y-80355471D01*
X121881716Y-80376642D01*
X121895878Y-80389188D01*
X121921101Y-80422090D01*
X121937265Y-80460164D01*
X121943867Y-80501222D01*
X122303113Y-80501222D01*
X122306423Y-80492622D01*
X122361383Y-80318690D01*
X122405992Y-80140536D01*
X122440165Y-79958377D01*
X122461391Y-79796334D01*
X122465353Y-79749129D01*
X122468400Y-79693029D01*
X122470533Y-79630354D01*
X122471752Y-79563423D01*
X122472057Y-79494555D01*
X122471449Y-79426072D01*
X122470815Y-79398625D01*
X122276983Y-79398625D01*
X122272549Y-79459303D01*
X122259354Y-79514359D01*
X122237849Y-79563136D01*
X122208486Y-79604978D01*
X122171718Y-79639226D01*
X122127998Y-79665223D01*
X122082622Y-79681139D01*
X122066914Y-79684569D01*
X122056445Y-79685872D01*
X122054300Y-79685515D01*
X122053276Y-79679394D01*
X122051947Y-79664048D01*
X122050458Y-79641532D01*
X122048954Y-79613900D01*
X122048365Y-79601535D01*
X122044631Y-79519756D01*
X122072750Y-79507691D01*
X122099132Y-79490818D01*
X122118301Y-79467161D01*
X122130395Y-79438506D01*
X122135550Y-79406637D01*
X122133905Y-79373338D01*
X122125595Y-79340394D01*
X122110759Y-79309590D01*
X122089535Y-79282711D01*
X122062058Y-79261540D01*
X122053458Y-79256973D01*
X122038430Y-79250431D01*
X122028004Y-79247255D01*
X122025410Y-79247419D01*
X122024841Y-79253673D01*
X122024970Y-79269287D01*
X122025739Y-79292358D01*
X122027087Y-79320983D01*
X122028473Y-79345432D01*
X122030444Y-79379833D01*
X122032134Y-79412832D01*
X122033415Y-79441690D01*
X122034161Y-79463665D01*
X122034301Y-79472402D01*
X122034355Y-79504070D01*
X121968033Y-79507068D01*
X121941985Y-79508111D01*
X121920437Y-79508720D01*
X121905668Y-79508848D01*
X121899969Y-79508465D01*
X121899205Y-79502616D01*
X121898025Y-79487113D01*
X121896529Y-79463578D01*
X121894819Y-79433634D01*
X121892993Y-79398904D01*
X121892088Y-79380666D01*
X121890166Y-79344010D01*
X121888183Y-79311186D01*
X121886258Y-79283856D01*
X121884516Y-79263684D01*
X121883078Y-79252333D01*
X121882534Y-79250509D01*
X121875343Y-79249973D01*
X121861845Y-79254530D01*
X121844969Y-79262781D01*
X121827646Y-79273331D01*
X121815386Y-79282526D01*
X121791904Y-79309661D01*
X121776773Y-79344290D01*
X121770342Y-79382079D01*
X121771777Y-79423905D01*
X121782223Y-79459567D01*
X121801258Y-79488472D01*
X121828462Y-79510028D01*
X121863414Y-79523642D01*
X121872081Y-79525509D01*
X121880397Y-79527344D01*
X121886611Y-79530321D01*
X121891129Y-79535992D01*
X121894358Y-79545909D01*
X121896705Y-79561626D01*
X121898577Y-79584695D01*
X121900379Y-79616670D01*
X121901438Y-79637606D01*
X121904515Y-79699012D01*
X121869693Y-79695072D01*
X121845133Y-79690999D01*
X121820088Y-79684851D01*
X121807437Y-79680708D01*
X121758281Y-79656243D01*
X121716087Y-79623071D01*
X121681277Y-79581684D01*
X121654271Y-79532577D01*
X121652300Y-79526782D01*
X121449918Y-79526782D01*
X121449348Y-79581859D01*
X121447855Y-79632764D01*
X121445421Y-79676975D01*
X121442760Y-79706022D01*
X121420703Y-79854406D01*
X121389637Y-79996409D01*
X121349285Y-80132801D01*
X121299375Y-80264353D01*
X121239632Y-80391832D01*
X121169781Y-80516010D01*
X121134043Y-80572445D01*
X121047853Y-80694160D01*
X120954409Y-80807412D01*
X120853373Y-80912524D01*
X120744404Y-81009817D01*
X120627161Y-81099616D01*
X120501304Y-81182242D01*
X120474506Y-81198267D01*
X120358592Y-81260518D01*
X120235490Y-81315385D01*
X120107023Y-81362286D01*
X119975014Y-81400638D01*
X119841285Y-81429858D01*
X119707659Y-81449364D01*
X119680622Y-81452093D01*
X119647471Y-81454398D01*
X119605805Y-81456097D01*
X119558372Y-81457185D01*
X119507919Y-81457656D01*
X119457195Y-81457506D01*
X119408946Y-81456729D01*
X119365920Y-81455319D01*
X119330864Y-81453271D01*
X119325022Y-81452782D01*
X119179008Y-81434155D01*
X119035906Y-81404815D01*
X118896210Y-81365079D01*
X118760414Y-81315260D01*
X118629013Y-81255674D01*
X118502501Y-81186636D01*
X118381372Y-81108461D01*
X118373473Y-81102498D01*
X118015810Y-81102498D01*
X117892095Y-81394860D01*
X117868871Y-81449751D01*
X117846739Y-81502072D01*
X117826134Y-81550799D01*
X117807487Y-81594909D01*
X117791232Y-81633375D01*
X117777801Y-81665174D01*
X117767629Y-81689282D01*
X117761146Y-81704674D01*
X117759135Y-81709477D01*
X117753090Y-81723085D01*
X117748755Y-81727677D01*
X117743638Y-81724718D01*
X117739919Y-81720766D01*
X117732337Y-81712661D01*
X117718745Y-81698351D01*
X117700972Y-81679756D01*
X117680848Y-81658793D01*
X117677813Y-81655639D01*
X117625676Y-81601479D01*
X117656905Y-81531904D01*
X117668422Y-81505720D01*
X117678023Y-81482890D01*
X117684842Y-81465551D01*
X117688012Y-81455842D01*
X117688133Y-81454917D01*
X117684351Y-81448684D01*
X117673843Y-81435887D01*
X117657868Y-81417943D01*
X117637685Y-81396269D01*
X117616166Y-81373929D01*
X117544200Y-81300353D01*
X117469552Y-81331142D01*
X117394905Y-81361931D01*
X117332279Y-81295977D01*
X117269653Y-81230022D01*
X117287905Y-81222574D01*
X117300405Y-81217640D01*
X117321532Y-81209494D01*
X117350152Y-81198563D01*
X117385131Y-81185273D01*
X117425332Y-81170050D01*
X117469621Y-81153320D01*
X117516864Y-81135510D01*
X117565925Y-81117044D01*
X117615670Y-81098351D01*
X117664964Y-81079855D01*
X117712672Y-81061983D01*
X117757659Y-81045162D01*
X117798790Y-81029817D01*
X117834931Y-81016374D01*
X117864946Y-81005260D01*
X117887701Y-80996900D01*
X117902061Y-80991722D01*
X117906874Y-80990134D01*
X117912189Y-80994053D01*
X117923567Y-81004796D01*
X117939469Y-81020841D01*
X117958357Y-81040663D01*
X117963630Y-81046316D01*
X118015810Y-81102498D01*
X118373473Y-81102498D01*
X118266120Y-81021463D01*
X118157241Y-80925959D01*
X118055228Y-80822261D01*
X117960576Y-80710687D01*
X117873778Y-80591550D01*
X117830425Y-80522618D01*
X117409501Y-80522618D01*
X117400266Y-80560289D01*
X117382665Y-80595832D01*
X117357927Y-80626576D01*
X117336119Y-80644418D01*
X117297999Y-80664372D01*
X117259132Y-80673323D01*
X117218194Y-80671468D01*
X117193306Y-80665615D01*
X117155640Y-80648830D01*
X117124092Y-80623529D01*
X117099900Y-80591375D01*
X117084303Y-80554030D01*
X117078542Y-80513159D01*
X117078533Y-80511520D01*
X117080702Y-80475672D01*
X117088053Y-80446364D01*
X117101857Y-80419549D01*
X117111720Y-80405620D01*
X117140641Y-80376373D01*
X117175000Y-80355781D01*
X117212857Y-80344042D01*
X117252275Y-80341354D01*
X117291315Y-80347917D01*
X117328038Y-80363930D01*
X117351523Y-80381039D01*
X117375718Y-80408291D01*
X117395215Y-80441732D01*
X117407465Y-80476740D01*
X117409142Y-80485493D01*
X117409501Y-80522618D01*
X117830425Y-80522618D01*
X117807211Y-80485709D01*
X117738983Y-80358264D01*
X117680787Y-80226176D01*
X117632723Y-80090163D01*
X117594888Y-79950942D01*
X117567381Y-79809230D01*
X117550298Y-79665743D01*
X117543739Y-79521200D01*
X117547800Y-79376318D01*
X117560552Y-79251645D01*
X117355111Y-79251645D01*
X117355111Y-79770934D01*
X117208355Y-79770934D01*
X117208355Y-79420978D01*
X117101111Y-79420978D01*
X117101111Y-79578689D01*
X117100965Y-79619675D01*
X117100555Y-79656819D01*
X117099917Y-79688673D01*
X117099092Y-79713785D01*
X117098116Y-79730705D01*
X117097030Y-79737981D01*
X117096878Y-79738145D01*
X117089869Y-79738688D01*
X117073972Y-79738862D01*
X117051581Y-79738667D01*
X117026322Y-79738136D01*
X116960000Y-79736383D01*
X116960000Y-79420978D01*
X116869854Y-79420978D01*
X116868360Y-79591722D01*
X116866866Y-79762467D01*
X116728578Y-79765637D01*
X116728578Y-79251645D01*
X117355111Y-79251645D01*
X117560552Y-79251645D01*
X117562581Y-79231813D01*
X117588179Y-79088402D01*
X117606112Y-79013287D01*
X117615988Y-78980455D01*
X117409904Y-78980455D01*
X117409146Y-78983873D01*
X117405793Y-78994378D01*
X117399614Y-79012649D01*
X117390374Y-79039367D01*
X117377840Y-79075211D01*
X117361778Y-79120859D01*
X117357955Y-79131700D01*
X117353805Y-79138230D01*
X117352499Y-79138756D01*
X117346766Y-79136943D01*
X117331357Y-79131730D01*
X117307248Y-79123456D01*
X117275415Y-79112459D01*
X117236832Y-79099076D01*
X117192478Y-79083646D01*
X117143326Y-79066508D01*
X117090353Y-79048000D01*
X117057400Y-79036468D01*
X117002675Y-79017297D01*
X116951246Y-78999263D01*
X116904082Y-78982706D01*
X116862151Y-78967967D01*
X116826422Y-78955387D01*
X116797862Y-78945307D01*
X116777441Y-78938068D01*
X116766127Y-78934010D01*
X116764113Y-78933244D01*
X116765363Y-78927880D01*
X116769678Y-78914223D01*
X116776248Y-78894585D01*
X116784262Y-78871277D01*
X116792912Y-78846610D01*
X116801386Y-78822895D01*
X116808875Y-78802443D01*
X116814569Y-78787565D01*
X116817591Y-78780675D01*
X116822193Y-78780357D01*
X116834185Y-78782921D01*
X116854000Y-78788507D01*
X116882068Y-78797255D01*
X116918821Y-78809304D01*
X116964691Y-78824793D01*
X117020108Y-78843864D01*
X117085506Y-78866655D01*
X117115222Y-78877079D01*
X117170066Y-78896345D01*
X117221618Y-78914449D01*
X117268913Y-78931053D01*
X117310985Y-78945818D01*
X117346870Y-78958405D01*
X117375601Y-78968476D01*
X117396213Y-78975692D01*
X117407742Y-78979714D01*
X117409904Y-78980455D01*
X117615988Y-78980455D01*
X117648351Y-78872877D01*
X117700564Y-78737227D01*
X117762306Y-78606749D01*
X117833134Y-78481854D01*
X117847568Y-78460258D01*
X117587602Y-78460258D01*
X117586943Y-78466525D01*
X117582856Y-78481795D01*
X117575891Y-78504507D01*
X117566597Y-78533098D01*
X117555522Y-78566006D01*
X117543217Y-78601670D01*
X117530231Y-78638526D01*
X117517112Y-78675014D01*
X117504409Y-78709572D01*
X117492672Y-78740636D01*
X117482450Y-78766646D01*
X117474292Y-78786038D01*
X117469742Y-78795515D01*
X117450113Y-78825286D01*
X117425258Y-78853619D01*
X117398375Y-78877215D01*
X117377677Y-78890406D01*
X117341277Y-78904296D01*
X117302634Y-78909386D01*
X117259824Y-78905777D01*
X117227411Y-78898425D01*
X117191036Y-78883609D01*
X117156473Y-78860774D01*
X117128115Y-78832894D01*
X117125336Y-78829347D01*
X117105969Y-78797234D01*
X117094213Y-78761372D01*
X117090057Y-78720825D01*
X117093491Y-78674657D01*
X117104501Y-78621930D01*
X117122066Y-78564629D01*
X117149704Y-78484392D01*
X117084485Y-78461434D01*
X117054977Y-78451042D01*
X117025415Y-78440625D01*
X116999602Y-78431522D01*
X116983989Y-78426011D01*
X116966086Y-78418862D01*
X116953390Y-78412221D01*
X116948711Y-78407637D01*
X116950460Y-78400896D01*
X116955161Y-78386021D01*
X116961991Y-78365393D01*
X116970130Y-78341393D01*
X116978756Y-78316404D01*
X116987047Y-78292806D01*
X116994181Y-78272982D01*
X116999338Y-78259314D01*
X117001625Y-78254227D01*
X117007104Y-78255695D01*
X117022040Y-78260543D01*
X117045257Y-78268355D01*
X117075579Y-78278720D01*
X117111830Y-78291222D01*
X117152834Y-78305450D01*
X117197414Y-78320989D01*
X117244396Y-78337426D01*
X117292603Y-78354348D01*
X117340859Y-78371340D01*
X117387988Y-78387990D01*
X117432814Y-78403884D01*
X117474161Y-78418609D01*
X117510854Y-78431750D01*
X117541715Y-78442896D01*
X117565570Y-78451631D01*
X117581242Y-78457543D01*
X117587555Y-78460218D01*
X117587602Y-78460258D01*
X117847568Y-78460258D01*
X117912604Y-78362955D01*
X118000270Y-78250462D01*
X118095688Y-78144789D01*
X118198415Y-78046348D01*
X118308006Y-77955549D01*
X118342412Y-77931009D01*
X118014302Y-77931009D01*
X118009814Y-77937793D01*
X117999772Y-77950756D01*
X117985785Y-77968000D01*
X117969464Y-77987623D01*
X117952416Y-78007727D01*
X117936252Y-78026411D01*
X117922579Y-78041776D01*
X117913008Y-78051921D01*
X117909271Y-78055022D01*
X117903132Y-78051671D01*
X117890687Y-78042750D01*
X117874266Y-78029959D01*
X117868443Y-78025237D01*
X117849574Y-78009788D01*
X117825139Y-77989780D01*
X117798302Y-77967806D01*
X117772386Y-77946586D01*
X117712705Y-77897719D01*
X117643801Y-77982006D01*
X117622231Y-78008598D01*
X117603169Y-78032487D01*
X117587768Y-78052198D01*
X117577180Y-78066257D01*
X117572555Y-78073187D01*
X117572487Y-78073358D01*
X117575953Y-78078914D01*
X117587071Y-78090324D01*
X117604615Y-78106470D01*
X117627361Y-78126233D01*
X117654083Y-78148496D01*
X117660599Y-78153800D01*
X117688185Y-78176265D01*
X117712942Y-78196623D01*
X117733463Y-78213699D01*
X117748338Y-78226320D01*
X117756160Y-78233312D01*
X117756822Y-78234011D01*
X117756931Y-78239911D01*
X117751158Y-78251301D01*
X117738962Y-78269026D01*
X117719799Y-78293933D01*
X117712629Y-78302910D01*
X117694222Y-78325155D01*
X117677877Y-78343699D01*
X117665047Y-78356983D01*
X117657184Y-78363445D01*
X117655891Y-78363810D01*
X117650343Y-78360114D01*
X117636890Y-78349915D01*
X117616354Y-78333870D01*
X117589558Y-78312633D01*
X117557324Y-78286863D01*
X117520475Y-78257215D01*
X117479833Y-78224347D01*
X117436222Y-78188913D01*
X117411489Y-78168750D01*
X117366831Y-78132198D01*
X117324970Y-78097738D01*
X117286696Y-78066033D01*
X117252800Y-78037747D01*
X117224072Y-78013545D01*
X117201300Y-77994089D01*
X117185275Y-77980045D01*
X117176787Y-77972075D01*
X117175620Y-77970513D01*
X117180331Y-77963105D01*
X117190494Y-77949601D01*
X117204502Y-77931935D01*
X117220743Y-77912040D01*
X117237608Y-77891848D01*
X117253488Y-77873293D01*
X117266774Y-77858307D01*
X117275854Y-77848823D01*
X117278913Y-77846484D01*
X117284848Y-77849809D01*
X117298025Y-77859251D01*
X117317002Y-77873711D01*
X117340339Y-77892088D01*
X117366596Y-77913285D01*
X117368719Y-77915020D01*
X117452880Y-77983863D01*
X117472153Y-77961587D01*
X117482676Y-77949136D01*
X117498416Y-77930149D01*
X117517515Y-77906884D01*
X117538113Y-77881600D01*
X117545539Y-77872437D01*
X117599652Y-77805563D01*
X117583215Y-77792485D01*
X117550545Y-77766210D01*
X117519569Y-77740771D01*
X117491465Y-77717184D01*
X117467411Y-77696466D01*
X117448586Y-77679633D01*
X117436167Y-77667700D01*
X117431335Y-77661684D01*
X117431311Y-77661503D01*
X117434725Y-77654274D01*
X117443897Y-77640874D01*
X117457219Y-77623247D01*
X117473085Y-77603336D01*
X117489888Y-77583084D01*
X117506022Y-77564436D01*
X117519879Y-77549335D01*
X117529853Y-77539724D01*
X117533989Y-77537300D01*
X117539796Y-77541053D01*
X117553204Y-77551156D01*
X117573249Y-77566817D01*
X117598967Y-77587246D01*
X117629392Y-77611653D01*
X117663559Y-77639246D01*
X117700504Y-77669234D01*
X117739262Y-77700827D01*
X117778869Y-77733233D01*
X117818358Y-77765662D01*
X117856766Y-77797324D01*
X117893128Y-77827426D01*
X117926479Y-77855179D01*
X117955854Y-77879791D01*
X117980288Y-77900472D01*
X117998816Y-77916431D01*
X118010475Y-77926876D01*
X118014302Y-77931009D01*
X118342412Y-77931009D01*
X118424017Y-77872806D01*
X118546004Y-77798530D01*
X118673522Y-77733133D01*
X118806127Y-77677028D01*
X118943374Y-77630625D01*
X119084821Y-77594337D01*
X119150350Y-77581304D01*
X119262765Y-77565005D01*
X119381278Y-77555354D01*
X119502862Y-77552351D01*
X119624491Y-77555996D01*
X119743138Y-77566291D01*
X119844311Y-77581142D01*
X119986676Y-77612260D01*
X120125966Y-77654035D01*
X120261580Y-77706107D01*
X120392919Y-77768119D01*
X120519383Y-77839714D01*
X120640374Y-77920533D01*
X120755291Y-78010218D01*
X120863535Y-78108412D01*
X120964506Y-78214757D01*
X121023609Y-78285148D01*
X121112443Y-78405026D01*
X121191242Y-78530049D01*
X121259952Y-78660086D01*
X121318514Y-78795000D01*
X121366874Y-78934659D01*
X121404975Y-79078928D01*
X121432762Y-79227675D01*
X121439573Y-79277045D01*
X121443339Y-79315169D01*
X121446275Y-79361726D01*
X121448362Y-79414194D01*
X121449583Y-79470053D01*
X121449918Y-79526782D01*
X121652300Y-79526782D01*
X121636544Y-79480470D01*
X121631506Y-79451533D01*
X121628721Y-79415697D01*
X121628190Y-79376968D01*
X121629909Y-79339354D01*
X121633880Y-79306863D01*
X121636598Y-79294212D01*
X121655984Y-79241532D01*
X121684820Y-79193740D01*
X121721883Y-79152054D01*
X121765946Y-79117690D01*
X121815786Y-79091865D01*
X121852444Y-79079778D01*
X121916743Y-79068431D01*
X121979885Y-79067621D01*
X122023314Y-79073502D01*
X122074574Y-79087306D01*
X122118587Y-79107272D01*
X122158450Y-79135038D01*
X122184002Y-79158443D01*
X122220509Y-79201126D01*
X122247508Y-79247204D01*
X122265519Y-79298021D01*
X122275062Y-79354922D01*
X122276983Y-79398625D01*
X122470815Y-79398625D01*
X122469928Y-79360291D01*
X122467493Y-79299533D01*
X122464147Y-79246119D01*
X122461327Y-79214956D01*
X122436136Y-79028284D01*
X122400594Y-78846067D01*
X122367699Y-78718626D01*
X122157211Y-78718626D01*
X122151527Y-78721367D01*
X122136642Y-78727893D01*
X122113791Y-78737683D01*
X122084206Y-78750213D01*
X122049121Y-78764960D01*
X122009771Y-78781400D01*
X121980116Y-78793732D01*
X121937348Y-78811550D01*
X121896969Y-78828498D01*
X121860413Y-78843964D01*
X121829113Y-78857338D01*
X121804502Y-78868009D01*
X121788013Y-78875366D01*
X121782520Y-78877982D01*
X121759022Y-78891984D01*
X121737979Y-78908068D01*
X121722576Y-78923646D01*
X121718010Y-78930391D01*
X121716310Y-78944107D01*
X121721374Y-78962555D01*
X121731940Y-78982526D01*
X121744966Y-78998997D01*
X121753492Y-79009852D01*
X121756186Y-79017514D01*
X121755681Y-79018556D01*
X121748829Y-79022260D01*
X121734097Y-79028678D01*
X121714244Y-79036747D01*
X121692027Y-79045402D01*
X121670204Y-79053580D01*
X121651535Y-79060218D01*
X121638776Y-79064253D01*
X121635298Y-79064976D01*
X121627906Y-79061098D01*
X121617684Y-79050924D01*
X121614356Y-79046795D01*
X121589710Y-79006764D01*
X121574297Y-78964370D01*
X121568382Y-78921414D01*
X121572231Y-78879696D01*
X121584500Y-78844210D01*
X121604681Y-78812862D01*
X121633502Y-78781834D01*
X121668494Y-78753446D01*
X121704564Y-78731370D01*
X121721992Y-78722828D01*
X121747523Y-78711026D01*
X121778827Y-78697005D01*
X121813570Y-78681810D01*
X121849421Y-78666482D01*
X121853733Y-78664664D01*
X121886462Y-78650841D01*
X121915498Y-78638491D01*
X121939289Y-78628283D01*
X121956285Y-78620881D01*
X121964935Y-78616954D01*
X121965695Y-78616532D01*
X121964609Y-78610937D01*
X121960356Y-78597417D01*
X121953880Y-78578561D01*
X121946122Y-78556958D01*
X121938025Y-78535199D01*
X121930534Y-78515872D01*
X121924589Y-78501565D01*
X121921659Y-78495600D01*
X121917587Y-78494842D01*
X121907428Y-78496743D01*
X121890531Y-78501521D01*
X121866244Y-78509392D01*
X121833916Y-78520575D01*
X121792896Y-78535288D01*
X121742532Y-78553747D01*
X121696182Y-78570947D01*
X121648800Y-78588566D01*
X121604705Y-78604895D01*
X121565018Y-78619526D01*
X121530861Y-78632047D01*
X121503354Y-78642048D01*
X121483619Y-78649119D01*
X121472777Y-78652849D01*
X121471041Y-78653334D01*
X121467356Y-78648422D01*
X121461216Y-78635412D01*
X121453812Y-78616885D01*
X121452163Y-78612411D01*
X121442301Y-78585518D01*
X121431450Y-78556319D01*
X121423115Y-78534188D01*
X121408930Y-78496888D01*
X121692009Y-78391500D01*
X121746056Y-78371402D01*
X121797138Y-78352450D01*
X121844236Y-78335021D01*
X121886330Y-78319490D01*
X121922399Y-78306231D01*
X121951424Y-78295620D01*
X121972385Y-78288033D01*
X121984263Y-78283844D01*
X121986403Y-78283160D01*
X121989494Y-78283200D01*
X121992891Y-78285535D01*
X121996989Y-78291089D01*
X122002185Y-78300782D01*
X122008876Y-78315537D01*
X122017458Y-78336276D01*
X122028328Y-78363921D01*
X122041882Y-78399394D01*
X122058517Y-78443616D01*
X122078629Y-78497510D01*
X122078831Y-78498050D01*
X122096223Y-78544996D01*
X122112207Y-78588600D01*
X122126386Y-78627742D01*
X122138362Y-78661303D01*
X122147735Y-78688163D01*
X122154109Y-78707201D01*
X122157086Y-78717298D01*
X122157211Y-78718626D01*
X122367699Y-78718626D01*
X122354723Y-78668357D01*
X122298544Y-78495210D01*
X122232079Y-78326679D01*
X122155351Y-78162818D01*
X122078472Y-78022145D01*
X121843647Y-78022145D01*
X121838517Y-78026218D01*
X121825233Y-78036486D01*
X121804629Y-78052314D01*
X121777536Y-78073064D01*
X121744789Y-78098098D01*
X121707218Y-78126782D01*
X121665658Y-78158476D01*
X121620941Y-78192545D01*
X121594730Y-78212501D01*
X121349838Y-78398899D01*
X121340153Y-78386416D01*
X121334754Y-78379372D01*
X121323279Y-78364337D01*
X121306488Y-78342309D01*
X121285138Y-78314283D01*
X121259989Y-78281254D01*
X121231798Y-78244218D01*
X121201324Y-78204172D01*
X121182948Y-78180019D01*
X121035429Y-77986104D01*
X121090249Y-77944363D01*
X121111645Y-77928301D01*
X121129800Y-77915105D01*
X121142841Y-77906104D01*
X121148899Y-77902628D01*
X121148968Y-77902622D01*
X121153229Y-77906947D01*
X121163415Y-77919188D01*
X121178656Y-77938244D01*
X121198084Y-77963013D01*
X121220832Y-77992395D01*
X121246031Y-78025287D01*
X121255773Y-78038089D01*
X121281689Y-78072009D01*
X121305519Y-78102822D01*
X121326387Y-78129425D01*
X121343418Y-78150717D01*
X121355737Y-78165595D01*
X121362467Y-78172957D01*
X121363362Y-78173556D01*
X121369565Y-78170405D01*
X121381909Y-78162212D01*
X121397857Y-78150863D01*
X121414869Y-78138242D01*
X121430406Y-78126238D01*
X121441928Y-78116737D01*
X121446898Y-78111623D01*
X121446936Y-78111467D01*
X121443705Y-78106426D01*
X121434468Y-78093591D01*
X121420092Y-78074128D01*
X121401443Y-78049198D01*
X121379387Y-78019965D01*
X121354791Y-77987593D01*
X121350879Y-77982465D01*
X121322669Y-77945399D01*
X121300715Y-77916236D01*
X121284359Y-77893954D01*
X121272945Y-77877532D01*
X121265815Y-77865948D01*
X121262310Y-77858182D01*
X121261774Y-77853211D01*
X121263549Y-77850015D01*
X121264888Y-77848911D01*
X121273697Y-77842423D01*
X121288978Y-77831002D01*
X121308209Y-77816535D01*
X121320333Y-77807377D01*
X121342295Y-77791326D01*
X121357165Y-77781976D01*
X121366336Y-77778584D01*
X121371133Y-77780315D01*
X121375397Y-77785868D01*
X121385398Y-77798973D01*
X121400041Y-77818194D01*
X121418236Y-77842094D01*
X121438888Y-77869236D01*
X121460906Y-77898183D01*
X121483196Y-77927499D01*
X121504666Y-77955747D01*
X121524224Y-77981490D01*
X121540775Y-78003291D01*
X121553229Y-78019713D01*
X121557912Y-78025902D01*
X121562729Y-78023642D01*
X121574286Y-78015945D01*
X121590404Y-78004290D01*
X121596453Y-77999751D01*
X121633540Y-77971676D01*
X121531924Y-77838233D01*
X121506231Y-77804394D01*
X121482834Y-77773388D01*
X121462592Y-77746370D01*
X121446365Y-77724493D01*
X121435010Y-77708911D01*
X121429389Y-77700777D01*
X121428943Y-77699943D01*
X121432555Y-77694666D01*
X121443265Y-77684566D01*
X121458929Y-77671305D01*
X121477405Y-77656546D01*
X121496550Y-77641948D01*
X121514221Y-77629176D01*
X121528275Y-77619890D01*
X121536568Y-77615752D01*
X121537535Y-77615731D01*
X121542473Y-77620643D01*
X121553165Y-77633411D01*
X121568784Y-77652935D01*
X121588503Y-77678117D01*
X121611493Y-77707858D01*
X121636927Y-77741058D01*
X121663978Y-77776619D01*
X121691817Y-77813442D01*
X121719617Y-77850428D01*
X121746549Y-77886478D01*
X121771788Y-77920493D01*
X121794503Y-77951374D01*
X121813869Y-77978022D01*
X121829057Y-77999339D01*
X121839240Y-78014225D01*
X121843589Y-78021582D01*
X121843647Y-78022145D01*
X122078472Y-78022145D01*
X122068381Y-78003681D01*
X121971192Y-77849321D01*
X121863805Y-77699792D01*
X121819310Y-77642978D01*
X121700806Y-77504115D01*
X121624433Y-77424951D01*
X121336650Y-77424951D01*
X121333322Y-77430766D01*
X121324084Y-77444590D01*
X121309672Y-77465405D01*
X121290824Y-77492194D01*
X121268277Y-77523941D01*
X121242768Y-77559630D01*
X121215034Y-77598242D01*
X121185812Y-77638762D01*
X121155839Y-77680173D01*
X121125853Y-77721457D01*
X121096591Y-77761598D01*
X121068789Y-77799579D01*
X121043186Y-77834383D01*
X121020517Y-77864994D01*
X121001521Y-77890395D01*
X120986934Y-77909568D01*
X120977494Y-77921497D01*
X120973994Y-77925200D01*
X120968208Y-77922041D01*
X120955144Y-77913380D01*
X120936589Y-77900447D01*
X120914330Y-77884469D01*
X120908093Y-77879920D01*
X120885286Y-77862975D01*
X120866009Y-77848160D01*
X120851993Y-77836843D01*
X120844972Y-77830392D01*
X120844508Y-77829688D01*
X120847127Y-77823742D01*
X120855437Y-77810278D01*
X120868406Y-77790846D01*
X120885003Y-77766998D01*
X120902021Y-77743271D01*
X120961226Y-77661806D01*
X120952715Y-77624495D01*
X120946909Y-77603423D01*
X120941362Y-77591566D01*
X120937536Y-77589441D01*
X120922228Y-77594371D01*
X120899410Y-77601399D01*
X120870806Y-77610021D01*
X120838138Y-77619737D01*
X120803131Y-77630045D01*
X120767509Y-77640442D01*
X120732994Y-77650428D01*
X120701310Y-77659500D01*
X120674182Y-77667158D01*
X120653332Y-77672898D01*
X120640484Y-77676220D01*
X120637272Y-77676845D01*
X120630570Y-77673707D01*
X120616644Y-77665162D01*
X120597351Y-77652507D01*
X120574545Y-77637043D01*
X120550084Y-77620069D01*
X120525823Y-77602883D01*
X120503618Y-77586786D01*
X120485326Y-77573076D01*
X120472802Y-77563052D01*
X120468081Y-77558407D01*
X120472794Y-77556083D01*
X120487248Y-77551075D01*
X120508829Y-77544200D01*
X118575227Y-77544200D01*
X118571104Y-77548684D01*
X118559484Y-77557722D01*
X118542376Y-77569981D01*
X118521790Y-77584126D01*
X118499736Y-77598825D01*
X118478223Y-77612744D01*
X118459262Y-77624550D01*
X118444861Y-77632908D01*
X118437031Y-77636486D01*
X118436250Y-77636413D01*
X118432858Y-77631303D01*
X118424306Y-77618061D01*
X118411490Y-77598081D01*
X118395303Y-77572760D01*
X118376642Y-77543494D01*
X118368108Y-77530089D01*
X118348719Y-77499622D01*
X118331491Y-77472554D01*
X118317304Y-77450266D01*
X118307036Y-77434140D01*
X118301568Y-77425557D01*
X118300910Y-77424528D01*
X118296165Y-77427081D01*
X118283347Y-77434862D01*
X118263871Y-77446989D01*
X118239153Y-77462577D01*
X118210611Y-77480744D01*
X118202724Y-77485789D01*
X118170007Y-77506810D01*
X118145713Y-77522713D01*
X118128732Y-77534425D01*
X118117952Y-77542869D01*
X118112260Y-77548971D01*
X118110546Y-77553657D01*
X118111696Y-77557850D01*
X118113163Y-77560306D01*
X118145996Y-77610985D01*
X118172974Y-77653033D01*
X118194533Y-77687191D01*
X118211108Y-77714200D01*
X118223137Y-77734802D01*
X118231054Y-77749738D01*
X118235297Y-77759751D01*
X118236300Y-77765581D01*
X118235115Y-77767702D01*
X118227539Y-77772545D01*
X118212662Y-77782250D01*
X118192587Y-77795440D01*
X118169420Y-77810736D01*
X118167911Y-77811734D01*
X118144951Y-77826662D01*
X118125195Y-77839004D01*
X118110630Y-77847554D01*
X118103248Y-77851103D01*
X118103000Y-77851136D01*
X118098985Y-77846545D01*
X118089507Y-77833284D01*
X118075141Y-77812224D01*
X118056461Y-77784234D01*
X118034041Y-77750183D01*
X118008456Y-77710942D01*
X117980280Y-77667380D01*
X117950086Y-77620367D01*
X117933666Y-77594668D01*
X117902705Y-77545978D01*
X117873656Y-77500014D01*
X117847078Y-77457678D01*
X117823528Y-77419871D01*
X117803565Y-77387495D01*
X117787744Y-77361451D01*
X117776624Y-77342641D01*
X117770763Y-77331967D01*
X117769978Y-77329944D01*
X117774380Y-77325104D01*
X117786219Y-77315568D01*
X117803444Y-77302755D01*
X117824004Y-77288085D01*
X117845846Y-77272979D01*
X117866921Y-77258857D01*
X117885176Y-77247139D01*
X117898561Y-77239244D01*
X117904848Y-77236578D01*
X117908174Y-77241114D01*
X117916571Y-77253756D01*
X117929098Y-77273053D01*
X117944814Y-77297557D01*
X117962780Y-77325816D01*
X117965154Y-77329567D01*
X117983484Y-77358243D01*
X117999893Y-77383345D01*
X118013398Y-77403416D01*
X118023015Y-77416996D01*
X118027760Y-77422628D01*
X118027953Y-77422700D01*
X118033549Y-77419857D01*
X118046817Y-77412004D01*
X118065959Y-77400277D01*
X118089180Y-77385816D01*
X118114684Y-77369758D01*
X118140674Y-77353242D01*
X118165355Y-77337406D01*
X118186931Y-77323387D01*
X118203605Y-77312325D01*
X118213582Y-77305357D01*
X118215243Y-77304019D01*
X118213899Y-77298032D01*
X118207115Y-77284062D01*
X118195688Y-77263532D01*
X118180414Y-77237868D01*
X118162090Y-77208494D01*
X118159876Y-77205025D01*
X118141704Y-77176076D01*
X118126233Y-77150382D01*
X118114301Y-77129422D01*
X118106744Y-77114678D01*
X118104401Y-77107628D01*
X118104590Y-77107295D01*
X118138338Y-77085372D01*
X118169685Y-77065779D01*
X118197331Y-77049264D01*
X118219971Y-77036576D01*
X118236303Y-77028463D01*
X118245024Y-77025673D01*
X118246020Y-77026062D01*
X118249697Y-77031806D01*
X118258887Y-77046158D01*
X118273016Y-77068218D01*
X118291506Y-77097088D01*
X118313783Y-77131869D01*
X118339272Y-77171663D01*
X118367396Y-77215571D01*
X118397579Y-77262694D01*
X118412017Y-77285234D01*
X118442886Y-77333503D01*
X118471868Y-77378968D01*
X118498397Y-77420731D01*
X118521909Y-77457898D01*
X118541839Y-77489572D01*
X118557622Y-77514857D01*
X118568693Y-77532855D01*
X118574488Y-77542672D01*
X118575227Y-77544200D01*
X120508829Y-77544200D01*
X120510308Y-77543729D01*
X120540842Y-77534388D01*
X120577715Y-77523399D01*
X120619793Y-77511106D01*
X120665942Y-77497854D01*
X120683293Y-77492926D01*
X120730963Y-77479387D01*
X120775273Y-77466725D01*
X120815037Y-77455283D01*
X120849071Y-77445406D01*
X120876189Y-77437439D01*
X120895207Y-77431726D01*
X120904939Y-77428611D01*
X120905916Y-77428209D01*
X120905972Y-77422152D01*
X120903821Y-77406383D01*
X120899707Y-77382210D01*
X120893869Y-77350943D01*
X120886551Y-77313889D01*
X120877993Y-77272359D01*
X120871527Y-77241943D01*
X120862145Y-77198047D01*
X120853646Y-77157708D01*
X120846296Y-77122241D01*
X120840364Y-77092961D01*
X120836116Y-77071185D01*
X120833822Y-77058227D01*
X120833513Y-77055124D01*
X120838258Y-77056927D01*
X120850281Y-77064395D01*
X120867913Y-77076309D01*
X120889486Y-77091449D01*
X120913331Y-77108596D01*
X120937778Y-77126533D01*
X120961159Y-77144039D01*
X120981804Y-77159896D01*
X120998045Y-77172885D01*
X121008212Y-77181787D01*
X121010568Y-77184432D01*
X121013300Y-77192408D01*
X121017797Y-77209926D01*
X121023712Y-77235436D01*
X121030697Y-77267391D01*
X121038405Y-77304241D01*
X121046488Y-77344438D01*
X121046645Y-77345234D01*
X121054570Y-77384830D01*
X121061950Y-77420523D01*
X121068472Y-77450896D01*
X121073824Y-77474529D01*
X121077693Y-77490005D01*
X121079767Y-77495905D01*
X121079832Y-77495924D01*
X121084069Y-77491466D01*
X121093735Y-77479267D01*
X121107724Y-77460789D01*
X121124926Y-77437493D01*
X121142601Y-77413116D01*
X121161952Y-77386527D01*
X121179306Y-77363287D01*
X121193505Y-77344897D01*
X121203389Y-77332862D01*
X121207646Y-77328703D01*
X121214474Y-77331086D01*
X121227934Y-77339109D01*
X121245987Y-77351249D01*
X121266591Y-77365985D01*
X121287708Y-77381794D01*
X121307296Y-77397154D01*
X121323317Y-77410544D01*
X121333730Y-77420441D01*
X121336650Y-77424951D01*
X121624433Y-77424951D01*
X121574684Y-77373384D01*
X121441376Y-77251037D01*
X121301316Y-77137326D01*
X121154937Y-77032503D01*
X121097017Y-76996106D01*
X120700743Y-76996106D01*
X120700088Y-77002210D01*
X120696118Y-77016254D01*
X120689741Y-77035751D01*
X120681863Y-77058214D01*
X120673392Y-77081158D01*
X120665234Y-77102094D01*
X120658297Y-77118536D01*
X120653488Y-77127997D01*
X120652149Y-77129334D01*
X120645866Y-77127498D01*
X120630788Y-77122412D01*
X120608720Y-77114705D01*
X120581470Y-77105004D01*
X120557277Y-77096278D01*
X120466135Y-77063223D01*
X120409891Y-77219045D01*
X120394037Y-77262996D01*
X120378060Y-77307340D01*
X120362756Y-77349865D01*
X120348919Y-77388359D01*
X120337347Y-77420609D01*
X120328990Y-77443964D01*
X120319329Y-77469751D01*
X120310430Y-77491173D01*
X120303185Y-77506235D01*
X120298491Y-77512942D01*
X120297997Y-77513108D01*
X120290600Y-77511304D01*
X120274748Y-77506327D01*
X120252586Y-77498882D01*
X120226258Y-77489678D01*
X120218975Y-77487076D01*
X120192401Y-77477490D01*
X120169960Y-77469297D01*
X120153630Y-77463226D01*
X120145389Y-77460008D01*
X120144797Y-77459714D01*
X120146333Y-77454311D01*
X120151333Y-77439396D01*
X120159410Y-77416066D01*
X120170178Y-77385420D01*
X120183248Y-77348557D01*
X120198235Y-77306575D01*
X120214750Y-77260573D01*
X120224616Y-77233204D01*
X120247156Y-77170311D01*
X120265627Y-77117761D01*
X120280083Y-77075389D01*
X120290578Y-77043030D01*
X120297165Y-77020519D01*
X120299899Y-77007691D01*
X120299486Y-77004341D01*
X120292146Y-77001257D01*
X120276175Y-76995160D01*
X120253585Y-76986800D01*
X120226388Y-76976926D01*
X120211200Y-76971480D01*
X120182527Y-76961046D01*
X120157560Y-76951592D01*
X120138275Y-76943894D01*
X120126645Y-76938729D01*
X120124275Y-76937299D01*
X120124373Y-76930756D01*
X120127561Y-76916214D01*
X120133023Y-76896264D01*
X120139941Y-76873497D01*
X120147498Y-76850505D01*
X120154874Y-76829878D01*
X120161253Y-76814208D01*
X120165620Y-76806301D01*
X120171273Y-76807522D01*
X120186304Y-76812166D01*
X120209482Y-76819797D01*
X120239578Y-76829979D01*
X120275359Y-76842274D01*
X120315597Y-76856247D01*
X120359060Y-76871460D01*
X120404518Y-76887479D01*
X120450740Y-76903865D01*
X120496496Y-76920183D01*
X120540555Y-76935996D01*
X120581686Y-76950868D01*
X120618660Y-76964362D01*
X120650245Y-76976041D01*
X120675212Y-76985470D01*
X120692328Y-76992212D01*
X120700365Y-76995830D01*
X120700743Y-76996106D01*
X121097017Y-76996106D01*
X121002671Y-76936820D01*
X120844953Y-76850529D01*
X120682214Y-76773883D01*
X120643204Y-76758321D01*
X119932144Y-76758321D01*
X119931988Y-76764032D01*
X119931155Y-76779989D01*
X119929706Y-76805174D01*
X119927705Y-76838568D01*
X119925213Y-76879153D01*
X119922293Y-76925911D01*
X119919008Y-76977823D01*
X119915418Y-77033870D01*
X119912965Y-77071843D01*
X119892720Y-77384064D01*
X119867104Y-77381067D01*
X119850174Y-77379402D01*
X119825941Y-77377412D01*
X119798373Y-77375413D01*
X119783633Y-77374449D01*
X119757658Y-77372733D01*
X119740921Y-77371069D01*
X119731391Y-77368814D01*
X119727039Y-77365322D01*
X119725834Y-77359947D01*
X119725778Y-77356065D01*
X119726151Y-77345539D01*
X119727184Y-77326034D01*
X119728742Y-77299832D01*
X119730691Y-77269214D01*
X119732032Y-77249098D01*
X119734009Y-77218124D01*
X119735480Y-77191338D01*
X119736361Y-77170657D01*
X119736565Y-77157995D01*
X119736266Y-77154934D01*
X119730240Y-77153908D01*
X119714875Y-77152329D01*
X119692100Y-77150367D01*
X119663839Y-77148190D01*
X119642788Y-77146697D01*
X119592487Y-77142407D01*
X119551488Y-77136853D01*
X119517831Y-77129557D01*
X119489558Y-77120040D01*
X119464708Y-77107825D01*
X119457964Y-77103644D01*
X119228284Y-77103644D01*
X119227951Y-77162579D01*
X119217457Y-77218419D01*
X119197322Y-77270316D01*
X119168067Y-77317424D01*
X119130211Y-77358894D01*
X119084275Y-77393879D01*
X119030780Y-77421532D01*
X118973808Y-77440145D01*
X118935380Y-77446930D01*
X118892589Y-77450171D01*
X118850263Y-77449730D01*
X118813229Y-77445467D01*
X118810244Y-77444875D01*
X118758006Y-77428596D01*
X118710767Y-77403148D01*
X118669077Y-77369740D01*
X118633483Y-77329578D01*
X118604535Y-77283868D01*
X118582782Y-77233817D01*
X118568771Y-77180631D01*
X118563052Y-77125519D01*
X118566174Y-77069685D01*
X118578685Y-77014338D01*
X118595328Y-76972254D01*
X118611878Y-76945216D01*
X118635823Y-76915909D01*
X118664424Y-76887034D01*
X118694939Y-76861289D01*
X118724629Y-76841376D01*
X118732355Y-76837245D01*
X118780997Y-76817477D01*
X118833919Y-76803885D01*
X118888206Y-76796790D01*
X118940942Y-76796513D01*
X118989209Y-76803373D01*
X119004105Y-76807395D01*
X119057653Y-76829660D01*
X119105284Y-76861176D01*
X119146315Y-76901190D01*
X119180061Y-76948950D01*
X119205837Y-77003703D01*
X119217936Y-77042463D01*
X119228284Y-77103644D01*
X119457964Y-77103644D01*
X119452556Y-77100292D01*
X119418033Y-77071182D01*
X119392912Y-77035843D01*
X119377221Y-76994337D01*
X119370990Y-76946728D01*
X119371285Y-76923216D01*
X119378529Y-76875554D01*
X119394909Y-76834522D01*
X119420422Y-76800126D01*
X119455063Y-76772369D01*
X119480198Y-76758917D01*
X119497595Y-76751756D01*
X119515801Y-76746200D01*
X119536165Y-76742188D01*
X119560030Y-76739656D01*
X119588745Y-76738543D01*
X119623654Y-76738787D01*
X119666104Y-76740326D01*
X119717441Y-76743097D01*
X119762106Y-76745915D01*
X119804499Y-76748741D01*
X119843068Y-76751387D01*
X119876424Y-76753753D01*
X119903178Y-76755737D01*
X119921943Y-76757238D01*
X119931329Y-76758154D01*
X119932144Y-76758321D01*
X120643204Y-76758321D01*
X120514889Y-76707134D01*
X120343410Y-76650534D01*
X120168210Y-76604335D01*
X119989723Y-76568789D01*
X119968298Y-76565282D01*
X119788339Y-76542193D01*
X119607051Y-76530168D01*
X119425164Y-76529171D01*
X119243407Y-76539167D01*
X119243407Y-76539167D01*
G37*
X119243407Y-76539167D02*
X119062512Y-76560120D01*
X118883208Y-76591996D01*
X118743644Y-76624752D01*
X118583058Y-76671900D01*
X118423035Y-76729335D01*
X118265060Y-76796318D01*
X118110617Y-76872112D01*
X117961192Y-76955980D01*
X117818268Y-77047185D01*
X117683331Y-77144990D01*
X117661457Y-77162090D01*
X117526456Y-77275406D01*
X117397614Y-77396846D01*
X117276046Y-77525221D01*
X117162864Y-77659340D01*
X117059182Y-77798012D01*
X117038301Y-77828215D01*
X116940346Y-77981790D01*
X116852576Y-78139818D01*
X116775023Y-78301822D01*
X116707718Y-78467324D01*
X116650694Y-78635846D01*
X116603982Y-78806910D01*
X116567615Y-78980039D01*
X116541626Y-79154754D01*
X116526045Y-79330577D01*
X116520905Y-79507032D01*
X116526238Y-79683640D01*
X116542077Y-79859923D01*
X116568453Y-80035404D01*
X116605398Y-80209604D01*
X116652945Y-80382046D01*
X116711125Y-80552252D01*
X116779971Y-80719744D01*
X116836218Y-80838500D01*
X116922412Y-80998129D01*
X117017899Y-81151652D01*
X117122266Y-81298704D01*
X117235100Y-81438918D01*
X117355990Y-81571927D01*
X117484522Y-81697365D01*
X117620284Y-81814867D01*
X117762864Y-81924065D01*
X117911848Y-82024593D01*
X118066825Y-82116084D01*
X118227382Y-82198174D01*
X118393107Y-82270494D01*
X118490179Y-82307369D01*
X118661392Y-82363136D01*
X118835553Y-82408269D01*
X119013213Y-82442887D01*
X119194922Y-82467110D01*
X119244074Y-82471825D01*
X119286624Y-82474767D01*
X119337925Y-82476999D01*
X119395604Y-82478522D01*
X119457287Y-82479339D01*
X119520601Y-82479450D01*
X119583171Y-82478857D01*
X119642625Y-82477562D01*
X119696588Y-82475566D01*
X119742688Y-82472871D01*
X119759644Y-82471485D01*
X119942141Y-82449275D01*
X120121677Y-82416311D01*
X120297856Y-82372814D01*
X120470281Y-82319006D01*
X120584505Y-82275631D01*
X120033862Y-82275631D01*
X120033835Y-82275691D01*
X120027582Y-82277275D01*
X120012145Y-82279859D01*
X119989549Y-82283138D01*
X119961824Y-82286809D01*
X119947618Y-82288582D01*
X119864066Y-82298808D01*
X119850686Y-82281947D01*
X119824321Y-82248841D01*
X119796090Y-82213605D01*
X119766839Y-82177271D01*
X119737411Y-82140874D01*
X119708650Y-82105448D01*
X119681400Y-82072027D01*
X119656506Y-82041644D01*
X119634812Y-82015334D01*
X119617161Y-81994129D01*
X119604398Y-81979066D01*
X119597366Y-81971176D01*
X119596247Y-81970293D01*
X119596997Y-81976892D01*
X119598980Y-81993288D01*
X119602024Y-82018080D01*
X119605956Y-82049863D01*
X119610601Y-82087235D01*
X119615788Y-82128793D01*
X119618096Y-82147245D01*
X119623335Y-82190081D01*
X119627890Y-82229279D01*
X119631616Y-82263445D01*
X119634372Y-82291189D01*
X119636015Y-82311118D01*
X119636402Y-82321840D01*
X119636149Y-82323271D01*
X119629670Y-82325267D01*
X119614516Y-82328159D01*
X119593232Y-82331589D01*
X119568362Y-82335199D01*
X119542449Y-82338629D01*
X119518039Y-82341521D01*
X119497676Y-82343516D01*
X119487928Y-82344158D01*
X119477214Y-82342791D01*
X119471887Y-82335296D01*
X119469903Y-82326456D01*
X119467777Y-82312276D01*
X119464673Y-82289183D01*
X119460736Y-82258431D01*
X119456113Y-82221274D01*
X119450950Y-82178967D01*
X119445393Y-82132765D01*
X119439588Y-82083920D01*
X119433680Y-82033687D01*
X119427816Y-81983321D01*
X119423998Y-81950178D01*
X119278975Y-81950178D01*
X119278400Y-81971286D01*
X119273371Y-82025854D01*
X119262720Y-82073340D01*
X119245484Y-82116945D01*
X119222522Y-82157093D01*
X119186161Y-82203296D01*
X119143641Y-82240267D01*
X119095636Y-82267757D01*
X119042818Y-82285522D01*
X118985863Y-82293315D01*
X118925443Y-82290888D01*
X118879746Y-82282572D01*
X118822421Y-82264033D01*
X118771306Y-82237768D01*
X118727333Y-82204569D01*
X118691435Y-82165230D01*
X118664545Y-82120543D01*
X118652485Y-82089474D01*
X118646152Y-82060082D01*
X118642657Y-82024328D01*
X118642220Y-81986834D01*
X118645062Y-81952219D01*
X118645734Y-81947868D01*
X118646798Y-81939782D01*
X118647971Y-81934001D01*
X118650793Y-81930572D01*
X118656806Y-81929541D01*
X118667551Y-81930954D01*
X118684569Y-81934857D01*
X118709403Y-81941296D01*
X118743592Y-81950318D01*
X118745665Y-81950861D01*
X118812597Y-81968394D01*
X118809068Y-81994999D01*
X118808691Y-82034872D01*
X118818118Y-82070095D01*
X118836507Y-82099776D01*
X118863017Y-82123023D01*
X118896806Y-82138946D01*
X118937033Y-82146653D01*
X118952762Y-82147245D01*
X118990945Y-82142703D01*
X119023988Y-82128795D01*
X119052488Y-82105092D01*
X119077036Y-82071167D01*
X119088259Y-82049722D01*
X119103823Y-82007433D01*
X119111951Y-81963689D01*
X119112534Y-81921094D01*
X119105463Y-81882253D01*
X119096259Y-81859378D01*
X119080483Y-81837841D01*
X119057159Y-81816908D01*
X119029770Y-81799579D01*
X119023044Y-81796320D01*
X118995788Y-81787613D01*
X118964803Y-81783446D01*
X118934076Y-81783910D01*
X118907593Y-81789098D01*
X118897344Y-81793407D01*
X118883885Y-81803532D01*
X118868488Y-81819116D01*
X118854504Y-81836331D01*
X118845280Y-81851349D01*
X118844155Y-81854179D01*
X118838614Y-81854257D01*
X118824498Y-81852036D01*
X118804158Y-81848053D01*
X118779944Y-81842848D01*
X118754206Y-81836963D01*
X118729296Y-81830935D01*
X118707563Y-81825305D01*
X118691358Y-81820614D01*
X118683033Y-81817399D01*
X118682619Y-81817087D01*
X118684046Y-81811603D01*
X118689435Y-81798673D01*
X118697675Y-81780938D01*
X118698966Y-81778276D01*
X118726864Y-81733124D01*
X118762149Y-81696164D01*
X118804067Y-81667767D01*
X118851862Y-81648307D01*
X118904780Y-81638155D01*
X118962065Y-81637686D01*
X118980162Y-81639510D01*
X119044742Y-81652411D01*
X119102801Y-81673951D01*
X119153869Y-81703846D01*
X119197476Y-81741814D01*
X119233151Y-81787572D01*
X119237416Y-81794467D01*
X119257131Y-81831646D01*
X119270103Y-81867722D01*
X119277121Y-81906099D01*
X119278975Y-81950178D01*
X119423998Y-81950178D01*
X119422142Y-81934075D01*
X119416803Y-81887204D01*
X119411946Y-81843963D01*
X119407717Y-81805604D01*
X119404261Y-81773383D01*
X119401726Y-81748554D01*
X119400256Y-81732371D01*
X119399997Y-81726088D01*
X119400015Y-81726059D01*
X119406423Y-81724363D01*
X119421951Y-81721776D01*
X119444491Y-81718608D01*
X119471937Y-81715169D01*
X119482030Y-81713991D01*
X119561028Y-81704940D01*
X119536919Y-81681509D01*
X119519983Y-81660833D01*
X119505053Y-81635109D01*
X119494044Y-81608355D01*
X119488875Y-81584586D01*
X119488711Y-81580496D01*
X119489576Y-81573612D01*
X119493764Y-81569272D01*
X119503663Y-81566485D01*
X119521663Y-81564258D01*
X119529633Y-81563491D01*
X119551228Y-81561209D01*
X119569248Y-81558841D01*
X119579948Y-81556881D01*
X119580226Y-81556802D01*
X119588792Y-81558364D01*
X119596378Y-81569596D01*
X119597696Y-81572608D01*
X119608270Y-81591777D01*
X119621989Y-81602663D01*
X119641837Y-81607062D01*
X119655401Y-81607385D01*
X119686982Y-81603393D01*
X119709813Y-81592381D01*
X119724074Y-81574239D01*
X119728148Y-81562013D01*
X119730060Y-81554830D01*
X118680516Y-81554830D01*
X118533772Y-81812937D01*
X118499725Y-81872813D01*
X118470818Y-81923616D01*
X118446616Y-81966091D01*
X118426686Y-82000982D01*
X118410591Y-82029031D01*
X118397899Y-82050983D01*
X118388173Y-82067583D01*
X118380979Y-82079573D01*
X118375883Y-82087699D01*
X118372450Y-82092703D01*
X118370246Y-82095329D01*
X118368835Y-82096323D01*
X118368129Y-82096445D01*
X118362515Y-82093798D01*
X118348932Y-82086522D01*
X118329196Y-82075615D01*
X118305125Y-82062074D01*
X118295009Y-82056325D01*
X118267461Y-82040492D01*
X118248437Y-82029030D01*
X118236586Y-82020837D01*
X118230557Y-82014812D01*
X118228999Y-82009855D01*
X118230562Y-82004865D01*
X118230946Y-82004114D01*
X118235864Y-81995175D01*
X118245275Y-81978447D01*
X118258048Y-81955928D01*
X118273050Y-81929617D01*
X118281959Y-81914049D01*
X118326634Y-81836075D01*
X118314420Y-81799370D01*
X118306908Y-81779804D01*
X118300217Y-81767974D01*
X118295736Y-81765341D01*
X118289006Y-81768185D01*
X118273307Y-81774849D01*
X118250057Y-81784729D01*
X118220673Y-81797223D01*
X118186574Y-81811729D01*
X118149177Y-81827643D01*
X118148360Y-81827991D01*
X118110928Y-81843761D01*
X118076729Y-81857863D01*
X118047181Y-81869736D01*
X118023703Y-81878820D01*
X118007711Y-81884555D01*
X118000623Y-81886381D01*
X118000568Y-81886371D01*
X117993089Y-81883071D01*
X117978243Y-81875359D01*
X117957943Y-81864326D01*
X117934101Y-81851061D01*
X117908630Y-81836654D01*
X117883441Y-81822194D01*
X117860447Y-81808772D01*
X117841559Y-81797477D01*
X117828690Y-81789398D01*
X117823752Y-81785627D01*
X117823746Y-81785593D01*
X117828768Y-81782847D01*
X117843167Y-81776355D01*
X117865845Y-81766580D01*
X117895703Y-81753983D01*
X117931642Y-81739025D01*
X117972565Y-81722170D01*
X118017373Y-81703878D01*
X118036678Y-81696044D01*
X118082812Y-81677340D01*
X118125576Y-81659975D01*
X118163862Y-81644401D01*
X118196563Y-81631068D01*
X118222573Y-81620429D01*
X118240784Y-81612935D01*
X118250090Y-81609038D01*
X118251074Y-81608584D01*
X118249670Y-81603161D01*
X118245079Y-81588292D01*
X118237708Y-81565231D01*
X118227963Y-81535233D01*
X118216252Y-81499553D01*
X118202980Y-81459446D01*
X118193202Y-81430073D01*
X118179076Y-81387494D01*
X118166243Y-81348329D01*
X118155111Y-81313860D01*
X118146088Y-81285373D01*
X118139582Y-81264150D01*
X118136001Y-81251476D01*
X118135443Y-81248403D01*
X118140519Y-81249754D01*
X118153826Y-81256043D01*
X118173866Y-81266484D01*
X118199138Y-81280294D01*
X118228144Y-81296687D01*
X118232432Y-81299153D01*
X118327989Y-81354200D01*
X118375092Y-81503778D01*
X118387435Y-81542978D01*
X118398684Y-81578714D01*
X118408388Y-81609552D01*
X118416098Y-81634062D01*
X118421362Y-81650813D01*
X118423730Y-81658371D01*
X118423790Y-81658567D01*
X118426896Y-81655548D01*
X118434605Y-81644057D01*
X118446054Y-81625499D01*
X118460378Y-81601278D01*
X118476713Y-81572799D01*
X118478483Y-81569667D01*
X118495257Y-81540393D01*
X118510396Y-81514832D01*
X118522962Y-81494498D01*
X118532016Y-81480909D01*
X118536620Y-81475580D01*
X118536752Y-81475556D01*
X118543278Y-81478224D01*
X118557652Y-81485552D01*
X118577965Y-81496522D01*
X118602306Y-81510118D01*
X118611220Y-81515193D01*
X118680516Y-81554830D01*
X119730060Y-81554830D01*
X119731796Y-81548313D01*
X119737038Y-81541004D01*
X119747274Y-81537400D01*
X119762014Y-81535298D01*
X119784813Y-81532399D01*
X119807777Y-81529359D01*
X119814678Y-81528413D01*
X119838666Y-81525074D01*
X119838666Y-81555862D01*
X119835569Y-81590752D01*
X119827003Y-81623303D01*
X119814060Y-81649677D01*
X119810680Y-81654338D01*
X119804046Y-81665039D01*
X119803394Y-81671464D01*
X119804143Y-81671952D01*
X119811640Y-81672016D01*
X119828056Y-81670826D01*
X119851115Y-81668584D01*
X119878543Y-81665493D01*
X119884280Y-81664800D01*
X119911840Y-81661562D01*
X119935027Y-81659087D01*
X119951722Y-81657580D01*
X119959809Y-81657250D01*
X119960226Y-81657358D01*
X119961384Y-81663301D01*
X119963673Y-81679194D01*
X119966947Y-81703798D01*
X119971058Y-81735874D01*
X119975858Y-81774183D01*
X119981199Y-81817486D01*
X119986935Y-81864544D01*
X119992917Y-81914118D01*
X119998999Y-81964968D01*
X120005033Y-82015856D01*
X120010870Y-82065543D01*
X120016365Y-82112789D01*
X120021368Y-82156356D01*
X120025734Y-82195004D01*
X120029313Y-82227495D01*
X120031959Y-82252589D01*
X120033525Y-82269048D01*
X120033862Y-82275631D01*
X120584505Y-82275631D01*
X120638557Y-82255106D01*
X120802285Y-82181336D01*
X120961071Y-82097915D01*
X121114516Y-82005066D01*
X121262226Y-81903009D01*
X121335720Y-81845364D01*
X120790657Y-81845364D01*
X120782664Y-81900407D01*
X120764812Y-81952094D01*
X120737456Y-81999687D01*
X120700953Y-82042449D01*
X120655658Y-82079644D01*
X120601926Y-82110534D01*
X120540113Y-82134383D01*
X120524466Y-82138882D01*
X120492961Y-82144513D01*
X120455299Y-82146889D01*
X120415848Y-82146084D01*
X120378973Y-82142169D01*
X120351494Y-82136014D01*
X120296789Y-82113214D01*
X120248475Y-82081265D01*
X120206968Y-82040593D01*
X120172682Y-81991627D01*
X120146032Y-81934794D01*
X120140232Y-81918253D01*
X120132507Y-81893160D01*
X120127667Y-81872220D01*
X120125110Y-81851180D01*
X120124232Y-81825791D01*
X120124268Y-81805756D01*
X120125159Y-81772959D01*
X120127466Y-81747892D01*
X120131662Y-81727032D01*
X120137131Y-81709800D01*
X120161744Y-81658156D01*
X120195546Y-81611838D01*
X120237384Y-81571645D01*
X120286106Y-81538374D01*
X120340558Y-81512826D01*
X120399588Y-81495798D01*
X120456733Y-81488356D01*
X120513484Y-81489385D01*
X120564782Y-81499674D01*
X120612062Y-81519776D01*
X120656756Y-81550242D01*
X120685945Y-81576705D01*
X120710181Y-81602313D01*
X120728327Y-81625558D01*
X120743459Y-81650670D01*
X120751927Y-81667467D01*
X120775645Y-81728157D01*
X120788436Y-81787702D01*
X120790657Y-81845364D01*
X121335720Y-81845364D01*
X121403803Y-81791964D01*
X121538850Y-81672152D01*
X121666972Y-81543795D01*
X121716656Y-81487578D01*
X121516282Y-81487578D01*
X121512569Y-81491968D01*
X121501363Y-81502567D01*
X121483849Y-81518364D01*
X121461212Y-81538347D01*
X121434635Y-81561504D01*
X121405302Y-81586824D01*
X121374400Y-81613294D01*
X121343111Y-81639903D01*
X121312621Y-81665640D01*
X121284113Y-81689492D01*
X121258772Y-81710448D01*
X121237783Y-81727496D01*
X121222330Y-81739624D01*
X121215001Y-81744939D01*
X121177305Y-81764101D01*
X121134708Y-81776111D01*
X121090587Y-81780493D01*
X121048316Y-81776774D01*
X121027627Y-81771290D01*
X121001345Y-81758060D01*
X120974138Y-81737193D01*
X120949125Y-81711592D01*
X120929423Y-81684161D01*
X120924753Y-81675480D01*
X120916952Y-81658097D01*
X120912728Y-81643207D01*
X120911348Y-81626394D01*
X120912075Y-81603242D01*
X120912242Y-81600299D01*
X120914810Y-81555939D01*
X120884608Y-81549180D01*
X120850869Y-81536198D01*
X120820184Y-81514247D01*
X120794619Y-81485602D01*
X120776242Y-81452538D01*
X120767458Y-81420165D01*
X120767909Y-81382674D01*
X120778328Y-81342853D01*
X120798089Y-81302274D01*
X120826565Y-81262509D01*
X120833429Y-81254592D01*
X120842620Y-81245483D01*
X120859121Y-81230321D01*
X120881583Y-81210299D01*
X120908656Y-81186606D01*
X120938992Y-81160434D01*
X120970378Y-81133704D01*
X121002097Y-81106846D01*
X121031489Y-81081923D01*
X121057301Y-81060003D01*
X121078280Y-81042148D01*
X121093173Y-81029425D01*
X121100728Y-81022898D01*
X121100810Y-81022826D01*
X121103479Y-81020657D01*
X121106325Y-81019521D01*
X121109954Y-81020057D01*
X121114969Y-81022906D01*
X121121975Y-81028706D01*
X121131575Y-81038098D01*
X121144375Y-81051720D01*
X121160978Y-81070212D01*
X121181988Y-81094214D01*
X121208010Y-81124365D01*
X121239648Y-81161305D01*
X121277506Y-81205673D01*
X121313692Y-81248136D01*
X121351365Y-81292381D01*
X121386796Y-81334050D01*
X121419316Y-81372353D01*
X121448254Y-81406496D01*
X121472943Y-81435691D01*
X121492712Y-81459144D01*
X121506891Y-81476066D01*
X121514812Y-81485665D01*
X121516282Y-81487578D01*
X121716656Y-81487578D01*
X121787772Y-81407112D01*
X121879312Y-81291336D01*
X121984760Y-81141777D01*
X122080280Y-80986908D01*
X122165786Y-80826948D01*
X122241196Y-80662114D01*
X122303113Y-80501222D01*
X121943867Y-80501222D01*
X121940407Y-80543076D01*
X121935378Y-80561756D01*
X121921696Y-80589618D01*
X121900575Y-80617117D01*
X121874950Y-80641280D01*
X121847757Y-80659129D01*
X121833445Y-80665098D01*
X121800094Y-80671514D01*
X121763763Y-80671599D01*
X121729108Y-80665637D01*
X121706978Y-80657349D01*
X121670445Y-80633156D01*
X121642186Y-80602162D01*
X121622854Y-80565861D01*
X121613105Y-80525745D01*
X121613590Y-80483308D01*
X121619203Y-80456880D01*
X121633401Y-80425551D01*
X121656000Y-80395824D01*
X121684187Y-80370594D01*
X121715150Y-80352758D01*
X121723311Y-80349688D01*
X121764803Y-80341494D01*
X121806494Y-80343588D01*
X121846194Y-80355471D01*
X121881716Y-80376642D01*
X121895878Y-80389188D01*
X121921101Y-80422090D01*
X121937265Y-80460164D01*
X121943867Y-80501222D01*
X122303113Y-80501222D01*
X122306423Y-80492622D01*
X122361383Y-80318690D01*
X122405992Y-80140536D01*
X122440165Y-79958377D01*
X122461391Y-79796334D01*
X122465353Y-79749129D01*
X122468400Y-79693029D01*
X122470533Y-79630354D01*
X122471752Y-79563423D01*
X122472057Y-79494555D01*
X122471449Y-79426072D01*
X122470815Y-79398625D01*
X122276983Y-79398625D01*
X122272549Y-79459303D01*
X122259354Y-79514359D01*
X122237849Y-79563136D01*
X122208486Y-79604978D01*
X122171718Y-79639226D01*
X122127998Y-79665223D01*
X122082622Y-79681139D01*
X122066914Y-79684569D01*
X122056445Y-79685872D01*
X122054300Y-79685515D01*
X122053276Y-79679394D01*
X122051947Y-79664048D01*
X122050458Y-79641532D01*
X122048954Y-79613900D01*
X122048365Y-79601535D01*
X122044631Y-79519756D01*
X122072750Y-79507691D01*
X122099132Y-79490818D01*
X122118301Y-79467161D01*
X122130395Y-79438506D01*
X122135550Y-79406637D01*
X122133905Y-79373338D01*
X122125595Y-79340394D01*
X122110759Y-79309590D01*
X122089535Y-79282711D01*
X122062058Y-79261540D01*
X122053458Y-79256973D01*
X122038430Y-79250431D01*
X122028004Y-79247255D01*
X122025410Y-79247419D01*
X122024841Y-79253673D01*
X122024970Y-79269287D01*
X122025739Y-79292358D01*
X122027087Y-79320983D01*
X122028473Y-79345432D01*
X122030444Y-79379833D01*
X122032134Y-79412832D01*
X122033415Y-79441690D01*
X122034161Y-79463665D01*
X122034301Y-79472402D01*
X122034355Y-79504070D01*
X121968033Y-79507068D01*
X121941985Y-79508111D01*
X121920437Y-79508720D01*
X121905668Y-79508848D01*
X121899969Y-79508465D01*
X121899205Y-79502616D01*
X121898025Y-79487113D01*
X121896529Y-79463578D01*
X121894819Y-79433634D01*
X121892993Y-79398904D01*
X121892088Y-79380666D01*
X121890166Y-79344010D01*
X121888183Y-79311186D01*
X121886258Y-79283856D01*
X121884516Y-79263684D01*
X121883078Y-79252333D01*
X121882534Y-79250509D01*
X121875343Y-79249973D01*
X121861845Y-79254530D01*
X121844969Y-79262781D01*
X121827646Y-79273331D01*
X121815386Y-79282526D01*
X121791904Y-79309661D01*
X121776773Y-79344290D01*
X121770342Y-79382079D01*
X121771777Y-79423905D01*
X121782223Y-79459567D01*
X121801258Y-79488472D01*
X121828462Y-79510028D01*
X121863414Y-79523642D01*
X121872081Y-79525509D01*
X121880397Y-79527344D01*
X121886611Y-79530321D01*
X121891129Y-79535992D01*
X121894358Y-79545909D01*
X121896705Y-79561626D01*
X121898577Y-79584695D01*
X121900379Y-79616670D01*
X121901438Y-79637606D01*
X121904515Y-79699012D01*
X121869693Y-79695072D01*
X121845133Y-79690999D01*
X121820088Y-79684851D01*
X121807437Y-79680708D01*
X121758281Y-79656243D01*
X121716087Y-79623071D01*
X121681277Y-79581684D01*
X121654271Y-79532577D01*
X121652300Y-79526782D01*
X121449918Y-79526782D01*
X121449348Y-79581859D01*
X121447855Y-79632764D01*
X121445421Y-79676975D01*
X121442760Y-79706022D01*
X121420703Y-79854406D01*
X121389637Y-79996409D01*
X121349285Y-80132801D01*
X121299375Y-80264353D01*
X121239632Y-80391832D01*
X121169781Y-80516010D01*
X121134043Y-80572445D01*
X121047853Y-80694160D01*
X120954409Y-80807412D01*
X120853373Y-80912524D01*
X120744404Y-81009817D01*
X120627161Y-81099616D01*
X120501304Y-81182242D01*
X120474506Y-81198267D01*
X120358592Y-81260518D01*
X120235490Y-81315385D01*
X120107023Y-81362286D01*
X119975014Y-81400638D01*
X119841285Y-81429858D01*
X119707659Y-81449364D01*
X119680622Y-81452093D01*
X119647471Y-81454398D01*
X119605805Y-81456097D01*
X119558372Y-81457185D01*
X119507919Y-81457656D01*
X119457195Y-81457506D01*
X119408946Y-81456729D01*
X119365920Y-81455319D01*
X119330864Y-81453271D01*
X119325022Y-81452782D01*
X119179008Y-81434155D01*
X119035906Y-81404815D01*
X118896210Y-81365079D01*
X118760414Y-81315260D01*
X118629013Y-81255674D01*
X118502501Y-81186636D01*
X118381372Y-81108461D01*
X118373473Y-81102498D01*
X118015810Y-81102498D01*
X117892095Y-81394860D01*
X117868871Y-81449751D01*
X117846739Y-81502072D01*
X117826134Y-81550799D01*
X117807487Y-81594909D01*
X117791232Y-81633375D01*
X117777801Y-81665174D01*
X117767629Y-81689282D01*
X117761146Y-81704674D01*
X117759135Y-81709477D01*
X117753090Y-81723085D01*
X117748755Y-81727677D01*
X117743638Y-81724718D01*
X117739919Y-81720766D01*
X117732337Y-81712661D01*
X117718745Y-81698351D01*
X117700972Y-81679756D01*
X117680848Y-81658793D01*
X117677813Y-81655639D01*
X117625676Y-81601479D01*
X117656905Y-81531904D01*
X117668422Y-81505720D01*
X117678023Y-81482890D01*
X117684842Y-81465551D01*
X117688012Y-81455842D01*
X117688133Y-81454917D01*
X117684351Y-81448684D01*
X117673843Y-81435887D01*
X117657868Y-81417943D01*
X117637685Y-81396269D01*
X117616166Y-81373929D01*
X117544200Y-81300353D01*
X117469552Y-81331142D01*
X117394905Y-81361931D01*
X117332279Y-81295977D01*
X117269653Y-81230022D01*
X117287905Y-81222574D01*
X117300405Y-81217640D01*
X117321532Y-81209494D01*
X117350152Y-81198563D01*
X117385131Y-81185273D01*
X117425332Y-81170050D01*
X117469621Y-81153320D01*
X117516864Y-81135510D01*
X117565925Y-81117044D01*
X117615670Y-81098351D01*
X117664964Y-81079855D01*
X117712672Y-81061983D01*
X117757659Y-81045162D01*
X117798790Y-81029817D01*
X117834931Y-81016374D01*
X117864946Y-81005260D01*
X117887701Y-80996900D01*
X117902061Y-80991722D01*
X117906874Y-80990134D01*
X117912189Y-80994053D01*
X117923567Y-81004796D01*
X117939469Y-81020841D01*
X117958357Y-81040663D01*
X117963630Y-81046316D01*
X118015810Y-81102498D01*
X118373473Y-81102498D01*
X118266120Y-81021463D01*
X118157241Y-80925959D01*
X118055228Y-80822261D01*
X117960576Y-80710687D01*
X117873778Y-80591550D01*
X117830425Y-80522618D01*
X117409501Y-80522618D01*
X117400266Y-80560289D01*
X117382665Y-80595832D01*
X117357927Y-80626576D01*
X117336119Y-80644418D01*
X117297999Y-80664372D01*
X117259132Y-80673323D01*
X117218194Y-80671468D01*
X117193306Y-80665615D01*
X117155640Y-80648830D01*
X117124092Y-80623529D01*
X117099900Y-80591375D01*
X117084303Y-80554030D01*
X117078542Y-80513159D01*
X117078533Y-80511520D01*
X117080702Y-80475672D01*
X117088053Y-80446364D01*
X117101857Y-80419549D01*
X117111720Y-80405620D01*
X117140641Y-80376373D01*
X117175000Y-80355781D01*
X117212857Y-80344042D01*
X117252275Y-80341354D01*
X117291315Y-80347917D01*
X117328038Y-80363930D01*
X117351523Y-80381039D01*
X117375718Y-80408291D01*
X117395215Y-80441732D01*
X117407465Y-80476740D01*
X117409142Y-80485493D01*
X117409501Y-80522618D01*
X117830425Y-80522618D01*
X117807211Y-80485709D01*
X117738983Y-80358264D01*
X117680787Y-80226176D01*
X117632723Y-80090163D01*
X117594888Y-79950942D01*
X117567381Y-79809230D01*
X117550298Y-79665743D01*
X117543739Y-79521200D01*
X117547800Y-79376318D01*
X117560552Y-79251645D01*
X117355111Y-79251645D01*
X117355111Y-79770934D01*
X117208355Y-79770934D01*
X117208355Y-79420978D01*
X117101111Y-79420978D01*
X117101111Y-79578689D01*
X117100965Y-79619675D01*
X117100555Y-79656819D01*
X117099917Y-79688673D01*
X117099092Y-79713785D01*
X117098116Y-79730705D01*
X117097030Y-79737981D01*
X117096878Y-79738145D01*
X117089869Y-79738688D01*
X117073972Y-79738862D01*
X117051581Y-79738667D01*
X117026322Y-79738136D01*
X116960000Y-79736383D01*
X116960000Y-79420978D01*
X116869854Y-79420978D01*
X116868360Y-79591722D01*
X116866866Y-79762467D01*
X116728578Y-79765637D01*
X116728578Y-79251645D01*
X117355111Y-79251645D01*
X117560552Y-79251645D01*
X117562581Y-79231813D01*
X117588179Y-79088402D01*
X117606112Y-79013287D01*
X117615988Y-78980455D01*
X117409904Y-78980455D01*
X117409146Y-78983873D01*
X117405793Y-78994378D01*
X117399614Y-79012649D01*
X117390374Y-79039367D01*
X117377840Y-79075211D01*
X117361778Y-79120859D01*
X117357955Y-79131700D01*
X117353805Y-79138230D01*
X117352499Y-79138756D01*
X117346766Y-79136943D01*
X117331357Y-79131730D01*
X117307248Y-79123456D01*
X117275415Y-79112459D01*
X117236832Y-79099076D01*
X117192478Y-79083646D01*
X117143326Y-79066508D01*
X117090353Y-79048000D01*
X117057400Y-79036468D01*
X117002675Y-79017297D01*
X116951246Y-78999263D01*
X116904082Y-78982706D01*
X116862151Y-78967967D01*
X116826422Y-78955387D01*
X116797862Y-78945307D01*
X116777441Y-78938068D01*
X116766127Y-78934010D01*
X116764113Y-78933244D01*
X116765363Y-78927880D01*
X116769678Y-78914223D01*
X116776248Y-78894585D01*
X116784262Y-78871277D01*
X116792912Y-78846610D01*
X116801386Y-78822895D01*
X116808875Y-78802443D01*
X116814569Y-78787565D01*
X116817591Y-78780675D01*
X116822193Y-78780357D01*
X116834185Y-78782921D01*
X116854000Y-78788507D01*
X116882068Y-78797255D01*
X116918821Y-78809304D01*
X116964691Y-78824793D01*
X117020108Y-78843864D01*
X117085506Y-78866655D01*
X117115222Y-78877079D01*
X117170066Y-78896345D01*
X117221618Y-78914449D01*
X117268913Y-78931053D01*
X117310985Y-78945818D01*
X117346870Y-78958405D01*
X117375601Y-78968476D01*
X117396213Y-78975692D01*
X117407742Y-78979714D01*
X117409904Y-78980455D01*
X117615988Y-78980455D01*
X117648351Y-78872877D01*
X117700564Y-78737227D01*
X117762306Y-78606749D01*
X117833134Y-78481854D01*
X117847568Y-78460258D01*
X117587602Y-78460258D01*
X117586943Y-78466525D01*
X117582856Y-78481795D01*
X117575891Y-78504507D01*
X117566597Y-78533098D01*
X117555522Y-78566006D01*
X117543217Y-78601670D01*
X117530231Y-78638526D01*
X117517112Y-78675014D01*
X117504409Y-78709572D01*
X117492672Y-78740636D01*
X117482450Y-78766646D01*
X117474292Y-78786038D01*
X117469742Y-78795515D01*
X117450113Y-78825286D01*
X117425258Y-78853619D01*
X117398375Y-78877215D01*
X117377677Y-78890406D01*
X117341277Y-78904296D01*
X117302634Y-78909386D01*
X117259824Y-78905777D01*
X117227411Y-78898425D01*
X117191036Y-78883609D01*
X117156473Y-78860774D01*
X117128115Y-78832894D01*
X117125336Y-78829347D01*
X117105969Y-78797234D01*
X117094213Y-78761372D01*
X117090057Y-78720825D01*
X117093491Y-78674657D01*
X117104501Y-78621930D01*
X117122066Y-78564629D01*
X117149704Y-78484392D01*
X117084485Y-78461434D01*
X117054977Y-78451042D01*
X117025415Y-78440625D01*
X116999602Y-78431522D01*
X116983989Y-78426011D01*
X116966086Y-78418862D01*
X116953390Y-78412221D01*
X116948711Y-78407637D01*
X116950460Y-78400896D01*
X116955161Y-78386021D01*
X116961991Y-78365393D01*
X116970130Y-78341393D01*
X116978756Y-78316404D01*
X116987047Y-78292806D01*
X116994181Y-78272982D01*
X116999338Y-78259314D01*
X117001625Y-78254227D01*
X117007104Y-78255695D01*
X117022040Y-78260543D01*
X117045257Y-78268355D01*
X117075579Y-78278720D01*
X117111830Y-78291222D01*
X117152834Y-78305450D01*
X117197414Y-78320989D01*
X117244396Y-78337426D01*
X117292603Y-78354348D01*
X117340859Y-78371340D01*
X117387988Y-78387990D01*
X117432814Y-78403884D01*
X117474161Y-78418609D01*
X117510854Y-78431750D01*
X117541715Y-78442896D01*
X117565570Y-78451631D01*
X117581242Y-78457543D01*
X117587555Y-78460218D01*
X117587602Y-78460258D01*
X117847568Y-78460258D01*
X117912604Y-78362955D01*
X118000270Y-78250462D01*
X118095688Y-78144789D01*
X118198415Y-78046348D01*
X118308006Y-77955549D01*
X118342412Y-77931009D01*
X118014302Y-77931009D01*
X118009814Y-77937793D01*
X117999772Y-77950756D01*
X117985785Y-77968000D01*
X117969464Y-77987623D01*
X117952416Y-78007727D01*
X117936252Y-78026411D01*
X117922579Y-78041776D01*
X117913008Y-78051921D01*
X117909271Y-78055022D01*
X117903132Y-78051671D01*
X117890687Y-78042750D01*
X117874266Y-78029959D01*
X117868443Y-78025237D01*
X117849574Y-78009788D01*
X117825139Y-77989780D01*
X117798302Y-77967806D01*
X117772386Y-77946586D01*
X117712705Y-77897719D01*
X117643801Y-77982006D01*
X117622231Y-78008598D01*
X117603169Y-78032487D01*
X117587768Y-78052198D01*
X117577180Y-78066257D01*
X117572555Y-78073187D01*
X117572487Y-78073358D01*
X117575953Y-78078914D01*
X117587071Y-78090324D01*
X117604615Y-78106470D01*
X117627361Y-78126233D01*
X117654083Y-78148496D01*
X117660599Y-78153800D01*
X117688185Y-78176265D01*
X117712942Y-78196623D01*
X117733463Y-78213699D01*
X117748338Y-78226320D01*
X117756160Y-78233312D01*
X117756822Y-78234011D01*
X117756931Y-78239911D01*
X117751158Y-78251301D01*
X117738962Y-78269026D01*
X117719799Y-78293933D01*
X117712629Y-78302910D01*
X117694222Y-78325155D01*
X117677877Y-78343699D01*
X117665047Y-78356983D01*
X117657184Y-78363445D01*
X117655891Y-78363810D01*
X117650343Y-78360114D01*
X117636890Y-78349915D01*
X117616354Y-78333870D01*
X117589558Y-78312633D01*
X117557324Y-78286863D01*
X117520475Y-78257215D01*
X117479833Y-78224347D01*
X117436222Y-78188913D01*
X117411489Y-78168750D01*
X117366831Y-78132198D01*
X117324970Y-78097738D01*
X117286696Y-78066033D01*
X117252800Y-78037747D01*
X117224072Y-78013545D01*
X117201300Y-77994089D01*
X117185275Y-77980045D01*
X117176787Y-77972075D01*
X117175620Y-77970513D01*
X117180331Y-77963105D01*
X117190494Y-77949601D01*
X117204502Y-77931935D01*
X117220743Y-77912040D01*
X117237608Y-77891848D01*
X117253488Y-77873293D01*
X117266774Y-77858307D01*
X117275854Y-77848823D01*
X117278913Y-77846484D01*
X117284848Y-77849809D01*
X117298025Y-77859251D01*
X117317002Y-77873711D01*
X117340339Y-77892088D01*
X117366596Y-77913285D01*
X117368719Y-77915020D01*
X117452880Y-77983863D01*
X117472153Y-77961587D01*
X117482676Y-77949136D01*
X117498416Y-77930149D01*
X117517515Y-77906884D01*
X117538113Y-77881600D01*
X117545539Y-77872437D01*
X117599652Y-77805563D01*
X117583215Y-77792485D01*
X117550545Y-77766210D01*
X117519569Y-77740771D01*
X117491465Y-77717184D01*
X117467411Y-77696466D01*
X117448586Y-77679633D01*
X117436167Y-77667700D01*
X117431335Y-77661684D01*
X117431311Y-77661503D01*
X117434725Y-77654274D01*
X117443897Y-77640874D01*
X117457219Y-77623247D01*
X117473085Y-77603336D01*
X117489888Y-77583084D01*
X117506022Y-77564436D01*
X117519879Y-77549335D01*
X117529853Y-77539724D01*
X117533989Y-77537300D01*
X117539796Y-77541053D01*
X117553204Y-77551156D01*
X117573249Y-77566817D01*
X117598967Y-77587246D01*
X117629392Y-77611653D01*
X117663559Y-77639246D01*
X117700504Y-77669234D01*
X117739262Y-77700827D01*
X117778869Y-77733233D01*
X117818358Y-77765662D01*
X117856766Y-77797324D01*
X117893128Y-77827426D01*
X117926479Y-77855179D01*
X117955854Y-77879791D01*
X117980288Y-77900472D01*
X117998816Y-77916431D01*
X118010475Y-77926876D01*
X118014302Y-77931009D01*
X118342412Y-77931009D01*
X118424017Y-77872806D01*
X118546004Y-77798530D01*
X118673522Y-77733133D01*
X118806127Y-77677028D01*
X118943374Y-77630625D01*
X119084821Y-77594337D01*
X119150350Y-77581304D01*
X119262765Y-77565005D01*
X119381278Y-77555354D01*
X119502862Y-77552351D01*
X119624491Y-77555996D01*
X119743138Y-77566291D01*
X119844311Y-77581142D01*
X119986676Y-77612260D01*
X120125966Y-77654035D01*
X120261580Y-77706107D01*
X120392919Y-77768119D01*
X120519383Y-77839714D01*
X120640374Y-77920533D01*
X120755291Y-78010218D01*
X120863535Y-78108412D01*
X120964506Y-78214757D01*
X121023609Y-78285148D01*
X121112443Y-78405026D01*
X121191242Y-78530049D01*
X121259952Y-78660086D01*
X121318514Y-78795000D01*
X121366874Y-78934659D01*
X121404975Y-79078928D01*
X121432762Y-79227675D01*
X121439573Y-79277045D01*
X121443339Y-79315169D01*
X121446275Y-79361726D01*
X121448362Y-79414194D01*
X121449583Y-79470053D01*
X121449918Y-79526782D01*
X121652300Y-79526782D01*
X121636544Y-79480470D01*
X121631506Y-79451533D01*
X121628721Y-79415697D01*
X121628190Y-79376968D01*
X121629909Y-79339354D01*
X121633880Y-79306863D01*
X121636598Y-79294212D01*
X121655984Y-79241532D01*
X121684820Y-79193740D01*
X121721883Y-79152054D01*
X121765946Y-79117690D01*
X121815786Y-79091865D01*
X121852444Y-79079778D01*
X121916743Y-79068431D01*
X121979885Y-79067621D01*
X122023314Y-79073502D01*
X122074574Y-79087306D01*
X122118587Y-79107272D01*
X122158450Y-79135038D01*
X122184002Y-79158443D01*
X122220509Y-79201126D01*
X122247508Y-79247204D01*
X122265519Y-79298021D01*
X122275062Y-79354922D01*
X122276983Y-79398625D01*
X122470815Y-79398625D01*
X122469928Y-79360291D01*
X122467493Y-79299533D01*
X122464147Y-79246119D01*
X122461327Y-79214956D01*
X122436136Y-79028284D01*
X122400594Y-78846067D01*
X122367699Y-78718626D01*
X122157211Y-78718626D01*
X122151527Y-78721367D01*
X122136642Y-78727893D01*
X122113791Y-78737683D01*
X122084206Y-78750213D01*
X122049121Y-78764960D01*
X122009771Y-78781400D01*
X121980116Y-78793732D01*
X121937348Y-78811550D01*
X121896969Y-78828498D01*
X121860413Y-78843964D01*
X121829113Y-78857338D01*
X121804502Y-78868009D01*
X121788013Y-78875366D01*
X121782520Y-78877982D01*
X121759022Y-78891984D01*
X121737979Y-78908068D01*
X121722576Y-78923646D01*
X121718010Y-78930391D01*
X121716310Y-78944107D01*
X121721374Y-78962555D01*
X121731940Y-78982526D01*
X121744966Y-78998997D01*
X121753492Y-79009852D01*
X121756186Y-79017514D01*
X121755681Y-79018556D01*
X121748829Y-79022260D01*
X121734097Y-79028678D01*
X121714244Y-79036747D01*
X121692027Y-79045402D01*
X121670204Y-79053580D01*
X121651535Y-79060218D01*
X121638776Y-79064253D01*
X121635298Y-79064976D01*
X121627906Y-79061098D01*
X121617684Y-79050924D01*
X121614356Y-79046795D01*
X121589710Y-79006764D01*
X121574297Y-78964370D01*
X121568382Y-78921414D01*
X121572231Y-78879696D01*
X121584500Y-78844210D01*
X121604681Y-78812862D01*
X121633502Y-78781834D01*
X121668494Y-78753446D01*
X121704564Y-78731370D01*
X121721992Y-78722828D01*
X121747523Y-78711026D01*
X121778827Y-78697005D01*
X121813570Y-78681810D01*
X121849421Y-78666482D01*
X121853733Y-78664664D01*
X121886462Y-78650841D01*
X121915498Y-78638491D01*
X121939289Y-78628283D01*
X121956285Y-78620881D01*
X121964935Y-78616954D01*
X121965695Y-78616532D01*
X121964609Y-78610937D01*
X121960356Y-78597417D01*
X121953880Y-78578561D01*
X121946122Y-78556958D01*
X121938025Y-78535199D01*
X121930534Y-78515872D01*
X121924589Y-78501565D01*
X121921659Y-78495600D01*
X121917587Y-78494842D01*
X121907428Y-78496743D01*
X121890531Y-78501521D01*
X121866244Y-78509392D01*
X121833916Y-78520575D01*
X121792896Y-78535288D01*
X121742532Y-78553747D01*
X121696182Y-78570947D01*
X121648800Y-78588566D01*
X121604705Y-78604895D01*
X121565018Y-78619526D01*
X121530861Y-78632047D01*
X121503354Y-78642048D01*
X121483619Y-78649119D01*
X121472777Y-78652849D01*
X121471041Y-78653334D01*
X121467356Y-78648422D01*
X121461216Y-78635412D01*
X121453812Y-78616885D01*
X121452163Y-78612411D01*
X121442301Y-78585518D01*
X121431450Y-78556319D01*
X121423115Y-78534188D01*
X121408930Y-78496888D01*
X121692009Y-78391500D01*
X121746056Y-78371402D01*
X121797138Y-78352450D01*
X121844236Y-78335021D01*
X121886330Y-78319490D01*
X121922399Y-78306231D01*
X121951424Y-78295620D01*
X121972385Y-78288033D01*
X121984263Y-78283844D01*
X121986403Y-78283160D01*
X121989494Y-78283200D01*
X121992891Y-78285535D01*
X121996989Y-78291089D01*
X122002185Y-78300782D01*
X122008876Y-78315537D01*
X122017458Y-78336276D01*
X122028328Y-78363921D01*
X122041882Y-78399394D01*
X122058517Y-78443616D01*
X122078629Y-78497510D01*
X122078831Y-78498050D01*
X122096223Y-78544996D01*
X122112207Y-78588600D01*
X122126386Y-78627742D01*
X122138362Y-78661303D01*
X122147735Y-78688163D01*
X122154109Y-78707201D01*
X122157086Y-78717298D01*
X122157211Y-78718626D01*
X122367699Y-78718626D01*
X122354723Y-78668357D01*
X122298544Y-78495210D01*
X122232079Y-78326679D01*
X122155351Y-78162818D01*
X122078472Y-78022145D01*
X121843647Y-78022145D01*
X121838517Y-78026218D01*
X121825233Y-78036486D01*
X121804629Y-78052314D01*
X121777536Y-78073064D01*
X121744789Y-78098098D01*
X121707218Y-78126782D01*
X121665658Y-78158476D01*
X121620941Y-78192545D01*
X121594730Y-78212501D01*
X121349838Y-78398899D01*
X121340153Y-78386416D01*
X121334754Y-78379372D01*
X121323279Y-78364337D01*
X121306488Y-78342309D01*
X121285138Y-78314283D01*
X121259989Y-78281254D01*
X121231798Y-78244218D01*
X121201324Y-78204172D01*
X121182948Y-78180019D01*
X121035429Y-77986104D01*
X121090249Y-77944363D01*
X121111645Y-77928301D01*
X121129800Y-77915105D01*
X121142841Y-77906104D01*
X121148899Y-77902628D01*
X121148968Y-77902622D01*
X121153229Y-77906947D01*
X121163415Y-77919188D01*
X121178656Y-77938244D01*
X121198084Y-77963013D01*
X121220832Y-77992395D01*
X121246031Y-78025287D01*
X121255773Y-78038089D01*
X121281689Y-78072009D01*
X121305519Y-78102822D01*
X121326387Y-78129425D01*
X121343418Y-78150717D01*
X121355737Y-78165595D01*
X121362467Y-78172957D01*
X121363362Y-78173556D01*
X121369565Y-78170405D01*
X121381909Y-78162212D01*
X121397857Y-78150863D01*
X121414869Y-78138242D01*
X121430406Y-78126238D01*
X121441928Y-78116737D01*
X121446898Y-78111623D01*
X121446936Y-78111467D01*
X121443705Y-78106426D01*
X121434468Y-78093591D01*
X121420092Y-78074128D01*
X121401443Y-78049198D01*
X121379387Y-78019965D01*
X121354791Y-77987593D01*
X121350879Y-77982465D01*
X121322669Y-77945399D01*
X121300715Y-77916236D01*
X121284359Y-77893954D01*
X121272945Y-77877532D01*
X121265815Y-77865948D01*
X121262310Y-77858182D01*
X121261774Y-77853211D01*
X121263549Y-77850015D01*
X121264888Y-77848911D01*
X121273697Y-77842423D01*
X121288978Y-77831002D01*
X121308209Y-77816535D01*
X121320333Y-77807377D01*
X121342295Y-77791326D01*
X121357165Y-77781976D01*
X121366336Y-77778584D01*
X121371133Y-77780315D01*
X121375397Y-77785868D01*
X121385398Y-77798973D01*
X121400041Y-77818194D01*
X121418236Y-77842094D01*
X121438888Y-77869236D01*
X121460906Y-77898183D01*
X121483196Y-77927499D01*
X121504666Y-77955747D01*
X121524224Y-77981490D01*
X121540775Y-78003291D01*
X121553229Y-78019713D01*
X121557912Y-78025902D01*
X121562729Y-78023642D01*
X121574286Y-78015945D01*
X121590404Y-78004290D01*
X121596453Y-77999751D01*
X121633540Y-77971676D01*
X121531924Y-77838233D01*
X121506231Y-77804394D01*
X121482834Y-77773388D01*
X121462592Y-77746370D01*
X121446365Y-77724493D01*
X121435010Y-77708911D01*
X121429389Y-77700777D01*
X121428943Y-77699943D01*
X121432555Y-77694666D01*
X121443265Y-77684566D01*
X121458929Y-77671305D01*
X121477405Y-77656546D01*
X121496550Y-77641948D01*
X121514221Y-77629176D01*
X121528275Y-77619890D01*
X121536568Y-77615752D01*
X121537535Y-77615731D01*
X121542473Y-77620643D01*
X121553165Y-77633411D01*
X121568784Y-77652935D01*
X121588503Y-77678117D01*
X121611493Y-77707858D01*
X121636927Y-77741058D01*
X121663978Y-77776619D01*
X121691817Y-77813442D01*
X121719617Y-77850428D01*
X121746549Y-77886478D01*
X121771788Y-77920493D01*
X121794503Y-77951374D01*
X121813869Y-77978022D01*
X121829057Y-77999339D01*
X121839240Y-78014225D01*
X121843589Y-78021582D01*
X121843647Y-78022145D01*
X122078472Y-78022145D01*
X122068381Y-78003681D01*
X121971192Y-77849321D01*
X121863805Y-77699792D01*
X121819310Y-77642978D01*
X121700806Y-77504115D01*
X121624433Y-77424951D01*
X121336650Y-77424951D01*
X121333322Y-77430766D01*
X121324084Y-77444590D01*
X121309672Y-77465405D01*
X121290824Y-77492194D01*
X121268277Y-77523941D01*
X121242768Y-77559630D01*
X121215034Y-77598242D01*
X121185812Y-77638762D01*
X121155839Y-77680173D01*
X121125853Y-77721457D01*
X121096591Y-77761598D01*
X121068789Y-77799579D01*
X121043186Y-77834383D01*
X121020517Y-77864994D01*
X121001521Y-77890395D01*
X120986934Y-77909568D01*
X120977494Y-77921497D01*
X120973994Y-77925200D01*
X120968208Y-77922041D01*
X120955144Y-77913380D01*
X120936589Y-77900447D01*
X120914330Y-77884469D01*
X120908093Y-77879920D01*
X120885286Y-77862975D01*
X120866009Y-77848160D01*
X120851993Y-77836843D01*
X120844972Y-77830392D01*
X120844508Y-77829688D01*
X120847127Y-77823742D01*
X120855437Y-77810278D01*
X120868406Y-77790846D01*
X120885003Y-77766998D01*
X120902021Y-77743271D01*
X120961226Y-77661806D01*
X120952715Y-77624495D01*
X120946909Y-77603423D01*
X120941362Y-77591566D01*
X120937536Y-77589441D01*
X120922228Y-77594371D01*
X120899410Y-77601399D01*
X120870806Y-77610021D01*
X120838138Y-77619737D01*
X120803131Y-77630045D01*
X120767509Y-77640442D01*
X120732994Y-77650428D01*
X120701310Y-77659500D01*
X120674182Y-77667158D01*
X120653332Y-77672898D01*
X120640484Y-77676220D01*
X120637272Y-77676845D01*
X120630570Y-77673707D01*
X120616644Y-77665162D01*
X120597351Y-77652507D01*
X120574545Y-77637043D01*
X120550084Y-77620069D01*
X120525823Y-77602883D01*
X120503618Y-77586786D01*
X120485326Y-77573076D01*
X120472802Y-77563052D01*
X120468081Y-77558407D01*
X120472794Y-77556083D01*
X120487248Y-77551075D01*
X120508829Y-77544200D01*
X118575227Y-77544200D01*
X118571104Y-77548684D01*
X118559484Y-77557722D01*
X118542376Y-77569981D01*
X118521790Y-77584126D01*
X118499736Y-77598825D01*
X118478223Y-77612744D01*
X118459262Y-77624550D01*
X118444861Y-77632908D01*
X118437031Y-77636486D01*
X118436250Y-77636413D01*
X118432858Y-77631303D01*
X118424306Y-77618061D01*
X118411490Y-77598081D01*
X118395303Y-77572760D01*
X118376642Y-77543494D01*
X118368108Y-77530089D01*
X118348719Y-77499622D01*
X118331491Y-77472554D01*
X118317304Y-77450266D01*
X118307036Y-77434140D01*
X118301568Y-77425557D01*
X118300910Y-77424528D01*
X118296165Y-77427081D01*
X118283347Y-77434862D01*
X118263871Y-77446989D01*
X118239153Y-77462577D01*
X118210611Y-77480744D01*
X118202724Y-77485789D01*
X118170007Y-77506810D01*
X118145713Y-77522713D01*
X118128732Y-77534425D01*
X118117952Y-77542869D01*
X118112260Y-77548971D01*
X118110546Y-77553657D01*
X118111696Y-77557850D01*
X118113163Y-77560306D01*
X118145996Y-77610985D01*
X118172974Y-77653033D01*
X118194533Y-77687191D01*
X118211108Y-77714200D01*
X118223137Y-77734802D01*
X118231054Y-77749738D01*
X118235297Y-77759751D01*
X118236300Y-77765581D01*
X118235115Y-77767702D01*
X118227539Y-77772545D01*
X118212662Y-77782250D01*
X118192587Y-77795440D01*
X118169420Y-77810736D01*
X118167911Y-77811734D01*
X118144951Y-77826662D01*
X118125195Y-77839004D01*
X118110630Y-77847554D01*
X118103248Y-77851103D01*
X118103000Y-77851136D01*
X118098985Y-77846545D01*
X118089507Y-77833284D01*
X118075141Y-77812224D01*
X118056461Y-77784234D01*
X118034041Y-77750183D01*
X118008456Y-77710942D01*
X117980280Y-77667380D01*
X117950086Y-77620367D01*
X117933666Y-77594668D01*
X117902705Y-77545978D01*
X117873656Y-77500014D01*
X117847078Y-77457678D01*
X117823528Y-77419871D01*
X117803565Y-77387495D01*
X117787744Y-77361451D01*
X117776624Y-77342641D01*
X117770763Y-77331967D01*
X117769978Y-77329944D01*
X117774380Y-77325104D01*
X117786219Y-77315568D01*
X117803444Y-77302755D01*
X117824004Y-77288085D01*
X117845846Y-77272979D01*
X117866921Y-77258857D01*
X117885176Y-77247139D01*
X117898561Y-77239244D01*
X117904848Y-77236578D01*
X117908174Y-77241114D01*
X117916571Y-77253756D01*
X117929098Y-77273053D01*
X117944814Y-77297557D01*
X117962780Y-77325816D01*
X117965154Y-77329567D01*
X117983484Y-77358243D01*
X117999893Y-77383345D01*
X118013398Y-77403416D01*
X118023015Y-77416996D01*
X118027760Y-77422628D01*
X118027953Y-77422700D01*
X118033549Y-77419857D01*
X118046817Y-77412004D01*
X118065959Y-77400277D01*
X118089180Y-77385816D01*
X118114684Y-77369758D01*
X118140674Y-77353242D01*
X118165355Y-77337406D01*
X118186931Y-77323387D01*
X118203605Y-77312325D01*
X118213582Y-77305357D01*
X118215243Y-77304019D01*
X118213899Y-77298032D01*
X118207115Y-77284062D01*
X118195688Y-77263532D01*
X118180414Y-77237868D01*
X118162090Y-77208494D01*
X118159876Y-77205025D01*
X118141704Y-77176076D01*
X118126233Y-77150382D01*
X118114301Y-77129422D01*
X118106744Y-77114678D01*
X118104401Y-77107628D01*
X118104590Y-77107295D01*
X118138338Y-77085372D01*
X118169685Y-77065779D01*
X118197331Y-77049264D01*
X118219971Y-77036576D01*
X118236303Y-77028463D01*
X118245024Y-77025673D01*
X118246020Y-77026062D01*
X118249697Y-77031806D01*
X118258887Y-77046158D01*
X118273016Y-77068218D01*
X118291506Y-77097088D01*
X118313783Y-77131869D01*
X118339272Y-77171663D01*
X118367396Y-77215571D01*
X118397579Y-77262694D01*
X118412017Y-77285234D01*
X118442886Y-77333503D01*
X118471868Y-77378968D01*
X118498397Y-77420731D01*
X118521909Y-77457898D01*
X118541839Y-77489572D01*
X118557622Y-77514857D01*
X118568693Y-77532855D01*
X118574488Y-77542672D01*
X118575227Y-77544200D01*
X120508829Y-77544200D01*
X120510308Y-77543729D01*
X120540842Y-77534388D01*
X120577715Y-77523399D01*
X120619793Y-77511106D01*
X120665942Y-77497854D01*
X120683293Y-77492926D01*
X120730963Y-77479387D01*
X120775273Y-77466725D01*
X120815037Y-77455283D01*
X120849071Y-77445406D01*
X120876189Y-77437439D01*
X120895207Y-77431726D01*
X120904939Y-77428611D01*
X120905916Y-77428209D01*
X120905972Y-77422152D01*
X120903821Y-77406383D01*
X120899707Y-77382210D01*
X120893869Y-77350943D01*
X120886551Y-77313889D01*
X120877993Y-77272359D01*
X120871527Y-77241943D01*
X120862145Y-77198047D01*
X120853646Y-77157708D01*
X120846296Y-77122241D01*
X120840364Y-77092961D01*
X120836116Y-77071185D01*
X120833822Y-77058227D01*
X120833513Y-77055124D01*
X120838258Y-77056927D01*
X120850281Y-77064395D01*
X120867913Y-77076309D01*
X120889486Y-77091449D01*
X120913331Y-77108596D01*
X120937778Y-77126533D01*
X120961159Y-77144039D01*
X120981804Y-77159896D01*
X120998045Y-77172885D01*
X121008212Y-77181787D01*
X121010568Y-77184432D01*
X121013300Y-77192408D01*
X121017797Y-77209926D01*
X121023712Y-77235436D01*
X121030697Y-77267391D01*
X121038405Y-77304241D01*
X121046488Y-77344438D01*
X121046645Y-77345234D01*
X121054570Y-77384830D01*
X121061950Y-77420523D01*
X121068472Y-77450896D01*
X121073824Y-77474529D01*
X121077693Y-77490005D01*
X121079767Y-77495905D01*
X121079832Y-77495924D01*
X121084069Y-77491466D01*
X121093735Y-77479267D01*
X121107724Y-77460789D01*
X121124926Y-77437493D01*
X121142601Y-77413116D01*
X121161952Y-77386527D01*
X121179306Y-77363287D01*
X121193505Y-77344897D01*
X121203389Y-77332862D01*
X121207646Y-77328703D01*
X121214474Y-77331086D01*
X121227934Y-77339109D01*
X121245987Y-77351249D01*
X121266591Y-77365985D01*
X121287708Y-77381794D01*
X121307296Y-77397154D01*
X121323317Y-77410544D01*
X121333730Y-77420441D01*
X121336650Y-77424951D01*
X121624433Y-77424951D01*
X121574684Y-77373384D01*
X121441376Y-77251037D01*
X121301316Y-77137326D01*
X121154937Y-77032503D01*
X121097017Y-76996106D01*
X120700743Y-76996106D01*
X120700088Y-77002210D01*
X120696118Y-77016254D01*
X120689741Y-77035751D01*
X120681863Y-77058214D01*
X120673392Y-77081158D01*
X120665234Y-77102094D01*
X120658297Y-77118536D01*
X120653488Y-77127997D01*
X120652149Y-77129334D01*
X120645866Y-77127498D01*
X120630788Y-77122412D01*
X120608720Y-77114705D01*
X120581470Y-77105004D01*
X120557277Y-77096278D01*
X120466135Y-77063223D01*
X120409891Y-77219045D01*
X120394037Y-77262996D01*
X120378060Y-77307340D01*
X120362756Y-77349865D01*
X120348919Y-77388359D01*
X120337347Y-77420609D01*
X120328990Y-77443964D01*
X120319329Y-77469751D01*
X120310430Y-77491173D01*
X120303185Y-77506235D01*
X120298491Y-77512942D01*
X120297997Y-77513108D01*
X120290600Y-77511304D01*
X120274748Y-77506327D01*
X120252586Y-77498882D01*
X120226258Y-77489678D01*
X120218975Y-77487076D01*
X120192401Y-77477490D01*
X120169960Y-77469297D01*
X120153630Y-77463226D01*
X120145389Y-77460008D01*
X120144797Y-77459714D01*
X120146333Y-77454311D01*
X120151333Y-77439396D01*
X120159410Y-77416066D01*
X120170178Y-77385420D01*
X120183248Y-77348557D01*
X120198235Y-77306575D01*
X120214750Y-77260573D01*
X120224616Y-77233204D01*
X120247156Y-77170311D01*
X120265627Y-77117761D01*
X120280083Y-77075389D01*
X120290578Y-77043030D01*
X120297165Y-77020519D01*
X120299899Y-77007691D01*
X120299486Y-77004341D01*
X120292146Y-77001257D01*
X120276175Y-76995160D01*
X120253585Y-76986800D01*
X120226388Y-76976926D01*
X120211200Y-76971480D01*
X120182527Y-76961046D01*
X120157560Y-76951592D01*
X120138275Y-76943894D01*
X120126645Y-76938729D01*
X120124275Y-76937299D01*
X120124373Y-76930756D01*
X120127561Y-76916214D01*
X120133023Y-76896264D01*
X120139941Y-76873497D01*
X120147498Y-76850505D01*
X120154874Y-76829878D01*
X120161253Y-76814208D01*
X120165620Y-76806301D01*
X120171273Y-76807522D01*
X120186304Y-76812166D01*
X120209482Y-76819797D01*
X120239578Y-76829979D01*
X120275359Y-76842274D01*
X120315597Y-76856247D01*
X120359060Y-76871460D01*
X120404518Y-76887479D01*
X120450740Y-76903865D01*
X120496496Y-76920183D01*
X120540555Y-76935996D01*
X120581686Y-76950868D01*
X120618660Y-76964362D01*
X120650245Y-76976041D01*
X120675212Y-76985470D01*
X120692328Y-76992212D01*
X120700365Y-76995830D01*
X120700743Y-76996106D01*
X121097017Y-76996106D01*
X121002671Y-76936820D01*
X120844953Y-76850529D01*
X120682214Y-76773883D01*
X120643204Y-76758321D01*
X119932144Y-76758321D01*
X119931988Y-76764032D01*
X119931155Y-76779989D01*
X119929706Y-76805174D01*
X119927705Y-76838568D01*
X119925213Y-76879153D01*
X119922293Y-76925911D01*
X119919008Y-76977823D01*
X119915418Y-77033870D01*
X119912965Y-77071843D01*
X119892720Y-77384064D01*
X119867104Y-77381067D01*
X119850174Y-77379402D01*
X119825941Y-77377412D01*
X119798373Y-77375413D01*
X119783633Y-77374449D01*
X119757658Y-77372733D01*
X119740921Y-77371069D01*
X119731391Y-77368814D01*
X119727039Y-77365322D01*
X119725834Y-77359947D01*
X119725778Y-77356065D01*
X119726151Y-77345539D01*
X119727184Y-77326034D01*
X119728742Y-77299832D01*
X119730691Y-77269214D01*
X119732032Y-77249098D01*
X119734009Y-77218124D01*
X119735480Y-77191338D01*
X119736361Y-77170657D01*
X119736565Y-77157995D01*
X119736266Y-77154934D01*
X119730240Y-77153908D01*
X119714875Y-77152329D01*
X119692100Y-77150367D01*
X119663839Y-77148190D01*
X119642788Y-77146697D01*
X119592487Y-77142407D01*
X119551488Y-77136853D01*
X119517831Y-77129557D01*
X119489558Y-77120040D01*
X119464708Y-77107825D01*
X119457964Y-77103644D01*
X119228284Y-77103644D01*
X119227951Y-77162579D01*
X119217457Y-77218419D01*
X119197322Y-77270316D01*
X119168067Y-77317424D01*
X119130211Y-77358894D01*
X119084275Y-77393879D01*
X119030780Y-77421532D01*
X118973808Y-77440145D01*
X118935380Y-77446930D01*
X118892589Y-77450171D01*
X118850263Y-77449730D01*
X118813229Y-77445467D01*
X118810244Y-77444875D01*
X118758006Y-77428596D01*
X118710767Y-77403148D01*
X118669077Y-77369740D01*
X118633483Y-77329578D01*
X118604535Y-77283868D01*
X118582782Y-77233817D01*
X118568771Y-77180631D01*
X118563052Y-77125519D01*
X118566174Y-77069685D01*
X118578685Y-77014338D01*
X118595328Y-76972254D01*
X118611878Y-76945216D01*
X118635823Y-76915909D01*
X118664424Y-76887034D01*
X118694939Y-76861289D01*
X118724629Y-76841376D01*
X118732355Y-76837245D01*
X118780997Y-76817477D01*
X118833919Y-76803885D01*
X118888206Y-76796790D01*
X118940942Y-76796513D01*
X118989209Y-76803373D01*
X119004105Y-76807395D01*
X119057653Y-76829660D01*
X119105284Y-76861176D01*
X119146315Y-76901190D01*
X119180061Y-76948950D01*
X119205837Y-77003703D01*
X119217936Y-77042463D01*
X119228284Y-77103644D01*
X119457964Y-77103644D01*
X119452556Y-77100292D01*
X119418033Y-77071182D01*
X119392912Y-77035843D01*
X119377221Y-76994337D01*
X119370990Y-76946728D01*
X119371285Y-76923216D01*
X119378529Y-76875554D01*
X119394909Y-76834522D01*
X119420422Y-76800126D01*
X119455063Y-76772369D01*
X119480198Y-76758917D01*
X119497595Y-76751756D01*
X119515801Y-76746200D01*
X119536165Y-76742188D01*
X119560030Y-76739656D01*
X119588745Y-76738543D01*
X119623654Y-76738787D01*
X119666104Y-76740326D01*
X119717441Y-76743097D01*
X119762106Y-76745915D01*
X119804499Y-76748741D01*
X119843068Y-76751387D01*
X119876424Y-76753753D01*
X119903178Y-76755737D01*
X119921943Y-76757238D01*
X119931329Y-76758154D01*
X119932144Y-76758321D01*
X120643204Y-76758321D01*
X120514889Y-76707134D01*
X120343410Y-76650534D01*
X120168210Y-76604335D01*
X119989723Y-76568789D01*
X119968298Y-76565282D01*
X119788339Y-76542193D01*
X119607051Y-76530168D01*
X119425164Y-76529171D01*
X119243407Y-76539167D01*
G36*
X119368537Y-76225716D02*
X119250489Y-76231242D01*
X119137210Y-76240791D01*
X119025699Y-76254683D01*
X118912955Y-76273238D01*
X118795978Y-76296776D01*
X118781485Y-76299957D01*
X118597614Y-76346392D01*
X118417231Y-76403410D01*
X118240782Y-76470723D01*
X118068713Y-76548043D01*
X117901470Y-76635081D01*
X117739501Y-76731549D01*
X117583251Y-76837159D01*
X117433167Y-76951622D01*
X117289695Y-77074650D01*
X117153282Y-77205955D01*
X117024374Y-77345249D01*
X116903418Y-77492242D01*
X116872408Y-77532911D01*
X116760399Y-77691427D01*
X116658652Y-77854634D01*
X116567200Y-78022444D01*
X116486080Y-78194765D01*
X116415324Y-78371509D01*
X116354969Y-78552586D01*
X116305049Y-78737905D01*
X116265599Y-78927378D01*
X116236654Y-79120914D01*
X116228655Y-79193126D01*
X116224724Y-79240634D01*
X116221468Y-79296825D01*
X116218929Y-79359110D01*
X116217154Y-79424901D01*
X116216186Y-79491609D01*
X116216070Y-79556645D01*
X116216850Y-79617422D01*
X116218572Y-79671350D01*
X116219962Y-79697556D01*
X116237335Y-79891250D01*
X116264818Y-80080142D01*
X116302489Y-80264607D01*
X116350424Y-80445020D01*
X116408703Y-80621759D01*
X116416072Y-80641865D01*
X116487471Y-80818749D01*
X116568436Y-80990077D01*
X116658604Y-81155546D01*
X116757610Y-81314855D01*
X116865093Y-81467702D01*
X116980689Y-81613784D01*
X117104033Y-81752799D01*
X117234764Y-81884445D01*
X117372516Y-82008419D01*
X117516928Y-82124420D01*
X117667635Y-82232146D01*
X117824275Y-82331294D01*
X117986483Y-82421561D01*
X118153897Y-82502647D01*
X118326153Y-82574248D01*
X118502887Y-82636062D01*
X118683737Y-82687788D01*
X118868338Y-82729123D01*
X118942205Y-82742520D01*
X119113270Y-82766719D01*
X119288048Y-82782220D01*
X119463406Y-82788846D01*
X119636211Y-82786416D01*
X119676605Y-82784485D01*
X119867231Y-82768552D01*
X120055052Y-82741863D01*
X120239713Y-82704682D01*
X120420852Y-82657272D01*
X120598113Y-82599900D01*
X120771137Y-82532828D01*
X120939564Y-82456322D01*
X121103038Y-82370645D01*
X121261198Y-82276063D01*
X121413688Y-82172839D01*
X121560147Y-82061238D01*
X121700219Y-81941525D01*
X121833543Y-81813963D01*
X121959763Y-81678817D01*
X122078518Y-81536351D01*
X122189452Y-81386831D01*
X122292205Y-81230519D01*
X122386418Y-81067682D01*
X122471734Y-80898582D01*
X122547794Y-80723485D01*
X122578285Y-80644477D01*
X122630040Y-80494084D01*
X122673913Y-80342331D01*
X122710363Y-80187240D01*
X122739845Y-80026833D01*
X122762818Y-79859131D01*
X122765753Y-79833022D01*
X122771543Y-79767058D01*
X122775639Y-79692257D01*
X122778061Y-79610941D01*
X122778259Y-79588894D01*
X122585209Y-79588894D01*
X122574795Y-79773398D01*
X122553371Y-79956900D01*
X122520929Y-80138862D01*
X122496995Y-80243744D01*
X122446940Y-80423793D01*
X122386895Y-80598792D01*
X122316762Y-80768928D01*
X122236444Y-80934393D01*
X122145846Y-81095374D01*
X122044871Y-81252062D01*
X121933421Y-81404646D01*
X121855950Y-81500956D01*
X121823794Y-81538061D01*
X121784894Y-81580609D01*
X121741114Y-81626736D01*
X121694315Y-81674575D01*
X121646357Y-81722262D01*
X121599102Y-81767932D01*
X121554412Y-81809720D01*
X121514148Y-81845761D01*
X121498133Y-81859469D01*
X121349417Y-81977551D01*
X121196372Y-82085243D01*
X121038773Y-82182672D01*
X120876397Y-82269962D01*
X120709022Y-82347241D01*
X120536424Y-82414633D01*
X120476489Y-82435324D01*
X120373829Y-82467964D01*
X120274073Y-82496121D01*
X120175052Y-82520217D01*
X120074593Y-82540674D01*
X119970527Y-82557914D01*
X119860682Y-82572359D01*
X119742888Y-82584431D01*
X119683444Y-82589462D01*
X119661646Y-82590610D01*
X119630614Y-82591436D01*
X119592401Y-82591953D01*
X119549056Y-82592173D01*
X119502631Y-82592105D01*
X119455176Y-82591764D01*
X119408743Y-82591159D01*
X119365382Y-82590304D01*
X119327145Y-82589209D01*
X119296082Y-82587886D01*
X119284549Y-82587189D01*
X119100000Y-82568820D01*
X118916459Y-82539285D01*
X118734412Y-82498694D01*
X118554340Y-82447158D01*
X118376728Y-82384787D01*
X118345711Y-82372678D01*
X118297066Y-82352343D01*
X118241313Y-82327261D01*
X118180913Y-82298672D01*
X118118327Y-82267814D01*
X118056019Y-82235928D01*
X117996449Y-82204253D01*
X117942079Y-82174030D01*
X117895371Y-82146497D01*
X117889907Y-82143129D01*
X117769316Y-82065257D01*
X117657550Y-81986436D01*
X117552185Y-81904749D01*
X117450798Y-81818281D01*
X117350966Y-81725115D01*
X117309955Y-81684571D01*
X117181380Y-81547588D01*
X117062051Y-81404245D01*
X116952132Y-81254847D01*
X116851783Y-81099697D01*
X116761165Y-80939096D01*
X116680441Y-80773349D01*
X116609771Y-80602759D01*
X116549317Y-80427628D01*
X116499241Y-80248260D01*
X116466605Y-80101134D01*
X116436965Y-79921726D01*
X116418031Y-79739759D01*
X116409802Y-79556241D01*
X116412274Y-79372183D01*
X116425445Y-79188594D01*
X116449312Y-79006484D01*
X116469788Y-78893222D01*
X116511756Y-78712336D01*
X116564364Y-78535137D01*
X116627515Y-78361824D01*
X116701112Y-78192597D01*
X116785057Y-78027654D01*
X116879255Y-77867195D01*
X116983608Y-77711420D01*
X117098019Y-77560528D01*
X117146339Y-77501867D01*
X117178419Y-77465122D01*
X117216843Y-77423247D01*
X117259735Y-77378127D01*
X117305220Y-77331645D01*
X117351420Y-77285685D01*
X117396461Y-77242133D01*
X117438466Y-77202871D01*
X117475560Y-77169784D01*
X117484933Y-77161779D01*
X117627577Y-77047588D01*
X117773394Y-76942945D01*
X117921684Y-76848303D01*
X118071747Y-76764113D01*
X118197293Y-76702428D01*
X118369851Y-76629052D01*
X118544868Y-76566539D01*
X118722868Y-76514745D01*
X118904375Y-76473527D01*
X119089911Y-76442739D01*
X119178266Y-76431873D01*
X119217071Y-76428425D01*
X119264941Y-76425458D01*
X119319665Y-76423008D01*
X119379027Y-76421109D01*
X119440816Y-76419799D01*
X119502816Y-76419111D01*
X119562815Y-76419081D01*
X119618598Y-76419745D01*
X119667953Y-76421138D01*
X119708666Y-76423296D01*
X119709660Y-76423368D01*
X119898923Y-76442627D01*
X120084573Y-76472547D01*
X120266471Y-76513075D01*
X120444480Y-76564161D01*
X120618461Y-76625753D01*
X120788275Y-76697799D01*
X120953785Y-76780247D01*
X121114851Y-76873047D01*
X121271337Y-76976146D01*
X121354200Y-77036321D01*
X121466918Y-77125791D01*
X121578868Y-77224039D01*
X121687928Y-77328942D01*
X121791978Y-77438374D01*
X121888894Y-77550211D01*
X121968475Y-77651445D01*
X122072006Y-77798814D01*
X122167141Y-77952147D01*
X122253344Y-78110362D01*
X122330079Y-78272376D01*
X122396812Y-78437105D01*
X122453005Y-78603469D01*
X122472422Y-78670267D01*
X122516933Y-78851674D01*
X122550475Y-79034780D01*
X122573041Y-79219045D01*
X122584622Y-79403930D01*
X122585209Y-79588894D01*
X122778259Y-79588894D01*
X122778832Y-79525430D01*
X122777972Y-79438045D01*
X122775502Y-79351108D01*
X122771443Y-79266940D01*
X122765817Y-79187862D01*
X122759300Y-79121822D01*
X122732223Y-78934509D01*
X122694624Y-78750661D01*
X122646823Y-78570604D01*
X122589137Y-78394663D01*
X122521886Y-78223163D01*
X122445388Y-78056429D01*
X122359963Y-77894786D01*
X122265929Y-77738559D01*
X122163605Y-77588074D01*
X122053310Y-77443655D01*
X121935363Y-77305627D01*
X121810082Y-77174316D01*
X121677787Y-77050046D01*
X121538796Y-76933144D01*
X121393428Y-76823933D01*
X121242002Y-76722738D01*
X121084837Y-76629886D01*
X120922252Y-76545701D01*
X120754565Y-76470508D01*
X120582095Y-76404632D01*
X120405162Y-76348398D01*
X120224084Y-76302131D01*
X120039180Y-76266157D01*
X119944554Y-76252019D01*
X119880933Y-76243830D01*
X119823424Y-76237311D01*
X119769370Y-76232297D01*
X119716114Y-76228620D01*
X119660998Y-76226115D01*
X119601365Y-76224616D01*
X119534557Y-76223957D01*
X119494355Y-76223892D01*
X119368537Y-76225716D01*
X119368537Y-76225716D01*
G37*
X119368537Y-76225716D02*
X119250489Y-76231242D01*
X119137210Y-76240791D01*
X119025699Y-76254683D01*
X118912955Y-76273238D01*
X118795978Y-76296776D01*
X118781485Y-76299957D01*
X118597614Y-76346392D01*
X118417231Y-76403410D01*
X118240782Y-76470723D01*
X118068713Y-76548043D01*
X117901470Y-76635081D01*
X117739501Y-76731549D01*
X117583251Y-76837159D01*
X117433167Y-76951622D01*
X117289695Y-77074650D01*
X117153282Y-77205955D01*
X117024374Y-77345249D01*
X116903418Y-77492242D01*
X116872408Y-77532911D01*
X116760399Y-77691427D01*
X116658652Y-77854634D01*
X116567200Y-78022444D01*
X116486080Y-78194765D01*
X116415324Y-78371509D01*
X116354969Y-78552586D01*
X116305049Y-78737905D01*
X116265599Y-78927378D01*
X116236654Y-79120914D01*
X116228655Y-79193126D01*
X116224724Y-79240634D01*
X116221468Y-79296825D01*
X116218929Y-79359110D01*
X116217154Y-79424901D01*
X116216186Y-79491609D01*
X116216070Y-79556645D01*
X116216850Y-79617422D01*
X116218572Y-79671350D01*
X116219962Y-79697556D01*
X116237335Y-79891250D01*
X116264818Y-80080142D01*
X116302489Y-80264607D01*
X116350424Y-80445020D01*
X116408703Y-80621759D01*
X116416072Y-80641865D01*
X116487471Y-80818749D01*
X116568436Y-80990077D01*
X116658604Y-81155546D01*
X116757610Y-81314855D01*
X116865093Y-81467702D01*
X116980689Y-81613784D01*
X117104033Y-81752799D01*
X117234764Y-81884445D01*
X117372516Y-82008419D01*
X117516928Y-82124420D01*
X117667635Y-82232146D01*
X117824275Y-82331294D01*
X117986483Y-82421561D01*
X118153897Y-82502647D01*
X118326153Y-82574248D01*
X118502887Y-82636062D01*
X118683737Y-82687788D01*
X118868338Y-82729123D01*
X118942205Y-82742520D01*
X119113270Y-82766719D01*
X119288048Y-82782220D01*
X119463406Y-82788846D01*
X119636211Y-82786416D01*
X119676605Y-82784485D01*
X119867231Y-82768552D01*
X120055052Y-82741863D01*
X120239713Y-82704682D01*
X120420852Y-82657272D01*
X120598113Y-82599900D01*
X120771137Y-82532828D01*
X120939564Y-82456322D01*
X121103038Y-82370645D01*
X121261198Y-82276063D01*
X121413688Y-82172839D01*
X121560147Y-82061238D01*
X121700219Y-81941525D01*
X121833543Y-81813963D01*
X121959763Y-81678817D01*
X122078518Y-81536351D01*
X122189452Y-81386831D01*
X122292205Y-81230519D01*
X122386418Y-81067682D01*
X122471734Y-80898582D01*
X122547794Y-80723485D01*
X122578285Y-80644477D01*
X122630040Y-80494084D01*
X122673913Y-80342331D01*
X122710363Y-80187240D01*
X122739845Y-80026833D01*
X122762818Y-79859131D01*
X122765753Y-79833022D01*
X122771543Y-79767058D01*
X122775639Y-79692257D01*
X122778061Y-79610941D01*
X122778259Y-79588894D01*
X122585209Y-79588894D01*
X122574795Y-79773398D01*
X122553371Y-79956900D01*
X122520929Y-80138862D01*
X122496995Y-80243744D01*
X122446940Y-80423793D01*
X122386895Y-80598792D01*
X122316762Y-80768928D01*
X122236444Y-80934393D01*
X122145846Y-81095374D01*
X122044871Y-81252062D01*
X121933421Y-81404646D01*
X121855950Y-81500956D01*
X121823794Y-81538061D01*
X121784894Y-81580609D01*
X121741114Y-81626736D01*
X121694315Y-81674575D01*
X121646357Y-81722262D01*
X121599102Y-81767932D01*
X121554412Y-81809720D01*
X121514148Y-81845761D01*
X121498133Y-81859469D01*
X121349417Y-81977551D01*
X121196372Y-82085243D01*
X121038773Y-82182672D01*
X120876397Y-82269962D01*
X120709022Y-82347241D01*
X120536424Y-82414633D01*
X120476489Y-82435324D01*
X120373829Y-82467964D01*
X120274073Y-82496121D01*
X120175052Y-82520217D01*
X120074593Y-82540674D01*
X119970527Y-82557914D01*
X119860682Y-82572359D01*
X119742888Y-82584431D01*
X119683444Y-82589462D01*
X119661646Y-82590610D01*
X119630614Y-82591436D01*
X119592401Y-82591953D01*
X119549056Y-82592173D01*
X119502631Y-82592105D01*
X119455176Y-82591764D01*
X119408743Y-82591159D01*
X119365382Y-82590304D01*
X119327145Y-82589209D01*
X119296082Y-82587886D01*
X119284549Y-82587189D01*
X119100000Y-82568820D01*
X118916459Y-82539285D01*
X118734412Y-82498694D01*
X118554340Y-82447158D01*
X118376728Y-82384787D01*
X118345711Y-82372678D01*
X118297066Y-82352343D01*
X118241313Y-82327261D01*
X118180913Y-82298672D01*
X118118327Y-82267814D01*
X118056019Y-82235928D01*
X117996449Y-82204253D01*
X117942079Y-82174030D01*
X117895371Y-82146497D01*
X117889907Y-82143129D01*
X117769316Y-82065257D01*
X117657550Y-81986436D01*
X117552185Y-81904749D01*
X117450798Y-81818281D01*
X117350966Y-81725115D01*
X117309955Y-81684571D01*
X117181380Y-81547588D01*
X117062051Y-81404245D01*
X116952132Y-81254847D01*
X116851783Y-81099697D01*
X116761165Y-80939096D01*
X116680441Y-80773349D01*
X116609771Y-80602759D01*
X116549317Y-80427628D01*
X116499241Y-80248260D01*
X116466605Y-80101134D01*
X116436965Y-79921726D01*
X116418031Y-79739759D01*
X116409802Y-79556241D01*
X116412274Y-79372183D01*
X116425445Y-79188594D01*
X116449312Y-79006484D01*
X116469788Y-78893222D01*
X116511756Y-78712336D01*
X116564364Y-78535137D01*
X116627515Y-78361824D01*
X116701112Y-78192597D01*
X116785057Y-78027654D01*
X116879255Y-77867195D01*
X116983608Y-77711420D01*
X117098019Y-77560528D01*
X117146339Y-77501867D01*
X117178419Y-77465122D01*
X117216843Y-77423247D01*
X117259735Y-77378127D01*
X117305220Y-77331645D01*
X117351420Y-77285685D01*
X117396461Y-77242133D01*
X117438466Y-77202871D01*
X117475560Y-77169784D01*
X117484933Y-77161779D01*
X117627577Y-77047588D01*
X117773394Y-76942945D01*
X117921684Y-76848303D01*
X118071747Y-76764113D01*
X118197293Y-76702428D01*
X118369851Y-76629052D01*
X118544868Y-76566539D01*
X118722868Y-76514745D01*
X118904375Y-76473527D01*
X119089911Y-76442739D01*
X119178266Y-76431873D01*
X119217071Y-76428425D01*
X119264941Y-76425458D01*
X119319665Y-76423008D01*
X119379027Y-76421109D01*
X119440816Y-76419799D01*
X119502816Y-76419111D01*
X119562815Y-76419081D01*
X119618598Y-76419745D01*
X119667953Y-76421138D01*
X119708666Y-76423296D01*
X119709660Y-76423368D01*
X119898923Y-76442627D01*
X120084573Y-76472547D01*
X120266471Y-76513075D01*
X120444480Y-76564161D01*
X120618461Y-76625753D01*
X120788275Y-76697799D01*
X120953785Y-76780247D01*
X121114851Y-76873047D01*
X121271337Y-76976146D01*
X121354200Y-77036321D01*
X121466918Y-77125791D01*
X121578868Y-77224039D01*
X121687928Y-77328942D01*
X121791978Y-77438374D01*
X121888894Y-77550211D01*
X121968475Y-77651445D01*
X122072006Y-77798814D01*
X122167141Y-77952147D01*
X122253344Y-78110362D01*
X122330079Y-78272376D01*
X122396812Y-78437105D01*
X122453005Y-78603469D01*
X122472422Y-78670267D01*
X122516933Y-78851674D01*
X122550475Y-79034780D01*
X122573041Y-79219045D01*
X122584622Y-79403930D01*
X122585209Y-79588894D01*
X122778259Y-79588894D01*
X122778832Y-79525430D01*
X122777972Y-79438045D01*
X122775502Y-79351108D01*
X122771443Y-79266940D01*
X122765817Y-79187862D01*
X122759300Y-79121822D01*
X122732223Y-78934509D01*
X122694624Y-78750661D01*
X122646823Y-78570604D01*
X122589137Y-78394663D01*
X122521886Y-78223163D01*
X122445388Y-78056429D01*
X122359963Y-77894786D01*
X122265929Y-77738559D01*
X122163605Y-77588074D01*
X122053310Y-77443655D01*
X121935363Y-77305627D01*
X121810082Y-77174316D01*
X121677787Y-77050046D01*
X121538796Y-76933144D01*
X121393428Y-76823933D01*
X121242002Y-76722738D01*
X121084837Y-76629886D01*
X120922252Y-76545701D01*
X120754565Y-76470508D01*
X120582095Y-76404632D01*
X120405162Y-76348398D01*
X120224084Y-76302131D01*
X120039180Y-76266157D01*
X119944554Y-76252019D01*
X119880933Y-76243830D01*
X119823424Y-76237311D01*
X119769370Y-76232297D01*
X119716114Y-76228620D01*
X119660998Y-76226115D01*
X119601365Y-76224616D01*
X119534557Y-76223957D01*
X119494355Y-76223892D01*
X119368537Y-76225716D01*
G36*
X105602748Y-74795368D02*
X105526420Y-74796866D01*
X105475555Y-74800091D01*
X105444746Y-74805638D01*
X105428584Y-74814102D01*
X105421658Y-74826078D01*
X105421466Y-74826750D01*
X105415019Y-74856143D01*
X105403856Y-74913252D01*
X105389505Y-74990046D01*
X105373492Y-75078497D01*
X105372283Y-75085286D01*
X105355946Y-75173498D01*
X105340608Y-75249830D01*
X105327910Y-75306541D01*
X105319489Y-75335888D01*
X105319016Y-75336888D01*
X105297854Y-75353312D01*
X105250152Y-75379163D01*
X105183206Y-75410760D01*
X105112101Y-75441245D01*
X104918108Y-75520787D01*
X104440646Y-75193165D01*
X104244592Y-75388611D01*
X104177198Y-75457726D01*
X104120955Y-75519115D01*
X104080122Y-75567829D01*
X104058958Y-75598916D01*
X104057144Y-75606482D01*
X104070223Y-75628808D01*
X104100241Y-75674748D01*
X104143175Y-75738295D01*
X104195003Y-75813444D01*
X104214151Y-75840878D01*
X104272034Y-75922850D01*
X104312768Y-75983849D01*
X104336942Y-76032110D01*
X104345142Y-76075867D01*
X104337953Y-76123355D01*
X104315964Y-76182808D01*
X104279760Y-76262462D01*
X104248922Y-76328886D01*
X104181783Y-76474844D01*
X103906749Y-76525911D01*
X103631715Y-76576979D01*
X103631715Y-77131121D01*
X103708822Y-77149719D01*
X103760797Y-77160975D01*
X103836128Y-77175713D01*
X103922363Y-77191540D01*
X103967358Y-77199402D01*
X104045836Y-77214461D01*
X104111446Y-77230049D01*
X104155500Y-77243936D01*
X104168462Y-77250994D01*
X104183437Y-77276211D01*
X104207355Y-77326637D01*
X104236642Y-77393551D01*
X104267723Y-77468233D01*
X104297025Y-77541962D01*
X104320973Y-77606017D01*
X104335995Y-77651679D01*
X104339286Y-77667807D01*
X104329438Y-77690581D01*
X104302384Y-77736970D01*
X104261860Y-77800955D01*
X104211600Y-77876515D01*
X104191819Y-77905426D01*
X104044351Y-78119364D01*
X104244212Y-78319225D01*
X104444073Y-78519085D01*
X104882401Y-78218321D01*
X104991978Y-78276724D01*
X105050161Y-78306780D01*
X105084501Y-78320549D01*
X105102717Y-78319648D01*
X105112528Y-78305693D01*
X105113876Y-78302243D01*
X105124045Y-78276995D01*
X105146200Y-78223187D01*
X105178306Y-78145725D01*
X105218324Y-78049514D01*
X105264219Y-77939462D01*
X105304528Y-77843000D01*
X105482858Y-77416643D01*
X105441751Y-77389588D01*
X105364026Y-77329256D01*
X105287349Y-77254097D01*
X105221405Y-77174736D01*
X105175874Y-77101798D01*
X105172132Y-77093733D01*
X105138172Y-76980944D01*
X105127192Y-76856939D01*
X105139005Y-76734452D01*
X105173421Y-76626216D01*
X105179216Y-76614492D01*
X105261454Y-76486988D01*
X105361233Y-76390410D01*
X105481570Y-76322430D01*
X105607437Y-76284297D01*
X105738584Y-76274221D01*
X105865763Y-76296413D01*
X105984503Y-76346859D01*
X106090332Y-76421543D01*
X106178779Y-76516451D01*
X106245374Y-76627568D01*
X106285645Y-76750881D01*
X106295120Y-76882375D01*
X106293794Y-76900560D01*
X106263178Y-77044033D01*
X106199834Y-77174154D01*
X106106002Y-77287249D01*
X106012207Y-77361868D01*
X105937054Y-77411602D01*
X105964722Y-77477622D01*
X105990683Y-77539849D01*
X106024763Y-77621939D01*
X106064549Y-77718037D01*
X106107627Y-77822286D01*
X106151581Y-77928829D01*
X106193999Y-78031809D01*
X106232465Y-78125369D01*
X106264566Y-78203654D01*
X106287888Y-78260805D01*
X106300017Y-78290966D01*
X106300587Y-78292445D01*
X106316271Y-78333676D01*
X106539577Y-78220952D01*
X106753327Y-78367619D01*
X106829999Y-78419942D01*
X106895387Y-78464022D01*
X106944000Y-78496199D01*
X106970347Y-78512814D01*
X106973384Y-78514286D01*
X106987678Y-78502126D01*
X107022964Y-78468584D01*
X107074710Y-78418067D01*
X107138380Y-78354981D01*
X107176952Y-78316411D01*
X107374214Y-78118536D01*
X107235020Y-77917221D01*
X107182755Y-77840765D01*
X107137811Y-77773395D01*
X107104393Y-77721530D01*
X107086706Y-77691594D01*
X107085374Y-77688669D01*
X107087975Y-77662635D01*
X107101984Y-77611689D01*
X107124278Y-77544167D01*
X107151734Y-77468405D01*
X107181229Y-77392741D01*
X107209641Y-77325511D01*
X107233845Y-77275051D01*
X107249333Y-77250987D01*
X107274072Y-77240219D01*
X107327097Y-77225680D01*
X107400844Y-77209204D01*
X107487748Y-77192625D01*
X107496143Y-77191158D01*
X107585176Y-77175424D01*
X107663132Y-77161093D01*
X107721972Y-77149681D01*
X107753657Y-77142705D01*
X107754679Y-77142413D01*
X107766879Y-77135517D01*
X107775513Y-77119628D01*
X107781184Y-77089305D01*
X107784493Y-77039110D01*
X107786041Y-76963604D01*
X107786429Y-76857346D01*
X107786429Y-76577556D01*
X107510259Y-76525385D01*
X107234090Y-76473215D01*
X107143998Y-76267462D01*
X107102123Y-76167531D01*
X107077021Y-76096853D01*
X107067902Y-76052929D01*
X107070917Y-76036272D01*
X107086998Y-76012571D01*
X107119319Y-75965182D01*
X107163615Y-75900355D01*
X107215618Y-75824336D01*
X107231721Y-75800811D01*
X107375514Y-75590787D01*
X106978081Y-75193354D01*
X106740380Y-75356547D01*
X106502679Y-75519741D01*
X106314518Y-75444811D01*
X106237420Y-75413506D01*
X106172756Y-75386123D01*
X106128046Y-75365917D01*
X106111400Y-75356861D01*
X106102596Y-75335040D01*
X106089147Y-75284607D01*
X106072764Y-75212676D01*
X106055158Y-75126360D01*
X106052067Y-75110242D01*
X106034641Y-75019015D01*
X106018945Y-74937770D01*
X106006578Y-74874726D01*
X105999141Y-74838105D01*
X105998644Y-74835822D01*
X105994023Y-74820325D01*
X105984473Y-74809349D01*
X105964484Y-74802114D01*
X105928545Y-74797841D01*
X105871144Y-74795751D01*
X105786770Y-74795064D01*
X105709949Y-74795000D01*
X105602748Y-74795368D01*
X105602748Y-74795368D01*
G37*
X105602748Y-74795368D02*
X105526420Y-74796866D01*
X105475555Y-74800091D01*
X105444746Y-74805638D01*
X105428584Y-74814102D01*
X105421658Y-74826078D01*
X105421466Y-74826750D01*
X105415019Y-74856143D01*
X105403856Y-74913252D01*
X105389505Y-74990046D01*
X105373492Y-75078497D01*
X105372283Y-75085286D01*
X105355946Y-75173498D01*
X105340608Y-75249830D01*
X105327910Y-75306541D01*
X105319489Y-75335888D01*
X105319016Y-75336888D01*
X105297854Y-75353312D01*
X105250152Y-75379163D01*
X105183206Y-75410760D01*
X105112101Y-75441245D01*
X104918108Y-75520787D01*
X104440646Y-75193165D01*
X104244592Y-75388611D01*
X104177198Y-75457726D01*
X104120955Y-75519115D01*
X104080122Y-75567829D01*
X104058958Y-75598916D01*
X104057144Y-75606482D01*
X104070223Y-75628808D01*
X104100241Y-75674748D01*
X104143175Y-75738295D01*
X104195003Y-75813444D01*
X104214151Y-75840878D01*
X104272034Y-75922850D01*
X104312768Y-75983849D01*
X104336942Y-76032110D01*
X104345142Y-76075867D01*
X104337953Y-76123355D01*
X104315964Y-76182808D01*
X104279760Y-76262462D01*
X104248922Y-76328886D01*
X104181783Y-76474844D01*
X103906749Y-76525911D01*
X103631715Y-76576979D01*
X103631715Y-77131121D01*
X103708822Y-77149719D01*
X103760797Y-77160975D01*
X103836128Y-77175713D01*
X103922363Y-77191540D01*
X103967358Y-77199402D01*
X104045836Y-77214461D01*
X104111446Y-77230049D01*
X104155500Y-77243936D01*
X104168462Y-77250994D01*
X104183437Y-77276211D01*
X104207355Y-77326637D01*
X104236642Y-77393551D01*
X104267723Y-77468233D01*
X104297025Y-77541962D01*
X104320973Y-77606017D01*
X104335995Y-77651679D01*
X104339286Y-77667807D01*
X104329438Y-77690581D01*
X104302384Y-77736970D01*
X104261860Y-77800955D01*
X104211600Y-77876515D01*
X104191819Y-77905426D01*
X104044351Y-78119364D01*
X104244212Y-78319225D01*
X104444073Y-78519085D01*
X104882401Y-78218321D01*
X104991978Y-78276724D01*
X105050161Y-78306780D01*
X105084501Y-78320549D01*
X105102717Y-78319648D01*
X105112528Y-78305693D01*
X105113876Y-78302243D01*
X105124045Y-78276995D01*
X105146200Y-78223187D01*
X105178306Y-78145725D01*
X105218324Y-78049514D01*
X105264219Y-77939462D01*
X105304528Y-77843000D01*
X105482858Y-77416643D01*
X105441751Y-77389588D01*
X105364026Y-77329256D01*
X105287349Y-77254097D01*
X105221405Y-77174736D01*
X105175874Y-77101798D01*
X105172132Y-77093733D01*
X105138172Y-76980944D01*
X105127192Y-76856939D01*
X105139005Y-76734452D01*
X105173421Y-76626216D01*
X105179216Y-76614492D01*
X105261454Y-76486988D01*
X105361233Y-76390410D01*
X105481570Y-76322430D01*
X105607437Y-76284297D01*
X105738584Y-76274221D01*
X105865763Y-76296413D01*
X105984503Y-76346859D01*
X106090332Y-76421543D01*
X106178779Y-76516451D01*
X106245374Y-76627568D01*
X106285645Y-76750881D01*
X106295120Y-76882375D01*
X106293794Y-76900560D01*
X106263178Y-77044033D01*
X106199834Y-77174154D01*
X106106002Y-77287249D01*
X106012207Y-77361868D01*
X105937054Y-77411602D01*
X105964722Y-77477622D01*
X105990683Y-77539849D01*
X106024763Y-77621939D01*
X106064549Y-77718037D01*
X106107627Y-77822286D01*
X106151581Y-77928829D01*
X106193999Y-78031809D01*
X106232465Y-78125369D01*
X106264566Y-78203654D01*
X106287888Y-78260805D01*
X106300017Y-78290966D01*
X106300587Y-78292445D01*
X106316271Y-78333676D01*
X106539577Y-78220952D01*
X106753327Y-78367619D01*
X106829999Y-78419942D01*
X106895387Y-78464022D01*
X106944000Y-78496199D01*
X106970347Y-78512814D01*
X106973384Y-78514286D01*
X106987678Y-78502126D01*
X107022964Y-78468584D01*
X107074710Y-78418067D01*
X107138380Y-78354981D01*
X107176952Y-78316411D01*
X107374214Y-78118536D01*
X107235020Y-77917221D01*
X107182755Y-77840765D01*
X107137811Y-77773395D01*
X107104393Y-77721530D01*
X107086706Y-77691594D01*
X107085374Y-77688669D01*
X107087975Y-77662635D01*
X107101984Y-77611689D01*
X107124278Y-77544167D01*
X107151734Y-77468405D01*
X107181229Y-77392741D01*
X107209641Y-77325511D01*
X107233845Y-77275051D01*
X107249333Y-77250987D01*
X107274072Y-77240219D01*
X107327097Y-77225680D01*
X107400844Y-77209204D01*
X107487748Y-77192625D01*
X107496143Y-77191158D01*
X107585176Y-77175424D01*
X107663132Y-77161093D01*
X107721972Y-77149681D01*
X107753657Y-77142705D01*
X107754679Y-77142413D01*
X107766879Y-77135517D01*
X107775513Y-77119628D01*
X107781184Y-77089305D01*
X107784493Y-77039110D01*
X107786041Y-76963604D01*
X107786429Y-76857346D01*
X107786429Y-76577556D01*
X107510259Y-76525385D01*
X107234090Y-76473215D01*
X107143998Y-76267462D01*
X107102123Y-76167531D01*
X107077021Y-76096853D01*
X107067902Y-76052929D01*
X107070917Y-76036272D01*
X107086998Y-76012571D01*
X107119319Y-75965182D01*
X107163615Y-75900355D01*
X107215618Y-75824336D01*
X107231721Y-75800811D01*
X107375514Y-75590787D01*
X106978081Y-75193354D01*
X106740380Y-75356547D01*
X106502679Y-75519741D01*
X106314518Y-75444811D01*
X106237420Y-75413506D01*
X106172756Y-75386123D01*
X106128046Y-75365917D01*
X106111400Y-75356861D01*
X106102596Y-75335040D01*
X106089147Y-75284607D01*
X106072764Y-75212676D01*
X106055158Y-75126360D01*
X106052067Y-75110242D01*
X106034641Y-75019015D01*
X106018945Y-74937770D01*
X106006578Y-74874726D01*
X105999141Y-74838105D01*
X105998644Y-74835822D01*
X105994023Y-74820325D01*
X105984473Y-74809349D01*
X105964484Y-74802114D01*
X105928545Y-74797841D01*
X105871144Y-74795751D01*
X105786770Y-74795064D01*
X105709949Y-74795000D01*
X105602748Y-74795368D01*
G04 #@! TO.C,R4*
D10*
X108083333Y-79902004D02*
X108350000Y-79521052D01*
X108540476Y-79902004D02*
X108540476Y-79102004D01*
X108235714Y-79102004D01*
X108159523Y-79140100D01*
X108121428Y-79178195D01*
X108083333Y-79254385D01*
X108083333Y-79368671D01*
X108121428Y-79444861D01*
X108159523Y-79482957D01*
X108235714Y-79521052D01*
X108540476Y-79521052D01*
X107397619Y-79368671D02*
X107397619Y-79902004D01*
X107588095Y-79063909D02*
X107778571Y-79635338D01*
X107283333Y-79635338D01*
G04 #@! TO.C,R5*
X107892833Y-85972604D02*
X108159500Y-85591652D01*
X108349976Y-85972604D02*
X108349976Y-85172604D01*
X108045214Y-85172604D01*
X107969023Y-85210700D01*
X107930928Y-85248795D01*
X107892833Y-85324985D01*
X107892833Y-85439271D01*
X107930928Y-85515461D01*
X107969023Y-85553557D01*
X108045214Y-85591652D01*
X108349976Y-85591652D01*
X107169023Y-85172604D02*
X107549976Y-85172604D01*
X107588071Y-85553557D01*
X107549976Y-85515461D01*
X107473785Y-85477366D01*
X107283309Y-85477366D01*
X107207119Y-85515461D01*
X107169023Y-85553557D01*
X107130928Y-85629747D01*
X107130928Y-85820223D01*
X107169023Y-85896414D01*
X107207119Y-85934509D01*
X107283309Y-85972604D01*
X107473785Y-85972604D01*
X107549976Y-85934509D01*
X107588071Y-85896414D01*
G04 #@! TO.C,R6*
X108057933Y-92182904D02*
X108324600Y-91801952D01*
X108515076Y-92182904D02*
X108515076Y-91382904D01*
X108210314Y-91382904D01*
X108134123Y-91421000D01*
X108096028Y-91459095D01*
X108057933Y-91535285D01*
X108057933Y-91649571D01*
X108096028Y-91725761D01*
X108134123Y-91763857D01*
X108210314Y-91801952D01*
X108515076Y-91801952D01*
X107372219Y-91382904D02*
X107524600Y-91382904D01*
X107600790Y-91421000D01*
X107638885Y-91459095D01*
X107715076Y-91573380D01*
X107753171Y-91725761D01*
X107753171Y-92030523D01*
X107715076Y-92106714D01*
X107676980Y-92144809D01*
X107600790Y-92182904D01*
X107448409Y-92182904D01*
X107372219Y-92144809D01*
X107334123Y-92106714D01*
X107296028Y-92030523D01*
X107296028Y-91840047D01*
X107334123Y-91763857D01*
X107372219Y-91725761D01*
X107448409Y-91687666D01*
X107600790Y-91687666D01*
X107676980Y-91725761D01*
X107715076Y-91763857D01*
X107753171Y-91840047D01*
G04 #@! TO.C,R1*
X120237233Y-86302804D02*
X120503900Y-85921852D01*
X120694376Y-86302804D02*
X120694376Y-85502804D01*
X120389614Y-85502804D01*
X120313423Y-85540900D01*
X120275328Y-85578995D01*
X120237233Y-85655185D01*
X120237233Y-85769471D01*
X120275328Y-85845661D01*
X120313423Y-85883757D01*
X120389614Y-85921852D01*
X120694376Y-85921852D01*
X119475328Y-86302804D02*
X119932471Y-86302804D01*
X119703900Y-86302804D02*
X119703900Y-85502804D01*
X119780090Y-85617090D01*
X119856280Y-85693280D01*
X119932471Y-85731376D01*
G04 #@! TO.C,R2*
X120326133Y-89046004D02*
X120592800Y-88665052D01*
X120783276Y-89046004D02*
X120783276Y-88246004D01*
X120478514Y-88246004D01*
X120402323Y-88284100D01*
X120364228Y-88322195D01*
X120326133Y-88398385D01*
X120326133Y-88512671D01*
X120364228Y-88588861D01*
X120402323Y-88626957D01*
X120478514Y-88665052D01*
X120783276Y-88665052D01*
X120021371Y-88322195D02*
X119983276Y-88284100D01*
X119907085Y-88246004D01*
X119716609Y-88246004D01*
X119640419Y-88284100D01*
X119602323Y-88322195D01*
X119564228Y-88398385D01*
X119564228Y-88474576D01*
X119602323Y-88588861D01*
X120059466Y-89046004D01*
X119564228Y-89046004D01*
G04 #@! TO.C,R3*
X120300733Y-91598704D02*
X120567400Y-91217752D01*
X120757876Y-91598704D02*
X120757876Y-90798704D01*
X120453114Y-90798704D01*
X120376923Y-90836800D01*
X120338828Y-90874895D01*
X120300733Y-90951085D01*
X120300733Y-91065371D01*
X120338828Y-91141561D01*
X120376923Y-91179657D01*
X120453114Y-91217752D01*
X120757876Y-91217752D01*
X120034066Y-90798704D02*
X119538828Y-90798704D01*
X119805495Y-91103466D01*
X119691209Y-91103466D01*
X119615019Y-91141561D01*
X119576923Y-91179657D01*
X119538828Y-91255847D01*
X119538828Y-91446323D01*
X119576923Y-91522514D01*
X119615019Y-91560609D01*
X119691209Y-91598704D01*
X119919780Y-91598704D01*
X119995971Y-91560609D01*
X120034066Y-91522514D01*
G04 #@! TO.C,R7*
X120262633Y-94113304D02*
X120529300Y-93732352D01*
X120719776Y-94113304D02*
X120719776Y-93313304D01*
X120415014Y-93313304D01*
X120338823Y-93351400D01*
X120300728Y-93389495D01*
X120262633Y-93465685D01*
X120262633Y-93579971D01*
X120300728Y-93656161D01*
X120338823Y-93694257D01*
X120415014Y-93732352D01*
X120719776Y-93732352D01*
X119995966Y-93313304D02*
X119462633Y-93313304D01*
X119805490Y-94113304D01*
G04 #@! TO.C,TH1*
X117119271Y-90620904D02*
X116662128Y-90620904D01*
X116890700Y-91420904D02*
X116890700Y-90620904D01*
X116395461Y-91420904D02*
X116395461Y-90620904D01*
X116395461Y-91001857D02*
X115938319Y-91001857D01*
X115938319Y-91420904D02*
X115938319Y-90620904D01*
X115138319Y-91420904D02*
X115595461Y-91420904D01*
X115366890Y-91420904D02*
X115366890Y-90620904D01*
X115443080Y-90735190D01*
X115519271Y-90811380D01*
X115595461Y-90849476D01*
G04 #@! TO.C,Q1*
X109764590Y-81762695D02*
X109840780Y-81724600D01*
X109916971Y-81648409D01*
X110031257Y-81534123D01*
X110107447Y-81496028D01*
X110183638Y-81496028D01*
X110145542Y-81686504D02*
X110221733Y-81648409D01*
X110297923Y-81572219D01*
X110336019Y-81419838D01*
X110336019Y-81153171D01*
X110297923Y-81000790D01*
X110221733Y-80924600D01*
X110145542Y-80886504D01*
X109993161Y-80886504D01*
X109916971Y-80924600D01*
X109840780Y-81000790D01*
X109802685Y-81153171D01*
X109802685Y-81419838D01*
X109840780Y-81572219D01*
X109916971Y-81648409D01*
X109993161Y-81686504D01*
X110145542Y-81686504D01*
X109040780Y-81686504D02*
X109497923Y-81686504D01*
X109269352Y-81686504D02*
X109269352Y-80886504D01*
X109345542Y-81000790D01*
X109421733Y-81076980D01*
X109497923Y-81115076D01*
G04 #@! TO.C,Q2*
X109804190Y-90887495D02*
X109880380Y-90849400D01*
X109956571Y-90773209D01*
X110070857Y-90658923D01*
X110147047Y-90620828D01*
X110223238Y-90620828D01*
X110185142Y-90811304D02*
X110261333Y-90773209D01*
X110337523Y-90697019D01*
X110375619Y-90544638D01*
X110375619Y-90277971D01*
X110337523Y-90125590D01*
X110261333Y-90049400D01*
X110185142Y-90011304D01*
X110032761Y-90011304D01*
X109956571Y-90049400D01*
X109880380Y-90125590D01*
X109842285Y-90277971D01*
X109842285Y-90544638D01*
X109880380Y-90697019D01*
X109956571Y-90773209D01*
X110032761Y-90811304D01*
X110185142Y-90811304D01*
X109537523Y-90087495D02*
X109499428Y-90049400D01*
X109423238Y-90011304D01*
X109232761Y-90011304D01*
X109156571Y-90049400D01*
X109118476Y-90087495D01*
X109080380Y-90163685D01*
X109080380Y-90239876D01*
X109118476Y-90354161D01*
X109575619Y-90811304D01*
X109080380Y-90811304D01*
G04 #@! TO.C,Q3*
X110439190Y-95167395D02*
X110515380Y-95129300D01*
X110591571Y-95053109D01*
X110705857Y-94938823D01*
X110782047Y-94900728D01*
X110858238Y-94900728D01*
X110820142Y-95091204D02*
X110896333Y-95053109D01*
X110972523Y-94976919D01*
X111010619Y-94824538D01*
X111010619Y-94557871D01*
X110972523Y-94405490D01*
X110896333Y-94329300D01*
X110820142Y-94291204D01*
X110667761Y-94291204D01*
X110591571Y-94329300D01*
X110515380Y-94405490D01*
X110477285Y-94557871D01*
X110477285Y-94824538D01*
X110515380Y-94976919D01*
X110591571Y-95053109D01*
X110667761Y-95091204D01*
X110820142Y-95091204D01*
X110210619Y-94291204D02*
X109715380Y-94291204D01*
X109982047Y-94595966D01*
X109867761Y-94595966D01*
X109791571Y-94634061D01*
X109753476Y-94672157D01*
X109715380Y-94748347D01*
X109715380Y-94938823D01*
X109753476Y-95015014D01*
X109791571Y-95053109D01*
X109867761Y-95091204D01*
X110096333Y-95091204D01*
X110172523Y-95053109D01*
X110210619Y-95015014D01*
G04 #@! TO.C,Q4*
X108088190Y-81762695D02*
X108164380Y-81724600D01*
X108240571Y-81648409D01*
X108354857Y-81534123D01*
X108431047Y-81496028D01*
X108507238Y-81496028D01*
X108469142Y-81686504D02*
X108545333Y-81648409D01*
X108621523Y-81572219D01*
X108659619Y-81419838D01*
X108659619Y-81153171D01*
X108621523Y-81000790D01*
X108545333Y-80924600D01*
X108469142Y-80886504D01*
X108316761Y-80886504D01*
X108240571Y-80924600D01*
X108164380Y-81000790D01*
X108126285Y-81153171D01*
X108126285Y-81419838D01*
X108164380Y-81572219D01*
X108240571Y-81648409D01*
X108316761Y-81686504D01*
X108469142Y-81686504D01*
X107440571Y-81153171D02*
X107440571Y-81686504D01*
X107631047Y-80848409D02*
X107821523Y-81419838D01*
X107326285Y-81419838D01*
G04 #@! TO.C,Q5*
X108051590Y-90887495D02*
X108127780Y-90849400D01*
X108203971Y-90773209D01*
X108318257Y-90658923D01*
X108394447Y-90620828D01*
X108470638Y-90620828D01*
X108432542Y-90811304D02*
X108508733Y-90773209D01*
X108584923Y-90697019D01*
X108623019Y-90544638D01*
X108623019Y-90277971D01*
X108584923Y-90125590D01*
X108508733Y-90049400D01*
X108432542Y-90011304D01*
X108280161Y-90011304D01*
X108203971Y-90049400D01*
X108127780Y-90125590D01*
X108089685Y-90277971D01*
X108089685Y-90544638D01*
X108127780Y-90697019D01*
X108203971Y-90773209D01*
X108280161Y-90811304D01*
X108432542Y-90811304D01*
X107365876Y-90011304D02*
X107746828Y-90011304D01*
X107784923Y-90392257D01*
X107746828Y-90354161D01*
X107670638Y-90316066D01*
X107480161Y-90316066D01*
X107403971Y-90354161D01*
X107365876Y-90392257D01*
X107327780Y-90468447D01*
X107327780Y-90658923D01*
X107365876Y-90735114D01*
X107403971Y-90773209D01*
X107480161Y-90811304D01*
X107670638Y-90811304D01*
X107746828Y-90773209D01*
X107784923Y-90735114D01*
G04 #@! TO.C,Q6*
X108800890Y-95167395D02*
X108877080Y-95129300D01*
X108953271Y-95053109D01*
X109067557Y-94938823D01*
X109143747Y-94900728D01*
X109219938Y-94900728D01*
X109181842Y-95091204D02*
X109258033Y-95053109D01*
X109334223Y-94976919D01*
X109372319Y-94824538D01*
X109372319Y-94557871D01*
X109334223Y-94405490D01*
X109258033Y-94329300D01*
X109181842Y-94291204D01*
X109029461Y-94291204D01*
X108953271Y-94329300D01*
X108877080Y-94405490D01*
X108838985Y-94557871D01*
X108838985Y-94824538D01*
X108877080Y-94976919D01*
X108953271Y-95053109D01*
X109029461Y-95091204D01*
X109181842Y-95091204D01*
X108153271Y-94291204D02*
X108305652Y-94291204D01*
X108381842Y-94329300D01*
X108419938Y-94367395D01*
X108496128Y-94481680D01*
X108534223Y-94634061D01*
X108534223Y-94938823D01*
X108496128Y-95015014D01*
X108458033Y-95053109D01*
X108381842Y-95091204D01*
X108229461Y-95091204D01*
X108153271Y-95053109D01*
X108115176Y-95015014D01*
X108077080Y-94938823D01*
X108077080Y-94748347D01*
X108115176Y-94672157D01*
X108153271Y-94634061D01*
X108229461Y-94595966D01*
X108381842Y-94595966D01*
X108458033Y-94634061D01*
X108496128Y-94672157D01*
X108534223Y-94748347D01*
G04 #@! TO.C,C1*
X115449333Y-93833914D02*
X115487428Y-93872009D01*
X115601714Y-93910104D01*
X115677904Y-93910104D01*
X115792190Y-93872009D01*
X115868380Y-93795819D01*
X115906476Y-93719628D01*
X115944571Y-93567247D01*
X115944571Y-93452961D01*
X115906476Y-93300580D01*
X115868380Y-93224390D01*
X115792190Y-93148200D01*
X115677904Y-93110104D01*
X115601714Y-93110104D01*
X115487428Y-93148200D01*
X115449333Y-93186295D01*
X114687428Y-93910104D02*
X115144571Y-93910104D01*
X114916000Y-93910104D02*
X114916000Y-93110104D01*
X114992190Y-93224390D01*
X115068380Y-93300580D01*
X115144571Y-93338676D01*
G04 #@! TD*
M02*
