M48
;DRILL file {KiCad (5.0.0)} date 11/19/18 11:16:37
;FORMAT={-:-/ absolute / metric / decimal}
FMAT,2
METRIC,TZ
T1C0.300
T2C1.000
T3C1.016
%
G90
G05
M71
T1
X101.Y-81.5
X101.Y-87.5
X101.Y-90.
X104.Y-76.
X104.Y-78.
X104.Y-99.
X106.Y-76.
X107.Y-99.
X107.95Y-80.01
X107.95Y-81.28
X108.Y-76.
X108.267Y-95.186
X109.22Y-80.01
X109.22Y-81.28
X109.22Y-82.55
X109.22Y-85.344
X109.22Y-86.328
X109.22Y-87.312
X109.22Y-88.297
X109.22Y-89.281
X110.384Y-85.344
X110.384Y-86.328
X110.384Y-87.312
X110.384Y-88.297
X110.384Y-89.281
X110.998Y-95.758
X111.548Y-85.344
X111.548Y-86.328
X111.548Y-87.312
X111.548Y-88.297
X111.548Y-89.281
X111.633Y-77.533
X112.268Y-95.758
X112.712Y-85.344
X112.712Y-86.233
X112.712Y-88.392
X112.712Y-89.281
X112.712Y-91.44
X113.877Y-85.344
X113.877Y-86.328
X113.877Y-87.312
X113.877Y-88.297
X113.877Y-89.281
X113.919Y-77.533
X114.427Y-91.186
X115.041Y-85.344
X115.041Y-86.328
X115.041Y-87.312
X115.041Y-88.297
X115.041Y-89.281
X116.205Y-80.01
X116.205Y-81.28
X116.205Y-82.55
X116.205Y-85.344
X116.205Y-86.328
X116.205Y-87.312
X116.205Y-88.297
X116.205Y-89.281
X116.753Y-93.535
X117.475Y-80.01
X117.475Y-81.28
X117.475Y-82.55
X117.475Y-85.344
X117.475Y-86.328
X118.Y-76.
X118.Y-97.98
X118.Y-99.
X118.745Y-81.28
X118.745Y-82.55
X118.745Y-85.344
X120.Y-76.
X121.Y-99.
X121.017Y-96.252
X122.174Y-91.186
X122.237Y-93.726
X122.5Y-86.
X122.5Y-88.5
X124.Y-79.
T2
X112.7Y-87.3
T3
X110.16Y-98.5
X112.7Y-98.5
X115.24Y-98.5
X123.9Y-82.4
X123.9Y-84.94
X123.9Y-87.48
X123.9Y-90.02
X123.9Y-92.56
X123.9Y-95.1
X110.16Y-76.1
X112.7Y-76.1
X115.24Y-76.1
T0
M30
