G04 #@! TF.GenerationSoftware,KiCad,Pcbnew,(5.0.0)*
G04 #@! TF.CreationDate,2018-11-19T11:16:29+03:00*
G04 #@! TF.ProjectId,NeoP_6W,4E656F505F36572E6B696361645F7063,rev?*
G04 #@! TF.SameCoordinates,Original*
G04 #@! TF.FileFunction,Copper,L1,Top,Signal*
G04 #@! TF.FilePolarity,Positive*
%FSLAX46Y46*%
G04 Gerber Fmt 4.6, Leading zero omitted, Abs format (unit mm)*
G04 Created by KiCad (PCBNEW (5.0.0)) date 11/19/18 11:16:29*
%MOMM*%
%LPD*%
G01*
G04 APERTURE LIST*
G04 #@! TA.AperFunction,SMDPad,CuDef*
%ADD10R,1.200000X3.100000*%
G04 #@! TD*
G04 #@! TA.AperFunction,ComponentPad*
%ADD11R,8.000000X4.800000*%
G04 #@! TD*
G04 #@! TA.AperFunction,ComponentPad*
%ADD12O,2.032000X1.727200*%
G04 #@! TD*
G04 #@! TA.AperFunction,ComponentPad*
%ADD13C,2.032000*%
G04 #@! TD*
G04 #@! TA.AperFunction,ComponentPad*
%ADD14R,1.727200X2.032000*%
G04 #@! TD*
G04 #@! TA.AperFunction,ComponentPad*
%ADD15O,1.727200X2.032000*%
G04 #@! TD*
G04 #@! TA.AperFunction,ViaPad*
%ADD16C,0.700000*%
G04 #@! TD*
G04 #@! TA.AperFunction,Conductor*
%ADD17C,0.500000*%
G04 #@! TD*
G04 #@! TA.AperFunction,Conductor*
%ADD18C,0.750000*%
G04 #@! TD*
G04 #@! TA.AperFunction,Conductor*
%ADD19C,0.200000*%
G04 #@! TD*
G04 #@! TA.AperFunction,Conductor*
%ADD20C,0.254000*%
G04 #@! TD*
G04 APERTURE END LIST*
D10*
G04 #@! TO.P,D1,3*
G04 #@! TO.N,Net-(D1-Pad3)*
X114400000Y-93520000D03*
G04 #@! TO.P,D1,2*
G04 #@! TO.N,Net-(D1-Pad2)*
X112700000Y-93520000D03*
G04 #@! TO.P,D1,1*
G04 #@! TO.N,Net-(D1-Pad1)*
X111000000Y-93520000D03*
D11*
G04 #@! TO.P,D1,*
G04 #@! TO.N,+5V*
X112700000Y-87300000D03*
D10*
G04 #@! TO.P,D1,6*
X111000000Y-81080000D03*
G04 #@! TO.P,D1,5*
X112700000Y-81080000D03*
G04 #@! TO.P,D1,4*
X114400000Y-81080000D03*
G04 #@! TD*
D12*
G04 #@! TO.P,J1,6*
G04 #@! TO.N,+5V*
X123900000Y-82400000D03*
G04 #@! TO.P,J1,5*
G04 #@! TO.N,GND*
X123900000Y-84940000D03*
G04 #@! TO.P,J1,4*
G04 #@! TO.N,R*
X123900000Y-87480000D03*
G04 #@! TO.P,J1,3*
G04 #@! TO.N,G*
X123900000Y-90020000D03*
G04 #@! TO.P,J1,2*
G04 #@! TO.N,B*
X123900000Y-92560000D03*
D13*
G04 #@! TO.P,J1,1*
G04 #@! TO.N,TC*
X123900000Y-95100000D03*
G04 #@! TD*
D14*
G04 #@! TO.P,J2,1*
G04 #@! TO.N,N/C*
X110160000Y-76100000D03*
D15*
G04 #@! TO.P,J2,2*
G04 #@! TO.N,+5V*
X112700000Y-76100000D03*
G04 #@! TO.P,J2,3*
G04 #@! TO.N,GND*
X115240000Y-76100000D03*
G04 #@! TD*
G04 #@! TO.P,J3,3*
G04 #@! TO.N,GND*
X115240000Y-98500000D03*
G04 #@! TO.P,J3,2*
G04 #@! TO.N,+5V*
X112700000Y-98500000D03*
D14*
G04 #@! TO.P,J3,1*
G04 #@! TO.N,N/C*
X110160000Y-98500000D03*
G04 #@! TD*
D16*
G04 #@! TO.N,GND*
X104000000Y-99000000D03*
X107000000Y-99000000D03*
X108000000Y-76000000D03*
X104000000Y-76000000D03*
X106000000Y-76000000D03*
X118000000Y-99000000D03*
X121000000Y-99000000D03*
X122500000Y-88500000D03*
X122500000Y-86000000D03*
X101000000Y-87500000D03*
X101000000Y-90000000D03*
X101000000Y-81500000D03*
X112268000Y-95758000D03*
X122237500Y-93726000D03*
X122174000Y-91186000D03*
X113919000Y-77533500D03*
X111633000Y-77533500D03*
X118000000Y-76000000D03*
X120000000Y-76000000D03*
X124000000Y-79000000D03*
X104000000Y-78000000D03*
X108267500Y-95186500D03*
X118000000Y-97980500D03*
G04 #@! TO.N,+5V*
X112712498Y-89281000D03*
X112712498Y-88392000D03*
X113876664Y-86328250D03*
X110384166Y-89281000D03*
X116205000Y-89281000D03*
X115040830Y-89281000D03*
X113876664Y-89281000D03*
X111548332Y-89281000D03*
X111548332Y-88296750D03*
X113876664Y-88296750D03*
X115040830Y-88296750D03*
X111548332Y-85344000D03*
X113876664Y-85344000D03*
X115040830Y-86328250D03*
X115040830Y-85344000D03*
X110384166Y-86328250D03*
X110384166Y-85344000D03*
X109220000Y-86328250D03*
X109220000Y-88296750D03*
X116205000Y-88296750D03*
X116205000Y-86328250D03*
X116205000Y-85344000D03*
X109220000Y-85344000D03*
X109220000Y-82550000D03*
X109220000Y-81280000D03*
X109220000Y-80010000D03*
X116205000Y-82550000D03*
X116205000Y-81280000D03*
X116205000Y-80010000D03*
X117475000Y-82550000D03*
X117475000Y-81280000D03*
X117475000Y-80010000D03*
X118745000Y-81280000D03*
X118745000Y-82550000D03*
X117475000Y-85344000D03*
X118745000Y-85344000D03*
X117475000Y-86328250D03*
X107950000Y-80010000D03*
X107950000Y-81280000D03*
X110384166Y-88296750D03*
X109220000Y-89281000D03*
X111548332Y-86328250D03*
X112712498Y-85344000D03*
X112712498Y-86233000D03*
X116205000Y-87312500D03*
X111548332Y-87312500D03*
X113876664Y-87312500D03*
X115040830Y-87312500D03*
X109220000Y-87312500D03*
X110384166Y-87312500D03*
G04 #@! TO.N,Net-(D1-Pad3)*
X114427000Y-91186000D03*
G04 #@! TO.N,Net-(D1-Pad2)*
X112712500Y-91440000D03*
G04 #@! TO.N,Net-(D1-Pad1)*
X110998000Y-95758000D03*
G04 #@! TO.N,TC*
X116753500Y-93535500D03*
X121017000Y-96252000D03*
G04 #@! TD*
D17*
G04 #@! TO.N,+5V*
X112700000Y-81080000D02*
X111000000Y-81080000D01*
X112700000Y-81080000D02*
X114400000Y-81080000D01*
X114400000Y-81080000D02*
X116205000Y-81080000D01*
X122580000Y-81080000D02*
X123900000Y-82400000D01*
X112700000Y-83130000D02*
X112700000Y-83820000D01*
X112700000Y-81080000D02*
X112700000Y-83130000D01*
X111836000Y-87300000D02*
X111836000Y-87300000D01*
X116205000Y-81080000D02*
X117475000Y-81080000D01*
X117475000Y-81080000D02*
X118745000Y-81080000D01*
X118745000Y-81080000D02*
X122580000Y-81080000D01*
X112700000Y-85725000D02*
X112700000Y-86360000D01*
X112700000Y-86360000D02*
X112700000Y-87300000D01*
X112700000Y-83820000D02*
X112700000Y-85725000D01*
X112700000Y-98222000D02*
X112700000Y-98500000D01*
X112700000Y-87300000D02*
X111836000Y-87300000D01*
X111836000Y-87300000D02*
X109093000Y-90043000D01*
X109093000Y-90043000D02*
X109093000Y-93408500D01*
X109728000Y-94043500D02*
X109537500Y-94043500D01*
X109728000Y-94043500D02*
X109791500Y-94107000D01*
X109093000Y-93408500D02*
X109728000Y-94043500D01*
X109537500Y-94043500D02*
X109347000Y-94234000D01*
D18*
X112700000Y-76100000D02*
X112700000Y-81080000D01*
X109791500Y-95313500D02*
X109791500Y-96329500D01*
X109791500Y-96329500D02*
X110236000Y-96774000D01*
X110236000Y-96774000D02*
X111887000Y-96774000D01*
X112700000Y-97587000D02*
X112700000Y-98500000D01*
X111887000Y-96774000D02*
X112700000Y-97587000D01*
D17*
X109791500Y-95313500D02*
X109791500Y-94107000D01*
X109474000Y-94424500D02*
X109093000Y-94043500D01*
X109474000Y-94996000D02*
X109474000Y-94424500D01*
D18*
X109093000Y-94043500D02*
X109093000Y-94615000D01*
X109093000Y-93408500D02*
X109093000Y-94043500D01*
X109474000Y-94996000D02*
X109791500Y-95313500D01*
X109093000Y-94615000D02*
X109474000Y-94996000D01*
D17*
G04 #@! TO.N,Net-(D1-Pad3)*
X114427000Y-93493000D02*
X114400000Y-93520000D01*
X114427000Y-91186000D02*
X114427000Y-93493000D01*
G04 #@! TO.N,Net-(D1-Pad2)*
X112712500Y-91567000D02*
X112712500Y-93507500D01*
X112712500Y-93507500D02*
X112700000Y-93520000D01*
X112712500Y-91440000D02*
X112712500Y-93507500D01*
G04 #@! TO.N,Net-(D1-Pad1)*
X111000000Y-95756000D02*
X110998000Y-95758000D01*
X111000000Y-93520000D02*
X111000000Y-95756000D01*
D19*
G04 #@! TO.N,TC*
X116753500Y-93537900D02*
X116753500Y-93535500D01*
X118315600Y-95100000D02*
X116753500Y-93537900D01*
X119470000Y-96252000D02*
X116753500Y-93535500D01*
X121017000Y-96252000D02*
X119470000Y-96252000D01*
G04 #@! TD*
D20*
G04 #@! TO.N,+5V*
G36*
X110158124Y-79168007D02*
X110038007Y-79288124D01*
X109973000Y-79445065D01*
X109973000Y-80950250D01*
X110079750Y-81057000D01*
X110977000Y-81057000D01*
X110977000Y-81037000D01*
X111023000Y-81037000D01*
X111023000Y-81057000D01*
X112677000Y-81057000D01*
X112677000Y-81037000D01*
X112723000Y-81037000D01*
X112723000Y-81057000D01*
X114377000Y-81057000D01*
X114377000Y-81037000D01*
X114423000Y-81037000D01*
X114423000Y-81057000D01*
X115320250Y-81057000D01*
X115427000Y-80950250D01*
X115427000Y-79445065D01*
X115361993Y-79288124D01*
X115241876Y-79168007D01*
X115142877Y-79127000D01*
X120872733Y-79127000D01*
X120840766Y-94361000D01*
X118324290Y-94361000D01*
X117530500Y-93567210D01*
X117530500Y-93380945D01*
X117412209Y-93095365D01*
X117193635Y-92876791D01*
X116908055Y-92758500D01*
X116598945Y-92758500D01*
X116313365Y-92876791D01*
X116094791Y-93095365D01*
X115976500Y-93380945D01*
X115976500Y-93690055D01*
X116094791Y-93975635D01*
X116313365Y-94194209D01*
X116598945Y-94312500D01*
X116782810Y-94312500D01*
X116831310Y-94361000D01*
X115435365Y-94361000D01*
X115435365Y-91970000D01*
X115402225Y-91803393D01*
X115307850Y-91662150D01*
X115166607Y-91567775D01*
X115114200Y-91557351D01*
X115204000Y-91340555D01*
X115204000Y-91031445D01*
X115085709Y-90745865D01*
X114867135Y-90527291D01*
X114581555Y-90409000D01*
X114272445Y-90409000D01*
X113986865Y-90527291D01*
X113768291Y-90745865D01*
X113650000Y-91031445D01*
X113650000Y-91340555D01*
X113735689Y-91547427D01*
X113633393Y-91567775D01*
X113550000Y-91623496D01*
X113489500Y-91583072D01*
X113489500Y-91285445D01*
X113371209Y-90999865D01*
X113152635Y-90781291D01*
X112867055Y-90663000D01*
X112557945Y-90663000D01*
X112272365Y-90781291D01*
X112053791Y-90999865D01*
X111935500Y-91285445D01*
X111935500Y-91567356D01*
X111933393Y-91567775D01*
X111850000Y-91623496D01*
X111766607Y-91567775D01*
X111600000Y-91534635D01*
X110400000Y-91534635D01*
X110233393Y-91567775D01*
X110092150Y-91662150D01*
X109997775Y-91803393D01*
X109964635Y-91970000D01*
X109964635Y-94361000D01*
X103124025Y-94361000D01*
X103126571Y-81209750D01*
X109973000Y-81209750D01*
X109973000Y-82714935D01*
X110038007Y-82871876D01*
X110158124Y-82991993D01*
X110315064Y-83057000D01*
X110870250Y-83057000D01*
X110977000Y-82950250D01*
X110977000Y-81103000D01*
X111023000Y-81103000D01*
X111023000Y-82950250D01*
X111129750Y-83057000D01*
X111684936Y-83057000D01*
X111841876Y-82991993D01*
X111850000Y-82983869D01*
X111858124Y-82991993D01*
X112015064Y-83057000D01*
X112570250Y-83057000D01*
X112677000Y-82950250D01*
X112677000Y-81103000D01*
X112723000Y-81103000D01*
X112723000Y-82950250D01*
X112829750Y-83057000D01*
X113384936Y-83057000D01*
X113541876Y-82991993D01*
X113550000Y-82983869D01*
X113558124Y-82991993D01*
X113715064Y-83057000D01*
X114270250Y-83057000D01*
X114377000Y-82950250D01*
X114377000Y-81103000D01*
X114423000Y-81103000D01*
X114423000Y-82950250D01*
X114529750Y-83057000D01*
X115084936Y-83057000D01*
X115241876Y-82991993D01*
X115361993Y-82871876D01*
X115427000Y-82714935D01*
X115427000Y-81209750D01*
X115320250Y-81103000D01*
X114423000Y-81103000D01*
X114377000Y-81103000D01*
X112723000Y-81103000D01*
X112677000Y-81103000D01*
X111023000Y-81103000D01*
X110977000Y-81103000D01*
X110079750Y-81103000D01*
X109973000Y-81209750D01*
X103126571Y-81209750D01*
X103126975Y-79127000D01*
X110257123Y-79127000D01*
X110158124Y-79168007D01*
X110158124Y-79168007D01*
G37*
X110158124Y-79168007D02*
X110038007Y-79288124D01*
X109973000Y-79445065D01*
X109973000Y-80950250D01*
X110079750Y-81057000D01*
X110977000Y-81057000D01*
X110977000Y-81037000D01*
X111023000Y-81037000D01*
X111023000Y-81057000D01*
X112677000Y-81057000D01*
X112677000Y-81037000D01*
X112723000Y-81037000D01*
X112723000Y-81057000D01*
X114377000Y-81057000D01*
X114377000Y-81037000D01*
X114423000Y-81037000D01*
X114423000Y-81057000D01*
X115320250Y-81057000D01*
X115427000Y-80950250D01*
X115427000Y-79445065D01*
X115361993Y-79288124D01*
X115241876Y-79168007D01*
X115142877Y-79127000D01*
X120872733Y-79127000D01*
X120840766Y-94361000D01*
X118324290Y-94361000D01*
X117530500Y-93567210D01*
X117530500Y-93380945D01*
X117412209Y-93095365D01*
X117193635Y-92876791D01*
X116908055Y-92758500D01*
X116598945Y-92758500D01*
X116313365Y-92876791D01*
X116094791Y-93095365D01*
X115976500Y-93380945D01*
X115976500Y-93690055D01*
X116094791Y-93975635D01*
X116313365Y-94194209D01*
X116598945Y-94312500D01*
X116782810Y-94312500D01*
X116831310Y-94361000D01*
X115435365Y-94361000D01*
X115435365Y-91970000D01*
X115402225Y-91803393D01*
X115307850Y-91662150D01*
X115166607Y-91567775D01*
X115114200Y-91557351D01*
X115204000Y-91340555D01*
X115204000Y-91031445D01*
X115085709Y-90745865D01*
X114867135Y-90527291D01*
X114581555Y-90409000D01*
X114272445Y-90409000D01*
X113986865Y-90527291D01*
X113768291Y-90745865D01*
X113650000Y-91031445D01*
X113650000Y-91340555D01*
X113735689Y-91547427D01*
X113633393Y-91567775D01*
X113550000Y-91623496D01*
X113489500Y-91583072D01*
X113489500Y-91285445D01*
X113371209Y-90999865D01*
X113152635Y-90781291D01*
X112867055Y-90663000D01*
X112557945Y-90663000D01*
X112272365Y-90781291D01*
X112053791Y-90999865D01*
X111935500Y-91285445D01*
X111935500Y-91567356D01*
X111933393Y-91567775D01*
X111850000Y-91623496D01*
X111766607Y-91567775D01*
X111600000Y-91534635D01*
X110400000Y-91534635D01*
X110233393Y-91567775D01*
X110092150Y-91662150D01*
X109997775Y-91803393D01*
X109964635Y-91970000D01*
X109964635Y-94361000D01*
X103124025Y-94361000D01*
X103126571Y-81209750D01*
X109973000Y-81209750D01*
X109973000Y-82714935D01*
X110038007Y-82871876D01*
X110158124Y-82991993D01*
X110315064Y-83057000D01*
X110870250Y-83057000D01*
X110977000Y-82950250D01*
X110977000Y-81103000D01*
X111023000Y-81103000D01*
X111023000Y-82950250D01*
X111129750Y-83057000D01*
X111684936Y-83057000D01*
X111841876Y-82991993D01*
X111850000Y-82983869D01*
X111858124Y-82991993D01*
X112015064Y-83057000D01*
X112570250Y-83057000D01*
X112677000Y-82950250D01*
X112677000Y-81103000D01*
X112723000Y-81103000D01*
X112723000Y-82950250D01*
X112829750Y-83057000D01*
X113384936Y-83057000D01*
X113541876Y-82991993D01*
X113550000Y-82983869D01*
X113558124Y-82991993D01*
X113715064Y-83057000D01*
X114270250Y-83057000D01*
X114377000Y-82950250D01*
X114377000Y-81103000D01*
X114423000Y-81103000D01*
X114423000Y-82950250D01*
X114529750Y-83057000D01*
X115084936Y-83057000D01*
X115241876Y-82991993D01*
X115361993Y-82871876D01*
X115427000Y-82714935D01*
X115427000Y-81209750D01*
X115320250Y-81103000D01*
X114423000Y-81103000D01*
X114377000Y-81103000D01*
X112723000Y-81103000D01*
X112677000Y-81103000D01*
X111023000Y-81103000D01*
X110977000Y-81103000D01*
X110079750Y-81103000D01*
X109973000Y-81209750D01*
X103126571Y-81209750D01*
X103126975Y-79127000D01*
X110257123Y-79127000D01*
X110158124Y-79168007D01*
G04 #@! TO.N,GND*
G36*
X100560291Y-71964037D02*
X101130362Y-72153674D01*
X101644252Y-72464898D01*
X102076417Y-72882235D01*
X102405385Y-73384949D01*
X102614803Y-73948058D01*
X102696321Y-74559003D01*
X102688166Y-74600000D01*
X102727127Y-74795870D01*
X102838079Y-74961921D01*
X103004130Y-75072873D01*
X103150561Y-75102000D01*
X108861035Y-75102000D01*
X108861035Y-77116000D01*
X108894175Y-77282607D01*
X108988550Y-77423850D01*
X109129793Y-77518225D01*
X109296400Y-77551365D01*
X111023600Y-77551365D01*
X111190207Y-77518225D01*
X111331450Y-77423850D01*
X111425825Y-77282607D01*
X111458965Y-77116000D01*
X111458965Y-76628690D01*
X111484282Y-76755967D01*
X111769531Y-77182870D01*
X111898000Y-77268711D01*
X111898000Y-78573000D01*
X103000000Y-78573000D01*
X102836671Y-78605472D01*
X102698124Y-78698007D01*
X102605535Y-78836518D01*
X102573000Y-78999917D01*
X102570000Y-94487917D01*
X102602503Y-94651406D01*
X102695065Y-94789935D01*
X102833594Y-94882497D01*
X102997000Y-94915000D01*
X108334962Y-94915000D01*
X108337533Y-94927925D01*
X108514791Y-95193210D01*
X108581756Y-95237955D01*
X108962754Y-95618953D01*
X108962757Y-95618955D01*
X108989500Y-95645698D01*
X108989501Y-96250507D01*
X108973788Y-96329500D01*
X109036033Y-96642424D01*
X109069249Y-96692135D01*
X109213291Y-96907710D01*
X109280257Y-96952455D01*
X109376437Y-97048635D01*
X109296400Y-97048635D01*
X109129793Y-97081775D01*
X108988550Y-97176150D01*
X108894175Y-97317393D01*
X108861035Y-97484000D01*
X108861035Y-99498000D01*
X103150561Y-99498000D01*
X103004130Y-99527127D01*
X102838079Y-99638079D01*
X102727127Y-99804130D01*
X102688166Y-100000000D01*
X102692441Y-100021494D01*
X102627884Y-100597038D01*
X102430305Y-101164406D01*
X102111939Y-101673900D01*
X101688602Y-102100202D01*
X101181348Y-102422116D01*
X100615374Y-102623650D01*
X100018812Y-102694786D01*
X99421320Y-102631987D01*
X98852587Y-102438375D01*
X98340882Y-102123571D01*
X97911640Y-101703226D01*
X97586190Y-101198228D01*
X97380710Y-100633675D01*
X97305411Y-100037624D01*
X97348633Y-99596805D01*
X97973000Y-99596805D01*
X97973000Y-100403195D01*
X98281593Y-101148203D01*
X98851797Y-101718407D01*
X99596805Y-102027000D01*
X100403195Y-102027000D01*
X101148203Y-101718407D01*
X101718407Y-101148203D01*
X102027000Y-100403195D01*
X102027000Y-99596805D01*
X101718407Y-98851797D01*
X101148203Y-98281593D01*
X100403195Y-97973000D01*
X99596805Y-97973000D01*
X98851797Y-98281593D01*
X98281593Y-98851797D01*
X97973000Y-99596805D01*
X97348633Y-99596805D01*
X97364037Y-99439709D01*
X97553674Y-98869638D01*
X97864898Y-98355748D01*
X98282235Y-97923583D01*
X98784949Y-97594615D01*
X99348058Y-97385197D01*
X99959003Y-97303679D01*
X100000000Y-97311834D01*
X100195869Y-97272873D01*
X100361921Y-97161921D01*
X100472873Y-96995870D01*
X100502000Y-96849439D01*
X100502000Y-77750561D01*
X100472873Y-77604130D01*
X100361921Y-77438079D01*
X100195870Y-77327127D01*
X100000000Y-77288166D01*
X99978506Y-77292441D01*
X99402962Y-77227884D01*
X98835594Y-77030305D01*
X98326100Y-76711939D01*
X97899798Y-76288602D01*
X97577884Y-75781348D01*
X97376350Y-75215374D01*
X97305214Y-74618812D01*
X97349568Y-74196805D01*
X97973000Y-74196805D01*
X97973000Y-75003195D01*
X98281593Y-75748203D01*
X98851797Y-76318407D01*
X99596805Y-76627000D01*
X100403195Y-76627000D01*
X101148203Y-76318407D01*
X101718407Y-75748203D01*
X102027000Y-75003195D01*
X102027000Y-74196805D01*
X101718407Y-73451797D01*
X101148203Y-72881593D01*
X100403195Y-72573000D01*
X99596805Y-72573000D01*
X98851797Y-72881593D01*
X98281593Y-73451797D01*
X97973000Y-74196805D01*
X97349568Y-74196805D01*
X97368013Y-74021319D01*
X97561624Y-73452588D01*
X97876429Y-72940882D01*
X98296774Y-72511640D01*
X98801772Y-72186190D01*
X99366326Y-71980710D01*
X99962376Y-71905411D01*
X100560291Y-71964037D01*
X100560291Y-71964037D01*
G37*
X100560291Y-71964037D02*
X101130362Y-72153674D01*
X101644252Y-72464898D01*
X102076417Y-72882235D01*
X102405385Y-73384949D01*
X102614803Y-73948058D01*
X102696321Y-74559003D01*
X102688166Y-74600000D01*
X102727127Y-74795870D01*
X102838079Y-74961921D01*
X103004130Y-75072873D01*
X103150561Y-75102000D01*
X108861035Y-75102000D01*
X108861035Y-77116000D01*
X108894175Y-77282607D01*
X108988550Y-77423850D01*
X109129793Y-77518225D01*
X109296400Y-77551365D01*
X111023600Y-77551365D01*
X111190207Y-77518225D01*
X111331450Y-77423850D01*
X111425825Y-77282607D01*
X111458965Y-77116000D01*
X111458965Y-76628690D01*
X111484282Y-76755967D01*
X111769531Y-77182870D01*
X111898000Y-77268711D01*
X111898000Y-78573000D01*
X103000000Y-78573000D01*
X102836671Y-78605472D01*
X102698124Y-78698007D01*
X102605535Y-78836518D01*
X102573000Y-78999917D01*
X102570000Y-94487917D01*
X102602503Y-94651406D01*
X102695065Y-94789935D01*
X102833594Y-94882497D01*
X102997000Y-94915000D01*
X108334962Y-94915000D01*
X108337533Y-94927925D01*
X108514791Y-95193210D01*
X108581756Y-95237955D01*
X108962754Y-95618953D01*
X108962757Y-95618955D01*
X108989500Y-95645698D01*
X108989501Y-96250507D01*
X108973788Y-96329500D01*
X109036033Y-96642424D01*
X109069249Y-96692135D01*
X109213291Y-96907710D01*
X109280257Y-96952455D01*
X109376437Y-97048635D01*
X109296400Y-97048635D01*
X109129793Y-97081775D01*
X108988550Y-97176150D01*
X108894175Y-97317393D01*
X108861035Y-97484000D01*
X108861035Y-99498000D01*
X103150561Y-99498000D01*
X103004130Y-99527127D01*
X102838079Y-99638079D01*
X102727127Y-99804130D01*
X102688166Y-100000000D01*
X102692441Y-100021494D01*
X102627884Y-100597038D01*
X102430305Y-101164406D01*
X102111939Y-101673900D01*
X101688602Y-102100202D01*
X101181348Y-102422116D01*
X100615374Y-102623650D01*
X100018812Y-102694786D01*
X99421320Y-102631987D01*
X98852587Y-102438375D01*
X98340882Y-102123571D01*
X97911640Y-101703226D01*
X97586190Y-101198228D01*
X97380710Y-100633675D01*
X97305411Y-100037624D01*
X97348633Y-99596805D01*
X97973000Y-99596805D01*
X97973000Y-100403195D01*
X98281593Y-101148203D01*
X98851797Y-101718407D01*
X99596805Y-102027000D01*
X100403195Y-102027000D01*
X101148203Y-101718407D01*
X101718407Y-101148203D01*
X102027000Y-100403195D01*
X102027000Y-99596805D01*
X101718407Y-98851797D01*
X101148203Y-98281593D01*
X100403195Y-97973000D01*
X99596805Y-97973000D01*
X98851797Y-98281593D01*
X98281593Y-98851797D01*
X97973000Y-99596805D01*
X97348633Y-99596805D01*
X97364037Y-99439709D01*
X97553674Y-98869638D01*
X97864898Y-98355748D01*
X98282235Y-97923583D01*
X98784949Y-97594615D01*
X99348058Y-97385197D01*
X99959003Y-97303679D01*
X100000000Y-97311834D01*
X100195869Y-97272873D01*
X100361921Y-97161921D01*
X100472873Y-96995870D01*
X100502000Y-96849439D01*
X100502000Y-77750561D01*
X100472873Y-77604130D01*
X100361921Y-77438079D01*
X100195870Y-77327127D01*
X100000000Y-77288166D01*
X99978506Y-77292441D01*
X99402962Y-77227884D01*
X98835594Y-77030305D01*
X98326100Y-76711939D01*
X97899798Y-76288602D01*
X97577884Y-75781348D01*
X97376350Y-75215374D01*
X97305214Y-74618812D01*
X97349568Y-74196805D01*
X97973000Y-74196805D01*
X97973000Y-75003195D01*
X98281593Y-75748203D01*
X98851797Y-76318407D01*
X99596805Y-76627000D01*
X100403195Y-76627000D01*
X101148203Y-76318407D01*
X101718407Y-75748203D01*
X102027000Y-75003195D01*
X102027000Y-74196805D01*
X101718407Y-73451797D01*
X101148203Y-72881593D01*
X100403195Y-72573000D01*
X99596805Y-72573000D01*
X98851797Y-72881593D01*
X98281593Y-73451797D01*
X97973000Y-74196805D01*
X97349568Y-74196805D01*
X97368013Y-74021319D01*
X97561624Y-73452588D01*
X97876429Y-72940882D01*
X98296774Y-72511640D01*
X98801772Y-72186190D01*
X99366326Y-71980710D01*
X99962376Y-71905411D01*
X100560291Y-71964037D01*
G36*
X122516474Y-81973895D02*
X122431716Y-82400000D01*
X122531882Y-82903567D01*
X122817130Y-83330470D01*
X123244033Y-83615718D01*
X123575930Y-83681737D01*
X123232460Y-83756443D01*
X122818745Y-84043671D01*
X122546440Y-84467357D01*
X122476690Y-84715421D01*
X122563973Y-84917000D01*
X123877000Y-84917000D01*
X123877000Y-84897000D01*
X123923000Y-84897000D01*
X123923000Y-84917000D01*
X123943000Y-84917000D01*
X123943000Y-84963000D01*
X123923000Y-84963000D01*
X123923000Y-84983000D01*
X123877000Y-84983000D01*
X123877000Y-84963000D01*
X122563973Y-84963000D01*
X122476690Y-85164579D01*
X122546440Y-85412643D01*
X122818745Y-85836329D01*
X123232460Y-86123557D01*
X123575930Y-86198263D01*
X123244033Y-86264282D01*
X122817130Y-86549530D01*
X122531882Y-86976433D01*
X122431716Y-87480000D01*
X122531882Y-87983567D01*
X122817130Y-88410470D01*
X123244033Y-88695718D01*
X123516926Y-88750000D01*
X123244033Y-88804282D01*
X122817130Y-89089530D01*
X122531882Y-89516433D01*
X122431716Y-90020000D01*
X122531882Y-90523567D01*
X122817130Y-90950470D01*
X123244033Y-91235718D01*
X123516926Y-91290000D01*
X123244033Y-91344282D01*
X122817130Y-91629530D01*
X122531882Y-92056433D01*
X122431716Y-92560000D01*
X122531882Y-93063567D01*
X122817130Y-93490470D01*
X123244033Y-93775718D01*
X123299650Y-93786781D01*
X123082606Y-93876684D01*
X122676684Y-94282606D01*
X122457000Y-94812969D01*
X122457000Y-95387031D01*
X122676684Y-95917394D01*
X123082606Y-96323316D01*
X123612969Y-96543000D01*
X124187031Y-96543000D01*
X124717394Y-96323316D01*
X124898001Y-96142709D01*
X124898001Y-96849439D01*
X124927128Y-96995870D01*
X125038080Y-97161921D01*
X125204131Y-97272873D01*
X125400000Y-97311834D01*
X125421494Y-97307559D01*
X125997042Y-97372117D01*
X126564408Y-97569696D01*
X127073900Y-97888061D01*
X127500202Y-98311398D01*
X127822116Y-98818652D01*
X128023650Y-99384626D01*
X128094786Y-99981188D01*
X128031987Y-100578680D01*
X127838375Y-101147413D01*
X127523571Y-101659118D01*
X127103226Y-102088360D01*
X126598228Y-102413810D01*
X126033675Y-102619290D01*
X125437624Y-102694589D01*
X124839711Y-102635963D01*
X124269637Y-102446326D01*
X123755749Y-102135104D01*
X123323583Y-101717765D01*
X122994613Y-101215048D01*
X122785197Y-100651942D01*
X122703679Y-100040997D01*
X122711834Y-100000000D01*
X122672873Y-99804130D01*
X122561921Y-99638079D01*
X122500151Y-99596805D01*
X123373000Y-99596805D01*
X123373000Y-100403195D01*
X123681593Y-101148203D01*
X124251797Y-101718407D01*
X124996805Y-102027000D01*
X125803195Y-102027000D01*
X126548203Y-101718407D01*
X127118407Y-101148203D01*
X127427000Y-100403195D01*
X127427000Y-99596805D01*
X127118407Y-98851797D01*
X126548203Y-98281593D01*
X125803195Y-97973000D01*
X124996805Y-97973000D01*
X124251797Y-98281593D01*
X123681593Y-98851797D01*
X123373000Y-99596805D01*
X122500151Y-99596805D01*
X122395870Y-99527127D01*
X122249439Y-99498000D01*
X116194130Y-99498000D01*
X116423557Y-99167540D01*
X116530600Y-98675400D01*
X116530600Y-98523000D01*
X115263000Y-98523000D01*
X115263000Y-98543000D01*
X115217000Y-98543000D01*
X115217000Y-98523000D01*
X115197000Y-98523000D01*
X115197000Y-98477000D01*
X115217000Y-98477000D01*
X115217000Y-97163973D01*
X115263000Y-97163973D01*
X115263000Y-98477000D01*
X116530600Y-98477000D01*
X116530600Y-98324600D01*
X116423557Y-97832460D01*
X116136329Y-97418745D01*
X115712643Y-97146440D01*
X115464579Y-97076690D01*
X115263000Y-97163973D01*
X115217000Y-97163973D01*
X115015421Y-97076690D01*
X114767357Y-97146440D01*
X114343671Y-97418745D01*
X114056443Y-97832460D01*
X113981737Y-98175930D01*
X113915718Y-97844033D01*
X113630470Y-97417130D01*
X113461459Y-97304201D01*
X113455467Y-97274075D01*
X113426520Y-97230753D01*
X113278210Y-97008790D01*
X113211244Y-96964045D01*
X112509957Y-96262759D01*
X112465210Y-96195790D01*
X112199925Y-96018533D01*
X111965989Y-95972000D01*
X111887000Y-95956288D01*
X111808011Y-95972000D01*
X111750377Y-95972000D01*
X111775000Y-95912555D01*
X111775000Y-95603445D01*
X111724145Y-95480671D01*
X111766607Y-95472225D01*
X111850000Y-95416504D01*
X111933393Y-95472225D01*
X112100000Y-95505365D01*
X113300000Y-95505365D01*
X113466607Y-95472225D01*
X113550000Y-95416504D01*
X113633393Y-95472225D01*
X113800000Y-95505365D01*
X115000000Y-95505365D01*
X115166607Y-95472225D01*
X115307850Y-95377850D01*
X115402225Y-95236607D01*
X115435365Y-95070000D01*
X115435365Y-94915000D01*
X117385309Y-94915000D01*
X117979655Y-95509346D01*
X117986889Y-95514180D01*
X119060657Y-96587948D01*
X119090055Y-96631945D01*
X119134052Y-96661343D01*
X119134055Y-96661346D01*
X119221647Y-96719873D01*
X119264375Y-96748423D01*
X119418097Y-96779000D01*
X119418101Y-96779000D01*
X119469999Y-96789323D01*
X119521897Y-96779000D01*
X120445156Y-96779000D01*
X120576865Y-96910709D01*
X120862445Y-97029000D01*
X121171555Y-97029000D01*
X121457135Y-96910709D01*
X121675709Y-96692135D01*
X121794000Y-96406555D01*
X121794000Y-96097445D01*
X121675709Y-95811865D01*
X121457135Y-95593291D01*
X121171555Y-95475000D01*
X120862445Y-95475000D01*
X120576865Y-95593291D01*
X120445156Y-95725000D01*
X119688291Y-95725000D01*
X118878291Y-94915000D01*
X120967500Y-94915000D01*
X121130078Y-94882839D01*
X121268800Y-94790568D01*
X121361653Y-94652233D01*
X121394499Y-94488896D01*
X121421216Y-81757000D01*
X122299579Y-81757000D01*
X122516474Y-81973895D01*
X122516474Y-81973895D01*
G37*
X122516474Y-81973895D02*
X122431716Y-82400000D01*
X122531882Y-82903567D01*
X122817130Y-83330470D01*
X123244033Y-83615718D01*
X123575930Y-83681737D01*
X123232460Y-83756443D01*
X122818745Y-84043671D01*
X122546440Y-84467357D01*
X122476690Y-84715421D01*
X122563973Y-84917000D01*
X123877000Y-84917000D01*
X123877000Y-84897000D01*
X123923000Y-84897000D01*
X123923000Y-84917000D01*
X123943000Y-84917000D01*
X123943000Y-84963000D01*
X123923000Y-84963000D01*
X123923000Y-84983000D01*
X123877000Y-84983000D01*
X123877000Y-84963000D01*
X122563973Y-84963000D01*
X122476690Y-85164579D01*
X122546440Y-85412643D01*
X122818745Y-85836329D01*
X123232460Y-86123557D01*
X123575930Y-86198263D01*
X123244033Y-86264282D01*
X122817130Y-86549530D01*
X122531882Y-86976433D01*
X122431716Y-87480000D01*
X122531882Y-87983567D01*
X122817130Y-88410470D01*
X123244033Y-88695718D01*
X123516926Y-88750000D01*
X123244033Y-88804282D01*
X122817130Y-89089530D01*
X122531882Y-89516433D01*
X122431716Y-90020000D01*
X122531882Y-90523567D01*
X122817130Y-90950470D01*
X123244033Y-91235718D01*
X123516926Y-91290000D01*
X123244033Y-91344282D01*
X122817130Y-91629530D01*
X122531882Y-92056433D01*
X122431716Y-92560000D01*
X122531882Y-93063567D01*
X122817130Y-93490470D01*
X123244033Y-93775718D01*
X123299650Y-93786781D01*
X123082606Y-93876684D01*
X122676684Y-94282606D01*
X122457000Y-94812969D01*
X122457000Y-95387031D01*
X122676684Y-95917394D01*
X123082606Y-96323316D01*
X123612969Y-96543000D01*
X124187031Y-96543000D01*
X124717394Y-96323316D01*
X124898001Y-96142709D01*
X124898001Y-96849439D01*
X124927128Y-96995870D01*
X125038080Y-97161921D01*
X125204131Y-97272873D01*
X125400000Y-97311834D01*
X125421494Y-97307559D01*
X125997042Y-97372117D01*
X126564408Y-97569696D01*
X127073900Y-97888061D01*
X127500202Y-98311398D01*
X127822116Y-98818652D01*
X128023650Y-99384626D01*
X128094786Y-99981188D01*
X128031987Y-100578680D01*
X127838375Y-101147413D01*
X127523571Y-101659118D01*
X127103226Y-102088360D01*
X126598228Y-102413810D01*
X126033675Y-102619290D01*
X125437624Y-102694589D01*
X124839711Y-102635963D01*
X124269637Y-102446326D01*
X123755749Y-102135104D01*
X123323583Y-101717765D01*
X122994613Y-101215048D01*
X122785197Y-100651942D01*
X122703679Y-100040997D01*
X122711834Y-100000000D01*
X122672873Y-99804130D01*
X122561921Y-99638079D01*
X122500151Y-99596805D01*
X123373000Y-99596805D01*
X123373000Y-100403195D01*
X123681593Y-101148203D01*
X124251797Y-101718407D01*
X124996805Y-102027000D01*
X125803195Y-102027000D01*
X126548203Y-101718407D01*
X127118407Y-101148203D01*
X127427000Y-100403195D01*
X127427000Y-99596805D01*
X127118407Y-98851797D01*
X126548203Y-98281593D01*
X125803195Y-97973000D01*
X124996805Y-97973000D01*
X124251797Y-98281593D01*
X123681593Y-98851797D01*
X123373000Y-99596805D01*
X122500151Y-99596805D01*
X122395870Y-99527127D01*
X122249439Y-99498000D01*
X116194130Y-99498000D01*
X116423557Y-99167540D01*
X116530600Y-98675400D01*
X116530600Y-98523000D01*
X115263000Y-98523000D01*
X115263000Y-98543000D01*
X115217000Y-98543000D01*
X115217000Y-98523000D01*
X115197000Y-98523000D01*
X115197000Y-98477000D01*
X115217000Y-98477000D01*
X115217000Y-97163973D01*
X115263000Y-97163973D01*
X115263000Y-98477000D01*
X116530600Y-98477000D01*
X116530600Y-98324600D01*
X116423557Y-97832460D01*
X116136329Y-97418745D01*
X115712643Y-97146440D01*
X115464579Y-97076690D01*
X115263000Y-97163973D01*
X115217000Y-97163973D01*
X115015421Y-97076690D01*
X114767357Y-97146440D01*
X114343671Y-97418745D01*
X114056443Y-97832460D01*
X113981737Y-98175930D01*
X113915718Y-97844033D01*
X113630470Y-97417130D01*
X113461459Y-97304201D01*
X113455467Y-97274075D01*
X113426520Y-97230753D01*
X113278210Y-97008790D01*
X113211244Y-96964045D01*
X112509957Y-96262759D01*
X112465210Y-96195790D01*
X112199925Y-96018533D01*
X111965989Y-95972000D01*
X111887000Y-95956288D01*
X111808011Y-95972000D01*
X111750377Y-95972000D01*
X111775000Y-95912555D01*
X111775000Y-95603445D01*
X111724145Y-95480671D01*
X111766607Y-95472225D01*
X111850000Y-95416504D01*
X111933393Y-95472225D01*
X112100000Y-95505365D01*
X113300000Y-95505365D01*
X113466607Y-95472225D01*
X113550000Y-95416504D01*
X113633393Y-95472225D01*
X113800000Y-95505365D01*
X115000000Y-95505365D01*
X115166607Y-95472225D01*
X115307850Y-95377850D01*
X115402225Y-95236607D01*
X115435365Y-95070000D01*
X115435365Y-94915000D01*
X117385309Y-94915000D01*
X117979655Y-95509346D01*
X117986889Y-95514180D01*
X119060657Y-96587948D01*
X119090055Y-96631945D01*
X119134052Y-96661343D01*
X119134055Y-96661346D01*
X119221647Y-96719873D01*
X119264375Y-96748423D01*
X119418097Y-96779000D01*
X119418101Y-96779000D01*
X119469999Y-96789323D01*
X119521897Y-96779000D01*
X120445156Y-96779000D01*
X120576865Y-96910709D01*
X120862445Y-97029000D01*
X121171555Y-97029000D01*
X121457135Y-96910709D01*
X121675709Y-96692135D01*
X121794000Y-96406555D01*
X121794000Y-96097445D01*
X121675709Y-95811865D01*
X121457135Y-95593291D01*
X121171555Y-95475000D01*
X120862445Y-95475000D01*
X120576865Y-95593291D01*
X120445156Y-95725000D01*
X119688291Y-95725000D01*
X118878291Y-94915000D01*
X120967500Y-94915000D01*
X121130078Y-94882839D01*
X121268800Y-94790568D01*
X121361653Y-94652233D01*
X121394499Y-94488896D01*
X121421216Y-81757000D01*
X122299579Y-81757000D01*
X122516474Y-81973895D01*
G36*
X125978681Y-71968013D02*
X126547412Y-72161624D01*
X127059118Y-72476429D01*
X127488360Y-72896774D01*
X127813810Y-73401772D01*
X128019290Y-73966326D01*
X128094589Y-74562376D01*
X128035963Y-75160289D01*
X127846326Y-75730363D01*
X127535104Y-76244251D01*
X127117765Y-76676417D01*
X126615048Y-77005387D01*
X126051942Y-77214803D01*
X125440997Y-77296321D01*
X125400000Y-77288166D01*
X125204130Y-77327127D01*
X125038079Y-77438079D01*
X124927127Y-77604131D01*
X124898000Y-77750562D01*
X124898000Y-81412822D01*
X124555967Y-81184282D01*
X124179511Y-81109400D01*
X123620489Y-81109400D01*
X123575725Y-81118304D01*
X123105864Y-80648443D01*
X123068090Y-80591910D01*
X122844152Y-80442280D01*
X122646678Y-80403000D01*
X122646676Y-80403000D01*
X122580000Y-80389737D01*
X122513324Y-80403000D01*
X121424057Y-80403000D01*
X121426999Y-79000896D01*
X121394497Y-78836594D01*
X121301935Y-78698065D01*
X121163406Y-78605503D01*
X121000000Y-78573000D01*
X113502000Y-78573000D01*
X113502000Y-77268711D01*
X113630470Y-77182870D01*
X113915718Y-76755966D01*
X113981736Y-76424070D01*
X114056443Y-76767540D01*
X114343671Y-77181255D01*
X114767357Y-77453560D01*
X115015421Y-77523310D01*
X115217000Y-77436027D01*
X115217000Y-76123000D01*
X115263000Y-76123000D01*
X115263000Y-77436027D01*
X115464579Y-77523310D01*
X115712643Y-77453560D01*
X116136329Y-77181255D01*
X116423557Y-76767540D01*
X116530600Y-76275400D01*
X116530600Y-76123000D01*
X115263000Y-76123000D01*
X115217000Y-76123000D01*
X115197000Y-76123000D01*
X115197000Y-76077000D01*
X115217000Y-76077000D01*
X115217000Y-76057000D01*
X115263000Y-76057000D01*
X115263000Y-76077000D01*
X116530600Y-76077000D01*
X116530600Y-75924600D01*
X116423557Y-75432460D01*
X116194130Y-75102000D01*
X122249439Y-75102000D01*
X122395870Y-75072873D01*
X122561921Y-74961921D01*
X122672873Y-74795870D01*
X122711834Y-74600000D01*
X122707559Y-74578506D01*
X122750373Y-74196805D01*
X123373000Y-74196805D01*
X123373000Y-75003195D01*
X123681593Y-75748203D01*
X124251797Y-76318407D01*
X124996805Y-76627000D01*
X125803195Y-76627000D01*
X126548203Y-76318407D01*
X127118407Y-75748203D01*
X127427000Y-75003195D01*
X127427000Y-74196805D01*
X127118407Y-73451797D01*
X126548203Y-72881593D01*
X125803195Y-72573000D01*
X124996805Y-72573000D01*
X124251797Y-72881593D01*
X123681593Y-73451797D01*
X123373000Y-74196805D01*
X122750373Y-74196805D01*
X122772117Y-74002958D01*
X122969696Y-73435592D01*
X123288061Y-72926100D01*
X123711398Y-72499798D01*
X124218652Y-72177884D01*
X124784626Y-71976350D01*
X125381188Y-71905214D01*
X125978681Y-71968013D01*
X125978681Y-71968013D01*
G37*
X125978681Y-71968013D02*
X126547412Y-72161624D01*
X127059118Y-72476429D01*
X127488360Y-72896774D01*
X127813810Y-73401772D01*
X128019290Y-73966326D01*
X128094589Y-74562376D01*
X128035963Y-75160289D01*
X127846326Y-75730363D01*
X127535104Y-76244251D01*
X127117765Y-76676417D01*
X126615048Y-77005387D01*
X126051942Y-77214803D01*
X125440997Y-77296321D01*
X125400000Y-77288166D01*
X125204130Y-77327127D01*
X125038079Y-77438079D01*
X124927127Y-77604131D01*
X124898000Y-77750562D01*
X124898000Y-81412822D01*
X124555967Y-81184282D01*
X124179511Y-81109400D01*
X123620489Y-81109400D01*
X123575725Y-81118304D01*
X123105864Y-80648443D01*
X123068090Y-80591910D01*
X122844152Y-80442280D01*
X122646678Y-80403000D01*
X122646676Y-80403000D01*
X122580000Y-80389737D01*
X122513324Y-80403000D01*
X121424057Y-80403000D01*
X121426999Y-79000896D01*
X121394497Y-78836594D01*
X121301935Y-78698065D01*
X121163406Y-78605503D01*
X121000000Y-78573000D01*
X113502000Y-78573000D01*
X113502000Y-77268711D01*
X113630470Y-77182870D01*
X113915718Y-76755966D01*
X113981736Y-76424070D01*
X114056443Y-76767540D01*
X114343671Y-77181255D01*
X114767357Y-77453560D01*
X115015421Y-77523310D01*
X115217000Y-77436027D01*
X115217000Y-76123000D01*
X115263000Y-76123000D01*
X115263000Y-77436027D01*
X115464579Y-77523310D01*
X115712643Y-77453560D01*
X116136329Y-77181255D01*
X116423557Y-76767540D01*
X116530600Y-76275400D01*
X116530600Y-76123000D01*
X115263000Y-76123000D01*
X115217000Y-76123000D01*
X115197000Y-76123000D01*
X115197000Y-76077000D01*
X115217000Y-76077000D01*
X115217000Y-76057000D01*
X115263000Y-76057000D01*
X115263000Y-76077000D01*
X116530600Y-76077000D01*
X116530600Y-75924600D01*
X116423557Y-75432460D01*
X116194130Y-75102000D01*
X122249439Y-75102000D01*
X122395870Y-75072873D01*
X122561921Y-74961921D01*
X122672873Y-74795870D01*
X122711834Y-74600000D01*
X122707559Y-74578506D01*
X122750373Y-74196805D01*
X123373000Y-74196805D01*
X123373000Y-75003195D01*
X123681593Y-75748203D01*
X124251797Y-76318407D01*
X124996805Y-76627000D01*
X125803195Y-76627000D01*
X126548203Y-76318407D01*
X127118407Y-75748203D01*
X127427000Y-75003195D01*
X127427000Y-74196805D01*
X127118407Y-73451797D01*
X126548203Y-72881593D01*
X125803195Y-72573000D01*
X124996805Y-72573000D01*
X124251797Y-72881593D01*
X123681593Y-73451797D01*
X123373000Y-74196805D01*
X122750373Y-74196805D01*
X122772117Y-74002958D01*
X122969696Y-73435592D01*
X123288061Y-72926100D01*
X123711398Y-72499798D01*
X124218652Y-72177884D01*
X124784626Y-71976350D01*
X125381188Y-71905214D01*
X125978681Y-71968013D01*
G04 #@! TD*
M02*
