G04 #@! TF.GenerationSoftware,KiCad,Pcbnew,(5.0.0)*
G04 #@! TF.CreationDate,2018-11-19T11:16:29+03:00*
G04 #@! TF.ProjectId,NeoP_6W,4E656F505F36572E6B696361645F7063,rev?*
G04 #@! TF.SameCoordinates,Original*
G04 #@! TF.FileFunction,Soldermask,Top*
G04 #@! TF.FilePolarity,Negative*
%FSLAX46Y46*%
G04 Gerber Fmt 4.6, Leading zero omitted, Abs format (unit mm)*
G04 Created by KiCad (PCBNEW (5.0.0)) date 11/19/18 11:16:29*
%MOMM*%
%LPD*%
G01*
G04 APERTURE LIST*
%ADD10C,0.100000*%
G04 APERTURE END LIST*
D10*
G36*
X125809122Y-98246115D02*
X125925041Y-98269173D01*
X126252620Y-98404861D01*
X126543511Y-98599228D01*
X126547436Y-98601851D01*
X126798149Y-98852564D01*
X126798151Y-98852567D01*
X126995139Y-99147380D01*
X127130827Y-99474959D01*
X127153885Y-99590878D01*
X127200000Y-99822714D01*
X127200000Y-100177286D01*
X127130827Y-100525040D01*
X126995140Y-100852618D01*
X126798149Y-101147436D01*
X126547436Y-101398149D01*
X126547433Y-101398151D01*
X126252620Y-101595139D01*
X125925041Y-101730827D01*
X125809122Y-101753885D01*
X125577286Y-101800000D01*
X125222714Y-101800000D01*
X124990878Y-101753885D01*
X124874959Y-101730827D01*
X124547380Y-101595139D01*
X124252567Y-101398151D01*
X124252564Y-101398149D01*
X124001851Y-101147436D01*
X123804860Y-100852618D01*
X123669173Y-100525040D01*
X123600000Y-100177286D01*
X123600000Y-99822714D01*
X123646115Y-99590878D01*
X123669173Y-99474959D01*
X123804861Y-99147380D01*
X124001849Y-98852567D01*
X124001851Y-98852564D01*
X124252564Y-98601851D01*
X124256489Y-98599228D01*
X124547380Y-98404861D01*
X124874959Y-98269173D01*
X124990878Y-98246115D01*
X125222714Y-98200000D01*
X125577286Y-98200000D01*
X125809122Y-98246115D01*
X125809122Y-98246115D01*
G37*
G36*
X100409122Y-98246115D02*
X100525041Y-98269173D01*
X100852620Y-98404861D01*
X101143511Y-98599228D01*
X101147436Y-98601851D01*
X101398149Y-98852564D01*
X101398151Y-98852567D01*
X101595139Y-99147380D01*
X101730827Y-99474959D01*
X101753885Y-99590878D01*
X101800000Y-99822714D01*
X101800000Y-100177286D01*
X101730827Y-100525040D01*
X101595140Y-100852618D01*
X101398149Y-101147436D01*
X101147436Y-101398149D01*
X101147433Y-101398151D01*
X100852620Y-101595139D01*
X100525041Y-101730827D01*
X100409122Y-101753885D01*
X100177286Y-101800000D01*
X99822714Y-101800000D01*
X99590878Y-101753885D01*
X99474959Y-101730827D01*
X99147380Y-101595139D01*
X98852567Y-101398151D01*
X98852564Y-101398149D01*
X98601851Y-101147436D01*
X98404860Y-100852618D01*
X98269173Y-100525040D01*
X98200000Y-100177286D01*
X98200000Y-99822714D01*
X98246115Y-99590878D01*
X98269173Y-99474959D01*
X98404861Y-99147380D01*
X98601849Y-98852567D01*
X98601851Y-98852564D01*
X98852564Y-98601851D01*
X98856489Y-98599228D01*
X99147380Y-98404861D01*
X99474959Y-98269173D01*
X99590878Y-98246115D01*
X99822714Y-98200000D01*
X100177286Y-98200000D01*
X100409122Y-98246115D01*
X100409122Y-98246115D01*
G37*
G36*
X112908502Y-97299389D02*
X113108990Y-97360207D01*
X113293759Y-97458967D01*
X113293762Y-97458969D01*
X113293763Y-97458970D01*
X113455718Y-97591882D01*
X113455719Y-97591884D01*
X113455721Y-97591885D01*
X113588631Y-97753836D01*
X113687393Y-97938609D01*
X113748211Y-98139097D01*
X113763600Y-98295349D01*
X113763600Y-98704650D01*
X113748211Y-98860902D01*
X113687393Y-99061390D01*
X113588633Y-99246159D01*
X113588631Y-99246162D01*
X113588630Y-99246163D01*
X113455718Y-99408118D01*
X113455716Y-99408119D01*
X113455715Y-99408121D01*
X113293764Y-99541031D01*
X113108991Y-99639793D01*
X112908503Y-99700611D01*
X112700000Y-99721146D01*
X112491498Y-99700611D01*
X112291010Y-99639793D01*
X112106237Y-99541031D01*
X111944283Y-99408118D01*
X111811372Y-99246165D01*
X111811370Y-99246163D01*
X111712607Y-99061391D01*
X111693289Y-98997708D01*
X111651789Y-98860903D01*
X111636400Y-98704651D01*
X111636400Y-98295350D01*
X111651789Y-98139098D01*
X111712607Y-97938610D01*
X111811367Y-97753841D01*
X111944280Y-97591885D01*
X111944282Y-97591882D01*
X111944284Y-97591881D01*
X111944285Y-97591879D01*
X112106236Y-97458969D01*
X112291009Y-97360207D01*
X112491497Y-97299389D01*
X112700000Y-97278854D01*
X112908502Y-97299389D01*
X112908502Y-97299389D01*
G37*
G36*
X115448502Y-97299389D02*
X115648990Y-97360207D01*
X115833759Y-97458967D01*
X115833762Y-97458969D01*
X115833763Y-97458970D01*
X115995718Y-97591882D01*
X115995719Y-97591884D01*
X115995721Y-97591885D01*
X116128631Y-97753836D01*
X116227393Y-97938609D01*
X116288211Y-98139097D01*
X116303600Y-98295349D01*
X116303600Y-98704650D01*
X116288211Y-98860902D01*
X116227393Y-99061390D01*
X116128633Y-99246159D01*
X116128631Y-99246162D01*
X116128630Y-99246163D01*
X115995718Y-99408118D01*
X115995716Y-99408119D01*
X115995715Y-99408121D01*
X115833764Y-99541031D01*
X115648991Y-99639793D01*
X115448503Y-99700611D01*
X115240000Y-99721146D01*
X115031498Y-99700611D01*
X114831010Y-99639793D01*
X114646237Y-99541031D01*
X114484283Y-99408118D01*
X114351372Y-99246165D01*
X114351370Y-99246163D01*
X114252607Y-99061391D01*
X114233289Y-98997708D01*
X114191789Y-98860903D01*
X114176400Y-98704651D01*
X114176400Y-98295350D01*
X114191789Y-98139098D01*
X114252607Y-97938610D01*
X114351367Y-97753841D01*
X114484280Y-97591885D01*
X114484282Y-97591882D01*
X114484284Y-97591881D01*
X114484285Y-97591879D01*
X114646236Y-97458969D01*
X114831009Y-97360207D01*
X115031497Y-97299389D01*
X115240000Y-97278854D01*
X115448502Y-97299389D01*
X115448502Y-97299389D01*
G37*
G36*
X111223600Y-99716000D02*
X109096400Y-99716000D01*
X109096400Y-97284000D01*
X111223600Y-97284000D01*
X111223600Y-99716000D01*
X111223600Y-99716000D01*
G37*
G36*
X124254692Y-93930729D02*
X124475993Y-94022395D01*
X124675158Y-94155473D01*
X124844527Y-94324842D01*
X124977605Y-94524007D01*
X125069271Y-94745308D01*
X125116000Y-94980233D01*
X125116000Y-95219767D01*
X125069271Y-95454692D01*
X124977605Y-95675993D01*
X124844527Y-95875158D01*
X124675158Y-96044527D01*
X124475993Y-96177605D01*
X124254692Y-96269271D01*
X124019767Y-96316000D01*
X123780233Y-96316000D01*
X123545308Y-96269271D01*
X123324007Y-96177605D01*
X123124842Y-96044527D01*
X122955473Y-95875158D01*
X122822395Y-95675993D01*
X122730729Y-95454692D01*
X122684000Y-95219767D01*
X122684000Y-94980233D01*
X122730729Y-94745308D01*
X122822395Y-94524007D01*
X122955473Y-94324842D01*
X123124842Y-94155473D01*
X123324007Y-94022395D01*
X123545308Y-93930729D01*
X123780233Y-93884000D01*
X124019767Y-93884000D01*
X124254692Y-93930729D01*
X124254692Y-93930729D01*
G37*
G36*
X115200000Y-95270000D02*
X110200000Y-95270000D01*
X110200000Y-91770000D01*
X115200000Y-91770000D01*
X115200000Y-95270000D01*
X115200000Y-95270000D01*
G37*
G36*
X124260903Y-91511789D02*
X124461391Y-91572607D01*
X124646164Y-91671369D01*
X124808118Y-91804282D01*
X124941031Y-91966236D01*
X125039793Y-92151009D01*
X125100611Y-92351497D01*
X125121146Y-92560000D01*
X125100611Y-92768503D01*
X125039793Y-92968991D01*
X124941031Y-93153764D01*
X124808118Y-93315718D01*
X124646164Y-93448631D01*
X124461391Y-93547393D01*
X124260903Y-93608211D01*
X124104651Y-93623600D01*
X123695349Y-93623600D01*
X123539097Y-93608211D01*
X123338609Y-93547393D01*
X123153836Y-93448631D01*
X122991882Y-93315718D01*
X122858969Y-93153764D01*
X122760207Y-92968991D01*
X122699389Y-92768503D01*
X122678854Y-92560000D01*
X122699389Y-92351497D01*
X122760207Y-92151009D01*
X122858969Y-91966236D01*
X122991882Y-91804282D01*
X123153836Y-91671369D01*
X123338609Y-91572607D01*
X123539097Y-91511789D01*
X123695349Y-91496400D01*
X124104651Y-91496400D01*
X124260903Y-91511789D01*
X124260903Y-91511789D01*
G37*
G36*
X124260903Y-88971789D02*
X124461391Y-89032607D01*
X124646164Y-89131369D01*
X124808118Y-89264282D01*
X124941031Y-89426236D01*
X125039793Y-89611009D01*
X125100611Y-89811497D01*
X125121146Y-90020000D01*
X125100611Y-90228503D01*
X125039793Y-90428991D01*
X124941031Y-90613764D01*
X124808118Y-90775718D01*
X124646164Y-90908631D01*
X124461391Y-91007393D01*
X124260903Y-91068211D01*
X124104651Y-91083600D01*
X123695349Y-91083600D01*
X123539097Y-91068211D01*
X123338609Y-91007393D01*
X123153836Y-90908631D01*
X122991882Y-90775718D01*
X122858969Y-90613764D01*
X122760207Y-90428991D01*
X122699389Y-90228503D01*
X122678854Y-90020000D01*
X122699389Y-89811497D01*
X122760207Y-89611009D01*
X122858969Y-89426236D01*
X122991882Y-89264282D01*
X123153836Y-89131369D01*
X123338609Y-89032607D01*
X123539097Y-88971789D01*
X123695349Y-88956400D01*
X124104651Y-88956400D01*
X124260903Y-88971789D01*
X124260903Y-88971789D01*
G37*
G36*
X116900000Y-89900000D02*
X108500000Y-89900000D01*
X108500000Y-84700000D01*
X116900000Y-84700000D01*
X116900000Y-89900000D01*
X116900000Y-89900000D01*
G37*
G36*
X124260903Y-86431789D02*
X124461391Y-86492607D01*
X124646164Y-86591369D01*
X124808118Y-86724282D01*
X124941031Y-86886236D01*
X125039793Y-87071009D01*
X125100611Y-87271497D01*
X125121146Y-87480000D01*
X125100611Y-87688503D01*
X125039793Y-87888991D01*
X124941031Y-88073764D01*
X124808118Y-88235718D01*
X124646164Y-88368631D01*
X124461391Y-88467393D01*
X124260903Y-88528211D01*
X124104651Y-88543600D01*
X123695349Y-88543600D01*
X123539097Y-88528211D01*
X123338609Y-88467393D01*
X123153836Y-88368631D01*
X122991882Y-88235718D01*
X122858969Y-88073764D01*
X122760207Y-87888991D01*
X122699389Y-87688503D01*
X122678854Y-87480000D01*
X122699389Y-87271497D01*
X122760207Y-87071009D01*
X122858969Y-86886236D01*
X122991882Y-86724282D01*
X123153836Y-86591369D01*
X123338609Y-86492607D01*
X123539097Y-86431789D01*
X123695349Y-86416400D01*
X124104651Y-86416400D01*
X124260903Y-86431789D01*
X124260903Y-86431789D01*
G37*
G36*
X124260903Y-83891789D02*
X124461391Y-83952607D01*
X124646164Y-84051369D01*
X124808118Y-84184282D01*
X124941031Y-84346236D01*
X125039793Y-84531009D01*
X125100611Y-84731497D01*
X125121146Y-84940000D01*
X125100611Y-85148503D01*
X125039793Y-85348991D01*
X124941031Y-85533764D01*
X124808118Y-85695718D01*
X124646164Y-85828631D01*
X124461391Y-85927393D01*
X124260903Y-85988211D01*
X124104651Y-86003600D01*
X123695349Y-86003600D01*
X123539097Y-85988211D01*
X123338609Y-85927393D01*
X123153836Y-85828631D01*
X122991882Y-85695718D01*
X122858969Y-85533764D01*
X122760207Y-85348991D01*
X122699389Y-85148503D01*
X122678854Y-84940000D01*
X122699389Y-84731497D01*
X122760207Y-84531009D01*
X122858969Y-84346236D01*
X122991882Y-84184282D01*
X123153836Y-84051369D01*
X123338609Y-83952607D01*
X123539097Y-83891789D01*
X123695349Y-83876400D01*
X124104651Y-83876400D01*
X124260903Y-83891789D01*
X124260903Y-83891789D01*
G37*
G36*
X124260903Y-81351789D02*
X124461391Y-81412607D01*
X124646164Y-81511369D01*
X124808118Y-81644282D01*
X124941031Y-81806236D01*
X125039793Y-81991009D01*
X125100611Y-82191497D01*
X125121146Y-82400000D01*
X125100611Y-82608503D01*
X125039793Y-82808991D01*
X124941031Y-82993764D01*
X124808118Y-83155718D01*
X124646164Y-83288631D01*
X124461391Y-83387393D01*
X124260903Y-83448211D01*
X124104651Y-83463600D01*
X123695349Y-83463600D01*
X123539097Y-83448211D01*
X123338609Y-83387393D01*
X123153836Y-83288631D01*
X122991882Y-83155718D01*
X122858969Y-82993764D01*
X122760207Y-82808991D01*
X122699389Y-82608503D01*
X122678854Y-82400000D01*
X122699389Y-82191497D01*
X122760207Y-81991009D01*
X122858969Y-81806236D01*
X122991882Y-81644282D01*
X123153836Y-81511369D01*
X123338609Y-81412607D01*
X123539097Y-81351789D01*
X123695349Y-81336400D01*
X124104651Y-81336400D01*
X124260903Y-81351789D01*
X124260903Y-81351789D01*
G37*
G36*
X115200000Y-82830000D02*
X110200000Y-82830000D01*
X110200000Y-79330000D01*
X115200000Y-79330000D01*
X115200000Y-82830000D01*
X115200000Y-82830000D01*
G37*
G36*
X112908502Y-74899389D02*
X113108990Y-74960207D01*
X113293759Y-75058967D01*
X113293762Y-75058969D01*
X113293763Y-75058970D01*
X113455718Y-75191882D01*
X113455719Y-75191884D01*
X113455721Y-75191885D01*
X113588631Y-75353836D01*
X113687393Y-75538609D01*
X113748211Y-75739097D01*
X113763600Y-75895349D01*
X113763600Y-76304650D01*
X113748211Y-76460902D01*
X113687393Y-76661390D01*
X113588633Y-76846159D01*
X113588631Y-76846162D01*
X113588630Y-76846163D01*
X113455718Y-77008118D01*
X113455716Y-77008119D01*
X113455715Y-77008121D01*
X113293764Y-77141031D01*
X113108991Y-77239793D01*
X112908503Y-77300611D01*
X112700000Y-77321146D01*
X112491498Y-77300611D01*
X112291010Y-77239793D01*
X112106237Y-77141031D01*
X111944283Y-77008118D01*
X111811372Y-76846165D01*
X111811370Y-76846163D01*
X111712607Y-76661391D01*
X111693289Y-76597708D01*
X111651789Y-76460903D01*
X111636400Y-76304651D01*
X111636400Y-75895350D01*
X111651789Y-75739098D01*
X111712607Y-75538610D01*
X111811367Y-75353841D01*
X111944280Y-75191885D01*
X111944282Y-75191882D01*
X111944284Y-75191881D01*
X111944285Y-75191879D01*
X112106236Y-75058969D01*
X112291009Y-74960207D01*
X112491497Y-74899389D01*
X112700000Y-74878854D01*
X112908502Y-74899389D01*
X112908502Y-74899389D01*
G37*
G36*
X115448502Y-74899389D02*
X115648990Y-74960207D01*
X115833759Y-75058967D01*
X115833762Y-75058969D01*
X115833763Y-75058970D01*
X115995718Y-75191882D01*
X115995719Y-75191884D01*
X115995721Y-75191885D01*
X116128631Y-75353836D01*
X116227393Y-75538609D01*
X116288211Y-75739097D01*
X116303600Y-75895349D01*
X116303600Y-76304650D01*
X116288211Y-76460902D01*
X116227393Y-76661390D01*
X116128633Y-76846159D01*
X116128631Y-76846162D01*
X116128630Y-76846163D01*
X115995718Y-77008118D01*
X115995716Y-77008119D01*
X115995715Y-77008121D01*
X115833764Y-77141031D01*
X115648991Y-77239793D01*
X115448503Y-77300611D01*
X115240000Y-77321146D01*
X115031498Y-77300611D01*
X114831010Y-77239793D01*
X114646237Y-77141031D01*
X114484283Y-77008118D01*
X114351372Y-76846165D01*
X114351370Y-76846163D01*
X114252607Y-76661391D01*
X114233289Y-76597708D01*
X114191789Y-76460903D01*
X114176400Y-76304651D01*
X114176400Y-75895350D01*
X114191789Y-75739098D01*
X114252607Y-75538610D01*
X114351367Y-75353841D01*
X114484280Y-75191885D01*
X114484282Y-75191882D01*
X114484284Y-75191881D01*
X114484285Y-75191879D01*
X114646236Y-75058969D01*
X114831009Y-74960207D01*
X115031497Y-74899389D01*
X115240000Y-74878854D01*
X115448502Y-74899389D01*
X115448502Y-74899389D01*
G37*
G36*
X111223600Y-77316000D02*
X109096400Y-77316000D01*
X109096400Y-74884000D01*
X111223600Y-74884000D01*
X111223600Y-77316000D01*
X111223600Y-77316000D01*
G37*
G36*
X125809122Y-72846115D02*
X125925041Y-72869173D01*
X126252620Y-73004861D01*
X126543511Y-73199228D01*
X126547436Y-73201851D01*
X126798149Y-73452564D01*
X126995140Y-73747382D01*
X127130827Y-74074960D01*
X127200000Y-74422714D01*
X127200000Y-74777286D01*
X127153885Y-75009122D01*
X127130827Y-75125041D01*
X127103140Y-75191882D01*
X126995140Y-75452618D01*
X126798149Y-75747436D01*
X126547436Y-75998149D01*
X126547433Y-75998151D01*
X126252620Y-76195139D01*
X125925041Y-76330827D01*
X125809122Y-76353885D01*
X125577286Y-76400000D01*
X125222714Y-76400000D01*
X124990878Y-76353885D01*
X124874959Y-76330827D01*
X124547380Y-76195139D01*
X124252567Y-75998151D01*
X124252564Y-75998149D01*
X124001851Y-75747436D01*
X123804860Y-75452618D01*
X123696860Y-75191882D01*
X123669173Y-75125041D01*
X123646115Y-75009122D01*
X123600000Y-74777286D01*
X123600000Y-74422714D01*
X123669173Y-74074960D01*
X123804860Y-73747382D01*
X124001851Y-73452564D01*
X124252564Y-73201851D01*
X124256489Y-73199228D01*
X124547380Y-73004861D01*
X124874959Y-72869173D01*
X124990878Y-72846115D01*
X125222714Y-72800000D01*
X125577286Y-72800000D01*
X125809122Y-72846115D01*
X125809122Y-72846115D01*
G37*
G36*
X100409122Y-72846115D02*
X100525041Y-72869173D01*
X100852620Y-73004861D01*
X101143511Y-73199228D01*
X101147436Y-73201851D01*
X101398149Y-73452564D01*
X101595140Y-73747382D01*
X101730827Y-74074960D01*
X101800000Y-74422714D01*
X101800000Y-74777286D01*
X101753885Y-75009122D01*
X101730827Y-75125041D01*
X101703140Y-75191882D01*
X101595140Y-75452618D01*
X101398149Y-75747436D01*
X101147436Y-75998149D01*
X101147433Y-75998151D01*
X100852620Y-76195139D01*
X100525041Y-76330827D01*
X100409122Y-76353885D01*
X100177286Y-76400000D01*
X99822714Y-76400000D01*
X99590878Y-76353885D01*
X99474959Y-76330827D01*
X99147380Y-76195139D01*
X98852567Y-75998151D01*
X98852564Y-75998149D01*
X98601851Y-75747436D01*
X98404860Y-75452618D01*
X98296860Y-75191882D01*
X98269173Y-75125041D01*
X98246115Y-75009122D01*
X98200000Y-74777286D01*
X98200000Y-74422714D01*
X98269173Y-74074960D01*
X98404860Y-73747382D01*
X98601851Y-73452564D01*
X98852564Y-73201851D01*
X98856489Y-73199228D01*
X99147380Y-73004861D01*
X99474959Y-72869173D01*
X99590878Y-72846115D01*
X99822714Y-72800000D01*
X100177286Y-72800000D01*
X100409122Y-72846115D01*
X100409122Y-72846115D01*
G37*
M02*
